<?xml version="1.0" encoding="UTF-8" standalone="no"?>
<svg
   width="640mm"
   height="280mm"
   viewBox="-20 -260 640 280"
   version="1.1"
   id="svg868"
   sodipodi:docname="aquarium_lid_final.svg"
   inkscape:version="1.1.1 (3bf5ae0d25, 2021-09-20)"
   xmlns:inkscape="http://www.inkscape.org/namespaces/inkscape"
   xmlns:sodipodi="http://sodipodi.sourceforge.net/DTD/sodipodi-0.dtd"
   xmlns="http://www.w3.org/2000/svg"
   xmlns:svg="http://www.w3.org/2000/svg"
   xmlns:rdf="http://www.w3.org/1999/02/22-rdf-syntax-ns#"
   xmlns:cc="http://creativecommons.org/ns#"
   xmlns:dc="http://purl.org/dc/elements/1.1/">
  <defs
     id="defs872" />
  <sodipodi:namedview
     id="namedview870"
     pagecolor="#ffffff"
     bordercolor="#666666"
     borderopacity="1.0"
     inkscape:pageshadow="2"
     inkscape:pageopacity="0.0"
     inkscape:pagecheckerboard="0"
     inkscape:document-units="mm"
     showgrid="false"
     inkscape:zoom="0.72242978"
     inkscape:cx="1231.2615"
     inkscape:cy="503.16309"
     inkscape:window-width="3440"
     inkscape:window-height="1440"
     inkscape:window-x="0"
     inkscape:window-y="0"
     inkscape:window-maximized="1"
     inkscape:current-layer="svg868" />
  <title
     id="title864">OpenSCAD Model</title>
  <path
     id="path1457"
     d="M 603.425,-242.925 H -2.92499 V 3.42499 H 603.425 Z M 6.25,-5.75 v -228 h 588 v 228 z"
     style="fill:#d300d3;fill-opacity:1" />
  <path
     d="m 567.75,-49.749997 -0.2556,-1.9411 -0.7492,-1.8089 -1.1919,-1.5533 -1.5533,-1.1919 -1.8089,-0.7492 -1.9411,-0.2556 -1.9411,0.2556 -1.8089,0.7492 -1.5533,1.1919 -1.1919,1.5533 -0.7492,1.8089 -0.2556,1.9411 v 50 h -490 v -40 l -0.256,-1.9411 -0.749,-1.8089 -1.192,-1.5533 -1.553,-1.1919 -1.809,-0.7492 -1.941,-0.2556 -1.941,0.2556 -1.809,0.7492 -1.553,1.1919 -1.192,1.5533 -0.749,1.8089 -0.256,1.9411 v 40 H 0.2499998 V -239.75 H 600.25 V 0.250003 h -32.5 z"
     id="path1878"
     style="fill:#1ed3d3;fill-opacity:1" />
  <path
     id="path2235"
     d="m 509.25,-174.25 h -22.175 v 108.999997 h 22.175 z m -395.825,0 H 91.25 v 108.999997 h 22.175 z"
     style="fill:#d33800;fill-opacity:1" />
  <path
     d="m 490.25,-174.25 h -380 v 108.999997 h 380 z"
     id="path2749"
     style="fill:#1d79d3;fill-opacity:1" />
  <path
     id="path3770"
     d="m 428.164,-118.186 0.753,-1.564 -0.753,-1.564 -1.692,-0.386 -1.357,1.082 v 1.736 l 1.357,1.082 z m -252.779,-0.696 v -1.736 l -1.357,-1.082 -1.692,0.386 -0.753,1.564 0.753,1.564 1.692,0.386 z"
     style="fill:#ff00ff;fill-opacity:1" />
  <metadata
     id="metadata4720">
    <rdf:RDF>
      <cc:Work
         rdf:about="">
        <dc:title>OpenSCAD Model</dc:title>
      </cc:Work>
    </rdf:RDF>
  </metadata>
</svg>
