  0
SECTION
  2
BLOCKS
  0
ENDSEC
  0
SECTION
  2
ENTITIES
  0
LINE
  8
0
 10
180.975
 20
485.775
 11
0
 21
485.775
  0
LINE
  8
0
 10
0
 20
485.775
 11
0
 21
0
  0
LINE
  8
0
 10
0
 20
0
 11
180.975
 21
0
  0
LINE
  8
0
 10
180.975
 20
0
 11
180.975
 21
485.775
  0
LINE
  8
0
 10
89.1244
 20
330.214
 11
87.7619
 21
330.257
  0
LINE
  8
0
 10
87.7619
 20
330.257
 11
86.4006
 21
330.328
  0
LINE
  8
0
 10
86.4006
 20
330.328
 11
85.0411
 21
330.428
  0
LINE
  8
0
 10
85.0411
 20
330.428
 11
83.684
 21
330.557
  0
LINE
  8
0
 10
83.684
 20
330.557
 11
82.3299
 21
330.713
  0
LINE
  8
0
 10
82.3299
 20
330.713
 11
80.9793
 21
330.898
  0
LINE
  8
0
 10
80.9793
 20
330.898
 11
79.6329
 21
331.111
  0
LINE
  8
0
 10
79.6329
 20
331.111
 11
78.2913
 21
331.353
  0
LINE
  8
0
 10
78.2913
 20
331.353
 11
76.955
 21
331.622
  0
LINE
  8
0
 10
76.955
 20
331.622
 11
75.6247
 21
331.92
  0
LINE
  8
0
 10
75.6247
 20
331.92
 11
74.3009
 21
332.245
  0
LINE
  8
0
 10
74.3009
 20
332.245
 11
72.9842
 21
332.598
  0
LINE
  8
0
 10
72.9842
 20
332.598
 11
71.6751
 21
332.978
  0
LINE
  8
0
 10
71.6751
 20
332.978
 11
70.3743
 21
333.386
  0
LINE
  8
0
 10
70.3743
 20
333.386
 11
69.0824
 21
333.82
  0
LINE
  8
0
 10
69.0824
 20
333.82
 11
67.7998
 21
334.282
  0
LINE
  8
0
 10
67.7998
 20
334.282
 11
66.5272
 21
334.771
  0
LINE
  8
0
 10
66.5272
 20
334.771
 11
65.2651
 21
335.286
  0
LINE
  8
0
 10
65.2651
 20
335.286
 11
64.014
 21
335.827
  0
LINE
  8
0
 10
64.014
 20
335.827
 11
62.7746
 21
336.395
  0
LINE
  8
0
 10
62.7746
 20
336.395
 11
61.5473
 21
336.988
  0
LINE
  8
0
 10
61.5473
 20
336.988
 11
60.3327
 21
337.607
  0
LINE
  8
0
 10
60.3327
 20
337.607
 11
59.1313
 21
338.251
  0
LINE
  8
0
 10
59.1313
 20
338.251
 11
57.9437
 21
338.92
  0
LINE
  8
0
 10
57.9437
 20
338.92
 11
56.7704
 21
339.614
  0
LINE
  8
0
 10
56.7704
 20
339.614
 11
55.6119
 21
340.332
  0
LINE
  8
0
 10
55.6119
 20
340.332
 11
54.4686
 21
341.075
  0
LINE
  8
0
 10
54.4686
 20
341.075
 11
53.3412
 21
341.841
  0
LINE
  8
0
 10
53.3412
 20
341.841
 11
52.23
 21
342.631
  0
LINE
  8
0
 10
52.23
 20
342.631
 11
51.1357
 21
343.443
  0
LINE
  8
0
 10
51.1357
 20
343.443
 11
50.0585
 21
344.279
  0
LINE
  8
0
 10
50.0585
 20
344.279
 11
48.9992
 21
345.137
  0
LINE
  8
0
 10
48.9992
 20
345.137
 11
47.958
 21
346.017
  0
LINE
  8
0
 10
47.958
 20
346.017
 11
46.9355
 21
346.918
  0
LINE
  8
0
 10
46.9355
 20
346.918
 11
45.932
 21
347.841
  0
LINE
  8
0
 10
45.932
 20
347.841
 11
44.9482
 21
348.784
  0
LINE
  8
0
 10
44.9482
 20
348.784
 11
43.9843
 21
349.748
  0
LINE
  8
0
 10
43.9843
 20
349.748
 11
43.0407
 21
350.732
  0
LINE
  8
0
 10
43.0407
 20
350.732
 11
42.1181
 21
351.735
  0
LINE
  8
0
 10
42.1181
 20
351.735
 11
41.2166
 21
352.758
  0
LINE
  8
0
 10
41.2166
 20
352.758
 11
40.3367
 21
353.799
  0
LINE
  8
0
 10
40.3367
 20
353.799
 11
39.4789
 21
354.859
  0
LINE
  8
0
 10
39.4789
 20
354.859
 11
38.6434
 21
355.936
  0
LINE
  8
0
 10
38.6434
 20
355.936
 11
37.8306
 21
357.03
  0
LINE
  8
0
 10
37.8306
 20
357.03
 11
37.0409
 21
358.141
  0
LINE
  8
0
 10
37.0409
 20
358.141
 11
36.2747
 21
359.269
  0
LINE
  8
0
 10
36.2747
 20
359.269
 11
35.5323
 21
360.412
  0
LINE
  8
0
 10
35.5323
 20
360.412
 11
34.814
 21
361.57
  0
LINE
  8
0
 10
34.814
 20
361.57
 11
34.1201
 21
362.744
  0
LINE
  8
0
 10
34.1201
 20
362.744
 11
33.4509
 21
363.931
  0
LINE
  8
0
 10
33.4509
 20
363.931
 11
32.8067
 21
365.133
  0
LINE
  8
0
 10
32.8067
 20
365.133
 11
32.1879
 21
366.347
  0
LINE
  8
0
 10
32.1879
 20
366.347
 11
31.5946
 21
367.575
  0
LINE
  8
0
 10
31.5946
 20
367.575
 11
31.0271
 21
368.814
  0
LINE
  8
0
 10
31.0271
 20
368.814
 11
30.4857
 21
370.065
  0
LINE
  8
0
 10
30.4857
 20
370.065
 11
29.9707
 21
371.327
  0
LINE
  8
0
 10
29.9707
 20
371.327
 11
29.4821
 21
372.6
  0
LINE
  8
0
 10
29.4821
 20
372.6
 11
29.0204
 21
373.882
  0
LINE
  8
0
 10
29.0204
 20
373.882
 11
28.5856
 21
375.174
  0
LINE
  8
0
 10
28.5856
 20
375.174
 11
28.178
 21
376.475
  0
LINE
  8
0
 10
28.178
 20
376.475
 11
27.7977
 21
377.784
  0
LINE
  8
0
 10
27.7977
 20
377.784
 11
27.4448
 21
379.101
  0
LINE
  8
0
 10
27.4448
 20
379.101
 11
27.1197
 21
380.425
  0
LINE
  8
0
 10
27.1197
 20
380.425
 11
26.8223
 21
381.755
  0
LINE
  8
0
 10
26.8223
 20
381.755
 11
26.5529
 21
383.091
  0
LINE
  8
0
 10
26.5529
 20
383.091
 11
26.3115
 21
384.433
  0
LINE
  8
0
 10
26.3115
 20
384.433
 11
26.0982
 21
385.779
  0
LINE
  8
0
 10
26.0982
 20
385.779
 11
25.9132
 21
387.13
  0
LINE
  8
0
 10
25.9132
 20
387.13
 11
25.7565
 21
388.484
  0
LINE
  8
0
 10
25.7565
 20
388.484
 11
25.6283
 21
389.841
  0
LINE
  8
0
 10
25.6283
 20
389.841
 11
25.5284
 21
391.201
  0
LINE
  8
0
 10
25.5284
 20
391.201
 11
25.4571
 21
392.562
  0
LINE
  8
0
 10
25.4571
 20
392.562
 11
25.4143
 21
393.924
  0
LINE
  8
0
 10
25.4143
 20
393.924
 11
25.4
 21
395.288
  0
LINE
  8
0
 10
25.4
 20
395.288
 11
25.4143
 21
396.651
  0
LINE
  8
0
 10
25.4143
 20
396.651
 11
25.4571
 21
398.013
  0
LINE
  8
0
 10
25.4571
 20
398.013
 11
25.5284
 21
399.374
  0
LINE
  8
0
 10
25.5284
 20
399.374
 11
25.6283
 21
400.734
  0
LINE
  8
0
 10
25.6283
 20
400.734
 11
25.7565
 21
402.091
  0
LINE
  8
0
 10
25.7565
 20
402.091
 11
25.9132
 21
403.445
  0
LINE
  8
0
 10
25.9132
 20
403.445
 11
26.0982
 21
404.796
  0
LINE
  8
0
 10
26.0982
 20
404.796
 11
26.3115
 21
406.142
  0
LINE
  8
0
 10
26.3115
 20
406.142
 11
26.5529
 21
407.484
  0
LINE
  8
0
 10
26.5529
 20
407.484
 11
26.8223
 21
408.82
  0
LINE
  8
0
 10
26.8223
 20
408.82
 11
27.1197
 21
410.15
  0
LINE
  8
0
 10
27.1197
 20
410.15
 11
27.4448
 21
411.474
  0
LINE
  8
0
 10
27.4448
 20
411.474
 11
27.7977
 21
412.791
  0
LINE
  8
0
 10
27.7977
 20
412.791
 11
28.178
 21
414.1
  0
LINE
  8
0
 10
28.178
 20
414.1
 11
28.5856
 21
415.401
  0
LINE
  8
0
 10
28.5856
 20
415.401
 11
29.0204
 21
416.693
  0
LINE
  8
0
 10
29.0204
 20
416.693
 11
29.4821
 21
417.975
  0
LINE
  8
0
 10
29.4821
 20
417.975
 11
29.9707
 21
419.248
  0
LINE
  8
0
 10
29.9707
 20
419.248
 11
30.4857
 21
420.51
  0
LINE
  8
0
 10
30.4857
 20
420.51
 11
31.0271
 21
421.761
  0
LINE
  8
0
 10
31.0271
 20
421.761
 11
31.5946
 21
423
  0
LINE
  8
0
 10
31.5946
 20
423
 11
32.1879
 21
424.228
  0
LINE
  8
0
 10
32.1879
 20
424.228
 11
32.8067
 21
425.442
  0
LINE
  8
0
 10
32.8067
 20
425.442
 11
33.4509
 21
426.644
  0
LINE
  8
0
 10
33.4509
 20
426.644
 11
34.1201
 21
427.831
  0
LINE
  8
0
 10
34.1201
 20
427.831
 11
34.814
 21
429.005
  0
LINE
  8
0
 10
34.814
 20
429.005
 11
35.5323
 21
430.163
  0
LINE
  8
0
 10
35.5323
 20
430.163
 11
36.2747
 21
431.306
  0
LINE
  8
0
 10
36.2747
 20
431.306
 11
37.0409
 21
432.434
  0
LINE
  8
0
 10
37.0409
 20
432.434
 11
37.8306
 21
433.545
  0
LINE
  8
0
 10
37.8306
 20
433.545
 11
38.6434
 21
434.639
  0
LINE
  8
0
 10
38.6434
 20
434.639
 11
39.4789
 21
435.716
  0
LINE
  8
0
 10
39.4789
 20
435.716
 11
40.3367
 21
436.776
  0
LINE
  8
0
 10
40.3367
 20
436.776
 11
41.2166
 21
437.817
  0
LINE
  8
0
 10
41.2166
 20
437.817
 11
42.1181
 21
438.84
  0
LINE
  8
0
 10
42.1181
 20
438.84
 11
43.0407
 21
439.843
  0
LINE
  8
0
 10
43.0407
 20
439.843
 11
43.9843
 21
440.827
  0
LINE
  8
0
 10
43.9843
 20
440.827
 11
44.9482
 21
441.791
  0
LINE
  8
0
 10
44.9482
 20
441.791
 11
45.932
 21
442.734
  0
LINE
  8
0
 10
45.932
 20
442.734
 11
46.9355
 21
443.657
  0
LINE
  8
0
 10
46.9355
 20
443.657
 11
47.958
 21
444.558
  0
LINE
  8
0
 10
47.958
 20
444.558
 11
48.9992
 21
445.438
  0
LINE
  8
0
 10
48.9992
 20
445.438
 11
50.0585
 21
446.296
  0
LINE
  8
0
 10
50.0585
 20
446.296
 11
51.1357
 21
447.132
  0
LINE
  8
0
 10
51.1357
 20
447.132
 11
52.23
 21
447.944
  0
LINE
  8
0
 10
52.23
 20
447.944
 11
53.3412
 21
448.734
  0
LINE
  8
0
 10
53.3412
 20
448.734
 11
54.4686
 21
449.5
  0
LINE
  8
0
 10
54.4686
 20
449.5
 11
55.6119
 21
450.243
  0
LINE
  8
0
 10
55.6119
 20
450.243
 11
56.7704
 21
450.961
  0
LINE
  8
0
 10
56.7704
 20
450.961
 11
57.9437
 21
451.655
  0
LINE
  8
0
 10
57.9437
 20
451.655
 11
59.1313
 21
452.324
  0
LINE
  8
0
 10
59.1313
 20
452.324
 11
60.3327
 21
452.968
  0
LINE
  8
0
 10
60.3327
 20
452.968
 11
61.5473
 21
453.587
  0
LINE
  8
0
 10
61.5473
 20
453.587
 11
62.7746
 21
454.18
  0
LINE
  8
0
 10
62.7746
 20
454.18
 11
64.014
 21
454.748
  0
LINE
  8
0
 10
64.014
 20
454.748
 11
65.2651
 21
455.289
  0
LINE
  8
0
 10
65.2651
 20
455.289
 11
66.5272
 21
455.804
  0
LINE
  8
0
 10
66.5272
 20
455.804
 11
67.7998
 21
456.293
  0
LINE
  8
0
 10
67.7998
 20
456.293
 11
69.0824
 21
456.755
  0
LINE
  8
0
 10
69.0824
 20
456.755
 11
70.3743
 21
457.189
  0
LINE
  8
0
 10
70.3743
 20
457.189
 11
71.6751
 21
457.597
  0
LINE
  8
0
 10
71.6751
 20
457.597
 11
72.9842
 21
457.977
  0
LINE
  8
0
 10
72.9842
 20
457.977
 11
74.3009
 21
458.33
  0
LINE
  8
0
 10
74.3009
 20
458.33
 11
75.6247
 21
458.655
  0
LINE
  8
0
 10
75.6247
 20
458.655
 11
76.955
 21
458.953
  0
LINE
  8
0
 10
76.955
 20
458.953
 11
78.2913
 21
459.222
  0
LINE
  8
0
 10
78.2913
 20
459.222
 11
79.6329
 21
459.464
  0
LINE
  8
0
 10
79.6329
 20
459.464
 11
80.9793
 21
459.677
  0
LINE
  8
0
 10
80.9793
 20
459.677
 11
82.3299
 21
459.862
  0
LINE
  8
0
 10
82.3299
 20
459.862
 11
83.684
 21
460.018
  0
LINE
  8
0
 10
83.684
 20
460.018
 11
85.0411
 21
460.147
  0
LINE
  8
0
 10
85.0411
 20
460.147
 11
86.4006
 21
460.247
  0
LINE
  8
0
 10
86.4006
 20
460.247
 11
87.7619
 21
460.318
  0
LINE
  8
0
 10
87.7619
 20
460.318
 11
89.1244
 21
460.361
  0
LINE
  8
0
 10
89.1244
 20
460.361
 11
90.4875
 21
460.375
  0
LINE
  8
0
 10
90.4875
 20
460.375
 11
91.8506
 21
460.361
  0
LINE
  8
0
 10
91.8506
 20
460.361
 11
93.2131
 21
460.318
  0
LINE
  8
0
 10
93.2131
 20
460.318
 11
94.5744
 21
460.247
  0
LINE
  8
0
 10
94.5744
 20
460.247
 11
95.9339
 21
460.147
  0
LINE
  8
0
 10
95.9339
 20
460.147
 11
97.291
 21
460.018
  0
LINE
  8
0
 10
97.291
 20
460.018
 11
98.6451
 21
459.862
  0
LINE
  8
0
 10
98.6451
 20
459.862
 11
99.9957
 21
459.677
  0
LINE
  8
0
 10
99.9957
 20
459.677
 11
101.342
 21
459.464
  0
LINE
  8
0
 10
101.342
 20
459.464
 11
102.684
 21
459.222
  0
LINE
  8
0
 10
102.684
 20
459.222
 11
104.02
 21
458.953
  0
LINE
  8
0
 10
104.02
 20
458.953
 11
105.35
 21
458.655
  0
LINE
  8
0
 10
105.35
 20
458.655
 11
106.674
 21
458.33
  0
LINE
  8
0
 10
106.674
 20
458.33
 11
107.991
 21
457.977
  0
LINE
  8
0
 10
107.991
 20
457.977
 11
109.3
 21
457.597
  0
LINE
  8
0
 10
109.3
 20
457.597
 11
110.601
 21
457.189
  0
LINE
  8
0
 10
110.601
 20
457.189
 11
111.893
 21
456.755
  0
LINE
  8
0
 10
111.893
 20
456.755
 11
113.175
 21
456.293
  0
LINE
  8
0
 10
113.175
 20
456.293
 11
114.448
 21
455.804
  0
LINE
  8
0
 10
114.448
 20
455.804
 11
115.71
 21
455.289
  0
LINE
  8
0
 10
115.71
 20
455.289
 11
116.961
 21
454.748
  0
LINE
  8
0
 10
116.961
 20
454.748
 11
118.2
 21
454.18
  0
LINE
  8
0
 10
118.2
 20
454.18
 11
119.428
 21
453.587
  0
LINE
  8
0
 10
119.428
 20
453.587
 11
120.642
 21
452.968
  0
LINE
  8
0
 10
120.642
 20
452.968
 11
121.844
 21
452.324
  0
LINE
  8
0
 10
121.844
 20
452.324
 11
123.031
 21
451.655
  0
LINE
  8
0
 10
123.031
 20
451.655
 11
124.205
 21
450.961
  0
LINE
  8
0
 10
124.205
 20
450.961
 11
125.363
 21
450.243
  0
LINE
  8
0
 10
125.363
 20
450.243
 11
126.506
 21
449.5
  0
LINE
  8
0
 10
126.506
 20
449.5
 11
127.634
 21
448.734
  0
LINE
  8
0
 10
127.634
 20
448.734
 11
128.745
 21
447.944
  0
LINE
  8
0
 10
128.745
 20
447.944
 11
129.839
 21
447.132
  0
LINE
  8
0
 10
129.839
 20
447.132
 11
130.916
 21
446.296
  0
LINE
  8
0
 10
130.916
 20
446.296
 11
131.976
 21
445.438
  0
LINE
  8
0
 10
131.976
 20
445.438
 11
133.017
 21
444.558
  0
LINE
  8
0
 10
133.017
 20
444.558
 11
134.04
 21
443.657
  0
LINE
  8
0
 10
134.04
 20
443.657
 11
135.043
 21
442.734
  0
LINE
  8
0
 10
135.043
 20
442.734
 11
136.027
 21
441.791
  0
LINE
  8
0
 10
136.027
 20
441.791
 11
136.991
 21
440.827
  0
LINE
  8
0
 10
136.991
 20
440.827
 11
137.934
 21
439.843
  0
LINE
  8
0
 10
137.934
 20
439.843
 11
138.857
 21
438.84
  0
LINE
  8
0
 10
138.857
 20
438.84
 11
139.758
 21
437.817
  0
LINE
  8
0
 10
139.758
 20
437.817
 11
140.638
 21
436.776
  0
LINE
  8
0
 10
140.638
 20
436.776
 11
141.496
 21
435.716
  0
LINE
  8
0
 10
141.496
 20
435.716
 11
142.332
 21
434.639
  0
LINE
  8
0
 10
142.332
 20
434.639
 11
143.144
 21
433.545
  0
LINE
  8
0
 10
143.144
 20
433.545
 11
143.934
 21
432.434
  0
LINE
  8
0
 10
143.934
 20
432.434
 11
144.7
 21
431.306
  0
LINE
  8
0
 10
144.7
 20
431.306
 11
145.443
 21
430.163
  0
LINE
  8
0
 10
145.443
 20
430.163
 11
146.161
 21
429.005
  0
LINE
  8
0
 10
146.161
 20
429.005
 11
146.855
 21
427.831
  0
LINE
  8
0
 10
146.855
 20
427.831
 11
147.524
 21
426.644
  0
LINE
  8
0
 10
147.524
 20
426.644
 11
148.168
 21
425.442
  0
LINE
  8
0
 10
148.168
 20
425.442
 11
148.787
 21
424.228
  0
LINE
  8
0
 10
148.787
 20
424.228
 11
149.38
 21
423
  0
LINE
  8
0
 10
149.38
 20
423
 11
149.948
 21
421.761
  0
LINE
  8
0
 10
149.948
 20
421.761
 11
150.489
 21
420.51
  0
LINE
  8
0
 10
150.489
 20
420.51
 11
151.004
 21
419.248
  0
LINE
  8
0
 10
151.004
 20
419.248
 11
151.493
 21
417.975
  0
LINE
  8
0
 10
151.493
 20
417.975
 11
151.955
 21
416.693
  0
LINE
  8
0
 10
151.955
 20
416.693
 11
152.389
 21
415.401
  0
LINE
  8
0
 10
152.389
 20
415.401
 11
152.797
 21
414.1
  0
LINE
  8
0
 10
152.797
 20
414.1
 11
153.177
 21
412.791
  0
LINE
  8
0
 10
153.177
 20
412.791
 11
153.53
 21
411.474
  0
LINE
  8
0
 10
153.53
 20
411.474
 11
153.855
 21
410.15
  0
LINE
  8
0
 10
153.855
 20
410.15
 11
154.153
 21
408.82
  0
LINE
  8
0
 10
154.153
 20
408.82
 11
154.422
 21
407.484
  0
LINE
  8
0
 10
154.422
 20
407.484
 11
154.664
 21
406.142
  0
LINE
  8
0
 10
154.664
 20
406.142
 11
154.877
 21
404.796
  0
LINE
  8
0
 10
154.877
 20
404.796
 11
155.062
 21
403.445
  0
LINE
  8
0
 10
155.062
 20
403.445
 11
155.218
 21
402.091
  0
LINE
  8
0
 10
155.218
 20
402.091
 11
155.347
 21
400.734
  0
LINE
  8
0
 10
155.347
 20
400.734
 11
155.447
 21
399.374
  0
LINE
  8
0
 10
155.447
 20
399.374
 11
155.518
 21
398.013
  0
LINE
  8
0
 10
155.518
 20
398.013
 11
155.561
 21
396.651
  0
LINE
  8
0
 10
155.561
 20
396.651
 11
155.575
 21
395.288
  0
LINE
  8
0
 10
155.575
 20
395.288
 11
155.561
 21
393.924
  0
LINE
  8
0
 10
155.561
 20
393.924
 11
155.518
 21
392.562
  0
LINE
  8
0
 10
155.518
 20
392.562
 11
155.447
 21
391.201
  0
LINE
  8
0
 10
155.447
 20
391.201
 11
155.347
 21
389.841
  0
LINE
  8
0
 10
155.347
 20
389.841
 11
155.218
 21
388.484
  0
LINE
  8
0
 10
155.218
 20
388.484
 11
155.062
 21
387.13
  0
LINE
  8
0
 10
155.062
 20
387.13
 11
154.877
 21
385.779
  0
LINE
  8
0
 10
154.877
 20
385.779
 11
154.664
 21
384.433
  0
LINE
  8
0
 10
154.664
 20
384.433
 11
154.422
 21
383.091
  0
LINE
  8
0
 10
154.422
 20
383.091
 11
154.153
 21
381.755
  0
LINE
  8
0
 10
154.153
 20
381.755
 11
153.855
 21
380.425
  0
LINE
  8
0
 10
153.855
 20
380.425
 11
153.53
 21
379.101
  0
LINE
  8
0
 10
153.53
 20
379.101
 11
153.177
 21
377.784
  0
LINE
  8
0
 10
153.177
 20
377.784
 11
152.797
 21
376.475
  0
LINE
  8
0
 10
152.797
 20
376.475
 11
152.389
 21
375.174
  0
LINE
  8
0
 10
152.389
 20
375.174
 11
151.955
 21
373.882
  0
LINE
  8
0
 10
151.955
 20
373.882
 11
151.493
 21
372.6
  0
LINE
  8
0
 10
151.493
 20
372.6
 11
151.004
 21
371.327
  0
LINE
  8
0
 10
151.004
 20
371.327
 11
150.489
 21
370.065
  0
LINE
  8
0
 10
150.489
 20
370.065
 11
149.948
 21
368.814
  0
LINE
  8
0
 10
149.948
 20
368.814
 11
149.38
 21
367.575
  0
LINE
  8
0
 10
149.38
 20
367.575
 11
148.787
 21
366.347
  0
LINE
  8
0
 10
148.787
 20
366.347
 11
148.168
 21
365.133
  0
LINE
  8
0
 10
148.168
 20
365.133
 11
147.524
 21
363.931
  0
LINE
  8
0
 10
147.524
 20
363.931
 11
146.855
 21
362.744
  0
LINE
  8
0
 10
146.855
 20
362.744
 11
146.161
 21
361.57
  0
LINE
  8
0
 10
146.161
 20
361.57
 11
145.443
 21
360.412
  0
LINE
  8
0
 10
145.443
 20
360.412
 11
144.7
 21
359.269
  0
LINE
  8
0
 10
144.7
 20
359.269
 11
143.934
 21
358.141
  0
LINE
  8
0
 10
143.934
 20
358.141
 11
143.144
 21
357.03
  0
LINE
  8
0
 10
143.144
 20
357.03
 11
142.332
 21
355.936
  0
LINE
  8
0
 10
142.332
 20
355.936
 11
141.496
 21
354.859
  0
LINE
  8
0
 10
141.496
 20
354.859
 11
140.638
 21
353.799
  0
LINE
  8
0
 10
140.638
 20
353.799
 11
139.758
 21
352.758
  0
LINE
  8
0
 10
139.758
 20
352.758
 11
138.857
 21
351.735
  0
LINE
  8
0
 10
138.857
 20
351.735
 11
137.934
 21
350.732
  0
LINE
  8
0
 10
137.934
 20
350.732
 11
136.991
 21
349.748
  0
LINE
  8
0
 10
136.991
 20
349.748
 11
136.027
 21
348.784
  0
LINE
  8
0
 10
136.027
 20
348.784
 11
135.043
 21
347.841
  0
LINE
  8
0
 10
135.043
 20
347.841
 11
134.04
 21
346.918
  0
LINE
  8
0
 10
134.04
 20
346.918
 11
133.017
 21
346.017
  0
LINE
  8
0
 10
133.017
 20
346.017
 11
131.976
 21
345.137
  0
LINE
  8
0
 10
131.976
 20
345.137
 11
130.916
 21
344.279
  0
LINE
  8
0
 10
130.916
 20
344.279
 11
129.839
 21
343.443
  0
LINE
  8
0
 10
129.839
 20
343.443
 11
128.745
 21
342.631
  0
LINE
  8
0
 10
128.745
 20
342.631
 11
127.634
 21
341.841
  0
LINE
  8
0
 10
127.634
 20
341.841
 11
126.506
 21
341.075
  0
LINE
  8
0
 10
126.506
 20
341.075
 11
125.363
 21
340.332
  0
LINE
  8
0
 10
125.363
 20
340.332
 11
124.205
 21
339.614
  0
LINE
  8
0
 10
124.205
 20
339.614
 11
123.031
 21
338.92
  0
LINE
  8
0
 10
123.031
 20
338.92
 11
121.844
 21
338.251
  0
LINE
  8
0
 10
121.844
 20
338.251
 11
120.642
 21
337.607
  0
LINE
  8
0
 10
120.642
 20
337.607
 11
119.428
 21
336.988
  0
LINE
  8
0
 10
119.428
 20
336.988
 11
118.2
 21
336.395
  0
LINE
  8
0
 10
118.2
 20
336.395
 11
116.961
 21
335.827
  0
LINE
  8
0
 10
116.961
 20
335.827
 11
115.71
 21
335.286
  0
LINE
  8
0
 10
115.71
 20
335.286
 11
114.448
 21
334.771
  0
LINE
  8
0
 10
114.448
 20
334.771
 11
113.175
 21
334.282
  0
LINE
  8
0
 10
113.175
 20
334.282
 11
111.893
 21
333.82
  0
LINE
  8
0
 10
111.893
 20
333.82
 11
110.601
 21
333.386
  0
LINE
  8
0
 10
110.601
 20
333.386
 11
109.3
 21
332.978
  0
LINE
  8
0
 10
109.3
 20
332.978
 11
107.991
 21
332.598
  0
LINE
  8
0
 10
107.991
 20
332.598
 11
106.674
 21
332.245
  0
LINE
  8
0
 10
106.674
 20
332.245
 11
105.35
 21
331.92
  0
LINE
  8
0
 10
105.35
 20
331.92
 11
104.02
 21
331.622
  0
LINE
  8
0
 10
104.02
 20
331.622
 11
102.684
 21
331.353
  0
LINE
  8
0
 10
102.684
 20
331.353
 11
101.342
 21
331.111
  0
LINE
  8
0
 10
101.342
 20
331.111
 11
99.9957
 21
330.898
  0
LINE
  8
0
 10
99.9957
 20
330.898
 11
98.6451
 21
330.713
  0
LINE
  8
0
 10
98.6451
 20
330.713
 11
97.291
 21
330.557
  0
LINE
  8
0
 10
97.291
 20
330.557
 11
95.9339
 21
330.428
  0
LINE
  8
0
 10
95.9339
 20
330.428
 11
94.5744
 21
330.328
  0
LINE
  8
0
 10
94.5744
 20
330.328
 11
93.2131
 21
330.257
  0
LINE
  8
0
 10
93.2131
 20
330.257
 11
91.8506
 21
330.214
  0
LINE
  8
0
 10
91.8506
 20
330.214
 11
90.4875
 21
330.2
  0
LINE
  8
0
 10
90.4875
 20
330.2
 11
89.1244
 21
330.214
  0
LINE
  8
0
 10
89.1244
 20
177.814
 11
87.7619
 21
177.857
  0
LINE
  8
0
 10
87.7619
 20
177.857
 11
86.4006
 21
177.928
  0
LINE
  8
0
 10
86.4006
 20
177.928
 11
85.0411
 21
178.028
  0
LINE
  8
0
 10
85.0411
 20
178.028
 11
83.684
 21
178.157
  0
LINE
  8
0
 10
83.684
 20
178.157
 11
82.3299
 21
178.313
  0
LINE
  8
0
 10
82.3299
 20
178.313
 11
80.9793
 21
178.498
  0
LINE
  8
0
 10
80.9793
 20
178.498
 11
79.6329
 21
178.711
  0
LINE
  8
0
 10
79.6329
 20
178.711
 11
78.2913
 21
178.953
  0
LINE
  8
0
 10
78.2913
 20
178.953
 11
76.955
 21
179.222
  0
LINE
  8
0
 10
76.955
 20
179.222
 11
75.6247
 21
179.52
  0
LINE
  8
0
 10
75.6247
 20
179.52
 11
74.3009
 21
179.845
  0
LINE
  8
0
 10
74.3009
 20
179.845
 11
72.9842
 21
180.198
  0
LINE
  8
0
 10
72.9842
 20
180.198
 11
71.6751
 21
180.578
  0
LINE
  8
0
 10
71.6751
 20
180.578
 11
70.3743
 21
180.986
  0
LINE
  8
0
 10
70.3743
 20
180.986
 11
69.0824
 21
181.42
  0
LINE
  8
0
 10
69.0824
 20
181.42
 11
67.7998
 21
181.882
  0
LINE
  8
0
 10
67.7998
 20
181.882
 11
66.5272
 21
182.371
  0
LINE
  8
0
 10
66.5272
 20
182.371
 11
65.2651
 21
182.886
  0
LINE
  8
0
 10
65.2651
 20
182.886
 11
64.014
 21
183.427
  0
LINE
  8
0
 10
64.014
 20
183.427
 11
62.7746
 21
183.995
  0
LINE
  8
0
 10
62.7746
 20
183.995
 11
61.5473
 21
184.588
  0
LINE
  8
0
 10
61.5473
 20
184.588
 11
60.3327
 21
185.207
  0
LINE
  8
0
 10
60.3327
 20
185.207
 11
59.1313
 21
185.851
  0
LINE
  8
0
 10
59.1313
 20
185.851
 11
57.9437
 21
186.52
  0
LINE
  8
0
 10
57.9437
 20
186.52
 11
56.7704
 21
187.214
  0
LINE
  8
0
 10
56.7704
 20
187.214
 11
55.6119
 21
187.932
  0
LINE
  8
0
 10
55.6119
 20
187.932
 11
54.4686
 21
188.675
  0
LINE
  8
0
 10
54.4686
 20
188.675
 11
53.3412
 21
189.441
  0
LINE
  8
0
 10
53.3412
 20
189.441
 11
52.23
 21
190.231
  0
LINE
  8
0
 10
52.23
 20
190.231
 11
51.1357
 21
191.043
  0
LINE
  8
0
 10
51.1357
 20
191.043
 11
50.0585
 21
191.879
  0
LINE
  8
0
 10
50.0585
 20
191.879
 11
48.9992
 21
192.737
  0
LINE
  8
0
 10
48.9992
 20
192.737
 11
47.958
 21
193.617
  0
LINE
  8
0
 10
47.958
 20
193.617
 11
46.9355
 21
194.518
  0
LINE
  8
0
 10
46.9355
 20
194.518
 11
45.932
 21
195.441
  0
LINE
  8
0
 10
45.932
 20
195.441
 11
44.9482
 21
196.384
  0
LINE
  8
0
 10
44.9482
 20
196.384
 11
43.9843
 21
197.348
  0
LINE
  8
0
 10
43.9843
 20
197.348
 11
43.0407
 21
198.332
  0
LINE
  8
0
 10
43.0407
 20
198.332
 11
42.1181
 21
199.335
  0
LINE
  8
0
 10
42.1181
 20
199.335
 11
41.2166
 21
200.358
  0
LINE
  8
0
 10
41.2166
 20
200.358
 11
40.3367
 21
201.399
  0
LINE
  8
0
 10
40.3367
 20
201.399
 11
39.4789
 21
202.459
  0
LINE
  8
0
 10
39.4789
 20
202.459
 11
38.6434
 21
203.536
  0
LINE
  8
0
 10
38.6434
 20
203.536
 11
37.8306
 21
204.63
  0
LINE
  8
0
 10
37.8306
 20
204.63
 11
37.0409
 21
205.741
  0
LINE
  8
0
 10
37.0409
 20
205.741
 11
36.2747
 21
206.869
  0
LINE
  8
0
 10
36.2747
 20
206.869
 11
35.5323
 21
208.012
  0
LINE
  8
0
 10
35.5323
 20
208.012
 11
34.814
 21
209.17
  0
LINE
  8
0
 10
34.814
 20
209.17
 11
34.1201
 21
210.344
  0
LINE
  8
0
 10
34.1201
 20
210.344
 11
33.4509
 21
211.531
  0
LINE
  8
0
 10
33.4509
 20
211.531
 11
32.8067
 21
212.733
  0
LINE
  8
0
 10
32.8067
 20
212.733
 11
32.1879
 21
213.947
  0
LINE
  8
0
 10
32.1879
 20
213.947
 11
31.5946
 21
215.175
  0
LINE
  8
0
 10
31.5946
 20
215.175
 11
31.0271
 21
216.414
  0
LINE
  8
0
 10
31.0271
 20
216.414
 11
30.4857
 21
217.665
  0
LINE
  8
0
 10
30.4857
 20
217.665
 11
29.9707
 21
218.927
  0
LINE
  8
0
 10
29.9707
 20
218.927
 11
29.4821
 21
220.2
  0
LINE
  8
0
 10
29.4821
 20
220.2
 11
29.0204
 21
221.482
  0
LINE
  8
0
 10
29.0204
 20
221.482
 11
28.5856
 21
222.774
  0
LINE
  8
0
 10
28.5856
 20
222.774
 11
28.178
 21
224.075
  0
LINE
  8
0
 10
28.178
 20
224.075
 11
27.7977
 21
225.384
  0
LINE
  8
0
 10
27.7977
 20
225.384
 11
27.4448
 21
226.701
  0
LINE
  8
0
 10
27.4448
 20
226.701
 11
27.1197
 21
228.025
  0
LINE
  8
0
 10
27.1197
 20
228.025
 11
26.8223
 21
229.355
  0
LINE
  8
0
 10
26.8223
 20
229.355
 11
26.5529
 21
230.691
  0
LINE
  8
0
 10
26.5529
 20
230.691
 11
26.3115
 21
232.033
  0
LINE
  8
0
 10
26.3115
 20
232.033
 11
26.0982
 21
233.379
  0
LINE
  8
0
 10
26.0982
 20
233.379
 11
25.9132
 21
234.73
  0
LINE
  8
0
 10
25.9132
 20
234.73
 11
25.7565
 21
236.084
  0
LINE
  8
0
 10
25.7565
 20
236.084
 11
25.6283
 21
237.441
  0
LINE
  8
0
 10
25.6283
 20
237.441
 11
25.5284
 21
238.801
  0
LINE
  8
0
 10
25.5284
 20
238.801
 11
25.4571
 21
240.162
  0
LINE
  8
0
 10
25.4571
 20
240.162
 11
25.4143
 21
241.524
  0
LINE
  8
0
 10
25.4143
 20
241.524
 11
25.4
 21
242.887
  0
LINE
  8
0
 10
25.4
 20
242.887
 11
25.4143
 21
244.251
  0
LINE
  8
0
 10
25.4143
 20
244.251
 11
25.4571
 21
245.613
  0
LINE
  8
0
 10
25.4571
 20
245.613
 11
25.5284
 21
246.974
  0
LINE
  8
0
 10
25.5284
 20
246.974
 11
25.6283
 21
248.334
  0
LINE
  8
0
 10
25.6283
 20
248.334
 11
25.7565
 21
249.691
  0
LINE
  8
0
 10
25.7565
 20
249.691
 11
25.9132
 21
251.045
  0
LINE
  8
0
 10
25.9132
 20
251.045
 11
26.0982
 21
252.396
  0
LINE
  8
0
 10
26.0982
 20
252.396
 11
26.3115
 21
253.742
  0
LINE
  8
0
 10
26.3115
 20
253.742
 11
26.5529
 21
255.084
  0
LINE
  8
0
 10
26.5529
 20
255.084
 11
26.8223
 21
256.42
  0
LINE
  8
0
 10
26.8223
 20
256.42
 11
27.1197
 21
257.75
  0
LINE
  8
0
 10
27.1197
 20
257.75
 11
27.4448
 21
259.074
  0
LINE
  8
0
 10
27.4448
 20
259.074
 11
27.7977
 21
260.391
  0
LINE
  8
0
 10
27.7977
 20
260.391
 11
28.178
 21
261.7
  0
LINE
  8
0
 10
28.178
 20
261.7
 11
28.5856
 21
263.001
  0
LINE
  8
0
 10
28.5856
 20
263.001
 11
29.0204
 21
264.293
  0
LINE
  8
0
 10
29.0204
 20
264.293
 11
29.4821
 21
265.575
  0
LINE
  8
0
 10
29.4821
 20
265.575
 11
29.9707
 21
266.848
  0
LINE
  8
0
 10
29.9707
 20
266.848
 11
30.4857
 21
268.11
  0
LINE
  8
0
 10
30.4857
 20
268.11
 11
31.0271
 21
269.361
  0
LINE
  8
0
 10
31.0271
 20
269.361
 11
31.5946
 21
270.6
  0
LINE
  8
0
 10
31.5946
 20
270.6
 11
32.1879
 21
271.828
  0
LINE
  8
0
 10
32.1879
 20
271.828
 11
32.8067
 21
273.042
  0
LINE
  8
0
 10
32.8067
 20
273.042
 11
33.4509
 21
274.244
  0
LINE
  8
0
 10
33.4509
 20
274.244
 11
34.1201
 21
275.431
  0
LINE
  8
0
 10
34.1201
 20
275.431
 11
34.814
 21
276.605
  0
LINE
  8
0
 10
34.814
 20
276.605
 11
35.5323
 21
277.763
  0
LINE
  8
0
 10
35.5323
 20
277.763
 11
36.2747
 21
278.906
  0
LINE
  8
0
 10
36.2747
 20
278.906
 11
37.0409
 21
280.034
  0
LINE
  8
0
 10
37.0409
 20
280.034
 11
37.8306
 21
281.145
  0
LINE
  8
0
 10
37.8306
 20
281.145
 11
38.6434
 21
282.239
  0
LINE
  8
0
 10
38.6434
 20
282.239
 11
39.4789
 21
283.316
  0
LINE
  8
0
 10
39.4789
 20
283.316
 11
40.3367
 21
284.376
  0
LINE
  8
0
 10
40.3367
 20
284.376
 11
41.2166
 21
285.417
  0
LINE
  8
0
 10
41.2166
 20
285.417
 11
42.1181
 21
286.44
  0
LINE
  8
0
 10
42.1181
 20
286.44
 11
43.0407
 21
287.443
  0
LINE
  8
0
 10
43.0407
 20
287.443
 11
43.9843
 21
288.427
  0
LINE
  8
0
 10
43.9843
 20
288.427
 11
44.9482
 21
289.391
  0
LINE
  8
0
 10
44.9482
 20
289.391
 11
45.932
 21
290.334
  0
LINE
  8
0
 10
45.932
 20
290.334
 11
46.9355
 21
291.257
  0
LINE
  8
0
 10
46.9355
 20
291.257
 11
47.958
 21
292.158
  0
LINE
  8
0
 10
47.958
 20
292.158
 11
48.9992
 21
293.038
  0
LINE
  8
0
 10
48.9992
 20
293.038
 11
50.0585
 21
293.896
  0
LINE
  8
0
 10
50.0585
 20
293.896
 11
51.1357
 21
294.732
  0
LINE
  8
0
 10
51.1357
 20
294.732
 11
52.23
 21
295.544
  0
LINE
  8
0
 10
52.23
 20
295.544
 11
53.3412
 21
296.334
  0
LINE
  8
0
 10
53.3412
 20
296.334
 11
54.4686
 21
297.1
  0
LINE
  8
0
 10
54.4686
 20
297.1
 11
55.6119
 21
297.843
  0
LINE
  8
0
 10
55.6119
 20
297.843
 11
56.7704
 21
298.561
  0
LINE
  8
0
 10
56.7704
 20
298.561
 11
57.9437
 21
299.255
  0
LINE
  8
0
 10
57.9437
 20
299.255
 11
59.1313
 21
299.924
  0
LINE
  8
0
 10
59.1313
 20
299.924
 11
60.3327
 21
300.568
  0
LINE
  8
0
 10
60.3327
 20
300.568
 11
61.5473
 21
301.187
  0
LINE
  8
0
 10
61.5473
 20
301.187
 11
62.7746
 21
301.78
  0
LINE
  8
0
 10
62.7746
 20
301.78
 11
64.014
 21
302.348
  0
LINE
  8
0
 10
64.014
 20
302.348
 11
65.2651
 21
302.889
  0
LINE
  8
0
 10
65.2651
 20
302.889
 11
66.5272
 21
303.404
  0
LINE
  8
0
 10
66.5272
 20
303.404
 11
67.7998
 21
303.893
  0
LINE
  8
0
 10
67.7998
 20
303.893
 11
69.0824
 21
304.355
  0
LINE
  8
0
 10
69.0824
 20
304.355
 11
70.3743
 21
304.789
  0
LINE
  8
0
 10
70.3743
 20
304.789
 11
71.6751
 21
305.197
  0
LINE
  8
0
 10
71.6751
 20
305.197
 11
72.9842
 21
305.577
  0
LINE
  8
0
 10
72.9842
 20
305.577
 11
74.3009
 21
305.93
  0
LINE
  8
0
 10
74.3009
 20
305.93
 11
75.6247
 21
306.255
  0
LINE
  8
0
 10
75.6247
 20
306.255
 11
76.955
 21
306.553
  0
LINE
  8
0
 10
76.955
 20
306.553
 11
78.2913
 21
306.822
  0
LINE
  8
0
 10
78.2913
 20
306.822
 11
79.6329
 21
307.064
  0
LINE
  8
0
 10
79.6329
 20
307.064
 11
80.9793
 21
307.277
  0
LINE
  8
0
 10
80.9793
 20
307.277
 11
82.3299
 21
307.462
  0
LINE
  8
0
 10
82.3299
 20
307.462
 11
83.684
 21
307.618
  0
LINE
  8
0
 10
83.684
 20
307.618
 11
85.0411
 21
307.747
  0
LINE
  8
0
 10
85.0411
 20
307.747
 11
86.4006
 21
307.847
  0
LINE
  8
0
 10
86.4006
 20
307.847
 11
87.7619
 21
307.918
  0
LINE
  8
0
 10
87.7619
 20
307.918
 11
89.1244
 21
307.961
  0
LINE
  8
0
 10
89.1244
 20
307.961
 11
90.4875
 21
307.975
  0
LINE
  8
0
 10
90.4875
 20
307.975
 11
91.8506
 21
307.961
  0
LINE
  8
0
 10
91.8506
 20
307.961
 11
93.2131
 21
307.918
  0
LINE
  8
0
 10
93.2131
 20
307.918
 11
94.5744
 21
307.847
  0
LINE
  8
0
 10
94.5744
 20
307.847
 11
95.9339
 21
307.747
  0
LINE
  8
0
 10
95.9339
 20
307.747
 11
97.291
 21
307.618
  0
LINE
  8
0
 10
97.291
 20
307.618
 11
98.6451
 21
307.462
  0
LINE
  8
0
 10
98.6451
 20
307.462
 11
99.9957
 21
307.277
  0
LINE
  8
0
 10
99.9957
 20
307.277
 11
101.342
 21
307.064
  0
LINE
  8
0
 10
101.342
 20
307.064
 11
102.684
 21
306.822
  0
LINE
  8
0
 10
102.684
 20
306.822
 11
104.02
 21
306.553
  0
LINE
  8
0
 10
104.02
 20
306.553
 11
105.35
 21
306.255
  0
LINE
  8
0
 10
105.35
 20
306.255
 11
106.674
 21
305.93
  0
LINE
  8
0
 10
106.674
 20
305.93
 11
107.991
 21
305.577
  0
LINE
  8
0
 10
107.991
 20
305.577
 11
109.3
 21
305.197
  0
LINE
  8
0
 10
109.3
 20
305.197
 11
110.601
 21
304.789
  0
LINE
  8
0
 10
110.601
 20
304.789
 11
111.893
 21
304.355
  0
LINE
  8
0
 10
111.893
 20
304.355
 11
113.175
 21
303.893
  0
LINE
  8
0
 10
113.175
 20
303.893
 11
114.448
 21
303.404
  0
LINE
  8
0
 10
114.448
 20
303.404
 11
115.71
 21
302.889
  0
LINE
  8
0
 10
115.71
 20
302.889
 11
116.961
 21
302.348
  0
LINE
  8
0
 10
116.961
 20
302.348
 11
118.2
 21
301.78
  0
LINE
  8
0
 10
118.2
 20
301.78
 11
119.428
 21
301.187
  0
LINE
  8
0
 10
119.428
 20
301.187
 11
120.642
 21
300.568
  0
LINE
  8
0
 10
120.642
 20
300.568
 11
121.844
 21
299.924
  0
LINE
  8
0
 10
121.844
 20
299.924
 11
123.031
 21
299.255
  0
LINE
  8
0
 10
123.031
 20
299.255
 11
124.205
 21
298.561
  0
LINE
  8
0
 10
124.205
 20
298.561
 11
125.363
 21
297.843
  0
LINE
  8
0
 10
125.363
 20
297.843
 11
126.506
 21
297.1
  0
LINE
  8
0
 10
126.506
 20
297.1
 11
127.634
 21
296.334
  0
LINE
  8
0
 10
127.634
 20
296.334
 11
128.745
 21
295.544
  0
LINE
  8
0
 10
128.745
 20
295.544
 11
129.839
 21
294.732
  0
LINE
  8
0
 10
129.839
 20
294.732
 11
130.916
 21
293.896
  0
LINE
  8
0
 10
130.916
 20
293.896
 11
131.976
 21
293.038
  0
LINE
  8
0
 10
131.976
 20
293.038
 11
133.017
 21
292.158
  0
LINE
  8
0
 10
133.017
 20
292.158
 11
134.04
 21
291.257
  0
LINE
  8
0
 10
134.04
 20
291.257
 11
135.043
 21
290.334
  0
LINE
  8
0
 10
135.043
 20
290.334
 11
136.027
 21
289.391
  0
LINE
  8
0
 10
136.027
 20
289.391
 11
136.991
 21
288.427
  0
LINE
  8
0
 10
136.991
 20
288.427
 11
137.934
 21
287.443
  0
LINE
  8
0
 10
137.934
 20
287.443
 11
138.857
 21
286.44
  0
LINE
  8
0
 10
138.857
 20
286.44
 11
139.758
 21
285.417
  0
LINE
  8
0
 10
139.758
 20
285.417
 11
140.638
 21
284.376
  0
LINE
  8
0
 10
140.638
 20
284.376
 11
141.496
 21
283.316
  0
LINE
  8
0
 10
141.496
 20
283.316
 11
142.332
 21
282.239
  0
LINE
  8
0
 10
142.332
 20
282.239
 11
143.144
 21
281.145
  0
LINE
  8
0
 10
143.144
 20
281.145
 11
143.934
 21
280.034
  0
LINE
  8
0
 10
143.934
 20
280.034
 11
144.7
 21
278.906
  0
LINE
  8
0
 10
144.7
 20
278.906
 11
145.443
 21
277.763
  0
LINE
  8
0
 10
145.443
 20
277.763
 11
146.161
 21
276.605
  0
LINE
  8
0
 10
146.161
 20
276.605
 11
146.855
 21
275.431
  0
LINE
  8
0
 10
146.855
 20
275.431
 11
147.524
 21
274.244
  0
LINE
  8
0
 10
147.524
 20
274.244
 11
148.168
 21
273.042
  0
LINE
  8
0
 10
148.168
 20
273.042
 11
148.787
 21
271.828
  0
LINE
  8
0
 10
148.787
 20
271.828
 11
149.38
 21
270.6
  0
LINE
  8
0
 10
149.38
 20
270.6
 11
149.948
 21
269.361
  0
LINE
  8
0
 10
149.948
 20
269.361
 11
150.489
 21
268.11
  0
LINE
  8
0
 10
150.489
 20
268.11
 11
151.004
 21
266.848
  0
LINE
  8
0
 10
151.004
 20
266.848
 11
151.493
 21
265.575
  0
LINE
  8
0
 10
151.493
 20
265.575
 11
151.955
 21
264.293
  0
LINE
  8
0
 10
151.955
 20
264.293
 11
152.389
 21
263.001
  0
LINE
  8
0
 10
152.389
 20
263.001
 11
152.797
 21
261.7
  0
LINE
  8
0
 10
152.797
 20
261.7
 11
153.177
 21
260.391
  0
LINE
  8
0
 10
153.177
 20
260.391
 11
153.53
 21
259.074
  0
LINE
  8
0
 10
153.53
 20
259.074
 11
153.855
 21
257.75
  0
LINE
  8
0
 10
153.855
 20
257.75
 11
154.153
 21
256.42
  0
LINE
  8
0
 10
154.153
 20
256.42
 11
154.422
 21
255.084
  0
LINE
  8
0
 10
154.422
 20
255.084
 11
154.664
 21
253.742
  0
LINE
  8
0
 10
154.664
 20
253.742
 11
154.877
 21
252.396
  0
LINE
  8
0
 10
154.877
 20
252.396
 11
155.062
 21
251.045
  0
LINE
  8
0
 10
155.062
 20
251.045
 11
155.218
 21
249.691
  0
LINE
  8
0
 10
155.218
 20
249.691
 11
155.347
 21
248.334
  0
LINE
  8
0
 10
155.347
 20
248.334
 11
155.447
 21
246.974
  0
LINE
  8
0
 10
155.447
 20
246.974
 11
155.518
 21
245.613
  0
LINE
  8
0
 10
155.518
 20
245.613
 11
155.561
 21
244.251
  0
LINE
  8
0
 10
155.561
 20
244.251
 11
155.575
 21
242.887
  0
LINE
  8
0
 10
155.575
 20
242.887
 11
155.561
 21
241.524
  0
LINE
  8
0
 10
155.561
 20
241.524
 11
155.518
 21
240.162
  0
LINE
  8
0
 10
155.518
 20
240.162
 11
155.447
 21
238.801
  0
LINE
  8
0
 10
155.447
 20
238.801
 11
155.347
 21
237.441
  0
LINE
  8
0
 10
155.347
 20
237.441
 11
155.218
 21
236.084
  0
LINE
  8
0
 10
155.218
 20
236.084
 11
155.062
 21
234.73
  0
LINE
  8
0
 10
155.062
 20
234.73
 11
154.877
 21
233.379
  0
LINE
  8
0
 10
154.877
 20
233.379
 11
154.664
 21
232.033
  0
LINE
  8
0
 10
154.664
 20
232.033
 11
154.422
 21
230.691
  0
LINE
  8
0
 10
154.422
 20
230.691
 11
154.153
 21
229.355
  0
LINE
  8
0
 10
154.153
 20
229.355
 11
153.855
 21
228.025
  0
LINE
  8
0
 10
153.855
 20
228.025
 11
153.53
 21
226.701
  0
LINE
  8
0
 10
153.53
 20
226.701
 11
153.177
 21
225.384
  0
LINE
  8
0
 10
153.177
 20
225.384
 11
152.797
 21
224.075
  0
LINE
  8
0
 10
152.797
 20
224.075
 11
152.389
 21
222.774
  0
LINE
  8
0
 10
152.389
 20
222.774
 11
151.955
 21
221.482
  0
LINE
  8
0
 10
151.955
 20
221.482
 11
151.493
 21
220.2
  0
LINE
  8
0
 10
151.493
 20
220.2
 11
151.004
 21
218.927
  0
LINE
  8
0
 10
151.004
 20
218.927
 11
150.489
 21
217.665
  0
LINE
  8
0
 10
150.489
 20
217.665
 11
149.948
 21
216.414
  0
LINE
  8
0
 10
149.948
 20
216.414
 11
149.38
 21
215.175
  0
LINE
  8
0
 10
149.38
 20
215.175
 11
148.787
 21
213.947
  0
LINE
  8
0
 10
148.787
 20
213.947
 11
148.168
 21
212.733
  0
LINE
  8
0
 10
148.168
 20
212.733
 11
147.524
 21
211.531
  0
LINE
  8
0
 10
147.524
 20
211.531
 11
146.855
 21
210.344
  0
LINE
  8
0
 10
146.855
 20
210.344
 11
146.161
 21
209.17
  0
LINE
  8
0
 10
146.161
 20
209.17
 11
145.443
 21
208.012
  0
LINE
  8
0
 10
145.443
 20
208.012
 11
144.7
 21
206.869
  0
LINE
  8
0
 10
144.7
 20
206.869
 11
143.934
 21
205.741
  0
LINE
  8
0
 10
143.934
 20
205.741
 11
143.144
 21
204.63
  0
LINE
  8
0
 10
143.144
 20
204.63
 11
142.332
 21
203.536
  0
LINE
  8
0
 10
142.332
 20
203.536
 11
141.496
 21
202.459
  0
LINE
  8
0
 10
141.496
 20
202.459
 11
140.638
 21
201.399
  0
LINE
  8
0
 10
140.638
 20
201.399
 11
139.758
 21
200.358
  0
LINE
  8
0
 10
139.758
 20
200.358
 11
138.857
 21
199.335
  0
LINE
  8
0
 10
138.857
 20
199.335
 11
137.934
 21
198.332
  0
LINE
  8
0
 10
137.934
 20
198.332
 11
136.991
 21
197.348
  0
LINE
  8
0
 10
136.991
 20
197.348
 11
136.027
 21
196.384
  0
LINE
  8
0
 10
136.027
 20
196.384
 11
135.043
 21
195.441
  0
LINE
  8
0
 10
135.043
 20
195.441
 11
134.04
 21
194.518
  0
LINE
  8
0
 10
134.04
 20
194.518
 11
133.017
 21
193.617
  0
LINE
  8
0
 10
133.017
 20
193.617
 11
131.976
 21
192.737
  0
LINE
  8
0
 10
131.976
 20
192.737
 11
130.916
 21
191.879
  0
LINE
  8
0
 10
130.916
 20
191.879
 11
129.839
 21
191.043
  0
LINE
  8
0
 10
129.839
 20
191.043
 11
128.745
 21
190.231
  0
LINE
  8
0
 10
128.745
 20
190.231
 11
127.634
 21
189.441
  0
LINE
  8
0
 10
127.634
 20
189.441
 11
126.506
 21
188.675
  0
LINE
  8
0
 10
126.506
 20
188.675
 11
125.363
 21
187.932
  0
LINE
  8
0
 10
125.363
 20
187.932
 11
124.205
 21
187.214
  0
LINE
  8
0
 10
124.205
 20
187.214
 11
123.031
 21
186.52
  0
LINE
  8
0
 10
123.031
 20
186.52
 11
121.844
 21
185.851
  0
LINE
  8
0
 10
121.844
 20
185.851
 11
120.642
 21
185.207
  0
LINE
  8
0
 10
120.642
 20
185.207
 11
119.428
 21
184.588
  0
LINE
  8
0
 10
119.428
 20
184.588
 11
118.2
 21
183.995
  0
LINE
  8
0
 10
118.2
 20
183.995
 11
116.961
 21
183.427
  0
LINE
  8
0
 10
116.961
 20
183.427
 11
115.71
 21
182.886
  0
LINE
  8
0
 10
115.71
 20
182.886
 11
114.448
 21
182.371
  0
LINE
  8
0
 10
114.448
 20
182.371
 11
113.175
 21
181.882
  0
LINE
  8
0
 10
113.175
 20
181.882
 11
111.893
 21
181.42
  0
LINE
  8
0
 10
111.893
 20
181.42
 11
110.601
 21
180.986
  0
LINE
  8
0
 10
110.601
 20
180.986
 11
109.3
 21
180.578
  0
LINE
  8
0
 10
109.3
 20
180.578
 11
107.991
 21
180.198
  0
LINE
  8
0
 10
107.991
 20
180.198
 11
106.674
 21
179.845
  0
LINE
  8
0
 10
106.674
 20
179.845
 11
105.35
 21
179.52
  0
LINE
  8
0
 10
105.35
 20
179.52
 11
104.02
 21
179.222
  0
LINE
  8
0
 10
104.02
 20
179.222
 11
102.684
 21
178.953
  0
LINE
  8
0
 10
102.684
 20
178.953
 11
101.342
 21
178.711
  0
LINE
  8
0
 10
101.342
 20
178.711
 11
99.9957
 21
178.498
  0
LINE
  8
0
 10
99.9957
 20
178.498
 11
98.6451
 21
178.313
  0
LINE
  8
0
 10
98.6451
 20
178.313
 11
97.291
 21
178.157
  0
LINE
  8
0
 10
97.291
 20
178.157
 11
95.9339
 21
178.028
  0
LINE
  8
0
 10
95.9339
 20
178.028
 11
94.5744
 21
177.928
  0
LINE
  8
0
 10
94.5744
 20
177.928
 11
93.2131
 21
177.857
  0
LINE
  8
0
 10
93.2131
 20
177.857
 11
91.8506
 21
177.814
  0
LINE
  8
0
 10
91.8506
 20
177.814
 11
90.4875
 21
177.8
  0
LINE
  8
0
 10
90.4875
 20
177.8
 11
89.1244
 21
177.814
  0
LINE
  8
0
 10
89.1244
 20
25.4143
 11
87.7619
 21
25.4571
  0
LINE
  8
0
 10
87.7619
 20
25.4571
 11
86.4006
 21
25.5284
  0
LINE
  8
0
 10
86.4006
 20
25.5284
 11
85.0411
 21
25.6283
  0
LINE
  8
0
 10
85.0411
 20
25.6283
 11
83.684
 21
25.7565
  0
LINE
  8
0
 10
83.684
 20
25.7565
 11
82.3299
 21
25.9132
  0
LINE
  8
0
 10
82.3299
 20
25.9132
 11
80.9793
 21
26.0982
  0
LINE
  8
0
 10
80.9793
 20
26.0982
 11
79.6329
 21
26.3115
  0
LINE
  8
0
 10
79.6329
 20
26.3115
 11
78.2913
 21
26.5529
  0
LINE
  8
0
 10
78.2913
 20
26.5529
 11
76.955
 21
26.8223
  0
LINE
  8
0
 10
76.955
 20
26.8223
 11
75.6247
 21
27.1197
  0
LINE
  8
0
 10
75.6247
 20
27.1197
 11
74.3009
 21
27.4448
  0
LINE
  8
0
 10
74.3009
 20
27.4448
 11
72.9842
 21
27.7977
  0
LINE
  8
0
 10
72.9842
 20
27.7977
 11
71.6751
 21
28.178
  0
LINE
  8
0
 10
71.6751
 20
28.178
 11
70.3743
 21
28.5856
  0
LINE
  8
0
 10
70.3743
 20
28.5856
 11
69.0824
 21
29.0204
  0
LINE
  8
0
 10
69.0824
 20
29.0204
 11
67.7998
 21
29.4821
  0
LINE
  8
0
 10
67.7998
 20
29.4821
 11
66.5272
 21
29.9707
  0
LINE
  8
0
 10
66.5272
 20
29.9707
 11
65.2651
 21
30.4857
  0
LINE
  8
0
 10
65.2651
 20
30.4857
 11
64.014
 21
31.0271
  0
LINE
  8
0
 10
64.014
 20
31.0271
 11
62.7746
 21
31.5946
  0
LINE
  8
0
 10
62.7746
 20
31.5946
 11
61.5473
 21
32.1879
  0
LINE
  8
0
 10
61.5473
 20
32.1879
 11
60.3327
 21
32.8067
  0
LINE
  8
0
 10
60.3327
 20
32.8067
 11
59.1313
 21
33.4509
  0
LINE
  8
0
 10
59.1313
 20
33.4509
 11
57.9437
 21
34.1201
  0
LINE
  8
0
 10
57.9437
 20
34.1201
 11
56.7704
 21
34.814
  0
LINE
  8
0
 10
56.7704
 20
34.814
 11
55.6119
 21
35.5323
  0
LINE
  8
0
 10
55.6119
 20
35.5323
 11
54.4686
 21
36.2747
  0
LINE
  8
0
 10
54.4686
 20
36.2747
 11
53.3412
 21
37.0409
  0
LINE
  8
0
 10
53.3412
 20
37.0409
 11
52.23
 21
37.8306
  0
LINE
  8
0
 10
52.23
 20
37.8306
 11
51.1357
 21
38.6434
  0
LINE
  8
0
 10
51.1357
 20
38.6434
 11
50.0585
 21
39.4789
  0
LINE
  8
0
 10
50.0585
 20
39.4789
 11
48.9992
 21
40.3367
  0
LINE
  8
0
 10
48.9992
 20
40.3367
 11
47.958
 21
41.2166
  0
LINE
  8
0
 10
47.958
 20
41.2166
 11
46.9355
 21
42.1181
  0
LINE
  8
0
 10
46.9355
 20
42.1181
 11
45.932
 21
43.0407
  0
LINE
  8
0
 10
45.932
 20
43.0407
 11
44.9482
 21
43.9843
  0
LINE
  8
0
 10
44.9482
 20
43.9843
 11
43.9843
 21
44.9482
  0
LINE
  8
0
 10
43.9843
 20
44.9482
 11
43.0407
 21
45.932
  0
LINE
  8
0
 10
43.0407
 20
45.932
 11
42.1181
 21
46.9355
  0
LINE
  8
0
 10
42.1181
 20
46.9355
 11
41.2166
 21
47.958
  0
LINE
  8
0
 10
41.2166
 20
47.958
 11
40.3367
 21
48.9992
  0
LINE
  8
0
 10
40.3367
 20
48.9992
 11
39.4789
 21
50.0585
  0
LINE
  8
0
 10
39.4789
 20
50.0585
 11
38.6434
 21
51.1357
  0
LINE
  8
0
 10
38.6434
 20
51.1357
 11
37.8306
 21
52.23
  0
LINE
  8
0
 10
37.8306
 20
52.23
 11
37.0409
 21
53.3412
  0
LINE
  8
0
 10
37.0409
 20
53.3412
 11
36.2747
 21
54.4686
  0
LINE
  8
0
 10
36.2747
 20
54.4686
 11
35.5323
 21
55.6119
  0
LINE
  8
0
 10
35.5323
 20
55.6119
 11
34.814
 21
56.7704
  0
LINE
  8
0
 10
34.814
 20
56.7704
 11
34.1201
 21
57.9437
  0
LINE
  8
0
 10
34.1201
 20
57.9437
 11
33.4509
 21
59.1313
  0
LINE
  8
0
 10
33.4509
 20
59.1313
 11
32.8067
 21
60.3327
  0
LINE
  8
0
 10
32.8067
 20
60.3327
 11
32.1879
 21
61.5473
  0
LINE
  8
0
 10
32.1879
 20
61.5473
 11
31.5946
 21
62.7746
  0
LINE
  8
0
 10
31.5946
 20
62.7746
 11
31.0271
 21
64.014
  0
LINE
  8
0
 10
31.0271
 20
64.014
 11
30.4857
 21
65.2651
  0
LINE
  8
0
 10
30.4857
 20
65.2651
 11
29.9707
 21
66.5272
  0
LINE
  8
0
 10
29.9707
 20
66.5272
 11
29.4821
 21
67.7998
  0
LINE
  8
0
 10
29.4821
 20
67.7998
 11
29.0204
 21
69.0824
  0
LINE
  8
0
 10
29.0204
 20
69.0824
 11
28.5856
 21
70.3743
  0
LINE
  8
0
 10
28.5856
 20
70.3743
 11
28.178
 21
71.6751
  0
LINE
  8
0
 10
28.178
 20
71.6751
 11
27.7977
 21
72.9842
  0
LINE
  8
0
 10
27.7977
 20
72.9842
 11
27.4448
 21
74.3009
  0
LINE
  8
0
 10
27.4448
 20
74.3009
 11
27.1197
 21
75.6247
  0
LINE
  8
0
 10
27.1197
 20
75.6247
 11
26.8223
 21
76.955
  0
LINE
  8
0
 10
26.8223
 20
76.955
 11
26.5529
 21
78.2913
  0
LINE
  8
0
 10
26.5529
 20
78.2913
 11
26.3115
 21
79.6329
  0
LINE
  8
0
 10
26.3115
 20
79.6329
 11
26.0982
 21
80.9793
  0
LINE
  8
0
 10
26.0982
 20
80.9793
 11
25.9132
 21
82.3299
  0
LINE
  8
0
 10
25.9132
 20
82.3299
 11
25.7565
 21
83.684
  0
LINE
  8
0
 10
25.7565
 20
83.684
 11
25.6283
 21
85.0411
  0
LINE
  8
0
 10
25.6283
 20
85.0411
 11
25.5284
 21
86.4006
  0
LINE
  8
0
 10
25.5284
 20
86.4006
 11
25.4571
 21
87.7619
  0
LINE
  8
0
 10
25.4571
 20
87.7619
 11
25.4143
 21
89.1244
  0
LINE
  8
0
 10
25.4143
 20
89.1244
 11
25.4
 21
90.4875
  0
LINE
  8
0
 10
25.4
 20
90.4875
 11
25.4143
 21
91.8506
  0
LINE
  8
0
 10
25.4143
 20
91.8506
 11
25.4571
 21
93.2131
  0
LINE
  8
0
 10
25.4571
 20
93.2131
 11
25.5284
 21
94.5744
  0
LINE
  8
0
 10
25.5284
 20
94.5744
 11
25.6283
 21
95.9339
  0
LINE
  8
0
 10
25.6283
 20
95.9339
 11
25.7565
 21
97.291
  0
LINE
  8
0
 10
25.7565
 20
97.291
 11
25.9132
 21
98.6451
  0
LINE
  8
0
 10
25.9132
 20
98.6451
 11
26.0982
 21
99.9957
  0
LINE
  8
0
 10
26.0982
 20
99.9957
 11
26.3115
 21
101.342
  0
LINE
  8
0
 10
26.3115
 20
101.342
 11
26.5529
 21
102.684
  0
LINE
  8
0
 10
26.5529
 20
102.684
 11
26.8223
 21
104.02
  0
LINE
  8
0
 10
26.8223
 20
104.02
 11
27.1197
 21
105.35
  0
LINE
  8
0
 10
27.1197
 20
105.35
 11
27.4448
 21
106.674
  0
LINE
  8
0
 10
27.4448
 20
106.674
 11
27.7977
 21
107.991
  0
LINE
  8
0
 10
27.7977
 20
107.991
 11
28.178
 21
109.3
  0
LINE
  8
0
 10
28.178
 20
109.3
 11
28.5856
 21
110.601
  0
LINE
  8
0
 10
28.5856
 20
110.601
 11
29.0204
 21
111.893
  0
LINE
  8
0
 10
29.0204
 20
111.893
 11
29.4821
 21
113.175
  0
LINE
  8
0
 10
29.4821
 20
113.175
 11
29.9707
 21
114.448
  0
LINE
  8
0
 10
29.9707
 20
114.448
 11
30.4857
 21
115.71
  0
LINE
  8
0
 10
30.4857
 20
115.71
 11
31.0271
 21
116.961
  0
LINE
  8
0
 10
31.0271
 20
116.961
 11
31.5946
 21
118.2
  0
LINE
  8
0
 10
31.5946
 20
118.2
 11
32.1879
 21
119.428
  0
LINE
  8
0
 10
32.1879
 20
119.428
 11
32.8067
 21
120.642
  0
LINE
  8
0
 10
32.8067
 20
120.642
 11
33.4509
 21
121.844
  0
LINE
  8
0
 10
33.4509
 20
121.844
 11
34.1201
 21
123.031
  0
LINE
  8
0
 10
34.1201
 20
123.031
 11
34.814
 21
124.205
  0
LINE
  8
0
 10
34.814
 20
124.205
 11
35.5323
 21
125.363
  0
LINE
  8
0
 10
35.5323
 20
125.363
 11
36.2747
 21
126.506
  0
LINE
  8
0
 10
36.2747
 20
126.506
 11
37.0409
 21
127.634
  0
LINE
  8
0
 10
37.0409
 20
127.634
 11
37.8306
 21
128.745
  0
LINE
  8
0
 10
37.8306
 20
128.745
 11
38.6434
 21
129.839
  0
LINE
  8
0
 10
38.6434
 20
129.839
 11
39.4789
 21
130.916
  0
LINE
  8
0
 10
39.4789
 20
130.916
 11
40.3367
 21
131.976
  0
LINE
  8
0
 10
40.3367
 20
131.976
 11
41.2166
 21
133.017
  0
LINE
  8
0
 10
41.2166
 20
133.017
 11
42.1181
 21
134.04
  0
LINE
  8
0
 10
42.1181
 20
134.04
 11
43.0407
 21
135.043
  0
LINE
  8
0
 10
43.0407
 20
135.043
 11
43.9843
 21
136.027
  0
LINE
  8
0
 10
43.9843
 20
136.027
 11
44.9482
 21
136.991
  0
LINE
  8
0
 10
44.9482
 20
136.991
 11
45.932
 21
137.934
  0
LINE
  8
0
 10
45.932
 20
137.934
 11
46.9355
 21
138.857
  0
LINE
  8
0
 10
46.9355
 20
138.857
 11
47.958
 21
139.758
  0
LINE
  8
0
 10
47.958
 20
139.758
 11
48.9992
 21
140.638
  0
LINE
  8
0
 10
48.9992
 20
140.638
 11
50.0585
 21
141.496
  0
LINE
  8
0
 10
50.0585
 20
141.496
 11
51.1357
 21
142.332
  0
LINE
  8
0
 10
51.1357
 20
142.332
 11
52.23
 21
143.144
  0
LINE
  8
0
 10
52.23
 20
143.144
 11
53.3412
 21
143.934
  0
LINE
  8
0
 10
53.3412
 20
143.934
 11
54.4686
 21
144.7
  0
LINE
  8
0
 10
54.4686
 20
144.7
 11
55.6119
 21
145.443
  0
LINE
  8
0
 10
55.6119
 20
145.443
 11
56.7704
 21
146.161
  0
LINE
  8
0
 10
56.7704
 20
146.161
 11
57.9437
 21
146.855
  0
LINE
  8
0
 10
57.9437
 20
146.855
 11
59.1313
 21
147.524
  0
LINE
  8
0
 10
59.1313
 20
147.524
 11
60.3327
 21
148.168
  0
LINE
  8
0
 10
60.3327
 20
148.168
 11
61.5473
 21
148.787
  0
LINE
  8
0
 10
61.5473
 20
148.787
 11
62.7746
 21
149.38
  0
LINE
  8
0
 10
62.7746
 20
149.38
 11
64.014
 21
149.948
  0
LINE
  8
0
 10
64.014
 20
149.948
 11
65.2651
 21
150.489
  0
LINE
  8
0
 10
65.2651
 20
150.489
 11
66.5272
 21
151.004
  0
LINE
  8
0
 10
66.5272
 20
151.004
 11
67.7998
 21
151.493
  0
LINE
  8
0
 10
67.7998
 20
151.493
 11
69.0824
 21
151.955
  0
LINE
  8
0
 10
69.0824
 20
151.955
 11
70.3743
 21
152.389
  0
LINE
  8
0
 10
70.3743
 20
152.389
 11
71.6751
 21
152.797
  0
LINE
  8
0
 10
71.6751
 20
152.797
 11
72.9842
 21
153.177
  0
LINE
  8
0
 10
72.9842
 20
153.177
 11
74.3009
 21
153.53
  0
LINE
  8
0
 10
74.3009
 20
153.53
 11
75.6247
 21
153.855
  0
LINE
  8
0
 10
75.6247
 20
153.855
 11
76.955
 21
154.153
  0
LINE
  8
0
 10
76.955
 20
154.153
 11
78.2913
 21
154.422
  0
LINE
  8
0
 10
78.2913
 20
154.422
 11
79.6329
 21
154.664
  0
LINE
  8
0
 10
79.6329
 20
154.664
 11
80.9793
 21
154.877
  0
LINE
  8
0
 10
80.9793
 20
154.877
 11
82.3299
 21
155.062
  0
LINE
  8
0
 10
82.3299
 20
155.062
 11
83.684
 21
155.218
  0
LINE
  8
0
 10
83.684
 20
155.218
 11
85.0411
 21
155.347
  0
LINE
  8
0
 10
85.0411
 20
155.347
 11
86.4006
 21
155.447
  0
LINE
  8
0
 10
86.4006
 20
155.447
 11
87.7619
 21
155.518
  0
LINE
  8
0
 10
87.7619
 20
155.518
 11
89.1244
 21
155.561
  0
LINE
  8
0
 10
89.1244
 20
155.561
 11
90.4875
 21
155.575
  0
LINE
  8
0
 10
90.4875
 20
155.575
 11
91.8506
 21
155.561
  0
LINE
  8
0
 10
91.8506
 20
155.561
 11
93.2131
 21
155.518
  0
LINE
  8
0
 10
93.2131
 20
155.518
 11
94.5744
 21
155.447
  0
LINE
  8
0
 10
94.5744
 20
155.447
 11
95.9339
 21
155.347
  0
LINE
  8
0
 10
95.9339
 20
155.347
 11
97.291
 21
155.218
  0
LINE
  8
0
 10
97.291
 20
155.218
 11
98.6451
 21
155.062
  0
LINE
  8
0
 10
98.6451
 20
155.062
 11
99.9957
 21
154.877
  0
LINE
  8
0
 10
99.9957
 20
154.877
 11
101.342
 21
154.664
  0
LINE
  8
0
 10
101.342
 20
154.664
 11
102.684
 21
154.422
  0
LINE
  8
0
 10
102.684
 20
154.422
 11
104.02
 21
154.153
  0
LINE
  8
0
 10
104.02
 20
154.153
 11
105.35
 21
153.855
  0
LINE
  8
0
 10
105.35
 20
153.855
 11
106.674
 21
153.53
  0
LINE
  8
0
 10
106.674
 20
153.53
 11
107.991
 21
153.177
  0
LINE
  8
0
 10
107.991
 20
153.177
 11
109.3
 21
152.797
  0
LINE
  8
0
 10
109.3
 20
152.797
 11
110.601
 21
152.389
  0
LINE
  8
0
 10
110.601
 20
152.389
 11
111.893
 21
151.955
  0
LINE
  8
0
 10
111.893
 20
151.955
 11
113.175
 21
151.493
  0
LINE
  8
0
 10
113.175
 20
151.493
 11
114.448
 21
151.004
  0
LINE
  8
0
 10
114.448
 20
151.004
 11
115.71
 21
150.489
  0
LINE
  8
0
 10
115.71
 20
150.489
 11
116.961
 21
149.948
  0
LINE
  8
0
 10
116.961
 20
149.948
 11
118.2
 21
149.38
  0
LINE
  8
0
 10
118.2
 20
149.38
 11
119.428
 21
148.787
  0
LINE
  8
0
 10
119.428
 20
148.787
 11
120.642
 21
148.168
  0
LINE
  8
0
 10
120.642
 20
148.168
 11
121.844
 21
147.524
  0
LINE
  8
0
 10
121.844
 20
147.524
 11
123.031
 21
146.855
  0
LINE
  8
0
 10
123.031
 20
146.855
 11
124.205
 21
146.161
  0
LINE
  8
0
 10
124.205
 20
146.161
 11
125.363
 21
145.443
  0
LINE
  8
0
 10
125.363
 20
145.443
 11
126.506
 21
144.7
  0
LINE
  8
0
 10
126.506
 20
144.7
 11
127.634
 21
143.934
  0
LINE
  8
0
 10
127.634
 20
143.934
 11
128.745
 21
143.144
  0
LINE
  8
0
 10
128.745
 20
143.144
 11
129.839
 21
142.332
  0
LINE
  8
0
 10
129.839
 20
142.332
 11
130.916
 21
141.496
  0
LINE
  8
0
 10
130.916
 20
141.496
 11
131.976
 21
140.638
  0
LINE
  8
0
 10
131.976
 20
140.638
 11
133.017
 21
139.758
  0
LINE
  8
0
 10
133.017
 20
139.758
 11
134.04
 21
138.857
  0
LINE
  8
0
 10
134.04
 20
138.857
 11
135.043
 21
137.934
  0
LINE
  8
0
 10
135.043
 20
137.934
 11
136.027
 21
136.991
  0
LINE
  8
0
 10
136.027
 20
136.991
 11
136.991
 21
136.027
  0
LINE
  8
0
 10
136.991
 20
136.027
 11
137.934
 21
135.043
  0
LINE
  8
0
 10
137.934
 20
135.043
 11
138.857
 21
134.04
  0
LINE
  8
0
 10
138.857
 20
134.04
 11
139.758
 21
133.017
  0
LINE
  8
0
 10
139.758
 20
133.017
 11
140.638
 21
131.976
  0
LINE
  8
0
 10
140.638
 20
131.976
 11
141.496
 21
130.916
  0
LINE
  8
0
 10
141.496
 20
130.916
 11
142.332
 21
129.839
  0
LINE
  8
0
 10
142.332
 20
129.839
 11
143.144
 21
128.745
  0
LINE
  8
0
 10
143.144
 20
128.745
 11
143.934
 21
127.634
  0
LINE
  8
0
 10
143.934
 20
127.634
 11
144.7
 21
126.506
  0
LINE
  8
0
 10
144.7
 20
126.506
 11
145.443
 21
125.363
  0
LINE
  8
0
 10
145.443
 20
125.363
 11
146.161
 21
124.205
  0
LINE
  8
0
 10
146.161
 20
124.205
 11
146.855
 21
123.031
  0
LINE
  8
0
 10
146.855
 20
123.031
 11
147.524
 21
121.844
  0
LINE
  8
0
 10
147.524
 20
121.844
 11
148.168
 21
120.642
  0
LINE
  8
0
 10
148.168
 20
120.642
 11
148.787
 21
119.428
  0
LINE
  8
0
 10
148.787
 20
119.428
 11
149.38
 21
118.2
  0
LINE
  8
0
 10
149.38
 20
118.2
 11
149.948
 21
116.961
  0
LINE
  8
0
 10
149.948
 20
116.961
 11
150.489
 21
115.71
  0
LINE
  8
0
 10
150.489
 20
115.71
 11
151.004
 21
114.448
  0
LINE
  8
0
 10
151.004
 20
114.448
 11
151.493
 21
113.175
  0
LINE
  8
0
 10
151.493
 20
113.175
 11
151.955
 21
111.893
  0
LINE
  8
0
 10
151.955
 20
111.893
 11
152.389
 21
110.601
  0
LINE
  8
0
 10
152.389
 20
110.601
 11
152.797
 21
109.3
  0
LINE
  8
0
 10
152.797
 20
109.3
 11
153.177
 21
107.991
  0
LINE
  8
0
 10
153.177
 20
107.991
 11
153.53
 21
106.674
  0
LINE
  8
0
 10
153.53
 20
106.674
 11
153.855
 21
105.35
  0
LINE
  8
0
 10
153.855
 20
105.35
 11
154.153
 21
104.02
  0
LINE
  8
0
 10
154.153
 20
104.02
 11
154.422
 21
102.684
  0
LINE
  8
0
 10
154.422
 20
102.684
 11
154.664
 21
101.342
  0
LINE
  8
0
 10
154.664
 20
101.342
 11
154.877
 21
99.9957
  0
LINE
  8
0
 10
154.877
 20
99.9957
 11
155.062
 21
98.6451
  0
LINE
  8
0
 10
155.062
 20
98.6451
 11
155.218
 21
97.291
  0
LINE
  8
0
 10
155.218
 20
97.291
 11
155.347
 21
95.9339
  0
LINE
  8
0
 10
155.347
 20
95.9339
 11
155.447
 21
94.5744
  0
LINE
  8
0
 10
155.447
 20
94.5744
 11
155.518
 21
93.2131
  0
LINE
  8
0
 10
155.518
 20
93.2131
 11
155.561
 21
91.8506
  0
LINE
  8
0
 10
155.561
 20
91.8506
 11
155.575
 21
90.4875
  0
LINE
  8
0
 10
155.575
 20
90.4875
 11
155.561
 21
89.1244
  0
LINE
  8
0
 10
155.561
 20
89.1244
 11
155.518
 21
87.7619
  0
LINE
  8
0
 10
155.518
 20
87.7619
 11
155.447
 21
86.4006
  0
LINE
  8
0
 10
155.447
 20
86.4006
 11
155.347
 21
85.0411
  0
LINE
  8
0
 10
155.347
 20
85.0411
 11
155.218
 21
83.684
  0
LINE
  8
0
 10
155.218
 20
83.684
 11
155.062
 21
82.3299
  0
LINE
  8
0
 10
155.062
 20
82.3299
 11
154.877
 21
80.9793
  0
LINE
  8
0
 10
154.877
 20
80.9793
 11
154.664
 21
79.6329
  0
LINE
  8
0
 10
154.664
 20
79.6329
 11
154.422
 21
78.2913
  0
LINE
  8
0
 10
154.422
 20
78.2913
 11
154.153
 21
76.955
  0
LINE
  8
0
 10
154.153
 20
76.955
 11
153.855
 21
75.6247
  0
LINE
  8
0
 10
153.855
 20
75.6247
 11
153.53
 21
74.3009
  0
LINE
  8
0
 10
153.53
 20
74.3009
 11
153.177
 21
72.9842
  0
LINE
  8
0
 10
153.177
 20
72.9842
 11
152.797
 21
71.6751
  0
LINE
  8
0
 10
152.797
 20
71.6751
 11
152.389
 21
70.3743
  0
LINE
  8
0
 10
152.389
 20
70.3743
 11
151.955
 21
69.0824
  0
LINE
  8
0
 10
151.955
 20
69.0824
 11
151.493
 21
67.7998
  0
LINE
  8
0
 10
151.493
 20
67.7998
 11
151.004
 21
66.5272
  0
LINE
  8
0
 10
151.004
 20
66.5272
 11
150.489
 21
65.2651
  0
LINE
  8
0
 10
150.489
 20
65.2651
 11
149.948
 21
64.014
  0
LINE
  8
0
 10
149.948
 20
64.014
 11
149.38
 21
62.7746
  0
LINE
  8
0
 10
149.38
 20
62.7746
 11
148.787
 21
61.5473
  0
LINE
  8
0
 10
148.787
 20
61.5473
 11
148.168
 21
60.3327
  0
LINE
  8
0
 10
148.168
 20
60.3327
 11
147.524
 21
59.1313
  0
LINE
  8
0
 10
147.524
 20
59.1313
 11
146.855
 21
57.9437
  0
LINE
  8
0
 10
146.855
 20
57.9437
 11
146.161
 21
56.7704
  0
LINE
  8
0
 10
146.161
 20
56.7704
 11
145.443
 21
55.6119
  0
LINE
  8
0
 10
145.443
 20
55.6119
 11
144.7
 21
54.4686
  0
LINE
  8
0
 10
144.7
 20
54.4686
 11
143.934
 21
53.3412
  0
LINE
  8
0
 10
143.934
 20
53.3412
 11
143.144
 21
52.23
  0
LINE
  8
0
 10
143.144
 20
52.23
 11
142.332
 21
51.1357
  0
LINE
  8
0
 10
142.332
 20
51.1357
 11
141.496
 21
50.0585
  0
LINE
  8
0
 10
141.496
 20
50.0585
 11
140.638
 21
48.9992
  0
LINE
  8
0
 10
140.638
 20
48.9992
 11
139.758
 21
47.958
  0
LINE
  8
0
 10
139.758
 20
47.958
 11
138.857
 21
46.9355
  0
LINE
  8
0
 10
138.857
 20
46.9355
 11
137.934
 21
45.932
  0
LINE
  8
0
 10
137.934
 20
45.932
 11
136.991
 21
44.9482
  0
LINE
  8
0
 10
136.991
 20
44.9482
 11
136.027
 21
43.9843
  0
LINE
  8
0
 10
136.027
 20
43.9843
 11
135.043
 21
43.0407
  0
LINE
  8
0
 10
135.043
 20
43.0407
 11
134.04
 21
42.1181
  0
LINE
  8
0
 10
134.04
 20
42.1181
 11
133.017
 21
41.2166
  0
LINE
  8
0
 10
133.017
 20
41.2166
 11
131.976
 21
40.3367
  0
LINE
  8
0
 10
131.976
 20
40.3367
 11
130.916
 21
39.4789
  0
LINE
  8
0
 10
130.916
 20
39.4789
 11
129.839
 21
38.6434
  0
LINE
  8
0
 10
129.839
 20
38.6434
 11
128.745
 21
37.8306
  0
LINE
  8
0
 10
128.745
 20
37.8306
 11
127.634
 21
37.0409
  0
LINE
  8
0
 10
127.634
 20
37.0409
 11
126.506
 21
36.2747
  0
LINE
  8
0
 10
126.506
 20
36.2747
 11
125.363
 21
35.5323
  0
LINE
  8
0
 10
125.363
 20
35.5323
 11
124.205
 21
34.814
  0
LINE
  8
0
 10
124.205
 20
34.814
 11
123.031
 21
34.1201
  0
LINE
  8
0
 10
123.031
 20
34.1201
 11
121.844
 21
33.4509
  0
LINE
  8
0
 10
121.844
 20
33.4509
 11
120.642
 21
32.8067
  0
LINE
  8
0
 10
120.642
 20
32.8067
 11
119.428
 21
32.1879
  0
LINE
  8
0
 10
119.428
 20
32.1879
 11
118.2
 21
31.5946
  0
LINE
  8
0
 10
118.2
 20
31.5946
 11
116.961
 21
31.0271
  0
LINE
  8
0
 10
116.961
 20
31.0271
 11
115.71
 21
30.4857
  0
LINE
  8
0
 10
115.71
 20
30.4857
 11
114.448
 21
29.9707
  0
LINE
  8
0
 10
114.448
 20
29.9707
 11
113.175
 21
29.4821
  0
LINE
  8
0
 10
113.175
 20
29.4821
 11
111.893
 21
29.0204
  0
LINE
  8
0
 10
111.893
 20
29.0204
 11
110.601
 21
28.5856
  0
LINE
  8
0
 10
110.601
 20
28.5856
 11
109.3
 21
28.178
  0
LINE
  8
0
 10
109.3
 20
28.178
 11
107.991
 21
27.7977
  0
LINE
  8
0
 10
107.991
 20
27.7977
 11
106.674
 21
27.4448
  0
LINE
  8
0
 10
106.674
 20
27.4448
 11
105.35
 21
27.1197
  0
LINE
  8
0
 10
105.35
 20
27.1197
 11
104.02
 21
26.8223
  0
LINE
  8
0
 10
104.02
 20
26.8223
 11
102.684
 21
26.5529
  0
LINE
  8
0
 10
102.684
 20
26.5529
 11
101.342
 21
26.3115
  0
LINE
  8
0
 10
101.342
 20
26.3115
 11
99.9957
 21
26.0982
  0
LINE
  8
0
 10
99.9957
 20
26.0982
 11
98.6451
 21
25.9132
  0
LINE
  8
0
 10
98.6451
 20
25.9132
 11
97.291
 21
25.7565
  0
LINE
  8
0
 10
97.291
 20
25.7565
 11
95.9339
 21
25.6283
  0
LINE
  8
0
 10
95.9339
 20
25.6283
 11
94.5744
 21
25.5284
  0
LINE
  8
0
 10
94.5744
 20
25.5284
 11
93.2131
 21
25.4571
  0
LINE
  8
0
 10
93.2131
 20
25.4571
 11
91.8506
 21
25.4143
  0
LINE
  8
0
 10
91.8506
 20
25.4143
 11
90.4875
 21
25.4
  0
LINE
  8
0
 10
90.4875
 20
25.4
 11
89.1244
 21
25.4143
  0
ENDSEC
  0
SECTION
  2
OBJECTS
  0
DICTIONARY
  0
ENDSEC
  0
EOF
