solid OpenSCAD_Model
  facet normal -1 0 0
    outer loop
      vertex -5 12 2
      vertex -5 13 0
      vertex -5 1 2
    endloop
  endfacet
  facet normal -1 0 0
    outer loop
      vertex -5 0 0
      vertex -5 0 8
      vertex -5 1 2
    endloop
  endfacet
  facet normal -1 0 0
    outer loop
      vertex -5 0 0
      vertex -5 1 2
      vertex -5 13 0
    endloop
  endfacet
  facet normal -1 0 0
    outer loop
      vertex -5 13 0
      vertex -5 12 2
      vertex -5 12 8
    endloop
  endfacet
  facet normal -1 0 0
    outer loop
      vertex -5 13 0
      vertex -5 12 8
      vertex -5 13 8
    endloop
  endfacet
  facet normal -1 0 0
    outer loop
      vertex -5 1 2
      vertex -5 0 8
      vertex -5 1 8
    endloop
  endfacet
  facet normal 0 -1 0
    outer loop
      vertex -5 0 8
      vertex -5 0 0
      vertex -2 0 0
    endloop
  endfacet
  facet normal 0 -1 0
    outer loop
      vertex 2 0 5
      vertex -5 0 8
      vertex -2 0 5
    endloop
  endfacet
  facet normal 0 -1 0
    outer loop
      vertex -2 0 5
      vertex -5 0 8
      vertex -2 0 0
    endloop
  endfacet
  facet normal 0 -1 0
    outer loop
      vertex 14.8 0 0
      vertex -5 0 8
      vertex 2 0 5
    endloop
  endfacet
  facet normal 0 -1 0
    outer loop
      vertex 14.8 0 0
      vertex 2 0 5
      vertex 2 0 0
    endloop
  endfacet
  facet normal 0 -1 0
    outer loop
      vertex 14.8 0 5
      vertex -5 0 8
      vertex 14.8 0 0
    endloop
  endfacet
  facet normal 0 -1 0
    outer loop
      vertex 18.8 0 5
      vertex -5 0 8
      vertex 14.8 0 5
    endloop
  endfacet
  facet normal 0 -1 0
    outer loop
      vertex 31.6 0 5
      vertex -5 0 8
      vertex 18.8 0 5
    endloop
  endfacet
  facet normal 0 -1 0
    outer loop
      vertex 31.6 0 0
      vertex 18.8 0 5
      vertex 18.8 0 0
    endloop
  endfacet
  facet normal 0 -1 0
    outer loop
      vertex 31.6 0 5
      vertex 18.8 0 5
      vertex 31.6 0 0
    endloop
  endfacet
  facet normal 0 -1 0
    outer loop
      vertex 35.6 0 5
      vertex -5 0 8
      vertex 31.6 0 5
    endloop
  endfacet
  facet normal 0 -1 0
    outer loop
      vertex 48.4 0 5
      vertex -5 0 8
      vertex 35.6 0 5
    endloop
  endfacet
  facet normal 0 -1 0
    outer loop
      vertex 48.4 0 0
      vertex 35.6 0 5
      vertex 35.6 0 0
    endloop
  endfacet
  facet normal 0 -1 0
    outer loop
      vertex 48.4 0 5
      vertex 35.6 0 5
      vertex 48.4 0 0
    endloop
  endfacet
  facet normal 0 -1 0
    outer loop
      vertex 52.4 0 5
      vertex -5 0 8
      vertex 48.4 0 5
    endloop
  endfacet
  facet normal 0 -1 0
    outer loop
      vertex 65.2 0 5
      vertex -5 0 8
      vertex 52.4 0 5
    endloop
  endfacet
  facet normal 0 -1 0
    outer loop
      vertex 65.2 0 0
      vertex 52.4 0 5
      vertex 52.4 0 0
    endloop
  endfacet
  facet normal 0 -1 0
    outer loop
      vertex 65.2 0 5
      vertex 52.4 0 5
      vertex 65.2 0 0
    endloop
  endfacet
  facet normal 0 -1 0
    outer loop
      vertex 69.2 0 5
      vertex -5 0 8
      vertex 65.2 0 5
    endloop
  endfacet
  facet normal 0 -1 0
    outer loop
      vertex 72.2 0 8
      vertex -5 0 8
      vertex 69.2 0 5
    endloop
  endfacet
  facet normal 0 -1 0
    outer loop
      vertex 72.2 0 0
      vertex 69.2 0 5
      vertex 69.2 0 0
    endloop
  endfacet
  facet normal 0 -1 0
    outer loop
      vertex 72.2 0 8
      vertex 69.2 0 5
      vertex 72.2 0 0
    endloop
  endfacet
  facet normal 0 0 -1
    outer loop
      vertex -5 0 0
      vertex -5 13 0
      vertex -2 0 0
    endloop
  endfacet
  facet normal 0 0 -1
    outer loop
      vertex -2 11.9 0
      vertex -5 13 0
      vertex -2 13 0
    endloop
  endfacet
  facet normal 0 0 -1
    outer loop
      vertex -2 0 0
      vertex -5 13 0
      vertex -2 1.1 0
    endloop
  endfacet
  facet normal 0 0 -1
    outer loop
      vertex 2 11.9 0
      vertex 2 13 0
      vertex 14.8 13 0
    endloop
  endfacet
  facet normal 0 0 -1
    outer loop
      vertex 18.8 11.9 0
      vertex 18.8 13 0
      vertex 31.6 13 0
    endloop
  endfacet
  facet normal 0 0 -1
    outer loop
      vertex 35.6 11.9 0
      vertex 35.6 13 0
      vertex 48.4 13 0
    endloop
  endfacet
  facet normal 0 0 -1
    outer loop
      vertex -2 1.1 0
      vertex 2 11.9 0
      vertex 14.8 13 0
    endloop
  endfacet
  facet normal 0 0 -1
    outer loop
      vertex -2 1.1 0
      vertex 14.8 13 0
      vertex 14.8 11.9 0
    endloop
  endfacet
  facet normal 0 0 -1
    outer loop
      vertex -2 1.1 0
      vertex 14.8 11.9 0
      vertex 18.8 11.9 0
    endloop
  endfacet
  facet normal 0 0 -1
    outer loop
      vertex 52.4 11.9 0
      vertex 52.4 13 0
      vertex 65.2 13 0
    endloop
  endfacet
  facet normal 0 0 -1
    outer loop
      vertex -2 1.1 0
      vertex 18.8 11.9 0
      vertex 31.6 13 0
    endloop
  endfacet
  facet normal 0 0 -1
    outer loop
      vertex -2 1.1 0
      vertex 31.6 13 0
      vertex 31.6 11.9 0
    endloop
  endfacet
  facet normal 0 0 -1
    outer loop
      vertex -2 1.1 0
      vertex 31.6 11.9 0
      vertex 35.6 11.9 0
    endloop
  endfacet
  facet normal 0 0 -1
    outer loop
      vertex 69.2 11.9 0
      vertex 69.2 13 0
      vertex 72.2 13 0
    endloop
  endfacet
  facet normal 0 0 -1
    outer loop
      vertex 69.2 11.9 0
      vertex 72.2 13 0
      vertex 72.2 0 0
    endloop
  endfacet
  facet normal 0 0 -1
    outer loop
      vertex 69.2 1.1 0
      vertex 72.2 0 0
      vertex 69.2 0 0
    endloop
  endfacet
  facet normal 0 0 -1
    outer loop
      vertex 69.2 11.9 0
      vertex 72.2 0 0
      vertex 69.2 1.1 0
    endloop
  endfacet
  facet normal 0 0 -1
    outer loop
      vertex 69.2 11.9 0
      vertex 69.2 1.1 0
      vertex 65.2 1.1 0
    endloop
  endfacet
  facet normal 0 0 -1
    outer loop
      vertex 52.4 1.1 0
      vertex 65.2 1.1 0
      vertex 52.4 0 0
    endloop
  endfacet
  facet normal 0 0 -1
    outer loop
      vertex 69.2 11.9 0
      vertex 65.2 1.1 0
      vertex 52.4 1.1 0
    endloop
  endfacet
  facet normal 0 0 -1
    outer loop
      vertex 2 1.1 0
      vertex 14.8 1.1 0
      vertex 2 0 0
    endloop
  endfacet
  facet normal 0 0 -1
    outer loop
      vertex 69.2 11.9 0
      vertex 52.4 1.1 0
      vertex 48.4 1.1 0
    endloop
  endfacet
  facet normal 0 0 -1
    outer loop
      vertex 14.8 0 0
      vertex 2 0 0
      vertex 14.8 1.1 0
    endloop
  endfacet
  facet normal 0 0 -1
    outer loop
      vertex 18.8 1.1 0
      vertex 31.6 1.1 0
      vertex 18.8 0 0
    endloop
  endfacet
  facet normal 0 0 -1
    outer loop
      vertex 69.2 11.9 0
      vertex 48.4 1.1 0
      vertex 35.6 1.1 0
    endloop
  endfacet
  facet normal 0 0 -1
    outer loop
      vertex 2 1.1 0
      vertex 65.2 11.9 0
      vertex 69.2 11.9 0
    endloop
  endfacet
  facet normal 0 0 -1
    outer loop
      vertex 69.2 11.9 0
      vertex 35.6 1.1 0
      vertex 31.6 1.1 0
    endloop
  endfacet
  facet normal 0 0 -1
    outer loop
      vertex 2 1.1 0
      vertex 48.4 11.9 0
      vertex 52.4 11.9 0
    endloop
  endfacet
  facet normal 0 0 -1
    outer loop
      vertex 2 1.1 0
      vertex 48.4 13 0
      vertex 48.4 11.9 0
    endloop
  endfacet
  facet normal 0 0 -1
    outer loop
      vertex 69.2 11.9 0
      vertex 31.6 1.1 0
      vertex 18.8 1.1 0
    endloop
  endfacet
  facet normal 0 0 -1
    outer loop
      vertex 2 1.1 0
      vertex 52.4 11.9 0
      vertex 65.2 13 0
    endloop
  endfacet
  facet normal 0 0 -1
    outer loop
      vertex 69.2 11.9 0
      vertex 18.8 1.1 0
      vertex 14.8 1.1 0
    endloop
  endfacet
  facet normal 0 0 -1
    outer loop
      vertex -2 1.1 0
      vertex 35.6 11.9 0
      vertex 2 1.1 0
    endloop
  endfacet
  facet normal 0 0 -1
    outer loop
      vertex 35.6 1.1 0
      vertex 48.4 1.1 0
      vertex 35.6 0 0
    endloop
  endfacet
  facet normal 0 0 -1
    outer loop
      vertex 35.6 11.9 0
      vertex 48.4 13 0
      vertex 2 1.1 0
    endloop
  endfacet
  facet normal 0 0 -1
    outer loop
      vertex -2 11.9 0
      vertex 2 11.9 0
      vertex -2 1.1 0
    endloop
  endfacet
  facet normal 0 0 -1
    outer loop
      vertex -2 11.9 0
      vertex -2 1.1 0
      vertex -5 13 0
    endloop
  endfacet
  facet normal 0 0 -1
    outer loop
      vertex 2 1.1 0
      vertex 65.2 13 0
      vertex 65.2 11.9 0
    endloop
  endfacet
  facet normal 0 0 -1
    outer loop
      vertex 31.6 0 0
      vertex 18.8 0 0
      vertex 31.6 1.1 0
    endloop
  endfacet
  facet normal 0 0 -1
    outer loop
      vertex 2 1.1 0
      vertex 69.2 11.9 0
      vertex 14.8 1.1 0
    endloop
  endfacet
  facet normal 0 0 -1
    outer loop
      vertex 48.4 0 0
      vertex 35.6 0 0
      vertex 48.4 1.1 0
    endloop
  endfacet
  facet normal 0 0 -1
    outer loop
      vertex 65.2 0 0
      vertex 52.4 0 0
      vertex 65.2 1.1 0
    endloop
  endfacet
  facet normal 0 1 0
    outer loop
      vertex -5 13 0
      vertex -5 13 8
      vertex -2 13 0
    endloop
  endfacet
  facet normal 0 1 0
    outer loop
      vertex 35.6 13 5
      vertex -5 13 8
      vertex 72.2 13 8
    endloop
  endfacet
  facet normal 0 1 0
    outer loop
      vertex 69.2 13 0
      vertex 72.2 13 8
      vertex 72.2 13 0
    endloop
  endfacet
  facet normal 0 1 0
    outer loop
      vertex 69.2 13 5
      vertex 72.2 13 8
      vertex 69.2 13 0
    endloop
  endfacet
  facet normal 0 1 0
    outer loop
      vertex 65.2 13 5
      vertex 72.2 13 8
      vertex 69.2 13 5
    endloop
  endfacet
  facet normal 0 1 0
    outer loop
      vertex 52.4 13 5
      vertex 72.2 13 8
      vertex 65.2 13 5
    endloop
  endfacet
  facet normal 0 1 0
    outer loop
      vertex 52.4 13 5
      vertex 65.2 13 5
      vertex 52.4 13 0
    endloop
  endfacet
  facet normal 0 1 0
    outer loop
      vertex 18.8 13 5
      vertex 31.6 13 5
      vertex 18.8 13 0
    endloop
  endfacet
  facet normal 0 1 0
    outer loop
      vertex 48.4 13 5
      vertex 72.2 13 8
      vertex 52.4 13 5
    endloop
  endfacet
  facet normal 0 1 0
    outer loop
      vertex 2 13 5
      vertex 14.8 13 5
      vertex 2 13 0
    endloop
  endfacet
  facet normal 0 1 0
    outer loop
      vertex 31.6 13 5
      vertex -5 13 8
      vertex 35.6 13 5
    endloop
  endfacet
  facet normal 0 1 0
    outer loop
      vertex 14.8 13 0
      vertex 2 13 0
      vertex 14.8 13 5
    endloop
  endfacet
  facet normal 0 1 0
    outer loop
      vertex 18.8 13 5
      vertex -5 13 8
      vertex 31.6 13 5
    endloop
  endfacet
  facet normal 0 1 0
    outer loop
      vertex 35.6 13 5
      vertex 48.4 13 5
      vertex 35.6 13 0
    endloop
  endfacet
  facet normal 0 1 0
    outer loop
      vertex 14.8 13 5
      vertex -5 13 8
      vertex 18.8 13 5
    endloop
  endfacet
  facet normal 0 1 0
    outer loop
      vertex 2 13 5
      vertex -5 13 8
      vertex 14.8 13 5
    endloop
  endfacet
  facet normal 0 1 0
    outer loop
      vertex 35.6 13 5
      vertex 72.2 13 8
      vertex 48.4 13 5
    endloop
  endfacet
  facet normal 0 1 0
    outer loop
      vertex -2 13 5
      vertex -5 13 8
      vertex 2 13 5
    endloop
  endfacet
  facet normal 0 1 0
    outer loop
      vertex -2 13 0
      vertex -5 13 8
      vertex -2 13 5
    endloop
  endfacet
  facet normal 0 1 0
    outer loop
      vertex 31.6 13 0
      vertex 18.8 13 0
      vertex 31.6 13 5
    endloop
  endfacet
  facet normal 0 1 0
    outer loop
      vertex 48.4 13 0
      vertex 35.6 13 0
      vertex 48.4 13 5
    endloop
  endfacet
  facet normal 0 1 0
    outer loop
      vertex 65.2 13 0
      vertex 52.4 13 0
      vertex 65.2 13 5
    endloop
  endfacet
  facet normal 0 0 1
    outer loop
      vertex -5 13 8
      vertex -5 12 8
      vertex 72.2 12 8
    endloop
  endfacet
  facet normal 0 0 1
    outer loop
      vertex 72.2 13 8
      vertex -5 13 8
      vertex 72.2 12 8
    endloop
  endfacet
  facet normal 0 -1 0
    outer loop
      vertex 72.2 12 8
      vertex -2 12 5
      vertex 2 12 5
    endloop
  endfacet
  facet normal 0 -1 0
    outer loop
      vertex 14.8 12 5
      vertex 72.2 12 8
      vertex 2 12 5
    endloop
  endfacet
  facet normal 0 -1 0
    outer loop
      vertex -2 12 2
      vertex -2 12 5
      vertex -5 12 8
    endloop
  endfacet
  facet normal 0 -1 0
    outer loop
      vertex 2 12 2
      vertex 14.8 12 2
      vertex 2 12 5
    endloop
  endfacet
  facet normal 0 -1 0
    outer loop
      vertex 14.8 12 2
      vertex 14.8 12 5
      vertex 2 12 5
    endloop
  endfacet
  facet normal 0 -1 0
    outer loop
      vertex 18.8 12 5
      vertex 72.2 12 8
      vertex 14.8 12 5
    endloop
  endfacet
  facet normal 0 -1 0
    outer loop
      vertex 31.6 12 5
      vertex 72.2 12 8
      vertex 18.8 12 5
    endloop
  endfacet
  facet normal 0 -1 0
    outer loop
      vertex 18.8 12 2
      vertex 31.6 12 2
      vertex 18.8 12 5
    endloop
  endfacet
  facet normal 0 -1 0
    outer loop
      vertex 31.6 12 2
      vertex 31.6 12 5
      vertex 18.8 12 5
    endloop
  endfacet
  facet normal 0 -1 0
    outer loop
      vertex 35.6 12 5
      vertex 72.2 12 8
      vertex 31.6 12 5
    endloop
  endfacet
  facet normal 0 -1 0
    outer loop
      vertex 48.4 12 5
      vertex 72.2 12 8
      vertex 35.6 12 5
    endloop
  endfacet
  facet normal 0 -1 0
    outer loop
      vertex 35.6 12 2
      vertex 48.4 12 2
      vertex 35.6 12 5
    endloop
  endfacet
  facet normal 0 -1 0
    outer loop
      vertex 48.4 12 2
      vertex 48.4 12 5
      vertex 35.6 12 5
    endloop
  endfacet
  facet normal 0 -1 0
    outer loop
      vertex 52.4 12 5
      vertex 72.2 12 8
      vertex 48.4 12 5
    endloop
  endfacet
  facet normal 0 -1 0
    outer loop
      vertex 65.2 12 5
      vertex 72.2 12 8
      vertex 52.4 12 5
    endloop
  endfacet
  facet normal 0 -1 0
    outer loop
      vertex 52.4 12 2
      vertex 65.2 12 2
      vertex 52.4 12 5
    endloop
  endfacet
  facet normal 0 -1 0
    outer loop
      vertex 65.2 12 2
      vertex 65.2 12 5
      vertex 52.4 12 5
    endloop
  endfacet
  facet normal 0 -1 0
    outer loop
      vertex 69.2 12 5
      vertex 72.2 12 8
      vertex 65.2 12 5
    endloop
  endfacet
  facet normal 0 -1 0
    outer loop
      vertex 69.2 12 2
      vertex 72.2 12 2
      vertex 69.2 12 5
    endloop
  endfacet
  facet normal 0 -1 0
    outer loop
      vertex 72.2 12 2
      vertex 72.2 12 8
      vertex 69.2 12 5
    endloop
  endfacet
  facet normal 0 -1 0
    outer loop
      vertex 72.2 12 8
      vertex -5 12 8
      vertex -2 12 5
    endloop
  endfacet
  facet normal 0 -1 0
    outer loop
      vertex -5 12 8
      vertex -5 12 2
      vertex -2 12 2
    endloop
  endfacet
  facet normal 0 0 1
    outer loop
      vertex 72.2 12 2
      vertex -2 1.1 2
      vertex 2 1.1 2
    endloop
  endfacet
  facet normal 0 0 1
    outer loop
      vertex 14.8 1.1 2
      vertex 72.2 12 2
      vertex 2 1.1 2
    endloop
  endfacet
  facet normal 0 0 1
    outer loop
      vertex -2 1 2
      vertex -2 1.1 2
      vertex -5 12 2
    endloop
  endfacet
  facet normal 0 0 1
    outer loop
      vertex 2 1 2
      vertex 14.8 1 2
      vertex 2 1.1 2
    endloop
  endfacet
  facet normal 0 0 1
    outer loop
      vertex 14.8 1 2
      vertex 14.8 1.1 2
      vertex 2 1.1 2
    endloop
  endfacet
  facet normal 0 0 1
    outer loop
      vertex 18.8 1.1 2
      vertex 72.2 12 2
      vertex 14.8 1.1 2
    endloop
  endfacet
  facet normal 0 0 1
    outer loop
      vertex 31.6 1.1 2
      vertex 72.2 12 2
      vertex 18.8 1.1 2
    endloop
  endfacet
  facet normal 0 0 1
    outer loop
      vertex 18.8 1 2
      vertex 31.6 1 2
      vertex 18.8 1.1 2
    endloop
  endfacet
  facet normal 0 0 1
    outer loop
      vertex 31.6 1 2
      vertex 31.6 1.1 2
      vertex 18.8 1.1 2
    endloop
  endfacet
  facet normal 0 0 1
    outer loop
      vertex 35.6 1.1 2
      vertex 72.2 12 2
      vertex 31.6 1.1 2
    endloop
  endfacet
  facet normal 0 0 1
    outer loop
      vertex 48.4 1.1 2
      vertex 72.2 12 2
      vertex 35.6 1.1 2
    endloop
  endfacet
  facet normal 0 0 1
    outer loop
      vertex 35.6 1 2
      vertex 48.4 1 2
      vertex 35.6 1.1 2
    endloop
  endfacet
  facet normal 0 0 1
    outer loop
      vertex 48.4 1 2
      vertex 48.4 1.1 2
      vertex 35.6 1.1 2
    endloop
  endfacet
  facet normal 0 0 1
    outer loop
      vertex 52.4 1.1 2
      vertex 72.2 12 2
      vertex 48.4 1.1 2
    endloop
  endfacet
  facet normal 0 0 1
    outer loop
      vertex 65.2 1.1 2
      vertex 72.2 12 2
      vertex 52.4 1.1 2
    endloop
  endfacet
  facet normal 0 0 1
    outer loop
      vertex 52.4 1 2
      vertex 65.2 1 2
      vertex 52.4 1.1 2
    endloop
  endfacet
  facet normal 0 0 1
    outer loop
      vertex 65.2 1 2
      vertex 65.2 1.1 2
      vertex 52.4 1.1 2
    endloop
  endfacet
  facet normal 0 0 1
    outer loop
      vertex 69.2 1.1 2
      vertex 72.2 12 2
      vertex 65.2 1.1 2
    endloop
  endfacet
  facet normal 0 0 1
    outer loop
      vertex 65.2 11.9 2
      vertex 65.2 12 2
      vertex -2 1.1 2
    endloop
  endfacet
  facet normal 0 0 1
    outer loop
      vertex 69.2 1 2
      vertex 72.2 1 2
      vertex 69.2 1.1 2
    endloop
  endfacet
  facet normal 0 0 1
    outer loop
      vertex 72.2 1 2
      vertex 72.2 12 2
      vertex 69.2 1.1 2
    endloop
  endfacet
  facet normal 0 0 1
    outer loop
      vertex 52.4 11.9 2
      vertex 48.4 11.9 2
      vertex -2 1.1 2
    endloop
  endfacet
  facet normal 0 0 1
    outer loop
      vertex 72.2 12 2
      vertex 69.2 11.9 2
      vertex -2 1.1 2
    endloop
  endfacet
  facet normal 0 0 1
    outer loop
      vertex 72.2 12 2
      vertex 69.2 12 2
      vertex 69.2 11.9 2
    endloop
  endfacet
  facet normal 0 0 1
    outer loop
      vertex 48.4 11.9 2
      vertex 48.4 12 2
      vertex -2 1.1 2
    endloop
  endfacet
  facet normal 0 0 1
    outer loop
      vertex 35.6 11.9 2
      vertex 31.6 11.9 2
      vertex -2 1.1 2
    endloop
  endfacet
  facet normal 0 0 1
    outer loop
      vertex 65.2 12 2
      vertex 52.4 11.9 2
      vertex -2 1.1 2
    endloop
  endfacet
  facet normal 0 0 1
    outer loop
      vertex 65.2 12 2
      vertex 52.4 12 2
      vertex 52.4 11.9 2
    endloop
  endfacet
  facet normal 0 0 1
    outer loop
      vertex 31.6 11.9 2
      vertex 31.6 12 2
      vertex -2 1.1 2
    endloop
  endfacet
  facet normal 0 0 1
    outer loop
      vertex 18.8 11.9 2
      vertex 14.8 11.9 2
      vertex -2 1.1 2
    endloop
  endfacet
  facet normal 0 0 1
    outer loop
      vertex 48.4 12 2
      vertex 35.6 11.9 2
      vertex -2 1.1 2
    endloop
  endfacet
  facet normal 0 0 1
    outer loop
      vertex 48.4 12 2
      vertex 35.6 12 2
      vertex 35.6 11.9 2
    endloop
  endfacet
  facet normal 0 0 1
    outer loop
      vertex 14.8 11.9 2
      vertex 14.8 12 2
      vertex -2 1.1 2
    endloop
  endfacet
  facet normal 0 0 1
    outer loop
      vertex 2 11.9 2
      vertex -2 11.9 2
      vertex -2 1.1 2
    endloop
  endfacet
  facet normal 0 0 1
    outer loop
      vertex 31.6 12 2
      vertex 18.8 11.9 2
      vertex -2 1.1 2
    endloop
  endfacet
  facet normal 0 0 1
    outer loop
      vertex 31.6 12 2
      vertex 18.8 12 2
      vertex 18.8 11.9 2
    endloop
  endfacet
  facet normal 0 0 1
    outer loop
      vertex -2 11.9 2
      vertex -5 12 2
      vertex -2 1.1 2
    endloop
  endfacet
  facet normal 0 0 1
    outer loop
      vertex 14.8 12 2
      vertex 2 11.9 2
      vertex -2 1.1 2
    endloop
  endfacet
  facet normal 0 0 1
    outer loop
      vertex 14.8 12 2
      vertex 2 12 2
      vertex 2 11.9 2
    endloop
  endfacet
  facet normal 0 0 1
    outer loop
      vertex -2 12 2
      vertex -5 12 2
      vertex -2 11.9 2
    endloop
  endfacet
  facet normal 0 0 1
    outer loop
      vertex -5 12 2
      vertex -5 1 2
      vertex -2 1 2
    endloop
  endfacet
  facet normal 0 0 1
    outer loop
      vertex 69.2 11.9 2
      vertex 65.2 11.9 2
      vertex -2 1.1 2
    endloop
  endfacet
  facet normal 0 1 0
    outer loop
      vertex 65.2 1 2
      vertex 52.4 1 5
      vertex 65.2 1 5
    endloop
  endfacet
  facet normal 0 1 0
    outer loop
      vertex 72.2 1 8
      vertex 72.2 1 2
      vertex 69.2 1 5
    endloop
  endfacet
  facet normal 0 1 0
    outer loop
      vertex 72.2 1 8
      vertex 69.2 1 5
      vertex -5 1 8
    endloop
  endfacet
  facet normal 0 1 0
    outer loop
      vertex 31.6 1 5
      vertex -5 1 8
      vertex 35.6 1 5
    endloop
  endfacet
  facet normal 0 1 0
    outer loop
      vertex 69.2 1 5
      vertex 65.2 1 5
      vertex -5 1 8
    endloop
  endfacet
  facet normal 0 1 0
    outer loop
      vertex 52.4 1 5
      vertex 65.2 1 2
      vertex 52.4 1 2
    endloop
  endfacet
  facet normal 0 1 0
    outer loop
      vertex 48.4 1 2
      vertex 35.6 1 5
      vertex 48.4 1 5
    endloop
  endfacet
  facet normal 0 1 0
    outer loop
      vertex 65.2 1 5
      vertex 52.4 1 5
      vertex -5 1 8
    endloop
  endfacet
  facet normal 0 1 0
    outer loop
      vertex 14.8 1 5
      vertex -5 1 8
      vertex 18.8 1 5
    endloop
  endfacet
  facet normal 0 1 0
    outer loop
      vertex 52.4 1 5
      vertex 48.4 1 5
      vertex -5 1 8
    endloop
  endfacet
  facet normal 0 1 0
    outer loop
      vertex 35.6 1 5
      vertex 48.4 1 2
      vertex 35.6 1 2
    endloop
  endfacet
  facet normal 0 1 0
    outer loop
      vertex 14.8 1 2
      vertex -5 1 8
      vertex 14.8 1 5
    endloop
  endfacet
  facet normal 0 1 0
    outer loop
      vertex 48.4 1 5
      vertex 35.6 1 5
      vertex -5 1 8
    endloop
  endfacet
  facet normal 0 1 0
    outer loop
      vertex 18.8 1 5
      vertex -5 1 8
      vertex 31.6 1 5
    endloop
  endfacet
  facet normal 0 1 0
    outer loop
      vertex 18.8 1 5
      vertex 31.6 1 2
      vertex 18.8 1 2
    endloop
  endfacet
  facet normal 0 1 0
    outer loop
      vertex 31.6 1 2
      vertex 18.8 1 5
      vertex 31.6 1 5
    endloop
  endfacet
  facet normal 0 1 0
    outer loop
      vertex -2 1 5
      vertex -5 1 8
      vertex 2 1 5
    endloop
  endfacet
  facet normal 0 1 0
    outer loop
      vertex 2 1 5
      vertex 14.8 1 2
      vertex 2 1 2
    endloop
  endfacet
  facet normal 0 1 0
    outer loop
      vertex -5 1 8
      vertex 14.8 1 2
      vertex 2 1 5
    endloop
  endfacet
  facet normal 0 1 0
    outer loop
      vertex -5 1 8
      vertex -2 1 5
      vertex -2 1 2
    endloop
  endfacet
  facet normal 0 1 0
    outer loop
      vertex -5 1 8
      vertex -2 1 2
      vertex -5 1 2
    endloop
  endfacet
  facet normal 0 1 0
    outer loop
      vertex 69.2 1 5
      vertex 72.2 1 2
      vertex 69.2 1 2
    endloop
  endfacet
  facet normal 0 0 1
    outer loop
      vertex -5 1 8
      vertex -5 0 8
      vertex 72.2 0 8
    endloop
  endfacet
  facet normal 0 0 1
    outer loop
      vertex 72.2 1 8
      vertex -5 1 8
      vertex 72.2 0 8
    endloop
  endfacet
  facet normal 1 0 0
    outer loop
      vertex 72.2 1 2
      vertex 72.2 0 0
      vertex 72.2 13 0
    endloop
  endfacet
  facet normal 1 0 0
    outer loop
      vertex 72.2 1 2
      vertex 72.2 1 8
      vertex 72.2 0 8
    endloop
  endfacet
  facet normal 1 0 0
    outer loop
      vertex 72.2 13 8
      vertex 72.2 12 8
      vertex 72.2 13 0
    endloop
  endfacet
  facet normal 1 0 0
    outer loop
      vertex 72.2 12 8
      vertex 72.2 12 2
      vertex 72.2 13 0
    endloop
  endfacet
  facet normal 1 0 0
    outer loop
      vertex 72.2 0 8
      vertex 72.2 0 0
      vertex 72.2 1 2
    endloop
  endfacet
  facet normal 1 0 0
    outer loop
      vertex 72.2 12 2
      vertex 72.2 1 2
      vertex 72.2 13 0
    endloop
  endfacet
  facet normal -1 0 0
    outer loop
      vertex 69.2 1 5
      vertex 69.2 1 2
      vertex 69.2 0 5
    endloop
  endfacet
  facet normal -1 0 0
    outer loop
      vertex 69.2 1.1 0
      vertex 69.2 1 2
      vertex 69.2 1.1 2
    endloop
  endfacet
  facet normal -1 0 0
    outer loop
      vertex 69.2 0 5
      vertex 69.2 1 2
      vertex 69.2 1.1 0
    endloop
  endfacet
  facet normal -1 0 0
    outer loop
      vertex 69.2 0 5
      vertex 69.2 1.1 0
      vertex 69.2 0 0
    endloop
  endfacet
  facet normal 0 0 -1
    outer loop
      vertex 69.2 1 5
      vertex 69.2 0 5
      vertex 65.2 1 5
    endloop
  endfacet
  facet normal 0 0 -1
    outer loop
      vertex 65.2 1 5
      vertex 69.2 0 5
      vertex 65.2 0 5
    endloop
  endfacet
  facet normal 1 0 0
    outer loop
      vertex 65.2 1.1 0
      vertex 65.2 1.1 2
      vertex 65.2 1 2
    endloop
  endfacet
  facet normal 1 0 0
    outer loop
      vertex 65.2 0 5
      vertex 65.2 1.1 0
      vertex 65.2 1 2
    endloop
  endfacet
  facet normal 1 0 0
    outer loop
      vertex 65.2 1 5
      vertex 65.2 0 5
      vertex 65.2 1 2
    endloop
  endfacet
  facet normal 1 0 0
    outer loop
      vertex 65.2 0 5
      vertex 65.2 0 0
      vertex 65.2 1.1 0
    endloop
  endfacet
  facet normal -1 0 0
    outer loop
      vertex 52.4 1 5
      vertex 52.4 1 2
      vertex 52.4 0 5
    endloop
  endfacet
  facet normal -1 0 0
    outer loop
      vertex 52.4 1.1 0
      vertex 52.4 1 2
      vertex 52.4 1.1 2
    endloop
  endfacet
  facet normal -1 0 0
    outer loop
      vertex 52.4 0 5
      vertex 52.4 1 2
      vertex 52.4 1.1 0
    endloop
  endfacet
  facet normal -1 0 0
    outer loop
      vertex 52.4 0 5
      vertex 52.4 1.1 0
      vertex 52.4 0 0
    endloop
  endfacet
  facet normal 0 0 -1
    outer loop
      vertex 52.4 1 5
      vertex 52.4 0 5
      vertex 48.4 1 5
    endloop
  endfacet
  facet normal 0 0 -1
    outer loop
      vertex 48.4 1 5
      vertex 52.4 0 5
      vertex 48.4 0 5
    endloop
  endfacet
  facet normal 1 0 0
    outer loop
      vertex 48.4 1.1 0
      vertex 48.4 1.1 2
      vertex 48.4 1 2
    endloop
  endfacet
  facet normal 1 0 0
    outer loop
      vertex 48.4 0 5
      vertex 48.4 1.1 0
      vertex 48.4 1 2
    endloop
  endfacet
  facet normal 1 0 0
    outer loop
      vertex 48.4 1 5
      vertex 48.4 0 5
      vertex 48.4 1 2
    endloop
  endfacet
  facet normal 1 0 0
    outer loop
      vertex 48.4 0 5
      vertex 48.4 0 0
      vertex 48.4 1.1 0
    endloop
  endfacet
  facet normal -1 0 0
    outer loop
      vertex 35.6 1 5
      vertex 35.6 1 2
      vertex 35.6 0 5
    endloop
  endfacet
  facet normal -1 0 0
    outer loop
      vertex 35.6 1.1 0
      vertex 35.6 1 2
      vertex 35.6 1.1 2
    endloop
  endfacet
  facet normal -1 0 0
    outer loop
      vertex 35.6 0 5
      vertex 35.6 1 2
      vertex 35.6 1.1 0
    endloop
  endfacet
  facet normal -1 0 0
    outer loop
      vertex 35.6 0 5
      vertex 35.6 1.1 0
      vertex 35.6 0 0
    endloop
  endfacet
  facet normal 0 0 -1
    outer loop
      vertex 35.6 1 5
      vertex 35.6 0 5
      vertex 31.6 1 5
    endloop
  endfacet
  facet normal 0 0 -1
    outer loop
      vertex 31.6 1 5
      vertex 35.6 0 5
      vertex 31.6 0 5
    endloop
  endfacet
  facet normal 1 0 0
    outer loop
      vertex 31.6 1.1 0
      vertex 31.6 1.1 2
      vertex 31.6 1 2
    endloop
  endfacet
  facet normal 1 0 0
    outer loop
      vertex 31.6 0 5
      vertex 31.6 1.1 0
      vertex 31.6 1 2
    endloop
  endfacet
  facet normal 1 0 0
    outer loop
      vertex 31.6 1 5
      vertex 31.6 0 5
      vertex 31.6 1 2
    endloop
  endfacet
  facet normal 1 0 0
    outer loop
      vertex 31.6 0 5
      vertex 31.6 0 0
      vertex 31.6 1.1 0
    endloop
  endfacet
  facet normal -1 0 0
    outer loop
      vertex 18.8 1 5
      vertex 18.8 1 2
      vertex 18.8 0 5
    endloop
  endfacet
  facet normal -1 0 0
    outer loop
      vertex 18.8 1.1 0
      vertex 18.8 1 2
      vertex 18.8 1.1 2
    endloop
  endfacet
  facet normal -1 0 0
    outer loop
      vertex 18.8 0 5
      vertex 18.8 1 2
      vertex 18.8 1.1 0
    endloop
  endfacet
  facet normal -1 0 0
    outer loop
      vertex 18.8 0 5
      vertex 18.8 1.1 0
      vertex 18.8 0 0
    endloop
  endfacet
  facet normal 0 0 -1
    outer loop
      vertex 18.8 1 5
      vertex 18.8 0 5
      vertex 14.8 1 5
    endloop
  endfacet
  facet normal 0 0 -1
    outer loop
      vertex 14.8 1 5
      vertex 18.8 0 5
      vertex 14.8 0 5
    endloop
  endfacet
  facet normal 1 0 0
    outer loop
      vertex 14.8 1.1 0
      vertex 14.8 1.1 2
      vertex 14.8 1 2
    endloop
  endfacet
  facet normal 1 0 0
    outer loop
      vertex 14.8 0 5
      vertex 14.8 1.1 0
      vertex 14.8 1 2
    endloop
  endfacet
  facet normal 1 0 0
    outer loop
      vertex 14.8 1 5
      vertex 14.8 0 5
      vertex 14.8 1 2
    endloop
  endfacet
  facet normal 1 0 0
    outer loop
      vertex 14.8 0 5
      vertex 14.8 0 0
      vertex 14.8 1.1 0
    endloop
  endfacet
  facet normal -1 0 0
    outer loop
      vertex 2 1 5
      vertex 2 1 2
      vertex 2 0 5
    endloop
  endfacet
  facet normal -1 0 0
    outer loop
      vertex 2 1.1 0
      vertex 2 1 2
      vertex 2 1.1 2
    endloop
  endfacet
  facet normal -1 0 0
    outer loop
      vertex 2 0 5
      vertex 2 1 2
      vertex 2 1.1 0
    endloop
  endfacet
  facet normal -1 0 0
    outer loop
      vertex 2 0 5
      vertex 2 1.1 0
      vertex 2 0 0
    endloop
  endfacet
  facet normal 0 0 -1
    outer loop
      vertex 2 1 5
      vertex 2 0 5
      vertex -2 1 5
    endloop
  endfacet
  facet normal 0 0 -1
    outer loop
      vertex -2 1 5
      vertex 2 0 5
      vertex -2 0 5
    endloop
  endfacet
  facet normal 1 0 0
    outer loop
      vertex -2 1.1 0
      vertex -2 1.1 2
      vertex -2 1 2
    endloop
  endfacet
  facet normal 1 0 0
    outer loop
      vertex -2 0 5
      vertex -2 1.1 0
      vertex -2 1 2
    endloop
  endfacet
  facet normal 1 0 0
    outer loop
      vertex -2 1 5
      vertex -2 0 5
      vertex -2 1 2
    endloop
  endfacet
  facet normal 1 0 0
    outer loop
      vertex -2 0 5
      vertex -2 0 0
      vertex -2 1.1 0
    endloop
  endfacet
  facet normal 0 -1 0
    outer loop
      vertex 2 1.1 0
      vertex 2 1.1 2
      vertex -2 1.1 2
    endloop
  endfacet
  facet normal 0 -1 0
    outer loop
      vertex -2 1.1 0
      vertex 2 1.1 0
      vertex -2 1.1 2
    endloop
  endfacet
  facet normal 0 -1 0
    outer loop
      vertex 18.8 1.1 0
      vertex 18.8 1.1 2
      vertex 14.8 1.1 2
    endloop
  endfacet
  facet normal 0 -1 0
    outer loop
      vertex 14.8 1.1 0
      vertex 18.8 1.1 0
      vertex 14.8 1.1 2
    endloop
  endfacet
  facet normal 0 -1 0
    outer loop
      vertex 35.6 1.1 0
      vertex 35.6 1.1 2
      vertex 31.6 1.1 2
    endloop
  endfacet
  facet normal 0 -1 0
    outer loop
      vertex 31.6 1.1 0
      vertex 35.6 1.1 0
      vertex 31.6 1.1 2
    endloop
  endfacet
  facet normal 0 -1 0
    outer loop
      vertex 52.4 1.1 0
      vertex 52.4 1.1 2
      vertex 48.4 1.1 2
    endloop
  endfacet
  facet normal 0 -1 0
    outer loop
      vertex 48.4 1.1 0
      vertex 52.4 1.1 0
      vertex 48.4 1.1 2
    endloop
  endfacet
  facet normal 0 -1 0
    outer loop
      vertex 69.2 1.1 0
      vertex 69.2 1.1 2
      vertex 65.2 1.1 2
    endloop
  endfacet
  facet normal 0 -1 0
    outer loop
      vertex 65.2 1.1 0
      vertex 69.2 1.1 0
      vertex 65.2 1.1 2
    endloop
  endfacet
  facet normal -1 0 0
    outer loop
      vertex 69.2 12 2
      vertex 69.2 12 5
      vertex 69.2 13 5
    endloop
  endfacet
  facet normal -1 0 0
    outer loop
      vertex 69.2 12 2
      vertex 69.2 13 5
      vertex 69.2 13 0
    endloop
  endfacet
  facet normal -1 0 0
    outer loop
      vertex 69.2 12 2
      vertex 69.2 13 0
      vertex 69.2 11.9 2
    endloop
  endfacet
  facet normal -1 0 0
    outer loop
      vertex 69.2 13 0
      vertex 69.2 11.9 0
      vertex 69.2 11.9 2
    endloop
  endfacet
  facet normal 0 1 0
    outer loop
      vertex 69.2 11.9 2
      vertex 69.2 11.9 0
      vertex 65.2 11.9 2
    endloop
  endfacet
  facet normal 0 1 0
    outer loop
      vertex 65.2 11.9 2
      vertex 69.2 11.9 0
      vertex 65.2 11.9 0
    endloop
  endfacet
  facet normal 1 0 0
    outer loop
      vertex 65.2 13 0
      vertex 65.2 13 5
      vertex 65.2 12 5
    endloop
  endfacet
  facet normal 1 0 0
    outer loop
      vertex 65.2 11.9 2
      vertex 65.2 13 0
      vertex 65.2 12 2
    endloop
  endfacet
  facet normal 1 0 0
    outer loop
      vertex 65.2 12 2
      vertex 65.2 13 0
      vertex 65.2 12 5
    endloop
  endfacet
  facet normal 1 0 0
    outer loop
      vertex 65.2 11.9 0
      vertex 65.2 13 0
      vertex 65.2 11.9 2
    endloop
  endfacet
  facet normal -1 0 0
    outer loop
      vertex 52.4 12 2
      vertex 52.4 12 5
      vertex 52.4 13 5
    endloop
  endfacet
  facet normal -1 0 0
    outer loop
      vertex 52.4 12 2
      vertex 52.4 13 5
      vertex 52.4 13 0
    endloop
  endfacet
  facet normal -1 0 0
    outer loop
      vertex 52.4 12 2
      vertex 52.4 13 0
      vertex 52.4 11.9 2
    endloop
  endfacet
  facet normal -1 0 0
    outer loop
      vertex 52.4 13 0
      vertex 52.4 11.9 0
      vertex 52.4 11.9 2
    endloop
  endfacet
  facet normal 0 1 0
    outer loop
      vertex 52.4 11.9 2
      vertex 52.4 11.9 0
      vertex 48.4 11.9 2
    endloop
  endfacet
  facet normal 0 1 0
    outer loop
      vertex 48.4 11.9 2
      vertex 52.4 11.9 0
      vertex 48.4 11.9 0
    endloop
  endfacet
  facet normal 1 0 0
    outer loop
      vertex 48.4 13 0
      vertex 48.4 13 5
      vertex 48.4 12 5
    endloop
  endfacet
  facet normal 1 0 0
    outer loop
      vertex 48.4 11.9 2
      vertex 48.4 13 0
      vertex 48.4 12 2
    endloop
  endfacet
  facet normal 1 0 0
    outer loop
      vertex 48.4 12 2
      vertex 48.4 13 0
      vertex 48.4 12 5
    endloop
  endfacet
  facet normal 1 0 0
    outer loop
      vertex 48.4 11.9 0
      vertex 48.4 13 0
      vertex 48.4 11.9 2
    endloop
  endfacet
  facet normal -1 0 0
    outer loop
      vertex 35.6 12 2
      vertex 35.6 12 5
      vertex 35.6 13 5
    endloop
  endfacet
  facet normal -1 0 0
    outer loop
      vertex 35.6 12 2
      vertex 35.6 13 5
      vertex 35.6 13 0
    endloop
  endfacet
  facet normal -1 0 0
    outer loop
      vertex 35.6 12 2
      vertex 35.6 13 0
      vertex 35.6 11.9 2
    endloop
  endfacet
  facet normal -1 0 0
    outer loop
      vertex 35.6 13 0
      vertex 35.6 11.9 0
      vertex 35.6 11.9 2
    endloop
  endfacet
  facet normal 0 1 0
    outer loop
      vertex 35.6 11.9 2
      vertex 35.6 11.9 0
      vertex 31.6 11.9 2
    endloop
  endfacet
  facet normal 0 1 0
    outer loop
      vertex 31.6 11.9 2
      vertex 35.6 11.9 0
      vertex 31.6 11.9 0
    endloop
  endfacet
  facet normal 1 0 0
    outer loop
      vertex 31.6 13 0
      vertex 31.6 13 5
      vertex 31.6 12 5
    endloop
  endfacet
  facet normal 1 0 0
    outer loop
      vertex 31.6 11.9 2
      vertex 31.6 13 0
      vertex 31.6 12 2
    endloop
  endfacet
  facet normal 1 0 0
    outer loop
      vertex 31.6 12 2
      vertex 31.6 13 0
      vertex 31.6 12 5
    endloop
  endfacet
  facet normal 1 0 0
    outer loop
      vertex 31.6 11.9 0
      vertex 31.6 13 0
      vertex 31.6 11.9 2
    endloop
  endfacet
  facet normal -1 0 0
    outer loop
      vertex 18.8 12 2
      vertex 18.8 12 5
      vertex 18.8 13 5
    endloop
  endfacet
  facet normal -1 0 0
    outer loop
      vertex 18.8 12 2
      vertex 18.8 13 5
      vertex 18.8 13 0
    endloop
  endfacet
  facet normal -1 0 0
    outer loop
      vertex 18.8 12 2
      vertex 18.8 13 0
      vertex 18.8 11.9 2
    endloop
  endfacet
  facet normal -1 0 0
    outer loop
      vertex 18.8 13 0
      vertex 18.8 11.9 0
      vertex 18.8 11.9 2
    endloop
  endfacet
  facet normal 0 1 0
    outer loop
      vertex 18.8 11.9 2
      vertex 18.8 11.9 0
      vertex 14.8 11.9 2
    endloop
  endfacet
  facet normal 0 1 0
    outer loop
      vertex 14.8 11.9 2
      vertex 18.8 11.9 0
      vertex 14.8 11.9 0
    endloop
  endfacet
  facet normal 1 0 0
    outer loop
      vertex 14.8 13 0
      vertex 14.8 13 5
      vertex 14.8 12 5
    endloop
  endfacet
  facet normal 1 0 0
    outer loop
      vertex 14.8 11.9 2
      vertex 14.8 13 0
      vertex 14.8 12 2
    endloop
  endfacet
  facet normal 1 0 0
    outer loop
      vertex 14.8 12 2
      vertex 14.8 13 0
      vertex 14.8 12 5
    endloop
  endfacet
  facet normal 1 0 0
    outer loop
      vertex 14.8 11.9 0
      vertex 14.8 13 0
      vertex 14.8 11.9 2
    endloop
  endfacet
  facet normal -1 0 0
    outer loop
      vertex 2 12 2
      vertex 2 12 5
      vertex 2 13 5
    endloop
  endfacet
  facet normal -1 0 0
    outer loop
      vertex 2 12 2
      vertex 2 13 5
      vertex 2 13 0
    endloop
  endfacet
  facet normal -1 0 0
    outer loop
      vertex 2 12 2
      vertex 2 13 0
      vertex 2 11.9 2
    endloop
  endfacet
  facet normal -1 0 0
    outer loop
      vertex 2 13 0
      vertex 2 11.9 0
      vertex 2 11.9 2
    endloop
  endfacet
  facet normal 0 1 0
    outer loop
      vertex 2 11.9 2
      vertex 2 11.9 0
      vertex -2 11.9 2
    endloop
  endfacet
  facet normal 0 1 0
    outer loop
      vertex -2 11.9 2
      vertex 2 11.9 0
      vertex -2 11.9 0
    endloop
  endfacet
  facet normal 1 0 0
    outer loop
      vertex -2 13 0
      vertex -2 13 5
      vertex -2 12 5
    endloop
  endfacet
  facet normal 1 0 0
    outer loop
      vertex -2 11.9 2
      vertex -2 13 0
      vertex -2 12 2
    endloop
  endfacet
  facet normal 1 0 0
    outer loop
      vertex -2 12 2
      vertex -2 13 0
      vertex -2 12 5
    endloop
  endfacet
  facet normal 1 0 0
    outer loop
      vertex -2 11.9 0
      vertex -2 13 0
      vertex -2 11.9 2
    endloop
  endfacet
  facet normal 0 0 -1
    outer loop
      vertex 2 13 5
      vertex 2 12 5
      vertex -2 13 5
    endloop
  endfacet
  facet normal 0 0 -1
    outer loop
      vertex -2 13 5
      vertex 2 12 5
      vertex -2 12 5
    endloop
  endfacet
  facet normal 0 0 -1
    outer loop
      vertex 18.8 13 5
      vertex 18.8 12 5
      vertex 14.8 13 5
    endloop
  endfacet
  facet normal 0 0 -1
    outer loop
      vertex 14.8 13 5
      vertex 18.8 12 5
      vertex 14.8 12 5
    endloop
  endfacet
  facet normal 0 0 -1
    outer loop
      vertex 35.6 13 5
      vertex 35.6 12 5
      vertex 31.6 13 5
    endloop
  endfacet
  facet normal 0 0 -1
    outer loop
      vertex 31.6 13 5
      vertex 35.6 12 5
      vertex 31.6 12 5
    endloop
  endfacet
  facet normal 0 0 -1
    outer loop
      vertex 52.4 13 5
      vertex 52.4 12 5
      vertex 48.4 13 5
    endloop
  endfacet
  facet normal 0 0 -1
    outer loop
      vertex 48.4 13 5
      vertex 52.4 12 5
      vertex 48.4 12 5
    endloop
  endfacet
  facet normal 0 0 -1
    outer loop
      vertex 69.2 13 5
      vertex 69.2 12 5
      vertex 65.2 13 5
    endloop
  endfacet
  facet normal 0 0 -1
    outer loop
      vertex 65.2 13 5
      vertex 69.2 12 5
      vertex 65.2 12 5
    endloop
  endfacet
endsolid OpenSCAD_Model
