solid OpenSCAD_Model
  facet normal -1 0 0
    outer loop
      vertex 0 0 0
      vertex 0 0 1.20089e-14
      vertex 0 130 0
    endloop
  endfacet
  facet normal -1 0 0
    outer loop
      vertex 0 130 0
      vertex 0 0 1.20089e-14
      vertex 0 130 1.20089e-14
    endloop
  endfacet
  facet normal 0 -1 0
    outer loop
      vertex 0 0 1.20089e-14
      vertex 0 0 0
      vertex 90 0 0
    endloop
  endfacet
  facet normal 0 -1 0
    outer loop
      vertex 62.3077 0 41.5385
      vertex 0 0 1.20089e-14
      vertex 90 0 0
    endloop
  endfacet
  facet normal 0 0 -1
    outer loop
      vertex 49.8417 69.1104 0
      vertex 0 130 0
      vertex 90 130 0
    endloop
  endfacet
  facet normal 0 0 -1
    outer loop
      vertex 0 0 0
      vertex 0 130 0
      vertex 10.4494 62.1644 0
    endloop
  endfacet
  facet normal 0 0 -1
    outer loop
      vertex 0 0 0
      vertex 10.4494 62.1644 0
      vertex 20 8 0
    endloop
  endfacet
  facet normal 0 0 -1
    outer loop
      vertex 0 0 0
      vertex 20 8 0
      vertex 90 0 0
    endloop
  endfacet
  facet normal 0 0 -1
    outer loop
      vertex 20 8 0
      vertex 59.3923 14.9459 0
      vertex 90 0 0
    endloop
  endfacet
  facet normal 0 0 -1
    outer loop
      vertex 63.3087 82.4314 0
      vertex 49.8417 69.1104 0
      vertex 90 130 0
    endloop
  endfacet
  facet normal 0 0 -1
    outer loop
      vertex 10.4494 62.1644 0
      vertex 0 130 0
      vertex 12.5 78 0
    endloop
  endfacet
  facet normal 0 0 -1
    outer loop
      vertex 10.4494 62.1644 0
      vertex 12.5 78 0
      vertex 12.7556 76.0589 0
    endloop
  endfacet
  facet normal 0 0 -1
    outer loop
      vertex 10.4494 62.1644 0
      vertex 12.7556 76.0589 0
      vertex 13.5048 74.25 0
    endloop
  endfacet
  facet normal 0 0 -1
    outer loop
      vertex 10.4494 62.1644 0
      vertex 13.5048 74.25 0
      vertex 14.6967 72.6967 0
    endloop
  endfacet
  facet normal 0 0 -1
    outer loop
      vertex 49.8417 69.1104 0
      vertex 90 0 0
      vertex 59.3923 14.9459 0
    endloop
  endfacet
  facet normal 0 0 -1
    outer loop
      vertex 61.9098 69.1221 0
      vertex 90 0 0
      vertex 60.8645 70.9326 0
    endloop
  endfacet
  facet normal 0 0 -1
    outer loop
      vertex 14.6967 83.3033 0
      vertex 0 130 0
      vertex 16.25 84.4952 0
    endloop
  endfacet
  facet normal 0 0 -1
    outer loop
      vertex 16.25 84.4952 0
      vertex 0 130 0
      vertex 18.0589 85.2444 0
    endloop
  endfacet
  facet normal 0 0 -1
    outer loop
      vertex 18.0589 85.2444 0
      vertex 0 130 0
      vertex 20 85.5 0
    endloop
  endfacet
  facet normal 0 0 -1
    outer loop
      vertex 20 85.5 0
      vertex 0 130 0
      vertex 21.9411 85.2444 0
    endloop
  endfacet
  facet normal 0 0 -1
    outer loop
      vertex 21.9411 85.2444 0
      vertex 0 130 0
      vertex 23.75 84.4952 0
    endloop
  endfacet
  facet normal 0 0 -1
    outer loop
      vertex 23.75 84.4952 0
      vertex 0 130 0
      vertex 25.3033 83.3033 0
    endloop
  endfacet
  facet normal 0 0 -1
    outer loop
      vertex 13.5048 81.75 0
      vertex 0 130 0
      vertex 14.6967 83.3033 0
    endloop
  endfacet
  facet normal 0 0 -1
    outer loop
      vertex 12.7556 79.9411 0
      vertex 0 130 0
      vertex 13.5048 81.75 0
    endloop
  endfacet
  facet normal 0 0 -1
    outer loop
      vertex 12.5 78 0
      vertex 0 130 0
      vertex 12.7556 79.9411 0
    endloop
  endfacet
  facet normal 0 0 -1
    outer loop
      vertex 60.2185 72.9209 0
      vertex 49.8417 69.1104 0
      vertex 60 75 0
    endloop
  endfacet
  facet normal 0 0 -1
    outer loop
      vertex 60.8645 70.9326 0
      vertex 49.8417 69.1104 0
      vertex 60.2185 72.9209 0
    endloop
  endfacet
  facet normal 0 0 -1
    outer loop
      vertex 90 0 0
      vertex 49.8417 69.1104 0
      vertex 60.8645 70.9326 0
    endloop
  endfacet
  facet normal 0 0 -1
    outer loop
      vertex 63.3087 67.5686 0
      vertex 90 0 0
      vertex 61.9098 69.1221 0
    endloop
  endfacet
  facet normal 0 0 -1
    outer loop
      vertex 79.7815 77.0791 0
      vertex 90 130 0
      vertex 80 75 0
    endloop
  endfacet
  facet normal 0 0 -1
    outer loop
      vertex 90 0 0
      vertex 63.3087 67.5686 0
      vertex 65 66.3397 0
    endloop
  endfacet
  facet normal 0 0 -1
    outer loop
      vertex 90 0 0
      vertex 65 66.3397 0
      vertex 66.9098 65.4894 0
    endloop
  endfacet
  facet normal 0 0 -1
    outer loop
      vertex 90 0 0
      vertex 66.9098 65.4894 0
      vertex 68.9547 65.0548 0
    endloop
  endfacet
  facet normal 0 0 -1
    outer loop
      vertex 90 0 0
      vertex 68.9547 65.0548 0
      vertex 71.0453 65.0548 0
    endloop
  endfacet
  facet normal 0 0 -1
    outer loop
      vertex 90 0 0
      vertex 71.0453 65.0548 0
      vertex 73.0902 65.4894 0
    endloop
  endfacet
  facet normal 0 0 -1
    outer loop
      vertex 90 0 0
      vertex 73.0902 65.4894 0
      vertex 75 66.3397 0
    endloop
  endfacet
  facet normal 0 0 -1
    outer loop
      vertex 90 0 0
      vertex 75 66.3397 0
      vertex 76.6913 67.5686 0
    endloop
  endfacet
  facet normal 0 0 -1
    outer loop
      vertex 90 0 0
      vertex 76.6913 67.5686 0
      vertex 78.0902 69.1221 0
    endloop
  endfacet
  facet normal 0 0 -1
    outer loop
      vertex 90 0 0
      vertex 78.0902 69.1221 0
      vertex 79.1355 70.9326 0
    endloop
  endfacet
  facet normal 0 0 -1
    outer loop
      vertex 90 0 0
      vertex 79.1355 70.9326 0
      vertex 79.7815 72.9209 0
    endloop
  endfacet
  facet normal 0 0 -1
    outer loop
      vertex 90 0 0
      vertex 79.7815 72.9209 0
      vertex 90 130 0
    endloop
  endfacet
  facet normal 0 0 -1
    outer loop
      vertex 79.7815 72.9209 0
      vertex 80 75 0
      vertex 90 130 0
    endloop
  endfacet
  facet normal 0 0 -1
    outer loop
      vertex 79.1355 79.0674 0
      vertex 90 130 0
      vertex 79.7815 77.0791 0
    endloop
  endfacet
  facet normal 0 0 -1
    outer loop
      vertex 78.0902 80.8779 0
      vertex 90 130 0
      vertex 79.1355 79.0674 0
    endloop
  endfacet
  facet normal 0 0 -1
    outer loop
      vertex 76.6913 82.4314 0
      vertex 90 130 0
      vertex 78.0902 80.8779 0
    endloop
  endfacet
  facet normal 0 0 -1
    outer loop
      vertex 75 83.6603 0
      vertex 90 130 0
      vertex 76.6913 82.4314 0
    endloop
  endfacet
  facet normal 0 0 -1
    outer loop
      vertex 73.0902 84.5106 0
      vertex 90 130 0
      vertex 75 83.6603 0
    endloop
  endfacet
  facet normal 0 0 -1
    outer loop
      vertex 71.0453 84.9452 0
      vertex 90 130 0
      vertex 73.0902 84.5106 0
    endloop
  endfacet
  facet normal 0 0 -1
    outer loop
      vertex 68.9547 84.9452 0
      vertex 90 130 0
      vertex 71.0453 84.9452 0
    endloop
  endfacet
  facet normal 0 0 -1
    outer loop
      vertex 63.3087 82.4314 0
      vertex 90 130 0
      vertex 65 83.6603 0
    endloop
  endfacet
  facet normal 0 0 -1
    outer loop
      vertex 68.9547 84.9452 0
      vertex 66.9098 84.5106 0
      vertex 90 130 0
    endloop
  endfacet
  facet normal 0 0 -1
    outer loop
      vertex 66.9098 84.5106 0
      vertex 65 83.6603 0
      vertex 90 130 0
    endloop
  endfacet
  facet normal 0 0 -1
    outer loop
      vertex 61.9098 80.8779 0
      vertex 49.8417 69.1104 0
      vertex 63.3087 82.4314 0
    endloop
  endfacet
  facet normal 0 0 -1
    outer loop
      vertex 60.8645 79.0674 0
      vertex 49.8417 69.1104 0
      vertex 61.9098 80.8779 0
    endloop
  endfacet
  facet normal 0 0 -1
    outer loop
      vertex 60.2185 77.0791 0
      vertex 49.8417 69.1104 0
      vertex 60.8645 79.0674 0
    endloop
  endfacet
  facet normal 0 0 -1
    outer loop
      vertex 60 75 0
      vertex 49.8417 69.1104 0
      vertex 60.2185 77.0791 0
    endloop
  endfacet
  facet normal 0 0 -1
    outer loop
      vertex 10.4494 62.1644 0
      vertex 14.6967 72.6967 0
      vertex 16.25 71.5048 0
    endloop
  endfacet
  facet normal 0 0 -1
    outer loop
      vertex 10.4494 62.1644 0
      vertex 16.25 71.5048 0
      vertex 18.0589 70.7556 0
    endloop
  endfacet
  facet normal 0 0 -1
    outer loop
      vertex 10.4494 62.1644 0
      vertex 18.0589 70.7556 0
      vertex 20 70.5 0
    endloop
  endfacet
  facet normal 0 0 -1
    outer loop
      vertex 10.4494 62.1644 0
      vertex 20 70.5 0
      vertex 21.9411 70.7556 0
    endloop
  endfacet
  facet normal 0 0 -1
    outer loop
      vertex 10.4494 62.1644 0
      vertex 21.9411 70.7556 0
      vertex 23.75 71.5048 0
    endloop
  endfacet
  facet normal 0 0 -1
    outer loop
      vertex 26.4952 81.75 0
      vertex 0 130 0
      vertex 49.8417 69.1104 0
    endloop
  endfacet
  facet normal 0 0 -1
    outer loop
      vertex 27.2444 79.9411 0
      vertex 26.4952 81.75 0
      vertex 49.8417 69.1104 0
    endloop
  endfacet
  facet normal 0 0 -1
    outer loop
      vertex 27.5 78 0
      vertex 27.2444 79.9411 0
      vertex 49.8417 69.1104 0
    endloop
  endfacet
  facet normal 0 0 -1
    outer loop
      vertex 27.2444 76.0589 0
      vertex 27.5 78 0
      vertex 49.8417 69.1104 0
    endloop
  endfacet
  facet normal 0 0 -1
    outer loop
      vertex 26.4952 74.25 0
      vertex 27.2444 76.0589 0
      vertex 49.8417 69.1104 0
    endloop
  endfacet
  facet normal 0 0 -1
    outer loop
      vertex 25.3033 72.6967 0
      vertex 26.4952 74.25 0
      vertex 49.8417 69.1104 0
    endloop
  endfacet
  facet normal 0 0 -1
    outer loop
      vertex 23.75 71.5048 0
      vertex 25.3033 72.6967 0
      vertex 49.8417 69.1104 0
    endloop
  endfacet
  facet normal 0 0 -1
    outer loop
      vertex 10.4494 62.1644 0
      vertex 23.75 71.5048 0
      vertex 49.8417 69.1104 0
    endloop
  endfacet
  facet normal 0 0 -1
    outer loop
      vertex 25.3033 83.3033 0
      vertex 0 130 0
      vertex 26.4952 81.75 0
    endloop
  endfacet
  facet normal 0 1 0
    outer loop
      vertex 0 130 0
      vertex 0 130 1.20089e-14
      vertex 90 130 0
    endloop
  endfacet
  facet normal 0 1 0
    outer loop
      vertex 90 130 0
      vertex 0 130 1.20089e-14
      vertex 62.3077 130 41.5385
    endloop
  endfacet
  facet normal -0.5547 0 0.83205
    outer loop
      vertex 60.2185 72.9209 40.1457
      vertex 60 75 40
      vertex 62.3077 0 41.5385
    endloop
  endfacet
  facet normal -0.5547 0 0.83205
    outer loop
      vertex 62.3077 0 41.5385
      vertex 62.3077 68.6803 41.5385
      vertex 61.9098 69.1221 41.2732
    endloop
  endfacet
  facet normal -0.5547 0 0.83205
    outer loop
      vertex 60.8645 70.9326 40.5764
      vertex 62.3077 0 41.5385
      vertex 61.9098 69.1221 41.2732
    endloop
  endfacet
  facet normal -0.5547 0 0.83205
    outer loop
      vertex 60.8645 70.9326 40.5764
      vertex 60.2185 72.9209 40.1457
      vertex 62.3077 0 41.5385
    endloop
  endfacet
  facet normal -0.5547 0 0.83205
    outer loop
      vertex 60.2185 77.0791 40.1457
      vertex 62.3077 130 41.5385
      vertex 60 75 40
    endloop
  endfacet
  facet normal -0.5547 0 0.83205
    outer loop
      vertex 60.8645 79.0674 40.5764
      vertex 62.3077 130 41.5385
      vertex 60.2185 77.0791 40.1457
    endloop
  endfacet
  facet normal -0.5547 0 0.83205
    outer loop
      vertex 61.9098 80.8779 41.2732
      vertex 62.3077 130 41.5385
      vertex 60.8645 79.0674 40.5764
    endloop
  endfacet
  facet normal -0.5547 0 0.83205
    outer loop
      vertex 62.3077 81.3197 41.5385
      vertex 62.3077 130 41.5385
      vertex 61.9098 80.8779 41.2732
    endloop
  endfacet
  facet normal -0.5547 0 0.83205
    outer loop
      vertex 62.3077 130 41.5385
      vertex 0 130 1.20089e-14
      vertex 60 75 40
    endloop
  endfacet
  facet normal -0.5547 0 0.83205
    outer loop
      vertex 20 8 13.3333
      vertex 0 0 1.20089e-14
      vertex 62.3077 0 41.5385
    endloop
  endfacet
  facet normal -0.5547 0 0.83205
    outer loop
      vertex 0 130 1.20089e-14
      vertex 0 0 1.20089e-14
      vertex 10.4494 62.1644 6.96623
    endloop
  endfacet
  facet normal -0.5547 0 0.83205
    outer loop
      vertex 60 75 40
      vertex 49.8417 69.1104 33.2278
      vertex 62.3077 0 41.5385
    endloop
  endfacet
  facet normal -0.5547 0 0.83205
    outer loop
      vertex 60 75 40
      vertex 0 130 1.20089e-14
      vertex 49.8417 69.1104 33.2278
    endloop
  endfacet
  facet normal -0.5547 0 0.83205
    outer loop
      vertex 49.8417 69.1104 33.2278
      vertex 59.3923 14.9459 39.5949
      vertex 62.3077 0 41.5385
    endloop
  endfacet
  facet normal -0.5547 0 0.83205
    outer loop
      vertex 10.4494 62.1644 6.96623
      vertex 0 0 1.20089e-14
      vertex 20 8 13.3333
    endloop
  endfacet
  facet normal -0.5547 0 0.83205
    outer loop
      vertex 0 130 1.20089e-14
      vertex 10.4494 62.1644 6.96623
      vertex 12.5 78 8.33333
    endloop
  endfacet
  facet normal -0.5547 0 0.83205
    outer loop
      vertex 0 130 1.20089e-14
      vertex 12.5 78 8.33333
      vertex 12.7556 79.9411 8.5037
    endloop
  endfacet
  facet normal -0.5547 0 0.83205
    outer loop
      vertex 0 130 1.20089e-14
      vertex 12.7556 79.9411 8.5037
      vertex 13.5048 81.75 9.00321
    endloop
  endfacet
  facet normal -0.5547 0 0.83205
    outer loop
      vertex 0 130 1.20089e-14
      vertex 13.5048 81.75 9.00321
      vertex 14.6967 83.3033 9.7978
    endloop
  endfacet
  facet normal -0.5547 0 0.83205
    outer loop
      vertex 0 130 1.20089e-14
      vertex 14.6967 83.3033 9.7978
      vertex 16.25 84.4952 10.8333
    endloop
  endfacet
  facet normal -0.5547 0 0.83205
    outer loop
      vertex 0 130 1.20089e-14
      vertex 16.25 84.4952 10.8333
      vertex 18.0589 85.2444 12.0392
    endloop
  endfacet
  facet normal -0.5547 0 0.83205
    outer loop
      vertex 0 130 1.20089e-14
      vertex 18.0589 85.2444 12.0392
      vertex 20 85.5 13.3333
    endloop
  endfacet
  facet normal -0.5547 0 0.83205
    outer loop
      vertex 49.8417 69.1104 33.2278
      vertex 0 130 1.20089e-14
      vertex 23.75 84.4952 15.8333
    endloop
  endfacet
  facet normal -0.5547 0 0.83205
    outer loop
      vertex 49.8417 69.1104 33.2278
      vertex 23.75 84.4952 15.8333
      vertex 25.3033 83.3033 16.8689
    endloop
  endfacet
  facet normal -0.5547 0 0.83205
    outer loop
      vertex 49.8417 69.1104 33.2278
      vertex 25.3033 83.3033 16.8689
      vertex 26.4952 81.75 17.6635
    endloop
  endfacet
  facet normal -0.5547 0 0.83205
    outer loop
      vertex 59.3923 14.9459 39.5949
      vertex 20 8 13.3333
      vertex 62.3077 0 41.5385
    endloop
  endfacet
  facet normal -0.5547 0 0.83205
    outer loop
      vertex 21.9411 85.2444 14.6274
      vertex 23.75 84.4952 15.8333
      vertex 0 130 1.20089e-14
    endloop
  endfacet
  facet normal -0.5547 0 0.83205
    outer loop
      vertex 14.6967 72.6967 9.7978
      vertex 10.4494 62.1644 6.96623
      vertex 16.25 71.5048 10.8333
    endloop
  endfacet
  facet normal -0.5547 0 0.83205
    outer loop
      vertex 13.5048 74.25 9.00321
      vertex 10.4494 62.1644 6.96623
      vertex 14.6967 72.6967 9.7978
    endloop
  endfacet
  facet normal -0.5547 0 0.83205
    outer loop
      vertex 12.7556 76.0589 8.5037
      vertex 10.4494 62.1644 6.96623
      vertex 13.5048 74.25 9.00321
    endloop
  endfacet
  facet normal -0.5547 0 0.83205
    outer loop
      vertex 12.5 78 8.33333
      vertex 10.4494 62.1644 6.96623
      vertex 12.7556 76.0589 8.5037
    endloop
  endfacet
  facet normal -0.5547 0 0.83205
    outer loop
      vertex 20 85.5 13.3333
      vertex 21.9411 85.2444 14.6274
      vertex 0 130 1.20089e-14
    endloop
  endfacet
  facet normal -0.5547 0 0.83205
    outer loop
      vertex 10.4494 62.1644 6.96623
      vertex 18.0589 70.7556 12.0392
      vertex 16.25 71.5048 10.8333
    endloop
  endfacet
  facet normal -0.5547 0 0.83205
    outer loop
      vertex 10.4494 62.1644 6.96623
      vertex 20 70.5 13.3333
      vertex 18.0589 70.7556 12.0392
    endloop
  endfacet
  facet normal -0.5547 0 0.83205
    outer loop
      vertex 10.4494 62.1644 6.96623
      vertex 21.9411 70.7556 14.6274
      vertex 20 70.5 13.3333
    endloop
  endfacet
  facet normal -0.5547 0 0.83205
    outer loop
      vertex 10.4494 62.1644 6.96623
      vertex 23.75 71.5048 15.8333
      vertex 21.9411 70.7556 14.6274
    endloop
  endfacet
  facet normal -0.5547 0 0.83205
    outer loop
      vertex 27.2444 79.9411 18.163
      vertex 49.8417 69.1104 33.2278
      vertex 26.4952 81.75 17.6635
    endloop
  endfacet
  facet normal -0.5547 0 0.83205
    outer loop
      vertex 27.5 78 18.3333
      vertex 49.8417 69.1104 33.2278
      vertex 27.2444 79.9411 18.163
    endloop
  endfacet
  facet normal -0.5547 0 0.83205
    outer loop
      vertex 27.2444 76.0589 18.163
      vertex 49.8417 69.1104 33.2278
      vertex 27.5 78 18.3333
    endloop
  endfacet
  facet normal -0.5547 0 0.83205
    outer loop
      vertex 26.4952 74.25 17.6635
      vertex 49.8417 69.1104 33.2278
      vertex 27.2444 76.0589 18.163
    endloop
  endfacet
  facet normal -0.5547 0 0.83205
    outer loop
      vertex 25.3033 72.6967 16.8689
      vertex 49.8417 69.1104 33.2278
      vertex 26.4952 74.25 17.6635
    endloop
  endfacet
  facet normal -0.5547 0 0.83205
    outer loop
      vertex 23.75 71.5048 15.8333
      vertex 49.8417 69.1104 33.2278
      vertex 25.3033 72.6967 16.8689
    endloop
  endfacet
  facet normal -0.5547 0 0.83205
    outer loop
      vertex 10.4494 62.1644 6.96623
      vertex 49.8417 69.1104 33.2278
      vertex 23.75 71.5048 15.8333
    endloop
  endfacet
  facet normal 0.83205 0 0.5547
    outer loop
      vertex 73.0902 84.5106 25.3647
      vertex 90 130 0
      vertex 62.3077 130 41.5385
    endloop
  endfacet
  facet normal 0.83205 0 0.5547
    outer loop
      vertex 80 75 15
      vertex 79.7815 72.9209 15.3278
      vertex 90 0 0
    endloop
  endfacet
  facet normal 0.83205 0 0.5547
    outer loop
      vertex 62.3077 81.3197 41.5385
      vertex 63.3087 82.4314 40.037
      vertex 62.3077 130 41.5385
    endloop
  endfacet
  facet normal 0.83205 0 0.5547
    outer loop
      vertex 63.3087 82.4314 40.037
      vertex 65 83.6603 37.5
      vertex 62.3077 130 41.5385
    endloop
  endfacet
  facet normal 0.83205 0 0.5547
    outer loop
      vertex 65 83.6603 37.5
      vertex 66.9098 84.5106 34.6353
      vertex 62.3077 130 41.5385
    endloop
  endfacet
  facet normal 0.83205 0 0.5547
    outer loop
      vertex 66.9098 84.5106 34.6353
      vertex 68.9547 84.9452 31.5679
      vertex 62.3077 130 41.5385
    endloop
  endfacet
  facet normal 0.83205 0 0.5547
    outer loop
      vertex 68.9547 84.9452 31.5679
      vertex 71.0453 84.9452 28.4321
      vertex 62.3077 130 41.5385
    endloop
  endfacet
  facet normal 0.83205 0 0.5547
    outer loop
      vertex 75 83.6603 22.5
      vertex 90 130 0
      vertex 73.0902 84.5106 25.3647
    endloop
  endfacet
  facet normal 0.83205 0 0.5547
    outer loop
      vertex 76.6913 82.4314 19.963
      vertex 90 130 0
      vertex 75 83.6603 22.5
    endloop
  endfacet
  facet normal 0.83205 0 0.5547
    outer loop
      vertex 78.0902 80.8779 17.8647
      vertex 90 130 0
      vertex 76.6913 82.4314 19.963
    endloop
  endfacet
  facet normal 0.83205 0 0.5547
    outer loop
      vertex 79.1355 79.0674 16.2968
      vertex 90 130 0
      vertex 78.0902 80.8779 17.8647
    endloop
  endfacet
  facet normal 0.83205 0 0.5547
    outer loop
      vertex 79.7815 77.0791 15.3278
      vertex 90 130 0
      vertex 79.1355 79.0674 16.2968
    endloop
  endfacet
  facet normal 0.83205 0 0.5547
    outer loop
      vertex 90 0 0
      vertex 90 130 0
      vertex 79.7815 77.0791 15.3278
    endloop
  endfacet
  facet normal 0.83205 0 0.5547
    outer loop
      vertex 79.7815 72.9209 15.3278
      vertex 79.1355 70.9326 16.2968
      vertex 90 0 0
    endloop
  endfacet
  facet normal 0.83205 0 0.5547
    outer loop
      vertex 90 0 0
      vertex 79.7815 77.0791 15.3278
      vertex 80 75 15
    endloop
  endfacet
  facet normal 0.83205 0 0.5547
    outer loop
      vertex 79.1355 70.9326 16.2968
      vertex 78.0902 69.1221 17.8647
      vertex 90 0 0
    endloop
  endfacet
  facet normal 0.83205 0 0.5547
    outer loop
      vertex 78.0902 69.1221 17.8647
      vertex 76.6913 67.5686 19.963
      vertex 90 0 0
    endloop
  endfacet
  facet normal 0.83205 0 0.5547
    outer loop
      vertex 68.9547 65.0548 31.5679
      vertex 66.9098 65.4894 34.6353
      vertex 90 0 0
    endloop
  endfacet
  facet normal 0.83205 0 0.5547
    outer loop
      vertex 73.0902 65.4894 25.3647
      vertex 71.0453 65.0548 28.4321
      vertex 90 0 0
    endloop
  endfacet
  facet normal 0.83205 0 0.5547
    outer loop
      vertex 71.0453 65.0548 28.4321
      vertex 68.9547 65.0548 31.5679
      vertex 90 0 0
    endloop
  endfacet
  facet normal 0.83205 0 0.5547
    outer loop
      vertex 65 66.3397 37.5
      vertex 90 0 0
      vertex 66.9098 65.4894 34.6353
    endloop
  endfacet
  facet normal 0.83205 0 0.5547
    outer loop
      vertex 63.3087 67.5686 40.037
      vertex 90 0 0
      vertex 65 66.3397 37.5
    endloop
  endfacet
  facet normal 0.83205 0 0.5547
    outer loop
      vertex 62.3077 68.6803 41.5385
      vertex 90 0 0
      vertex 63.3087 67.5686 40.037
    endloop
  endfacet
  facet normal 0.83205 0 0.5547
    outer loop
      vertex 62.3077 0 41.5385
      vertex 90 0 0
      vertex 62.3077 68.6803 41.5385
    endloop
  endfacet
  facet normal 0.83205 0 0.5547
    outer loop
      vertex 75 66.3397 22.5
      vertex 73.0902 65.4894 25.3647
      vertex 90 0 0
    endloop
  endfacet
  facet normal 0.83205 0 0.5547
    outer loop
      vertex 71.0453 84.9452 28.4321
      vertex 73.0902 84.5106 25.3647
      vertex 62.3077 130 41.5385
    endloop
  endfacet
  facet normal 0.83205 0 0.5547
    outer loop
      vertex 76.6913 67.5686 19.963
      vertex 75 66.3397 22.5
      vertex 90 0 0
    endloop
  endfacet
  facet normal 0.984808 0.173648 0
    outer loop
      vertex 10.4494 62.1644 6.96623
      vertex 20 8 13.3333
      vertex 20 8 0
    endloop
  endfacet
  facet normal 0.984808 0.173648 0
    outer loop
      vertex 10.4494 62.1644 0
      vertex 10.4494 62.1644 6.96623
      vertex 20 8 0
    endloop
  endfacet
  facet normal 0.173648 -0.984808 0
    outer loop
      vertex 49.8417 69.1104 0
      vertex 49.8417 69.1104 33.2278
      vertex 10.4494 62.1644 6.96623
    endloop
  endfacet
  facet normal 0.173648 -0.984808 0
    outer loop
      vertex 10.4494 62.1644 0
      vertex 49.8417 69.1104 0
      vertex 10.4494 62.1644 6.96623
    endloop
  endfacet
  facet normal -0.984808 -0.173648 0
    outer loop
      vertex 59.3923 14.9459 39.5949
      vertex 49.8417 69.1104 33.2278
      vertex 59.3923 14.9459 0
    endloop
  endfacet
  facet normal -0.984808 -0.173648 0
    outer loop
      vertex 59.3923 14.9459 0
      vertex 49.8417 69.1104 33.2278
      vertex 49.8417 69.1104 0
    endloop
  endfacet
  facet normal -0.173648 0.984808 0
    outer loop
      vertex 59.3923 14.9459 39.5949
      vertex 59.3923 14.9459 0
      vertex 20 8 13.3333
    endloop
  endfacet
  facet normal -0.173648 0.984808 0
    outer loop
      vertex 20 8 13.3333
      vertex 59.3923 14.9459 0
      vertex 20 8 0
    endloop
  endfacet
  facet normal 0.991445 -0.130526 0
    outer loop
      vertex 12.7556 79.9411 0
      vertex 12.7556 79.9411 8.5037
      vertex 12.5 78 8.33333
    endloop
  endfacet
  facet normal 0.991445 -0.130526 0
    outer loop
      vertex 12.5 78 0
      vertex 12.7556 79.9411 0
      vertex 12.5 78 8.33333
    endloop
  endfacet
  facet normal 0.991445 0.130526 0
    outer loop
      vertex 12.5 78 8.33333
      vertex 12.7556 76.0589 8.5037
      vertex 12.7556 76.0589 0
    endloop
  endfacet
  facet normal 0.991445 0.130526 0
    outer loop
      vertex 12.5 78 0
      vertex 12.5 78 8.33333
      vertex 12.7556 76.0589 0
    endloop
  endfacet
  facet normal 0.92388 -0.382683 0
    outer loop
      vertex 13.5048 81.75 0
      vertex 13.5048 81.75 9.00321
      vertex 12.7556 79.9411 8.5037
    endloop
  endfacet
  facet normal 0.92388 -0.382683 0
    outer loop
      vertex 12.7556 79.9411 0
      vertex 13.5048 81.75 0
      vertex 12.7556 79.9411 8.5037
    endloop
  endfacet
  facet normal 0.793353 -0.608762 0
    outer loop
      vertex 14.6967 83.3033 0
      vertex 14.6967 83.3033 9.7978
      vertex 13.5048 81.75 9.00321
    endloop
  endfacet
  facet normal 0.793353 -0.608762 0
    outer loop
      vertex 13.5048 81.75 0
      vertex 14.6967 83.3033 0
      vertex 13.5048 81.75 9.00321
    endloop
  endfacet
  facet normal 0.608762 -0.793353 0
    outer loop
      vertex 16.25 84.4952 0
      vertex 16.25 84.4952 10.8333
      vertex 14.6967 83.3033 9.7978
    endloop
  endfacet
  facet normal 0.608762 -0.793353 0
    outer loop
      vertex 14.6967 83.3033 0
      vertex 16.25 84.4952 0
      vertex 14.6967 83.3033 9.7978
    endloop
  endfacet
  facet normal 0.382683 -0.92388 0
    outer loop
      vertex 18.0589 85.2444 0
      vertex 18.0589 85.2444 12.0392
      vertex 16.25 84.4952 10.8333
    endloop
  endfacet
  facet normal 0.382683 -0.92388 0
    outer loop
      vertex 16.25 84.4952 0
      vertex 18.0589 85.2444 0
      vertex 16.25 84.4952 10.8333
    endloop
  endfacet
  facet normal 0.130526 -0.991445 0
    outer loop
      vertex 20 85.5 0
      vertex 20 85.5 13.3333
      vertex 18.0589 85.2444 12.0392
    endloop
  endfacet
  facet normal 0.130526 -0.991445 0
    outer loop
      vertex 18.0589 85.2444 0
      vertex 20 85.5 0
      vertex 18.0589 85.2444 12.0392
    endloop
  endfacet
  facet normal -0.130526 -0.991445 0
    outer loop
      vertex 21.9411 85.2444 0
      vertex 21.9411 85.2444 14.6274
      vertex 20 85.5 13.3333
    endloop
  endfacet
  facet normal -0.130526 -0.991445 0
    outer loop
      vertex 20 85.5 0
      vertex 21.9411 85.2444 0
      vertex 20 85.5 13.3333
    endloop
  endfacet
  facet normal -0.382683 -0.92388 0
    outer loop
      vertex 23.75 84.4952 0
      vertex 23.75 84.4952 15.8333
      vertex 21.9411 85.2444 14.6274
    endloop
  endfacet
  facet normal -0.382683 -0.92388 0
    outer loop
      vertex 21.9411 85.2444 0
      vertex 23.75 84.4952 0
      vertex 21.9411 85.2444 14.6274
    endloop
  endfacet
  facet normal -0.608762 -0.793353 0
    outer loop
      vertex 25.3033 83.3033 0
      vertex 25.3033 83.3033 16.8689
      vertex 23.75 84.4952 15.8333
    endloop
  endfacet
  facet normal -0.608762 -0.793353 0
    outer loop
      vertex 23.75 84.4952 0
      vertex 25.3033 83.3033 0
      vertex 23.75 84.4952 15.8333
    endloop
  endfacet
  facet normal -0.793353 -0.608762 0
    outer loop
      vertex 26.4952 81.75 17.6635
      vertex 25.3033 83.3033 16.8689
      vertex 26.4952 81.75 0
    endloop
  endfacet
  facet normal -0.793353 -0.608762 0
    outer loop
      vertex 26.4952 81.75 0
      vertex 25.3033 83.3033 16.8689
      vertex 25.3033 83.3033 0
    endloop
  endfacet
  facet normal -0.92388 -0.382683 0
    outer loop
      vertex 27.2444 79.9411 18.163
      vertex 26.4952 81.75 17.6635
      vertex 27.2444 79.9411 0
    endloop
  endfacet
  facet normal -0.92388 -0.382683 0
    outer loop
      vertex 27.2444 79.9411 0
      vertex 26.4952 81.75 17.6635
      vertex 26.4952 81.75 0
    endloop
  endfacet
  facet normal -0.991445 -0.130526 0
    outer loop
      vertex 27.5 78 18.3333
      vertex 27.2444 79.9411 18.163
      vertex 27.5 78 0
    endloop
  endfacet
  facet normal -0.991445 -0.130526 0
    outer loop
      vertex 27.5 78 0
      vertex 27.2444 79.9411 18.163
      vertex 27.2444 79.9411 0
    endloop
  endfacet
  facet normal -0.991445 0.130526 0
    outer loop
      vertex 27.5 78 18.3333
      vertex 27.5 78 0
      vertex 27.2444 76.0589 18.163
    endloop
  endfacet
  facet normal -0.991445 0.130526 0
    outer loop
      vertex 27.2444 76.0589 18.163
      vertex 27.5 78 0
      vertex 27.2444 76.0589 0
    endloop
  endfacet
  facet normal -0.92388 0.382683 0
    outer loop
      vertex 27.2444 76.0589 18.163
      vertex 27.2444 76.0589 0
      vertex 26.4952 74.25 17.6635
    endloop
  endfacet
  facet normal -0.92388 0.382683 0
    outer loop
      vertex 26.4952 74.25 17.6635
      vertex 27.2444 76.0589 0
      vertex 26.4952 74.25 0
    endloop
  endfacet
  facet normal -0.793353 0.608762 0
    outer loop
      vertex 26.4952 74.25 17.6635
      vertex 26.4952 74.25 0
      vertex 25.3033 72.6967 16.8689
    endloop
  endfacet
  facet normal -0.793353 0.608762 0
    outer loop
      vertex 25.3033 72.6967 16.8689
      vertex 26.4952 74.25 0
      vertex 25.3033 72.6967 0
    endloop
  endfacet
  facet normal -0.608762 0.793353 0
    outer loop
      vertex 25.3033 72.6967 16.8689
      vertex 25.3033 72.6967 0
      vertex 23.75 71.5048 15.8333
    endloop
  endfacet
  facet normal -0.608762 0.793353 0
    outer loop
      vertex 23.75 71.5048 15.8333
      vertex 25.3033 72.6967 0
      vertex 23.75 71.5048 0
    endloop
  endfacet
  facet normal -0.382683 0.92388 0
    outer loop
      vertex 23.75 71.5048 15.8333
      vertex 23.75 71.5048 0
      vertex 21.9411 70.7556 14.6274
    endloop
  endfacet
  facet normal -0.382683 0.92388 0
    outer loop
      vertex 21.9411 70.7556 14.6274
      vertex 23.75 71.5048 0
      vertex 21.9411 70.7556 0
    endloop
  endfacet
  facet normal -0.130526 0.991445 0
    outer loop
      vertex 21.9411 70.7556 14.6274
      vertex 21.9411 70.7556 0
      vertex 20 70.5 13.3333
    endloop
  endfacet
  facet normal -0.130526 0.991445 0
    outer loop
      vertex 20 70.5 13.3333
      vertex 21.9411 70.7556 0
      vertex 20 70.5 0
    endloop
  endfacet
  facet normal 0.130526 0.991445 0
    outer loop
      vertex 20 70.5 13.3333
      vertex 20 70.5 0
      vertex 18.0589 70.7556 12.0392
    endloop
  endfacet
  facet normal 0.130526 0.991445 0
    outer loop
      vertex 18.0589 70.7556 12.0392
      vertex 20 70.5 0
      vertex 18.0589 70.7556 0
    endloop
  endfacet
  facet normal 0.382683 0.92388 0
    outer loop
      vertex 18.0589 70.7556 12.0392
      vertex 18.0589 70.7556 0
      vertex 16.25 71.5048 10.8333
    endloop
  endfacet
  facet normal 0.382683 0.92388 0
    outer loop
      vertex 16.25 71.5048 10.8333
      vertex 18.0589 70.7556 0
      vertex 16.25 71.5048 0
    endloop
  endfacet
  facet normal 0.608762 0.793353 0
    outer loop
      vertex 16.25 71.5048 10.8333
      vertex 16.25 71.5048 0
      vertex 14.6967 72.6967 9.7978
    endloop
  endfacet
  facet normal 0.608762 0.793353 0
    outer loop
      vertex 14.6967 72.6967 9.7978
      vertex 16.25 71.5048 0
      vertex 14.6967 72.6967 0
    endloop
  endfacet
  facet normal 0.793353 0.608762 0
    outer loop
      vertex 13.5048 74.25 9.00321
      vertex 14.6967 72.6967 9.7978
      vertex 14.6967 72.6967 0
    endloop
  endfacet
  facet normal 0.793353 0.608762 0
    outer loop
      vertex 13.5048 74.25 0
      vertex 13.5048 74.25 9.00321
      vertex 14.6967 72.6967 0
    endloop
  endfacet
  facet normal 0.92388 0.382683 0
    outer loop
      vertex 12.7556 76.0589 8.5037
      vertex 13.5048 74.25 9.00321
      vertex 13.5048 74.25 0
    endloop
  endfacet
  facet normal 0.92388 0.382683 0
    outer loop
      vertex 12.7556 76.0589 0
      vertex 12.7556 76.0589 8.5037
      vertex 13.5048 74.25 0
    endloop
  endfacet
  facet normal 0.994522 -0.104528 0
    outer loop
      vertex 60.2185 77.0791 0
      vertex 60.2185 77.0791 40.1457
      vertex 60 75 40
    endloop
  endfacet
  facet normal 0.994522 -0.104528 0
    outer loop
      vertex 60 75 0
      vertex 60.2185 77.0791 0
      vertex 60 75 40
    endloop
  endfacet
  facet normal 0.994522 0.104528 0
    outer loop
      vertex 60 75 40
      vertex 60.2185 72.9209 40.1457
      vertex 60.2185 72.9209 0
    endloop
  endfacet
  facet normal 0.994522 0.104528 0
    outer loop
      vertex 60 75 0
      vertex 60 75 40
      vertex 60.2185 72.9209 0
    endloop
  endfacet
  facet normal 0.951057 -0.309017 0
    outer loop
      vertex 60.8645 79.0674 0
      vertex 60.8645 79.0674 40.5764
      vertex 60.2185 77.0791 40.1457
    endloop
  endfacet
  facet normal 0.951057 -0.309017 0
    outer loop
      vertex 60.2185 77.0791 0
      vertex 60.8645 79.0674 0
      vertex 60.2185 77.0791 40.1457
    endloop
  endfacet
  facet normal 0.866025 -0.5 0
    outer loop
      vertex 61.9098 80.8779 0
      vertex 61.9098 80.8779 41.2732
      vertex 60.8645 79.0674 40.5764
    endloop
  endfacet
  facet normal 0.866025 -0.5 0
    outer loop
      vertex 60.8645 79.0674 0
      vertex 61.9098 80.8779 0
      vertex 60.8645 79.0674 40.5764
    endloop
  endfacet
  facet normal 0.743145 -0.669131 0
    outer loop
      vertex 63.3087 82.4314 0
      vertex 63.3087 82.4314 40.037
      vertex 62.3077 81.3197 41.5385
    endloop
  endfacet
  facet normal 0.743145 -0.669131 0
    outer loop
      vertex 61.9098 80.8779 0
      vertex 63.3087 82.4314 0
      vertex 61.9098 80.8779 41.2732
    endloop
  endfacet
  facet normal 0.743145 -0.669131 0
    outer loop
      vertex 61.9098 80.8779 41.2732
      vertex 63.3087 82.4314 0
      vertex 62.3077 81.3197 41.5385
    endloop
  endfacet
  facet normal 0.587785 -0.809017 0
    outer loop
      vertex 65 83.6603 0
      vertex 65 83.6603 37.5
      vertex 63.3087 82.4314 40.037
    endloop
  endfacet
  facet normal 0.587785 -0.809017 0
    outer loop
      vertex 63.3087 82.4314 0
      vertex 65 83.6603 0
      vertex 63.3087 82.4314 40.037
    endloop
  endfacet
  facet normal 0.406737 -0.913545 0
    outer loop
      vertex 66.9098 84.5106 0
      vertex 66.9098 84.5106 34.6353
      vertex 65 83.6603 37.5
    endloop
  endfacet
  facet normal 0.406737 -0.913545 0
    outer loop
      vertex 65 83.6603 0
      vertex 66.9098 84.5106 0
      vertex 65 83.6603 37.5
    endloop
  endfacet
  facet normal 0.207912 -0.978148 0
    outer loop
      vertex 68.9547 84.9452 0
      vertex 68.9547 84.9452 31.5679
      vertex 66.9098 84.5106 34.6353
    endloop
  endfacet
  facet normal 0.207912 -0.978148 0
    outer loop
      vertex 66.9098 84.5106 0
      vertex 68.9547 84.9452 0
      vertex 66.9098 84.5106 34.6353
    endloop
  endfacet
  facet normal 0 -1 0
    outer loop
      vertex 71.0453 84.9452 0
      vertex 71.0453 84.9452 28.4321
      vertex 68.9547 84.9452 31.5679
    endloop
  endfacet
  facet normal 0 -1 0
    outer loop
      vertex 68.9547 84.9452 0
      vertex 71.0453 84.9452 0
      vertex 68.9547 84.9452 31.5679
    endloop
  endfacet
  facet normal -0.207912 -0.978148 0
    outer loop
      vertex 73.0902 84.5106 0
      vertex 73.0902 84.5106 25.3647
      vertex 71.0453 84.9452 28.4321
    endloop
  endfacet
  facet normal -0.207912 -0.978148 0
    outer loop
      vertex 71.0453 84.9452 0
      vertex 73.0902 84.5106 0
      vertex 71.0453 84.9452 28.4321
    endloop
  endfacet
  facet normal -0.406737 -0.913545 0
    outer loop
      vertex 75 83.6603 0
      vertex 75 83.6603 22.5
      vertex 73.0902 84.5106 25.3647
    endloop
  endfacet
  facet normal -0.406737 -0.913545 0
    outer loop
      vertex 73.0902 84.5106 0
      vertex 75 83.6603 0
      vertex 73.0902 84.5106 25.3647
    endloop
  endfacet
  facet normal -0.587785 -0.809017 0
    outer loop
      vertex 76.6913 82.4314 0
      vertex 76.6913 82.4314 19.963
      vertex 75 83.6603 22.5
    endloop
  endfacet
  facet normal -0.587785 -0.809017 0
    outer loop
      vertex 75 83.6603 0
      vertex 76.6913 82.4314 0
      vertex 75 83.6603 22.5
    endloop
  endfacet
  facet normal -0.743145 -0.669131 0
    outer loop
      vertex 78.0902 80.8779 17.8647
      vertex 76.6913 82.4314 19.963
      vertex 78.0902 80.8779 0
    endloop
  endfacet
  facet normal -0.743145 -0.669131 0
    outer loop
      vertex 78.0902 80.8779 0
      vertex 76.6913 82.4314 19.963
      vertex 76.6913 82.4314 0
    endloop
  endfacet
  facet normal -0.866025 -0.5 0
    outer loop
      vertex 79.1355 79.0674 16.2968
      vertex 78.0902 80.8779 17.8647
      vertex 79.1355 79.0674 0
    endloop
  endfacet
  facet normal -0.866025 -0.5 0
    outer loop
      vertex 79.1355 79.0674 0
      vertex 78.0902 80.8779 17.8647
      vertex 78.0902 80.8779 0
    endloop
  endfacet
  facet normal -0.951057 -0.309017 0
    outer loop
      vertex 79.7815 77.0791 15.3278
      vertex 79.1355 79.0674 16.2968
      vertex 79.7815 77.0791 0
    endloop
  endfacet
  facet normal -0.951057 -0.309017 0
    outer loop
      vertex 79.7815 77.0791 0
      vertex 79.1355 79.0674 16.2968
      vertex 79.1355 79.0674 0
    endloop
  endfacet
  facet normal -0.994522 -0.104528 0
    outer loop
      vertex 80 75 15
      vertex 79.7815 77.0791 15.3278
      vertex 80 75 0
    endloop
  endfacet
  facet normal -0.994522 -0.104528 0
    outer loop
      vertex 80 75 0
      vertex 79.7815 77.0791 15.3278
      vertex 79.7815 77.0791 0
    endloop
  endfacet
  facet normal -0.994522 0.104528 0
    outer loop
      vertex 80 75 15
      vertex 80 75 0
      vertex 79.7815 72.9209 15.3278
    endloop
  endfacet
  facet normal -0.994522 0.104528 0
    outer loop
      vertex 79.7815 72.9209 15.3278
      vertex 80 75 0
      vertex 79.7815 72.9209 0
    endloop
  endfacet
  facet normal -0.951057 0.309017 0
    outer loop
      vertex 79.7815 72.9209 15.3278
      vertex 79.7815 72.9209 0
      vertex 79.1355 70.9326 16.2968
    endloop
  endfacet
  facet normal -0.951057 0.309017 0
    outer loop
      vertex 79.1355 70.9326 16.2968
      vertex 79.7815 72.9209 0
      vertex 79.1355 70.9326 0
    endloop
  endfacet
  facet normal -0.866025 0.5 0
    outer loop
      vertex 79.1355 70.9326 16.2968
      vertex 79.1355 70.9326 0
      vertex 78.0902 69.1221 17.8647
    endloop
  endfacet
  facet normal -0.866025 0.5 0
    outer loop
      vertex 78.0902 69.1221 17.8647
      vertex 79.1355 70.9326 0
      vertex 78.0902 69.1221 0
    endloop
  endfacet
  facet normal -0.743145 0.669131 0
    outer loop
      vertex 78.0902 69.1221 17.8647
      vertex 78.0902 69.1221 0
      vertex 76.6913 67.5686 19.963
    endloop
  endfacet
  facet normal -0.743145 0.669131 0
    outer loop
      vertex 76.6913 67.5686 19.963
      vertex 78.0902 69.1221 0
      vertex 76.6913 67.5686 0
    endloop
  endfacet
  facet normal -0.587785 0.809017 0
    outer loop
      vertex 76.6913 67.5686 19.963
      vertex 76.6913 67.5686 0
      vertex 75 66.3397 22.5
    endloop
  endfacet
  facet normal -0.587785 0.809017 0
    outer loop
      vertex 75 66.3397 22.5
      vertex 76.6913 67.5686 0
      vertex 75 66.3397 0
    endloop
  endfacet
  facet normal -0.406737 0.913545 0
    outer loop
      vertex 75 66.3397 22.5
      vertex 75 66.3397 0
      vertex 73.0902 65.4894 25.3647
    endloop
  endfacet
  facet normal -0.406737 0.913545 0
    outer loop
      vertex 73.0902 65.4894 25.3647
      vertex 75 66.3397 0
      vertex 73.0902 65.4894 0
    endloop
  endfacet
  facet normal -0.207912 0.978148 0
    outer loop
      vertex 73.0902 65.4894 25.3647
      vertex 73.0902 65.4894 0
      vertex 71.0453 65.0548 28.4321
    endloop
  endfacet
  facet normal -0.207912 0.978148 0
    outer loop
      vertex 71.0453 65.0548 28.4321
      vertex 73.0902 65.4894 0
      vertex 71.0453 65.0548 0
    endloop
  endfacet
  facet normal 0 1 0
    outer loop
      vertex 71.0453 65.0548 28.4321
      vertex 71.0453 65.0548 0
      vertex 68.9547 65.0548 31.5679
    endloop
  endfacet
  facet normal 0 1 0
    outer loop
      vertex 68.9547 65.0548 31.5679
      vertex 71.0453 65.0548 0
      vertex 68.9547 65.0548 0
    endloop
  endfacet
  facet normal 0.207912 0.978148 0
    outer loop
      vertex 68.9547 65.0548 31.5679
      vertex 68.9547 65.0548 0
      vertex 66.9098 65.4894 34.6353
    endloop
  endfacet
  facet normal 0.207912 0.978148 0
    outer loop
      vertex 66.9098 65.4894 34.6353
      vertex 68.9547 65.0548 0
      vertex 66.9098 65.4894 0
    endloop
  endfacet
  facet normal 0.406737 0.913545 0
    outer loop
      vertex 66.9098 65.4894 34.6353
      vertex 66.9098 65.4894 0
      vertex 65 66.3397 37.5
    endloop
  endfacet
  facet normal 0.406737 0.913545 0
    outer loop
      vertex 65 66.3397 37.5
      vertex 66.9098 65.4894 0
      vertex 65 66.3397 0
    endloop
  endfacet
  facet normal 0.587785 0.809017 0
    outer loop
      vertex 65 66.3397 37.5
      vertex 65 66.3397 0
      vertex 63.3087 67.5686 40.037
    endloop
  endfacet
  facet normal 0.587785 0.809017 0
    outer loop
      vertex 63.3087 67.5686 40.037
      vertex 65 66.3397 0
      vertex 63.3087 67.5686 0
    endloop
  endfacet
  facet normal 0.743145 0.669131 0
    outer loop
      vertex 61.9098 69.1221 41.2732
      vertex 62.3077 68.6803 41.5385
      vertex 63.3087 67.5686 40.037
    endloop
  endfacet
  facet normal 0.743145 0.669131 0
    outer loop
      vertex 61.9098 69.1221 0
      vertex 61.9098 69.1221 41.2732
      vertex 63.3087 67.5686 0
    endloop
  endfacet
  facet normal 0.743145 0.669131 0
    outer loop
      vertex 63.3087 67.5686 0
      vertex 61.9098 69.1221 41.2732
      vertex 63.3087 67.5686 40.037
    endloop
  endfacet
  facet normal 0.866025 0.5 0
    outer loop
      vertex 60.8645 70.9326 40.5764
      vertex 61.9098 69.1221 41.2732
      vertex 61.9098 69.1221 0
    endloop
  endfacet
  facet normal 0.866025 0.5 0
    outer loop
      vertex 60.8645 70.9326 0
      vertex 60.8645 70.9326 40.5764
      vertex 61.9098 69.1221 0
    endloop
  endfacet
  facet normal 0.951057 0.309017 0
    outer loop
      vertex 60.2185 72.9209 40.1457
      vertex 60.8645 70.9326 40.5764
      vertex 60.8645 70.9326 0
    endloop
  endfacet
  facet normal 0.951057 0.309017 0
    outer loop
      vertex 60.2185 72.9209 0
      vertex 60.2185 72.9209 40.1457
      vertex 60.8645 70.9326 0
    endloop
  endfacet
endsolid OpenSCAD_Model
