  0
SECTION
  2
BLOCKS
  0
ENDSEC
  0
SECTION
  2
ENTITIES
  0
LINE
  8
0
 10
-8.25
 11
-8.247
 20
24.5
 21
24.618
  0
LINE
  8
0
 10
-8.247
 11
-8.238
 20
24.618
 21
24.735
  0
LINE
  8
0
 10
-8.238
 11
-8.222
 20
24.735
 21
24.852
  0
LINE
  8
0
 10
-8.222
 11
-8.201
 20
24.852
 21
24.968
  0
LINE
  8
0
 10
-8.201
 11
-8.173
 20
24.968
 21
25.082
  0
LINE
  8
0
 10
-8.173
 11
-8.14
 20
25.082
 21
25.195
  0
LINE
  8
0
 10
-8.14
 11
-8.101
 20
25.195
 21
25.306
  0
LINE
  8
0
 10
-8.101
 11
-8.055
 20
25.306
 21
25.415
  0
LINE
  8
0
 10
-8.055
 11
-8.005
 20
25.415
 21
25.521
  0
LINE
  8
0
 10
-8.005
 11
-7.949
 20
25.521
 21
25.625
  0
LINE
  8
0
 10
-7.949
 11
-7.887
 20
25.625
 21
25.725
  0
LINE
  8
0
 10
-7.887
 11
-7.82
 20
25.725
 21
25.823
  0
LINE
  8
0
 10
-7.82
 11
-7.749
 20
25.823
 21
25.916
  0
LINE
  8
0
 10
-7.749
 11
-7.672
 20
25.916
 21
26.006
  0
LINE
  8
0
 10
-7.672
 11
-7.591
 20
26.006
 21
26.091
  0
LINE
  8
0
 10
-7.591
 11
-7.506
 20
26.091
 21
26.172
  0
LINE
  8
0
 10
-7.506
 11
-7.416
 20
26.172
 21
26.249
  0
LINE
  8
0
 10
-7.416
 11
-7.323
 20
26.249
 21
26.32
  0
LINE
  8
0
 10
-7.323
 11
-7.225
 20
26.32
 21
26.387
  0
LINE
  8
0
 10
-7.225
 11
-7.125
 20
26.387
 21
26.449
  0
LINE
  8
0
 10
-7.125
 11
-7.021
 20
26.449
 21
26.505
  0
LINE
  8
0
 10
-7.021
 11
-6.915
 20
26.505
 21
26.555
  0
LINE
  8
0
 10
-6.915
 11
-6.806
 20
26.555
 21
26.601
  0
LINE
  8
0
 10
-6.806
 11
-6.695
 20
26.601
 21
26.64
  0
LINE
  8
0
 10
-6.695
 11
-6.582
 20
26.64
 21
26.673
  0
LINE
  8
0
 10
-6.582
 11
-6.468
 20
26.673
 21
26.701
  0
LINE
  8
0
 10
-6.468
 11
-6.352
 20
26.701
 21
26.722
  0
LINE
  8
0
 10
-6.352
 11
-6.235
 20
26.722
 21
26.738
  0
LINE
  8
0
 10
-6.235
 11
-6.118
 20
26.738
 21
26.747
  0
LINE
  8
0
 10
-6.118
 11
-6
 20
26.747
 21
26.75
  0
LINE
  8
0
 10
-6
 11
-5.882
 20
26.75
 21
26.747
  0
LINE
  8
0
 10
-5.882
 11
-5.765
 20
26.747
 21
26.738
  0
LINE
  8
0
 10
-5.765
 11
-5.648
 20
26.738
 21
26.722
  0
LINE
  8
0
 10
-5.648
 11
-5.532
 20
26.722
 21
26.701
  0
LINE
  8
0
 10
-5.532
 11
-5.418
 20
26.701
 21
26.673
  0
LINE
  8
0
 10
-5.418
 11
-5.305
 20
26.673
 21
26.64
  0
LINE
  8
0
 10
-5.305
 11
-5.194
 20
26.64
 21
26.601
  0
LINE
  8
0
 10
-5.194
 11
-5.085
 20
26.601
 21
26.555
  0
LINE
  8
0
 10
-5.085
 11
-4.979
 20
26.555
 21
26.505
  0
LINE
  8
0
 10
-4.979
 11
-4.875
 20
26.505
 21
26.449
  0
LINE
  8
0
 10
-4.875
 11
-4.775
 20
26.449
 21
26.387
  0
LINE
  8
0
 10
-4.775
 11
-4.677
 20
26.387
 21
26.32
  0
LINE
  8
0
 10
-4.677
 11
-4.584
 20
26.32
 21
26.249
  0
LINE
  8
0
 10
-4.584
 11
-4.494
 20
26.249
 21
26.172
  0
LINE
  8
0
 10
-4.494
 11
-4.409
 20
26.172
 21
26.091
  0
LINE
  8
0
 10
-4.409
 11
-4.328
 20
26.091
 21
26.006
  0
LINE
  8
0
 10
-4.328
 11
-4.251
 20
26.006
 21
25.916
  0
LINE
  8
0
 10
-4.251
 11
-4.18
 20
25.916
 21
25.823
  0
LINE
  8
0
 10
-4.18
 11
-4.113
 20
25.823
 21
25.725
  0
LINE
  8
0
 10
-4.113
 11
-4.051
 20
25.725
 21
25.625
  0
LINE
  8
0
 10
-4.051
 11
-3.995
 20
25.625
 21
25.521
  0
LINE
  8
0
 10
-3.995
 11
-3.945
 20
25.521
 21
25.415
  0
LINE
  8
0
 10
-3.945
 11
-3.899
 20
25.415
 21
25.306
  0
LINE
  8
0
 10
-3.899
 11
-3.86
 20
25.306
 21
25.195
  0
LINE
  8
0
 10
-3.86
 11
-3.827
 20
25.195
 21
25.082
  0
LINE
  8
0
 10
-3.827
 11
-3.799
 20
25.082
 21
24.968
  0
LINE
  8
0
 10
-3.799
 11
-3.778
 20
24.968
 21
24.852
  0
LINE
  8
0
 10
-3.778
 11
-3.762
 20
24.852
 21
24.735
  0
LINE
  8
0
 10
-3.762
 11
-3.753
 20
24.735
 21
24.618
  0
LINE
  8
0
 10
-3.753
 11
-3.75
 20
24.618
 21
24.5
  0
LINE
  8
0
 10
-3.75
 11
-3.753
 20
24.5
 21
24.382
  0
LINE
  8
0
 10
-3.753
 11
-3.762
 20
24.382
 21
24.265
  0
LINE
  8
0
 10
-3.762
 11
-3.778
 20
24.265
 21
24.148
  0
LINE
  8
0
 10
-3.778
 11
-3.799
 20
24.148
 21
24.032
  0
LINE
  8
0
 10
-3.799
 11
-3.827
 20
24.032
 21
23.918
  0
LINE
  8
0
 10
-3.827
 11
-3.86
 20
23.918
 21
23.805
  0
LINE
  8
0
 10
-3.86
 11
-3.899
 20
23.805
 21
23.694
  0
LINE
  8
0
 10
-3.899
 11
-3.945
 20
23.694
 21
23.585
  0
LINE
  8
0
 10
-3.945
 11
-3.995
 20
23.585
 21
23.479
  0
LINE
  8
0
 10
-3.995
 11
-4.051
 20
23.479
 21
23.375
  0
LINE
  8
0
 10
-4.051
 11
-4.113
 20
23.375
 21
23.275
  0
LINE
  8
0
 10
-4.113
 11
-4.18
 20
23.275
 21
23.177
  0
LINE
  8
0
 10
-4.18
 11
-4.251
 20
23.177
 21
23.084
  0
LINE
  8
0
 10
-4.251
 11
-4.328
 20
23.084
 21
22.994
  0
LINE
  8
0
 10
-4.328
 11
-4.409
 20
22.994
 21
22.909
  0
LINE
  8
0
 10
-4.409
 11
-4.494
 20
22.909
 21
22.828
  0
LINE
  8
0
 10
-4.494
 11
-4.584
 20
22.828
 21
22.751
  0
LINE
  8
0
 10
-4.584
 11
-4.677
 20
22.751
 21
22.68
  0
LINE
  8
0
 10
-4.677
 11
-4.775
 20
22.68
 21
22.613
  0
LINE
  8
0
 10
-4.775
 11
-4.875
 20
22.613
 21
22.551
  0
LINE
  8
0
 10
-4.875
 11
-4.979
 20
22.551
 21
22.495
  0
LINE
  8
0
 10
-4.979
 11
-5.085
 20
22.495
 21
22.445
  0
LINE
  8
0
 10
-5.085
 11
-5.194
 20
22.445
 21
22.399
  0
LINE
  8
0
 10
-5.194
 11
-5.305
 20
22.399
 21
22.36
  0
LINE
  8
0
 10
-5.305
 11
-5.418
 20
22.36
 21
22.327
  0
LINE
  8
0
 10
-5.418
 11
-5.532
 20
22.327
 21
22.299
  0
LINE
  8
0
 10
-5.532
 11
-5.648
 20
22.299
 21
22.278
  0
LINE
  8
0
 10
-5.648
 11
-5.765
 20
22.278
 21
22.262
  0
LINE
  8
0
 10
-5.765
 11
-5.882
 20
22.262
 21
22.253
  0
LINE
  8
0
 10
-5.882
 11
-6
 20
22.253
 21
22.25
  0
LINE
  8
0
 10
-6
 11
-6.118
 20
22.25
 21
22.253
  0
LINE
  8
0
 10
-6.118
 11
-6.235
 20
22.253
 21
22.262
  0
LINE
  8
0
 10
-6.235
 11
-6.352
 20
22.262
 21
22.278
  0
LINE
  8
0
 10
-6.352
 11
-6.468
 20
22.278
 21
22.299
  0
LINE
  8
0
 10
-6.468
 11
-6.582
 20
22.299
 21
22.327
  0
LINE
  8
0
 10
-6.582
 11
-6.695
 20
22.327
 21
22.36
  0
LINE
  8
0
 10
-6.695
 11
-6.806
 20
22.36
 21
22.399
  0
LINE
  8
0
 10
-6.806
 11
-6.915
 20
22.399
 21
22.445
  0
LINE
  8
0
 10
-6.915
 11
-7.021
 20
22.445
 21
22.495
  0
LINE
  8
0
 10
-7.021
 11
-7.125
 20
22.495
 21
22.551
  0
LINE
  8
0
 10
-7.125
 11
-7.225
 20
22.551
 21
22.613
  0
LINE
  8
0
 10
-7.225
 11
-7.323
 20
22.613
 21
22.68
  0
LINE
  8
0
 10
-7.323
 11
-7.416
 20
22.68
 21
22.751
  0
LINE
  8
0
 10
-7.416
 11
-7.506
 20
22.751
 21
22.828
  0
LINE
  8
0
 10
-7.506
 11
-7.591
 20
22.828
 21
22.909
  0
LINE
  8
0
 10
-7.591
 11
-7.672
 20
22.909
 21
22.994
  0
LINE
  8
0
 10
-7.672
 11
-7.749
 20
22.994
 21
23.084
  0
LINE
  8
0
 10
-7.749
 11
-7.82
 20
23.084
 21
23.177
  0
LINE
  8
0
 10
-7.82
 11
-7.887
 20
23.177
 21
23.275
  0
LINE
  8
0
 10
-7.887
 11
-7.949
 20
23.275
 21
23.375
  0
LINE
  8
0
 10
-7.949
 11
-8.005
 20
23.375
 21
23.479
  0
LINE
  8
0
 10
-8.005
 11
-8.055
 20
23.479
 21
23.585
  0
LINE
  8
0
 10
-8.055
 11
-8.101
 20
23.585
 21
23.694
  0
LINE
  8
0
 10
-8.101
 11
-8.14
 20
23.694
 21
23.805
  0
LINE
  8
0
 10
-8.14
 11
-8.173
 20
23.805
 21
23.918
  0
LINE
  8
0
 10
-8.173
 11
-8.201
 20
23.918
 21
24.032
  0
LINE
  8
0
 10
-8.201
 11
-8.222
 20
24.032
 21
24.148
  0
LINE
  8
0
 10
-8.222
 11
-8.238
 20
24.148
 21
24.265
  0
LINE
  8
0
 10
-8.238
 11
-8.247
 20
24.265
 21
24.382
  0
LINE
  8
0
 10
-8.247
 11
-8.25
 20
24.382
 21
24.5
  0
LINE
  8
0
 10
0
 11
0
 20
0
 21
49
  0
LINE
  8
0
 10
0
 11
28
 20
49
 21
49
  0
LINE
  8
0
 10
28
 11
28
 20
49
 21
0
  0
LINE
  8
0
 10
28
 11
0
 20
0
 21
0
  0
LINE
  8
0
 10
31.75
 11
31.753
 20
24.5
 21
24.618
  0
LINE
  8
0
 10
31.753
 11
31.762
 20
24.618
 21
24.735
  0
LINE
  8
0
 10
31.762
 11
31.778
 20
24.735
 21
24.852
  0
LINE
  8
0
 10
31.778
 11
31.799
 20
24.852
 21
24.968
  0
LINE
  8
0
 10
31.799
 11
31.827
 20
24.968
 21
25.082
  0
LINE
  8
0
 10
31.827
 11
31.86
 20
25.082
 21
25.195
  0
LINE
  8
0
 10
31.86
 11
31.899
 20
25.195
 21
25.306
  0
LINE
  8
0
 10
31.899
 11
31.945
 20
25.306
 21
25.415
  0
LINE
  8
0
 10
31.945
 11
31.995
 20
25.415
 21
25.521
  0
LINE
  8
0
 10
31.995
 11
32.051
 20
25.521
 21
25.625
  0
LINE
  8
0
 10
32.051
 11
32.113
 20
25.625
 21
25.725
  0
LINE
  8
0
 10
32.113
 11
32.18
 20
25.725
 21
25.823
  0
LINE
  8
0
 10
32.18
 11
32.251
 20
25.823
 21
25.916
  0
LINE
  8
0
 10
32.251
 11
32.328
 20
25.916
 21
26.006
  0
LINE
  8
0
 10
32.328
 11
32.409
 20
26.006
 21
26.091
  0
LINE
  8
0
 10
32.409
 11
32.494
 20
26.091
 21
26.172
  0
LINE
  8
0
 10
32.494
 11
32.584
 20
26.172
 21
26.249
  0
LINE
  8
0
 10
32.584
 11
32.677
 20
26.249
 21
26.32
  0
LINE
  8
0
 10
32.677
 11
32.775
 20
26.32
 21
26.387
  0
LINE
  8
0
 10
32.775
 11
32.875
 20
26.387
 21
26.449
  0
LINE
  8
0
 10
32.875
 11
32.979
 20
26.449
 21
26.505
  0
LINE
  8
0
 10
32.979
 11
33.085
 20
26.505
 21
26.555
  0
LINE
  8
0
 10
33.085
 11
33.194
 20
26.555
 21
26.601
  0
LINE
  8
0
 10
33.194
 11
33.305
 20
26.601
 21
26.64
  0
LINE
  8
0
 10
33.305
 11
33.418
 20
26.64
 21
26.673
  0
LINE
  8
0
 10
33.418
 11
33.532
 20
26.673
 21
26.701
  0
LINE
  8
0
 10
33.532
 11
33.648
 20
26.701
 21
26.722
  0
LINE
  8
0
 10
33.648
 11
33.765
 20
26.722
 21
26.738
  0
LINE
  8
0
 10
33.765
 11
33.882
 20
26.738
 21
26.747
  0
LINE
  8
0
 10
33.882
 11
34
 20
26.747
 21
26.75
  0
LINE
  8
0
 10
34
 11
34.118
 20
26.75
 21
26.747
  0
LINE
  8
0
 10
34.118
 11
34.235
 20
26.747
 21
26.738
  0
LINE
  8
0
 10
34.235
 11
34.352
 20
26.738
 21
26.722
  0
LINE
  8
0
 10
34.352
 11
34.468
 20
26.722
 21
26.701
  0
LINE
  8
0
 10
34.468
 11
34.582
 20
26.701
 21
26.673
  0
LINE
  8
0
 10
34.582
 11
34.695
 20
26.673
 21
26.64
  0
LINE
  8
0
 10
34.695
 11
34.806
 20
26.64
 21
26.601
  0
LINE
  8
0
 10
34.806
 11
34.915
 20
26.601
 21
26.555
  0
LINE
  8
0
 10
34.915
 11
35.021
 20
26.555
 21
26.505
  0
LINE
  8
0
 10
35.021
 11
35.125
 20
26.505
 21
26.449
  0
LINE
  8
0
 10
35.125
 11
35.225
 20
26.449
 21
26.387
  0
LINE
  8
0
 10
35.225
 11
35.323
 20
26.387
 21
26.32
  0
LINE
  8
0
 10
35.323
 11
35.416
 20
26.32
 21
26.249
  0
LINE
  8
0
 10
35.416
 11
35.506
 20
26.249
 21
26.172
  0
LINE
  8
0
 10
35.506
 11
35.591
 20
26.172
 21
26.091
  0
LINE
  8
0
 10
35.591
 11
35.672
 20
26.091
 21
26.006
  0
LINE
  8
0
 10
35.672
 11
35.749
 20
26.006
 21
25.916
  0
LINE
  8
0
 10
35.749
 11
35.82
 20
25.916
 21
25.823
  0
LINE
  8
0
 10
35.82
 11
35.887
 20
25.823
 21
25.725
  0
LINE
  8
0
 10
35.887
 11
35.949
 20
25.725
 21
25.625
  0
LINE
  8
0
 10
35.949
 11
36.005
 20
25.625
 21
25.521
  0
LINE
  8
0
 10
36.005
 11
36.055
 20
25.521
 21
25.415
  0
LINE
  8
0
 10
36.055
 11
36.101
 20
25.415
 21
25.306
  0
LINE
  8
0
 10
36.101
 11
36.14
 20
25.306
 21
25.195
  0
LINE
  8
0
 10
36.14
 11
36.173
 20
25.195
 21
25.082
  0
LINE
  8
0
 10
36.173
 11
36.201
 20
25.082
 21
24.968
  0
LINE
  8
0
 10
36.201
 11
36.222
 20
24.968
 21
24.852
  0
LINE
  8
0
 10
36.222
 11
36.238
 20
24.852
 21
24.735
  0
LINE
  8
0
 10
36.238
 11
36.247
 20
24.735
 21
24.618
  0
LINE
  8
0
 10
36.247
 11
36.25
 20
24.618
 21
24.5
  0
LINE
  8
0
 10
36.25
 11
36.247
 20
24.5
 21
24.382
  0
LINE
  8
0
 10
36.247
 11
36.238
 20
24.382
 21
24.265
  0
LINE
  8
0
 10
36.238
 11
36.222
 20
24.265
 21
24.148
  0
LINE
  8
0
 10
36.222
 11
36.201
 20
24.148
 21
24.032
  0
LINE
  8
0
 10
36.201
 11
36.173
 20
24.032
 21
23.918
  0
LINE
  8
0
 10
36.173
 11
36.14
 20
23.918
 21
23.805
  0
LINE
  8
0
 10
36.14
 11
36.101
 20
23.805
 21
23.694
  0
LINE
  8
0
 10
36.101
 11
36.055
 20
23.694
 21
23.585
  0
LINE
  8
0
 10
36.055
 11
36.005
 20
23.585
 21
23.479
  0
LINE
  8
0
 10
36.005
 11
35.949
 20
23.479
 21
23.375
  0
LINE
  8
0
 10
35.949
 11
35.887
 20
23.375
 21
23.275
  0
LINE
  8
0
 10
35.887
 11
35.82
 20
23.275
 21
23.177
  0
LINE
  8
0
 10
35.82
 11
35.749
 20
23.177
 21
23.084
  0
LINE
  8
0
 10
35.749
 11
35.672
 20
23.084
 21
22.994
  0
LINE
  8
0
 10
35.672
 11
35.591
 20
22.994
 21
22.909
  0
LINE
  8
0
 10
35.591
 11
35.506
 20
22.909
 21
22.828
  0
LINE
  8
0
 10
35.506
 11
35.416
 20
22.828
 21
22.751
  0
LINE
  8
0
 10
35.416
 11
35.323
 20
22.751
 21
22.68
  0
LINE
  8
0
 10
35.323
 11
35.225
 20
22.68
 21
22.613
  0
LINE
  8
0
 10
35.225
 11
35.125
 20
22.613
 21
22.551
  0
LINE
  8
0
 10
35.125
 11
35.021
 20
22.551
 21
22.495
  0
LINE
  8
0
 10
35.021
 11
34.915
 20
22.495
 21
22.445
  0
LINE
  8
0
 10
34.915
 11
34.806
 20
22.445
 21
22.399
  0
LINE
  8
0
 10
34.806
 11
34.695
 20
22.399
 21
22.36
  0
LINE
  8
0
 10
34.695
 11
34.582
 20
22.36
 21
22.327
  0
LINE
  8
0
 10
34.582
 11
34.468
 20
22.327
 21
22.299
  0
LINE
  8
0
 10
34.468
 11
34.352
 20
22.299
 21
22.278
  0
LINE
  8
0
 10
34.352
 11
34.235
 20
22.278
 21
22.262
  0
LINE
  8
0
 10
34.235
 11
34.118
 20
22.262
 21
22.253
  0
LINE
  8
0
 10
34.118
 11
34
 20
22.253
 21
22.25
  0
LINE
  8
0
 10
34
 11
33.882
 20
22.25
 21
22.253
  0
LINE
  8
0
 10
33.882
 11
33.765
 20
22.253
 21
22.262
  0
LINE
  8
0
 10
33.765
 11
33.648
 20
22.262
 21
22.278
  0
LINE
  8
0
 10
33.648
 11
33.532
 20
22.278
 21
22.299
  0
LINE
  8
0
 10
33.532
 11
33.418
 20
22.299
 21
22.327
  0
LINE
  8
0
 10
33.418
 11
33.305
 20
22.327
 21
22.36
  0
LINE
  8
0
 10
33.305
 11
33.194
 20
22.36
 21
22.399
  0
LINE
  8
0
 10
33.194
 11
33.085
 20
22.399
 21
22.445
  0
LINE
  8
0
 10
33.085
 11
32.979
 20
22.445
 21
22.495
  0
LINE
  8
0
 10
32.979
 11
32.875
 20
22.495
 21
22.551
  0
LINE
  8
0
 10
32.875
 11
32.775
 20
22.551
 21
22.613
  0
LINE
  8
0
 10
32.775
 11
32.677
 20
22.613
 21
22.68
  0
LINE
  8
0
 10
32.677
 11
32.584
 20
22.68
 21
22.751
  0
LINE
  8
0
 10
32.584
 11
32.494
 20
22.751
 21
22.828
  0
LINE
  8
0
 10
32.494
 11
32.409
 20
22.828
 21
22.909
  0
LINE
  8
0
 10
32.409
 11
32.328
 20
22.909
 21
22.994
  0
LINE
  8
0
 10
32.328
 11
32.251
 20
22.994
 21
23.084
  0
LINE
  8
0
 10
32.251
 11
32.18
 20
23.084
 21
23.177
  0
LINE
  8
0
 10
32.18
 11
32.113
 20
23.177
 21
23.275
  0
LINE
  8
0
 10
32.113
 11
32.051
 20
23.275
 21
23.375
  0
LINE
  8
0
 10
32.051
 11
31.995
 20
23.375
 21
23.479
  0
LINE
  8
0
 10
31.995
 11
31.945
 20
23.479
 21
23.585
  0
LINE
  8
0
 10
31.945
 11
31.899
 20
23.585
 21
23.694
  0
LINE
  8
0
 10
31.899
 11
31.86
 20
23.694
 21
23.805
  0
LINE
  8
0
 10
31.86
 11
31.827
 20
23.805
 21
23.918
  0
LINE
  8
0
 10
31.827
 11
31.799
 20
23.918
 21
24.032
  0
LINE
  8
0
 10
31.799
 11
31.778
 20
24.032
 21
24.148
  0
LINE
  8
0
 10
31.778
 11
31.762
 20
24.148
 21
24.265
  0
LINE
  8
0
 10
31.762
 11
31.753
 20
24.265
 21
24.382
  0
LINE
  8
0
 10
31.753
 11
31.75
 20
24.382
 21
24.5
  0
ENDSEC
  0
SECTION
  2
OBJECTS
  0
DICTIONARY
  0
ENDSEC
  0
EOF
