  0
SECTION
  2
BLOCKS
  0
ENDSEC
  0
SECTION
  2
ENTITIES
  0
LINE
  8
0
 10
-3.293
 11
-3.293
 20
1.001
 21
1.68
  0
LINE
  8
0
 10
-3.293
 11
-3.288
 20
1.68
 21
1.718
  0
LINE
  8
0
 10
-3.288
 11
-3.273
 20
1.718
 21
1.754
  0
LINE
  8
0
 10
-3.273
 11
-3.25
 20
1.754
 21
1.784
  0
LINE
  8
0
 10
-3.25
 11
-3.22
 20
1.784
 21
1.808
  0
LINE
  8
0
 10
-3.22
 11
-3.184
 20
1.808
 21
1.824
  0
LINE
  8
0
 10
-3.184
 11
-3.146
 20
1.824
 21
1.83
  0
LINE
  8
0
 10
-3.146
 11
-1.543
 20
1.83
 21
1.83
  0
LINE
  8
0
 10
-1.543
 11
-1.504
 20
1.83
 21
1.824
  0
LINE
  8
0
 10
-1.504
 11
-1.468
 20
1.824
 21
1.809
  0
LINE
  8
0
 10
-1.468
 11
-1.437
 20
1.809
 21
1.786
  0
LINE
  8
0
 10
-1.437
 11
-1.413
 20
1.786
 21
1.755
  0
LINE
  8
0
 10
-1.413
 11
-1.398
 20
1.755
 21
1.718
  0
LINE
  8
0
 10
-1.398
 11
-1.393
 20
1.718
 21
1.68
  0
LINE
  8
0
 10
-1.393
 11
-1.393
 20
1.68
 21
0.247
  0
LINE
  8
0
 10
-1.393
 11
-1.398
 20
0.247
 21
0.209
  0
LINE
  8
0
 10
-1.398
 11
-1.413
 20
0.209
 21
0.172
  0
LINE
  8
0
 10
-1.413
 11
-1.437
 20
0.172
 21
0.141
  0
LINE
  8
0
 10
-1.437
 11
-1.468
 20
0.141
 21
0.117
  0
LINE
  8
0
 10
-1.468
 11
-1.504
 20
0.117
 21
0.102
  0
LINE
  8
0
 10
-1.504
 11
-1.543
 20
0.102
 21
0.097
  0
LINE
  8
0
 10
-1.543
 11
-2.038
 20
0.097
 21
0.097
  0
LINE
  8
0
 10
-2.038
 11
-3.293
 20
0.097
 21
1.001
  0
LINE
  8
0
 10
-3.004
 11
-2.989
 20
0.98
 21
1.114
  0
LINE
  8
0
 10
-2.989
 11
-2.95
 20
1.114
 21
1.244
  0
LINE
  8
0
 10
-2.95
 11
-2.888
 20
1.244
 21
1.364
  0
LINE
  8
0
 10
-2.888
 11
-2.806
 20
1.364
 21
1.472
  0
LINE
  8
0
 10
-2.806
 11
-2.705
 20
1.472
 21
1.562
  0
LINE
  8
0
 10
-2.705
 11
-2.59
 20
1.562
 21
1.634
  0
LINE
  8
0
 10
-2.59
 11
-2.464
 20
1.634
 21
1.683
  0
LINE
  8
0
 10
-2.464
 11
-2.332
 20
1.683
 21
1.709
  0
LINE
  8
0
 10
-2.332
 11
-2.196
 20
1.709
 21
1.711
  0
LINE
  8
0
 10
-2.196
 11
-2.063
 20
1.711
 21
1.688
  0
LINE
  8
0
 10
-2.063
 11
-1.936
 20
1.688
 21
1.641
  0
LINE
  8
0
 10
-1.936
 11
-1.819
 20
1.641
 21
1.573
  0
LINE
  8
0
 10
-1.819
 11
-1.717
 20
1.573
 21
1.484
  0
LINE
  8
0
 10
-1.717
 11
-1.632
 20
1.484
 21
1.379
  0
LINE
  8
0
 10
-1.632
 11
-1.568
 20
1.379
 21
1.26
  0
LINE
  8
0
 10
-1.568
 11
-1.526
 20
1.26
 21
1.131
  0
LINE
  8
0
 10
-1.526
 11
-1.508
 20
1.131
 21
0.997
  0
LINE
  8
0
 10
-1.508
 11
-1.514
 20
0.997
 21
0.862
  0
LINE
  8
0
 10
-1.514
 11
-1.544
 20
0.862
 21
0.73
  0
LINE
  8
0
 10
-1.544
 11
-1.598
 20
0.73
 21
0.606
  0
LINE
  8
0
 10
-1.598
 11
-1.673
 20
0.606
 21
0.494
  0
LINE
  8
0
 10
-1.673
 11
-1.768
 20
0.494
 21
0.397
  0
LINE
  8
0
 10
-1.768
 11
-1.878
 20
0.397
 21
0.318
  0
LINE
  8
0
 10
-1.878
 11
-2
 20
0.318
 21
0.261
  0
LINE
  8
0
 10
-2
 11
-3.004
 20
0.261
 21
0.98
  0
LINE
  8
0
 10
-2.933
 11
-2.931
 20
1.596
 21
1.607
  0
LINE
  8
0
 10
-2.931
 11
-2.927
 20
1.607
 21
1.618
  0
LINE
  8
0
 10
-2.927
 11
-2.92
 20
1.618
 21
1.628
  0
LINE
  8
0
 10
-2.92
 11
-2.91
 20
1.628
 21
1.635
  0
LINE
  8
0
 10
-2.91
 11
-2.899
 20
1.635
 21
1.639
  0
LINE
  8
0
 10
-2.899
 11
-2.887
 20
1.639
 21
1.641
  0
LINE
  8
0
 10
-2.887
 11
-2.876
 20
1.641
 21
1.639
  0
LINE
  8
0
 10
-2.876
 11
-2.865
 20
1.639
 21
1.635
  0
LINE
  8
0
 10
-2.865
 11
-2.855
 20
1.635
 21
1.628
  0
LINE
  8
0
 10
-2.855
 11
-2.848
 20
1.628
 21
1.618
  0
LINE
  8
0
 10
-2.848
 11
-2.844
 20
1.618
 21
1.607
  0
LINE
  8
0
 10
-2.844
 11
-2.842
 20
1.607
 21
1.596
  0
LINE
  8
0
 10
-2.842
 11
-2.844
 20
1.596
 21
1.584
  0
LINE
  8
0
 10
-2.844
 11
-2.848
 20
1.584
 21
1.573
  0
LINE
  8
0
 10
-2.848
 11
-2.855
 20
1.573
 21
1.564
  0
LINE
  8
0
 10
-2.855
 11
-2.865
 20
1.564
 21
1.556
  0
LINE
  8
0
 10
-2.865
 11
-2.876
 20
1.556
 21
1.552
  0
LINE
  8
0
 10
-2.876
 11
-2.887
 20
1.552
 21
1.55
  0
LINE
  8
0
 10
-2.887
 11
-2.899
 20
1.55
 21
1.552
  0
LINE
  8
0
 10
-2.899
 11
-2.91
 20
1.552
 21
1.556
  0
LINE
  8
0
 10
-2.91
 11
-2.92
 20
1.556
 21
1.564
  0
LINE
  8
0
 10
-2.92
 11
-2.927
 20
1.564
 21
1.573
  0
LINE
  8
0
 10
-2.927
 11
-2.931
 20
1.573
 21
1.584
  0
LINE
  8
0
 10
-2.931
 11
-2.933
 20
1.584
 21
1.596
  0
LINE
  8
0
 10
-1.673
 11
-1.671
 20
0.336
 21
0.348
  0
LINE
  8
0
 10
-1.671
 11
-1.667
 20
0.348
 21
0.358
  0
LINE
  8
0
 10
-1.667
 11
-1.66
 20
0.358
 21
0.368
  0
LINE
  8
0
 10
-1.66
 11
-1.65
 20
0.368
 21
0.375
  0
LINE
  8
0
 10
-1.65
 11
-1.639
 20
0.375
 21
0.38
  0
LINE
  8
0
 10
-1.639
 11
-1.628
 20
0.38
 21
0.381
  0
LINE
  8
0
 10
-1.628
 11
-1.616
 20
0.381
 21
0.38
  0
LINE
  8
0
 10
-1.616
 11
-1.605
 20
0.38
 21
0.375
  0
LINE
  8
0
 10
-1.605
 11
-1.596
 20
0.375
 21
0.368
  0
LINE
  8
0
 10
-1.596
 11
-1.588
 20
0.368
 21
0.358
  0
LINE
  8
0
 10
-1.588
 11
-1.584
 20
0.358
 21
0.348
  0
LINE
  8
0
 10
-1.584
 11
-1.582
 20
0.348
 21
0.336
  0
LINE
  8
0
 10
-1.582
 11
-1.584
 20
0.336
 21
0.324
  0
LINE
  8
0
 10
-1.584
 11
-1.588
 20
0.324
 21
0.313
  0
LINE
  8
0
 10
-1.588
 11
-1.596
 20
0.313
 21
0.304
  0
LINE
  8
0
 10
-1.596
 11
-1.605
 20
0.304
 21
0.297
  0
LINE
  8
0
 10
-1.605
 11
-1.616
 20
0.297
 21
0.292
  0
LINE
  8
0
 10
-1.616
 11
-1.628
 20
0.292
 21
0.291
  0
LINE
  8
0
 10
-1.628
 11
-1.639
 20
0.291
 21
0.292
  0
LINE
  8
0
 10
-1.639
 11
-1.65
 20
0.292
 21
0.297
  0
LINE
  8
0
 10
-1.65
 11
-1.66
 20
0.297
 21
0.304
  0
LINE
  8
0
 10
-1.66
 11
-1.667
 20
0.304
 21
0.313
  0
LINE
  8
0
 10
-1.667
 11
-1.671
 20
0.313
 21
0.324
  0
LINE
  8
0
 10
-1.671
 11
-1.673
 20
0.324
 21
0.336
  0
LINE
  8
0
 10
-1.673
 11
-1.671
 20
1.596
 21
1.607
  0
LINE
  8
0
 10
-1.671
 11
-1.667
 20
1.607
 21
1.618
  0
LINE
  8
0
 10
-1.667
 11
-1.66
 20
1.618
 21
1.628
  0
LINE
  8
0
 10
-1.66
 11
-1.65
 20
1.628
 21
1.635
  0
LINE
  8
0
 10
-1.65
 11
-1.639
 20
1.635
 21
1.639
  0
LINE
  8
0
 10
-1.639
 11
-1.628
 20
1.639
 21
1.641
  0
LINE
  8
0
 10
-1.628
 11
-1.616
 20
1.641
 21
1.639
  0
LINE
  8
0
 10
-1.616
 11
-1.605
 20
1.639
 21
1.635
  0
LINE
  8
0
 10
-1.605
 11
-1.596
 20
1.635
 21
1.628
  0
LINE
  8
0
 10
-1.596
 11
-1.588
 20
1.628
 21
1.618
  0
LINE
  8
0
 10
-1.588
 11
-1.584
 20
1.618
 21
1.607
  0
LINE
  8
0
 10
-1.584
 11
-1.582
 20
1.607
 21
1.596
  0
LINE
  8
0
 10
-1.582
 11
-1.584
 20
1.596
 21
1.584
  0
LINE
  8
0
 10
-1.584
 11
-1.588
 20
1.584
 21
1.573
  0
LINE
  8
0
 10
-1.588
 11
-1.596
 20
1.573
 21
1.564
  0
LINE
  8
0
 10
-1.596
 11
-1.605
 20
1.564
 21
1.556
  0
LINE
  8
0
 10
-1.605
 11
-1.616
 20
1.556
 21
1.552
  0
LINE
  8
0
 10
-1.616
 11
-1.628
 20
1.552
 21
1.55
  0
LINE
  8
0
 10
-1.628
 11
-1.639
 20
1.55
 21
1.552
  0
LINE
  8
0
 10
-1.639
 11
-1.65
 20
1.552
 21
1.556
  0
LINE
  8
0
 10
-1.65
 11
-1.66
 20
1.556
 21
1.564
  0
LINE
  8
0
 10
-1.66
 11
-1.667
 20
1.564
 21
1.573
  0
LINE
  8
0
 10
-1.667
 11
-1.671
 20
1.573
 21
1.584
  0
LINE
  8
0
 10
-1.671
 11
-1.673
 20
1.584
 21
1.596
  0
LINE
  8
0
 10
-1.274
 11
-1.274
 20
-1.274
 21
-0.965
  0
LINE
  8
0
 10
-1.274
 11
-1.273
 20
-0.965
 21
-0.952
  0
LINE
  8
0
 10
-1.273
 11
-1.268
 20
-0.952
 21
-0.94
  0
LINE
  8
0
 10
-1.268
 11
-1.26
 20
-0.94
 21
-0.929
  0
LINE
  8
0
 10
-1.26
 11
-1.249
 20
-0.929
 21
-0.921
  0
LINE
  8
0
 10
-1.249
 11
-1.237
 20
-0.921
 21
-0.916
  0
LINE
  8
0
 10
-1.237
 11
-1.224
 20
-0.916
 21
-0.915
  0
LINE
  8
0
 10
-1.224
 11
-1.07
 20
-0.915
 21
-0.915
  0
LINE
  8
0
 10
-1.07
 11
-1.057
 20
-0.915
 21
-0.913
  0
LINE
  8
0
 10
-1.057
 11
-1.045
 20
-0.913
 21
-0.908
  0
LINE
  8
0
 10
-1.045
 11
-1.034
 20
-0.908
 21
-0.9
  0
LINE
  8
0
 10
-1.034
 11
-1.026
 20
-0.9
 21
-0.89
  0
LINE
  8
0
 10
-1.026
 11
-1.021
 20
-0.89
 21
-0.878
  0
LINE
  8
0
 10
-1.021
 11
-1.02
 20
-0.878
 21
-0.865
  0
LINE
  8
0
 10
-1.02
 11
-1.02
 20
-0.865
 21
-0.578
  0
LINE
  8
0
 10
-1.02
 11
-1.016
 20
-0.578
 21
-0.552
  0
LINE
  8
0
 10
-1.016
 11
-1.006
 20
-0.552
 21
-0.528
  0
LINE
  8
0
 10
-1.006
 11
-0.99
 20
-0.528
 21
-0.507
  0
LINE
  8
0
 10
-0.99
 11
-0.97
 20
-0.507
 21
-0.491
  0
LINE
  8
0
 10
-0.97
 11
-0.946
 20
-0.491
 21
-0.481
  0
LINE
  8
0
 10
-0.946
 11
-0.92
 20
-0.481
 21
-0.478
  0
LINE
  8
0
 10
-0.92
 11
-0.045
 20
-0.478
 21
-0.478
  0
LINE
  8
0
 10
-0.045
 11
-0.045
 20
-0.478
 21
-0.248
  0
LINE
  8
0
 10
-0.045
 11
0.199
 20
-0.248
 21
-0.248
  0
LINE
  8
0
 10
0.199
 11
0.199
 20
-0.248
 21
-0.478
  0
LINE
  8
0
 10
0.199
 11
0.457
 20
-0.478
 21
-0.478
  0
LINE
  8
0
 10
0.457
 11
0.457
 20
-0.478
 21
-0.689
  0
LINE
  8
0
 10
0.457
 11
0.41
 20
-0.689
 21
-0.689
  0
LINE
  8
0
 10
0.41
 11
0.41
 20
-0.689
 21
-0.779
  0
LINE
  8
0
 10
0.41
 11
0.457
 20
-0.779
 21
-0.779
  0
LINE
  8
0
 10
0.457
 11
0.457
 20
-0.779
 21
-0.898
  0
LINE
  8
0
 10
0.457
 11
0.571
 20
-0.898
 21
-0.898
  0
LINE
  8
0
 10
0.571
 11
0.571
 20
-0.898
 21
-0.779
  0
LINE
  8
0
 10
0.571
 11
0.618
 20
-0.779
 21
-0.779
  0
LINE
  8
0
 10
0.618
 11
0.618
 20
-0.779
 21
-0.689
  0
LINE
  8
0
 10
0.618
 11
0.571
 20
-0.689
 21
-0.689
  0
LINE
  8
0
 10
0.571
 11
0.571
 20
-0.689
 21
-0.478
  0
LINE
  8
0
 10
0.571
 11
0.829
 20
-0.478
 21
-0.478
  0
LINE
  8
0
 10
0.829
 11
0.829
 20
-0.478
 21
-0.248
  0
LINE
  8
0
 10
0.829
 11
1.073
 20
-0.248
 21
-0.248
  0
LINE
  8
0
 10
1.073
 11
1.073
 20
-0.248
 21
-0.478
  0
LINE
  8
0
 10
1.073
 11
1.21
 20
-0.478
 21
-0.478
  0
LINE
  8
0
 10
1.21
 11
1.235
 20
-0.478
 21
-0.481
  0
LINE
  8
0
 10
1.235
 11
1.26
 20
-0.481
 21
-0.491
  0
LINE
  8
0
 10
1.26
 11
1.28
 20
-0.491
 21
-0.507
  0
LINE
  8
0
 10
1.28
 11
1.296
 20
-0.507
 21
-0.528
  0
LINE
  8
0
 10
1.296
 11
1.306
 20
-0.528
 21
-0.552
  0
LINE
  8
0
 10
1.306
 11
1.31
 20
-0.552
 21
-0.578
  0
LINE
  8
0
 10
1.31
 11
1.31
 20
-0.578
 21
-0.714
  0
LINE
  8
0
 10
1.31
 11
1.54
 20
-0.714
 21
-0.714
  0
LINE
  8
0
 10
1.54
 11
1.54
 20
-0.714
 21
-0.958
  0
LINE
  8
0
 10
1.54
 11
1.31
 20
-0.958
 21
-0.958
  0
LINE
  8
0
 10
1.31
 11
1.31
 20
-0.958
 21
-1.255
  0
LINE
  8
0
 10
1.31
 11
1.099
 20
-1.255
 21
-1.255
  0
LINE
  8
0
 10
1.099
 11
1.099
 20
-1.255
 21
-1.208
  0
LINE
  8
0
 10
1.099
 11
1.008
 20
-1.208
 21
-1.208
  0
LINE
  8
0
 10
1.008
 11
1.008
 20
-1.208
 21
-1.255
  0
LINE
  8
0
 10
1.008
 11
0.89
 20
-1.255
 21
-1.255
  0
LINE
  8
0
 10
0.89
 11
0.89
 20
-1.255
 21
-1.369
  0
LINE
  8
0
 10
0.89
 11
1.008
 20
-1.369
 21
-1.369
  0
LINE
  8
0
 10
1.008
 11
1.008
 20
-1.369
 21
-1.416
  0
LINE
  8
0
 10
1.008
 11
1.099
 20
-1.416
 21
-1.416
  0
LINE
  8
0
 10
1.099
 11
1.099
 20
-1.416
 21
-1.369
  0
LINE
  8
0
 10
1.099
 11
1.31
 20
-1.369
 21
-1.369
  0
LINE
  8
0
 10
1.31
 11
1.31
 20
-1.369
 21
-1.666
  0
LINE
  8
0
 10
1.31
 11
1.54
 20
-1.666
 21
-1.666
  0
LINE
  8
0
 10
1.54
 11
1.54
 20
-1.666
 21
-1.91
  0
LINE
  8
0
 10
1.54
 11
1.31
 20
-1.91
 21
-1.91
  0
LINE
  8
0
 10
1.31
 11
1.31
 20
-1.91
 21
-2.144
  0
LINE
  8
0
 10
1.31
 11
1.306
 20
-2.144
 21
-2.17
  0
LINE
  8
0
 10
1.306
 11
1.296
 20
-2.17
 21
-2.194
  0
LINE
  8
0
 10
1.296
 11
1.28
 20
-2.194
 21
-2.215
  0
LINE
  8
0
 10
1.28
 11
1.26
 20
-2.215
 21
-2.231
  0
LINE
  8
0
 10
1.26
 11
1.235
 20
-2.231
 21
-2.241
  0
LINE
  8
0
 10
1.235
 11
1.21
 20
-2.241
 21
-2.244
  0
LINE
  8
0
 10
1.21
 11
-0.92
 20
-2.244
 21
-2.244
  0
LINE
  8
0
 10
-0.92
 11
-0.946
 20
-2.244
 21
-2.241
  0
LINE
  8
0
 10
-0.946
 11
-0.97
 20
-2.241
 21
-2.231
  0
LINE
  8
0
 10
-0.97
 11
-0.99
 20
-2.231
 21
-2.215
  0
LINE
  8
0
 10
-0.99
 11
-1.006
 20
-2.215
 21
-2.194
  0
LINE
  8
0
 10
-1.006
 11
-1.016
 20
-2.194
 21
-2.17
  0
LINE
  8
0
 10
-1.016
 11
-1.02
 20
-2.17
 21
-2.144
  0
LINE
  8
0
 10
-1.02
 11
-1.02
 20
-2.144
 21
-1.374
  0
LINE
  8
0
 10
-1.02
 11
-1.021
 20
-1.374
 21
-1.361
  0
LINE
  8
0
 10
-1.021
 11
-1.026
 20
-1.361
 21
-1.349
  0
LINE
  8
0
 10
-1.026
 11
-1.034
 20
-1.349
 21
-1.338
  0
LINE
  8
0
 10
-1.034
 11
-1.045
 20
-1.338
 21
-1.33
  0
LINE
  8
0
 10
-1.045
 11
-1.057
 20
-1.33
 21
-1.325
  0
LINE
  8
0
 10
-1.057
 11
-1.07
 20
-1.325
 21
-1.324
  0
LINE
  8
0
 10
-1.07
 11
-1.224
 20
-1.324
 21
-1.324
  0
LINE
  8
0
 10
-1.224
 11
-1.237
 20
-1.324
 21
-1.322
  0
LINE
  8
0
 10
-1.237
 11
-1.249
 20
-1.322
 21
-1.317
  0
LINE
  8
0
 10
-1.249
 11
-1.26
 20
-1.317
 21
-1.309
  0
LINE
  8
0
 10
-1.26
 11
-1.268
 20
-1.309
 21
-1.299
  0
LINE
  8
0
 10
-1.268
 11
-1.273
 20
-1.299
 21
-1.287
  0
LINE
  8
0
 10
-1.273
 11
-1.274
 20
-1.287
 21
-1.274
  0
LINE
  8
0
 10
-1.148
 11
-1.148
 20
-1.198
 21
-1.04
  0
LINE
  8
0
 10
-1.148
 11
-1.03
 20
-1.04
 21
-1.04
  0
LINE
  8
0
 10
-1.03
 11
-1.03
 20
-1.04
 21
-1.198
  0
LINE
  8
0
 10
-1.03
 11
-1.148
 20
-1.198
 21
-1.198
  0
LINE
  8
0
 10
-1.032
 11
-1.032
 20
0.001
 21
2.113
  0
LINE
  8
0
 10
-1.032
 11
-1.029
 20
2.113
 21
2.139
  0
LINE
  8
0
 10
-1.029
 11
-1.019
 20
2.139
 21
2.163
  0
LINE
  8
0
 10
-1.019
 11
-1.003
 20
2.163
 21
2.183
  0
LINE
  8
0
 10
-1.003
 11
-0.982
 20
2.183
 21
2.199
  0
LINE
  8
0
 10
-0.982
 11
-0.958
 20
2.199
 21
2.209
  0
LINE
  8
0
 10
-0.958
 11
-0.932
 20
2.209
 21
2.213
  0
LINE
  8
0
 10
-0.932
 11
0.395
 20
2.213
 21
2.213
  0
LINE
  8
0
 10
0.395
 11
0.416
 20
2.213
 21
2.207
  0
LINE
  8
0
 10
0.416
 11
0.435
 20
2.207
 21
2.199
  0
LINE
  8
0
 10
0.435
 11
0.452
 20
2.199
 21
2.188
  0
LINE
  8
0
 10
0.452
 11
1.556
 20
2.188
 21
1.317
  0
LINE
  8
0
 10
1.556
 11
1.565
 20
1.317
 21
1.309
  0
LINE
  8
0
 10
1.565
 11
1.572
 20
1.309
 21
1.298
  0
LINE
  8
0
 10
1.572
 11
1.576
 20
1.298
 21
1.287
  0
LINE
  8
0
 10
1.576
 11
1.578
 20
1.287
 21
1.274
  0
LINE
  8
0
 10
1.578
 11
1.578
 20
1.274
 21
0.001
  0
LINE
  8
0
 10
1.578
 11
1.574
 20
0.001
 21
-0.025
  0
LINE
  8
0
 10
1.574
 11
1.564
 20
-0.025
 21
-0.049
  0
LINE
  8
0
 10
1.564
 11
1.548
 20
-0.049
 21
-0.07
  0
LINE
  8
0
 10
1.548
 11
1.528
 20
-0.07
 21
-0.086
  0
LINE
  8
0
 10
1.528
 11
1.504
 20
-0.086
 21
-0.096
  0
LINE
  8
0
 10
1.504
 11
1.478
 20
-0.096
 21
-0.099
  0
LINE
  8
0
 10
1.478
 11
-0.932
 20
-0.099
 21
-0.099
  0
LINE
  8
0
 10
-0.932
 11
-0.958
 20
-0.099
 21
-0.096
  0
LINE
  8
0
 10
-0.958
 11
-0.982
 20
-0.096
 21
-0.086
  0
LINE
  8
0
 10
-0.982
 11
-1.003
 20
-0.086
 21
-0.07
  0
LINE
  8
0
 10
-1.003
 11
-1.019
 20
-0.07
 21
-0.049
  0
LINE
  8
0
 10
-1.019
 11
-1.029
 20
-0.049
 21
-0.025
  0
LINE
  8
0
 10
-1.029
 11
-1.032
 20
-0.025
 21
0.001
  0
LINE
  8
0
 10
-0.903
 11
-0.89
 20
0.771
 21
0.908
  0
LINE
  8
0
 10
-0.89
 11
-0.852
 20
0.908
 21
1.041
  0
LINE
  8
0
 10
-0.852
 11
-0.791
 20
1.041
 21
1.164
  0
LINE
  8
0
 10
-0.791
 11
-0.708
 20
1.164
 21
1.275
  0
LINE
  8
0
 10
-0.708
 11
-0.606
 20
1.275
 21
1.368
  0
LINE
  8
0
 10
-0.606
 11
-0.488
 20
1.368
 21
1.44
  0
LINE
  8
0
 10
-0.488
 11
-0.359
 20
1.44
 21
1.49
  0
LINE
  8
0
 10
-0.359
 11
-0.224
 20
1.49
 21
1.516
  0
LINE
  8
0
 10
-0.224
 11
-0.086
 20
1.516
 21
1.516
  0
LINE
  8
0
 10
-0.086
 11
0.05
 20
1.516
 21
1.49
  0
LINE
  8
0
 10
0.05
 11
0.179
 20
1.49
 21
1.44
  0
LINE
  8
0
 10
0.179
 11
0.296
 20
1.44
 21
1.368
  0
LINE
  8
0
 10
0.296
 11
0.398
 20
1.368
 21
1.275
  0
LINE
  8
0
 10
0.398
 11
0.481
 20
1.275
 21
1.164
  0
LINE
  8
0
 10
0.481
 11
0.543
 20
1.164
 21
1.041
  0
LINE
  8
0
 10
0.543
 11
0.581
 20
1.041
 21
0.908
  0
LINE
  8
0
 10
0.581
 11
0.593
 20
0.908
 21
0.771
  0
LINE
  8
0
 10
0.593
 11
0.581
 20
0.771
 21
0.633
  0
LINE
  8
0
 10
0.581
 11
0.543
 20
0.633
 21
0.5
  0
LINE
  8
0
 10
0.543
 11
0.481
 20
0.5
 21
0.377
  0
LINE
  8
0
 10
0.481
 11
0.398
 20
0.377
 21
0.267
  0
LINE
  8
0
 10
0.398
 11
0.296
 20
0.267
 21
0.174
  0
LINE
  8
0
 10
0.296
 11
0.179
 20
0.174
 21
0.101
  0
LINE
  8
0
 10
0.179
 11
0.05
 20
0.101
 21
0.051
  0
LINE
  8
0
 10
0.05
 11
-0.086
 20
0.051
 21
0.026
  0
LINE
  8
0
 10
-0.086
 11
-0.224
 20
0.026
 21
0.026
  0
LINE
  8
0
 10
-0.224
 11
-0.359
 20
0.026
 21
0.051
  0
LINE
  8
0
 10
-0.359
 11
-0.488
 20
0.051
 21
0.101
  0
LINE
  8
0
 10
-0.488
 11
-0.606
 20
0.101
 21
0.174
  0
LINE
  8
0
 10
-0.606
 11
-0.708
 20
0.174
 21
0.267
  0
LINE
  8
0
 10
-0.708
 11
-0.791
 20
0.267
 21
0.377
  0
LINE
  8
0
 10
-0.791
 11
-0.852
 20
0.377
 21
0.5
  0
LINE
  8
0
 10
-0.852
 11
-0.89
 20
0.5
 21
0.633
  0
LINE
  8
0
 10
-0.89
 11
-0.903
 20
0.633
 21
0.771
  0
LINE
  8
0
 10
-0.876
 11
-0.874
 20
-0.874
 21
-0.86
  0
LINE
  8
0
 10
-0.874
 11
-0.868
 20
-0.86
 21
-0.846
  0
LINE
  8
0
 10
-0.868
 11
-0.859
 20
-0.846
 21
-0.834
  0
LINE
  8
0
 10
-0.859
 11
-0.847
 20
-0.834
 21
-0.825
  0
LINE
  8
0
 10
-0.847
 11
-0.834
 20
-0.825
 21
-0.819
  0
LINE
  8
0
 10
-0.834
 11
-0.819
 20
-0.819
 21
-0.817
  0
LINE
  8
0
 10
-0.819
 11
-0.804
 20
-0.817
 21
-0.819
  0
LINE
  8
0
 10
-0.804
 11
-0.79
 20
-0.819
 21
-0.825
  0
LINE
  8
0
 10
-0.79
 11
-0.779
 20
-0.825
 21
-0.834
  0
LINE
  8
0
 10
-0.779
 11
-0.77
 20
-0.834
 21
-0.846
  0
LINE
  8
0
 10
-0.77
 11
-0.764
 20
-0.846
 21
-0.86
  0
LINE
  8
0
 10
-0.764
 11
-0.762
 20
-0.86
 21
-0.874
  0
LINE
  8
0
 10
-0.762
 11
-0.764
 20
-0.874
 21
-0.889
  0
LINE
  8
0
 10
-0.764
 11
-0.77
 20
-0.889
 21
-0.903
  0
LINE
  8
0
 10
-0.77
 11
-0.779
 20
-0.903
 21
-0.915
  0
LINE
  8
0
 10
-0.779
 11
-0.79
 20
-0.915
 21
-0.924
  0
LINE
  8
0
 10
-0.79
 11
-0.804
 20
-0.924
 21
-0.929
  0
LINE
  8
0
 10
-0.804
 11
-0.819
 20
-0.929
 21
-0.931
  0
LINE
  8
0
 10
-0.819
 11
-0.834
 20
-0.931
 21
-0.929
  0
LINE
  8
0
 10
-0.834
 11
-0.847
 20
-0.929
 21
-0.924
  0
LINE
  8
0
 10
-0.847
 11
-0.859
 20
-0.924
 21
-0.915
  0
LINE
  8
0
 10
-0.859
 11
-0.868
 20
-0.915
 21
-0.903
  0
LINE
  8
0
 10
-0.868
 11
-0.874
 20
-0.903
 21
-0.889
  0
LINE
  8
0
 10
-0.874
 11
-0.876
 20
-0.889
 21
-0.874
  0
LINE
  8
0
 10
-0.843
 11
-0.831
 20
-1.725
 21
-1.639
  0
LINE
  8
0
 10
-0.831
 11
-0.798
 20
-1.639
 21
-1.558
  0
LINE
  8
0
 10
-0.798
 11
-0.745
 20
-1.558
 21
-1.489
  0
LINE
  8
0
 10
-0.745
 11
-0.676
 20
-1.489
 21
-1.437
  0
LINE
  8
0
 10
-0.676
 11
-0.596
 20
-1.437
 21
-1.403
  0
LINE
  8
0
 10
-0.596
 11
-0.51
 20
-1.403
 21
-1.392
  0
LINE
  8
0
 10
-0.51
 11
-0.424
 20
-1.392
 21
-1.403
  0
LINE
  8
0
 10
-0.424
 11
-0.344
 20
-1.403
 21
-1.437
  0
LINE
  8
0
 10
-0.344
 11
-0.275
 20
-1.437
 21
-1.489
  0
LINE
  8
0
 10
-0.275
 11
-0.222
 20
-1.489
 21
-1.558
  0
LINE
  8
0
 10
-0.222
 11
-0.189
 20
-1.558
 21
-1.639
  0
LINE
  8
0
 10
-0.189
 11
-0.177
 20
-1.639
 21
-1.725
  0
LINE
  8
0
 10
-0.177
 11
-0.189
 20
-1.725
 21
-1.811
  0
LINE
  8
0
 10
-0.189
 11
-0.222
 20
-1.811
 21
-1.891
  0
LINE
  8
0
 10
-0.222
 11
-0.275
 20
-1.891
 21
-1.96
  0
LINE
  8
0
 10
-0.275
 11
-0.344
 20
-1.96
 21
-2.013
  0
LINE
  8
0
 10
-0.344
 11
-0.424
 20
-2.013
 21
-2.046
  0
LINE
  8
0
 10
-0.424
 11
-0.51
 20
-2.046
 21
-2.057
  0
LINE
  8
0
 10
-0.51
 11
-0.596
 20
-2.057
 21
-2.046
  0
LINE
  8
0
 10
-0.596
 11
-0.676
 20
-2.046
 21
-2.013
  0
LINE
  8
0
 10
-0.676
 11
-0.745
 20
-2.013
 21
-1.96
  0
LINE
  8
0
 10
-0.745
 11
-0.798
 20
-1.96
 21
-1.891
  0
LINE
  8
0
 10
-0.798
 11
-0.831
 20
-1.891
 21
-1.811
  0
LINE
  8
0
 10
-0.831
 11
-0.843
 20
-1.811
 21
-1.725
  0
LINE
  8
0
 10
-0.827
 11
-0.826
 20
0.146
 21
0.158
  0
LINE
  8
0
 10
-0.826
 11
-0.821
 20
0.158
 21
0.168
  0
LINE
  8
0
 10
-0.821
 11
-0.814
 20
0.168
 21
0.178
  0
LINE
  8
0
 10
-0.814
 11
-0.805
 20
0.178
 21
0.185
  0
LINE
  8
0
 10
-0.805
 11
-0.794
 20
0.185
 21
0.19
  0
LINE
  8
0
 10
-0.794
 11
-0.782
 20
0.19
 21
0.191
  0
LINE
  8
0
 10
-0.782
 11
-0.77
 20
0.191
 21
0.19
  0
LINE
  8
0
 10
-0.77
 11
-0.759
 20
0.19
 21
0.185
  0
LINE
  8
0
 10
-0.759
 11
-0.75
 20
0.185
 21
0.178
  0
LINE
  8
0
 10
-0.75
 11
-0.743
 20
0.178
 21
0.168
  0
LINE
  8
0
 10
-0.743
 11
-0.738
 20
0.168
 21
0.158
  0
LINE
  8
0
 10
-0.738
 11
-0.737
 20
0.158
 21
0.146
  0
LINE
  8
0
 10
-0.737
 11
-0.738
 20
0.146
 21
0.134
  0
LINE
  8
0
 10
-0.738
 11
-0.743
 20
0.134
 21
0.123
  0
LINE
  8
0
 10
-0.743
 11
-0.75
 20
0.123
 21
0.114
  0
LINE
  8
0
 10
-0.75
 11
-0.759
 20
0.114
 21
0.107
  0
LINE
  8
0
 10
-0.759
 11
-0.77
 20
0.107
 21
0.102
  0
LINE
  8
0
 10
-0.77
 11
-0.782
 20
0.102
 21
0.101
  0
LINE
  8
0
 10
-0.782
 11
-0.794
 20
0.101
 21
0.102
  0
LINE
  8
0
 10
-0.794
 11
-0.805
 20
0.102
 21
0.107
  0
LINE
  8
0
 10
-0.805
 11
-0.814
 20
0.107
 21
0.114
  0
LINE
  8
0
 10
-0.814
 11
-0.821
 20
0.114
 21
0.123
  0
LINE
  8
0
 10
-0.821
 11
-0.826
 20
0.123
 21
0.134
  0
LINE
  8
0
 10
-0.826
 11
-0.827
 20
0.134
 21
0.146
  0
LINE
  8
0
 10
-0.827
 11
-0.826
 20
1.406
 21
1.417
  0
LINE
  8
0
 10
-0.826
 11
-0.821
 20
1.417
 21
1.428
  0
LINE
  8
0
 10
-0.821
 11
-0.814
 20
1.428
 21
1.438
  0
LINE
  8
0
 10
-0.814
 11
-0.805
 20
1.438
 21
1.445
  0
LINE
  8
0
 10
-0.805
 11
-0.794
 20
1.445
 21
1.449
  0
LINE
  8
0
 10
-0.794
 11
-0.782
 20
1.449
 21
1.451
  0
LINE
  8
0
 10
-0.782
 11
-0.77
 20
1.451
 21
1.449
  0
LINE
  8
0
 10
-0.77
 11
-0.759
 20
1.449
 21
1.445
  0
LINE
  8
0
 10
-0.759
 11
-0.75
 20
1.445
 21
1.438
  0
LINE
  8
0
 10
-0.75
 11
-0.743
 20
1.438
 21
1.428
  0
LINE
  8
0
 10
-0.743
 11
-0.738
 20
1.428
 21
1.417
  0
LINE
  8
0
 10
-0.738
 11
-0.737
 20
1.417
 21
1.406
  0
LINE
  8
0
 10
-0.737
 11
-0.738
 20
1.406
 21
1.394
  0
LINE
  8
0
 10
-0.738
 11
-0.743
 20
1.394
 21
1.383
  0
LINE
  8
0
 10
-0.743
 11
-0.75
 20
1.383
 21
1.374
  0
LINE
  8
0
 10
-0.75
 11
-0.759
 20
1.374
 21
1.366
  0
LINE
  8
0
 10
-0.759
 11
-0.77
 20
1.366
 21
1.362
  0
LINE
  8
0
 10
-0.77
 11
-0.782
 20
1.362
 21
1.36
  0
LINE
  8
0
 10
-0.782
 11
-0.794
 20
1.36
 21
1.362
  0
LINE
  8
0
 10
-0.794
 11
-0.805
 20
1.362
 21
1.366
  0
LINE
  8
0
 10
-0.805
 11
-0.814
 20
1.366
 21
1.374
  0
LINE
  8
0
 10
-0.814
 11
-0.821
 20
1.374
 21
1.383
  0
LINE
  8
0
 10
-0.821
 11
-0.826
 20
1.383
 21
1.394
  0
LINE
  8
0
 10
-0.826
 11
-0.827
 20
1.394
 21
1.406
  0
LINE
  8
0
 10
-0.247
 11
-0.245
 20
-0.879
 21
-0.864
  0
LINE
  8
0
 10
-0.245
 11
-0.239
 20
-0.864
 21
-0.851
  0
LINE
  8
0
 10
-0.239
 11
-0.23
 20
-0.851
 21
-0.839
  0
LINE
  8
0
 10
-0.23
 11
-0.218
 20
-0.839
 21
-0.829
  0
LINE
  8
0
 10
-0.218
 11
-0.204
 20
-0.829
 21
-0.824
  0
LINE
  8
0
 10
-0.204
 11
-0.189
 20
-0.824
 21
-0.822
  0
LINE
  8
0
 10
-0.189
 11
-0.175
 20
-0.822
 21
-0.824
  0
LINE
  8
0
 10
-0.175
 11
-0.161
 20
-0.824
 21
-0.829
  0
LINE
  8
0
 10
-0.161
 11
-0.149
 20
-0.829
 21
-0.839
  0
LINE
  8
0
 10
-0.149
 11
-0.14
 20
-0.839
 21
-0.851
  0
LINE
  8
0
 10
-0.14
 11
-0.134
 20
-0.851
 21
-0.864
  0
LINE
  8
0
 10
-0.134
 11
-0.132
 20
-0.864
 21
-0.879
  0
LINE
  8
0
 10
-0.132
 11
-0.134
 20
-0.879
 21
-0.894
  0
LINE
  8
0
 10
-0.134
 11
-0.14
 20
-0.894
 21
-0.908
  0
LINE
  8
0
 10
-0.14
 11
-0.149
 20
-0.908
 21
-0.92
  0
LINE
  8
0
 10
-0.149
 11
-0.161
 20
-0.92
 21
-0.929
  0
LINE
  8
0
 10
-0.161
 11
-0.175
 20
-0.929
 21
-0.935
  0
LINE
  8
0
 10
-0.175
 11
-0.189
 20
-0.935
 21
-0.937
  0
LINE
  8
0
 10
-0.189
 11
-0.204
 20
-0.937
 21
-0.935
  0
LINE
  8
0
 10
-0.204
 11
-0.218
 20
-0.935
 21
-0.929
  0
LINE
  8
0
 10
-0.218
 11
-0.23
 20
-0.929
 21
-0.92
  0
LINE
  8
0
 10
-0.23
 11
-0.239
 20
-0.92
 21
-0.908
  0
LINE
  8
0
 10
-0.239
 11
-0.245
 20
-0.908
 21
-0.894
  0
LINE
  8
0
 10
-0.245
 11
-0.247
 20
-0.894
 21
-0.879
  0
LINE
  8
0
 10
-0.246
 11
-0.244
 20
-2.06
 21
-2.046
  0
LINE
  8
0
 10
-0.244
 11
-0.238
 20
-2.046
 21
-2.032
  0
LINE
  8
0
 10
-0.238
 11
-0.229
 20
-2.032
 21
-2.02
  0
LINE
  8
0
 10
-0.229
 11
-0.218
 20
-2.02
 21
-2.011
  0
LINE
  8
0
 10
-0.218
 11
-0.204
 20
-2.011
 21
-2.005
  0
LINE
  8
0
 10
-0.204
 11
-0.189
 20
-2.005
 21
-2.003
  0
LINE
  8
0
 10
-0.189
 11
-0.174
 20
-2.003
 21
-2.005
  0
LINE
  8
0
 10
-0.174
 11
-0.16
 20
-2.005
 21
-2.011
  0
LINE
  8
0
 10
-0.16
 11
-0.149
 20
-2.011
 21
-2.02
  0
LINE
  8
0
 10
-0.149
 11
-0.14
 20
-2.02
 21
-2.032
  0
LINE
  8
0
 10
-0.14
 11
-0.134
 20
-2.032
 21
-2.046
  0
LINE
  8
0
 10
-0.134
 11
-0.132
 20
-2.046
 21
-2.06
  0
LINE
  8
0
 10
-0.132
 11
-0.134
 20
-2.06
 21
-2.075
  0
LINE
  8
0
 10
-0.134
 11
-0.14
 20
-2.075
 21
-2.089
  0
LINE
  8
0
 10
-0.14
 11
-0.149
 20
-2.089
 21
-2.101
  0
LINE
  8
0
 10
-0.149
 11
-0.16
 20
-2.101
 21
-2.11
  0
LINE
  8
0
 10
-0.16
 11
-0.174
 20
-2.11
 21
-2.115
  0
LINE
  8
0
 10
-0.174
 11
-0.189
 20
-2.115
 21
-2.117
  0
LINE
  8
0
 10
-0.189
 11
-0.204
 20
-2.117
 21
-2.115
  0
LINE
  8
0
 10
-0.204
 11
-0.218
 20
-2.115
 21
-2.11
  0
LINE
  8
0
 10
-0.218
 11
-0.229
 20
-2.11
 21
-2.101
  0
LINE
  8
0
 10
-0.229
 11
-0.238
 20
-2.101
 21
-2.089
  0
LINE
  8
0
 10
-0.238
 11
-0.244
 20
-2.089
 21
-2.075
  0
LINE
  8
0
 10
-0.244
 11
-0.246
 20
-2.075
 21
-2.06
  0
LINE
  8
0
 10
0.271
 11
0.271
 20
-1.551
 21
-1.287
  0
LINE
  8
0
 10
0.271
 11
0.275
 20
-1.287
 21
-1.261
  0
LINE
  8
0
 10
0.275
 11
0.285
 20
-1.261
 21
-1.237
  0
LINE
  8
0
 10
0.285
 11
0.301
 20
-1.237
 21
-1.216
  0
LINE
  8
0
 10
0.301
 11
0.321
 20
-1.216
 21
-1.2
  0
LINE
  8
0
 10
0.321
 11
0.345
 20
-1.2
 21
-1.19
  0
LINE
  8
0
 10
0.345
 11
0.371
 20
-1.19
 21
-1.187
  0
LINE
  8
0
 10
0.371
 11
0.478
 20
-1.187
 21
-1.187
  0
LINE
  8
0
 10
0.478
 11
0.504
 20
-1.187
 21
-1.19
  0
LINE
  8
0
 10
0.504
 11
0.528
 20
-1.19
 21
-1.2
  0
LINE
  8
0
 10
0.528
 11
0.549
 20
-1.2
 21
-1.216
  0
LINE
  8
0
 10
0.549
 11
0.565
 20
-1.216
 21
-1.237
  0
LINE
  8
0
 10
0.565
 11
0.575
 20
-1.237
 21
-1.261
  0
LINE
  8
0
 10
0.575
 11
0.578
 20
-1.261
 21
-1.287
  0
LINE
  8
0
 10
0.578
 11
0.578
 20
-1.287
 21
-1.551
  0
LINE
  8
0
 10
0.578
 11
0.575
 20
-1.551
 21
-1.577
  0
LINE
  8
0
 10
0.575
 11
0.565
 20
-1.577
 21
-1.601
  0
LINE
  8
0
 10
0.565
 11
0.549
 20
-1.601
 21
-1.622
  0
LINE
  8
0
 10
0.549
 11
0.528
 20
-1.622
 21
-1.638
  0
LINE
  8
0
 10
0.528
 11
0.504
 20
-1.638
 21
-1.648
  0
LINE
  8
0
 10
0.504
 11
0.478
 20
-1.648
 21
-1.651
  0
LINE
  8
0
 10
0.478
 11
0.371
 20
-1.651
 21
-1.651
  0
LINE
  8
0
 10
0.371
 11
0.345
 20
-1.651
 21
-1.648
  0
LINE
  8
0
 10
0.345
 11
0.321
 20
-1.648
 21
-1.638
  0
LINE
  8
0
 10
0.321
 11
0.301
 20
-1.638
 21
-1.622
  0
LINE
  8
0
 10
0.301
 11
0.285
 20
-1.622
 21
-1.601
  0
LINE
  8
0
 10
0.285
 11
0.275
 20
-1.601
 21
-1.577
  0
LINE
  8
0
 10
0.275
 11
0.271
 20
-1.577
 21
-1.551
  0
LINE
  8
0
 10
0.368
 11
0.37
 20
2.012
 21
2.026
  0
LINE
  8
0
 10
0.37
 11
0.375
 20
2.026
 21
2.04
  0
LINE
  8
0
 10
0.375
 11
0.385
 20
2.04
 21
2.052
  0
LINE
  8
0
 10
0.385
 11
0.396
 20
2.052
 21
2.061
  0
LINE
  8
0
 10
0.396
 11
0.41
 20
2.061
 21
2.067
  0
LINE
  8
0
 10
0.41
 11
0.425
 20
2.067
 21
2.069
  0
LINE
  8
0
 10
0.425
 11
0.44
 20
2.069
 21
2.067
  0
LINE
  8
0
 10
0.44
 11
0.454
 20
2.067
 21
2.061
  0
LINE
  8
0
 10
0.454
 11
0.465
 20
2.061
 21
2.052
  0
LINE
  8
0
 10
0.465
 11
0.474
 20
2.052
 21
2.04
  0
LINE
  8
0
 10
0.474
 11
0.48
 20
2.04
 21
2.026
  0
LINE
  8
0
 10
0.48
 11
0.482
 20
2.026
 21
2.012
  0
LINE
  8
0
 10
0.482
 11
0.48
 20
2.012
 21
1.997
  0
LINE
  8
0
 10
0.48
 11
0.474
 20
1.997
 21
1.983
  0
LINE
  8
0
 10
0.474
 11
0.465
 20
1.983
 21
1.971
  0
LINE
  8
0
 10
0.465
 11
0.454
 20
1.971
 21
1.962
  0
LINE
  8
0
 10
0.454
 11
0.44
 20
1.962
 21
1.956
  0
LINE
  8
0
 10
0.44
 11
0.425
 20
1.956
 21
1.954
  0
LINE
  8
0
 10
0.425
 11
0.41
 20
1.954
 21
1.956
  0
LINE
  8
0
 10
0.41
 11
0.396
 20
1.956
 21
1.962
  0
LINE
  8
0
 10
0.396
 11
0.385
 20
1.962
 21
1.971
  0
LINE
  8
0
 10
0.385
 11
0.375
 20
1.971
 21
1.983
  0
LINE
  8
0
 10
0.375
 11
0.37
 20
1.983
 21
1.997
  0
LINE
  8
0
 10
0.37
 11
0.368
 20
1.997
 21
2.012
  0
LINE
  8
0
 10
0.432
 11
0.434
 20
0.146
 21
0.158
  0
LINE
  8
0
 10
0.434
 11
0.438
 20
0.158
 21
0.168
  0
LINE
  8
0
 10
0.438
 11
0.446
 20
0.168
 21
0.178
  0
LINE
  8
0
 10
0.446
 11
0.455
 20
0.178
 21
0.185
  0
LINE
  8
0
 10
0.455
 11
0.466
 20
0.185
 21
0.19
  0
LINE
  8
0
 10
0.466
 11
0.478
 20
0.19
 21
0.191
  0
LINE
  8
0
 10
0.478
 11
0.489
 20
0.191
 21
0.19
  0
LINE
  8
0
 10
0.489
 11
0.5
 20
0.19
 21
0.185
  0
LINE
  8
0
 10
0.5
 11
0.51
 20
0.185
 21
0.178
  0
LINE
  8
0
 10
0.51
 11
0.517
 20
0.178
 21
0.168
  0
LINE
  8
0
 10
0.517
 11
0.521
 20
0.168
 21
0.158
  0
LINE
  8
0
 10
0.521
 11
0.523
 20
0.158
 21
0.146
  0
LINE
  8
0
 10
0.523
 11
0.521
 20
0.146
 21
0.134
  0
LINE
  8
0
 10
0.521
 11
0.517
 20
0.134
 21
0.123
  0
LINE
  8
0
 10
0.517
 11
0.51
 20
0.123
 21
0.114
  0
LINE
  8
0
 10
0.51
 11
0.5
 20
0.114
 21
0.107
  0
LINE
  8
0
 10
0.5
 11
0.489
 20
0.107
 21
0.102
  0
LINE
  8
0
 10
0.489
 11
0.478
 20
0.102
 21
0.101
  0
LINE
  8
0
 10
0.478
 11
0.466
 20
0.101
 21
0.102
  0
LINE
  8
0
 10
0.466
 11
0.455
 20
0.102
 21
0.107
  0
LINE
  8
0
 10
0.455
 11
0.446
 20
0.107
 21
0.114
  0
LINE
  8
0
 10
0.446
 11
0.438
 20
0.114
 21
0.123
  0
LINE
  8
0
 10
0.438
 11
0.434
 20
0.123
 21
0.134
  0
LINE
  8
0
 10
0.434
 11
0.432
 20
0.134
 21
0.146
  0
LINE
  8
0
 10
1.318
 11
1.32
 20
1.108
 21
1.123
  0
LINE
  8
0
 10
1.32
 11
1.326
 20
1.123
 21
1.137
  0
LINE
  8
0
 10
1.326
 11
1.335
 20
1.137
 21
1.148
  0
LINE
  8
0
 10
1.335
 11
1.347
 20
1.148
 21
1.157
  0
LINE
  8
0
 10
1.347
 11
1.36
 20
1.157
 21
1.163
  0
LINE
  8
0
 10
1.36
 11
1.375
 20
1.163
 21
1.165
  0
LINE
  8
0
 10
1.375
 11
1.39
 20
1.165
 21
1.163
  0
LINE
  8
0
 10
1.39
 11
1.404
 20
1.163
 21
1.157
  0
LINE
  8
0
 10
1.404
 11
1.415
 20
1.157
 21
1.148
  0
LINE
  8
0
 10
1.415
 11
1.425
 20
1.148
 21
1.137
  0
LINE
  8
0
 10
1.425
 11
1.43
 20
1.137
 21
1.123
  0
LINE
  8
0
 10
1.43
 11
1.432
 20
1.123
 21
1.108
  0
LINE
  8
0
 10
1.432
 11
1.43
 20
1.108
 21
1.093
  0
LINE
  8
0
 10
1.43
 11
1.425
 20
1.093
 21
1.079
  0
LINE
  8
0
 10
1.425
 11
1.415
 20
1.079
 21
1.068
  0
LINE
  8
0
 10
1.415
 11
1.404
 20
1.068
 21
1.058
  0
LINE
  8
0
 10
1.404
 11
1.39
 20
1.058
 21
1.053
  0
LINE
  8
0
 10
1.39
 11
1.375
 20
1.053
 21
1.051
  0
LINE
  8
0
 10
1.375
 11
1.36
 20
1.051
 21
1.053
  0
LINE
  8
0
 10
1.36
 11
1.347
 20
1.053
 21
1.058
  0
LINE
  8
0
 10
1.347
 11
1.335
 20
1.058
 21
1.068
  0
LINE
  8
0
 10
1.335
 11
1.326
 20
1.068
 21
1.079
  0
LINE
  8
0
 10
1.326
 11
1.32
 20
1.079
 21
1.093
  0
LINE
  8
0
 10
1.32
 11
1.318
 20
1.093
 21
1.108
  0
LINE
  8
0
 10
1.319
 11
1.32
 20
1.266
 21
1.28
  0
LINE
  8
0
 10
1.32
 11
1.326
 20
1.28
 21
1.294
  0
LINE
  8
0
 10
1.326
 11
1.335
 20
1.294
 21
1.306
  0
LINE
  8
0
 10
1.335
 11
1.347
 20
1.306
 21
1.315
  0
LINE
  8
0
 10
1.347
 11
1.36
 20
1.315
 21
1.32
  0
LINE
  8
0
 10
1.36
 11
1.375
 20
1.32
 21
1.322
  0
LINE
  8
0
 10
1.375
 11
1.39
 20
1.322
 21
1.32
  0
LINE
  8
0
 10
1.39
 11
1.403
 20
1.32
 21
1.315
  0
LINE
  8
0
 10
1.403
 11
1.415
 20
1.315
 21
1.306
  0
LINE
  8
0
 10
1.415
 11
1.424
 20
1.306
 21
1.294
  0
LINE
  8
0
 10
1.424
 11
1.43
 20
1.294
 21
1.28
  0
LINE
  8
0
 10
1.43
 11
1.432
 20
1.28
 21
1.266
  0
LINE
  8
0
 10
1.432
 11
1.43
 20
1.266
 21
1.251
  0
LINE
  8
0
 10
1.43
 11
1.424
 20
1.251
 21
1.237
  0
LINE
  8
0
 10
1.424
 11
1.415
 20
1.237
 21
1.225
  0
LINE
  8
0
 10
1.415
 11
1.403
 20
1.225
 21
1.217
  0
LINE
  8
0
 10
1.403
 11
1.39
 20
1.217
 21
1.211
  0
LINE
  8
0
 10
1.39
 11
1.375
 20
1.211
 21
1.209
  0
LINE
  8
0
 10
1.375
 11
1.36
 20
1.209
 21
1.211
  0
LINE
  8
0
 10
1.36
 11
1.347
 20
1.211
 21
1.217
  0
LINE
  8
0
 10
1.347
 11
1.335
 20
1.217
 21
1.225
  0
LINE
  8
0
 10
1.335
 11
1.326
 20
1.225
 21
1.237
  0
LINE
  8
0
 10
1.326
 11
1.32
 20
1.237
 21
1.251
  0
LINE
  8
0
 10
1.32
 11
1.319
 20
1.251
 21
1.266
  0
ENDSEC
  0
SECTION
  2
OBJECTS
  0
DICTIONARY
  0
ENDSEC
  0
EOF
