  0
SECTION
  2
BLOCKS
  0
ENDSEC
  0
SECTION
  2
ENTITIES
  0
LINE
  8
0
 10
0.106997
 20
-1.01801
 11
0.17775
 21
-1.00807
  0
LINE
  8
0
 10
0.17775
 20
-1.00807
 11
2.03354
 21
-0.659123
  0
LINE
  8
0
 10
2.03354
 20
-0.659123
 11
2.07924
 21
-0.64941
  0
LINE
  8
0
 10
2.07924
 20
-0.64941
 11
2.12414
 21
-0.636534
  0
LINE
  8
0
 10
2.12414
 20
-0.636534
 11
2.16804
 21
-0.620556
  0
LINE
  8
0
 10
2.16804
 20
-0.620556
 11
2.21072
 21
-0.601555
  0
LINE
  8
0
 10
2.21072
 20
-0.601555
 11
2.25197
 21
-0.579623
  0
LINE
  8
0
 10
2.25197
 20
-0.579623
 11
2.29159
 21
-0.554867
  0
LINE
  8
0
 10
2.29159
 20
-0.554867
 11
2.32938
 21
-0.527409
  0
LINE
  8
0
 10
2.32938
 20
-0.527409
 11
2.36517
 21
-0.49738
  0
LINE
  8
0
 10
2.36517
 20
-0.49738
 11
2.39877
 21
-0.464929
  0
LINE
  8
0
 10
2.39877
 20
-0.464929
 11
2.43003
 21
-0.430212
  0
LINE
  8
0
 10
2.43003
 20
-0.430212
 11
2.45879
 21
-0.393399
  0
LINE
  8
0
 10
2.45879
 20
-0.393399
 11
2.48491
 21
-0.35467
  0
LINE
  8
0
 10
2.48491
 20
-0.35467
 11
2.50827
 21
-0.314213
  0
LINE
  8
0
 10
2.50827
 20
-0.314213
 11
2.52875
 21
-0.272225
  0
LINE
  8
0
 10
2.52875
 20
-0.272225
 11
2.54625
 21
-0.228911
  0
LINE
  8
0
 10
2.54625
 20
-0.228911
 11
2.56069
 21
-0.184481
  0
LINE
  8
0
 10
2.56069
 20
-0.184481
 11
2.57199
 21
-0.139153
  0
LINE
  8
0
 10
2.57199
 20
-0.139153
 11
2.5801
 21
-0.0931471
  0
LINE
  8
0
 10
2.5801
 20
-0.0931471
 11
2.58498
 21
-0.0466871
  0
LINE
  8
0
 10
2.58498
 20
-0.0466871
 11
2.58661
 21
0
  0
LINE
  8
0
 10
2.58661
 20
0
 11
2.58498
 21
0.0466871
  0
LINE
  8
0
 10
2.58498
 20
0.0466871
 11
2.5801
 21
0.0931471
  0
LINE
  8
0
 10
2.5801
 20
0.0931471
 11
2.57199
 21
0.139153
  0
LINE
  8
0
 10
2.57199
 20
0.139153
 11
2.56069
 21
0.184481
  0
LINE
  8
0
 10
2.56069
 20
0.184481
 11
2.54625
 21
0.228911
  0
LINE
  8
0
 10
2.54625
 20
0.228911
 11
2.52875
 21
0.272225
  0
LINE
  8
0
 10
2.52875
 20
0.272225
 11
2.50827
 21
0.314213
  0
LINE
  8
0
 10
2.50827
 20
0.314213
 11
2.48491
 21
0.35467
  0
LINE
  8
0
 10
2.48491
 20
0.35467
 11
2.45879
 21
0.393399
  0
LINE
  8
0
 10
2.45879
 20
0.393399
 11
2.43003
 21
0.430212
  0
LINE
  8
0
 10
2.43003
 20
0.430212
 11
2.39877
 21
0.464929
  0
LINE
  8
0
 10
2.39877
 20
0.464929
 11
2.36517
 21
0.49738
  0
LINE
  8
0
 10
2.36517
 20
0.49738
 11
2.32938
 21
0.527409
  0
LINE
  8
0
 10
2.32938
 20
0.527409
 11
2.29159
 21
0.554867
  0
LINE
  8
0
 10
2.29159
 20
0.554867
 11
2.25197
 21
0.579623
  0
LINE
  8
0
 10
2.25197
 20
0.579623
 11
2.21072
 21
0.601555
  0
LINE
  8
0
 10
2.21072
 20
0.601555
 11
2.16804
 21
0.620556
  0
LINE
  8
0
 10
2.16804
 20
0.620556
 11
2.12414
 21
0.636534
  0
LINE
  8
0
 10
2.12414
 20
0.636534
 11
2.07924
 21
0.64941
  0
LINE
  8
0
 10
2.07924
 20
0.64941
 11
2.03354
 21
0.659123
  0
LINE
  8
0
 10
2.03354
 20
0.659123
 11
0.17775
 21
1.00807
  0
LINE
  8
0
 10
0.17775
 20
1.00807
 11
0.106997
 21
1.01801
  0
LINE
  8
0
 10
0.106997
 20
1.01801
 11
0.0357236
 21
1.023
  0
LINE
  8
0
 10
0.0357236
 20
1.023
 11
-0.0357236
 21
1.023
  0
LINE
  8
0
 10
-0.0357236
 20
1.023
 11
-0.106997
 21
1.01801
  0
LINE
  8
0
 10
-0.106997
 20
1.01801
 11
-0.17775
 21
1.00807
  0
LINE
  8
0
 10
-0.17775
 20
1.00807
 11
-0.247636
 21
0.993216
  0
LINE
  8
0
 10
-0.247636
 20
0.993216
 11
-0.316316
 21
0.973522
  0
LINE
  8
0
 10
-0.316316
 20
0.973522
 11
-0.383455
 21
0.949085
  0
LINE
  8
0
 10
-0.383455
 20
0.949085
 11
-0.448726
 21
0.920025
  0
LINE
  8
0
 10
-0.448726
 20
0.920025
 11
-0.51181
 21
0.886482
  0
LINE
  8
0
 10
-0.51181
 20
0.886482
 11
-0.572402
 21
0.848621
  0
LINE
  8
0
 10
-0.572402
 20
0.848621
 11
-0.630204
 21
0.806625
  0
LINE
  8
0
 10
-0.630204
 20
0.806625
 11
-0.684936
 21
0.760699
  0
LINE
  8
0
 10
-0.684936
 20
0.760699
 11
-0.736331
 21
0.711067
  0
LINE
  8
0
 10
-0.736331
 20
0.711067
 11
-0.78414
 21
0.657971
  0
LINE
  8
0
 10
-0.78414
 20
0.657971
 11
-0.828128
 21
0.60167
  0
LINE
  8
0
 10
-0.828128
 20
0.60167
 11
-0.86808
 21
0.542437
  0
LINE
  8
0
 10
-0.86808
 20
0.542437
 11
-0.903805
 21
0.480561
  0
LINE
  8
0
 10
-0.903805
 20
0.480561
 11
-0.935125
 21
0.416344
  0
LINE
  8
0
 10
-0.935125
 20
0.416344
 11
-0.96189
 21
0.350099
  0
LINE
  8
0
 10
-0.96189
 20
0.350099
 11
-0.983968
 21
0.282148
  0
LINE
  8
0
 10
-0.983968
 20
0.282148
 11
-1.00125
 21
0.212823
  0
LINE
  8
0
 10
-1.00125
 20
0.212823
 11
-1.01366
 21
0.142461
  0
LINE
  8
0
 10
-1.01366
 20
0.142461
 11
-1.02113
 21
0.0714039
  0
LINE
  8
0
 10
-1.02113
 20
0.0714039
 11
-1.02362
 21
0
  0
LINE
  8
0
 10
-1.02362
 20
0
 11
-1.02113
 21
-0.0714039
  0
LINE
  8
0
 10
-1.02113
 20
-0.0714039
 11
-1.01366
 21
-0.142461
  0
LINE
  8
0
 10
-1.01366
 20
-0.142461
 11
-1.00125
 21
-0.212823
  0
LINE
  8
0
 10
-1.00125
 20
-0.212823
 11
-0.983968
 21
-0.282148
  0
LINE
  8
0
 10
-0.983968
 20
-0.282148
 11
-0.96189
 21
-0.350099
  0
LINE
  8
0
 10
-0.96189
 20
-0.350099
 11
-0.935125
 21
-0.416344
  0
LINE
  8
0
 10
-0.935125
 20
-0.416344
 11
-0.903805
 21
-0.480561
  0
LINE
  8
0
 10
-0.903805
 20
-0.480561
 11
-0.86808
 21
-0.542437
  0
LINE
  8
0
 10
-0.86808
 20
-0.542437
 11
-0.828128
 21
-0.60167
  0
LINE
  8
0
 10
-0.828128
 20
-0.60167
 11
-0.78414
 21
-0.657971
  0
LINE
  8
0
 10
-0.78414
 20
-0.657971
 11
-0.736331
 21
-0.711067
  0
LINE
  8
0
 10
-0.736331
 20
-0.711067
 11
-0.684936
 21
-0.760699
  0
LINE
  8
0
 10
-0.684936
 20
-0.760699
 11
-0.630204
 21
-0.806625
  0
LINE
  8
0
 10
-0.630204
 20
-0.806625
 11
-0.572402
 21
-0.848621
  0
LINE
  8
0
 10
-0.572402
 20
-0.848621
 11
-0.511811
 21
-0.886482
  0
LINE
  8
0
 10
-0.511811
 20
-0.886482
 11
-0.448726
 21
-0.920025
  0
LINE
  8
0
 10
-0.448726
 20
-0.920025
 11
-0.383455
 21
-0.949085
  0
LINE
  8
0
 10
-0.383455
 20
-0.949085
 11
-0.316316
 21
-0.973522
  0
LINE
  8
0
 10
-0.316316
 20
-0.973522
 11
-0.247636
 21
-0.993216
  0
LINE
  8
0
 10
-0.247636
 20
-0.993216
 11
-0.17775
 21
-1.00807
  0
LINE
  8
0
 10
-0.17775
 20
-1.00807
 11
-0.106997
 21
-1.01801
  0
LINE
  8
0
 10
-0.106997
 20
-1.01801
 11
-0.0357236
 21
-1.023
  0
LINE
  8
0
 10
-0.0357236
 20
-1.023
 11
0.0357236
 21
-1.023
  0
LINE
  8
0
 10
0.0357236
 20
-1.023
 11
0.106997
 21
-1.01801
  0
LINE
  8
0
 10
-0.435648
 20
0.551357
 11
-0.443178
 21
0.552001
  0
LINE
  8
0
 10
-0.443178
 20
0.552001
 11
-0.450644
 21
0.553167
  0
LINE
  8
0
 10
-0.450644
 20
0.553167
 11
-0.458011
 21
0.554852
  0
LINE
  8
0
 10
-0.458011
 20
0.554852
 11
-0.465242
 21
0.557047
  0
LINE
  8
0
 10
-0.465242
 20
0.557047
 11
-0.472303
 21
0.55974
  0
LINE
  8
0
 10
-0.472303
 20
0.55974
 11
-0.479158
 21
0.56292
  0
LINE
  8
0
 10
-0.479158
 20
0.56292
 11
-0.485776
 21
0.56657
  0
LINE
  8
0
 10
-0.485776
 20
0.56657
 11
-0.492122
 21
0.570673
  0
LINE
  8
0
 10
-0.492122
 20
0.570673
 11
-0.498166
 21
0.575209
  0
LINE
  8
0
 10
-0.498166
 20
0.575209
 11
-0.50388
 21
0.580155
  0
LINE
  8
0
 10
-0.50388
 20
0.580155
 11
-0.509234
 21
0.585487
  0
LINE
  8
0
 10
-0.509234
 20
0.585487
 11
-0.514204
 21
0.591181
  0
LINE
  8
0
 10
-0.514204
 20
0.591181
 11
-0.518764
 21
0.597207
  0
LINE
  8
0
 10
-0.518764
 20
0.597207
 11
-0.522893
 21
0.603536
  0
LINE
  8
0
 10
-0.522893
 20
0.603536
 11
-0.526571
 21
0.610138
  0
LINE
  8
0
 10
-0.526571
 20
0.610138
 11
-0.529778
 21
0.61698
  0
LINE
  8
0
 10
-0.529778
 20
0.61698
 11
-0.5325
 21
0.624029
  0
LINE
  8
0
 10
-0.5325
 20
0.624029
 11
-0.534725
 21
0.631251
  0
LINE
  8
0
 10
-0.534725
 20
0.631251
 11
-0.53644
 21
0.638611
  0
LINE
  8
0
 10
-0.53644
 20
0.638611
 11
-0.537637
 21
0.646073
  0
LINE
  8
0
 10
-0.537637
 20
0.646073
 11
-0.538311
 21
0.6536
  0
LINE
  8
0
 10
-0.538311
 20
0.6536
 11
-0.538459
 21
0.661156
  0
LINE
  8
0
 10
-0.538459
 20
0.661156
 11
-0.538079
 21
0.668703
  0
LINE
  8
0
 10
-0.538079
 20
0.668703
 11
-0.537174
 21
0.676205
  0
LINE
  8
0
 10
-0.537174
 20
0.676205
 11
-0.535746
 21
0.683627
  0
LINE
  8
0
 10
-0.535746
 20
0.683627
 11
-0.533805
 21
0.69093
  0
LINE
  8
0
 10
-0.533805
 20
0.69093
 11
-0.53136
 21
0.69808
  0
LINE
  8
0
 10
-0.53136
 20
0.69808
 11
-0.528421
 21
0.705043
  0
LINE
  8
0
 10
-0.528421
 20
0.705043
 11
-0.525004
 21
0.711782
  0
LINE
  8
0
 10
-0.525004
 20
0.711782
 11
-0.521126
 21
0.718268
  0
LINE
  8
0
 10
-0.521126
 20
0.718268
 11
-0.516804
 21
0.724467
  0
LINE
  8
0
 10
-0.516804
 20
0.724467
 11
-0.51206
 21
0.730351
  0
LINE
  8
0
 10
-0.51206
 20
0.730351
 11
-0.506918
 21
0.735888
  0
LINE
  8
0
 10
-0.506918
 20
0.735888
 11
-0.501401
 21
0.741053
  0
LINE
  8
0
 10
-0.501401
 20
0.741053
 11
-0.495539
 21
0.74582
  0
LINE
  8
0
 10
-0.495539
 20
0.74582
 11
-0.489358
 21
0.750168
  0
LINE
  8
0
 10
-0.489358
 20
0.750168
 11
-0.483454
 21
0.753731
  0
LINE
  8
0
 10
-0.483454
 20
0.753731
 11
-0.477747
 21
0.757614
  0
LINE
  8
0
 10
-0.477747
 20
0.757614
 11
-0.471793
 21
0.761084
  0
LINE
  8
0
 10
-0.471793
 20
0.761084
 11
-0.466024
 21
0.764882
  0
LINE
  8
0
 10
-0.466024
 20
0.764882
 11
-0.46001
 21
0.768263
  0
LINE
  8
0
 10
-0.46001
 20
0.768263
 11
-0.45419
 21
0.771967
  0
LINE
  8
0
 10
-0.45419
 20
0.771967
 11
-0.448121
 21
0.775259
  0
LINE
  8
0
 10
-0.448121
 20
0.775259
 11
-0.442248
 21
0.77887
  0
LINE
  8
0
 10
-0.442248
 20
0.77887
 11
-0.436132
 21
0.782066
  0
LINE
  8
0
 10
-0.436132
 20
0.782066
 11
-0.430202
 21
0.785588
  0
LINE
  8
0
 10
-0.430202
 20
0.785588
 11
-0.424041
 21
0.788687
  0
LINE
  8
0
 10
-0.424041
 20
0.788687
 11
-0.418053
 21
0.79212
  0
LINE
  8
0
 10
-0.418053
 20
0.79212
 11
-0.411841
 21
0.795126
  0
LINE
  8
0
 10
-0.411841
 20
0.795126
 11
-0.405806
 21
0.798464
  0
LINE
  8
0
 10
-0.405806
 20
0.798464
 11
-0.399551
 21
0.801372
  0
LINE
  8
0
 10
-0.399551
 20
0.801372
 11
-0.393462
 21
0.804618
  0
LINE
  8
0
 10
-0.393462
 20
0.804618
 11
-0.387162
 21
0.80743
  0
LINE
  8
0
 10
-0.387162
 20
0.80743
 11
-0.381025
 21
0.810582
  0
LINE
  8
0
 10
-0.381025
 20
0.810582
 11
-0.374677
 21
0.813299
  0
LINE
  8
0
 10
-0.374677
 20
0.813299
 11
-0.368496
 21
0.816353
  0
LINE
  8
0
 10
-0.368496
 20
0.816353
 11
-0.362116
 21
0.818969
  0
LINE
  8
0
 10
-0.362116
 20
0.818969
 11
-0.355881
 21
0.821931
  0
LINE
  8
0
 10
-0.355881
 20
0.821931
 11
-0.349461
 21
0.824449
  0
LINE
  8
0
 10
-0.349461
 20
0.824449
 11
-0.343182
 21
0.827314
  0
LINE
  8
0
 10
-0.343182
 20
0.827314
 11
-0.336722
 21
0.829733
  0
LINE
  8
0
 10
-0.336722
 20
0.829733
 11
-0.330401
 21
0.832501
  0
LINE
  8
0
 10
-0.330401
 20
0.832501
 11
-0.323905
 21
0.83482
  0
LINE
  8
0
 10
-0.323905
 20
0.83482
 11
-0.317542
 21
0.837489
  0
LINE
  8
0
 10
-0.317542
 20
0.837489
 11
-0.311014
 21
0.839707
  0
LINE
  8
0
 10
-0.311014
 20
0.839707
 11
-0.304608
 21
0.84228
  0
LINE
  8
0
 10
-0.304608
 20
0.84228
 11
-0.298049
 21
0.844396
  0
LINE
  8
0
 10
-0.298049
 20
0.844396
 11
-0.291601
 21
0.846871
  0
LINE
  8
0
 10
-0.291601
 20
0.846871
 11
-0.285005
 21
0.848888
  0
LINE
  8
0
 10
-0.285005
 20
0.848888
 11
-0.278525
 21
0.851261
  0
LINE
  8
0
 10
-0.278525
 20
0.851261
 11
-0.271894
 21
0.853177
  0
LINE
  8
0
 10
-0.271894
 20
0.853177
 11
-0.265383
 21
0.855449
  0
LINE
  8
0
 10
-0.265383
 20
0.855449
 11
-0.258723
 21
0.857263
  0
LINE
  8
0
 10
-0.258723
 20
0.857263
 11
-0.252179
 21
0.859435
  0
LINE
  8
0
 10
-0.252179
 20
0.859435
 11
-0.245498
 21
0.861144
  0
LINE
  8
0
 10
-0.245498
 20
0.861144
 11
-0.238914
 21
0.863216
  0
LINE
  8
0
 10
-0.238914
 20
0.863216
 11
-0.232209
 21
0.864822
  0
LINE
  8
0
 10
-0.232209
 20
0.864822
 11
-0.225593
 21
0.866793
  0
LINE
  8
0
 10
-0.225593
 20
0.866793
 11
-0.218855
 21
0.868298
  0
LINE
  8
0
 10
-0.218855
 20
0.868298
 11
-0.212217
 21
0.870164
  0
LINE
  8
0
 10
-0.212217
 20
0.870164
 11
-0.205459
 21
0.871565
  0
LINE
  8
0
 10
-0.205459
 20
0.871565
 11
-0.198793
 21
0.873329
  0
LINE
  8
0
 10
-0.198793
 20
0.873329
 11
-0.192013
 21
0.874626
  0
LINE
  8
0
 10
-0.192013
 20
0.874626
 11
-0.18532
 21
0.876287
  0
LINE
  8
0
 10
-0.18532
 20
0.876287
 11
-0.178524
 21
0.877478
  0
LINE
  8
0
 10
-0.178524
 20
0.877478
 11
-0.171804
 21
0.879037
  0
LINE
  8
0
 10
-0.171804
 20
0.879037
 11
-0.164991
 21
0.880123
  0
LINE
  8
0
 10
-0.164991
 20
0.880123
 11
-0.158247
 21
0.881578
  0
LINE
  8
0
 10
-0.158247
 20
0.881578
 11
-0.151421
 21
0.882559
  0
LINE
  8
0
 10
-0.151421
 20
0.882559
 11
-0.144653
 21
0.88391
  0
LINE
  8
0
 10
-0.144653
 20
0.88391
 11
-0.137806
 21
0.884787
  0
LINE
  8
0
 10
-0.137806
 20
0.884787
 11
-0.131024
 21
0.886033
  0
LINE
  8
0
 10
-0.131024
 20
0.886033
 11
-0.124171
 21
0.886803
  0
LINE
  8
0
 10
-0.124171
 20
0.886803
 11
-0.117364
 21
0.887946
  0
LINE
  8
0
 10
-0.117364
 20
0.887946
 11
-0.110494
 21
0.888611
  0
LINE
  8
0
 10
-0.110494
 20
0.888611
 11
-0.103676
 21
0.889648
  0
LINE
  8
0
 10
-0.103676
 20
0.889648
 11
-0.096799
 21
0.890207
  0
LINE
  8
0
 10
-0.096799
 20
0.890207
 11
-0.0899638
 21
0.891139
  0
LINE
  8
0
 10
-0.0899638
 20
0.891139
 11
-0.0830829
 21
0.891591
  0
LINE
  8
0
 10
-0.0830829
 20
0.891591
 11
-0.0762303
 21
0.892419
  0
LINE
  8
0
 10
-0.0762303
 20
0.892419
 11
-0.069341
 21
0.892766
  0
LINE
  8
0
 10
-0.069341
 20
0.892766
 11
-0.0624781
 21
0.893487
  0
LINE
  8
0
 10
-0.0624781
 20
0.893487
 11
-0.0549262
 21
0.893751
  0
LINE
  8
0
 10
-0.0549262
 20
0.893751
 11
-0.0473743
 21
0.893487
  0
LINE
  8
0
 10
-0.0473743
 20
0.893487
 11
-0.0398585
 21
0.892697
  0
LINE
  8
0
 10
-0.0398585
 20
0.892697
 11
-0.0324159
 21
0.891384
  0
LINE
  8
0
 10
-0.0324159
 20
0.891384
 11
-0.0250833
 21
0.889556
  0
LINE
  8
0
 10
-0.0250833
 20
0.889556
 11
-0.017896
 21
0.887221
  0
LINE
  8
0
 10
-0.017896
 20
0.887221
 11
-0.0108896
 21
0.88439
  0
LINE
  8
0
 10
-0.0108896
 20
0.88439
 11
-0.00409704
 21
0.881077
  0
LINE
  8
0
 10
-0.00409704
 20
0.881077
 11
0.00244621
 21
0.877299
  0
LINE
  8
0
 10
0.00244621
 20
0.877299
 11
0.00871133
 21
0.873074
  0
LINE
  8
0
 10
0.00871133
 20
0.873074
 11
0.0146665
 21
0.868421
  0
LINE
  8
0
 10
0.0146665
 20
0.868421
 11
0.0202822
 21
0.863364
  0
LINE
  8
0
 10
0.0202822
 20
0.863364
 11
0.025532
 21
0.857928
  0
LINE
  8
0
 10
0.025532
 20
0.857928
 11
0.030389
 21
0.852139
  0
LINE
  8
0
 10
0.030389
 20
0.852139
 11
0.0348315
 21
0.846025
  0
LINE
  8
0
 10
0.0348315
 20
0.846025
 11
0.0388354
 21
0.839617
  0
LINE
  8
0
 10
0.0388354
 20
0.839617
 11
0.042384
 21
0.832944
  0
LINE
  8
0
 10
0.042384
 20
0.832944
 11
0.0454574
 21
0.826041
  0
LINE
  8
0
 10
0.0454574
 20
0.826041
 11
0.0480418
 21
0.818939
  0
LINE
  8
0
 10
0.0480418
 20
0.818939
 11
0.0501251
 21
0.811675
  0
LINE
  8
0
 10
0.0501251
 20
0.811675
 11
0.0516961
 21
0.804284
  0
LINE
  8
0
 10
0.0516961
 20
0.804284
 11
0.052748
 21
0.7968
  0
LINE
  8
0
 10
0.052748
 20
0.7968
 11
0.0532748
 21
0.789261
  0
LINE
  8
0
 10
0.0532748
 20
0.789261
 11
0.0532754
 21
0.781704
  0
LINE
  8
0
 10
0.0532754
 20
0.781704
 11
0.052748
 21
0.774166
  0
LINE
  8
0
 10
0.052748
 20
0.774166
 11
0.0516961
 21
0.766682
  0
LINE
  8
0
 10
0.0516961
 20
0.766682
 11
0.0501251
 21
0.759291
  0
LINE
  8
0
 10
0.0501251
 20
0.759291
 11
0.0480418
 21
0.752026
  0
LINE
  8
0
 10
0.0480418
 20
0.752026
 11
0.0454568
 21
0.744925
  0
LINE
  8
0
 10
0.0454568
 20
0.744925
 11
0.042384
 21
0.738021
  0
LINE
  8
0
 10
0.042384
 20
0.738021
 11
0.038836
 21
0.731349
  0
LINE
  8
0
 10
0.038836
 20
0.731349
 11
0.0348315
 21
0.724941
  0
LINE
  8
0
 10
0.0348315
 20
0.724941
 11
0.0303896
 21
0.718827
  0
LINE
  8
0
 10
0.0303896
 20
0.718827
 11
0.025532
 21
0.713038
  0
LINE
  8
0
 10
0.025532
 20
0.713038
 11
0.0202822
 21
0.707601
  0
LINE
  8
0
 10
0.0202822
 20
0.707601
 11
0.0146665
 21
0.702545
  0
LINE
  8
0
 10
0.0146665
 20
0.702545
 11
0.00871133
 21
0.697892
  0
LINE
  8
0
 10
0.00871133
 20
0.697892
 11
0.00244681
 21
0.693666
  0
LINE
  8
0
 10
0.00244681
 20
0.693666
 11
-0.00409765
 21
0.689888
  0
LINE
  8
0
 10
-0.00409765
 20
0.689888
 11
-0.0108896
 21
0.686575
  0
LINE
  8
0
 10
-0.0108896
 20
0.686575
 11
-0.0178966
 21
0.683745
  0
LINE
  8
0
 10
-0.0178966
 20
0.683745
 11
-0.0250833
 21
0.681409
  0
LINE
  8
0
 10
-0.0250833
 20
0.681409
 11
-0.0324165
 21
0.679581
  0
LINE
  8
0
 10
-0.0324165
 20
0.679581
 11
-0.0398585
 21
0.678269
  0
LINE
  8
0
 10
-0.0398585
 20
0.678269
 11
-0.0473737
 21
0.677479
  0
LINE
  8
0
 10
-0.0473737
 20
0.677479
 11
-0.052602
 21
0.677297
  0
LINE
  8
0
 10
-0.052602
 20
0.677297
 11
-0.0578008
 21
0.676669
  0
LINE
  8
0
 10
-0.0578008
 20
0.676669
 11
-0.0630248
 21
0.676406
  0
LINE
  8
0
 10
-0.0630248
 20
0.676406
 11
-0.068214
 21
0.675698
  0
LINE
  8
0
 10
-0.068214
 20
0.675698
 11
-0.0734362
 21
0.675355
  0
LINE
  8
0
 10
-0.0734362
 20
0.675355
 11
-0.0786116
 21
0.674568
  0
LINE
  8
0
 10
-0.0786116
 20
0.674568
 11
-0.0838236
 21
0.674144
  0
LINE
  8
0
 10
-0.0838236
 20
0.674144
 11
-0.08899
 21
0.673277
  0
LINE
  8
0
 10
-0.08899
 20
0.673277
 11
-0.094199
 21
0.672774
  0
LINE
  8
0
 10
-0.094199
 20
0.672774
 11
-0.0993479
 21
0.671827
  0
LINE
  8
0
 10
-0.0993479
 20
0.671827
 11
-0.104548
 21
0.671243
  0
LINE
  8
0
 10
-0.104548
 20
0.671243
 11
-0.109682
 21
0.670218
  0
LINE
  8
0
 10
-0.109682
 20
0.670218
 11
-0.114876
 21
0.669553
  0
LINE
  8
0
 10
-0.114876
 20
0.669553
 11
-0.119989
 21
0.668449
  0
LINE
  8
0
 10
-0.119989
 20
0.668449
 11
-0.125169
 21
0.667705
  0
LINE
  8
0
 10
-0.125169
 20
0.667705
 11
-0.130269
 21
0.666523
  0
LINE
  8
0
 10
-0.130269
 20
0.666523
 11
-0.135436
 21
0.665698
  0
LINE
  8
0
 10
-0.135436
 20
0.665698
 11
-0.140517
 21
0.664437
  0
LINE
  8
0
 10
-0.140517
 20
0.664437
 11
-0.145676
 21
0.663533
  0
LINE
  8
0
 10
-0.145676
 20
0.663533
 11
-0.150733
 21
0.662195
  0
LINE
  8
0
 10
-0.150733
 20
0.662195
 11
-0.155875
 21
0.661211
  0
LINE
  8
0
 10
-0.155875
 20
0.661211
 11
-0.160912
 21
0.659794
  0
LINE
  8
0
 10
-0.160912
 20
0.659794
 11
-0.166038
 21
0.658733
  0
LINE
  8
0
 10
-0.166038
 20
0.658733
 11
-0.171054
 21
0.657239
  0
LINE
  8
0
 10
-0.171054
 20
0.657239
 11
-0.17616
 21
0.656098
  0
LINE
  8
0
 10
-0.17616
 20
0.656098
 11
-0.181154
 21
0.654526
  0
LINE
  8
0
 10
-0.181154
 20
0.654526
 11
-0.186247
 21
0.653307
  0
LINE
  8
0
 10
-0.186247
 20
0.653307
 11
-0.191212
 21
0.651659
  0
LINE
  8
0
 10
-0.191212
 20
0.651659
 11
-0.196284
 21
0.650361
  0
LINE
  8
0
 10
-0.196284
 20
0.650361
 11
-0.201224
 21
0.648637
  0
LINE
  8
0
 10
-0.201224
 20
0.648637
 11
-0.206275
 21
0.647262
  0
LINE
  8
0
 10
-0.206275
 20
0.647262
 11
-0.21119
 21
0.645462
  0
LINE
  8
0
 10
-0.21119
 20
0.645462
 11
-0.216218
 21
0.644009
  0
LINE
  8
0
 10
-0.216218
 20
0.644009
 11
-0.221105
 21
0.642133
  0
LINE
  8
0
 10
-0.221105
 20
0.642133
 11
-0.226105
 21
0.640604
  0
LINE
  8
0
 10
-0.226105
 20
0.640604
 11
-0.230966
 21
0.638652
  0
LINE
  8
0
 10
-0.230966
 20
0.638652
 11
-0.235947
 21
0.637045
  0
LINE
  8
0
 10
-0.235947
 20
0.637045
 11
-0.240774
 21
0.635019
  0
LINE
  8
0
 10
-0.240774
 20
0.635019
 11
-0.245731
 21
0.633335
  0
LINE
  8
0
 10
-0.245731
 20
0.633335
 11
-0.250524
 21
0.631237
  0
LINE
  8
0
 10
-0.250524
 20
0.631237
 11
-0.255451
 21
0.629478
  0
LINE
  8
0
 10
-0.255451
 20
0.629478
 11
-0.260215
 21
0.627303
  0
LINE
  8
0
 10
-0.260215
 20
0.627303
 11
-0.265118
 21
0.625467
  0
LINE
  8
0
 10
-0.265118
 20
0.625467
 11
-0.269844
 21
0.623222
  0
LINE
  8
0
 10
-0.269844
 20
0.623222
 11
-0.274716
 21
0.621311
  0
LINE
  8
0
 10
-0.274716
 20
0.621311
 11
-0.27941
 21
0.618993
  0
LINE
  8
0
 10
-0.27941
 20
0.618993
 11
-0.284253
 21
0.617008
  0
LINE
  8
0
 10
-0.284253
 20
0.617008
 11
-0.288909
 21
0.614617
  0
LINE
  8
0
 10
-0.288909
 20
0.614617
 11
-0.293718
 21
0.612557
  0
LINE
  8
0
 10
-0.293718
 20
0.612557
 11
-0.298339
 21
0.610095
  0
LINE
  8
0
 10
-0.298339
 20
0.610095
 11
-0.30312
 21
0.60796
  0
LINE
  8
0
 10
-0.30312
 20
0.60796
 11
-0.307699
 21
0.605428
  0
LINE
  8
0
 10
-0.307699
 20
0.605428
 11
-0.312442
 21
0.603223
  0
LINE
  8
0
 10
-0.312442
 20
0.603223
 11
-0.316985
 21
0.600618
  0
LINE
  8
0
 10
-0.316985
 20
0.600618
 11
-0.321697
 21
0.598337
  0
LINE
  8
0
 10
-0.321697
 20
0.598337
 11
-0.326197
 21
0.595666
  0
LINE
  8
0
 10
-0.326197
 20
0.595666
 11
-0.330871
 21
0.593314
  0
LINE
  8
0
 10
-0.330871
 20
0.593314
 11
-0.335332
 21
0.590572
  0
LINE
  8
0
 10
-0.335332
 20
0.590572
 11
-0.339969
 21
0.588148
  0
LINE
  8
0
 10
-0.339969
 20
0.588148
 11
-0.344385
 21
0.585337
  0
LINE
  8
0
 10
-0.344385
 20
0.585337
 11
-0.348988
 21
0.582842
  0
LINE
  8
0
 10
-0.348988
 20
0.582842
 11
-0.353359
 21
0.579965
  0
LINE
  8
0
 10
-0.353359
 20
0.579965
 11
-0.357922
 21
0.577399
  0
LINE
  8
0
 10
-0.357922
 20
0.577399
 11
-0.362248
 21
0.574454
  0
LINE
  8
0
 10
-0.362248
 20
0.574454
 11
-0.366771
 21
0.571818
  0
LINE
  8
0
 10
-0.366771
 20
0.571818
 11
-0.371051
 21
0.568808
  0
LINE
  8
0
 10
-0.371051
 20
0.568808
 11
-0.377521
 21
0.564903
  0
LINE
  8
0
 10
-0.377521
 20
0.564903
 11
-0.384246
 21
0.561458
  0
LINE
  8
0
 10
-0.384246
 20
0.561458
 11
-0.391197
 21
0.558492
  0
LINE
  8
0
 10
-0.391197
 20
0.558492
 11
-0.398337
 21
0.556016
  0
LINE
  8
0
 10
-0.398337
 20
0.556016
 11
-0.405632
 21
0.554045
  0
LINE
  8
0
 10
-0.405632
 20
0.554045
 11
-0.413048
 21
0.552589
  0
LINE
  8
0
 10
-0.413048
 20
0.552589
 11
-0.420547
 21
0.551652
  0
LINE
  8
0
 10
-0.420547
 20
0.551652
 11
-0.428092
 21
0.551241
  0
LINE
  8
0
 10
-0.428092
 20
0.551241
 11
-0.435648
 21
0.551357
  0
LINE
  8
0
 10
0.645233
 20
0.332305
 11
0.637716
 21
0.333095
  0
LINE
  8
0
 10
0.637716
 20
0.333095
 11
0.630274
 21
0.334407
  0
LINE
  8
0
 10
0.630274
 20
0.334407
 11
0.622942
 21
0.336236
  0
LINE
  8
0
 10
0.622942
 20
0.336236
 11
0.615755
 21
0.33857
  0
LINE
  8
0
 10
0.615755
 20
0.33857
 11
0.608749
 21
0.341402
  0
LINE
  8
0
 10
0.608749
 20
0.341402
 11
0.601956
 21
0.344714
  0
LINE
  8
0
 10
0.601956
 20
0.344714
 11
0.595412
 21
0.348493
  0
LINE
  8
0
 10
0.595412
 20
0.348493
 11
0.589147
 21
0.352718
  0
LINE
  8
0
 10
0.589147
 20
0.352718
 11
0.583192
 21
0.357371
  0
LINE
  8
0
 10
0.583192
 20
0.357371
 11
0.577576
 21
0.362428
  0
LINE
  8
0
 10
0.577576
 20
0.362428
 11
0.572326
 21
0.367864
  0
LINE
  8
0
 10
0.572326
 20
0.367864
 11
0.567469
 21
0.373653
  0
LINE
  8
0
 10
0.567469
 20
0.373653
 11
0.563027
 21
0.379767
  0
LINE
  8
0
 10
0.563027
 20
0.379767
 11
0.560256
 21
0.384201
  0
LINE
  8
0
 10
0.560256
 20
0.384201
 11
0.557112
 21
0.388391
  0
LINE
  8
0
 10
0.557112
 20
0.388391
 11
0.554271
 21
0.392785
  0
LINE
  8
0
 10
0.554271
 20
0.392785
 11
0.551065
 21
0.396924
  0
LINE
  8
0
 10
0.551065
 20
0.396924
 11
0.548157
 21
0.401274
  0
LINE
  8
0
 10
0.548157
 20
0.401274
 11
0.544887
 21
0.405364
  0
LINE
  8
0
 10
0.544887
 20
0.405364
 11
0.541913
 21
0.409668
  0
LINE
  8
0
 10
0.541913
 20
0.409668
 11
0.53858
 21
0.413706
  0
LINE
  8
0
 10
0.53858
 20
0.413706
 11
0.535538
 21
0.417966
  0
LINE
  8
0
 10
0.535538
 20
0.417966
 11
0.532146
 21
0.421951
  0
LINE
  8
0
 10
0.532146
 20
0.421951
 11
0.529038
 21
0.426165
  0
LINE
  8
0
 10
0.529038
 20
0.426165
 11
0.525585
 21
0.430096
  0
LINE
  8
0
 10
0.525585
 20
0.430096
 11
0.522414
 21
0.434259
  0
LINE
  8
0
 10
0.522414
 20
0.434259
 11
0.518899
 21
0.438139
  0
LINE
  8
0
 10
0.518899
 20
0.438139
 11
0.515662
 21
0.442256
  0
LINE
  8
0
 10
0.515662
 20
0.442256
 11
0.512091
 21
0.446077
  0
LINE
  8
0
 10
0.512091
 20
0.446077
 11
0.508794
 21
0.45014
  0
LINE
  8
0
 10
0.508794
 20
0.45014
 11
0.505161
 21
0.453911
  0
LINE
  8
0
 10
0.505161
 20
0.453911
 11
0.501799
 21
0.457925
  0
LINE
  8
0
 10
0.501799
 20
0.457925
 11
0.498111
 21
0.461635
  0
LINE
  8
0
 10
0.498111
 20
0.461635
 11
0.494689
 21
0.465596
  0
LINE
  8
0
 10
0.494689
 20
0.465596
 11
0.490943
 21
0.469251
  0
LINE
  8
0
 10
0.490943
 20
0.469251
 11
0.48746
 21
0.473159
  0
LINE
  8
0
 10
0.48746
 20
0.473159
 11
0.483659
 21
0.476756
  0
LINE
  8
0
 10
0.483659
 20
0.476756
 11
0.480118
 21
0.480608
  0
LINE
  8
0
 10
0.480118
 20
0.480608
 11
0.47626
 21
0.484147
  0
LINE
  8
0
 10
0.47626
 20
0.484147
 11
0.472657
 21
0.487948
  0
LINE
  8
0
 10
0.472657
 20
0.487948
 11
0.468748
 21
0.491424
  0
LINE
  8
0
 10
0.468748
 20
0.491424
 11
0.46509
 21
0.495166
  0
LINE
  8
0
 10
0.46509
 20
0.495166
 11
0.461124
 21
0.498584
  0
LINE
  8
0
 10
0.461124
 20
0.498584
 11
0.457407
 21
0.50227
  0
LINE
  8
0
 10
0.457407
 20
0.50227
 11
0.453391
 21
0.505626
  0
LINE
  8
0
 10
0.453391
 20
0.505626
 11
0.449615
 21
0.509257
  0
LINE
  8
0
 10
0.449615
 20
0.509257
 11
0.445552
 21
0.512548
  0
LINE
  8
0
 10
0.445552
 20
0.512548
 11
0.441723
 21
0.516118
  0
LINE
  8
0
 10
0.441723
 20
0.516118
 11
0.437606
 21
0.519349
  0
LINE
  8
0
 10
0.437606
 20
0.519349
 11
0.433723
 21
0.522859
  0
LINE
  8
0
 10
0.433723
 20
0.522859
 11
0.429556
 21
0.526026
  0
LINE
  8
0
 10
0.429556
 20
0.526026
 11
0.425622
 21
0.529475
  0
LINE
  8
0
 10
0.425622
 20
0.529475
 11
0.421405
 21
0.532578
  0
LINE
  8
0
 10
0.421405
 20
0.532578
 11
0.417418
 21
0.535966
  0
LINE
  8
0
 10
0.417418
 20
0.535966
 11
0.413153
 21
0.539004
  0
LINE
  8
0
 10
0.413153
 20
0.539004
 11
0.409112
 21
0.542333
  0
LINE
  8
0
 10
0.409112
 20
0.542333
 11
0.404804
 21
0.545303
  0
LINE
  8
0
 10
0.404804
 20
0.545303
 11
0.400713
 21
0.548567
  0
LINE
  8
0
 10
0.400713
 20
0.548567
 11
0.396358
 21
0.551472
  0
LINE
  8
0
 10
0.396358
 20
0.551472
 11
0.392219
 21
0.554673
  0
LINE
  8
0
 10
0.392219
 20
0.554673
 11
0.38782
 21
0.55751
  0
LINE
  8
0
 10
0.38782
 20
0.55751
 11
0.383632
 21
0.560646
  0
LINE
  8
0
 10
0.383632
 20
0.560646
 11
0.379188
 21
0.563416
  0
LINE
  8
0
 10
0.379188
 20
0.563416
 11
0.374949
 21
0.56649
  0
LINE
  8
0
 10
0.374949
 20
0.56649
 11
0.370467
 21
0.569189
  0
LINE
  8
0
 10
0.370467
 20
0.569189
 11
0.366182
 21
0.572196
  0
LINE
  8
0
 10
0.366182
 20
0.572196
 11
0.361657
 21
0.574826
  0
LINE
  8
0
 10
0.361657
 20
0.574826
 11
0.35733
 21
0.577765
  0
LINE
  8
0
 10
0.35733
 20
0.577765
 11
0.352763
 21
0.580327
  0
LINE
  8
0
 10
0.352763
 20
0.580327
 11
0.348387
 21
0.583201
  0
LINE
  8
0
 10
0.348387
 20
0.583201
 11
0.343785
 21
0.585691
  0
LINE
  8
0
 10
0.343785
 20
0.585691
 11
0.339365
 21
0.588497
  0
LINE
  8
0
 10
0.339365
 20
0.588497
 11
0.334724
 21
0.590916
  0
LINE
  8
0
 10
0.334724
 20
0.590916
 11
0.330259
 21
0.593655
  0
LINE
  8
0
 10
0.330259
 20
0.593655
 11
0.325585
 21
0.596
  0
LINE
  8
0
 10
0.325585
 20
0.596
 11
0.321082
 21
0.598668
  0
LINE
  8
0
 10
0.321082
 20
0.598668
 11
0.316368
 21
0.600943
  0
LINE
  8
0
 10
0.316368
 20
0.600943
 11
0.311822
 21
0.603543
  0
LINE
  8
0
 10
0.311822
 20
0.603543
 11
0.307077
 21
0.605744
  0
LINE
  8
0
 10
0.307077
 20
0.605744
 11
0.300459
 21
0.609394
  0
LINE
  8
0
 10
0.300459
 20
0.609394
 11
0.294113
 21
0.613496
  0
LINE
  8
0
 10
0.294113
 20
0.613496
 11
0.288069
 21
0.618033
  0
LINE
  8
0
 10
0.288069
 20
0.618033
 11
0.282355
 21
0.622979
  0
LINE
  8
0
 10
0.282355
 20
0.622979
 11
0.277001
 21
0.628311
  0
LINE
  8
0
 10
0.277001
 20
0.628311
 11
0.272031
 21
0.634004
  0
LINE
  8
0
 10
0.272031
 20
0.634004
 11
0.267471
 21
0.64003
  0
LINE
  8
0
 10
0.267471
 20
0.64003
 11
0.263343
 21
0.646359
  0
LINE
  8
0
 10
0.263343
 20
0.646359
 11
0.259665
 21
0.652961
  0
LINE
  8
0
 10
0.259665
 20
0.652961
 11
0.256457
 21
0.659804
  0
LINE
  8
0
 10
0.256457
 20
0.659804
 11
0.253734
 21
0.666853
  0
LINE
  8
0
 10
0.253734
 20
0.666853
 11
0.25151
 21
0.674076
  0
LINE
  8
0
 10
0.25151
 20
0.674076
 11
0.249795
 21
0.681435
  0
LINE
  8
0
 10
0.249795
 20
0.681435
 11
0.248598
 21
0.688896
  0
LINE
  8
0
 10
0.248598
 20
0.688896
 11
0.247923
 21
0.696424
  0
LINE
  8
0
 10
0.247923
 20
0.696424
 11
0.247776
 21
0.703979
  0
LINE
  8
0
 10
0.247776
 20
0.703979
 11
0.248156
 21
0.711527
  0
LINE
  8
0
 10
0.248156
 20
0.711527
 11
0.249062
 21
0.719029
  0
LINE
  8
0
 10
0.249062
 20
0.719029
 11
0.250489
 21
0.726451
  0
LINE
  8
0
 10
0.250489
 20
0.726451
 11
0.25243
 21
0.733754
  0
LINE
  8
0
 10
0.25243
 20
0.733754
 11
0.254875
 21
0.740904
  0
LINE
  8
0
 10
0.254875
 20
0.740904
 11
0.257813
 21
0.747866
  0
LINE
  8
0
 10
0.257813
 20
0.747866
 11
0.26123
 21
0.754606
  0
LINE
  8
0
 10
0.26123
 20
0.754606
 11
0.265109
 21
0.761092
  0
LINE
  8
0
 10
0.265109
 20
0.761092
 11
0.269431
 21
0.767291
  0
LINE
  8
0
 10
0.269431
 20
0.767291
 11
0.274175
 21
0.773174
  0
LINE
  8
0
 10
0.274175
 20
0.773174
 11
0.279317
 21
0.778711
  0
LINE
  8
0
 10
0.279317
 20
0.778711
 11
0.284834
 21
0.783876
  0
LINE
  8
0
 10
0.284834
 20
0.783876
 11
0.290697
 21
0.788644
  0
LINE
  8
0
 10
0.290697
 20
0.788644
 11
0.296878
 21
0.792991
  0
LINE
  8
0
 10
0.296878
 20
0.792991
 11
0.303348
 21
0.796897
  0
LINE
  8
0
 10
0.303348
 20
0.796897
 11
0.310074
 21
0.800342
  0
LINE
  8
0
 10
0.310074
 20
0.800342
 11
0.317024
 21
0.803309
  0
LINE
  8
0
 10
0.317024
 20
0.803309
 11
0.324164
 21
0.805784
  0
LINE
  8
0
 10
0.324164
 20
0.805784
 11
0.331459
 21
0.807755
  0
LINE
  8
0
 10
0.331459
 20
0.807755
 11
0.338875
 21
0.809211
  0
LINE
  8
0
 10
0.338875
 20
0.809211
 11
0.346373
 21
0.810147
  0
LINE
  8
0
 10
0.346373
 20
0.810147
 11
0.353919
 21
0.810559
  0
LINE
  8
0
 10
0.353919
 20
0.810559
 11
0.361476
 21
0.810442
  0
LINE
  8
0
 10
0.361476
 20
0.810442
 11
0.369005
 21
0.8098
  0
LINE
  8
0
 10
0.369005
 20
0.8098
 11
0.376472
 21
0.808633
  0
LINE
  8
0
 10
0.376472
 20
0.808633
 11
0.383838
 21
0.806948
  0
LINE
  8
0
 10
0.383838
 20
0.806948
 11
0.391069
 21
0.804753
  0
LINE
  8
0
 10
0.391069
 20
0.804753
 11
0.39813
 21
0.80206
  0
LINE
  8
0
 10
0.39813
 20
0.80206
 11
0.404986
 21
0.79888
  0
LINE
  8
0
 10
0.404986
 20
0.79888
 11
0.411029
 21
0.795546
  0
LINE
  8
0
 10
0.411029
 20
0.795546
 11
0.41724
 21
0.792549
  0
LINE
  8
0
 10
0.41724
 20
0.792549
 11
0.423228
 21
0.789124
  0
LINE
  8
0
 10
0.423228
 20
0.789124
 11
0.429395
 21
0.786029
  0
LINE
  8
0
 10
0.429395
 20
0.786029
 11
0.435328
 21
0.782514
  0
LINE
  8
0
 10
0.435328
 20
0.782514
 11
0.441449
 21
0.779323
  0
LINE
  8
0
 10
0.441449
 20
0.779323
 11
0.447332
 21
0.775714
  0
LINE
  8
0
 10
0.447332
 20
0.775714
 11
0.453397
 21
0.772434
  0
LINE
  8
0
 10
0.453397
 20
0.772434
 11
0.459219
 21
0.768737
  0
LINE
  8
0
 10
0.459219
 20
0.768737
 11
0.465238
 21
0.765359
  0
LINE
  8
0
 10
0.465238
 20
0.765359
 11
0.471007
 21
0.761571
  0
LINE
  8
0
 10
0.471007
 20
0.761571
 11
0.476969
 21
0.758105
  0
LINE
  8
0
 10
0.476969
 20
0.758105
 11
0.482677
 21
0.754229
  0
LINE
  8
0
 10
0.482677
 20
0.754229
 11
0.488587
 21
0.750669
  0
LINE
  8
0
 10
0.488587
 20
0.750669
 11
0.494234
 21
0.746706
  0
LINE
  8
0
 10
0.494234
 20
0.746706
 11
0.500089
 21
0.743057
  0
LINE
  8
0
 10
0.500089
 20
0.743057
 11
0.505672
 21
0.73901
  0
LINE
  8
0
 10
0.505672
 20
0.73901
 11
0.511472
 21
0.735268
  0
LINE
  8
0
 10
0.511472
 20
0.735268
 11
0.516992
 21
0.731134
  0
LINE
  8
0
 10
0.516992
 20
0.731134
 11
0.522734
 21
0.727304
  0
LINE
  8
0
 10
0.522734
 20
0.727304
 11
0.528189
 21
0.723087
  0
LINE
  8
0
 10
0.528189
 20
0.723087
 11
0.533872
 21
0.719168
  0
LINE
  8
0
 10
0.533872
 20
0.719168
 11
0.539268
 21
0.714862
  0
LINE
  8
0
 10
0.539268
 20
0.714862
 11
0.544884
 21
0.710861
  0
LINE
  8
0
 10
0.544884
 20
0.710861
 11
0.550212
 21
0.706474
  0
LINE
  8
0
 10
0.550212
 20
0.706474
 11
0.555766
 21
0.702386
  0
LINE
  8
0
 10
0.555766
 20
0.702386
 11
0.56102
 21
0.697921
  0
LINE
  8
0
 10
0.56102
 20
0.697921
 11
0.566516
 21
0.693744
  0
LINE
  8
0
 10
0.566516
 20
0.693744
 11
0.571701
 21
0.689199
  0
LINE
  8
0
 10
0.571701
 20
0.689199
 11
0.577132
 21
0.684938
  0
LINE
  8
0
 10
0.577132
 20
0.684938
 11
0.582251
 21
0.68031
  0
LINE
  8
0
 10
0.582251
 20
0.68031
 11
0.587612
 21
0.675969
  0
LINE
  8
0
 10
0.587612
 20
0.675969
 11
0.592662
 21
0.671259
  0
LINE
  8
0
 10
0.592662
 20
0.671259
 11
0.597951
 21
0.66684
  0
LINE
  8
0
 10
0.597951
 20
0.66684
 11
0.602926
 21
0.662055
  0
LINE
  8
0
 10
0.602926
 20
0.662055
 11
0.608149
 21
0.657553
  0
LINE
  8
0
 10
0.608149
 20
0.657553
 11
0.61305
 21
0.652693
  0
LINE
  8
0
 10
0.61305
 20
0.652693
 11
0.618203
 21
0.64811
  0
LINE
  8
0
 10
0.618203
 20
0.64811
 11
0.623027
 21
0.643176
  0
LINE
  8
0
 10
0.623027
 20
0.643176
 11
0.628111
 21
0.638514
  0
LINE
  8
0
 10
0.628111
 20
0.638514
 11
0.632858
 21
0.633505
  0
LINE
  8
0
 10
0.632858
 20
0.633505
 11
0.637868
 21
0.628765
  0
LINE
  8
0
 10
0.637868
 20
0.628765
 11
0.642539
 21
0.623684
  0
LINE
  8
0
 10
0.642539
 20
0.623684
 11
0.647475
 21
0.618868
  0
LINE
  8
0
 10
0.647475
 20
0.618868
 11
0.652062
 21
0.613721
  0
LINE
  8
0
 10
0.652062
 20
0.613721
 11
0.656929
 21
0.608824
  0
LINE
  8
0
 10
0.656929
 20
0.608824
 11
0.661439
 21
0.603603
  0
LINE
  8
0
 10
0.661439
 20
0.603603
 11
0.666226
 21
0.598635
  0
LINE
  8
0
 10
0.666226
 20
0.598635
 11
0.670657
 21
0.593344
  0
LINE
  8
0
 10
0.670657
 20
0.593344
 11
0.675366
 21
0.588305
  0
LINE
  8
0
 10
0.675366
 20
0.588305
 11
0.679712
 21
0.582949
  0
LINE
  8
0
 10
0.679712
 20
0.582949
 11
0.684346
 21
0.577835
  0
LINE
  8
0
 10
0.684346
 20
0.577835
 11
0.688612
 21
0.572409
  0
LINE
  8
0
 10
0.688612
 20
0.572409
 11
0.693163
 21
0.567227
  0
LINE
  8
0
 10
0.693163
 20
0.567227
 11
0.697342
 21
0.561742
  0
LINE
  8
0
 10
0.697342
 20
0.561742
 11
0.701815
 21
0.556487
  0
LINE
  8
0
 10
0.701815
 20
0.556487
 11
0.705908
 21
0.550939
  0
LINE
  8
0
 10
0.705908
 20
0.550939
 11
0.710302
 21
0.545613
  0
LINE
  8
0
 10
0.710302
 20
0.545613
 11
0.714311
 21
0.539998
  0
LINE
  8
0
 10
0.714311
 20
0.539998
 11
0.71862
 21
0.53461
  0
LINE
  8
0
 10
0.71862
 20
0.53461
 11
0.722547
 21
0.528928
  0
LINE
  8
0
 10
0.722547
 20
0.528928
 11
0.726767
 21
0.52348
  0
LINE
  8
0
 10
0.726767
 20
0.52348
 11
0.730603
 21
0.517742
  0
LINE
  8
0
 10
0.730603
 20
0.517742
 11
0.734743
 21
0.512227
  0
LINE
  8
0
 10
0.734743
 20
0.512227
 11
0.738488
 21
0.506431
  0
LINE
  8
0
 10
0.738488
 20
0.506431
 11
0.742543
 21
0.500852
  0
LINE
  8
0
 10
0.742543
 20
0.500852
 11
0.746547
 21
0.494443
  0
LINE
  8
0
 10
0.746547
 20
0.494443
 11
0.750096
 21
0.487771
  0
LINE
  8
0
 10
0.750096
 20
0.487771
 11
0.753168
 21
0.480867
  0
LINE
  8
0
 10
0.753168
 20
0.480867
 11
0.755753
 21
0.473766
  0
LINE
  8
0
 10
0.755753
 20
0.473766
 11
0.757837
 21
0.466501
  0
LINE
  8
0
 10
0.757837
 20
0.466501
 11
0.759408
 21
0.45911
  0
LINE
  8
0
 10
0.759408
 20
0.45911
 11
0.76046
 21
0.451626
  0
LINE
  8
0
 10
0.76046
 20
0.451626
 11
0.760986
 21
0.444087
  0
LINE
  8
0
 10
0.760986
 20
0.444087
 11
0.760987
 21
0.436531
  0
LINE
  8
0
 10
0.760987
 20
0.436531
 11
0.760459
 21
0.428992
  0
LINE
  8
0
 10
0.760459
 20
0.428992
 11
0.759408
 21
0.421508
  0
LINE
  8
0
 10
0.759408
 20
0.421508
 11
0.757837
 21
0.414117
  0
LINE
  8
0
 10
0.757837
 20
0.414117
 11
0.755753
 21
0.406852
  0
LINE
  8
0
 10
0.755753
 20
0.406852
 11
0.753168
 21
0.399751
  0
LINE
  8
0
 10
0.753168
 20
0.399751
 11
0.750096
 21
0.392848
  0
LINE
  8
0
 10
0.750096
 20
0.392848
 11
0.746548
 21
0.386175
  0
LINE
  8
0
 10
0.746548
 20
0.386175
 11
0.742543
 21
0.379767
  0
LINE
  8
0
 10
0.742543
 20
0.379767
 11
0.738101
 21
0.373653
  0
LINE
  8
0
 10
0.738101
 20
0.373653
 11
0.733244
 21
0.367864
  0
LINE
  8
0
 10
0.733244
 20
0.367864
 11
0.727994
 21
0.362428
  0
LINE
  8
0
 10
0.727994
 20
0.362428
 11
0.722378
 21
0.357372
  0
LINE
  8
0
 10
0.722378
 20
0.357372
 11
0.716423
 21
0.352718
  0
LINE
  8
0
 10
0.716423
 20
0.352718
 11
0.710158
 21
0.348493
  0
LINE
  8
0
 10
0.710158
 20
0.348493
 11
0.703613
 21
0.344715
  0
LINE
  8
0
 10
0.703613
 20
0.344715
 11
0.696821
 21
0.341402
  0
LINE
  8
0
 10
0.696821
 20
0.341402
 11
0.689814
 21
0.338571
  0
LINE
  8
0
 10
0.689814
 20
0.338571
 11
0.682627
 21
0.336235
  0
LINE
  8
0
 10
0.682627
 20
0.336235
 11
0.675295
 21
0.334407
  0
LINE
  8
0
 10
0.675295
 20
0.334407
 11
0.667853
 21
0.333095
  0
LINE
  8
0
 10
0.667853
 20
0.333095
 11
0.660337
 21
0.332305
  0
LINE
  8
0
 10
0.660337
 20
0.332305
 11
0.652785
 21
0.332041
  0
LINE
  8
0
 10
0.652785
 20
0.332041
 11
0.645233
 21
0.332305
  0
LINE
  8
0
 10
1.91114
 20
0.403759
 11
1.90499
 21
0.404405
  0
LINE
  8
0
 10
1.90499
 20
0.404405
 11
1.89891
 21
0.405479
  0
LINE
  8
0
 10
1.89891
 20
0.405479
 11
1.89291
 21
0.406975
  0
LINE
  8
0
 10
1.89291
 20
0.406975
 11
1.88703
 21
0.408885
  0
LINE
  8
0
 10
1.88703
 20
0.408885
 11
1.88129
 21
0.411202
  0
LINE
  8
0
 10
1.88129
 20
0.411202
 11
1.87574
 21
0.413912
  0
LINE
  8
0
 10
1.87574
 20
0.413912
 11
1.87038
 21
0.417003
  0
LINE
  8
0
 10
1.87038
 20
0.417003
 11
1.86526
 21
0.420461
  0
LINE
  8
0
 10
1.86526
 20
0.420461
 11
1.86038
 21
0.424268
  0
LINE
  8
0
 10
1.86038
 20
0.424268
 11
1.85579
 21
0.428405
  0
LINE
  8
0
 10
1.85579
 20
0.428405
 11
1.85149
 21
0.432852
  0
LINE
  8
0
 10
1.85149
 20
0.432852
 11
1.84752
 21
0.437589
  0
LINE
  8
0
 10
1.84752
 20
0.437589
 11
1.84388
 21
0.442591
  0
LINE
  8
0
 10
1.84388
 20
0.442591
 11
1.84061
 21
0.447835
  0
LINE
  8
0
 10
1.84061
 20
0.447835
 11
1.83771
 21
0.453294
  0
LINE
  8
0
 10
1.83771
 20
0.453294
 11
1.83519
 21
0.458942
  0
LINE
  8
0
 10
1.83519
 20
0.458942
 11
1.83308
 21
0.464752
  0
LINE
  8
0
 10
1.83308
 20
0.464752
 11
1.83137
 21
0.470696
  0
LINE
  8
0
 10
1.83137
 20
0.470696
 11
1.83009
 21
0.476743
  0
LINE
  8
0
 10
1.83009
 20
0.476743
 11
1.82923
 21
0.482866
  0
LINE
  8
0
 10
1.82923
 20
0.482866
 11
1.82879
 21
0.489034
  0
LINE
  8
0
 10
1.82879
 20
0.489034
 11
1.82879
 21
0.495217
  0
LINE
  8
0
 10
1.82879
 20
0.495217
 11
1.82923
 21
0.501385
  0
LINE
  8
0
 10
1.82923
 20
0.501385
 11
1.83009
 21
0.507508
  0
LINE
  8
0
 10
1.83009
 20
0.507508
 11
1.83137
 21
0.513556
  0
LINE
  8
0
 10
1.83137
 20
0.513556
 11
1.83308
 21
0.519499
  0
LINE
  8
0
 10
1.83308
 20
0.519499
 11
1.83519
 21
0.525309
  0
LINE
  8
0
 10
1.83519
 20
0.525309
 11
1.83771
 21
0.530958
  0
LINE
  8
0
 10
1.83771
 20
0.530958
 11
1.84061
 21
0.536417
  0
LINE
  8
0
 10
1.84061
 20
0.536417
 11
1.84388
 21
0.541661
  0
LINE
  8
0
 10
1.84388
 20
0.541661
 11
1.84752
 21
0.546662
  0
LINE
  8
0
 10
1.84752
 20
0.546662
 11
1.85149
 21
0.551399
  0
LINE
  8
0
 10
1.85149
 20
0.551399
 11
1.85579
 21
0.555846
  0
LINE
  8
0
 10
1.85579
 20
0.555846
 11
1.86038
 21
0.559984
  0
LINE
  8
0
 10
1.86038
 20
0.559984
 11
1.86526
 21
0.563791
  0
LINE
  8
0
 10
1.86526
 20
0.563791
 11
1.87038
 21
0.567248
  0
LINE
  8
0
 10
1.87038
 20
0.567248
 11
1.87574
 21
0.570339
  0
LINE
  8
0
 10
1.87574
 20
0.570339
 11
1.88129
 21
0.57305
  0
LINE
  8
0
 10
1.88129
 20
0.57305
 11
1.88703
 21
0.575366
  0
LINE
  8
0
 10
1.88703
 20
0.575366
 11
1.89291
 21
0.577277
  0
LINE
  8
0
 10
1.89291
 20
0.577277
 11
1.89891
 21
0.578772
  0
LINE
  8
0
 10
1.89891
 20
0.578772
 11
1.90499
 21
0.579846
  0
LINE
  8
0
 10
1.90499
 20
0.579846
 11
1.91114
 21
0.580492
  0
LINE
  8
0
 10
1.91114
 20
0.580492
 11
1.91732
 21
0.580709
  0
LINE
  8
0
 10
1.91732
 20
0.580709
 11
1.9235
 21
0.580492
  0
LINE
  8
0
 10
1.9235
 20
0.580492
 11
1.92965
 21
0.579846
  0
LINE
  8
0
 10
1.92965
 20
0.579846
 11
1.93574
 21
0.578772
  0
LINE
  8
0
 10
1.93574
 20
0.578772
 11
1.94174
 21
0.577277
  0
LINE
  8
0
 10
1.94174
 20
0.577277
 11
1.94762
 21
0.575366
  0
LINE
  8
0
 10
1.94762
 20
0.575366
 11
1.95335
 21
0.57305
  0
LINE
  8
0
 10
1.95335
 20
0.57305
 11
1.95891
 21
0.570339
  0
LINE
  8
0
 10
1.95891
 20
0.570339
 11
1.96426
 21
0.567248
  0
LINE
  8
0
 10
1.96426
 20
0.567248
 11
1.96939
 21
0.563791
  0
LINE
  8
0
 10
1.96939
 20
0.563791
 11
1.97426
 21
0.559984
  0
LINE
  8
0
 10
1.97426
 20
0.559984
 11
1.97886
 21
0.555846
  0
LINE
  8
0
 10
1.97886
 20
0.555846
 11
1.98315
 21
0.551399
  0
LINE
  8
0
 10
1.98315
 20
0.551399
 11
1.98713
 21
0.546662
  0
LINE
  8
0
 10
1.98713
 20
0.546662
 11
1.99076
 21
0.541661
  0
LINE
  8
0
 10
1.99076
 20
0.541661
 11
1.99404
 21
0.536417
  0
LINE
  8
0
 10
1.99404
 20
0.536417
 11
1.99694
 21
0.530958
  0
LINE
  8
0
 10
1.99694
 20
0.530958
 11
1.99945
 21
0.525309
  0
LINE
  8
0
 10
1.99945
 20
0.525309
 11
2.00157
 21
0.519499
  0
LINE
  8
0
 10
2.00157
 20
0.519499
 11
2.00327
 21
0.513556
  0
LINE
  8
0
 10
2.00327
 20
0.513556
 11
2.00456
 21
0.507508
  0
LINE
  8
0
 10
2.00456
 20
0.507508
 11
2.00542
 21
0.501385
  0
LINE
  8
0
 10
2.00542
 20
0.501385
 11
2.00585
 21
0.495217
  0
LINE
  8
0
 10
2.00585
 20
0.495217
 11
2.00585
 21
0.489034
  0
LINE
  8
0
 10
2.00585
 20
0.489034
 11
2.00542
 21
0.482866
  0
LINE
  8
0
 10
2.00542
 20
0.482866
 11
2.00456
 21
0.476743
  0
LINE
  8
0
 10
2.00456
 20
0.476743
 11
2.00327
 21
0.470696
  0
LINE
  8
0
 10
2.00327
 20
0.470696
 11
2.00157
 21
0.464752
  0
LINE
  8
0
 10
2.00157
 20
0.464752
 11
1.99945
 21
0.458942
  0
LINE
  8
0
 10
1.99945
 20
0.458942
 11
1.99694
 21
0.453294
  0
LINE
  8
0
 10
1.99694
 20
0.453294
 11
1.99404
 21
0.447835
  0
LINE
  8
0
 10
1.99404
 20
0.447835
 11
1.99076
 21
0.442591
  0
LINE
  8
0
 10
1.99076
 20
0.442591
 11
1.98713
 21
0.437589
  0
LINE
  8
0
 10
1.98713
 20
0.437589
 11
1.98315
 21
0.432852
  0
LINE
  8
0
 10
1.98315
 20
0.432852
 11
1.97886
 21
0.428405
  0
LINE
  8
0
 10
1.97886
 20
0.428405
 11
1.97426
 21
0.424268
  0
LINE
  8
0
 10
1.97426
 20
0.424268
 11
1.96939
 21
0.420461
  0
LINE
  8
0
 10
1.96939
 20
0.420461
 11
1.96426
 21
0.417003
  0
LINE
  8
0
 10
1.96426
 20
0.417003
 11
1.95891
 21
0.413912
  0
LINE
  8
0
 10
1.95891
 20
0.413912
 11
1.95335
 21
0.411202
  0
LINE
  8
0
 10
1.95335
 20
0.411202
 11
1.94762
 21
0.408885
  0
LINE
  8
0
 10
1.94762
 20
0.408885
 11
1.94174
 21
0.406975
  0
LINE
  8
0
 10
1.94174
 20
0.406975
 11
1.93574
 21
0.405479
  0
LINE
  8
0
 10
1.93574
 20
0.405479
 11
1.92965
 21
0.404405
  0
LINE
  8
0
 10
1.92965
 20
0.404405
 11
1.9235
 21
0.403759
  0
LINE
  8
0
 10
1.9235
 20
0.403759
 11
1.91732
 21
0.403543
  0
LINE
  8
0
 10
1.91732
 20
0.403543
 11
1.91114
 21
0.403759
  0
LINE
  8
0
 10
-0.0192357
 20
-0.550845
 11
-0.0576139
 21
-0.548161
  0
LINE
  8
0
 10
-0.0576139
 20
-0.548161
 11
-0.0957111
 21
-0.542807
  0
LINE
  8
0
 10
-0.0957111
 20
-0.542807
 11
-0.133343
 21
-0.534809
  0
LINE
  8
0
 10
-0.133343
 20
-0.534809
 11
-0.170324
 21
-0.524204
  0
LINE
  8
0
 10
-0.170324
 20
-0.524204
 11
-0.206476
 21
-0.511046
  0
LINE
  8
0
 10
-0.206476
 20
-0.511046
 11
-0.241622
 21
-0.495398
  0
LINE
  8
0
 10
-0.241622
 20
-0.495398
 11
-0.275591
 21
-0.477336
  0
LINE
  8
0
 10
-0.275591
 20
-0.477336
 11
-0.308216
 21
-0.45695
  0
LINE
  8
0
 10
-0.308216
 20
-0.45695
 11
-0.33934
 21
-0.434337
  0
LINE
  8
0
 10
-0.33934
 20
-0.434337
 11
-0.368812
 21
-0.409607
  0
LINE
  8
0
 10
-0.368812
 20
-0.409607
 11
-0.396486
 21
-0.382882
  0
LINE
  8
0
 10
-0.396486
 20
-0.382882
 11
-0.422229
 21
-0.354292
  0
LINE
  8
0
 10
-0.422229
 20
-0.354292
 11
-0.445915
 21
-0.323976
  0
LINE
  8
0
 10
-0.445915
 20
-0.323976
 11
-0.467428
 21
-0.292081
  0
LINE
  8
0
 10
-0.467428
 20
-0.292081
 11
-0.486663
 21
-0.258764
  0
LINE
  8
0
 10
-0.486663
 20
-0.258764
 11
-0.503529
 21
-0.224185
  0
LINE
  8
0
 10
-0.503529
 20
-0.224185
 11
-0.51794
 21
-0.188515
  0
LINE
  8
0
 10
-0.51794
 20
-0.188515
 11
-0.529829
 21
-0.151926
  0
LINE
  8
0
 10
-0.529829
 20
-0.151926
 11
-0.539136
 21
-0.114597
  0
LINE
  8
0
 10
-0.539136
 20
-0.114597
 11
-0.545816
 21
-0.0767091
  0
LINE
  8
0
 10
-0.545816
 20
-0.0767091
 11
-0.549838
 21
-0.0384479
  0
LINE
  8
0
 10
-0.549838
 20
-0.0384479
 11
-0.551181
 21
0
  0
LINE
  8
0
 10
-0.551181
 20
0
 11
-0.549838
 21
0.0384479
  0
LINE
  8
0
 10
-0.549838
 20
0.0384479
 11
-0.545816
 21
0.0767091
  0
LINE
  8
0
 10
-0.545816
 20
0.0767091
 11
-0.539136
 21
0.114597
  0
LINE
  8
0
 10
-0.539136
 20
0.114597
 11
-0.529829
 21
0.151926
  0
LINE
  8
0
 10
-0.529829
 20
0.151926
 11
-0.51794
 21
0.188515
  0
LINE
  8
0
 10
-0.51794
 20
0.188515
 11
-0.503529
 21
0.224185
  0
LINE
  8
0
 10
-0.503529
 20
0.224185
 11
-0.486663
 21
0.258764
  0
LINE
  8
0
 10
-0.486663
 20
0.258764
 11
-0.467428
 21
0.292081
  0
LINE
  8
0
 10
-0.467428
 20
0.292081
 11
-0.445915
 21
0.323976
  0
LINE
  8
0
 10
-0.445915
 20
0.323976
 11
-0.422229
 21
0.354292
  0
LINE
  8
0
 10
-0.422229
 20
0.354292
 11
-0.396486
 21
0.382882
  0
LINE
  8
0
 10
-0.396486
 20
0.382882
 11
-0.368812
 21
0.409607
  0
LINE
  8
0
 10
-0.368812
 20
0.409607
 11
-0.33934
 21
0.434337
  0
LINE
  8
0
 10
-0.33934
 20
0.434337
 11
-0.308216
 21
0.45695
  0
LINE
  8
0
 10
-0.308216
 20
0.45695
 11
-0.27559
 21
0.477336
  0
LINE
  8
0
 10
-0.27559
 20
0.477336
 11
-0.241622
 21
0.495398
  0
LINE
  8
0
 10
-0.241622
 20
0.495398
 11
-0.206476
 21
0.511046
  0
LINE
  8
0
 10
-0.206476
 20
0.511046
 11
-0.170324
 21
0.524204
  0
LINE
  8
0
 10
-0.170324
 20
0.524204
 11
-0.133343
 21
0.534809
  0
LINE
  8
0
 10
-0.133343
 20
0.534809
 11
-0.0957111
 21
0.542807
  0
LINE
  8
0
 10
-0.0957111
 20
0.542807
 11
-0.0576139
 21
0.548161
  0
LINE
  8
0
 10
-0.0576139
 20
0.548161
 11
-0.0192357
 21
0.550845
  0
LINE
  8
0
 10
-0.0192357
 20
0.550845
 11
0.0192357
 21
0.550845
  0
LINE
  8
0
 10
0.0192357
 20
0.550845
 11
0.0576139
 21
0.548161
  0
LINE
  8
0
 10
0.0576139
 20
0.548161
 11
0.0957111
 21
0.542807
  0
LINE
  8
0
 10
0.0957111
 20
0.542807
 11
0.133343
 21
0.534809
  0
LINE
  8
0
 10
0.133343
 20
0.534809
 11
0.170324
 21
0.524204
  0
LINE
  8
0
 10
0.170324
 20
0.524204
 11
0.206476
 21
0.511046
  0
LINE
  8
0
 10
0.206476
 20
0.511046
 11
0.241622
 21
0.495398
  0
LINE
  8
0
 10
0.241622
 20
0.495398
 11
0.275591
 21
0.477336
  0
LINE
  8
0
 10
0.275591
 20
0.477336
 11
0.308216
 21
0.45695
  0
LINE
  8
0
 10
0.308216
 20
0.45695
 11
0.33934
 21
0.434337
  0
LINE
  8
0
 10
0.33934
 20
0.434337
 11
0.368812
 21
0.409607
  0
LINE
  8
0
 10
0.368812
 20
0.409607
 11
0.396486
 21
0.382882
  0
LINE
  8
0
 10
0.396486
 20
0.382882
 11
0.422229
 21
0.354292
  0
LINE
  8
0
 10
0.422229
 20
0.354292
 11
0.445915
 21
0.323976
  0
LINE
  8
0
 10
0.445915
 20
0.323976
 11
0.467428
 21
0.292081
  0
LINE
  8
0
 10
0.467428
 20
0.292081
 11
0.486663
 21
0.258764
  0
LINE
  8
0
 10
0.486663
 20
0.258764
 11
0.503529
 21
0.224185
  0
LINE
  8
0
 10
0.503529
 20
0.224185
 11
0.51794
 21
0.188515
  0
LINE
  8
0
 10
0.51794
 20
0.188515
 11
0.529829
 21
0.151926
  0
LINE
  8
0
 10
0.529829
 20
0.151926
 11
0.539136
 21
0.114597
  0
LINE
  8
0
 10
0.539136
 20
0.114597
 11
0.545816
 21
0.0767091
  0
LINE
  8
0
 10
0.545816
 20
0.0767091
 11
0.549838
 21
0.0384479
  0
LINE
  8
0
 10
0.549838
 20
0.0384479
 11
0.551181
 21
0
  0
LINE
  8
0
 10
0.551181
 20
0
 11
0.549838
 21
-0.0384479
  0
LINE
  8
0
 10
0.549838
 20
-0.0384479
 11
0.545816
 21
-0.0767091
  0
LINE
  8
0
 10
0.545816
 20
-0.0767091
 11
0.539136
 21
-0.114597
  0
LINE
  8
0
 10
0.539136
 20
-0.114597
 11
0.529829
 21
-0.151926
  0
LINE
  8
0
 10
0.529829
 20
-0.151926
 11
0.51794
 21
-0.188515
  0
LINE
  8
0
 10
0.51794
 20
-0.188515
 11
0.503529
 21
-0.224185
  0
LINE
  8
0
 10
0.503529
 20
-0.224185
 11
0.486663
 21
-0.258764
  0
LINE
  8
0
 10
0.486663
 20
-0.258764
 11
0.467428
 21
-0.292081
  0
LINE
  8
0
 10
0.467428
 20
-0.292081
 11
0.445915
 21
-0.323976
  0
LINE
  8
0
 10
0.445915
 20
-0.323976
 11
0.422229
 21
-0.354292
  0
LINE
  8
0
 10
0.422229
 20
-0.354292
 11
0.396486
 21
-0.382882
  0
LINE
  8
0
 10
0.396486
 20
-0.382882
 11
0.368812
 21
-0.409607
  0
LINE
  8
0
 10
0.368812
 20
-0.409607
 11
0.33934
 21
-0.434337
  0
LINE
  8
0
 10
0.33934
 20
-0.434337
 11
0.308216
 21
-0.45695
  0
LINE
  8
0
 10
0.308216
 20
-0.45695
 11
0.275591
 21
-0.477336
  0
LINE
  8
0
 10
0.275591
 20
-0.477336
 11
0.241622
 21
-0.495398
  0
LINE
  8
0
 10
0.241622
 20
-0.495398
 11
0.206476
 21
-0.511046
  0
LINE
  8
0
 10
0.206476
 20
-0.511046
 11
0.170324
 21
-0.524204
  0
LINE
  8
0
 10
0.170324
 20
-0.524204
 11
0.133343
 21
-0.534809
  0
LINE
  8
0
 10
0.133343
 20
-0.534809
 11
0.0957111
 21
-0.542807
  0
LINE
  8
0
 10
0.0957111
 20
-0.542807
 11
0.0576139
 21
-0.548161
  0
LINE
  8
0
 10
0.0576139
 20
-0.548161
 11
0.0192357
 21
-0.550845
  0
LINE
  8
0
 10
0.0192357
 20
-0.550845
 11
-0.0192357
 21
-0.550845
  0
LINE
  8
0
 10
-0.791679
 20
-0.150954
 11
-0.79921
 21
-0.150311
  0
LINE
  8
0
 10
-0.79921
 20
-0.150311
 11
-0.806676
 21
-0.149144
  0
LINE
  8
0
 10
-0.806676
 20
-0.149144
 11
-0.814042
 21
-0.147459
  0
LINE
  8
0
 10
-0.814042
 20
-0.147459
 11
-0.821274
 21
-0.145265
  0
LINE
  8
0
 10
-0.821274
 20
-0.145265
 11
-0.828334
 21
-0.142571
  0
LINE
  8
0
 10
-0.828334
 20
-0.142571
 11
-0.83519
 21
-0.139391
  0
LINE
  8
0
 10
-0.83519
 20
-0.139391
 11
-0.841807
 21
-0.135741
  0
LINE
  8
0
 10
-0.841807
 20
-0.135741
 11
-0.848153
 21
-0.131639
  0
LINE
  8
0
 10
-0.848153
 20
-0.131639
 11
-0.854198
 21
-0.127103
  0
LINE
  8
0
 10
-0.854198
 20
-0.127103
 11
-0.859911
 21
-0.122157
  0
LINE
  8
0
 10
-0.859911
 20
-0.122157
 11
-0.865265
 21
-0.116825
  0
LINE
  8
0
 10
-0.865265
 20
-0.116825
 11
-0.870235
 21
-0.111131
  0
LINE
  8
0
 10
-0.870235
 20
-0.111131
 11
-0.874795
 21
-0.105105
  0
LINE
  8
0
 10
-0.874795
 20
-0.105105
 11
-0.878924
 21
-0.0987766
  0
LINE
  8
0
 10
-0.878924
 20
-0.0987766
 11
-0.882601
 21
-0.0921745
  0
LINE
  8
0
 10
-0.882601
 20
-0.0921745
 11
-0.885809
 21
-0.0853321
  0
LINE
  8
0
 10
-0.885809
 20
-0.0853321
 11
-0.888532
 21
-0.0782824
  0
LINE
  8
0
 10
-0.888532
 20
-0.0782824
 11
-0.890756
 21
-0.0710603
  0
LINE
  8
0
 10
-0.890756
 20
-0.0710603
 11
-0.892472
 21
-0.0637006
  0
LINE
  8
0
 10
-0.892472
 20
-0.0637006
 11
-0.893669
 21
-0.0562389
  0
LINE
  8
0
 10
-0.893669
 20
-0.0562389
 11
-0.894343
 21
-0.0487116
  0
LINE
  8
0
 10
-0.894343
 20
-0.0487116
 11
-0.894477
 21
-0.0418223
  0
LINE
  8
0
 10
-0.894477
 20
-0.0418223
 11
-0.894987
 21
-0.0349342
  0
LINE
  8
0
 10
-0.894987
 20
-0.0349342
 11
-0.895015
 21
-0.0280389
  0
LINE
  8
0
 10
-0.895015
 20
-0.0280389
 11
-0.895419
 21
-0.0211478
  0
LINE
  8
0
 10
-0.895419
 20
-0.0211478
 11
-0.895341
 21
-0.0142429
  0
LINE
  8
0
 10
-0.895341
 20
-0.0142429
 11
-0.895639
 21
-0.00735606
  0
LINE
  8
0
 10
-0.895639
 20
-0.00735606
 11
-0.895454
 21
-0.00045476
  0
LINE
  8
0
 10
-0.895454
 20
-0.00045476
 11
-0.895646
 21
0.00643633
  0
LINE
  8
0
 10
-0.895646
 20
0.00643633
 11
-0.895355
 21
0.0133334
  0
LINE
  8
0
 10
-0.895355
 20
0.0133334
 11
-0.89544
 21
0.0202281
  0
LINE
  8
0
 10
-0.89544
 20
0.0202281
 11
-0.895044
 21
0.027112
  0
LINE
  8
0
 10
-0.895044
 20
0.027112
 11
-0.895022
 21
0.0340145
  0
LINE
  8
0
 10
-0.895022
 20
0.0340145
 11
-0.89452
 21
0.0408942
  0
LINE
  8
0
 10
-0.89452
 20
0.0408942
 11
-0.894392
 21
0.0477937
  0
LINE
  8
0
 10
-0.894392
 20
0.0477937
 11
-0.893784
 21
0.0546637
  0
LINE
  8
0
 10
-0.893784
 20
0.0546637
 11
-0.89355
 21
0.0615614
  0
LINE
  8
0
 10
-0.89355
 20
0.0615614
 11
-0.892837
 21
0.068417
  0
LINE
  8
0
 10
-0.892837
 20
0.068417
 11
-0.892497
 21
0.0753141
  0
LINE
  8
0
 10
-0.892497
 20
0.0753141
 11
-0.891677
 21
0.0821614
  0
LINE
  8
0
 10
-0.891677
 20
0.0821614
 11
-0.89123
 21
0.0890489
  0
LINE
  8
0
 10
-0.89123
 20
0.0890489
 11
-0.890306
 21
0.0958847
  0
LINE
  8
0
 10
-0.890306
 20
0.0958847
 11
-0.889754
 21
0.102763
  0
LINE
  8
0
 10
-0.889754
 20
0.102763
 11
-0.888724
 21
0.109582
  0
LINE
  8
0
 10
-0.888724
 20
0.109582
 11
-0.888066
 21
0.116452
  0
LINE
  8
0
 10
-0.888066
 20
0.116452
 11
-0.886932
 21
0.123253
  0
LINE
  8
0
 10
-0.886932
 20
0.123253
 11
-0.886167
 21
0.130114
  0
LINE
  8
0
 10
-0.886167
 20
0.130114
 11
-0.884928
 21
0.136899
  0
LINE
  8
0
 10
-0.884928
 20
0.136899
 11
-0.884058
 21
0.143745
  0
LINE
  8
0
 10
-0.884058
 20
0.143745
 11
-0.882713
 21
0.150522
  0
LINE
  8
0
 10
-0.882713
 20
0.150522
 11
-0.88174
 21
0.157342
  0
LINE
  8
0
 10
-0.88174
 20
0.157342
 11
-0.880292
 21
0.164088
  0
LINE
  8
0
 10
-0.880292
 20
0.164088
 11
-0.879213
 21
0.170901
  0
LINE
  8
0
 10
-0.879213
 20
0.170901
 11
-0.877661
 21
0.177623
  0
LINE
  8
0
 10
-0.877661
 20
0.177623
 11
-0.876476
 21
0.18442
  0
LINE
  8
0
 10
-0.876476
 20
0.18442
 11
-0.874824
 21
0.191108
  0
LINE
  8
0
 10
-0.874824
 20
0.191108
 11
-0.873533
 21
0.197896
  0
LINE
  8
0
 10
-0.873533
 20
0.197896
 11
-0.871774
 21
0.204569
  0
LINE
  8
0
 10
-0.871774
 20
0.204569
 11
-0.870382
 21
0.211324
  0
LINE
  8
0
 10
-0.870382
 20
0.211324
 11
-0.868519
 21
0.217972
  0
LINE
  8
0
 10
-0.868519
 20
0.217972
 11
-0.867025
 21
0.224702
  0
LINE
  8
0
 10
-0.867025
 20
0.224702
 11
-0.865061
 21
0.231319
  0
LINE
  8
0
 10
-0.865061
 20
0.231319
 11
-0.863461
 21
0.238027
  0
LINE
  8
0
 10
-0.863461
 20
0.238027
 11
-0.861396
 21
0.244612
  0
LINE
  8
0
 10
-0.861396
 20
0.244612
 11
-0.859693
 21
0.251296
  0
LINE
  8
0
 10
-0.859693
 20
0.251296
 11
-0.857527
 21
0.257849
  0
LINE
  8
0
 10
-0.857527
 20
0.257849
 11
-0.855721
 21
0.264505
  0
LINE
  8
0
 10
-0.855721
 20
0.264505
 11
-0.853454
 21
0.271027
  0
LINE
  8
0
 10
-0.853454
 20
0.271027
 11
-0.851547
 21
0.277651
  0
LINE
  8
0
 10
-0.851547
 20
0.277651
 11
-0.84918
 21
0.284134
  0
LINE
  8
0
 10
-0.84918
 20
0.284134
 11
-0.84717
 21
0.290731
  0
LINE
  8
0
 10
-0.84717
 20
0.290731
 11
-0.844704
 21
0.297176
  0
LINE
  8
0
 10
-0.844704
 20
0.297176
 11
-0.842593
 21
0.303743
  0
LINE
  8
0
 10
-0.842593
 20
0.303743
 11
-0.840027
 21
0.310151
  0
LINE
  8
0
 10
-0.840027
 20
0.310151
 11
-0.837815
 21
0.316682
  0
LINE
  8
0
 10
-0.837815
 20
0.316682
 11
-0.835154
 21
0.323043
  0
LINE
  8
0
 10
-0.835154
 20
0.323043
 11
-0.832839
 21
0.329547
  0
LINE
  8
0
 10
-0.832839
 20
0.329547
 11
-0.83008
 21
0.335865
  0
LINE
  8
0
 10
-0.83008
 20
0.335865
 11
-0.827666
 21
0.342333
  0
LINE
  8
0
 10
-0.827666
 20
0.342333
 11
-0.82481
 21
0.348606
  0
LINE
  8
0
 10
-0.82481
 20
0.348606
 11
-0.822296
 21
0.355038
  0
LINE
  8
0
 10
-0.822296
 20
0.355038
 11
-0.81934
 21
0.361276
  0
LINE
  8
0
 10
-0.81934
 20
0.361276
 11
-0.816731
 21
0.367659
  0
LINE
  8
0
 10
-0.816731
 20
0.367659
 11
-0.813678
 21
0.373854
  0
LINE
  8
0
 10
-0.813678
 20
0.373854
 11
-0.810973
 21
0.380192
  0
LINE
  8
0
 10
-0.810973
 20
0.380192
 11
-0.807827
 21
0.386333
  0
LINE
  8
0
 10
-0.807827
 20
0.386333
 11
-0.805021
 21
0.392636
  0
LINE
  8
0
 10
-0.805021
 20
0.392636
 11
-0.801474
 21
0.399307
  0
LINE
  8
0
 10
-0.801474
 20
0.399307
 11
-0.797469
 21
0.405716
  0
LINE
  8
0
 10
-0.797469
 20
0.405716
 11
-0.793028
 21
0.41183
  0
LINE
  8
0
 10
-0.793028
 20
0.41183
 11
-0.78817
 21
0.417619
  0
LINE
  8
0
 10
-0.78817
 20
0.417619
 11
-0.78292
 21
0.423055
  0
LINE
  8
0
 10
-0.78292
 20
0.423055
 11
-0.777304
 21
0.428112
  0
LINE
  8
0
 10
-0.777304
 20
0.428112
 11
-0.771349
 21
0.432764
  0
LINE
  8
0
 10
-0.771349
 20
0.432764
 11
-0.765085
 21
0.43699
  0
LINE
  8
0
 10
-0.765085
 20
0.43699
 11
-0.75854
 21
0.440768
  0
LINE
  8
0
 10
-0.75854
 20
0.440768
 11
-0.751748
 21
0.444081
  0
LINE
  8
0
 10
-0.751748
 20
0.444081
 11
-0.744741
 21
0.446913
  0
LINE
  8
0
 10
-0.744741
 20
0.446913
 11
-0.737554
 21
0.449248
  0
LINE
  8
0
 10
-0.737554
 20
0.449248
 11
-0.730221
 21
0.451076
  0
LINE
  8
0
 10
-0.730221
 20
0.451076
 11
-0.722779
 21
0.452388
  0
LINE
  8
0
 10
-0.722779
 20
0.452388
 11
-0.715264
 21
0.453178
  0
LINE
  8
0
 10
-0.715264
 20
0.453178
 11
-0.707712
 21
0.453441
  0
LINE
  8
0
 10
-0.707712
 20
0.453441
 11
-0.700159
 21
0.453178
  0
LINE
  8
0
 10
-0.700159
 20
0.453178
 11
-0.692643
 21
0.452388
  0
LINE
  8
0
 10
-0.692643
 20
0.452388
 11
-0.685201
 21
0.451076
  0
LINE
  8
0
 10
-0.685201
 20
0.451076
 11
-0.677869
 21
0.449248
  0
LINE
  8
0
 10
-0.677869
 20
0.449248
 11
-0.670681
 21
0.446912
  0
LINE
  8
0
 10
-0.670681
 20
0.446912
 11
-0.663674
 21
0.444081
  0
LINE
  8
0
 10
-0.663674
 20
0.444081
 11
-0.656882
 21
0.440768
  0
LINE
  8
0
 10
-0.656882
 20
0.440768
 11
-0.650338
 21
0.43699
  0
LINE
  8
0
 10
-0.650338
 20
0.43699
 11
-0.644073
 21
0.432764
  0
LINE
  8
0
 10
-0.644073
 20
0.432764
 11
-0.638118
 21
0.428112
  0
LINE
  8
0
 10
-0.638118
 20
0.428112
 11
-0.632502
 21
0.423055
  0
LINE
  8
0
 10
-0.632502
 20
0.423055
 11
-0.627252
 21
0.417619
  0
LINE
  8
0
 10
-0.627252
 20
0.417619
 11
-0.622395
 21
0.41183
  0
LINE
  8
0
 10
-0.622395
 20
0.41183
 11
-0.617953
 21
0.405716
  0
LINE
  8
0
 10
-0.617953
 20
0.405716
 11
-0.613949
 21
0.399307
  0
LINE
  8
0
 10
-0.613949
 20
0.399307
 11
-0.610401
 21
0.392635
  0
LINE
  8
0
 10
-0.610401
 20
0.392635
 11
-0.607327
 21
0.385731
  0
LINE
  8
0
 10
-0.607327
 20
0.385731
 11
-0.604742
 21
0.378631
  0
LINE
  8
0
 10
-0.604742
 20
0.378631
 11
-0.602659
 21
0.371366
  0
LINE
  8
0
 10
-0.602659
 20
0.371366
 11
-0.601089
 21
0.363974
  0
LINE
  8
0
 10
-0.601089
 20
0.363974
 11
-0.600036
 21
0.356491
  0
LINE
  8
0
 10
-0.600036
 20
0.356491
 11
-0.599509
 21
0.348952
  0
LINE
  8
0
 10
-0.599509
 20
0.348952
 11
-0.599509
 21
0.341395
  0
LINE
  8
0
 10
-0.599509
 20
0.341395
 11
-0.600037
 21
0.333857
  0
LINE
  8
0
 10
-0.600037
 20
0.333857
 11
-0.601088
 21
0.326373
  0
LINE
  8
0
 10
-0.601088
 20
0.326373
 11
-0.60266
 21
0.318981
  0
LINE
  8
0
 10
-0.60266
 20
0.318981
 11
-0.604742
 21
0.311717
  0
LINE
  8
0
 10
-0.604742
 20
0.311717
 11
-0.607327
 21
0.304616
  0
LINE
  8
0
 10
-0.607327
 20
0.304616
 11
-0.610401
 21
0.297713
  0
LINE
  8
0
 10
-0.610401
 20
0.297713
 11
-0.612859
 21
0.293089
  0
LINE
  8
0
 10
-0.612859
 20
0.293089
 11
-0.614913
 21
0.288277
  0
LINE
  8
0
 10
-0.614913
 20
0.288277
 11
-0.617299
 21
0.283618
  0
LINE
  8
0
 10
-0.617299
 20
0.283618
 11
-0.61928
 21
0.278774
  0
LINE
  8
0
 10
-0.61928
 20
0.278774
 11
-0.621593
 21
0.27408
  0
LINE
  8
0
 10
-0.621593
 20
0.27408
 11
-0.623499
 21
0.269204
  0
LINE
  8
0
 10
-0.623499
 20
0.269204
 11
-0.625741
 21
0.264473
  0
LINE
  8
0
 10
-0.625741
 20
0.264473
 11
-0.627571
 21
0.259571
  0
LINE
  8
0
 10
-0.627571
 20
0.259571
 11
-0.629739
 21
0.254805
  0
LINE
  8
0
 10
-0.629739
 20
0.254805
 11
-0.631493
 21
0.249876
  0
LINE
  8
0
 10
-0.631493
 20
0.249876
 11
-0.633588
 21
0.245078
  0
LINE
  8
0
 10
-0.633588
 20
0.245078
 11
-0.635267
 21
0.240122
  0
LINE
  8
0
 10
-0.635267
 20
0.240122
 11
-0.637285
 21
0.235297
  0
LINE
  8
0
 10
-0.637285
 20
0.235297
 11
-0.638889
 21
0.23031
  0
LINE
  8
0
 10
-0.638889
 20
0.23031
 11
-0.640835
 21
0.225452
  0
LINE
  8
0
 10
-0.640835
 20
0.225452
 11
-0.64236
 21
0.220444
  0
LINE
  8
0
 10
-0.64236
 20
0.220444
 11
-0.644231
 21
0.215556
  0
LINE
  8
0
 10
-0.644231
 20
0.215556
 11
-0.645678
 21
0.210527
  0
LINE
  8
0
 10
-0.645678
 20
0.210527
 11
-0.647474
 21
0.205609
  0
LINE
  8
0
 10
-0.647474
 20
0.205609
 11
-0.648843
 21
0.200559
  0
LINE
  8
0
 10
-0.648843
 20
0.200559
 11
-0.650563
 21
0.195612
  0
LINE
  8
0
 10
-0.650563
 20
0.195612
 11
-0.651855
 21
0.190543
  0
LINE
  8
0
 10
-0.651855
 20
0.190543
 11
-0.653498
 21
0.185574
  0
LINE
  8
0
 10
-0.653498
 20
0.185574
 11
-0.654712
 21
0.180482
  0
LINE
  8
0
 10
-0.654712
 20
0.180482
 11
-0.656278
 21
0.17549
  0
LINE
  8
0
 10
-0.656278
 20
0.17549
 11
-0.657414
 21
0.170378
  0
LINE
  8
0
 10
-0.657414
 20
0.170378
 11
-0.658903
 21
0.165361
  0
LINE
  8
0
 10
-0.658903
 20
0.165361
 11
-0.659959
 21
0.160235
  0
LINE
  8
0
 10
-0.659959
 20
0.160235
 11
-0.661371
 21
0.155196
  0
LINE
  8
0
 10
-0.661371
 20
0.155196
 11
-0.662349
 21
0.150053
  0
LINE
  8
0
 10
-0.662349
 20
0.150053
 11
-0.663682
 21
0.144995
  0
LINE
  8
0
 10
-0.663682
 20
0.144995
 11
-0.664581
 21
0.139835
  0
LINE
  8
0
 10
-0.664581
 20
0.139835
 11
-0.665837
 21
0.134753
  0
LINE
  8
0
 10
-0.665837
 20
0.134753
 11
-0.666656
 21
0.129584
  0
LINE
  8
0
 10
-0.666656
 20
0.129584
 11
-0.667833
 21
0.124485
  0
LINE
  8
0
 10
-0.667833
 20
0.124485
 11
-0.668572
 21
0.119303
  0
LINE
  8
0
 10
-0.668572
 20
0.119303
 11
-0.669671
 21
0.114183
  0
LINE
  8
0
 10
-0.669671
 20
0.114183
 11
-0.67033
 21
0.108993
  0
LINE
  8
0
 10
-0.67033
 20
0.108993
 11
-0.67135
 21
0.103858
  0
LINE
  8
0
 10
-0.67135
 20
0.103858
 11
-0.671929
 21
0.0986577
  0
LINE
  8
0
 10
-0.671929
 20
0.0986577
 11
-0.672869
 21
0.0935087
  0
LINE
  8
0
 10
-0.672869
 20
0.0935087
 11
-0.673369
 21
0.0882985
  0
LINE
  8
0
 10
-0.673369
 20
0.0882985
 11
-0.67423
 21
0.0831334
  0
LINE
  8
0
 10
-0.67423
 20
0.0831334
 11
-0.674649
 21
0.0779189
  0
LINE
  8
0
 10
-0.674649
 20
0.0779189
 11
-0.67543
 21
0.072743
  0
LINE
  8
0
 10
-0.67543
 20
0.072743
 11
-0.675768
 21
0.0675201
  0
LINE
  8
0
 10
-0.675768
 20
0.0675201
 11
-0.67647
 21
0.0623364
  0
LINE
  8
0
 10
-0.67647
 20
0.0623364
 11
-0.676728
 21
0.0571057
  0
LINE
  8
0
 10
-0.676728
 20
0.0571057
 11
-0.67735
 21
0.0519099
  0
LINE
  8
0
 10
-0.67735
 20
0.0519099
 11
-0.677527
 21
0.0466775
  0
LINE
  8
0
 10
-0.677527
 20
0.0466775
 11
-0.678069
 21
0.0414727
  0
LINE
  8
0
 10
-0.678069
 20
0.0414727
 11
-0.678166
 21
0.036239
  0
LINE
  8
0
 10
-0.678166
 20
0.036239
 11
-0.678627
 21
0.0310258
  0
LINE
  8
0
 10
-0.678627
 20
0.0310258
 11
-0.678643
 21
0.0257916
  0
LINE
  8
0
 10
-0.678643
 20
0.0257916
 11
-0.679025
 21
0.0205669
  0
LINE
  8
0
 10
-0.679025
 20
0.0205669
 11
-0.67896
 21
0.0153381
  0
LINE
  8
0
 10
-0.67896
 20
0.0153381
 11
-0.679261
 21
0.0101135
  0
LINE
  8
0
 10
-0.679261
 20
0.0101135
 11
-0.679116
 21
0.00488041
  0
LINE
  8
0
 10
-0.679116
 20
0.00488041
 11
-0.679336
 21
-0.000346627
  0
LINE
  8
0
 10
-0.679336
 20
-0.000346627
 11
-0.67911
 21
-0.00557787
  0
LINE
  8
0
 10
-0.67911
 20
-0.00557787
 11
-0.67925
 21
-0.0108085
  0
LINE
  8
0
 10
-0.67925
 20
-0.0108085
 11
-0.678944
 21
-0.0160349
  0
LINE
  8
0
 10
-0.678944
 20
-0.0160349
 11
-0.679003
 21
-0.0212698
  0
LINE
  8
0
 10
-0.679003
 20
-0.0212698
 11
-0.678617
 21
-0.0264884
  0
LINE
  8
0
 10
-0.678617
 20
-0.0264884
 11
-0.678595
 21
-0.0317215
  0
LINE
  8
0
 10
-0.678595
 20
-0.0317215
 11
-0.678128
 21
-0.0369353
  0
LINE
  8
0
 10
-0.678128
 20
-0.0369353
 11
-0.67798
 21
-0.0444908
  0
LINE
  8
0
 10
-0.67798
 20
-0.0444908
 11
-0.678361
 21
-0.0520385
  0
LINE
  8
0
 10
-0.678361
 20
-0.0520385
 11
-0.679266
 21
-0.0595411
  0
LINE
  8
0
 10
-0.679266
 20
-0.0595411
 11
-0.680693
 21
-0.0669621
  0
LINE
  8
0
 10
-0.680693
 20
-0.0669621
 11
-0.682634
 21
-0.0742652
  0
LINE
  8
0
 10
-0.682634
 20
-0.0742652
 11
-0.685079
 21
-0.0814153
  0
LINE
  8
0
 10
-0.685079
 20
-0.0814153
 11
-0.688018
 21
-0.0883778
  0
LINE
  8
0
 10
-0.688018
 20
-0.0883778
 11
-0.691435
 21
-0.0951187
  0
LINE
  8
0
 10
-0.691435
 20
-0.0951187
 11
-0.695314
 21
-0.101604
  0
LINE
  8
0
 10
-0.695314
 20
-0.101604
 11
-0.699636
 21
-0.107803
  0
LINE
  8
0
 10
-0.699636
 20
-0.107803
 11
-0.704379
 21
-0.113686
  0
LINE
  8
0
 10
-0.704379
 20
-0.113686
 11
-0.709522
 21
-0.119223
  0
LINE
  8
0
 10
-0.709522
 20
-0.119223
 11
-0.715038
 21
-0.124389
  0
LINE
  8
0
 10
-0.715038
 20
-0.124389
 11
-0.720901
 21
-0.129156
  0
LINE
  8
0
 10
-0.720901
 20
-0.129156
 11
-0.727083
 21
-0.133504
  0
LINE
  8
0
 10
-0.727083
 20
-0.133504
 11
-0.733552
 21
-0.137408
  0
LINE
  8
0
 10
-0.733552
 20
-0.137408
 11
-0.740278
 21
-0.140854
  0
LINE
  8
0
 10
-0.740278
 20
-0.140854
 11
-0.747228
 21
-0.143821
  0
LINE
  8
0
 10
-0.747228
 20
-0.143821
 11
-0.754369
 21
-0.146295
  0
LINE
  8
0
 10
-0.754369
 20
-0.146295
 11
-0.761663
 21
-0.148266
  0
LINE
  8
0
 10
-0.761663
 20
-0.148266
 11
-0.769079
 21
-0.149724
  0
LINE
  8
0
 10
-0.769079
 20
-0.149724
 11
-0.776577
 21
-0.15066
  0
LINE
  8
0
 10
-0.776577
 20
-0.15066
 11
-0.784123
 21
-0.151071
  0
LINE
  8
0
 10
-0.784123
 20
-0.151071
 11
-0.791679
 21
-0.150954
  0
LINE
  8
0
 10
2.25759
 20
0.259739
 11
2.25145
 21
0.260493
  0
LINE
  8
0
 10
2.25145
 20
0.260493
 11
2.24538
 21
0.261673
  0
LINE
  8
0
 10
2.24538
 20
0.261673
 11
2.23941
 21
0.263274
  0
LINE
  8
0
 10
2.23941
 20
0.263274
 11
2.23356
 21
0.265286
  0
LINE
  8
0
 10
2.23356
 20
0.265286
 11
2.22787
 21
0.267702
  0
LINE
  8
0
 10
2.22787
 20
0.267702
 11
2.22236
 21
0.270509
  0
LINE
  8
0
 10
2.22236
 20
0.270509
 11
2.21706
 21
0.273693
  0
LINE
  8
0
 10
2.21706
 20
0.273693
 11
2.212
 21
0.27724
  0
LINE
  8
0
 10
2.212
 20
0.27724
 11
2.20719
 21
0.281131
  0
LINE
  8
0
 10
2.20719
 20
0.281131
 11
2.20267
 21
0.285348
  0
LINE
  8
0
 10
2.20267
 20
0.285348
 11
2.19845
 21
0.28987
  0
LINE
  8
0
 10
2.19845
 20
0.28987
 11
2.19456
 21
0.294675
  0
LINE
  8
0
 10
2.19456
 20
0.294675
 11
2.19102
 21
0.29974
  0
LINE
  8
0
 10
2.19102
 20
0.29974
 11
2.18783
 21
0.305039
  0
LINE
  8
0
 10
2.18783
 20
0.305039
 11
2.18502
 21
0.310549
  0
LINE
  8
0
 10
2.18502
 20
0.310549
 11
2.18261
 21
0.31624
  0
LINE
  8
0
 10
2.18261
 20
0.31624
 11
2.1806
 21
0.322086
  0
LINE
  8
0
 10
2.1806
 20
0.322086
 11
2.179
 21
0.328059
  0
LINE
  8
0
 10
2.179
 20
0.328059
 11
2.17782
 21
0.334128
  0
LINE
  8
0
 10
2.17782
 20
0.334128
 11
2.17706
 21
0.340265
  0
LINE
  8
0
 10
2.17706
 20
0.340265
 11
2.17674
 21
0.346439
  0
LINE
  8
0
 10
2.17674
 20
0.346439
 11
2.17685
 21
0.352622
  0
LINE
  8
0
 10
2.17685
 20
0.352622
 11
2.17739
 21
0.358781
  0
LINE
  8
0
 10
2.17739
 20
0.358781
 11
2.17835
 21
0.364888
  0
LINE
  8
0
 10
2.17835
 20
0.364888
 11
2.17974
 21
0.370912
  0
LINE
  8
0
 10
2.17974
 20
0.370912
 11
2.18155
 21
0.376825
  0
LINE
  8
0
 10
2.18155
 20
0.376825
 11
2.18377
 21
0.382597
  0
LINE
  8
0
 10
2.18377
 20
0.382597
 11
2.18638
 21
0.388201
  0
LINE
  8
0
 10
2.18638
 20
0.388201
 11
2.18938
 21
0.393609
  0
LINE
  8
0
 10
2.18938
 20
0.393609
 11
2.19275
 21
0.398794
  0
LINE
  8
0
 10
2.19275
 20
0.398794
 11
2.19647
 21
0.403732
  0
LINE
  8
0
 10
2.19647
 20
0.403732
 11
2.20052
 21
0.408398
  0
LINE
  8
0
 10
2.20052
 20
0.408398
 11
2.2049
 21
0.412771
  0
LINE
  8
0
 10
2.2049
 20
0.412771
 11
2.20956
 21
0.416827
  0
LINE
  8
0
 10
2.20956
 20
0.416827
 11
2.2145
 21
0.420548
  0
LINE
  8
0
 10
2.2145
 20
0.420548
 11
2.21968
 21
0.423916
  0
LINE
  8
0
 10
2.21968
 20
0.423916
 11
2.22509
 21
0.426913
  0
LINE
  8
0
 10
2.22509
 20
0.426913
 11
2.2307
 21
0.429526
  0
LINE
  8
0
 10
2.2307
 20
0.429526
 11
2.23647
 21
0.431742
  0
LINE
  8
0
 10
2.23647
 20
0.431742
 11
2.24238
 21
0.43355
  0
LINE
  8
0
 10
2.24238
 20
0.43355
 11
2.24841
 21
0.43494
  0
LINE
  8
0
 10
2.24841
 20
0.43494
 11
2.25451
 21
0.435908
  0
LINE
  8
0
 10
2.25451
 20
0.435908
 11
2.26067
 21
0.436446
  0
LINE
  8
0
 10
2.26067
 20
0.436446
 11
2.26685
 21
0.436555
  0
LINE
  8
0
 10
2.26685
 20
0.436555
 11
2.27303
 21
0.436231
  0
LINE
  8
0
 10
2.27303
 20
0.436231
 11
2.27917
 21
0.435477
  0
LINE
  8
0
 10
2.27917
 20
0.435477
 11
2.28523
 21
0.434298
  0
LINE
  8
0
 10
2.28523
 20
0.434298
 11
2.29121
 21
0.432697
  0
LINE
  8
0
 10
2.29121
 20
0.432697
 11
2.29705
 21
0.430684
  0
LINE
  8
0
 10
2.29705
 20
0.430684
 11
2.30274
 21
0.428269
  0
LINE
  8
0
 10
2.30274
 20
0.428269
 11
2.30825
 21
0.425461
  0
LINE
  8
0
 10
2.30825
 20
0.425461
 11
2.31355
 21
0.422277
  0
LINE
  8
0
 10
2.31355
 20
0.422277
 11
2.31862
 21
0.418731
  0
LINE
  8
0
 10
2.31862
 20
0.418731
 11
2.32342
 21
0.41484
  0
LINE
  8
0
 10
2.32342
 20
0.41484
 11
2.32795
 21
0.410623
  0
LINE
  8
0
 10
2.32795
 20
0.410623
 11
2.33216
 21
0.406101
  0
LINE
  8
0
 10
2.33216
 20
0.406101
 11
2.33605
 21
0.401296
  0
LINE
  8
0
 10
2.33605
 20
0.401296
 11
2.3396
 21
0.396231
  0
LINE
  8
0
 10
2.3396
 20
0.396231
 11
2.34278
 21
0.390931
  0
LINE
  8
0
 10
2.34278
 20
0.390931
 11
2.34559
 21
0.385422
  0
LINE
  8
0
 10
2.34559
 20
0.385422
 11
2.34801
 21
0.379731
  0
LINE
  8
0
 10
2.34801
 20
0.379731
 11
2.35002
 21
0.373884
  0
LINE
  8
0
 10
2.35002
 20
0.373884
 11
2.35162
 21
0.367912
  0
LINE
  8
0
 10
2.35162
 20
0.367912
 11
2.3528
 21
0.361843
  0
LINE
  8
0
 10
2.3528
 20
0.361843
 11
2.35355
 21
0.355706
  0
LINE
  8
0
 10
2.35355
 20
0.355706
 11
2.35388
 21
0.349531
  0
LINE
  8
0
 10
2.35388
 20
0.349531
 11
2.35377
 21
0.343349
  0
LINE
  8
0
 10
2.35377
 20
0.343349
 11
2.35323
 21
0.33719
  0
LINE
  8
0
 10
2.35323
 20
0.33719
 11
2.35226
 21
0.331083
  0
LINE
  8
0
 10
2.35226
 20
0.331083
 11
2.35087
 21
0.325058
  0
LINE
  8
0
 10
2.35087
 20
0.325058
 11
2.34906
 21
0.319145
  0
LINE
  8
0
 10
2.34906
 20
0.319145
 11
2.34685
 21
0.313373
  0
LINE
  8
0
 10
2.34685
 20
0.313373
 11
2.34424
 21
0.30777
  0
LINE
  8
0
 10
2.34424
 20
0.30777
 11
2.34124
 21
0.302362
  0
LINE
  8
0
 10
2.34124
 20
0.302362
 11
2.33787
 21
0.297176
  0
LINE
  8
0
 10
2.33787
 20
0.297176
 11
2.33415
 21
0.292238
  0
LINE
  8
0
 10
2.33415
 20
0.292238
 11
2.33009
 21
0.287572
  0
LINE
  8
0
 10
2.33009
 20
0.287572
 11
2.32572
 21
0.2832
  0
LINE
  8
0
 10
2.32572
 20
0.2832
 11
2.32105
 21
0.279144
  0
LINE
  8
0
 10
2.32105
 20
0.279144
 11
2.31612
 21
0.275422
  0
LINE
  8
0
 10
2.31612
 20
0.275422
 11
2.31093
 21
0.272055
  0
LINE
  8
0
 10
2.31093
 20
0.272055
 11
2.30552
 21
0.269058
  0
LINE
  8
0
 10
2.30552
 20
0.269058
 11
2.29992
 21
0.266444
  0
LINE
  8
0
 10
2.29992
 20
0.266444
 11
2.29415
 21
0.264229
  0
LINE
  8
0
 10
2.29415
 20
0.264229
 11
2.28824
 21
0.262421
  0
LINE
  8
0
 10
2.28824
 20
0.262421
 11
2.28221
 21
0.26103
  0
LINE
  8
0
 10
2.28221
 20
0.26103
 11
2.2761
 21
0.260063
  0
LINE
  8
0
 10
2.2761
 20
0.260063
 11
2.26994
 21
0.259524
  0
LINE
  8
0
 10
2.26994
 20
0.259524
 11
2.26376
 21
0.259416
  0
LINE
  8
0
 10
2.26376
 20
0.259416
 11
2.25759
 21
0.259739
  0
LINE
  8
0
 10
1.5647
 20
0.259524
 11
1.55854
 21
0.260063
  0
LINE
  8
0
 10
1.55854
 20
0.260063
 11
1.55244
 21
0.26103
  0
LINE
  8
0
 10
1.55244
 20
0.26103
 11
1.54641
 21
0.262421
  0
LINE
  8
0
 10
1.54641
 20
0.262421
 11
1.5405
 21
0.264229
  0
LINE
  8
0
 10
1.5405
 20
0.264229
 11
1.53473
 21
0.266444
  0
LINE
  8
0
 10
1.53473
 20
0.266444
 11
1.52912
 21
0.269058
  0
LINE
  8
0
 10
1.52912
 20
0.269058
 11
1.52371
 21
0.272055
  0
LINE
  8
0
 10
1.52371
 20
0.272055
 11
1.51853
 21
0.275422
  0
LINE
  8
0
 10
1.51853
 20
0.275422
 11
1.51359
 21
0.279144
  0
LINE
  8
0
 10
1.51359
 20
0.279144
 11
1.50892
 21
0.2832
  0
LINE
  8
0
 10
1.50892
 20
0.2832
 11
1.50455
 21
0.287572
  0
LINE
  8
0
 10
1.50455
 20
0.287572
 11
1.5005
 21
0.292238
  0
LINE
  8
0
 10
1.5005
 20
0.292238
 11
1.49677
 21
0.297176
  0
LINE
  8
0
 10
1.49677
 20
0.297176
 11
1.49341
 21
0.302362
  0
LINE
  8
0
 10
1.49341
 20
0.302362
 11
1.49041
 21
0.30777
  0
LINE
  8
0
 10
1.49041
 20
0.30777
 11
1.4878
 21
0.313373
  0
LINE
  8
0
 10
1.4878
 20
0.313373
 11
1.48558
 21
0.319145
  0
LINE
  8
0
 10
1.48558
 20
0.319145
 11
1.48377
 21
0.325058
  0
LINE
  8
0
 10
1.48377
 20
0.325058
 11
1.48238
 21
0.331083
  0
LINE
  8
0
 10
1.48238
 20
0.331083
 11
1.48142
 21
0.33719
  0
LINE
  8
0
 10
1.48142
 20
0.33719
 11
1.48088
 21
0.343349
  0
LINE
  8
0
 10
1.48088
 20
0.343349
 11
1.48077
 21
0.349531
  0
LINE
  8
0
 10
1.48077
 20
0.349531
 11
1.48109
 21
0.355706
  0
LINE
  8
0
 10
1.48109
 20
0.355706
 11
1.48185
 21
0.361843
  0
LINE
  8
0
 10
1.48185
 20
0.361843
 11
1.48303
 21
0.367912
  0
LINE
  8
0
 10
1.48303
 20
0.367912
 11
1.48463
 21
0.373884
  0
LINE
  8
0
 10
1.48463
 20
0.373884
 11
1.48664
 21
0.379731
  0
LINE
  8
0
 10
1.48664
 20
0.379731
 11
1.48905
 21
0.385422
  0
LINE
  8
0
 10
1.48905
 20
0.385422
 11
1.49186
 21
0.390931
  0
LINE
  8
0
 10
1.49186
 20
0.390931
 11
1.49505
 21
0.396231
  0
LINE
  8
0
 10
1.49505
 20
0.396231
 11
1.49859
 21
0.401296
  0
LINE
  8
0
 10
1.49859
 20
0.401296
 11
1.50248
 21
0.406101
  0
LINE
  8
0
 10
1.50248
 20
0.406101
 11
1.5067
 21
0.410623
  0
LINE
  8
0
 10
1.5067
 20
0.410623
 11
1.51122
 21
0.41484
  0
LINE
  8
0
 10
1.51122
 20
0.41484
 11
1.51603
 21
0.418731
  0
LINE
  8
0
 10
1.51603
 20
0.418731
 11
1.52109
 21
0.422277
  0
LINE
  8
0
 10
1.52109
 20
0.422277
 11
1.52639
 21
0.425461
  0
LINE
  8
0
 10
1.52639
 20
0.425461
 11
1.5319
 21
0.428269
  0
LINE
  8
0
 10
1.5319
 20
0.428269
 11
1.53759
 21
0.430684
  0
LINE
  8
0
 10
1.53759
 20
0.430684
 11
1.54344
 21
0.432697
  0
LINE
  8
0
 10
1.54344
 20
0.432697
 11
1.54941
 21
0.434298
  0
LINE
  8
0
 10
1.54941
 20
0.434298
 11
1.55548
 21
0.435477
  0
LINE
  8
0
 10
1.55548
 20
0.435477
 11
1.56162
 21
0.436231
  0
LINE
  8
0
 10
1.56162
 20
0.436231
 11
1.56779
 21
0.436555
  0
LINE
  8
0
 10
1.56779
 20
0.436555
 11
1.57397
 21
0.436446
  0
LINE
  8
0
 10
1.57397
 20
0.436446
 11
1.58013
 21
0.435908
  0
LINE
  8
0
 10
1.58013
 20
0.435908
 11
1.58624
 21
0.43494
  0
LINE
  8
0
 10
1.58624
 20
0.43494
 11
1.59226
 21
0.43355
  0
LINE
  8
0
 10
1.59226
 20
0.43355
 11
1.59818
 21
0.431742
  0
LINE
  8
0
 10
1.59818
 20
0.431742
 11
1.60395
 21
0.429526
  0
LINE
  8
0
 10
1.60395
 20
0.429526
 11
1.60955
 21
0.426913
  0
LINE
  8
0
 10
1.60955
 20
0.426913
 11
1.61496
 21
0.423916
  0
LINE
  8
0
 10
1.61496
 20
0.423916
 11
1.62015
 21
0.420548
  0
LINE
  8
0
 10
1.62015
 20
0.420548
 11
1.62508
 21
0.416827
  0
LINE
  8
0
 10
1.62508
 20
0.416827
 11
1.62975
 21
0.412771
  0
LINE
  8
0
 10
1.62975
 20
0.412771
 11
1.63412
 21
0.408398
  0
LINE
  8
0
 10
1.63412
 20
0.408398
 11
1.63818
 21
0.403732
  0
LINE
  8
0
 10
1.63818
 20
0.403732
 11
1.6419
 21
0.398794
  0
LINE
  8
0
 10
1.6419
 20
0.398794
 11
1.64527
 21
0.393609
  0
LINE
  8
0
 10
1.64527
 20
0.393609
 11
1.64827
 21
0.388201
  0
LINE
  8
0
 10
1.64827
 20
0.388201
 11
1.65088
 21
0.382597
  0
LINE
  8
0
 10
1.65088
 20
0.382597
 11
1.65309
 21
0.376825
  0
LINE
  8
0
 10
1.65309
 20
0.376825
 11
1.6549
 21
0.370912
  0
LINE
  8
0
 10
1.6549
 20
0.370912
 11
1.65629
 21
0.364888
  0
LINE
  8
0
 10
1.65629
 20
0.364888
 11
1.65726
 21
0.358781
  0
LINE
  8
0
 10
1.65726
 20
0.358781
 11
1.6578
 21
0.352622
  0
LINE
  8
0
 10
1.6578
 20
0.352622
 11
1.65791
 21
0.346439
  0
LINE
  8
0
 10
1.65791
 20
0.346439
 11
1.65758
 21
0.340265
  0
LINE
  8
0
 10
1.65758
 20
0.340265
 11
1.65683
 21
0.334128
  0
LINE
  8
0
 10
1.65683
 20
0.334128
 11
1.65565
 21
0.328059
  0
LINE
  8
0
 10
1.65565
 20
0.328059
 11
1.65405
 21
0.322086
  0
LINE
  8
0
 10
1.65405
 20
0.322086
 11
1.65204
 21
0.31624
  0
LINE
  8
0
 10
1.65204
 20
0.31624
 11
1.64962
 21
0.310549
  0
LINE
  8
0
 10
1.64962
 20
0.310549
 11
1.64681
 21
0.305039
  0
LINE
  8
0
 10
1.64681
 20
0.305039
 11
1.64363
 21
0.29974
  0
LINE
  8
0
 10
1.64363
 20
0.29974
 11
1.64008
 21
0.294675
  0
LINE
  8
0
 10
1.64008
 20
0.294675
 11
1.63619
 21
0.28987
  0
LINE
  8
0
 10
1.63619
 20
0.28987
 11
1.63197
 21
0.285348
  0
LINE
  8
0
 10
1.63197
 20
0.285348
 11
1.62745
 21
0.281131
  0
LINE
  8
0
 10
1.62745
 20
0.281131
 11
1.62265
 21
0.27724
  0
LINE
  8
0
 10
1.62265
 20
0.27724
 11
1.61758
 21
0.273693
  0
LINE
  8
0
 10
1.61758
 20
0.273693
 11
1.61228
 21
0.270509
  0
LINE
  8
0
 10
1.61228
 20
0.270509
 11
1.60677
 21
0.267702
  0
LINE
  8
0
 10
1.60677
 20
0.267702
 11
1.60108
 21
0.265286
  0
LINE
  8
0
 10
1.60108
 20
0.265286
 11
1.59524
 21
0.263274
  0
LINE
  8
0
 10
1.59524
 20
0.263274
 11
1.58926
 21
0.261673
  0
LINE
  8
0
 10
1.58926
 20
0.261673
 11
1.58319
 21
0.260493
  0
LINE
  8
0
 10
1.58319
 20
0.260493
 11
1.57706
 21
0.259739
  0
LINE
  8
0
 10
1.57706
 20
0.259739
 11
1.57088
 21
0.259416
  0
LINE
  8
0
 10
1.57088
 20
0.259416
 11
1.5647
 21
0.259524
  0
LINE
  8
0
 10
1.90633
 20
-0.314768
 11
1.8844
 21
-0.313235
  0
LINE
  8
0
 10
1.8844
 20
-0.313235
 11
1.86263
 21
-0.310175
  0
LINE
  8
0
 10
1.86263
 20
-0.310175
 11
1.84113
 21
-0.305605
  0
LINE
  8
0
 10
1.84113
 20
-0.305605
 11
1.82
 21
-0.299545
  0
LINE
  8
0
 10
1.82
 20
-0.299545
 11
1.79934
 21
-0.292026
  0
LINE
  8
0
 10
1.79934
 20
-0.292026
 11
1.77925
 21
-0.283084
  0
LINE
  8
0
 10
1.77925
 20
-0.283084
 11
1.75984
 21
-0.272763
  0
LINE
  8
0
 10
1.75984
 20
-0.272763
 11
1.7412
 21
-0.261114
  0
LINE
  8
0
 10
1.7412
 20
-0.261114
 11
1.72341
 21
-0.248192
  0
LINE
  8
0
 10
1.72341
 20
-0.248192
 11
1.70657
 21
-0.234061
  0
LINE
  8
0
 10
1.70657
 20
-0.234061
 11
1.69076
 21
-0.21879
  0
LINE
  8
0
 10
1.69076
 20
-0.21879
 11
1.67605
 21
-0.202452
  0
LINE
  8
0
 10
1.67605
 20
-0.202452
 11
1.66251
 21
-0.185129
  0
LINE
  8
0
 10
1.66251
 20
-0.185129
 11
1.65022
 21
-0.166904
  0
LINE
  8
0
 10
1.65022
 20
-0.166904
 11
1.63923
 21
-0.147865
  0
LINE
  8
0
 10
1.63923
 20
-0.147865
 11
1.62959
 21
-0.128106
  0
LINE
  8
0
 10
1.62959
 20
-0.128106
 11
1.62136
 21
-0.107723
  0
LINE
  8
0
 10
1.62136
 20
-0.107723
 11
1.61456
 21
-0.0868147
  0
LINE
  8
0
 10
1.61456
 20
-0.0868147
 11
1.60924
 21
-0.0654836
  0
LINE
  8
0
 10
1.60924
 20
-0.0654836
 11
1.60543
 21
-0.0438336
  0
LINE
  8
0
 10
1.60543
 20
-0.0438336
 11
1.60313
 21
-0.0219703
  0
LINE
  8
0
 10
1.60313
 20
-0.0219703
 11
1.60236
 21
0
  0
LINE
  8
0
 10
1.60236
 20
0
 11
1.60313
 21
0.0219703
  0
LINE
  8
0
 10
1.60313
 20
0.0219703
 11
1.60543
 21
0.0438336
  0
LINE
  8
0
 10
1.60543
 20
0.0438336
 11
1.60924
 21
0.0654836
  0
LINE
  8
0
 10
1.60924
 20
0.0654836
 11
1.61456
 21
0.0868147
  0
LINE
  8
0
 10
1.61456
 20
0.0868147
 11
1.62136
 21
0.107723
  0
LINE
  8
0
 10
1.62136
 20
0.107723
 11
1.62959
 21
0.128106
  0
LINE
  8
0
 10
1.62959
 20
0.128106
 11
1.63923
 21
0.147865
  0
LINE
  8
0
 10
1.63923
 20
0.147865
 11
1.65022
 21
0.166904
  0
LINE
  8
0
 10
1.65022
 20
0.166904
 11
1.66251
 21
0.185129
  0
LINE
  8
0
 10
1.66251
 20
0.185129
 11
1.67605
 21
0.202452
  0
LINE
  8
0
 10
1.67605
 20
0.202452
 11
1.69076
 21
0.21879
  0
LINE
  8
0
 10
1.69076
 20
0.21879
 11
1.70657
 21
0.234061
  0
LINE
  8
0
 10
1.70657
 20
0.234061
 11
1.72341
 21
0.248192
  0
LINE
  8
0
 10
1.72341
 20
0.248192
 11
1.7412
 21
0.261114
  0
LINE
  8
0
 10
1.7412
 20
0.261114
 11
1.75984
 21
0.272763
  0
LINE
  8
0
 10
1.75984
 20
0.272763
 11
1.77925
 21
0.283084
  0
LINE
  8
0
 10
1.77925
 20
0.283084
 11
1.79934
 21
0.292026
  0
LINE
  8
0
 10
1.79934
 20
0.292026
 11
1.82
 21
0.299545
  0
LINE
  8
0
 10
1.82
 20
0.299545
 11
1.84113
 21
0.305605
  0
LINE
  8
0
 10
1.84113
 20
0.305605
 11
1.86263
 21
0.310175
  0
LINE
  8
0
 10
1.86263
 20
0.310175
 11
1.8844
 21
0.313235
  0
LINE
  8
0
 10
1.8844
 20
0.313235
 11
1.90633
 21
0.314768
  0
LINE
  8
0
 10
1.90633
 20
0.314768
 11
1.92831
 21
0.314768
  0
LINE
  8
0
 10
1.92831
 20
0.314768
 11
1.95025
 21
0.313235
  0
LINE
  8
0
 10
1.95025
 20
0.313235
 11
1.97201
 21
0.310175
  0
LINE
  8
0
 10
1.97201
 20
0.310175
 11
1.99352
 21
0.305605
  0
LINE
  8
0
 10
1.99352
 20
0.305605
 11
2.01465
 21
0.299545
  0
LINE
  8
0
 10
2.01465
 20
0.299545
 11
2.03531
 21
0.292026
  0
LINE
  8
0
 10
2.03531
 20
0.292026
 11
2.05539
 21
0.283084
  0
LINE
  8
0
 10
2.05539
 20
0.283084
 11
2.0748
 21
0.272763
  0
LINE
  8
0
 10
2.0748
 20
0.272763
 11
2.09345
 21
0.261114
  0
LINE
  8
0
 10
2.09345
 20
0.261114
 11
2.11123
 21
0.248192
  0
LINE
  8
0
 10
2.11123
 20
0.248192
 11
2.12807
 21
0.234061
  0
LINE
  8
0
 10
2.12807
 20
0.234061
 11
2.14389
 21
0.21879
  0
LINE
  8
0
 10
2.14389
 20
0.21879
 11
2.1586
 21
0.202452
  0
LINE
  8
0
 10
2.1586
 20
0.202452
 11
2.17213
 21
0.185129
  0
LINE
  8
0
 10
2.17213
 20
0.185129
 11
2.18442
 21
0.166904
  0
LINE
  8
0
 10
2.18442
 20
0.166904
 11
2.19542
 21
0.147865
  0
LINE
  8
0
 10
2.19542
 20
0.147865
 11
2.20505
 21
0.128106
  0
LINE
  8
0
 10
2.20505
 20
0.128106
 11
2.21329
 21
0.107723
  0
LINE
  8
0
 10
2.21329
 20
0.107723
 11
2.22008
 21
0.0868147
  0
LINE
  8
0
 10
2.22008
 20
0.0868147
 11
2.2254
 21
0.0654836
  0
LINE
  8
0
 10
2.2254
 20
0.0654836
 11
2.22922
 21
0.0438336
  0
LINE
  8
0
 10
2.22922
 20
0.0438336
 11
2.23152
 21
0.0219703
  0
LINE
  8
0
 10
2.23152
 20
0.0219703
 11
2.23228
 21
0
  0
LINE
  8
0
 10
2.23228
 20
0
 11
2.23152
 21
-0.0219703
  0
LINE
  8
0
 10
2.23152
 20
-0.0219703
 11
2.22922
 21
-0.0438336
  0
LINE
  8
0
 10
2.22922
 20
-0.0438336
 11
2.2254
 21
-0.0654836
  0
LINE
  8
0
 10
2.2254
 20
-0.0654836
 11
2.22008
 21
-0.0868147
  0
LINE
  8
0
 10
2.22008
 20
-0.0868147
 11
2.21329
 21
-0.107723
  0
LINE
  8
0
 10
2.21329
 20
-0.107723
 11
2.20505
 21
-0.128106
  0
LINE
  8
0
 10
2.20505
 20
-0.128106
 11
2.19542
 21
-0.147865
  0
LINE
  8
0
 10
2.19542
 20
-0.147865
 11
2.18442
 21
-0.166904
  0
LINE
  8
0
 10
2.18442
 20
-0.166904
 11
2.17213
 21
-0.185129
  0
LINE
  8
0
 10
2.17213
 20
-0.185129
 11
2.1586
 21
-0.202452
  0
LINE
  8
0
 10
2.1586
 20
-0.202452
 11
2.14389
 21
-0.21879
  0
LINE
  8
0
 10
2.14389
 20
-0.21879
 11
2.12807
 21
-0.234061
  0
LINE
  8
0
 10
2.12807
 20
-0.234061
 11
2.11123
 21
-0.248192
  0
LINE
  8
0
 10
2.11123
 20
-0.248192
 11
2.09345
 21
-0.261114
  0
LINE
  8
0
 10
2.09345
 20
-0.261114
 11
2.0748
 21
-0.272763
  0
LINE
  8
0
 10
2.0748
 20
-0.272763
 11
2.05539
 21
-0.283084
  0
LINE
  8
0
 10
2.05539
 20
-0.283084
 11
2.03531
 21
-0.292026
  0
LINE
  8
0
 10
2.03531
 20
-0.292026
 11
2.01465
 21
-0.299545
  0
LINE
  8
0
 10
2.01465
 20
-0.299545
 11
1.99352
 21
-0.305605
  0
LINE
  8
0
 10
1.99352
 20
-0.305605
 11
1.97201
 21
-0.310175
  0
LINE
  8
0
 10
1.97201
 20
-0.310175
 11
1.95025
 21
-0.313235
  0
LINE
  8
0
 10
1.95025
 20
-0.313235
 11
1.92831
 21
-0.314768
  0
LINE
  8
0
 10
1.92831
 20
-0.314768
 11
1.90633
 21
-0.314768
  0
LINE
  8
0
 10
0.700159
 20
-0.453178
 11
0.692643
 21
-0.452388
  0
LINE
  8
0
 10
0.692643
 20
-0.452388
 11
0.685201
 21
-0.451076
  0
LINE
  8
0
 10
0.685201
 20
-0.451076
 11
0.677869
 21
-0.449248
  0
LINE
  8
0
 10
0.677869
 20
-0.449248
 11
0.670681
 21
-0.446912
  0
LINE
  8
0
 10
0.670681
 20
-0.446912
 11
0.663674
 21
-0.444081
  0
LINE
  8
0
 10
0.663674
 20
-0.444081
 11
0.656882
 21
-0.440768
  0
LINE
  8
0
 10
0.656882
 20
-0.440768
 11
0.650338
 21
-0.43699
  0
LINE
  8
0
 10
0.650338
 20
-0.43699
 11
0.644073
 21
-0.432764
  0
LINE
  8
0
 10
0.644073
 20
-0.432764
 11
0.638118
 21
-0.428112
  0
LINE
  8
0
 10
0.638118
 20
-0.428112
 11
0.632502
 21
-0.423055
  0
LINE
  8
0
 10
0.632502
 20
-0.423055
 11
0.627252
 21
-0.417619
  0
LINE
  8
0
 10
0.627252
 20
-0.417619
 11
0.622395
 21
-0.41183
  0
LINE
  8
0
 10
0.622395
 20
-0.41183
 11
0.617953
 21
-0.405716
  0
LINE
  8
0
 10
0.617953
 20
-0.405716
 11
0.613949
 21
-0.399307
  0
LINE
  8
0
 10
0.613949
 20
-0.399307
 11
0.610401
 21
-0.392635
  0
LINE
  8
0
 10
0.610401
 20
-0.392635
 11
0.607327
 21
-0.385731
  0
LINE
  8
0
 10
0.607327
 20
-0.385731
 11
0.604742
 21
-0.378631
  0
LINE
  8
0
 10
0.604742
 20
-0.378631
 11
0.602659
 21
-0.371366
  0
LINE
  8
0
 10
0.602659
 20
-0.371366
 11
0.601089
 21
-0.363974
  0
LINE
  8
0
 10
0.601089
 20
-0.363974
 11
0.600036
 21
-0.356491
  0
LINE
  8
0
 10
0.600036
 20
-0.356491
 11
0.599509
 21
-0.348952
  0
LINE
  8
0
 10
0.599509
 20
-0.348952
 11
0.599509
 21
-0.341395
  0
LINE
  8
0
 10
0.599509
 20
-0.341395
 11
0.600037
 21
-0.333857
  0
LINE
  8
0
 10
0.600037
 20
-0.333857
 11
0.601088
 21
-0.326373
  0
LINE
  8
0
 10
0.601088
 20
-0.326373
 11
0.60266
 21
-0.318981
  0
LINE
  8
0
 10
0.60266
 20
-0.318981
 11
0.604742
 21
-0.311717
  0
LINE
  8
0
 10
0.604742
 20
-0.311717
 11
0.607327
 21
-0.304616
  0
LINE
  8
0
 10
0.607327
 20
-0.304616
 11
0.610401
 21
-0.297712
  0
LINE
  8
0
 10
0.610401
 20
-0.297712
 11
0.612858
 21
-0.29309
  0
LINE
  8
0
 10
0.612858
 20
-0.29309
 11
0.614913
 21
-0.288277
  0
LINE
  8
0
 10
0.614913
 20
-0.288277
 11
0.617299
 21
-0.283618
  0
LINE
  8
0
 10
0.617299
 20
-0.283618
 11
0.61928
 21
-0.278774
  0
LINE
  8
0
 10
0.61928
 20
-0.278774
 11
0.621593
 21
-0.27408
  0
LINE
  8
0
 10
0.621593
 20
-0.27408
 11
0.623499
 21
-0.269204
  0
LINE
  8
0
 10
0.623499
 20
-0.269204
 11
0.625741
 21
-0.264473
  0
LINE
  8
0
 10
0.625741
 20
-0.264473
 11
0.627571
 21
-0.259571
  0
LINE
  8
0
 10
0.627571
 20
-0.259571
 11
0.629739
 21
-0.254805
  0
LINE
  8
0
 10
0.629739
 20
-0.254805
 11
0.631493
 21
-0.249876
  0
LINE
  8
0
 10
0.631493
 20
-0.249876
 11
0.633588
 21
-0.245078
  0
LINE
  8
0
 10
0.633588
 20
-0.245078
 11
0.635267
 21
-0.240122
  0
LINE
  8
0
 10
0.635267
 20
-0.240122
 11
0.637285
 21
-0.235297
  0
LINE
  8
0
 10
0.637285
 20
-0.235297
 11
0.638889
 21
-0.23031
  0
LINE
  8
0
 10
0.638889
 20
-0.23031
 11
0.640835
 21
-0.225452
  0
LINE
  8
0
 10
0.640835
 20
-0.225452
 11
0.64236
 21
-0.220444
  0
LINE
  8
0
 10
0.64236
 20
-0.220444
 11
0.644231
 21
-0.215556
  0
LINE
  8
0
 10
0.644231
 20
-0.215556
 11
0.645678
 21
-0.210527
  0
LINE
  8
0
 10
0.645678
 20
-0.210527
 11
0.647474
 21
-0.205609
  0
LINE
  8
0
 10
0.647474
 20
-0.205609
 11
0.648843
 21
-0.200559
  0
LINE
  8
0
 10
0.648843
 20
-0.200559
 11
0.650563
 21
-0.195612
  0
LINE
  8
0
 10
0.650563
 20
-0.195612
 11
0.651855
 21
-0.190543
  0
LINE
  8
0
 10
0.651855
 20
-0.190543
 11
0.653498
 21
-0.185574
  0
LINE
  8
0
 10
0.653498
 20
-0.185574
 11
0.654712
 21
-0.180482
  0
LINE
  8
0
 10
0.654712
 20
-0.180482
 11
0.656278
 21
-0.17549
  0
LINE
  8
0
 10
0.656278
 20
-0.17549
 11
0.657414
 21
-0.170378
  0
LINE
  8
0
 10
0.657414
 20
-0.170378
 11
0.658903
 21
-0.165361
  0
LINE
  8
0
 10
0.658903
 20
-0.165361
 11
0.659959
 21
-0.160235
  0
LINE
  8
0
 10
0.659959
 20
-0.160235
 11
0.661371
 21
-0.155196
  0
LINE
  8
0
 10
0.661371
 20
-0.155196
 11
0.662349
 21
-0.150053
  0
LINE
  8
0
 10
0.662349
 20
-0.150053
 11
0.663682
 21
-0.144995
  0
LINE
  8
0
 10
0.663682
 20
-0.144995
 11
0.664581
 21
-0.139835
  0
LINE
  8
0
 10
0.664581
 20
-0.139835
 11
0.665837
 21
-0.134753
  0
LINE
  8
0
 10
0.665837
 20
-0.134753
 11
0.666656
 21
-0.129584
  0
LINE
  8
0
 10
0.666656
 20
-0.129584
 11
0.667833
 21
-0.124485
  0
LINE
  8
0
 10
0.667833
 20
-0.124485
 11
0.668572
 21
-0.119303
  0
LINE
  8
0
 10
0.668572
 20
-0.119303
 11
0.669671
 21
-0.114183
  0
LINE
  8
0
 10
0.669671
 20
-0.114183
 11
0.67033
 21
-0.108993
  0
LINE
  8
0
 10
0.67033
 20
-0.108993
 11
0.67135
 21
-0.103858
  0
LINE
  8
0
 10
0.67135
 20
-0.103858
 11
0.671929
 21
-0.0986577
  0
LINE
  8
0
 10
0.671929
 20
-0.0986577
 11
0.672869
 21
-0.0935087
  0
LINE
  8
0
 10
0.672869
 20
-0.0935087
 11
0.673369
 21
-0.0882985
  0
LINE
  8
0
 10
0.673369
 20
-0.0882985
 11
0.67423
 21
-0.0831334
  0
LINE
  8
0
 10
0.67423
 20
-0.0831334
 11
0.674649
 21
-0.0779189
  0
LINE
  8
0
 10
0.674649
 20
-0.0779189
 11
0.67543
 21
-0.072743
  0
LINE
  8
0
 10
0.67543
 20
-0.072743
 11
0.675768
 21
-0.0675201
  0
LINE
  8
0
 10
0.675768
 20
-0.0675201
 11
0.67647
 21
-0.0623364
  0
LINE
  8
0
 10
0.67647
 20
-0.0623364
 11
0.676728
 21
-0.0571057
  0
LINE
  8
0
 10
0.676728
 20
-0.0571057
 11
0.67735
 21
-0.0519099
  0
LINE
  8
0
 10
0.67735
 20
-0.0519099
 11
0.677527
 21
-0.0466775
  0
LINE
  8
0
 10
0.677527
 20
-0.0466775
 11
0.678069
 21
-0.0414727
  0
LINE
  8
0
 10
0.678069
 20
-0.0414727
 11
0.678166
 21
-0.036239
  0
LINE
  8
0
 10
0.678166
 20
-0.036239
 11
0.678627
 21
-0.0310258
  0
LINE
  8
0
 10
0.678627
 20
-0.0310258
 11
0.678643
 21
-0.0257916
  0
LINE
  8
0
 10
0.678643
 20
-0.0257916
 11
0.679025
 21
-0.0205669
  0
LINE
  8
0
 10
0.679025
 20
-0.0205669
 11
0.67896
 21
-0.0153381
  0
LINE
  8
0
 10
0.67896
 20
-0.0153381
 11
0.679261
 21
-0.0101135
  0
LINE
  8
0
 10
0.679261
 20
-0.0101135
 11
0.679116
 21
-0.00488041
  0
LINE
  8
0
 10
0.679116
 20
-0.00488041
 11
0.679336
 21
0.000346627
  0
LINE
  8
0
 10
0.679336
 20
0.000346627
 11
0.67911
 21
0.00557787
  0
LINE
  8
0
 10
0.67911
 20
0.00557787
 11
0.67925
 21
0.0108085
  0
LINE
  8
0
 10
0.67925
 20
0.0108085
 11
0.678944
 21
0.0160349
  0
LINE
  8
0
 10
0.678944
 20
0.0160349
 11
0.679003
 21
0.0212698
  0
LINE
  8
0
 10
0.679003
 20
0.0212698
 11
0.678617
 21
0.0264884
  0
LINE
  8
0
 10
0.678617
 20
0.0264884
 11
0.678595
 21
0.0317215
  0
LINE
  8
0
 10
0.678595
 20
0.0317215
 11
0.678128
 21
0.0369353
  0
LINE
  8
0
 10
0.678128
 20
0.0369353
 11
0.67798
 21
0.0444908
  0
LINE
  8
0
 10
0.67798
 20
0.0444908
 11
0.678361
 21
0.0520385
  0
LINE
  8
0
 10
0.678361
 20
0.0520385
 11
0.679266
 21
0.0595411
  0
LINE
  8
0
 10
0.679266
 20
0.0595411
 11
0.680693
 21
0.0669621
  0
LINE
  8
0
 10
0.680693
 20
0.0669621
 11
0.682634
 21
0.0742652
  0
LINE
  8
0
 10
0.682634
 20
0.0742652
 11
0.685079
 21
0.0814153
  0
LINE
  8
0
 10
0.685079
 20
0.0814153
 11
0.688018
 21
0.0883778
  0
LINE
  8
0
 10
0.688018
 20
0.0883778
 11
0.691435
 21
0.0951187
  0
LINE
  8
0
 10
0.691435
 20
0.0951187
 11
0.695314
 21
0.101604
  0
LINE
  8
0
 10
0.695314
 20
0.101604
 11
0.699636
 21
0.107803
  0
LINE
  8
0
 10
0.699636
 20
0.107803
 11
0.704379
 21
0.113686
  0
LINE
  8
0
 10
0.704379
 20
0.113686
 11
0.709522
 21
0.119223
  0
LINE
  8
0
 10
0.709522
 20
0.119223
 11
0.715038
 21
0.124389
  0
LINE
  8
0
 10
0.715038
 20
0.124389
 11
0.720901
 21
0.129156
  0
LINE
  8
0
 10
0.720901
 20
0.129156
 11
0.727083
 21
0.133504
  0
LINE
  8
0
 10
0.727083
 20
0.133504
 11
0.733552
 21
0.137408
  0
LINE
  8
0
 10
0.733552
 20
0.137408
 11
0.740278
 21
0.140854
  0
LINE
  8
0
 10
0.740278
 20
0.140854
 11
0.747228
 21
0.143821
  0
LINE
  8
0
 10
0.747228
 20
0.143821
 11
0.754369
 21
0.146295
  0
LINE
  8
0
 10
0.754369
 20
0.146295
 11
0.761663
 21
0.148266
  0
LINE
  8
0
 10
0.761663
 20
0.148266
 11
0.769079
 21
0.149724
  0
LINE
  8
0
 10
0.769079
 20
0.149724
 11
0.776577
 21
0.15066
  0
LINE
  8
0
 10
0.776577
 20
0.15066
 11
0.784123
 21
0.151071
  0
LINE
  8
0
 10
0.784123
 20
0.151071
 11
0.791679
 21
0.150954
  0
LINE
  8
0
 10
0.791679
 20
0.150954
 11
0.79921
 21
0.150311
  0
LINE
  8
0
 10
0.79921
 20
0.150311
 11
0.806676
 21
0.149144
  0
LINE
  8
0
 10
0.806676
 20
0.149144
 11
0.814042
 21
0.147459
  0
LINE
  8
0
 10
0.814042
 20
0.147459
 11
0.821274
 21
0.145265
  0
LINE
  8
0
 10
0.821274
 20
0.145265
 11
0.828334
 21
0.142571
  0
LINE
  8
0
 10
0.828334
 20
0.142571
 11
0.83519
 21
0.139391
  0
LINE
  8
0
 10
0.83519
 20
0.139391
 11
0.841807
 21
0.135741
  0
LINE
  8
0
 10
0.841807
 20
0.135741
 11
0.848153
 21
0.131639
  0
LINE
  8
0
 10
0.848153
 20
0.131639
 11
0.854198
 21
0.127103
  0
LINE
  8
0
 10
0.854198
 20
0.127103
 11
0.859911
 21
0.122157
  0
LINE
  8
0
 10
0.859911
 20
0.122157
 11
0.865265
 21
0.116825
  0
LINE
  8
0
 10
0.865265
 20
0.116825
 11
0.870235
 21
0.111131
  0
LINE
  8
0
 10
0.870235
 20
0.111131
 11
0.874795
 21
0.105105
  0
LINE
  8
0
 10
0.874795
 20
0.105105
 11
0.878924
 21
0.0987766
  0
LINE
  8
0
 10
0.878924
 20
0.0987766
 11
0.882601
 21
0.0921745
  0
LINE
  8
0
 10
0.882601
 20
0.0921745
 11
0.885809
 21
0.0853321
  0
LINE
  8
0
 10
0.885809
 20
0.0853321
 11
0.888532
 21
0.0782824
  0
LINE
  8
0
 10
0.888532
 20
0.0782824
 11
0.890756
 21
0.0710603
  0
LINE
  8
0
 10
0.890756
 20
0.0710603
 11
0.892472
 21
0.0637006
  0
LINE
  8
0
 10
0.892472
 20
0.0637006
 11
0.893669
 21
0.0562389
  0
LINE
  8
0
 10
0.893669
 20
0.0562389
 11
0.894343
 21
0.0487116
  0
LINE
  8
0
 10
0.894343
 20
0.0487116
 11
0.894477
 21
0.0418223
  0
LINE
  8
0
 10
0.894477
 20
0.0418223
 11
0.894987
 21
0.0349342
  0
LINE
  8
0
 10
0.894987
 20
0.0349342
 11
0.895015
 21
0.0280389
  0
LINE
  8
0
 10
0.895015
 20
0.0280389
 11
0.895419
 21
0.0211478
  0
LINE
  8
0
 10
0.895419
 20
0.0211478
 11
0.895341
 21
0.0142429
  0
LINE
  8
0
 10
0.895341
 20
0.0142429
 11
0.895639
 21
0.00735606
  0
LINE
  8
0
 10
0.895639
 20
0.00735606
 11
0.895454
 21
0.00045476
  0
LINE
  8
0
 10
0.895454
 20
0.00045476
 11
0.895646
 21
-0.00643633
  0
LINE
  8
0
 10
0.895646
 20
-0.00643633
 11
0.895355
 21
-0.0133334
  0
LINE
  8
0
 10
0.895355
 20
-0.0133334
 11
0.89544
 21
-0.0202281
  0
LINE
  8
0
 10
0.89544
 20
-0.0202281
 11
0.895044
 21
-0.027112
  0
LINE
  8
0
 10
0.895044
 20
-0.027112
 11
0.895022
 21
-0.0340145
  0
LINE
  8
0
 10
0.895022
 20
-0.0340145
 11
0.89452
 21
-0.0408942
  0
LINE
  8
0
 10
0.89452
 20
-0.0408942
 11
0.894392
 21
-0.0477937
  0
LINE
  8
0
 10
0.894392
 20
-0.0477937
 11
0.893784
 21
-0.0546637
  0
LINE
  8
0
 10
0.893784
 20
-0.0546637
 11
0.89355
 21
-0.0615614
  0
LINE
  8
0
 10
0.89355
 20
-0.0615614
 11
0.892837
 21
-0.068417
  0
LINE
  8
0
 10
0.892837
 20
-0.068417
 11
0.892497
 21
-0.0753141
  0
LINE
  8
0
 10
0.892497
 20
-0.0753141
 11
0.891677
 21
-0.0821614
  0
LINE
  8
0
 10
0.891677
 20
-0.0821614
 11
0.89123
 21
-0.0890489
  0
LINE
  8
0
 10
0.89123
 20
-0.0890489
 11
0.890306
 21
-0.0958847
  0
LINE
  8
0
 10
0.890306
 20
-0.0958847
 11
0.889754
 21
-0.102763
  0
LINE
  8
0
 10
0.889754
 20
-0.102763
 11
0.888724
 21
-0.109582
  0
LINE
  8
0
 10
0.888724
 20
-0.109582
 11
0.888066
 21
-0.116452
  0
LINE
  8
0
 10
0.888066
 20
-0.116452
 11
0.886932
 21
-0.123253
  0
LINE
  8
0
 10
0.886932
 20
-0.123253
 11
0.886167
 21
-0.130114
  0
LINE
  8
0
 10
0.886167
 20
-0.130114
 11
0.884928
 21
-0.136899
  0
LINE
  8
0
 10
0.884928
 20
-0.136899
 11
0.884058
 21
-0.143745
  0
LINE
  8
0
 10
0.884058
 20
-0.143745
 11
0.882713
 21
-0.150522
  0
LINE
  8
0
 10
0.882713
 20
-0.150522
 11
0.88174
 21
-0.157342
  0
LINE
  8
0
 10
0.88174
 20
-0.157342
 11
0.880292
 21
-0.164088
  0
LINE
  8
0
 10
0.880292
 20
-0.164088
 11
0.879213
 21
-0.170901
  0
LINE
  8
0
 10
0.879213
 20
-0.170901
 11
0.877661
 21
-0.177623
  0
LINE
  8
0
 10
0.877661
 20
-0.177623
 11
0.876476
 21
-0.18442
  0
LINE
  8
0
 10
0.876476
 20
-0.18442
 11
0.874824
 21
-0.191108
  0
LINE
  8
0
 10
0.874824
 20
-0.191108
 11
0.873533
 21
-0.197896
  0
LINE
  8
0
 10
0.873533
 20
-0.197896
 11
0.871774
 21
-0.204569
  0
LINE
  8
0
 10
0.871774
 20
-0.204569
 11
0.870382
 21
-0.211324
  0
LINE
  8
0
 10
0.870382
 20
-0.211324
 11
0.868519
 21
-0.217972
  0
LINE
  8
0
 10
0.868519
 20
-0.217972
 11
0.867025
 21
-0.224702
  0
LINE
  8
0
 10
0.867025
 20
-0.224702
 11
0.865061
 21
-0.231319
  0
LINE
  8
0
 10
0.865061
 20
-0.231319
 11
0.863461
 21
-0.238027
  0
LINE
  8
0
 10
0.863461
 20
-0.238027
 11
0.861396
 21
-0.244612
  0
LINE
  8
0
 10
0.861396
 20
-0.244612
 11
0.859693
 21
-0.251296
  0
LINE
  8
0
 10
0.859693
 20
-0.251296
 11
0.857527
 21
-0.257849
  0
LINE
  8
0
 10
0.857527
 20
-0.257849
 11
0.855721
 21
-0.264505
  0
LINE
  8
0
 10
0.855721
 20
-0.264505
 11
0.853454
 21
-0.271027
  0
LINE
  8
0
 10
0.853454
 20
-0.271027
 11
0.851547
 21
-0.277651
  0
LINE
  8
0
 10
0.851547
 20
-0.277651
 11
0.84918
 21
-0.284134
  0
LINE
  8
0
 10
0.84918
 20
-0.284134
 11
0.84717
 21
-0.290731
  0
LINE
  8
0
 10
0.84717
 20
-0.290731
 11
0.844704
 21
-0.297176
  0
LINE
  8
0
 10
0.844704
 20
-0.297176
 11
0.842593
 21
-0.303743
  0
LINE
  8
0
 10
0.842593
 20
-0.303743
 11
0.840027
 21
-0.310151
  0
LINE
  8
0
 10
0.840027
 20
-0.310151
 11
0.837815
 21
-0.316682
  0
LINE
  8
0
 10
0.837815
 20
-0.316682
 11
0.835154
 21
-0.323043
  0
LINE
  8
0
 10
0.835154
 20
-0.323043
 11
0.832839
 21
-0.329547
  0
LINE
  8
0
 10
0.832839
 20
-0.329547
 11
0.83008
 21
-0.335865
  0
LINE
  8
0
 10
0.83008
 20
-0.335865
 11
0.827666
 21
-0.342333
  0
LINE
  8
0
 10
0.827666
 20
-0.342333
 11
0.82481
 21
-0.348606
  0
LINE
  8
0
 10
0.82481
 20
-0.348606
 11
0.822296
 21
-0.355038
  0
LINE
  8
0
 10
0.822296
 20
-0.355038
 11
0.81934
 21
-0.361276
  0
LINE
  8
0
 10
0.81934
 20
-0.361276
 11
0.816731
 21
-0.367659
  0
LINE
  8
0
 10
0.816731
 20
-0.367659
 11
0.813678
 21
-0.373854
  0
LINE
  8
0
 10
0.813678
 20
-0.373854
 11
0.810973
 21
-0.380192
  0
LINE
  8
0
 10
0.810973
 20
-0.380192
 11
0.807827
 21
-0.386333
  0
LINE
  8
0
 10
0.807827
 20
-0.386333
 11
0.805022
 21
-0.392635
  0
LINE
  8
0
 10
0.805022
 20
-0.392635
 11
0.801474
 21
-0.399307
  0
LINE
  8
0
 10
0.801474
 20
-0.399307
 11
0.797469
 21
-0.405716
  0
LINE
  8
0
 10
0.797469
 20
-0.405716
 11
0.793028
 21
-0.41183
  0
LINE
  8
0
 10
0.793028
 20
-0.41183
 11
0.78817
 21
-0.417619
  0
LINE
  8
0
 10
0.78817
 20
-0.417619
 11
0.78292
 21
-0.423055
  0
LINE
  8
0
 10
0.78292
 20
-0.423055
 11
0.777304
 21
-0.428112
  0
LINE
  8
0
 10
0.777304
 20
-0.428112
 11
0.771349
 21
-0.432764
  0
LINE
  8
0
 10
0.771349
 20
-0.432764
 11
0.765085
 21
-0.43699
  0
LINE
  8
0
 10
0.765085
 20
-0.43699
 11
0.75854
 21
-0.440768
  0
LINE
  8
0
 10
0.75854
 20
-0.440768
 11
0.751748
 21
-0.444081
  0
LINE
  8
0
 10
0.751748
 20
-0.444081
 11
0.744741
 21
-0.446913
  0
LINE
  8
0
 10
0.744741
 20
-0.446913
 11
0.737554
 21
-0.449248
  0
LINE
  8
0
 10
0.737554
 20
-0.449248
 11
0.730221
 21
-0.451076
  0
LINE
  8
0
 10
0.730221
 20
-0.451076
 11
0.722779
 21
-0.452388
  0
LINE
  8
0
 10
0.722779
 20
-0.452388
 11
0.715264
 21
-0.453178
  0
LINE
  8
0
 10
0.715264
 20
-0.453178
 11
0.707712
 21
-0.453441
  0
LINE
  8
0
 10
0.707712
 20
-0.453441
 11
0.700159
 21
-0.453178
  0
LINE
  8
0
 10
2.40636
 20
-0.0885286
 11
2.40019
 21
-0.0880973
  0
LINE
  8
0
 10
2.40019
 20
-0.0880973
 11
2.39407
 21
-0.0872364
  0
LINE
  8
0
 10
2.39407
 20
-0.0872364
 11
2.38802
 21
-0.0859508
  0
LINE
  8
0
 10
2.38802
 20
-0.0859508
 11
2.38207
 21
-0.0842465
  0
LINE
  8
0
 10
2.38207
 20
-0.0842465
 11
2.37627
 21
-0.0821319
  0
LINE
  8
0
 10
2.37627
 20
-0.0821319
 11
2.37062
 21
-0.0796172
  0
LINE
  8
0
 10
2.37062
 20
-0.0796172
 11
2.36516
 21
-0.0767145
  0
LINE
  8
0
 10
2.36516
 20
-0.0767145
 11
2.35991
 21
-0.073438
  0
LINE
  8
0
 10
2.35991
 20
-0.073438
 11
2.35491
 21
-0.0698036
  0
LINE
  8
0
 10
2.35491
 20
-0.0698036
 11
2.35017
 21
-0.0658297
  0
LINE
  8
0
 10
2.35017
 20
-0.0658297
 11
2.34573
 21
-0.0615344
  0
LINE
  8
0
 10
2.34573
 20
-0.0615344
 11
2.34159
 21
-0.0569393
  0
LINE
  8
0
 10
2.34159
 20
-0.0569393
 11
2.33778
 21
-0.0520673
  0
LINE
  8
0
 10
2.33778
 20
-0.0520673
 11
2.33433
 21
-0.0469412
  0
LINE
  8
0
 10
2.33433
 20
-0.0469412
 11
2.33123
 21
-0.0415868
  0
LINE
  8
0
 10
2.33123
 20
-0.0415868
 11
2.32852
 21
-0.0360294
  0
LINE
  8
0
 10
2.32852
 20
-0.0360294
 11
2.32621
 21
-0.0302965
  0
LINE
  8
0
 10
2.32621
 20
-0.0302965
 11
2.3243
 21
-0.0244165
  0
LINE
  8
0
 10
2.3243
 20
-0.0244165
 11
2.3228
 21
-0.0184169
  0
LINE
  8
0
 10
2.3228
 20
-0.0184169
 11
2.32173
 21
-0.0123278
  0
LINE
  8
0
 10
2.32173
 20
-0.0123278
 11
2.32108
 21
-0.00617921
  0
LINE
  8
0
 10
2.32108
 20
-0.00617921
 11
2.32087
 21
0
  0
LINE
  8
0
 10
2.32087
 20
0
 11
2.32108
 21
0.00617921
  0
LINE
  8
0
 10
2.32108
 20
0.00617921
 11
2.32173
 21
0.0123278
  0
LINE
  8
0
 10
2.32173
 20
0.0123278
 11
2.3228
 21
0.0184169
  0
LINE
  8
0
 10
2.3228
 20
0.0184169
 11
2.3243
 21
0.0244165
  0
LINE
  8
0
 10
2.3243
 20
0.0244165
 11
2.32621
 21
0.0302965
  0
LINE
  8
0
 10
2.32621
 20
0.0302965
 11
2.32852
 21
0.0360294
  0
LINE
  8
0
 10
2.32852
 20
0.0360294
 11
2.33123
 21
0.0415868
  0
LINE
  8
0
 10
2.33123
 20
0.0415868
 11
2.33433
 21
0.0469412
  0
LINE
  8
0
 10
2.33433
 20
0.0469412
 11
2.33778
 21
0.0520673
  0
LINE
  8
0
 10
2.33778
 20
0.0520673
 11
2.34159
 21
0.0569393
  0
LINE
  8
0
 10
2.34159
 20
0.0569393
 11
2.34573
 21
0.0615344
  0
LINE
  8
0
 10
2.34573
 20
0.0615344
 11
2.35017
 21
0.0658297
  0
LINE
  8
0
 10
2.35017
 20
0.0658297
 11
2.35491
 21
0.0698036
  0
LINE
  8
0
 10
2.35491
 20
0.0698036
 11
2.35991
 21
0.073438
  0
LINE
  8
0
 10
2.35991
 20
0.073438
 11
2.36516
 21
0.0767145
  0
LINE
  8
0
 10
2.36516
 20
0.0767145
 11
2.37062
 21
0.0796172
  0
LINE
  8
0
 10
2.37062
 20
0.0796172
 11
2.37627
 21
0.0821319
  0
LINE
  8
0
 10
2.37627
 20
0.0821319
 11
2.38207
 21
0.0842465
  0
LINE
  8
0
 10
2.38207
 20
0.0842465
 11
2.38802
 21
0.0859508
  0
LINE
  8
0
 10
2.38802
 20
0.0859508
 11
2.39407
 21
0.0872364
  0
LINE
  8
0
 10
2.39407
 20
0.0872364
 11
2.40019
 21
0.0880973
  0
LINE
  8
0
 10
2.40019
 20
0.0880973
 11
2.40636
 21
0.0885286
  0
LINE
  8
0
 10
2.40636
 20
0.0885286
 11
2.41254
 21
0.0885286
  0
LINE
  8
0
 10
2.41254
 20
0.0885286
 11
2.41871
 21
0.0880973
  0
LINE
  8
0
 10
2.41871
 20
0.0880973
 11
2.42483
 21
0.0872364
  0
LINE
  8
0
 10
2.42483
 20
0.0872364
 11
2.43088
 21
0.0859508
  0
LINE
  8
0
 10
2.43088
 20
0.0859508
 11
2.43682
 21
0.0842465
  0
LINE
  8
0
 10
2.43682
 20
0.0842465
 11
2.44263
 21
0.0821319
  0
LINE
  8
0
 10
2.44263
 20
0.0821319
 11
2.44828
 21
0.0796172
  0
LINE
  8
0
 10
2.44828
 20
0.0796172
 11
2.45374
 21
0.0767145
  0
LINE
  8
0
 10
2.45374
 20
0.0767145
 11
2.45898
 21
0.073438
  0
LINE
  8
0
 10
2.45898
 20
0.073438
 11
2.46399
 21
0.0698036
  0
LINE
  8
0
 10
2.46399
 20
0.0698036
 11
2.46872
 21
0.0658297
  0
LINE
  8
0
 10
2.46872
 20
0.0658297
 11
2.47317
 21
0.0615344
  0
LINE
  8
0
 10
2.47317
 20
0.0615344
 11
2.47731
 21
0.0569393
  0
LINE
  8
0
 10
2.47731
 20
0.0569393
 11
2.48111
 21
0.0520673
  0
LINE
  8
0
 10
2.48111
 20
0.0520673
 11
2.48457
 21
0.0469412
  0
LINE
  8
0
 10
2.48457
 20
0.0469412
 11
2.48766
 21
0.0415868
  0
LINE
  8
0
 10
2.48766
 20
0.0415868
 11
2.49037
 21
0.0360294
  0
LINE
  8
0
 10
2.49037
 20
0.0360294
 11
2.49269
 21
0.0302965
  0
LINE
  8
0
 10
2.49269
 20
0.0302965
 11
2.4946
 21
0.0244165
  0
LINE
  8
0
 10
2.4946
 20
0.0244165
 11
2.4961
 21
0.0184169
  0
LINE
  8
0
 10
2.4961
 20
0.0184169
 11
2.49717
 21
0.0123278
  0
LINE
  8
0
 10
2.49717
 20
0.0123278
 11
2.49782
 21
0.00617921
  0
LINE
  8
0
 10
2.49782
 20
0.00617921
 11
2.49803
 21
0
  0
LINE
  8
0
 10
2.49803
 20
0
 11
2.49782
 21
-0.00617921
  0
LINE
  8
0
 10
2.49782
 20
-0.00617921
 11
2.49717
 21
-0.0123278
  0
LINE
  8
0
 10
2.49717
 20
-0.0123278
 11
2.4961
 21
-0.0184169
  0
LINE
  8
0
 10
2.4961
 20
-0.0184169
 11
2.4946
 21
-0.0244165
  0
LINE
  8
0
 10
2.4946
 20
-0.0244165
 11
2.49269
 21
-0.0302965
  0
LINE
  8
0
 10
2.49269
 20
-0.0302965
 11
2.49037
 21
-0.0360294
  0
LINE
  8
0
 10
2.49037
 20
-0.0360294
 11
2.48766
 21
-0.0415868
  0
LINE
  8
0
 10
2.48766
 20
-0.0415868
 11
2.48457
 21
-0.0469412
  0
LINE
  8
0
 10
2.48457
 20
-0.0469412
 11
2.48111
 21
-0.0520673
  0
LINE
  8
0
 10
2.48111
 20
-0.0520673
 11
2.47731
 21
-0.0569393
  0
LINE
  8
0
 10
2.47731
 20
-0.0569393
 11
2.47317
 21
-0.0615344
  0
LINE
  8
0
 10
2.47317
 20
-0.0615344
 11
2.46872
 21
-0.0658297
  0
LINE
  8
0
 10
2.46872
 20
-0.0658297
 11
2.46399
 21
-0.0698036
  0
LINE
  8
0
 10
2.46399
 20
-0.0698036
 11
2.45898
 21
-0.073438
  0
LINE
  8
0
 10
2.45898
 20
-0.073438
 11
2.45374
 21
-0.0767145
  0
LINE
  8
0
 10
2.45374
 20
-0.0767145
 11
2.44828
 21
-0.0796172
  0
LINE
  8
0
 10
2.44828
 20
-0.0796172
 11
2.44263
 21
-0.0821319
  0
LINE
  8
0
 10
2.44263
 20
-0.0821319
 11
2.43682
 21
-0.0842465
  0
LINE
  8
0
 10
2.43682
 20
-0.0842465
 11
2.43088
 21
-0.0859508
  0
LINE
  8
0
 10
2.43088
 20
-0.0859508
 11
2.42483
 21
-0.0872364
  0
LINE
  8
0
 10
2.42483
 20
-0.0872364
 11
2.41871
 21
-0.0880973
  0
LINE
  8
0
 10
2.41871
 20
-0.0880973
 11
2.41254
 21
-0.0885286
  0
LINE
  8
0
 10
2.41254
 20
-0.0885286
 11
2.40636
 21
-0.0885286
  0
LINE
  8
0
 10
1.42211
 20
-0.0885286
 11
1.41594
 21
-0.0880973
  0
LINE
  8
0
 10
1.41594
 20
-0.0880973
 11
1.40981
 21
-0.0872364
  0
LINE
  8
0
 10
1.40981
 20
-0.0872364
 11
1.40377
 21
-0.0859508
  0
LINE
  8
0
 10
1.40377
 20
-0.0859508
 11
1.39782
 21
-0.0842465
  0
LINE
  8
0
 10
1.39782
 20
-0.0842465
 11
1.39201
 21
-0.0821319
  0
LINE
  8
0
 10
1.39201
 20
-0.0821319
 11
1.38636
 21
-0.0796172
  0
LINE
  8
0
 10
1.38636
 20
-0.0796172
 11
1.38091
 21
-0.0767145
  0
LINE
  8
0
 10
1.38091
 20
-0.0767145
 11
1.37566
 21
-0.073438
  0
LINE
  8
0
 10
1.37566
 20
-0.073438
 11
1.37066
 21
-0.0698036
  0
LINE
  8
0
 10
1.37066
 20
-0.0698036
 11
1.36592
 21
-0.0658297
  0
LINE
  8
0
 10
1.36592
 20
-0.0658297
 11
1.36148
 21
-0.0615344
  0
LINE
  8
0
 10
1.36148
 20
-0.0615344
 11
1.35734
 21
-0.0569393
  0
LINE
  8
0
 10
1.35734
 20
-0.0569393
 11
1.35353
 21
-0.0520673
  0
LINE
  8
0
 10
1.35353
 20
-0.0520673
 11
1.35007
 21
-0.0469412
  0
LINE
  8
0
 10
1.35007
 20
-0.0469412
 11
1.34698
 21
-0.0415868
  0
LINE
  8
0
 10
1.34698
 20
-0.0415868
 11
1.34427
 21
-0.0360294
  0
LINE
  8
0
 10
1.34427
 20
-0.0360294
 11
1.34196
 21
-0.0302965
  0
LINE
  8
0
 10
1.34196
 20
-0.0302965
 11
1.34005
 21
-0.0244165
  0
LINE
  8
0
 10
1.34005
 20
-0.0244165
 11
1.33855
 21
-0.0184169
  0
LINE
  8
0
 10
1.33855
 20
-0.0184169
 11
1.33748
 21
-0.0123278
  0
LINE
  8
0
 10
1.33748
 20
-0.0123278
 11
1.33683
 21
-0.00617921
  0
LINE
  8
0
 10
1.33683
 20
-0.00617921
 11
1.33661
 21
0
  0
LINE
  8
0
 10
1.33661
 20
0
 11
1.33683
 21
0.00617921
  0
LINE
  8
0
 10
1.33683
 20
0.00617921
 11
1.33748
 21
0.0123278
  0
LINE
  8
0
 10
1.33748
 20
0.0123278
 11
1.33855
 21
0.0184169
  0
LINE
  8
0
 10
1.33855
 20
0.0184169
 11
1.34005
 21
0.0244165
  0
LINE
  8
0
 10
1.34005
 20
0.0244165
 11
1.34196
 21
0.0302965
  0
LINE
  8
0
 10
1.34196
 20
0.0302965
 11
1.34427
 21
0.0360294
  0
LINE
  8
0
 10
1.34427
 20
0.0360294
 11
1.34698
 21
0.0415868
  0
LINE
  8
0
 10
1.34698
 20
0.0415868
 11
1.35007
 21
0.0469412
  0
LINE
  8
0
 10
1.35007
 20
0.0469412
 11
1.35353
 21
0.0520673
  0
LINE
  8
0
 10
1.35353
 20
0.0520673
 11
1.35734
 21
0.0569393
  0
LINE
  8
0
 10
1.35734
 20
0.0569393
 11
1.36148
 21
0.0615344
  0
LINE
  8
0
 10
1.36148
 20
0.0615344
 11
1.36592
 21
0.0658297
  0
LINE
  8
0
 10
1.36592
 20
0.0658297
 11
1.37066
 21
0.0698036
  0
LINE
  8
0
 10
1.37066
 20
0.0698036
 11
1.37566
 21
0.073438
  0
LINE
  8
0
 10
1.37566
 20
0.073438
 11
1.38091
 21
0.0767145
  0
LINE
  8
0
 10
1.38091
 20
0.0767145
 11
1.38636
 21
0.0796172
  0
LINE
  8
0
 10
1.38636
 20
0.0796172
 11
1.39201
 21
0.0821319
  0
LINE
  8
0
 10
1.39201
 20
0.0821319
 11
1.39782
 21
0.0842465
  0
LINE
  8
0
 10
1.39782
 20
0.0842465
 11
1.40377
 21
0.0859508
  0
LINE
  8
0
 10
1.40377
 20
0.0859508
 11
1.40981
 21
0.0872364
  0
LINE
  8
0
 10
1.40981
 20
0.0872364
 11
1.41594
 21
0.0880973
  0
LINE
  8
0
 10
1.41594
 20
0.0880973
 11
1.42211
 21
0.0885286
  0
LINE
  8
0
 10
1.42211
 20
0.0885286
 11
1.42829
 21
0.0885286
  0
LINE
  8
0
 10
1.42829
 20
0.0885286
 11
1.43446
 21
0.0880973
  0
LINE
  8
0
 10
1.43446
 20
0.0880973
 11
1.44058
 21
0.0872364
  0
LINE
  8
0
 10
1.44058
 20
0.0872364
 11
1.44663
 21
0.0859508
  0
LINE
  8
0
 10
1.44663
 20
0.0859508
 11
1.45257
 21
0.0842465
  0
LINE
  8
0
 10
1.45257
 20
0.0842465
 11
1.45838
 21
0.0821319
  0
LINE
  8
0
 10
1.45838
 20
0.0821319
 11
1.46403
 21
0.0796172
  0
LINE
  8
0
 10
1.46403
 20
0.0796172
 11
1.46949
 21
0.0767145
  0
LINE
  8
0
 10
1.46949
 20
0.0767145
 11
1.47473
 21
0.073438
  0
LINE
  8
0
 10
1.47473
 20
0.073438
 11
1.47973
 21
0.0698036
  0
LINE
  8
0
 10
1.47973
 20
0.0698036
 11
1.48447
 21
0.0658297
  0
LINE
  8
0
 10
1.48447
 20
0.0658297
 11
1.48892
 21
0.0615344
  0
LINE
  8
0
 10
1.48892
 20
0.0615344
 11
1.49306
 21
0.0569393
  0
LINE
  8
0
 10
1.49306
 20
0.0569393
 11
1.49686
 21
0.0520673
  0
LINE
  8
0
 10
1.49686
 20
0.0520673
 11
1.50032
 21
0.0469412
  0
LINE
  8
0
 10
1.50032
 20
0.0469412
 11
1.50341
 21
0.0415868
  0
LINE
  8
0
 10
1.50341
 20
0.0415868
 11
1.50612
 21
0.0360294
  0
LINE
  8
0
 10
1.50612
 20
0.0360294
 11
1.50844
 21
0.0302965
  0
LINE
  8
0
 10
1.50844
 20
0.0302965
 11
1.51035
 21
0.0244165
  0
LINE
  8
0
 10
1.51035
 20
0.0244165
 11
1.51184
 21
0.0184169
  0
LINE
  8
0
 10
1.51184
 20
0.0184169
 11
1.51292
 21
0.0123278
  0
LINE
  8
0
 10
1.51292
 20
0.0123278
 11
1.51356
 21
0.00617921
  0
LINE
  8
0
 10
1.51356
 20
0.00617921
 11
1.51378
 21
0
  0
LINE
  8
0
 10
1.51378
 20
0
 11
1.51356
 21
-0.00617921
  0
LINE
  8
0
 10
1.51356
 20
-0.00617921
 11
1.51292
 21
-0.0123278
  0
LINE
  8
0
 10
1.51292
 20
-0.0123278
 11
1.51184
 21
-0.0184169
  0
LINE
  8
0
 10
1.51184
 20
-0.0184169
 11
1.51035
 21
-0.0244165
  0
LINE
  8
0
 10
1.51035
 20
-0.0244165
 11
1.50844
 21
-0.0302965
  0
LINE
  8
0
 10
1.50844
 20
-0.0302965
 11
1.50612
 21
-0.0360294
  0
LINE
  8
0
 10
1.50612
 20
-0.0360294
 11
1.50341
 21
-0.0415868
  0
LINE
  8
0
 10
1.50341
 20
-0.0415868
 11
1.50032
 21
-0.0469412
  0
LINE
  8
0
 10
1.50032
 20
-0.0469412
 11
1.49686
 21
-0.0520673
  0
LINE
  8
0
 10
1.49686
 20
-0.0520673
 11
1.49306
 21
-0.0569393
  0
LINE
  8
0
 10
1.49306
 20
-0.0569393
 11
1.48892
 21
-0.0615344
  0
LINE
  8
0
 10
1.48892
 20
-0.0615344
 11
1.48447
 21
-0.0658297
  0
LINE
  8
0
 10
1.48447
 20
-0.0658297
 11
1.47973
 21
-0.0698036
  0
LINE
  8
0
 10
1.47973
 20
-0.0698036
 11
1.47473
 21
-0.073438
  0
LINE
  8
0
 10
1.47473
 20
-0.073438
 11
1.46949
 21
-0.0767145
  0
LINE
  8
0
 10
1.46949
 20
-0.0767145
 11
1.46403
 21
-0.0796172
  0
LINE
  8
0
 10
1.46403
 20
-0.0796172
 11
1.45838
 21
-0.0821319
  0
LINE
  8
0
 10
1.45838
 20
-0.0821319
 11
1.45257
 21
-0.0842465
  0
LINE
  8
0
 10
1.45257
 20
-0.0842465
 11
1.44663
 21
-0.0859508
  0
LINE
  8
0
 10
1.44663
 20
-0.0859508
 11
1.44058
 21
-0.0872364
  0
LINE
  8
0
 10
1.44058
 20
-0.0872364
 11
1.43446
 21
-0.0880973
  0
LINE
  8
0
 10
1.43446
 20
-0.0880973
 11
1.42829
 21
-0.0885286
  0
LINE
  8
0
 10
1.42829
 20
-0.0885286
 11
1.42211
 21
-0.0885286
  0
LINE
  8
0
 10
1.56162
 20
-0.436231
 11
1.55548
 21
-0.435477
  0
LINE
  8
0
 10
1.55548
 20
-0.435477
 11
1.54941
 21
-0.434298
  0
LINE
  8
0
 10
1.54941
 20
-0.434298
 11
1.54344
 21
-0.432697
  0
LINE
  8
0
 10
1.54344
 20
-0.432697
 11
1.53759
 21
-0.430684
  0
LINE
  8
0
 10
1.53759
 20
-0.430684
 11
1.5319
 21
-0.428269
  0
LINE
  8
0
 10
1.5319
 20
-0.428269
 11
1.52639
 21
-0.425461
  0
LINE
  8
0
 10
1.52639
 20
-0.425461
 11
1.52109
 21
-0.422277
  0
LINE
  8
0
 10
1.52109
 20
-0.422277
 11
1.51603
 21
-0.418731
  0
LINE
  8
0
 10
1.51603
 20
-0.418731
 11
1.51122
 21
-0.41484
  0
LINE
  8
0
 10
1.51122
 20
-0.41484
 11
1.5067
 21
-0.410623
  0
LINE
  8
0
 10
1.5067
 20
-0.410623
 11
1.50248
 21
-0.406101
  0
LINE
  8
0
 10
1.50248
 20
-0.406101
 11
1.49859
 21
-0.401296
  0
LINE
  8
0
 10
1.49859
 20
-0.401296
 11
1.49505
 21
-0.396231
  0
LINE
  8
0
 10
1.49505
 20
-0.396231
 11
1.49186
 21
-0.390931
  0
LINE
  8
0
 10
1.49186
 20
-0.390931
 11
1.48905
 21
-0.385422
  0
LINE
  8
0
 10
1.48905
 20
-0.385422
 11
1.48664
 21
-0.379731
  0
LINE
  8
0
 10
1.48664
 20
-0.379731
 11
1.48463
 21
-0.373884
  0
LINE
  8
0
 10
1.48463
 20
-0.373884
 11
1.48303
 21
-0.367912
  0
LINE
  8
0
 10
1.48303
 20
-0.367912
 11
1.48185
 21
-0.361843
  0
LINE
  8
0
 10
1.48185
 20
-0.361843
 11
1.48109
 21
-0.355706
  0
LINE
  8
0
 10
1.48109
 20
-0.355706
 11
1.48077
 21
-0.349531
  0
LINE
  8
0
 10
1.48077
 20
-0.349531
 11
1.48088
 21
-0.343349
  0
LINE
  8
0
 10
1.48088
 20
-0.343349
 11
1.48142
 21
-0.33719
  0
LINE
  8
0
 10
1.48142
 20
-0.33719
 11
1.48238
 21
-0.331083
  0
LINE
  8
0
 10
1.48238
 20
-0.331083
 11
1.48377
 21
-0.325058
  0
LINE
  8
0
 10
1.48377
 20
-0.325058
 11
1.48558
 21
-0.319145
  0
LINE
  8
0
 10
1.48558
 20
-0.319145
 11
1.4878
 21
-0.313373
  0
LINE
  8
0
 10
1.4878
 20
-0.313373
 11
1.49041
 21
-0.30777
  0
LINE
  8
0
 10
1.49041
 20
-0.30777
 11
1.49341
 21
-0.302362
  0
LINE
  8
0
 10
1.49341
 20
-0.302362
 11
1.49677
 21
-0.297176
  0
LINE
  8
0
 10
1.49677
 20
-0.297176
 11
1.5005
 21
-0.292238
  0
LINE
  8
0
 10
1.5005
 20
-0.292238
 11
1.50455
 21
-0.287572
  0
LINE
  8
0
 10
1.50455
 20
-0.287572
 11
1.50892
 21
-0.2832
  0
LINE
  8
0
 10
1.50892
 20
-0.2832
 11
1.51359
 21
-0.279144
  0
LINE
  8
0
 10
1.51359
 20
-0.279144
 11
1.51853
 21
-0.275422
  0
LINE
  8
0
 10
1.51853
 20
-0.275422
 11
1.52371
 21
-0.272055
  0
LINE
  8
0
 10
1.52371
 20
-0.272055
 11
1.52912
 21
-0.269058
  0
LINE
  8
0
 10
1.52912
 20
-0.269058
 11
1.53473
 21
-0.266444
  0
LINE
  8
0
 10
1.53473
 20
-0.266444
 11
1.5405
 21
-0.264229
  0
LINE
  8
0
 10
1.5405
 20
-0.264229
 11
1.54641
 21
-0.262421
  0
LINE
  8
0
 10
1.54641
 20
-0.262421
 11
1.55244
 21
-0.26103
  0
LINE
  8
0
 10
1.55244
 20
-0.26103
 11
1.55854
 21
-0.260063
  0
LINE
  8
0
 10
1.55854
 20
-0.260063
 11
1.5647
 21
-0.259524
  0
LINE
  8
0
 10
1.5647
 20
-0.259524
 11
1.57088
 21
-0.259416
  0
LINE
  8
0
 10
1.57088
 20
-0.259416
 11
1.57706
 21
-0.259739
  0
LINE
  8
0
 10
1.57706
 20
-0.259739
 11
1.58319
 21
-0.260493
  0
LINE
  8
0
 10
1.58319
 20
-0.260493
 11
1.58926
 21
-0.261673
  0
LINE
  8
0
 10
1.58926
 20
-0.261673
 11
1.59524
 21
-0.263274
  0
LINE
  8
0
 10
1.59524
 20
-0.263274
 11
1.60108
 21
-0.265286
  0
LINE
  8
0
 10
1.60108
 20
-0.265286
 11
1.60677
 21
-0.267702
  0
LINE
  8
0
 10
1.60677
 20
-0.267702
 11
1.61228
 21
-0.270509
  0
LINE
  8
0
 10
1.61228
 20
-0.270509
 11
1.61758
 21
-0.273693
  0
LINE
  8
0
 10
1.61758
 20
-0.273693
 11
1.62265
 21
-0.27724
  0
LINE
  8
0
 10
1.62265
 20
-0.27724
 11
1.62745
 21
-0.281131
  0
LINE
  8
0
 10
1.62745
 20
-0.281131
 11
1.63197
 21
-0.285348
  0
LINE
  8
0
 10
1.63197
 20
-0.285348
 11
1.63619
 21
-0.28987
  0
LINE
  8
0
 10
1.63619
 20
-0.28987
 11
1.64008
 21
-0.294675
  0
LINE
  8
0
 10
1.64008
 20
-0.294675
 11
1.64363
 21
-0.29974
  0
LINE
  8
0
 10
1.64363
 20
-0.29974
 11
1.64681
 21
-0.305039
  0
LINE
  8
0
 10
1.64681
 20
-0.305039
 11
1.64962
 21
-0.310549
  0
LINE
  8
0
 10
1.64962
 20
-0.310549
 11
1.65204
 21
-0.31624
  0
LINE
  8
0
 10
1.65204
 20
-0.31624
 11
1.65405
 21
-0.322086
  0
LINE
  8
0
 10
1.65405
 20
-0.322086
 11
1.65565
 21
-0.328059
  0
LINE
  8
0
 10
1.65565
 20
-0.328059
 11
1.65683
 21
-0.334128
  0
LINE
  8
0
 10
1.65683
 20
-0.334128
 11
1.65758
 21
-0.340265
  0
LINE
  8
0
 10
1.65758
 20
-0.340265
 11
1.65791
 21
-0.346439
  0
LINE
  8
0
 10
1.65791
 20
-0.346439
 11
1.6578
 21
-0.352622
  0
LINE
  8
0
 10
1.6578
 20
-0.352622
 11
1.65726
 21
-0.358781
  0
LINE
  8
0
 10
1.65726
 20
-0.358781
 11
1.65629
 21
-0.364888
  0
LINE
  8
0
 10
1.65629
 20
-0.364888
 11
1.6549
 21
-0.370912
  0
LINE
  8
0
 10
1.6549
 20
-0.370912
 11
1.65309
 21
-0.376825
  0
LINE
  8
0
 10
1.65309
 20
-0.376825
 11
1.65088
 21
-0.382597
  0
LINE
  8
0
 10
1.65088
 20
-0.382597
 11
1.64827
 21
-0.388201
  0
LINE
  8
0
 10
1.64827
 20
-0.388201
 11
1.64527
 21
-0.393609
  0
LINE
  8
0
 10
1.64527
 20
-0.393609
 11
1.6419
 21
-0.398794
  0
LINE
  8
0
 10
1.6419
 20
-0.398794
 11
1.63818
 21
-0.403732
  0
LINE
  8
0
 10
1.63818
 20
-0.403732
 11
1.63412
 21
-0.408398
  0
LINE
  8
0
 10
1.63412
 20
-0.408398
 11
1.62975
 21
-0.412771
  0
LINE
  8
0
 10
1.62975
 20
-0.412771
 11
1.62508
 21
-0.416827
  0
LINE
  8
0
 10
1.62508
 20
-0.416827
 11
1.62015
 21
-0.420548
  0
LINE
  8
0
 10
1.62015
 20
-0.420548
 11
1.61496
 21
-0.423916
  0
LINE
  8
0
 10
1.61496
 20
-0.423916
 11
1.60955
 21
-0.426913
  0
LINE
  8
0
 10
1.60955
 20
-0.426913
 11
1.60395
 21
-0.429526
  0
LINE
  8
0
 10
1.60395
 20
-0.429526
 11
1.59818
 21
-0.431742
  0
LINE
  8
0
 10
1.59818
 20
-0.431742
 11
1.59226
 21
-0.43355
  0
LINE
  8
0
 10
1.59226
 20
-0.43355
 11
1.58624
 21
-0.43494
  0
LINE
  8
0
 10
1.58624
 20
-0.43494
 11
1.58013
 21
-0.435908
  0
LINE
  8
0
 10
1.58013
 20
-0.435908
 11
1.57397
 21
-0.436446
  0
LINE
  8
0
 10
1.57397
 20
-0.436446
 11
1.56779
 21
-0.436555
  0
LINE
  8
0
 10
1.56779
 20
-0.436555
 11
1.56162
 21
-0.436231
  0
LINE
  8
0
 10
2.26067
 20
-0.436446
 11
2.25451
 21
-0.435908
  0
LINE
  8
0
 10
2.25451
 20
-0.435908
 11
2.24841
 21
-0.43494
  0
LINE
  8
0
 10
2.24841
 20
-0.43494
 11
2.24238
 21
-0.43355
  0
LINE
  8
0
 10
2.24238
 20
-0.43355
 11
2.23647
 21
-0.431742
  0
LINE
  8
0
 10
2.23647
 20
-0.431742
 11
2.2307
 21
-0.429526
  0
LINE
  8
0
 10
2.2307
 20
-0.429526
 11
2.22509
 21
-0.426913
  0
LINE
  8
0
 10
2.22509
 20
-0.426913
 11
2.21968
 21
-0.423916
  0
LINE
  8
0
 10
2.21968
 20
-0.423916
 11
2.2145
 21
-0.420548
  0
LINE
  8
0
 10
2.2145
 20
-0.420548
 11
2.20956
 21
-0.416827
  0
LINE
  8
0
 10
2.20956
 20
-0.416827
 11
2.2049
 21
-0.412771
  0
LINE
  8
0
 10
2.2049
 20
-0.412771
 11
2.20052
 21
-0.408398
  0
LINE
  8
0
 10
2.20052
 20
-0.408398
 11
2.19647
 21
-0.403732
  0
LINE
  8
0
 10
2.19647
 20
-0.403732
 11
2.19275
 21
-0.398794
  0
LINE
  8
0
 10
2.19275
 20
-0.398794
 11
2.18938
 21
-0.393609
  0
LINE
  8
0
 10
2.18938
 20
-0.393609
 11
2.18638
 21
-0.388201
  0
LINE
  8
0
 10
2.18638
 20
-0.388201
 11
2.18377
 21
-0.382597
  0
LINE
  8
0
 10
2.18377
 20
-0.382597
 11
2.18155
 21
-0.376825
  0
LINE
  8
0
 10
2.18155
 20
-0.376825
 11
2.17974
 21
-0.370912
  0
LINE
  8
0
 10
2.17974
 20
-0.370912
 11
2.17835
 21
-0.364888
  0
LINE
  8
0
 10
2.17835
 20
-0.364888
 11
2.17739
 21
-0.358781
  0
LINE
  8
0
 10
2.17739
 20
-0.358781
 11
2.17685
 21
-0.352622
  0
LINE
  8
0
 10
2.17685
 20
-0.352622
 11
2.17674
 21
-0.346439
  0
LINE
  8
0
 10
2.17674
 20
-0.346439
 11
2.17706
 21
-0.340265
  0
LINE
  8
0
 10
2.17706
 20
-0.340265
 11
2.17782
 21
-0.334128
  0
LINE
  8
0
 10
2.17782
 20
-0.334128
 11
2.179
 21
-0.328059
  0
LINE
  8
0
 10
2.179
 20
-0.328059
 11
2.1806
 21
-0.322086
  0
LINE
  8
0
 10
2.1806
 20
-0.322086
 11
2.18261
 21
-0.31624
  0
LINE
  8
0
 10
2.18261
 20
-0.31624
 11
2.18502
 21
-0.310549
  0
LINE
  8
0
 10
2.18502
 20
-0.310549
 11
2.18783
 21
-0.305039
  0
LINE
  8
0
 10
2.18783
 20
-0.305039
 11
2.19102
 21
-0.29974
  0
LINE
  8
0
 10
2.19102
 20
-0.29974
 11
2.19456
 21
-0.294675
  0
LINE
  8
0
 10
2.19456
 20
-0.294675
 11
2.19845
 21
-0.28987
  0
LINE
  8
0
 10
2.19845
 20
-0.28987
 11
2.20267
 21
-0.285348
  0
LINE
  8
0
 10
2.20267
 20
-0.285348
 11
2.20719
 21
-0.281131
  0
LINE
  8
0
 10
2.20719
 20
-0.281131
 11
2.212
 21
-0.27724
  0
LINE
  8
0
 10
2.212
 20
-0.27724
 11
2.21706
 21
-0.273693
  0
LINE
  8
0
 10
2.21706
 20
-0.273693
 11
2.22236
 21
-0.270509
  0
LINE
  8
0
 10
2.22236
 20
-0.270509
 11
2.22787
 21
-0.267702
  0
LINE
  8
0
 10
2.22787
 20
-0.267702
 11
2.23356
 21
-0.265286
  0
LINE
  8
0
 10
2.23356
 20
-0.265286
 11
2.23941
 21
-0.263274
  0
LINE
  8
0
 10
2.23941
 20
-0.263274
 11
2.24538
 21
-0.261673
  0
LINE
  8
0
 10
2.24538
 20
-0.261673
 11
2.25145
 21
-0.260493
  0
LINE
  8
0
 10
2.25145
 20
-0.260493
 11
2.25759
 21
-0.259739
  0
LINE
  8
0
 10
2.25759
 20
-0.259739
 11
2.26376
 21
-0.259416
  0
LINE
  8
0
 10
2.26376
 20
-0.259416
 11
2.26994
 21
-0.259524
  0
LINE
  8
0
 10
2.26994
 20
-0.259524
 11
2.2761
 21
-0.260063
  0
LINE
  8
0
 10
2.2761
 20
-0.260063
 11
2.28221
 21
-0.26103
  0
LINE
  8
0
 10
2.28221
 20
-0.26103
 11
2.28824
 21
-0.262421
  0
LINE
  8
0
 10
2.28824
 20
-0.262421
 11
2.29415
 21
-0.264229
  0
LINE
  8
0
 10
2.29415
 20
-0.264229
 11
2.29992
 21
-0.266444
  0
LINE
  8
0
 10
2.29992
 20
-0.266444
 11
2.30552
 21
-0.269058
  0
LINE
  8
0
 10
2.30552
 20
-0.269058
 11
2.31093
 21
-0.272055
  0
LINE
  8
0
 10
2.31093
 20
-0.272055
 11
2.31612
 21
-0.275422
  0
LINE
  8
0
 10
2.31612
 20
-0.275422
 11
2.32105
 21
-0.279144
  0
LINE
  8
0
 10
2.32105
 20
-0.279144
 11
2.32572
 21
-0.2832
  0
LINE
  8
0
 10
2.32572
 20
-0.2832
 11
2.33009
 21
-0.287572
  0
LINE
  8
0
 10
2.33009
 20
-0.287572
 11
2.33415
 21
-0.292238
  0
LINE
  8
0
 10
2.33415
 20
-0.292238
 11
2.33787
 21
-0.297176
  0
LINE
  8
0
 10
2.33787
 20
-0.297176
 11
2.34124
 21
-0.302362
  0
LINE
  8
0
 10
2.34124
 20
-0.302362
 11
2.34424
 21
-0.30777
  0
LINE
  8
0
 10
2.34424
 20
-0.30777
 11
2.34685
 21
-0.313373
  0
LINE
  8
0
 10
2.34685
 20
-0.313373
 11
2.34906
 21
-0.319145
  0
LINE
  8
0
 10
2.34906
 20
-0.319145
 11
2.35087
 21
-0.325058
  0
LINE
  8
0
 10
2.35087
 20
-0.325058
 11
2.35226
 21
-0.331083
  0
LINE
  8
0
 10
2.35226
 20
-0.331083
 11
2.35323
 21
-0.33719
  0
LINE
  8
0
 10
2.35323
 20
-0.33719
 11
2.35377
 21
-0.343349
  0
LINE
  8
0
 10
2.35377
 20
-0.343349
 11
2.35388
 21
-0.349531
  0
LINE
  8
0
 10
2.35388
 20
-0.349531
 11
2.35355
 21
-0.355706
  0
LINE
  8
0
 10
2.35355
 20
-0.355706
 11
2.3528
 21
-0.361843
  0
LINE
  8
0
 10
2.3528
 20
-0.361843
 11
2.35162
 21
-0.367912
  0
LINE
  8
0
 10
2.35162
 20
-0.367912
 11
2.35002
 21
-0.373884
  0
LINE
  8
0
 10
2.35002
 20
-0.373884
 11
2.34801
 21
-0.379731
  0
LINE
  8
0
 10
2.34801
 20
-0.379731
 11
2.34559
 21
-0.385422
  0
LINE
  8
0
 10
2.34559
 20
-0.385422
 11
2.34278
 21
-0.390931
  0
LINE
  8
0
 10
2.34278
 20
-0.390931
 11
2.3396
 21
-0.396231
  0
LINE
  8
0
 10
2.3396
 20
-0.396231
 11
2.33605
 21
-0.401296
  0
LINE
  8
0
 10
2.33605
 20
-0.401296
 11
2.33216
 21
-0.406101
  0
LINE
  8
0
 10
2.33216
 20
-0.406101
 11
2.32795
 21
-0.410623
  0
LINE
  8
0
 10
2.32795
 20
-0.410623
 11
2.32342
 21
-0.41484
  0
LINE
  8
0
 10
2.32342
 20
-0.41484
 11
2.31862
 21
-0.418731
  0
LINE
  8
0
 10
2.31862
 20
-0.418731
 11
2.31355
 21
-0.422277
  0
LINE
  8
0
 10
2.31355
 20
-0.422277
 11
2.30825
 21
-0.425461
  0
LINE
  8
0
 10
2.30825
 20
-0.425461
 11
2.30274
 21
-0.428269
  0
LINE
  8
0
 10
2.30274
 20
-0.428269
 11
2.29705
 21
-0.430684
  0
LINE
  8
0
 10
2.29705
 20
-0.430684
 11
2.29121
 21
-0.432697
  0
LINE
  8
0
 10
2.29121
 20
-0.432697
 11
2.28523
 21
-0.434298
  0
LINE
  8
0
 10
2.28523
 20
-0.434298
 11
2.27917
 21
-0.435477
  0
LINE
  8
0
 10
2.27917
 20
-0.435477
 11
2.27303
 21
-0.436231
  0
LINE
  8
0
 10
2.27303
 20
-0.436231
 11
2.26685
 21
-0.436555
  0
LINE
  8
0
 10
2.26685
 20
-0.436555
 11
2.26067
 21
-0.436446
  0
LINE
  8
0
 10
-0.361476
 20
-0.810442
 11
-0.369005
 21
-0.8098
  0
LINE
  8
0
 10
-0.369005
 20
-0.8098
 11
-0.376472
 21
-0.808633
  0
LINE
  8
0
 10
-0.376472
 20
-0.808633
 11
-0.383838
 21
-0.806948
  0
LINE
  8
0
 10
-0.383838
 20
-0.806948
 11
-0.391069
 21
-0.804753
  0
LINE
  8
0
 10
-0.391069
 20
-0.804753
 11
-0.39813
 21
-0.80206
  0
LINE
  8
0
 10
-0.39813
 20
-0.80206
 11
-0.404986
 21
-0.79888
  0
LINE
  8
0
 10
-0.404986
 20
-0.79888
 11
-0.411029
 21
-0.795546
  0
LINE
  8
0
 10
-0.411029
 20
-0.795546
 11
-0.41724
 21
-0.792549
  0
LINE
  8
0
 10
-0.41724
 20
-0.792549
 11
-0.423228
 21
-0.789124
  0
LINE
  8
0
 10
-0.423228
 20
-0.789124
 11
-0.429395
 21
-0.786029
  0
LINE
  8
0
 10
-0.429395
 20
-0.786029
 11
-0.435328
 21
-0.782514
  0
LINE
  8
0
 10
-0.435328
 20
-0.782514
 11
-0.441449
 21
-0.779323
  0
LINE
  8
0
 10
-0.441449
 20
-0.779323
 11
-0.447332
 21
-0.775714
  0
LINE
  8
0
 10
-0.447332
 20
-0.775714
 11
-0.453397
 21
-0.772434
  0
LINE
  8
0
 10
-0.453397
 20
-0.772434
 11
-0.459219
 21
-0.768737
  0
LINE
  8
0
 10
-0.459219
 20
-0.768737
 11
-0.465238
 21
-0.765359
  0
LINE
  8
0
 10
-0.465238
 20
-0.765359
 11
-0.471007
 21
-0.761571
  0
LINE
  8
0
 10
-0.471007
 20
-0.761571
 11
-0.476969
 21
-0.758105
  0
LINE
  8
0
 10
-0.476969
 20
-0.758105
 11
-0.482677
 21
-0.754229
  0
LINE
  8
0
 10
-0.482677
 20
-0.754229
 11
-0.488587
 21
-0.750669
  0
LINE
  8
0
 10
-0.488587
 20
-0.750669
 11
-0.494234
 21
-0.746706
  0
LINE
  8
0
 10
-0.494234
 20
-0.746706
 11
-0.500089
 21
-0.743057
  0
LINE
  8
0
 10
-0.500089
 20
-0.743057
 11
-0.505672
 21
-0.73901
  0
LINE
  8
0
 10
-0.505672
 20
-0.73901
 11
-0.511472
 21
-0.735268
  0
LINE
  8
0
 10
-0.511472
 20
-0.735268
 11
-0.516992
 21
-0.731134
  0
LINE
  8
0
 10
-0.516992
 20
-0.731134
 11
-0.522734
 21
-0.727304
  0
LINE
  8
0
 10
-0.522734
 20
-0.727304
 11
-0.528189
 21
-0.723087
  0
LINE
  8
0
 10
-0.528189
 20
-0.723087
 11
-0.533872
 21
-0.719168
  0
LINE
  8
0
 10
-0.533872
 20
-0.719168
 11
-0.539268
 21
-0.714862
  0
LINE
  8
0
 10
-0.539268
 20
-0.714862
 11
-0.544884
 21
-0.710861
  0
LINE
  8
0
 10
-0.544884
 20
-0.710861
 11
-0.550212
 21
-0.706474
  0
LINE
  8
0
 10
-0.550212
 20
-0.706474
 11
-0.555766
 21
-0.702386
  0
LINE
  8
0
 10
-0.555766
 20
-0.702386
 11
-0.561018
 21
-0.697923
  0
LINE
  8
0
 10
-0.561018
 20
-0.697923
 11
-0.566516
 21
-0.693744
  0
LINE
  8
0
 10
-0.566516
 20
-0.693744
 11
-0.571701
 21
-0.689199
  0
LINE
  8
0
 10
-0.571701
 20
-0.689199
 11
-0.577132
 21
-0.684938
  0
LINE
  8
0
 10
-0.577132
 20
-0.684938
 11
-0.582251
 21
-0.68031
  0
LINE
  8
0
 10
-0.582251
 20
-0.68031
 11
-0.587612
 21
-0.675969
  0
LINE
  8
0
 10
-0.587612
 20
-0.675969
 11
-0.592662
 21
-0.671259
  0
LINE
  8
0
 10
-0.592662
 20
-0.671259
 11
-0.597951
 21
-0.66684
  0
LINE
  8
0
 10
-0.597951
 20
-0.66684
 11
-0.602926
 21
-0.662055
  0
LINE
  8
0
 10
-0.602926
 20
-0.662055
 11
-0.608149
 21
-0.657553
  0
LINE
  8
0
 10
-0.608149
 20
-0.657553
 11
-0.613048
 21
-0.652694
  0
LINE
  8
0
 10
-0.613048
 20
-0.652694
 11
-0.618203
 21
-0.64811
  0
LINE
  8
0
 10
-0.618203
 20
-0.64811
 11
-0.623027
 21
-0.643176
  0
LINE
  8
0
 10
-0.623027
 20
-0.643176
 11
-0.628111
 21
-0.638514
  0
LINE
  8
0
 10
-0.628111
 20
-0.638514
 11
-0.632858
 21
-0.633505
  0
LINE
  8
0
 10
-0.632858
 20
-0.633505
 11
-0.637868
 21
-0.628765
  0
LINE
  8
0
 10
-0.637868
 20
-0.628765
 11
-0.642539
 21
-0.623684
  0
LINE
  8
0
 10
-0.642539
 20
-0.623684
 11
-0.647475
 21
-0.618868
  0
LINE
  8
0
 10
-0.647475
 20
-0.618868
 11
-0.652062
 21
-0.613721
  0
LINE
  8
0
 10
-0.652062
 20
-0.613721
 11
-0.656929
 21
-0.608824
  0
LINE
  8
0
 10
-0.656929
 20
-0.608824
 11
-0.661439
 21
-0.603603
  0
LINE
  8
0
 10
-0.661439
 20
-0.603603
 11
-0.666226
 21
-0.598635
  0
LINE
  8
0
 10
-0.666226
 20
-0.598635
 11
-0.670657
 21
-0.593344
  0
LINE
  8
0
 10
-0.670657
 20
-0.593344
 11
-0.675366
 21
-0.588305
  0
LINE
  8
0
 10
-0.675366
 20
-0.588305
 11
-0.679712
 21
-0.582949
  0
LINE
  8
0
 10
-0.679712
 20
-0.582949
 11
-0.684346
 21
-0.577835
  0
LINE
  8
0
 10
-0.684346
 20
-0.577835
 11
-0.688612
 21
-0.572409
  0
LINE
  8
0
 10
-0.688612
 20
-0.572409
 11
-0.693163
 21
-0.567227
  0
LINE
  8
0
 10
-0.693163
 20
-0.567227
 11
-0.697342
 21
-0.561742
  0
LINE
  8
0
 10
-0.697342
 20
-0.561742
 11
-0.701815
 21
-0.556487
  0
LINE
  8
0
 10
-0.701815
 20
-0.556487
 11
-0.705908
 21
-0.550939
  0
LINE
  8
0
 10
-0.705908
 20
-0.550939
 11
-0.710302
 21
-0.545613
  0
LINE
  8
0
 10
-0.710302
 20
-0.545613
 11
-0.714311
 21
-0.539998
  0
LINE
  8
0
 10
-0.714311
 20
-0.539998
 11
-0.71862
 21
-0.53461
  0
LINE
  8
0
 10
-0.71862
 20
-0.53461
 11
-0.722547
 21
-0.528928
  0
LINE
  8
0
 10
-0.722547
 20
-0.528928
 11
-0.726767
 21
-0.52348
  0
LINE
  8
0
 10
-0.726767
 20
-0.52348
 11
-0.730603
 21
-0.517742
  0
LINE
  8
0
 10
-0.730603
 20
-0.517742
 11
-0.734743
 21
-0.512227
  0
LINE
  8
0
 10
-0.734743
 20
-0.512227
 11
-0.738488
 21
-0.506431
  0
LINE
  8
0
 10
-0.738488
 20
-0.506431
 11
-0.742543
 21
-0.500852
  0
LINE
  8
0
 10
-0.742543
 20
-0.500852
 11
-0.746547
 21
-0.494443
  0
LINE
  8
0
 10
-0.746547
 20
-0.494443
 11
-0.750096
 21
-0.487771
  0
LINE
  8
0
 10
-0.750096
 20
-0.487771
 11
-0.753168
 21
-0.480867
  0
LINE
  8
0
 10
-0.753168
 20
-0.480867
 11
-0.755753
 21
-0.473766
  0
LINE
  8
0
 10
-0.755753
 20
-0.473766
 11
-0.757837
 21
-0.466501
  0
LINE
  8
0
 10
-0.757837
 20
-0.466501
 11
-0.759408
 21
-0.45911
  0
LINE
  8
0
 10
-0.759408
 20
-0.45911
 11
-0.76046
 21
-0.451626
  0
LINE
  8
0
 10
-0.76046
 20
-0.451626
 11
-0.760986
 21
-0.444087
  0
LINE
  8
0
 10
-0.760986
 20
-0.444087
 11
-0.760987
 21
-0.436531
  0
LINE
  8
0
 10
-0.760987
 20
-0.436531
 11
-0.760459
 21
-0.428992
  0
LINE
  8
0
 10
-0.760459
 20
-0.428992
 11
-0.759408
 21
-0.421508
  0
LINE
  8
0
 10
-0.759408
 20
-0.421508
 11
-0.757837
 21
-0.414117
  0
LINE
  8
0
 10
-0.757837
 20
-0.414117
 11
-0.755753
 21
-0.406852
  0
LINE
  8
0
 10
-0.755753
 20
-0.406852
 11
-0.753168
 21
-0.399751
  0
LINE
  8
0
 10
-0.753168
 20
-0.399751
 11
-0.750096
 21
-0.392848
  0
LINE
  8
0
 10
-0.750096
 20
-0.392848
 11
-0.746548
 21
-0.386175
  0
LINE
  8
0
 10
-0.746548
 20
-0.386175
 11
-0.742543
 21
-0.379767
  0
LINE
  8
0
 10
-0.742543
 20
-0.379767
 11
-0.738101
 21
-0.373653
  0
LINE
  8
0
 10
-0.738101
 20
-0.373653
 11
-0.733244
 21
-0.367864
  0
LINE
  8
0
 10
-0.733244
 20
-0.367864
 11
-0.727994
 21
-0.362428
  0
LINE
  8
0
 10
-0.727994
 20
-0.362428
 11
-0.722378
 21
-0.357372
  0
LINE
  8
0
 10
-0.722378
 20
-0.357372
 11
-0.716423
 21
-0.352718
  0
LINE
  8
0
 10
-0.716423
 20
-0.352718
 11
-0.710158
 21
-0.348493
  0
LINE
  8
0
 10
-0.710158
 20
-0.348493
 11
-0.703613
 21
-0.344715
  0
LINE
  8
0
 10
-0.703613
 20
-0.344715
 11
-0.696821
 21
-0.341402
  0
LINE
  8
0
 10
-0.696821
 20
-0.341402
 11
-0.689814
 21
-0.338571
  0
LINE
  8
0
 10
-0.689814
 20
-0.338571
 11
-0.682627
 21
-0.336235
  0
LINE
  8
0
 10
-0.682627
 20
-0.336235
 11
-0.675295
 21
-0.334407
  0
LINE
  8
0
 10
-0.675295
 20
-0.334407
 11
-0.667853
 21
-0.333095
  0
LINE
  8
0
 10
-0.667853
 20
-0.333095
 11
-0.660337
 21
-0.332305
  0
LINE
  8
0
 10
-0.660337
 20
-0.332305
 11
-0.652785
 21
-0.332041
  0
LINE
  8
0
 10
-0.652785
 20
-0.332041
 11
-0.645233
 21
-0.332305
  0
LINE
  8
0
 10
-0.645233
 20
-0.332305
 11
-0.637716
 21
-0.333095
  0
LINE
  8
0
 10
-0.637716
 20
-0.333095
 11
-0.630274
 21
-0.334407
  0
LINE
  8
0
 10
-0.630274
 20
-0.334407
 11
-0.622942
 21
-0.336236
  0
LINE
  8
0
 10
-0.622942
 20
-0.336236
 11
-0.615755
 21
-0.33857
  0
LINE
  8
0
 10
-0.615755
 20
-0.33857
 11
-0.608749
 21
-0.341402
  0
LINE
  8
0
 10
-0.608749
 20
-0.341402
 11
-0.601956
 21
-0.344714
  0
LINE
  8
0
 10
-0.601956
 20
-0.344714
 11
-0.595412
 21
-0.348493
  0
LINE
  8
0
 10
-0.595412
 20
-0.348493
 11
-0.589147
 21
-0.352718
  0
LINE
  8
0
 10
-0.589147
 20
-0.352718
 11
-0.583192
 21
-0.357371
  0
LINE
  8
0
 10
-0.583192
 20
-0.357371
 11
-0.577576
 21
-0.362428
  0
LINE
  8
0
 10
-0.577576
 20
-0.362428
 11
-0.572326
 21
-0.367864
  0
LINE
  8
0
 10
-0.572326
 20
-0.367864
 11
-0.567469
 21
-0.373653
  0
LINE
  8
0
 10
-0.567469
 20
-0.373653
 11
-0.563027
 21
-0.379767
  0
LINE
  8
0
 10
-0.563027
 20
-0.379767
 11
-0.560256
 21
-0.384201
  0
LINE
  8
0
 10
-0.560256
 20
-0.384201
 11
-0.557112
 21
-0.388391
  0
LINE
  8
0
 10
-0.557112
 20
-0.388391
 11
-0.554271
 21
-0.392785
  0
LINE
  8
0
 10
-0.554271
 20
-0.392785
 11
-0.551065
 21
-0.396924
  0
LINE
  8
0
 10
-0.551065
 20
-0.396924
 11
-0.548157
 21
-0.401274
  0
LINE
  8
0
 10
-0.548157
 20
-0.401274
 11
-0.544887
 21
-0.405364
  0
LINE
  8
0
 10
-0.544887
 20
-0.405364
 11
-0.541913
 21
-0.409668
  0
LINE
  8
0
 10
-0.541913
 20
-0.409668
 11
-0.53858
 21
-0.413706
  0
LINE
  8
0
 10
-0.53858
 20
-0.413706
 11
-0.535538
 21
-0.417966
  0
LINE
  8
0
 10
-0.535538
 20
-0.417966
 11
-0.532146
 21
-0.421951
  0
LINE
  8
0
 10
-0.532146
 20
-0.421951
 11
-0.529038
 21
-0.426165
  0
LINE
  8
0
 10
-0.529038
 20
-0.426165
 11
-0.525585
 21
-0.430096
  0
LINE
  8
0
 10
-0.525585
 20
-0.430096
 11
-0.522414
 21
-0.434259
  0
LINE
  8
0
 10
-0.522414
 20
-0.434259
 11
-0.518899
 21
-0.438139
  0
LINE
  8
0
 10
-0.518899
 20
-0.438139
 11
-0.515662
 21
-0.442256
  0
LINE
  8
0
 10
-0.515662
 20
-0.442256
 11
-0.512091
 21
-0.446077
  0
LINE
  8
0
 10
-0.512091
 20
-0.446077
 11
-0.508794
 21
-0.45014
  0
LINE
  8
0
 10
-0.508794
 20
-0.45014
 11
-0.505161
 21
-0.453911
  0
LINE
  8
0
 10
-0.505161
 20
-0.453911
 11
-0.501799
 21
-0.457925
  0
LINE
  8
0
 10
-0.501799
 20
-0.457925
 11
-0.498111
 21
-0.461635
  0
LINE
  8
0
 10
-0.498111
 20
-0.461635
 11
-0.494689
 21
-0.465596
  0
LINE
  8
0
 10
-0.494689
 20
-0.465596
 11
-0.490943
 21
-0.469251
  0
LINE
  8
0
 10
-0.490943
 20
-0.469251
 11
-0.48746
 21
-0.473159
  0
LINE
  8
0
 10
-0.48746
 20
-0.473159
 11
-0.483659
 21
-0.476756
  0
LINE
  8
0
 10
-0.483659
 20
-0.476756
 11
-0.480118
 21
-0.480608
  0
LINE
  8
0
 10
-0.480118
 20
-0.480608
 11
-0.47626
 21
-0.484147
  0
LINE
  8
0
 10
-0.47626
 20
-0.484147
 11
-0.472657
 21
-0.487948
  0
LINE
  8
0
 10
-0.472657
 20
-0.487948
 11
-0.468748
 21
-0.491424
  0
LINE
  8
0
 10
-0.468748
 20
-0.491424
 11
-0.46509
 21
-0.495166
  0
LINE
  8
0
 10
-0.46509
 20
-0.495166
 11
-0.461124
 21
-0.498584
  0
LINE
  8
0
 10
-0.461124
 20
-0.498584
 11
-0.457407
 21
-0.50227
  0
LINE
  8
0
 10
-0.457407
 20
-0.50227
 11
-0.453391
 21
-0.505626
  0
LINE
  8
0
 10
-0.453391
 20
-0.505626
 11
-0.449615
 21
-0.509257
  0
LINE
  8
0
 10
-0.449615
 20
-0.509257
 11
-0.445552
 21
-0.512548
  0
LINE
  8
0
 10
-0.445552
 20
-0.512548
 11
-0.441723
 21
-0.516118
  0
LINE
  8
0
 10
-0.441723
 20
-0.516118
 11
-0.437606
 21
-0.519349
  0
LINE
  8
0
 10
-0.437606
 20
-0.519349
 11
-0.433723
 21
-0.522859
  0
LINE
  8
0
 10
-0.433723
 20
-0.522859
 11
-0.429556
 21
-0.526026
  0
LINE
  8
0
 10
-0.429556
 20
-0.526026
 11
-0.425622
 21
-0.529475
  0
LINE
  8
0
 10
-0.425622
 20
-0.529475
 11
-0.421405
 21
-0.532578
  0
LINE
  8
0
 10
-0.421405
 20
-0.532578
 11
-0.417418
 21
-0.535966
  0
LINE
  8
0
 10
-0.417418
 20
-0.535966
 11
-0.413153
 21
-0.539004
  0
LINE
  8
0
 10
-0.413153
 20
-0.539004
 11
-0.409112
 21
-0.542333
  0
LINE
  8
0
 10
-0.409112
 20
-0.542333
 11
-0.404804
 21
-0.545303
  0
LINE
  8
0
 10
-0.404804
 20
-0.545303
 11
-0.400713
 21
-0.548567
  0
LINE
  8
0
 10
-0.400713
 20
-0.548567
 11
-0.396358
 21
-0.551472
  0
LINE
  8
0
 10
-0.396358
 20
-0.551472
 11
-0.392219
 21
-0.554673
  0
LINE
  8
0
 10
-0.392219
 20
-0.554673
 11
-0.38782
 21
-0.55751
  0
LINE
  8
0
 10
-0.38782
 20
-0.55751
 11
-0.383632
 21
-0.560646
  0
LINE
  8
0
 10
-0.383632
 20
-0.560646
 11
-0.379188
 21
-0.563416
  0
LINE
  8
0
 10
-0.379188
 20
-0.563416
 11
-0.374949
 21
-0.56649
  0
LINE
  8
0
 10
-0.374949
 20
-0.56649
 11
-0.370467
 21
-0.569189
  0
LINE
  8
0
 10
-0.370467
 20
-0.569189
 11
-0.366182
 21
-0.572196
  0
LINE
  8
0
 10
-0.366182
 20
-0.572196
 11
-0.361657
 21
-0.574826
  0
LINE
  8
0
 10
-0.361657
 20
-0.574826
 11
-0.35733
 21
-0.577765
  0
LINE
  8
0
 10
-0.35733
 20
-0.577765
 11
-0.352763
 21
-0.580327
  0
LINE
  8
0
 10
-0.352763
 20
-0.580327
 11
-0.348387
 21
-0.583201
  0
LINE
  8
0
 10
-0.348387
 20
-0.583201
 11
-0.343785
 21
-0.585691
  0
LINE
  8
0
 10
-0.343785
 20
-0.585691
 11
-0.339365
 21
-0.588497
  0
LINE
  8
0
 10
-0.339365
 20
-0.588497
 11
-0.334724
 21
-0.590916
  0
LINE
  8
0
 10
-0.334724
 20
-0.590916
 11
-0.330259
 21
-0.593655
  0
LINE
  8
0
 10
-0.330259
 20
-0.593655
 11
-0.325585
 21
-0.596
  0
LINE
  8
0
 10
-0.325585
 20
-0.596
 11
-0.321082
 21
-0.598668
  0
LINE
  8
0
 10
-0.321082
 20
-0.598668
 11
-0.316368
 21
-0.600943
  0
LINE
  8
0
 10
-0.316368
 20
-0.600943
 11
-0.311822
 21
-0.603543
  0
LINE
  8
0
 10
-0.311822
 20
-0.603543
 11
-0.307077
 21
-0.605744
  0
LINE
  8
0
 10
-0.307077
 20
-0.605744
 11
-0.300459
 21
-0.609394
  0
LINE
  8
0
 10
-0.300459
 20
-0.609394
 11
-0.294113
 21
-0.613496
  0
LINE
  8
0
 10
-0.294113
 20
-0.613496
 11
-0.288069
 21
-0.618033
  0
LINE
  8
0
 10
-0.288069
 20
-0.618033
 11
-0.282355
 21
-0.622979
  0
LINE
  8
0
 10
-0.282355
 20
-0.622979
 11
-0.277001
 21
-0.628311
  0
LINE
  8
0
 10
-0.277001
 20
-0.628311
 11
-0.272031
 21
-0.634004
  0
LINE
  8
0
 10
-0.272031
 20
-0.634004
 11
-0.267471
 21
-0.64003
  0
LINE
  8
0
 10
-0.267471
 20
-0.64003
 11
-0.263343
 21
-0.646359
  0
LINE
  8
0
 10
-0.263343
 20
-0.646359
 11
-0.259665
 21
-0.652961
  0
LINE
  8
0
 10
-0.259665
 20
-0.652961
 11
-0.256457
 21
-0.659804
  0
LINE
  8
0
 10
-0.256457
 20
-0.659804
 11
-0.253734
 21
-0.666853
  0
LINE
  8
0
 10
-0.253734
 20
-0.666853
 11
-0.25151
 21
-0.674076
  0
LINE
  8
0
 10
-0.25151
 20
-0.674076
 11
-0.249795
 21
-0.681435
  0
LINE
  8
0
 10
-0.249795
 20
-0.681435
 11
-0.248598
 21
-0.688896
  0
LINE
  8
0
 10
-0.248598
 20
-0.688896
 11
-0.247923
 21
-0.696424
  0
LINE
  8
0
 10
-0.247923
 20
-0.696424
 11
-0.247776
 21
-0.703979
  0
LINE
  8
0
 10
-0.247776
 20
-0.703979
 11
-0.248156
 21
-0.711527
  0
LINE
  8
0
 10
-0.248156
 20
-0.711527
 11
-0.249062
 21
-0.719029
  0
LINE
  8
0
 10
-0.249062
 20
-0.719029
 11
-0.250489
 21
-0.726451
  0
LINE
  8
0
 10
-0.250489
 20
-0.726451
 11
-0.25243
 21
-0.733754
  0
LINE
  8
0
 10
-0.25243
 20
-0.733754
 11
-0.254875
 21
-0.740904
  0
LINE
  8
0
 10
-0.254875
 20
-0.740904
 11
-0.257813
 21
-0.747866
  0
LINE
  8
0
 10
-0.257813
 20
-0.747866
 11
-0.26123
 21
-0.754606
  0
LINE
  8
0
 10
-0.26123
 20
-0.754606
 11
-0.265109
 21
-0.761092
  0
LINE
  8
0
 10
-0.265109
 20
-0.761092
 11
-0.269431
 21
-0.767291
  0
LINE
  8
0
 10
-0.269431
 20
-0.767291
 11
-0.274175
 21
-0.773174
  0
LINE
  8
0
 10
-0.274175
 20
-0.773174
 11
-0.279317
 21
-0.778711
  0
LINE
  8
0
 10
-0.279317
 20
-0.778711
 11
-0.284834
 21
-0.783876
  0
LINE
  8
0
 10
-0.284834
 20
-0.783876
 11
-0.290697
 21
-0.788644
  0
LINE
  8
0
 10
-0.290697
 20
-0.788644
 11
-0.296878
 21
-0.792991
  0
LINE
  8
0
 10
-0.296878
 20
-0.792991
 11
-0.303348
 21
-0.796897
  0
LINE
  8
0
 10
-0.303348
 20
-0.796897
 11
-0.310074
 21
-0.800342
  0
LINE
  8
0
 10
-0.310074
 20
-0.800342
 11
-0.317024
 21
-0.803309
  0
LINE
  8
0
 10
-0.317024
 20
-0.803309
 11
-0.324164
 21
-0.805784
  0
LINE
  8
0
 10
-0.324164
 20
-0.805784
 11
-0.331459
 21
-0.807755
  0
LINE
  8
0
 10
-0.331459
 20
-0.807755
 11
-0.338875
 21
-0.809211
  0
LINE
  8
0
 10
-0.338875
 20
-0.809211
 11
-0.346373
 21
-0.810147
  0
LINE
  8
0
 10
-0.346373
 20
-0.810147
 11
-0.353919
 21
-0.810559
  0
LINE
  8
0
 10
-0.353919
 20
-0.810559
 11
-0.361476
 21
-0.810442
  0
LINE
  8
0
 10
1.91114
 20
-0.580492
 11
1.90499
 21
-0.579846
  0
LINE
  8
0
 10
1.90499
 20
-0.579846
 11
1.89891
 21
-0.578772
  0
LINE
  8
0
 10
1.89891
 20
-0.578772
 11
1.89291
 21
-0.577277
  0
LINE
  8
0
 10
1.89291
 20
-0.577277
 11
1.88703
 21
-0.575366
  0
LINE
  8
0
 10
1.88703
 20
-0.575366
 11
1.88129
 21
-0.57305
  0
LINE
  8
0
 10
1.88129
 20
-0.57305
 11
1.87574
 21
-0.570339
  0
LINE
  8
0
 10
1.87574
 20
-0.570339
 11
1.87038
 21
-0.567248
  0
LINE
  8
0
 10
1.87038
 20
-0.567248
 11
1.86526
 21
-0.563791
  0
LINE
  8
0
 10
1.86526
 20
-0.563791
 11
1.86038
 21
-0.559984
  0
LINE
  8
0
 10
1.86038
 20
-0.559984
 11
1.85579
 21
-0.555846
  0
LINE
  8
0
 10
1.85579
 20
-0.555846
 11
1.85149
 21
-0.551399
  0
LINE
  8
0
 10
1.85149
 20
-0.551399
 11
1.84752
 21
-0.546662
  0
LINE
  8
0
 10
1.84752
 20
-0.546662
 11
1.84388
 21
-0.541661
  0
LINE
  8
0
 10
1.84388
 20
-0.541661
 11
1.84061
 21
-0.536417
  0
LINE
  8
0
 10
1.84061
 20
-0.536417
 11
1.83771
 21
-0.530958
  0
LINE
  8
0
 10
1.83771
 20
-0.530958
 11
1.83519
 21
-0.525309
  0
LINE
  8
0
 10
1.83519
 20
-0.525309
 11
1.83308
 21
-0.519499
  0
LINE
  8
0
 10
1.83308
 20
-0.519499
 11
1.83137
 21
-0.513556
  0
LINE
  8
0
 10
1.83137
 20
-0.513556
 11
1.83009
 21
-0.507508
  0
LINE
  8
0
 10
1.83009
 20
-0.507508
 11
1.82923
 21
-0.501385
  0
LINE
  8
0
 10
1.82923
 20
-0.501385
 11
1.82879
 21
-0.495217
  0
LINE
  8
0
 10
1.82879
 20
-0.495217
 11
1.82879
 21
-0.489034
  0
LINE
  8
0
 10
1.82879
 20
-0.489034
 11
1.82923
 21
-0.482866
  0
LINE
  8
0
 10
1.82923
 20
-0.482866
 11
1.83009
 21
-0.476743
  0
LINE
  8
0
 10
1.83009
 20
-0.476743
 11
1.83137
 21
-0.470696
  0
LINE
  8
0
 10
1.83137
 20
-0.470696
 11
1.83308
 21
-0.464752
  0
LINE
  8
0
 10
1.83308
 20
-0.464752
 11
1.83519
 21
-0.458942
  0
LINE
  8
0
 10
1.83519
 20
-0.458942
 11
1.83771
 21
-0.453294
  0
LINE
  8
0
 10
1.83771
 20
-0.453294
 11
1.84061
 21
-0.447835
  0
LINE
  8
0
 10
1.84061
 20
-0.447835
 11
1.84388
 21
-0.442591
  0
LINE
  8
0
 10
1.84388
 20
-0.442591
 11
1.84752
 21
-0.437589
  0
LINE
  8
0
 10
1.84752
 20
-0.437589
 11
1.85149
 21
-0.432852
  0
LINE
  8
0
 10
1.85149
 20
-0.432852
 11
1.85579
 21
-0.428405
  0
LINE
  8
0
 10
1.85579
 20
-0.428405
 11
1.86038
 21
-0.424268
  0
LINE
  8
0
 10
1.86038
 20
-0.424268
 11
1.86526
 21
-0.420461
  0
LINE
  8
0
 10
1.86526
 20
-0.420461
 11
1.87038
 21
-0.417003
  0
LINE
  8
0
 10
1.87038
 20
-0.417003
 11
1.87574
 21
-0.413912
  0
LINE
  8
0
 10
1.87574
 20
-0.413912
 11
1.88129
 21
-0.411202
  0
LINE
  8
0
 10
1.88129
 20
-0.411202
 11
1.88703
 21
-0.408885
  0
LINE
  8
0
 10
1.88703
 20
-0.408885
 11
1.89291
 21
-0.406975
  0
LINE
  8
0
 10
1.89291
 20
-0.406975
 11
1.89891
 21
-0.405479
  0
LINE
  8
0
 10
1.89891
 20
-0.405479
 11
1.90499
 21
-0.404405
  0
LINE
  8
0
 10
1.90499
 20
-0.404405
 11
1.91114
 21
-0.403759
  0
LINE
  8
0
 10
1.91114
 20
-0.403759
 11
1.91732
 21
-0.403543
  0
LINE
  8
0
 10
1.91732
 20
-0.403543
 11
1.9235
 21
-0.403759
  0
LINE
  8
0
 10
1.9235
 20
-0.403759
 11
1.92965
 21
-0.404405
  0
LINE
  8
0
 10
1.92965
 20
-0.404405
 11
1.93574
 21
-0.405479
  0
LINE
  8
0
 10
1.93574
 20
-0.405479
 11
1.94174
 21
-0.406975
  0
LINE
  8
0
 10
1.94174
 20
-0.406975
 11
1.94762
 21
-0.408885
  0
LINE
  8
0
 10
1.94762
 20
-0.408885
 11
1.95335
 21
-0.411202
  0
LINE
  8
0
 10
1.95335
 20
-0.411202
 11
1.95891
 21
-0.413912
  0
LINE
  8
0
 10
1.95891
 20
-0.413912
 11
1.96426
 21
-0.417003
  0
LINE
  8
0
 10
1.96426
 20
-0.417003
 11
1.96939
 21
-0.420461
  0
LINE
  8
0
 10
1.96939
 20
-0.420461
 11
1.97426
 21
-0.424268
  0
LINE
  8
0
 10
1.97426
 20
-0.424268
 11
1.97886
 21
-0.428405
  0
LINE
  8
0
 10
1.97886
 20
-0.428405
 11
1.98315
 21
-0.432852
  0
LINE
  8
0
 10
1.98315
 20
-0.432852
 11
1.98713
 21
-0.437589
  0
LINE
  8
0
 10
1.98713
 20
-0.437589
 11
1.99076
 21
-0.442591
  0
LINE
  8
0
 10
1.99076
 20
-0.442591
 11
1.99404
 21
-0.447835
  0
LINE
  8
0
 10
1.99404
 20
-0.447835
 11
1.99694
 21
-0.453294
  0
LINE
  8
0
 10
1.99694
 20
-0.453294
 11
1.99945
 21
-0.458942
  0
LINE
  8
0
 10
1.99945
 20
-0.458942
 11
2.00157
 21
-0.464752
  0
LINE
  8
0
 10
2.00157
 20
-0.464752
 11
2.00327
 21
-0.470696
  0
LINE
  8
0
 10
2.00327
 20
-0.470696
 11
2.00456
 21
-0.476743
  0
LINE
  8
0
 10
2.00456
 20
-0.476743
 11
2.00542
 21
-0.482866
  0
LINE
  8
0
 10
2.00542
 20
-0.482866
 11
2.00585
 21
-0.489034
  0
LINE
  8
0
 10
2.00585
 20
-0.489034
 11
2.00585
 21
-0.495217
  0
LINE
  8
0
 10
2.00585
 20
-0.495217
 11
2.00542
 21
-0.501385
  0
LINE
  8
0
 10
2.00542
 20
-0.501385
 11
2.00456
 21
-0.507508
  0
LINE
  8
0
 10
2.00456
 20
-0.507508
 11
2.00327
 21
-0.513556
  0
LINE
  8
0
 10
2.00327
 20
-0.513556
 11
2.00157
 21
-0.519499
  0
LINE
  8
0
 10
2.00157
 20
-0.519499
 11
1.99945
 21
-0.525309
  0
LINE
  8
0
 10
1.99945
 20
-0.525309
 11
1.99694
 21
-0.530958
  0
LINE
  8
0
 10
1.99694
 20
-0.530958
 11
1.99404
 21
-0.536417
  0
LINE
  8
0
 10
1.99404
 20
-0.536417
 11
1.99076
 21
-0.541661
  0
LINE
  8
0
 10
1.99076
 20
-0.541661
 11
1.98713
 21
-0.546662
  0
LINE
  8
0
 10
1.98713
 20
-0.546662
 11
1.98315
 21
-0.551399
  0
LINE
  8
0
 10
1.98315
 20
-0.551399
 11
1.97886
 21
-0.555846
  0
LINE
  8
0
 10
1.97886
 20
-0.555846
 11
1.97426
 21
-0.559984
  0
LINE
  8
0
 10
1.97426
 20
-0.559984
 11
1.96939
 21
-0.563791
  0
LINE
  8
0
 10
1.96939
 20
-0.563791
 11
1.96426
 21
-0.567248
  0
LINE
  8
0
 10
1.96426
 20
-0.567248
 11
1.95891
 21
-0.570339
  0
LINE
  8
0
 10
1.95891
 20
-0.570339
 11
1.95335
 21
-0.57305
  0
LINE
  8
0
 10
1.95335
 20
-0.57305
 11
1.94762
 21
-0.575366
  0
LINE
  8
0
 10
1.94762
 20
-0.575366
 11
1.94174
 21
-0.577277
  0
LINE
  8
0
 10
1.94174
 20
-0.577277
 11
1.93574
 21
-0.578772
  0
LINE
  8
0
 10
1.93574
 20
-0.578772
 11
1.92965
 21
-0.579846
  0
LINE
  8
0
 10
1.92965
 20
-0.579846
 11
1.9235
 21
-0.580492
  0
LINE
  8
0
 10
1.9235
 20
-0.580492
 11
1.91732
 21
-0.580709
  0
LINE
  8
0
 10
1.91732
 20
-0.580709
 11
1.91114
 21
-0.580492
  0
LINE
  8
0
 10
0.0473743
 20
-0.893487
 11
0.0398585
 21
-0.892697
  0
LINE
  8
0
 10
0.0398585
 20
-0.892697
 11
0.0324159
 21
-0.891384
  0
LINE
  8
0
 10
0.0324159
 20
-0.891384
 11
0.0250833
 21
-0.889556
  0
LINE
  8
0
 10
0.0250833
 20
-0.889556
 11
0.017896
 21
-0.887221
  0
LINE
  8
0
 10
0.017896
 20
-0.887221
 11
0.0108896
 21
-0.88439
  0
LINE
  8
0
 10
0.0108896
 20
-0.88439
 11
0.00409704
 21
-0.881077
  0
LINE
  8
0
 10
0.00409704
 20
-0.881077
 11
-0.00244621
 21
-0.877299
  0
LINE
  8
0
 10
-0.00244621
 20
-0.877299
 11
-0.00871133
 21
-0.873074
  0
LINE
  8
0
 10
-0.00871133
 20
-0.873074
 11
-0.0146665
 21
-0.868421
  0
LINE
  8
0
 10
-0.0146665
 20
-0.868421
 11
-0.0202822
 21
-0.863364
  0
LINE
  8
0
 10
-0.0202822
 20
-0.863364
 11
-0.025532
 21
-0.857928
  0
LINE
  8
0
 10
-0.025532
 20
-0.857928
 11
-0.030389
 21
-0.852139
  0
LINE
  8
0
 10
-0.030389
 20
-0.852139
 11
-0.0348315
 21
-0.846025
  0
LINE
  8
0
 10
-0.0348315
 20
-0.846025
 11
-0.0388354
 21
-0.839617
  0
LINE
  8
0
 10
-0.0388354
 20
-0.839617
 11
-0.042384
 21
-0.832944
  0
LINE
  8
0
 10
-0.042384
 20
-0.832944
 11
-0.0454574
 21
-0.826041
  0
LINE
  8
0
 10
-0.0454574
 20
-0.826041
 11
-0.0480418
 21
-0.818939
  0
LINE
  8
0
 10
-0.0480418
 20
-0.818939
 11
-0.0501251
 21
-0.811675
  0
LINE
  8
0
 10
-0.0501251
 20
-0.811675
 11
-0.0516961
 21
-0.804284
  0
LINE
  8
0
 10
-0.0516961
 20
-0.804284
 11
-0.052748
 21
-0.7968
  0
LINE
  8
0
 10
-0.052748
 20
-0.7968
 11
-0.0532748
 21
-0.789261
  0
LINE
  8
0
 10
-0.0532748
 20
-0.789261
 11
-0.0532754
 21
-0.781704
  0
LINE
  8
0
 10
-0.0532754
 20
-0.781704
 11
-0.052748
 21
-0.774166
  0
LINE
  8
0
 10
-0.052748
 20
-0.774166
 11
-0.0516961
 21
-0.766682
  0
LINE
  8
0
 10
-0.0516961
 20
-0.766682
 11
-0.0501251
 21
-0.759291
  0
LINE
  8
0
 10
-0.0501251
 20
-0.759291
 11
-0.0480418
 21
-0.752026
  0
LINE
  8
0
 10
-0.0480418
 20
-0.752026
 11
-0.0454568
 21
-0.744925
  0
LINE
  8
0
 10
-0.0454568
 20
-0.744925
 11
-0.042384
 21
-0.738021
  0
LINE
  8
0
 10
-0.042384
 20
-0.738021
 11
-0.038836
 21
-0.731349
  0
LINE
  8
0
 10
-0.038836
 20
-0.731349
 11
-0.0348315
 21
-0.724941
  0
LINE
  8
0
 10
-0.0348315
 20
-0.724941
 11
-0.0303896
 21
-0.718827
  0
LINE
  8
0
 10
-0.0303896
 20
-0.718827
 11
-0.025532
 21
-0.713038
  0
LINE
  8
0
 10
-0.025532
 20
-0.713038
 11
-0.0202822
 21
-0.707601
  0
LINE
  8
0
 10
-0.0202822
 20
-0.707601
 11
-0.0146665
 21
-0.702545
  0
LINE
  8
0
 10
-0.0146665
 20
-0.702545
 11
-0.00871133
 21
-0.697892
  0
LINE
  8
0
 10
-0.00871133
 20
-0.697892
 11
-0.00244681
 21
-0.693666
  0
LINE
  8
0
 10
-0.00244681
 20
-0.693666
 11
0.00409765
 21
-0.689888
  0
LINE
  8
0
 10
0.00409765
 20
-0.689888
 11
0.0108896
 21
-0.686575
  0
LINE
  8
0
 10
0.0108896
 20
-0.686575
 11
0.0178966
 21
-0.683745
  0
LINE
  8
0
 10
0.0178966
 20
-0.683745
 11
0.0250833
 21
-0.681409
  0
LINE
  8
0
 10
0.0250833
 20
-0.681409
 11
0.0324165
 21
-0.679581
  0
LINE
  8
0
 10
0.0324165
 20
-0.679581
 11
0.0398585
 21
-0.678269
  0
LINE
  8
0
 10
0.0398585
 20
-0.678269
 11
0.0473737
 21
-0.677479
  0
LINE
  8
0
 10
0.0473737
 20
-0.677479
 11
0.052602
 21
-0.677297
  0
LINE
  8
0
 10
0.052602
 20
-0.677297
 11
0.0578008
 21
-0.676669
  0
LINE
  8
0
 10
0.0578008
 20
-0.676669
 11
0.0630248
 21
-0.676406
  0
LINE
  8
0
 10
0.0630248
 20
-0.676406
 11
0.068214
 21
-0.675698
  0
LINE
  8
0
 10
0.068214
 20
-0.675698
 11
0.0734362
 21
-0.675355
  0
LINE
  8
0
 10
0.0734362
 20
-0.675355
 11
0.0786116
 21
-0.674568
  0
LINE
  8
0
 10
0.0786116
 20
-0.674568
 11
0.0838236
 21
-0.674144
  0
LINE
  8
0
 10
0.0838236
 20
-0.674144
 11
0.08899
 21
-0.673277
  0
LINE
  8
0
 10
0.08899
 20
-0.673277
 11
0.094199
 21
-0.672774
  0
LINE
  8
0
 10
0.094199
 20
-0.672774
 11
0.0993479
 21
-0.671827
  0
LINE
  8
0
 10
0.0993479
 20
-0.671827
 11
0.104548
 21
-0.671243
  0
LINE
  8
0
 10
0.104548
 20
-0.671243
 11
0.109682
 21
-0.670218
  0
LINE
  8
0
 10
0.109682
 20
-0.670218
 11
0.114876
 21
-0.669553
  0
LINE
  8
0
 10
0.114876
 20
-0.669553
 11
0.119989
 21
-0.668449
  0
LINE
  8
0
 10
0.119989
 20
-0.668449
 11
0.125169
 21
-0.667705
  0
LINE
  8
0
 10
0.125169
 20
-0.667705
 11
0.130269
 21
-0.666523
  0
LINE
  8
0
 10
0.130269
 20
-0.666523
 11
0.135436
 21
-0.665698
  0
LINE
  8
0
 10
0.135436
 20
-0.665698
 11
0.140517
 21
-0.664437
  0
LINE
  8
0
 10
0.140517
 20
-0.664437
 11
0.145676
 21
-0.663533
  0
LINE
  8
0
 10
0.145676
 20
-0.663533
 11
0.150733
 21
-0.662195
  0
LINE
  8
0
 10
0.150733
 20
-0.662195
 11
0.155875
 21
-0.661211
  0
LINE
  8
0
 10
0.155875
 20
-0.661211
 11
0.160912
 21
-0.659794
  0
LINE
  8
0
 10
0.160912
 20
-0.659794
 11
0.166038
 21
-0.658733
  0
LINE
  8
0
 10
0.166038
 20
-0.658733
 11
0.171054
 21
-0.657239
  0
LINE
  8
0
 10
0.171054
 20
-0.657239
 11
0.17616
 21
-0.656098
  0
LINE
  8
0
 10
0.17616
 20
-0.656098
 11
0.181154
 21
-0.654526
  0
LINE
  8
0
 10
0.181154
 20
-0.654526
 11
0.186247
 21
-0.653307
  0
LINE
  8
0
 10
0.186247
 20
-0.653307
 11
0.191212
 21
-0.651659
  0
LINE
  8
0
 10
0.191212
 20
-0.651659
 11
0.196284
 21
-0.650361
  0
LINE
  8
0
 10
0.196284
 20
-0.650361
 11
0.201224
 21
-0.648637
  0
LINE
  8
0
 10
0.201224
 20
-0.648637
 11
0.206275
 21
-0.647262
  0
LINE
  8
0
 10
0.206275
 20
-0.647262
 11
0.21119
 21
-0.645462
  0
LINE
  8
0
 10
0.21119
 20
-0.645462
 11
0.216218
 21
-0.644009
  0
LINE
  8
0
 10
0.216218
 20
-0.644009
 11
0.221105
 21
-0.642133
  0
LINE
  8
0
 10
0.221105
 20
-0.642133
 11
0.226105
 21
-0.640604
  0
LINE
  8
0
 10
0.226105
 20
-0.640604
 11
0.230966
 21
-0.638652
  0
LINE
  8
0
 10
0.230966
 20
-0.638652
 11
0.235947
 21
-0.637045
  0
LINE
  8
0
 10
0.235947
 20
-0.637045
 11
0.240774
 21
-0.635019
  0
LINE
  8
0
 10
0.240774
 20
-0.635019
 11
0.245731
 21
-0.633335
  0
LINE
  8
0
 10
0.245731
 20
-0.633335
 11
0.250524
 21
-0.631237
  0
LINE
  8
0
 10
0.250524
 20
-0.631237
 11
0.255451
 21
-0.629478
  0
LINE
  8
0
 10
0.255451
 20
-0.629478
 11
0.260215
 21
-0.627303
  0
LINE
  8
0
 10
0.260215
 20
-0.627303
 11
0.265118
 21
-0.625467
  0
LINE
  8
0
 10
0.265118
 20
-0.625467
 11
0.269844
 21
-0.623222
  0
LINE
  8
0
 10
0.269844
 20
-0.623222
 11
0.274716
 21
-0.621311
  0
LINE
  8
0
 10
0.274716
 20
-0.621311
 11
0.27941
 21
-0.618993
  0
LINE
  8
0
 10
0.27941
 20
-0.618993
 11
0.284253
 21
-0.617008
  0
LINE
  8
0
 10
0.284253
 20
-0.617008
 11
0.288909
 21
-0.614617
  0
LINE
  8
0
 10
0.288909
 20
-0.614617
 11
0.293718
 21
-0.612557
  0
LINE
  8
0
 10
0.293718
 20
-0.612557
 11
0.298339
 21
-0.610095
  0
LINE
  8
0
 10
0.298339
 20
-0.610095
 11
0.30312
 21
-0.60796
  0
LINE
  8
0
 10
0.30312
 20
-0.60796
 11
0.307699
 21
-0.605428
  0
LINE
  8
0
 10
0.307699
 20
-0.605428
 11
0.312442
 21
-0.603223
  0
LINE
  8
0
 10
0.312442
 20
-0.603223
 11
0.316985
 21
-0.600618
  0
LINE
  8
0
 10
0.316985
 20
-0.600618
 11
0.321697
 21
-0.598337
  0
LINE
  8
0
 10
0.321697
 20
-0.598337
 11
0.326197
 21
-0.595666
  0
LINE
  8
0
 10
0.326197
 20
-0.595666
 11
0.330871
 21
-0.593314
  0
LINE
  8
0
 10
0.330871
 20
-0.593314
 11
0.335332
 21
-0.590572
  0
LINE
  8
0
 10
0.335332
 20
-0.590572
 11
0.339969
 21
-0.588148
  0
LINE
  8
0
 10
0.339969
 20
-0.588148
 11
0.344385
 21
-0.585337
  0
LINE
  8
0
 10
0.344385
 20
-0.585337
 11
0.348988
 21
-0.582842
  0
LINE
  8
0
 10
0.348988
 20
-0.582842
 11
0.353359
 21
-0.579965
  0
LINE
  8
0
 10
0.353359
 20
-0.579965
 11
0.357922
 21
-0.577399
  0
LINE
  8
0
 10
0.357922
 20
-0.577399
 11
0.362248
 21
-0.574454
  0
LINE
  8
0
 10
0.362248
 20
-0.574454
 11
0.366771
 21
-0.571818
  0
LINE
  8
0
 10
0.366771
 20
-0.571818
 11
0.371051
 21
-0.568808
  0
LINE
  8
0
 10
0.371051
 20
-0.568808
 11
0.377521
 21
-0.564903
  0
LINE
  8
0
 10
0.377521
 20
-0.564903
 11
0.384246
 21
-0.561458
  0
LINE
  8
0
 10
0.384246
 20
-0.561458
 11
0.391197
 21
-0.558492
  0
LINE
  8
0
 10
0.391197
 20
-0.558492
 11
0.398337
 21
-0.556016
  0
LINE
  8
0
 10
0.398337
 20
-0.556016
 11
0.405632
 21
-0.554045
  0
LINE
  8
0
 10
0.405632
 20
-0.554045
 11
0.413048
 21
-0.552589
  0
LINE
  8
0
 10
0.413048
 20
-0.552589
 11
0.420547
 21
-0.551652
  0
LINE
  8
0
 10
0.420547
 20
-0.551652
 11
0.428092
 21
-0.551241
  0
LINE
  8
0
 10
0.428092
 20
-0.551241
 11
0.435648
 21
-0.551357
  0
LINE
  8
0
 10
0.435648
 20
-0.551357
 11
0.443178
 21
-0.552001
  0
LINE
  8
0
 10
0.443178
 20
-0.552001
 11
0.450644
 21
-0.553167
  0
LINE
  8
0
 10
0.450644
 20
-0.553167
 11
0.458011
 21
-0.554852
  0
LINE
  8
0
 10
0.458011
 20
-0.554852
 11
0.465242
 21
-0.557047
  0
LINE
  8
0
 10
0.465242
 20
-0.557047
 11
0.472303
 21
-0.55974
  0
LINE
  8
0
 10
0.472303
 20
-0.55974
 11
0.479158
 21
-0.56292
  0
LINE
  8
0
 10
0.479158
 20
-0.56292
 11
0.485776
 21
-0.56657
  0
LINE
  8
0
 10
0.485776
 20
-0.56657
 11
0.492122
 21
-0.570673
  0
LINE
  8
0
 10
0.492122
 20
-0.570673
 11
0.498166
 21
-0.575209
  0
LINE
  8
0
 10
0.498166
 20
-0.575209
 11
0.50388
 21
-0.580155
  0
LINE
  8
0
 10
0.50388
 20
-0.580155
 11
0.509234
 21
-0.585487
  0
LINE
  8
0
 10
0.509234
 20
-0.585487
 11
0.514204
 21
-0.591181
  0
LINE
  8
0
 10
0.514204
 20
-0.591181
 11
0.518764
 21
-0.597207
  0
LINE
  8
0
 10
0.518764
 20
-0.597207
 11
0.522893
 21
-0.603536
  0
LINE
  8
0
 10
0.522893
 20
-0.603536
 11
0.526571
 21
-0.610138
  0
LINE
  8
0
 10
0.526571
 20
-0.610138
 11
0.529778
 21
-0.61698
  0
LINE
  8
0
 10
0.529778
 20
-0.61698
 11
0.5325
 21
-0.624029
  0
LINE
  8
0
 10
0.5325
 20
-0.624029
 11
0.534725
 21
-0.631251
  0
LINE
  8
0
 10
0.534725
 20
-0.631251
 11
0.53644
 21
-0.638611
  0
LINE
  8
0
 10
0.53644
 20
-0.638611
 11
0.537637
 21
-0.646073
  0
LINE
  8
0
 10
0.537637
 20
-0.646073
 11
0.538311
 21
-0.6536
  0
LINE
  8
0
 10
0.538311
 20
-0.6536
 11
0.538459
 21
-0.661156
  0
LINE
  8
0
 10
0.538459
 20
-0.661156
 11
0.538079
 21
-0.668703
  0
LINE
  8
0
 10
0.538079
 20
-0.668703
 11
0.537174
 21
-0.676205
  0
LINE
  8
0
 10
0.537174
 20
-0.676205
 11
0.535746
 21
-0.683627
  0
LINE
  8
0
 10
0.535746
 20
-0.683627
 11
0.533805
 21
-0.69093
  0
LINE
  8
0
 10
0.533805
 20
-0.69093
 11
0.53136
 21
-0.69808
  0
LINE
  8
0
 10
0.53136
 20
-0.69808
 11
0.528421
 21
-0.705043
  0
LINE
  8
0
 10
0.528421
 20
-0.705043
 11
0.525004
 21
-0.711782
  0
LINE
  8
0
 10
0.525004
 20
-0.711782
 11
0.521126
 21
-0.718268
  0
LINE
  8
0
 10
0.521126
 20
-0.718268
 11
0.516804
 21
-0.724467
  0
LINE
  8
0
 10
0.516804
 20
-0.724467
 11
0.51206
 21
-0.730351
  0
LINE
  8
0
 10
0.51206
 20
-0.730351
 11
0.506918
 21
-0.735888
  0
LINE
  8
0
 10
0.506918
 20
-0.735888
 11
0.501401
 21
-0.741053
  0
LINE
  8
0
 10
0.501401
 20
-0.741053
 11
0.495539
 21
-0.74582
  0
LINE
  8
0
 10
0.495539
 20
-0.74582
 11
0.489358
 21
-0.750168
  0
LINE
  8
0
 10
0.489358
 20
-0.750168
 11
0.483454
 21
-0.753731
  0
LINE
  8
0
 10
0.483454
 20
-0.753731
 11
0.477747
 21
-0.757614
  0
LINE
  8
0
 10
0.477747
 20
-0.757614
 11
0.471793
 21
-0.761084
  0
LINE
  8
0
 10
0.471793
 20
-0.761084
 11
0.466024
 21
-0.764882
  0
LINE
  8
0
 10
0.466024
 20
-0.764882
 11
0.46001
 21
-0.768263
  0
LINE
  8
0
 10
0.46001
 20
-0.768263
 11
0.45419
 21
-0.771967
  0
LINE
  8
0
 10
0.45419
 20
-0.771967
 11
0.448121
 21
-0.775259
  0
LINE
  8
0
 10
0.448121
 20
-0.775259
 11
0.442248
 21
-0.77887
  0
LINE
  8
0
 10
0.442248
 20
-0.77887
 11
0.436132
 21
-0.782066
  0
LINE
  8
0
 10
0.436132
 20
-0.782066
 11
0.430202
 21
-0.785588
  0
LINE
  8
0
 10
0.430202
 20
-0.785588
 11
0.424041
 21
-0.788687
  0
LINE
  8
0
 10
0.424041
 20
-0.788687
 11
0.418053
 21
-0.79212
  0
LINE
  8
0
 10
0.418053
 20
-0.79212
 11
0.411841
 21
-0.795126
  0
LINE
  8
0
 10
0.411841
 20
-0.795126
 11
0.405806
 21
-0.798464
  0
LINE
  8
0
 10
0.405806
 20
-0.798464
 11
0.399551
 21
-0.801372
  0
LINE
  8
0
 10
0.399551
 20
-0.801372
 11
0.393462
 21
-0.804618
  0
LINE
  8
0
 10
0.393462
 20
-0.804618
 11
0.387162
 21
-0.80743
  0
LINE
  8
0
 10
0.387162
 20
-0.80743
 11
0.381025
 21
-0.810582
  0
LINE
  8
0
 10
0.381025
 20
-0.810582
 11
0.374677
 21
-0.813299
  0
LINE
  8
0
 10
0.374677
 20
-0.813299
 11
0.368496
 21
-0.816353
  0
LINE
  8
0
 10
0.368496
 20
-0.816353
 11
0.362116
 21
-0.818969
  0
LINE
  8
0
 10
0.362116
 20
-0.818969
 11
0.355881
 21
-0.821931
  0
LINE
  8
0
 10
0.355881
 20
-0.821931
 11
0.349461
 21
-0.824449
  0
LINE
  8
0
 10
0.349461
 20
-0.824449
 11
0.343182
 21
-0.827314
  0
LINE
  8
0
 10
0.343182
 20
-0.827314
 11
0.336722
 21
-0.829733
  0
LINE
  8
0
 10
0.336722
 20
-0.829733
 11
0.330401
 21
-0.832501
  0
LINE
  8
0
 10
0.330401
 20
-0.832501
 11
0.323905
 21
-0.83482
  0
LINE
  8
0
 10
0.323905
 20
-0.83482
 11
0.317542
 21
-0.837489
  0
LINE
  8
0
 10
0.317542
 20
-0.837489
 11
0.311014
 21
-0.839707
  0
LINE
  8
0
 10
0.311014
 20
-0.839707
 11
0.304608
 21
-0.84228
  0
LINE
  8
0
 10
0.304608
 20
-0.84228
 11
0.298049
 21
-0.844396
  0
LINE
  8
0
 10
0.298049
 20
-0.844396
 11
0.291601
 21
-0.846871
  0
LINE
  8
0
 10
0.291601
 20
-0.846871
 11
0.285005
 21
-0.848888
  0
LINE
  8
0
 10
0.285005
 20
-0.848888
 11
0.278525
 21
-0.851261
  0
LINE
  8
0
 10
0.278525
 20
-0.851261
 11
0.271894
 21
-0.853177
  0
LINE
  8
0
 10
0.271894
 20
-0.853177
 11
0.265383
 21
-0.855449
  0
LINE
  8
0
 10
0.265383
 20
-0.855449
 11
0.258723
 21
-0.857263
  0
LINE
  8
0
 10
0.258723
 20
-0.857263
 11
0.252179
 21
-0.859435
  0
LINE
  8
0
 10
0.252179
 20
-0.859435
 11
0.245498
 21
-0.861144
  0
LINE
  8
0
 10
0.245498
 20
-0.861144
 11
0.238914
 21
-0.863216
  0
LINE
  8
0
 10
0.238914
 20
-0.863216
 11
0.232209
 21
-0.864822
  0
LINE
  8
0
 10
0.232209
 20
-0.864822
 11
0.225593
 21
-0.866793
  0
LINE
  8
0
 10
0.225593
 20
-0.866793
 11
0.218855
 21
-0.868298
  0
LINE
  8
0
 10
0.218855
 20
-0.868298
 11
0.212217
 21
-0.870164
  0
LINE
  8
0
 10
0.212217
 20
-0.870164
 11
0.205459
 21
-0.871565
  0
LINE
  8
0
 10
0.205459
 20
-0.871565
 11
0.198793
 21
-0.873329
  0
LINE
  8
0
 10
0.198793
 20
-0.873329
 11
0.192013
 21
-0.874626
  0
LINE
  8
0
 10
0.192013
 20
-0.874626
 11
0.18532
 21
-0.876287
  0
LINE
  8
0
 10
0.18532
 20
-0.876287
 11
0.178524
 21
-0.877478
  0
LINE
  8
0
 10
0.178524
 20
-0.877478
 11
0.171804
 21
-0.879037
  0
LINE
  8
0
 10
0.171804
 20
-0.879037
 11
0.164991
 21
-0.880123
  0
LINE
  8
0
 10
0.164991
 20
-0.880123
 11
0.158247
 21
-0.881578
  0
LINE
  8
0
 10
0.158247
 20
-0.881578
 11
0.151421
 21
-0.882559
  0
LINE
  8
0
 10
0.151421
 20
-0.882559
 11
0.144653
 21
-0.88391
  0
LINE
  8
0
 10
0.144653
 20
-0.88391
 11
0.137806
 21
-0.884787
  0
LINE
  8
0
 10
0.137806
 20
-0.884787
 11
0.131024
 21
-0.886033
  0
LINE
  8
0
 10
0.131024
 20
-0.886033
 11
0.124171
 21
-0.886803
  0
LINE
  8
0
 10
0.124171
 20
-0.886803
 11
0.117364
 21
-0.887946
  0
LINE
  8
0
 10
0.117364
 20
-0.887946
 11
0.110494
 21
-0.888611
  0
LINE
  8
0
 10
0.110494
 20
-0.888611
 11
0.103676
 21
-0.889648
  0
LINE
  8
0
 10
0.103676
 20
-0.889648
 11
0.096799
 21
-0.890207
  0
LINE
  8
0
 10
0.096799
 20
-0.890207
 11
0.0899638
 21
-0.891139
  0
LINE
  8
0
 10
0.0899638
 20
-0.891139
 11
0.0830829
 21
-0.891591
  0
LINE
  8
0
 10
0.0830829
 20
-0.891591
 11
0.0762303
 21
-0.892419
  0
LINE
  8
0
 10
0.0762303
 20
-0.892419
 11
0.069341
 21
-0.892766
  0
LINE
  8
0
 10
0.069341
 20
-0.892766
 11
0.0624781
 21
-0.893487
  0
LINE
  8
0
 10
0.0624781
 20
-0.893487
 11
0.0549262
 21
-0.893751
  0
LINE
  8
0
 10
0.0549262
 20
-0.893751
 11
0.0473743
 21
-0.893487
  0
ENDSEC
  0
SECTION
  2
OBJECTS
  0
DICTIONARY
  0
ENDSEC
  0
EOF
