  0
SECTION
  2
BLOCKS
  0
ENDSEC
  0
SECTION
  2
ENTITIES
  0
LINE
  8
0
 10
2.71773
 20
-25.8576
 11
4.51485
 21
-25.605
  0
LINE
  8
0
 10
4.51485
 20
-25.605
 11
51.652
 21
-16.7417
  0
LINE
  8
0
 10
51.652
 20
-16.7417
 11
52.8127
 21
-16.495
  0
LINE
  8
0
 10
52.8127
 20
-16.495
 11
53.9533
 21
-16.168
  0
LINE
  8
0
 10
53.9533
 20
-16.168
 11
55.0683
 21
-15.7621
  0
LINE
  8
0
 10
55.0683
 20
-15.7621
 11
56.1523
 21
-15.2795
  0
LINE
  8
0
 10
56.1523
 20
-15.2795
 11
57.2
 21
-14.7224
  0
LINE
  8
0
 10
57.2
 20
-14.7224
 11
58.2063
 21
-14.0936
  0
LINE
  8
0
 10
58.2063
 20
-14.0936
 11
59.1662
 21
-13.3962
  0
LINE
  8
0
 10
59.1662
 20
-13.3962
 11
60.0752
 21
-12.6335
  0
LINE
  8
0
 10
60.0752
 20
-12.6335
 11
60.9288
 21
-11.8092
  0
LINE
  8
0
 10
60.9288
 20
-11.8092
 11
61.7227
 21
-10.9274
  0
LINE
  8
0
 10
61.7227
 20
-10.9274
 11
62.4533
 21
-9.99234
  0
LINE
  8
0
 10
62.4533
 20
-9.99234
 11
63.1168
 21
-9.00862
  0
LINE
  8
0
 10
63.1168
 20
-9.00862
 11
63.7101
 21
-7.981
  0
LINE
  8
0
 10
63.7101
 20
-7.981
 11
64.2303
 21
-6.91452
  0
LINE
  8
0
 10
64.2303
 20
-6.91452
 11
64.6748
 21
-5.81433
  0
LINE
  8
0
 10
64.6748
 20
-5.81433
 11
65.0414
 21
-4.68582
  0
LINE
  8
0
 10
65.0414
 20
-4.68582
 11
65.3285
 21
-3.53448
  0
LINE
  8
0
 10
65.3285
 20
-3.53448
 11
65.5345
 21
-2.36594
  0
LINE
  8
0
 10
65.5345
 20
-2.36594
 11
65.6586
 21
-1.18585
  0
LINE
  8
0
 10
65.6586
 20
-1.18585
 11
65.7
 21
0
  0
LINE
  8
0
 10
65.7
 20
0
 11
65.6586
 21
1.18585
  0
LINE
  8
0
 10
65.6586
 20
1.18585
 11
65.5345
 21
2.36594
  0
LINE
  8
0
 10
65.5345
 20
2.36594
 11
65.3285
 21
3.53448
  0
LINE
  8
0
 10
65.3285
 20
3.53448
 11
65.0414
 21
4.68582
  0
LINE
  8
0
 10
65.0414
 20
4.68582
 11
64.6748
 21
5.81433
  0
LINE
  8
0
 10
64.6748
 20
5.81433
 11
64.2303
 21
6.91452
  0
LINE
  8
0
 10
64.2303
 20
6.91452
 11
63.7101
 21
7.981
  0
LINE
  8
0
 10
63.7101
 20
7.981
 11
63.1168
 21
9.00862
  0
LINE
  8
0
 10
63.1168
 20
9.00862
 11
62.4533
 21
9.99234
  0
LINE
  8
0
 10
62.4533
 20
9.99234
 11
61.7227
 21
10.9274
  0
LINE
  8
0
 10
61.7227
 20
10.9274
 11
60.9288
 21
11.8092
  0
LINE
  8
0
 10
60.9288
 20
11.8092
 11
60.0752
 21
12.6335
  0
LINE
  8
0
 10
60.0752
 20
12.6335
 11
59.1662
 21
13.3962
  0
LINE
  8
0
 10
59.1662
 20
13.3962
 11
58.2063
 21
14.0936
  0
LINE
  8
0
 10
58.2063
 20
14.0936
 11
57.2
 21
14.7224
  0
LINE
  8
0
 10
57.2
 20
14.7224
 11
56.1523
 21
15.2795
  0
LINE
  8
0
 10
56.1523
 20
15.2795
 11
55.0683
 21
15.7621
  0
LINE
  8
0
 10
55.0683
 20
15.7621
 11
53.9533
 21
16.168
  0
LINE
  8
0
 10
53.9533
 20
16.168
 11
52.8127
 21
16.495
  0
LINE
  8
0
 10
52.8127
 20
16.495
 11
51.652
 21
16.7417
  0
LINE
  8
0
 10
51.652
 20
16.7417
 11
4.51485
 21
25.605
  0
LINE
  8
0
 10
4.51485
 20
25.605
 11
2.71773
 21
25.8576
  0
LINE
  8
0
 10
2.71773
 20
25.8576
 11
0.907379
 21
25.9842
  0
LINE
  8
0
 10
0.907379
 20
25.9842
 11
-0.907379
 21
25.9842
  0
LINE
  8
0
 10
-0.907379
 20
25.9842
 11
-2.71773
 21
25.8576
  0
LINE
  8
0
 10
-2.71773
 20
25.8576
 11
-4.51485
 21
25.605
  0
LINE
  8
0
 10
-4.51485
 20
25.605
 11
-6.28996
 21
25.2277
  0
LINE
  8
0
 10
-6.28996
 20
25.2277
 11
-8.03444
 21
24.7275
  0
LINE
  8
0
 10
-8.03444
 20
24.7275
 11
-9.73976
 21
24.1068
  0
LINE
  8
0
 10
-9.73976
 20
24.1068
 11
-11.3976
 21
23.3686
  0
LINE
  8
0
 10
-11.3976
 20
23.3686
 11
-13
 21
22.5166
  0
LINE
  8
0
 10
-13
 20
22.5166
 11
-14.539
 21
21.555
  0
LINE
  8
0
 10
-14.539
 20
21.555
 11
-16.0072
 21
20.4883
  0
LINE
  8
0
 10
-16.0072
 20
20.4883
 11
-17.3974
 21
19.3218
  0
LINE
  8
0
 10
-17.3974
 20
19.3218
 11
-18.7028
 21
18.0611
  0
LINE
  8
0
 10
-18.7028
 20
18.0611
 11
-19.9171
 21
16.7125
  0
LINE
  8
0
 10
-19.9171
 20
16.7125
 11
-21.0344
 21
15.2824
  0
LINE
  8
0
 10
-21.0344
 20
15.2824
 11
-22.0492
 21
13.7779
  0
LINE
  8
0
 10
-22.0492
 20
13.7779
 11
-22.9566
 21
12.2063
  0
LINE
  8
0
 10
-22.9566
 20
12.2063
 11
-23.7522
 21
10.5751
  0
LINE
  8
0
 10
-23.7522
 20
10.5751
 11
-24.432
 21
8.89252
  0
LINE
  8
0
 10
-24.432
 20
8.89252
 11
-24.9928
 21
7.16656
  0
LINE
  8
0
 10
-24.9928
 20
7.16656
 11
-25.4318
 21
5.4057
  0
LINE
  8
0
 10
-25.4318
 20
5.4057
 11
-25.747
 21
3.6185
  0
LINE
  8
0
 10
-25.747
 20
3.6185
 11
-25.9367
 21
1.81366
  0
LINE
  8
0
 10
-25.9367
 20
1.81366
 11
-26
 21
0
  0
LINE
  8
0
 10
-26
 20
0
 11
-25.9367
 21
-1.81366
  0
LINE
  8
0
 10
-25.9367
 20
-1.81366
 11
-25.747
 21
-3.6185
  0
LINE
  8
0
 10
-25.747
 20
-3.6185
 11
-25.4318
 21
-5.4057
  0
LINE
  8
0
 10
-25.4318
 20
-5.4057
 11
-24.9928
 21
-7.16656
  0
LINE
  8
0
 10
-24.9928
 20
-7.16656
 11
-24.432
 21
-8.89252
  0
LINE
  8
0
 10
-24.432
 20
-8.89252
 11
-23.7522
 21
-10.5751
  0
LINE
  8
0
 10
-23.7522
 20
-10.5751
 11
-22.9566
 21
-12.2063
  0
LINE
  8
0
 10
-22.9566
 20
-12.2063
 11
-22.0492
 21
-13.7779
  0
LINE
  8
0
 10
-22.0492
 20
-13.7779
 11
-21.0344
 21
-15.2824
  0
LINE
  8
0
 10
-21.0344
 20
-15.2824
 11
-19.9171
 21
-16.7125
  0
LINE
  8
0
 10
-19.9171
 20
-16.7125
 11
-18.7028
 21
-18.0611
  0
LINE
  8
0
 10
-18.7028
 20
-18.0611
 11
-17.3974
 21
-19.3218
  0
LINE
  8
0
 10
-17.3974
 20
-19.3218
 11
-16.0072
 21
-20.4883
  0
LINE
  8
0
 10
-16.0072
 20
-20.4883
 11
-14.539
 21
-21.555
  0
LINE
  8
0
 10
-14.539
 20
-21.555
 11
-13
 21
-22.5166
  0
LINE
  8
0
 10
-13
 20
-22.5166
 11
-11.3976
 21
-23.3686
  0
LINE
  8
0
 10
-11.3976
 20
-23.3686
 11
-9.73976
 21
-24.1068
  0
LINE
  8
0
 10
-9.73976
 20
-24.1068
 11
-8.03444
 21
-24.7275
  0
LINE
  8
0
 10
-8.03444
 20
-24.7275
 11
-6.28996
 21
-25.2277
  0
LINE
  8
0
 10
-6.28996
 20
-25.2277
 11
-4.51485
 21
-25.605
  0
LINE
  8
0
 10
-4.51485
 20
-25.605
 11
-2.71773
 21
-25.8576
  0
LINE
  8
0
 10
-2.71773
 20
-25.8576
 11
-0.907379
 21
-25.9842
  0
LINE
  8
0
 10
-0.907379
 20
-25.9842
 11
0.907379
 21
-25.9842
  0
LINE
  8
0
 10
0.907379
 20
-25.9842
 11
2.71773
 21
-25.8576
  0
LINE
  8
0
 10
-11.0655
 20
14.0045
 11
-11.2567
 21
14.0208
  0
LINE
  8
0
 10
-11.2567
 20
14.0208
 11
-11.4464
 21
14.0504
  0
LINE
  8
0
 10
-11.4464
 20
14.0504
 11
-11.6335
 21
14.0932
  0
LINE
  8
0
 10
-11.6335
 20
14.0932
 11
-11.8172
 21
14.149
  0
LINE
  8
0
 10
-11.8172
 20
14.149
 11
-11.9965
 21
14.2174
  0
LINE
  8
0
 10
-11.9965
 20
14.2174
 11
-12.1706
 21
14.2982
  0
LINE
  8
0
 10
-12.1706
 20
14.2982
 11
-12.3387
 21
14.3909
  0
LINE
  8
0
 10
-12.3387
 20
14.3909
 11
-12.4999
 21
14.4951
  0
LINE
  8
0
 10
-12.4999
 20
14.4951
 11
-12.6534
 21
14.6103
  0
LINE
  8
0
 10
-12.6534
 20
14.6103
 11
-12.7986
 21
14.7359
  0
LINE
  8
0
 10
-12.7986
 20
14.7359
 11
-12.9345
 21
14.8714
  0
LINE
  8
0
 10
-12.9345
 20
14.8714
 11
-13.0608
 21
15.016
  0
LINE
  8
0
 10
-13.0608
 20
15.016
 11
-13.1766
 21
15.1691
  0
LINE
  8
0
 10
-13.1766
 20
15.1691
 11
-13.2815
 21
15.3298
  0
LINE
  8
0
 10
-13.2815
 20
15.3298
 11
-13.3749
 21
15.4975
  0
LINE
  8
0
 10
-13.3749
 20
15.4975
 11
-13.4564
 21
15.6713
  0
LINE
  8
0
 10
-13.4564
 20
15.6713
 11
-13.5255
 21
15.8503
  0
LINE
  8
0
 10
-13.5255
 20
15.8503
 11
-13.582
 21
16.0338
  0
LINE
  8
0
 10
-13.582
 20
16.0338
 11
-13.6256
 21
16.2207
  0
LINE
  8
0
 10
-13.6256
 20
16.2207
 11
-13.656
 21
16.4102
  0
LINE
  8
0
 10
-13.656
 20
16.4102
 11
-13.6731
 21
16.6014
  0
LINE
  8
0
 10
-13.6731
 20
16.6014
 11
-13.6768
 21
16.7934
  0
LINE
  8
0
 10
-13.6768
 20
16.7934
 11
-13.6672
 21
16.9851
  0
LINE
  8
0
 10
-13.6672
 20
16.9851
 11
-13.6442
 21
17.1756
  0
LINE
  8
0
 10
-13.6442
 20
17.1756
 11
-13.608
 21
17.3641
  0
LINE
  8
0
 10
-13.608
 20
17.3641
 11
-13.5587
 21
17.5496
  0
LINE
  8
0
 10
-13.5587
 20
17.5496
 11
-13.4965
 21
17.7312
  0
LINE
  8
0
 10
-13.4965
 20
17.7312
 11
-13.4219
 21
17.9081
  0
LINE
  8
0
 10
-13.4219
 20
17.9081
 11
-13.3351
 21
18.0793
  0
LINE
  8
0
 10
-13.3351
 20
18.0793
 11
-13.2366
 21
18.244
  0
LINE
  8
0
 10
-13.2366
 20
18.244
 11
-13.1268
 21
18.4015
  0
LINE
  8
0
 10
-13.1268
 20
18.4015
 11
-13.0063
 21
18.5509
  0
LINE
  8
0
 10
-13.0063
 20
18.5509
 11
-12.8757
 21
18.6915
  0
LINE
  8
0
 10
-12.8757
 20
18.6915
 11
-12.7356
 21
18.8227
  0
LINE
  8
0
 10
-12.7356
 20
18.8227
 11
-12.5867
 21
18.9438
  0
LINE
  8
0
 10
-12.5867
 20
18.9438
 11
-12.4297
 21
19.0543
  0
LINE
  8
0
 10
-12.4297
 20
19.0543
 11
-12.2797
 21
19.1448
  0
LINE
  8
0
 10
-12.2797
 20
19.1448
 11
-12.1348
 21
19.2434
  0
LINE
  8
0
 10
-12.1348
 20
19.2434
 11
-11.9836
 21
19.3315
  0
LINE
  8
0
 10
-11.9836
 20
19.3315
 11
-11.837
 21
19.428
  0
LINE
  8
0
 10
-11.837
 20
19.428
 11
-11.6843
 21
19.5139
  0
LINE
  8
0
 10
-11.6843
 20
19.5139
 11
-11.5364
 21
19.608
  0
LINE
  8
0
 10
-11.5364
 20
19.608
 11
-11.3823
 21
19.6916
  0
LINE
  8
0
 10
-11.3823
 20
19.6916
 11
-11.2331
 21
19.7833
  0
LINE
  8
0
 10
-11.2331
 20
19.7833
 11
-11.0777
 21
19.8645
  0
LINE
  8
0
 10
-11.0777
 20
19.8645
 11
-10.9271
 21
19.9539
  0
LINE
  8
0
 10
-10.9271
 20
19.9539
 11
-10.7706
 21
20.0327
  0
LINE
  8
0
 10
-10.7706
 20
20.0327
 11
-10.6185
 21
20.1198
  0
LINE
  8
0
 10
-10.6185
 20
20.1198
 11
-10.4608
 21
20.1962
  0
LINE
  8
0
 10
-10.4608
 20
20.1962
 11
-10.3075
 21
20.281
  0
LINE
  8
0
 10
-10.3075
 20
20.281
 11
-10.1486
 21
20.3548
  0
LINE
  8
0
 10
-10.1486
 20
20.3548
 11
-9.99393
 21
20.4373
  0
LINE
  8
0
 10
-9.99393
 20
20.4373
 11
-9.83391
 21
20.5087
  0
LINE
  8
0
 10
-9.83391
 20
20.5087
 11
-9.67802
 21
20.5888
  0
LINE
  8
0
 10
-9.67802
 20
20.5888
 11
-9.5168
 21
20.6578
  0
LINE
  8
0
 10
-9.5168
 20
20.6578
 11
-9.3598
 21
20.7354
  0
LINE
  8
0
 10
-9.3598
 20
20.7354
 11
-9.19775
 21
20.8018
  0
LINE
  8
0
 10
-9.19775
 20
20.8018
 11
-9.03938
 21
20.877
  0
LINE
  8
0
 10
-9.03938
 20
20.877
 11
-8.8763
 21
20.941
  0
LINE
  8
0
 10
-8.8763
 20
20.941
 11
-8.71683
 21
21.0138
  0
LINE
  8
0
 10
-8.71683
 20
21.0138
 11
-8.55275
 21
21.0752
  0
LINE
  8
0
 10
-8.55275
 20
21.0752
 11
-8.3922
 21
21.1455
  0
LINE
  8
0
 10
-8.3922
 20
21.1455
 11
-8.22719
 21
21.2044
  0
LINE
  8
0
 10
-8.22719
 20
21.2044
 11
-8.06557
 21
21.2722
  0
LINE
  8
0
 10
-8.06557
 20
21.2722
 11
-7.89975
 21
21.3286
  0
LINE
  8
0
 10
-7.89975
 20
21.3286
 11
-7.73705
 21
21.3939
  0
LINE
  8
0
 10
-7.73705
 20
21.3939
 11
-7.57043
 21
21.4477
  0
LINE
  8
0
 10
-7.57043
 20
21.4477
 11
-7.40668
 21
21.5105
  0
LINE
  8
0
 10
-7.40668
 20
21.5105
 11
-7.23914
 21
21.5618
  0
LINE
  8
0
 10
-7.23914
 20
21.5618
 11
-7.07454
 21
21.622
  0
LINE
  8
0
 10
-7.07454
 20
21.622
 11
-6.9061
 21
21.6707
  0
LINE
  8
0
 10
-6.9061
 20
21.6707
 11
-6.74074
 21
21.7284
  0
LINE
  8
0
 10
-6.74074
 20
21.7284
 11
-6.57156
 21
21.7745
  0
LINE
  8
0
 10
-6.57156
 20
21.7745
 11
-6.40533
 21
21.8297
  0
LINE
  8
0
 10
-6.40533
 20
21.8297
 11
-6.23564
 21
21.8731
  0
LINE
  8
0
 10
-6.23564
 20
21.8731
 11
-6.06841
 21
21.9257
  0
LINE
  8
0
 10
-6.06841
 20
21.9257
 11
-5.8981
 21
21.9665
  0
LINE
  8
0
 10
-5.8981
 20
21.9665
 11
-5.73006
 21
22.0165
  0
LINE
  8
0
 10
-5.73006
 20
22.0165
 11
-5.55891
 21
22.0548
  0
LINE
  8
0
 10
-5.55891
 20
22.0548
 11
-5.39032
 21
22.1022
  0
LINE
  8
0
 10
-5.39032
 20
22.1022
 11
-5.21866
 21
22.1377
  0
LINE
  8
0
 10
-5.21866
 20
22.1377
 11
-5.04933
 21
22.1826
  0
LINE
  8
0
 10
-5.04933
 20
22.1826
 11
-4.87712
 21
22.2155
  0
LINE
  8
0
 10
-4.87712
 20
22.2155
 11
-4.70714
 21
22.2577
  0
LINE
  8
0
 10
-4.70714
 20
22.2577
 11
-4.53452
 21
22.2879
  0
LINE
  8
0
 10
-4.53452
 20
22.2879
 11
-4.36383
 21
22.3275
  0
LINE
  8
0
 10
-4.36383
 20
22.3275
 11
-4.19077
 21
22.3551
  0
LINE
  8
0
 10
-4.19077
 20
22.3551
 11
-4.01949
 21
22.3921
  0
LINE
  8
0
 10
-4.01949
 20
22.3921
 11
-3.84608
 21
22.417
  0
LINE
  8
0
 10
-3.84608
 20
22.417
 11
-3.67418
 21
22.4513
  0
LINE
  8
0
 10
-3.67418
 20
22.4513
 11
-3.50027
 21
22.4736
  0
LINE
  8
0
 10
-3.50027
 20
22.4736
 11
-3.328
 21
22.5052
  0
LINE
  8
0
 10
-3.328
 20
22.5052
 11
-3.15395
 21
22.5248
  0
LINE
  8
0
 10
-3.15395
 20
22.5248
 11
-2.98105
 21
22.5538
  0
LINE
  8
0
 10
-2.98105
 20
22.5538
 11
-2.80655
 21
22.5707
  0
LINE
  8
0
 10
-2.80655
 20
22.5707
 11
-2.63338
 21
22.5971
  0
LINE
  8
0
 10
-2.63338
 20
22.5971
 11
-2.45869
 21
22.6113
  0
LINE
  8
0
 10
-2.45869
 20
22.6113
 11
-2.28508
 21
22.6349
  0
LINE
  8
0
 10
-2.28508
 20
22.6349
 11
-2.11031
 21
22.6464
  0
LINE
  8
0
 10
-2.11031
 20
22.6464
 11
-1.93625
 21
22.6674
  0
LINE
  8
0
 10
-1.93625
 20
22.6674
 11
-1.76126
 21
22.6763
  0
LINE
  8
0
 10
-1.76126
 20
22.6763
 11
-1.58694
 21
22.6946
  0
LINE
  8
0
 10
-1.58694
 20
22.6946
 11
-1.39513
 21
22.7013
  0
LINE
  8
0
 10
-1.39513
 20
22.7013
 11
-1.20331
 21
22.6946
  0
LINE
  8
0
 10
-1.20331
 20
22.6946
 11
-1.01241
 21
22.6745
  0
LINE
  8
0
 10
-1.01241
 20
22.6745
 11
-0.823364
 21
22.6412
  0
LINE
  8
0
 10
-0.823364
 20
22.6412
 11
-0.637115
 21
22.5947
  0
LINE
  8
0
 10
-0.637115
 20
22.5947
 11
-0.454559
 21
22.5354
  0
LINE
  8
0
 10
-0.454559
 20
22.5354
 11
-0.276596
 21
22.4635
  0
LINE
  8
0
 10
-0.276596
 20
22.4635
 11
-0.104065
 21
22.3794
  0
LINE
  8
0
 10
-0.104065
 20
22.3794
 11
0.0621338
 21
22.2834
  0
LINE
  8
0
 10
0.0621338
 20
22.2834
 11
0.221268
 21
22.1761
  0
LINE
  8
0
 10
0.221268
 20
22.1761
 11
0.372528
 21
22.0579
  0
LINE
  8
0
 10
0.372528
 20
22.0579
 11
0.515167
 21
21.9294
  0
LINE
  8
0
 10
0.515167
 20
21.9294
 11
0.648514
 21
21.7914
  0
LINE
  8
0
 10
0.648514
 20
21.7914
 11
0.771881
 21
21.6443
  0
LINE
  8
0
 10
0.771881
 20
21.6443
 11
0.88472
 21
21.489
  0
LINE
  8
0
 10
0.88472
 20
21.489
 11
0.98642
 21
21.3263
  0
LINE
  8
0
 10
0.98642
 20
21.3263
 11
1.07655
 21
21.1568
  0
LINE
  8
0
 10
1.07655
 20
21.1568
 11
1.15462
 21
20.9814
  0
LINE
  8
0
 10
1.15462
 20
20.9814
 11
1.22026
 21
20.8011
  0
LINE
  8
0
 10
1.22026
 20
20.8011
 11
1.27318
 21
20.6165
  0
LINE
  8
0
 10
1.27318
 20
20.6165
 11
1.31308
 21
20.4288
  0
LINE
  8
0
 10
1.31308
 20
20.4288
 11
1.3398
 21
20.2387
  0
LINE
  8
0
 10
1.3398
 20
20.2387
 11
1.35318
 21
20.0472
  0
LINE
  8
0
 10
1.35318
 20
20.0472
 11
1.3532
 21
19.8553
  0
LINE
  8
0
 10
1.3532
 20
19.8553
 11
1.3398
 21
19.6638
  0
LINE
  8
0
 10
1.3398
 20
19.6638
 11
1.31308
 21
19.4737
  0
LINE
  8
0
 10
1.31308
 20
19.4737
 11
1.27318
 21
19.286
  0
LINE
  8
0
 10
1.27318
 20
19.286
 11
1.22026
 21
19.1015
  0
LINE
  8
0
 10
1.22026
 20
19.1015
 11
1.1546
 21
18.9211
  0
LINE
  8
0
 10
1.1546
 20
18.9211
 11
1.07655
 21
18.7457
  0
LINE
  8
0
 10
1.07655
 20
18.7457
 11
0.986435
 21
18.5763
  0
LINE
  8
0
 10
0.986435
 20
18.5763
 11
0.88472
 21
18.4135
  0
LINE
  8
0
 10
0.88472
 20
18.4135
 11
0.771896
 21
18.2582
  0
LINE
  8
0
 10
0.771896
 20
18.2582
 11
0.648514
 21
18.1112
  0
LINE
  8
0
 10
0.648514
 20
18.1112
 11
0.515167
 21
17.9731
  0
LINE
  8
0
 10
0.515167
 20
17.9731
 11
0.372528
 21
17.8447
  0
LINE
  8
0
 10
0.372528
 20
17.8447
 11
0.221268
 21
17.7265
  0
LINE
  8
0
 10
0.221268
 20
17.7265
 11
0.062149
 21
17.6191
  0
LINE
  8
0
 10
0.062149
 20
17.6191
 11
-0.10408
 21
17.5232
  0
LINE
  8
0
 10
-0.10408
 20
17.5232
 11
-0.276596
 21
17.439
  0
LINE
  8
0
 10
-0.276596
 20
17.439
 11
-0.454575
 21
17.3671
  0
LINE
  8
0
 10
-0.454575
 20
17.3671
 11
-0.637115
 21
17.3078
  0
LINE
  8
0
 10
-0.637115
 20
17.3078
 11
-0.82338
 21
17.2614
  0
LINE
  8
0
 10
-0.82338
 20
17.2614
 11
-1.01241
 21
17.228
  0
LINE
  8
0
 10
-1.01241
 20
17.228
 11
-1.20329
 21
17.208
  0
LINE
  8
0
 10
-1.20329
 20
17.208
 11
-1.33609
 21
17.2033
  0
LINE
  8
0
 10
-1.33609
 20
17.2033
 11
-1.46814
 21
17.1874
  0
LINE
  8
0
 10
-1.46814
 20
17.1874
 11
-1.60083
 21
17.1807
  0
LINE
  8
0
 10
-1.60083
 20
17.1807
 11
-1.73264
 21
17.1627
  0
LINE
  8
0
 10
-1.73264
 20
17.1627
 11
-1.86528
 21
17.154
  0
LINE
  8
0
 10
-1.86528
 20
17.154
 11
-1.99673
 21
17.134
  0
LINE
  8
0
 10
-1.99673
 20
17.134
 11
-2.12912
 21
17.1233
  0
LINE
  8
0
 10
-2.12912
 20
17.1233
 11
-2.26035
 21
17.1012
  0
LINE
  8
0
 10
-2.26035
 20
17.1012
 11
-2.39265
 21
17.0885
  0
LINE
  8
0
 10
-2.39265
 20
17.0885
 11
-2.52344
 21
17.0644
  0
LINE
  8
0
 10
-2.52344
 20
17.0644
 11
-2.65552
 21
17.0496
  0
LINE
  8
0
 10
-2.65552
 20
17.0496
 11
-2.78592
 21
17.0235
  0
LINE
  8
0
 10
-2.78592
 20
17.0235
 11
-2.91785
 21
17.0066
  0
LINE
  8
0
 10
-2.91785
 20
17.0066
 11
-3.04773
 21
16.9786
  0
LINE
  8
0
 10
-3.04773
 20
16.9786
 11
-3.17929
 21
16.9597
  0
LINE
  8
0
 10
-3.17929
 20
16.9597
 11
-3.30884
 21
16.9297
  0
LINE
  8
0
 10
-3.30884
 20
16.9297
 11
-3.44006
 21
16.9087
  0
LINE
  8
0
 10
-3.44006
 20
16.9087
 11
-3.56914
 21
16.8767
  0
LINE
  8
0
 10
-3.56914
 20
16.8767
 11
-3.70016
 21
16.8537
  0
LINE
  8
0
 10
-3.70016
 20
16.8537
 11
-3.82861
 21
16.8197
  0
LINE
  8
0
 10
-3.82861
 20
16.8197
 11
-3.95921
 21
16.7948
  0
LINE
  8
0
 10
-3.95921
 20
16.7948
 11
-4.08717
 21
16.7588
  0
LINE
  8
0
 10
-4.08717
 20
16.7588
 11
-4.21736
 21
16.7318
  0
LINE
  8
0
 10
-4.21736
 20
16.7318
 11
-4.34477
 21
16.6939
  0
LINE
  8
0
 10
-4.34477
 20
16.6939
 11
-4.47446
 21
16.6649
  0
LINE
  8
0
 10
-4.47446
 20
16.6649
 11
-4.60132
 21
16.625
  0
LINE
  8
0
 10
-4.60132
 20
16.625
 11
-4.73067
 21
16.594
  0
LINE
  8
0
 10
-4.73067
 20
16.594
 11
-4.8568
 21
16.5521
  0
LINE
  8
0
 10
-4.8568
 20
16.5521
 11
-4.98563
 21
16.5192
  0
LINE
  8
0
 10
-4.98563
 20
16.5192
 11
-5.1111
 21
16.4754
  0
LINE
  8
0
 10
-5.1111
 20
16.4754
 11
-5.23938
 21
16.4405
  0
LINE
  8
0
 10
-5.23938
 20
16.4405
 11
-5.36423
 21
16.3947
  0
LINE
  8
0
 10
-5.36423
 20
16.3947
 11
-5.49193
 21
16.3578
  0
LINE
  8
0
 10
-5.49193
 20
16.3578
 11
-5.61606
 21
16.3102
  0
LINE
  8
0
 10
-5.61606
 20
16.3102
 11
-5.74307
 21
16.2713
  0
LINE
  8
0
 10
-5.74307
 20
16.2713
 11
-5.86655
 21
16.2218
  0
LINE
  8
0
 10
-5.86655
 20
16.2218
 11
-5.99304
 21
16.1809
  0
LINE
  8
0
 10
-5.99304
 20
16.1809
 11
-6.11566
 21
16.1295
  0
LINE
  8
0
 10
-6.11566
 20
16.1295
 11
-6.24158
 21
16.0867
  0
LINE
  8
0
 10
-6.24158
 20
16.0867
 11
-6.36331
 21
16.0334
  0
LINE
  8
0
 10
-6.36331
 20
16.0334
 11
-6.48846
 21
15.9887
  0
LINE
  8
0
 10
-6.48846
 20
15.9887
 11
-6.60947
 21
15.9335
  0
LINE
  8
0
 10
-6.60947
 20
15.9335
 11
-6.73401
 21
15.8869
  0
LINE
  8
0
 10
-6.73401
 20
15.8869
 11
-6.85405
 21
15.8298
  0
LINE
  8
0
 10
-6.85405
 20
15.8298
 11
-6.9778
 21
15.7813
  0
LINE
  8
0
 10
-6.9778
 20
15.7813
 11
-7.09702
 21
15.7224
  0
LINE
  8
0
 10
-7.09702
 20
15.7224
 11
-7.22002
 21
15.672
  0
LINE
  8
0
 10
-7.22002
 20
15.672
 11
-7.33829
 21
15.6113
  0
LINE
  8
0
 10
-7.33829
 20
15.6113
 11
-7.46045
 21
15.559
  0
LINE
  8
0
 10
-7.46045
 20
15.559
 11
-7.5778
 21
15.4964
  0
LINE
  8
0
 10
-7.5778
 20
15.4964
 11
-7.69925
 21
15.4422
  0
LINE
  8
0
 10
-7.69925
 20
15.4422
 11
-7.81555
 21
15.3779
  0
LINE
  8
0
 10
-7.81555
 20
15.3779
 11
-7.93602
 21
15.3219
  0
LINE
  8
0
 10
-7.93602
 20
15.3219
 11
-8.05142
 21
15.2557
  0
LINE
  8
0
 10
-8.05142
 20
15.2557
 11
-8.17111
 21
15.1978
  0
LINE
  8
0
 10
-8.17111
 20
15.1978
 11
-8.2854
 21
15.1299
  0
LINE
  8
0
 10
-8.2854
 20
15.1299
 11
-8.40413
 21
15.0702
  0
LINE
  8
0
 10
-8.40413
 20
15.0702
 11
-8.51743
 21
15.0005
  0
LINE
  8
0
 10
-8.51743
 20
15.0005
 11
-8.63522
 21
14.939
  0
LINE
  8
0
 10
-8.63522
 20
14.939
 11
-8.74739
 21
14.8676
  0
LINE
  8
0
 10
-8.74739
 20
14.8676
 11
-8.8643
 21
14.8042
  0
LINE
  8
0
 10
-8.8643
 20
14.8042
 11
-8.97531
 21
14.7311
  0
LINE
  8
0
 10
-8.97531
 20
14.7311
 11
-9.09122
 21
14.6659
  0
LINE
  8
0
 10
-9.09122
 20
14.6659
 11
-9.2011
 21
14.5911
  0
LINE
  8
0
 10
-9.2011
 20
14.5911
 11
-9.31599
 21
14.5242
  0
LINE
  8
0
 10
-9.31599
 20
14.5242
 11
-9.4247
 21
14.4477
  0
LINE
  8
0
 10
-9.4247
 20
14.4477
 11
-9.58904
 21
14.3485
  0
LINE
  8
0
 10
-9.58904
 20
14.3485
 11
-9.75986
 21
14.261
  0
LINE
  8
0
 10
-9.75986
 20
14.261
 11
-9.9364
 21
14.1857
  0
LINE
  8
0
 10
-9.9364
 20
14.1857
 11
-10.1178
 21
14.1228
  0
LINE
  8
0
 10
-10.1178
 20
14.1228
 11
-10.3031
 21
14.0728
  0
LINE
  8
0
 10
-10.3031
 20
14.0728
 11
-10.4914
 21
14.0358
  0
LINE
  8
0
 10
-10.4914
 20
14.0358
 11
-10.6819
 21
14.012
  0
LINE
  8
0
 10
-10.6819
 20
14.012
 11
-10.8735
 21
14.0015
  0
LINE
  8
0
 10
-10.8735
 20
14.0015
 11
-11.0655
 21
14.0045
  0
LINE
  8
0
 10
16.3889
 20
8.44055
 11
16.198
 21
8.46062
  0
LINE
  8
0
 10
16.198
 20
8.46062
 11
16.009
 21
8.49394
  0
LINE
  8
0
 10
16.009
 20
8.49394
 11
15.8227
 21
8.54039
  0
LINE
  8
0
 10
15.8227
 20
8.54039
 11
15.6402
 21
8.59969
  0
LINE
  8
0
 10
15.6402
 20
8.59969
 11
15.4622
 21
8.6716
  0
LINE
  8
0
 10
15.4622
 20
8.6716
 11
15.2897
 21
8.75574
  0
LINE
  8
0
 10
15.2897
 20
8.75574
 11
15.1235
 21
8.85173
  0
LINE
  8
0
 10
15.1235
 20
8.85173
 11
14.9643
 21
8.95905
  0
LINE
  8
0
 10
14.9643
 20
8.95905
 11
14.8131
 21
9.07722
  0
LINE
  8
0
 10
14.8131
 20
9.07722
 11
14.6704
 21
9.20567
  0
LINE
  8
0
 10
14.6704
 20
9.20567
 11
14.5371
 21
9.34373
  0
LINE
  8
0
 10
14.5371
 20
9.34373
 11
14.4137
 21
9.49078
  0
LINE
  8
0
 10
14.4137
 20
9.49078
 11
14.3009
 21
9.64607
  0
LINE
  8
0
 10
14.3009
 20
9.64607
 11
14.2305
 21
9.75871
  0
LINE
  8
0
 10
14.2305
 20
9.75871
 11
14.1507
 21
9.86513
  0
LINE
  8
0
 10
14.1507
 20
9.86513
 11
14.0785
 21
9.97675
  0
LINE
  8
0
 10
14.0785
 20
9.97675
 11
13.9971
 21
10.0819
  0
LINE
  8
0
 10
13.9971
 20
10.0819
 11
13.9232
 21
10.1924
  0
LINE
  8
0
 10
13.9232
 20
10.1924
 11
13.8401
 21
10.2962
  0
LINE
  8
0
 10
13.8401
 20
10.2962
 11
13.7646
 21
10.4056
  0
LINE
  8
0
 10
13.7646
 20
10.4056
 11
13.6799
 21
10.5081
  0
LINE
  8
0
 10
13.6799
 20
10.5081
 11
13.6027
 21
10.6163
  0
LINE
  8
0
 10
13.6027
 20
10.6163
 11
13.5165
 21
10.7175
  0
LINE
  8
0
 10
13.5165
 20
10.7175
 11
13.4376
 21
10.8246
  0
LINE
  8
0
 10
13.4376
 20
10.8246
 11
13.3499
 21
10.9244
  0
LINE
  8
0
 10
13.3499
 20
10.9244
 11
13.2693
 21
11.0302
  0
LINE
  8
0
 10
13.2693
 20
11.0302
 11
13.18
 21
11.1287
  0
LINE
  8
0
 10
13.18
 20
11.1287
 11
13.0978
 21
11.2333
  0
LINE
  8
0
 10
13.0978
 20
11.2333
 11
13.0071
 21
11.3304
  0
LINE
  8
0
 10
13.0071
 20
11.3304
 11
12.9234
 21
11.4336
  0
LINE
  8
0
 10
12.9234
 20
11.4336
 11
12.8311
 21
11.5293
  0
LINE
  8
0
 10
12.8311
 20
11.5293
 11
12.7457
 21
11.6313
  0
LINE
  8
0
 10
12.7457
 20
11.6313
 11
12.652
 21
11.7255
  0
LINE
  8
0
 10
12.652
 20
11.7255
 11
12.5651
 21
11.8261
  0
LINE
  8
0
 10
12.5651
 20
11.8261
 11
12.47
 21
11.919
  0
LINE
  8
0
 10
12.47
 20
11.919
 11
12.3815
 21
12.0182
  0
LINE
  8
0
 10
12.3815
 20
12.0182
 11
12.2849
 21
12.1096
  0
LINE
  8
0
 10
12.2849
 20
12.1096
 11
12.195
 21
12.2074
  0
LINE
  8
0
 10
12.195
 20
12.2074
 11
12.097
 21
12.2973
  0
LINE
  8
0
 10
12.097
 20
12.2973
 11
12.0055
 21
12.3939
  0
LINE
  8
0
 10
12.0055
 20
12.3939
 11
11.9062
 21
12.4822
  0
LINE
  8
0
 10
11.9062
 20
12.4822
 11
11.8133
 21
12.5772
  0
LINE
  8
0
 10
11.8133
 20
12.5772
 11
11.7126
 21
12.664
  0
LINE
  8
0
 10
11.7126
 20
12.664
 11
11.6181
 21
12.7577
  0
LINE
  8
0
 10
11.6181
 20
12.7577
 11
11.5161
 21
12.8429
  0
LINE
  8
0
 10
11.5161
 20
12.8429
 11
11.4202
 21
12.9351
  0
LINE
  8
0
 10
11.4202
 20
12.9351
 11
11.317
 21
13.0187
  0
LINE
  8
0
 10
11.317
 20
13.0187
 11
11.2198
 21
13.1094
  0
LINE
  8
0
 10
11.2198
 20
13.1094
 11
11.1152
 21
13.1915
  0
LINE
  8
0
 10
11.1152
 20
13.1915
 11
11.0166
 21
13.2806
  0
LINE
  8
0
 10
11.0166
 20
13.2806
 11
10.9107
 21
13.3611
  0
LINE
  8
0
 10
10.9107
 20
13.3611
 11
10.8108
 21
13.4487
  0
LINE
  8
0
 10
10.8108
 20
13.4487
 11
10.7037
 21
13.5275
  0
LINE
  8
0
 10
10.7037
 20
13.5275
 11
10.6024
 21
13.6135
  0
LINE
  8
0
 10
10.6024
 20
13.6135
 11
10.4941
 21
13.6907
  0
LINE
  8
0
 10
10.4941
 20
13.6907
 11
10.3914
 21
13.7753
  0
LINE
  8
0
 10
10.3914
 20
13.7753
 11
10.282
 21
13.8507
  0
LINE
  8
0
 10
10.282
 20
13.8507
 11
10.1781
 21
13.9336
  0
LINE
  8
0
 10
10.1781
 20
13.9336
 11
10.0675
 21
14.0074
  0
LINE
  8
0
 10
10.0675
 20
14.0074
 11
9.96236
 21
14.0887
  0
LINE
  8
0
 10
9.96236
 20
14.0887
 11
9.85062
 21
14.1608
  0
LINE
  8
0
 10
9.85062
 20
14.1608
 11
9.74426
 21
14.2404
  0
LINE
  8
0
 10
9.74426
 20
14.2404
 11
9.63138
 21
14.3108
  0
LINE
  8
0
 10
9.63138
 20
14.3108
 11
9.5237
 21
14.3888
  0
LINE
  8
0
 10
9.5237
 20
14.3888
 11
9.40987
 21
14.4574
  0
LINE
  8
0
 10
9.40987
 20
14.4574
 11
9.30101
 21
14.5338
  0
LINE
  8
0
 10
9.30101
 20
14.5338
 11
9.1861
 21
14.6006
  0
LINE
  8
0
 10
9.1861
 20
14.6006
 11
9.07617
 21
14.6752
  0
LINE
  8
0
 10
9.07617
 20
14.6752
 11
8.96019
 21
14.7403
  0
LINE
  8
0
 10
8.96019
 20
14.7403
 11
8.84903
 21
14.8133
  0
LINE
  8
0
 10
8.84903
 20
14.8133
 11
8.73213
 21
14.8765
  0
LINE
  8
0
 10
8.73213
 20
14.8765
 11
8.61987
 21
14.9478
  0
LINE
  8
0
 10
8.61987
 20
14.9478
 11
8.502
 21
15.0093
  0
LINE
  8
0
 10
8.502
 20
15.0093
 11
8.38858
 21
15.0788
  0
LINE
  8
0
 10
8.38858
 20
15.0788
 11
8.26985
 21
15.1384
  0
LINE
  8
0
 10
8.26985
 20
15.1384
 11
8.15547
 21
15.2062
  0
LINE
  8
0
 10
8.15547
 20
15.2062
 11
8.03575
 21
15.264
  0
LINE
  8
0
 10
8.03575
 20
15.264
 11
7.92027
 21
15.33
  0
LINE
  8
0
 10
7.92027
 20
15.33
 11
7.79974
 21
15.3859
  0
LINE
  8
0
 10
7.79974
 20
15.3859
 11
7.63167
 21
15.4786
  0
LINE
  8
0
 10
7.63167
 20
15.4786
 11
7.47047
 21
15.5828
  0
LINE
  8
0
 10
7.47047
 20
15.5828
 11
7.31694
 21
15.698
  0
LINE
  8
0
 10
7.31694
 20
15.698
 11
7.17183
 21
15.8237
  0
LINE
  8
0
 10
7.17183
 20
15.8237
 11
7.03583
 21
15.9591
  0
LINE
  8
0
 10
7.03583
 20
15.9591
 11
6.90959
 21
16.1037
  0
LINE
  8
0
 10
6.90959
 20
16.1037
 11
6.79376
 21
16.2568
  0
LINE
  8
0
 10
6.79376
 20
16.2568
 11
6.6889
 21
16.4175
  0
LINE
  8
0
 10
6.6889
 20
16.4175
 11
6.59549
 21
16.5852
  0
LINE
  8
0
 10
6.59549
 20
16.5852
 11
6.51401
 21
16.759
  0
LINE
  8
0
 10
6.51401
 20
16.759
 11
6.44485
 21
16.9381
  0
LINE
  8
0
 10
6.44485
 20
16.9381
 11
6.38837
 21
17.1215
  0
LINE
  8
0
 10
6.38837
 20
17.1215
 11
6.3448
 21
17.3085
  0
LINE
  8
0
 10
6.3448
 20
17.3085
 11
6.31438
 21
17.498
  0
LINE
  8
0
 10
6.31438
 20
17.498
 11
6.29726
 21
17.6892
  0
LINE
  8
0
 10
6.29726
 20
17.6892
 11
6.29352
 21
17.8811
  0
LINE
  8
0
 10
6.29352
 20
17.8811
 11
6.30316
 21
18.0728
  0
LINE
  8
0
 10
6.30316
 20
18.0728
 11
6.32617
 21
18.2633
  0
LINE
  8
0
 10
6.32617
 20
18.2633
 11
6.36241
 21
18.4518
  0
LINE
  8
0
 10
6.36241
 20
18.4518
 11
6.41171
 21
18.6373
  0
LINE
  8
0
 10
6.41171
 20
18.6373
 11
6.47383
 21
18.819
  0
LINE
  8
0
 10
6.47383
 20
18.819
 11
6.54846
 21
18.9958
  0
LINE
  8
0
 10
6.54846
 20
18.9958
 11
6.63525
 21
19.167
  0
LINE
  8
0
 10
6.63525
 20
19.167
 11
6.73376
 21
19.3317
  0
LINE
  8
0
 10
6.73376
 20
19.3317
 11
6.84355
 21
19.4892
  0
LINE
  8
0
 10
6.84355
 20
19.4892
 11
6.96404
 21
19.6386
  0
LINE
  8
0
 10
6.96404
 20
19.6386
 11
7.09465
 21
19.7793
  0
LINE
  8
0
 10
7.09465
 20
19.7793
 11
7.23477
 21
19.9105
  0
LINE
  8
0
 10
7.23477
 20
19.9105
 11
7.3837
 21
20.0316
  0
LINE
  8
0
 10
7.3837
 20
20.0316
 11
7.5407
 21
20.142
  0
LINE
  8
0
 10
7.5407
 20
20.142
 11
7.70503
 21
20.2412
  0
LINE
  8
0
 10
7.70503
 20
20.2412
 11
7.87589
 21
20.3287
  0
LINE
  8
0
 10
7.87589
 20
20.3287
 11
8.05241
 21
20.404
  0
LINE
  8
0
 10
8.05241
 20
20.404
 11
8.23376
 21
20.4669
  0
LINE
  8
0
 10
8.23376
 20
20.4669
 11
8.41907
 21
20.517
  0
LINE
  8
0
 10
8.41907
 20
20.517
 11
8.60742
 21
20.554
  0
LINE
  8
0
 10
8.60742
 20
20.554
 11
8.79788
 21
20.5777
  0
LINE
  8
0
 10
8.79788
 20
20.5777
 11
8.98955
 21
20.5882
  0
LINE
  8
0
 10
8.98955
 20
20.5882
 11
9.18149
 21
20.5852
  0
LINE
  8
0
 10
9.18149
 20
20.5852
 11
9.37273
 21
20.5689
  0
LINE
  8
0
 10
9.37273
 20
20.5689
 11
9.56238
 21
20.5393
  0
LINE
  8
0
 10
9.56238
 20
20.5393
 11
9.7495
 21
20.4965
  0
LINE
  8
0
 10
9.7495
 20
20.4965
 11
9.93315
 21
20.4407
  0
LINE
  8
0
 10
9.93315
 20
20.4407
 11
10.1125
 21
20.3723
  0
LINE
  8
0
 10
10.1125
 20
20.3723
 11
10.2866
 21
20.2915
  0
LINE
  8
0
 10
10.2866
 20
20.2915
 11
10.4401
 21
20.2069
  0
LINE
  8
0
 10
10.4401
 20
20.2069
 11
10.5979
 21
20.1307
  0
LINE
  8
0
 10
10.5979
 20
20.1307
 11
10.75
 21
20.0437
  0
LINE
  8
0
 10
10.75
 20
20.0437
 11
10.9066
 21
19.9651
  0
LINE
  8
0
 10
10.9066
 20
19.9651
 11
11.0573
 21
19.8759
  0
LINE
  8
0
 10
11.0573
 20
19.8759
 11
11.2128
 21
19.7948
  0
LINE
  8
0
 10
11.2128
 20
19.7948
 11
11.3622
 21
19.7031
  0
LINE
  8
0
 10
11.3622
 20
19.7031
 11
11.5163
 21
19.6198
  0
LINE
  8
0
 10
11.5163
 20
19.6198
 11
11.6642
 21
19.5259
  0
LINE
  8
0
 10
11.6642
 20
19.5259
 11
11.817
 21
19.4401
  0
LINE
  8
0
 10
11.817
 20
19.4401
 11
11.9636
 21
19.3439
  0
LINE
  8
0
 10
11.9636
 20
19.3439
 11
12.115
 21
19.2559
  0
LINE
  8
0
 10
12.115
 20
19.2559
 11
12.26
 21
19.1574
  0
LINE
  8
0
 10
12.26
 20
19.1574
 11
12.4101
 21
19.067
  0
LINE
  8
0
 10
12.4101
 20
19.067
 11
12.5535
 21
18.9663
  0
LINE
  8
0
 10
12.5535
 20
18.9663
 11
12.7023
 21
18.8736
  0
LINE
  8
0
 10
12.7023
 20
18.8736
 11
12.8441
 21
18.7708
  0
LINE
  8
0
 10
12.8441
 20
18.7708
 11
12.9914
 21
18.6758
  0
LINE
  8
0
 10
12.9914
 20
18.6758
 11
13.1316
 21
18.5708
  0
LINE
  8
0
 10
13.1316
 20
18.5708
 11
13.2774
 21
18.4735
  0
LINE
  8
0
 10
13.2774
 20
18.4735
 11
13.416
 21
18.3664
  0
LINE
  8
0
 10
13.416
 20
18.3664
 11
13.5603
 21
18.2669
  0
LINE
  8
0
 10
13.5603
 20
18.2669
 11
13.6974
 21
18.1575
  0
LINE
  8
0
 10
13.6974
 20
18.1575
 11
13.84
 21
18.0559
  0
LINE
  8
0
 10
13.84
 20
18.0559
 11
13.9754
 21
17.9444
  0
LINE
  8
0
 10
13.9754
 20
17.9444
 11
14.1165
 21
17.8406
  0
LINE
  8
0
 10
14.1165
 20
17.8406
 11
14.2499
 21
17.7272
  0
LINE
  8
0
 10
14.2499
 20
17.7272
 11
14.3895
 21
17.6211
  0
LINE
  8
0
 10
14.3895
 20
17.6211
 11
14.5212
 21
17.5057
  0
LINE
  8
0
 10
14.5212
 20
17.5057
 11
14.6592
 21
17.3974
  0
LINE
  8
0
 10
14.6592
 20
17.3974
 11
14.7892
 21
17.2799
  0
LINE
  8
0
 10
14.7892
 20
17.2799
 11
14.9253
 21
17.1696
  0
LINE
  8
0
 10
14.9253
 20
17.1696
 11
15.0536
 21
17.05
  0
LINE
  8
0
 10
15.0536
 20
17.05
 11
15.188
 21
16.9377
  0
LINE
  8
0
 10
15.188
 20
16.9377
 11
15.3143
 21
16.8162
  0
LINE
  8
0
 10
15.3143
 20
16.8162
 11
15.447
 21
16.7019
  0
LINE
  8
0
 10
15.447
 20
16.7019
 11
15.5715
 21
16.5784
  0
LINE
  8
0
 10
15.5715
 20
16.5784
 11
15.7024
 21
16.462
  0
LINE
  8
0
 10
15.7024
 20
16.462
 11
15.8249
 21
16.3367
  0
LINE
  8
0
 10
15.8249
 20
16.3367
 11
15.954
 21
16.2182
  0
LINE
  8
0
 10
15.954
 20
16.2182
 11
16.0746
 21
16.091
  0
LINE
  8
0
 10
16.0746
 20
16.091
 11
16.2019
 21
15.9706
  0
LINE
  8
0
 10
16.2019
 20
15.9706
 11
16.3205
 21
15.8416
  0
LINE
  8
0
 10
16.3205
 20
15.8416
 11
16.4459
 21
15.7193
  0
LINE
  8
0
 10
16.4459
 20
15.7193
 11
16.5624
 21
15.5885
  0
LINE
  8
0
 10
16.5624
 20
15.5885
 11
16.686
 21
15.4641
  0
LINE
  8
0
 10
16.686
 20
15.4641
 11
16.8006
 21
15.3315
  0
LINE
  8
0
 10
16.8006
 20
15.3315
 11
16.9221
 21
15.2053
  0
LINE
  8
0
 10
16.9221
 20
15.2053
 11
17.0347
 21
15.0709
  0
LINE
  8
0
 10
17.0347
 20
15.0709
 11
17.1543
 21
14.9429
  0
LINE
  8
0
 10
17.1543
 20
14.9429
 11
17.2647
 21
14.8069
  0
LINE
  8
0
 10
17.2647
 20
14.8069
 11
17.3824
 21
14.677
  0
LINE
  8
0
 10
17.3824
 20
14.677
 11
17.4907
 21
14.5392
  0
LINE
  8
0
 10
17.4907
 20
14.5392
 11
17.6063
 21
14.4076
  0
LINE
  8
0
 10
17.6063
 20
14.4076
 11
17.7125
 21
14.2682
  0
LINE
  8
0
 10
17.7125
 20
14.2682
 11
17.8261
 21
14.1348
  0
LINE
  8
0
 10
17.8261
 20
14.1348
 11
17.9301
 21
13.9939
  0
LINE
  8
0
 10
17.9301
 20
13.9939
 11
18.0417
 21
13.8586
  0
LINE
  8
0
 10
18.0417
 20
13.8586
 11
18.1435
 21
13.716
  0
LINE
  8
0
 10
18.1435
 20
13.716
 11
18.2529
 21
13.5791
  0
LINE
  8
0
 10
18.2529
 20
13.5791
 11
18.3527
 21
13.4348
  0
LINE
  8
0
 10
18.3527
 20
13.4348
 11
18.4599
 21
13.2964
  0
LINE
  8
0
 10
18.4599
 20
13.2964
 11
18.5573
 21
13.1507
  0
LINE
  8
0
 10
18.5573
 20
13.1507
 11
18.6625
 21
13.0106
  0
LINE
  8
0
 10
18.6625
 20
13.0106
 11
18.7576
 21
12.8634
  0
LINE
  8
0
 10
18.7576
 20
12.8634
 11
18.8606
 21
12.7216
  0
LINE
  8
0
 10
18.8606
 20
12.7216
 11
18.9623
 21
12.5589
  0
LINE
  8
0
 10
18.9623
 20
12.5589
 11
19.0524
 21
12.3894
  0
LINE
  8
0
 10
19.0524
 20
12.3894
 11
19.1305
 21
12.214
  0
LINE
  8
0
 10
19.1305
 20
12.214
 11
19.1961
 21
12.0336
  0
LINE
  8
0
 10
19.1961
 20
12.0336
 11
19.2491
 21
11.8491
  0
LINE
  8
0
 10
19.2491
 20
11.8491
 11
19.289
 21
11.6614
  0
LINE
  8
0
 10
19.289
 20
11.6614
 11
19.3157
 21
11.4713
  0
LINE
  8
0
 10
19.3157
 20
11.4713
 11
19.3291
 21
11.2798
  0
LINE
  8
0
 10
19.3291
 20
11.2798
 11
19.3291
 21
11.0879
  0
LINE
  8
0
 10
19.3291
 20
11.0879
 11
19.3157
 21
10.8964
  0
LINE
  8
0
 10
19.3157
 20
10.8964
 11
19.289
 21
10.7063
  0
LINE
  8
0
 10
19.289
 20
10.7063
 11
19.2491
 21
10.5186
  0
LINE
  8
0
 10
19.2491
 20
10.5186
 11
19.1961
 21
10.334
  0
LINE
  8
0
 10
19.1961
 20
10.334
 11
19.1305
 21
10.1537
  0
LINE
  8
0
 10
19.1305
 20
10.1537
 11
19.0524
 21
9.97833
  0
LINE
  8
0
 10
19.0524
 20
9.97833
 11
18.9623
 21
9.80885
  0
LINE
  8
0
 10
18.9623
 20
9.80885
 11
18.8606
 21
9.64607
  0
LINE
  8
0
 10
18.8606
 20
9.64607
 11
18.7478
 21
9.49078
  0
LINE
  8
0
 10
18.7478
 20
9.49078
 11
18.6244
 21
9.34375
  0
LINE
  8
0
 10
18.6244
 20
9.34375
 11
18.491
 21
9.20567
  0
LINE
  8
0
 10
18.491
 20
9.20567
 11
18.3484
 21
9.07724
  0
LINE
  8
0
 10
18.3484
 20
9.07724
 11
18.1971
 21
8.95905
  0
LINE
  8
0
 10
18.1971
 20
8.95905
 11
18.038
 21
8.85172
  0
LINE
  8
0
 10
18.038
 20
8.85172
 11
17.8718
 21
8.75575
  0
LINE
  8
0
 10
17.8718
 20
8.75575
 11
17.6992
 21
8.67162
  0
LINE
  8
0
 10
17.6992
 20
8.67162
 11
17.5213
 21
8.5997
  0
LINE
  8
0
 10
17.5213
 20
8.5997
 11
17.3387
 21
8.54037
  0
LINE
  8
0
 10
17.3387
 20
8.54037
 11
17.1525
 21
8.49394
  0
LINE
  8
0
 10
17.1525
 20
8.49394
 11
16.9635
 21
8.4606
  0
LINE
  8
0
 10
16.9635
 20
8.4606
 11
16.7726
 21
8.44055
  0
LINE
  8
0
 10
16.7726
 20
8.44055
 11
16.5807
 21
8.43385
  0
LINE
  8
0
 10
16.5807
 20
8.43385
 11
16.3889
 21
8.44055
  0
LINE
  8
0
 10
48.543
 20
10.2555
 11
48.3869
 21
10.2719
  0
LINE
  8
0
 10
48.3869
 20
10.2719
 11
48.2322
 21
10.2992
  0
LINE
  8
0
 10
48.2322
 20
10.2992
 11
48.0798
 21
10.3372
  0
LINE
  8
0
 10
48.0798
 20
10.3372
 11
47.9305
 21
10.3857
  0
LINE
  8
0
 10
47.9305
 20
10.3857
 11
47.7849
 21
10.4445
  0
LINE
  8
0
 10
47.7849
 20
10.4445
 11
47.6437
 21
10.5134
  0
LINE
  8
0
 10
47.6437
 20
10.5134
 11
47.5077
 21
10.5919
  0
LINE
  8
0
 10
47.5077
 20
10.5919
 11
47.3775
 21
10.6797
  0
LINE
  8
0
 10
47.3775
 20
10.6797
 11
47.2537
 21
10.7764
  0
LINE
  8
0
 10
47.2537
 20
10.7764
 11
47.137
 21
10.8815
  0
LINE
  8
0
 10
47.137
 20
10.8815
 11
47.0279
 21
10.9944
  0
LINE
  8
0
 10
47.0279
 20
10.9944
 11
46.927
 21
11.1148
  0
LINE
  8
0
 10
46.927
 20
11.1148
 11
46.8347
 21
11.2418
  0
LINE
  8
0
 10
46.8347
 20
11.2418
 11
46.7514
 21
11.375
  0
LINE
  8
0
 10
46.7514
 20
11.375
 11
46.6777
 21
11.5137
  0
LINE
  8
0
 10
46.6777
 20
11.5137
 11
46.6138
 21
11.6571
  0
LINE
  8
0
 10
46.6138
 20
11.6571
 11
46.5601
 21
11.8047
  0
LINE
  8
0
 10
46.5601
 20
11.8047
 11
46.5168
 21
11.9557
  0
LINE
  8
0
 10
46.5168
 20
11.9557
 11
46.4842
 21
12.1093
  0
LINE
  8
0
 10
46.4842
 20
12.1093
 11
46.4623
 21
12.2648
  0
LINE
  8
0
 10
46.4623
 20
12.2648
 11
46.4514
 21
12.4215
  0
LINE
  8
0
 10
46.4514
 20
12.4215
 11
46.4514
 21
12.5785
  0
LINE
  8
0
 10
46.4514
 20
12.5785
 11
46.4623
 21
12.7352
  0
LINE
  8
0
 10
46.4623
 20
12.7352
 11
46.4842
 21
12.8907
  0
LINE
  8
0
 10
46.4842
 20
12.8907
 11
46.5168
 21
13.0443
  0
LINE
  8
0
 10
46.5168
 20
13.0443
 11
46.5601
 21
13.1953
  0
LINE
  8
0
 10
46.5601
 20
13.1953
 11
46.6138
 21
13.3428
  0
LINE
  8
0
 10
46.6138
 20
13.3428
 11
46.6777
 21
13.4863
  0
LINE
  8
0
 10
46.6777
 20
13.4863
 11
46.7514
 21
13.625
  0
LINE
  8
0
 10
46.7514
 20
13.625
 11
46.8347
 21
13.7582
  0
LINE
  8
0
 10
46.8347
 20
13.7582
 11
46.927
 21
13.8852
  0
LINE
  8
0
 10
46.927
 20
13.8852
 11
47.0279
 21
14.0055
  0
LINE
  8
0
 10
47.0279
 20
14.0055
 11
47.137
 21
14.1185
  0
LINE
  8
0
 10
47.137
 20
14.1185
 11
47.2537
 21
14.2236
  0
LINE
  8
0
 10
47.2537
 20
14.2236
 11
47.3775
 21
14.3203
  0
LINE
  8
0
 10
47.3775
 20
14.3203
 11
47.5077
 21
14.4081
  0
LINE
  8
0
 10
47.5077
 20
14.4081
 11
47.6437
 21
14.4866
  0
LINE
  8
0
 10
47.6437
 20
14.4866
 11
47.7849
 21
14.5555
  0
LINE
  8
0
 10
47.7849
 20
14.5555
 11
47.9305
 21
14.6143
  0
LINE
  8
0
 10
47.9305
 20
14.6143
 11
48.0798
 21
14.6628
  0
LINE
  8
0
 10
48.0798
 20
14.6628
 11
48.2322
 21
14.7008
  0
LINE
  8
0
 10
48.2322
 20
14.7008
 11
48.3869
 21
14.7281
  0
LINE
  8
0
 10
48.3869
 20
14.7281
 11
48.543
 21
14.7445
  0
LINE
  8
0
 10
48.543
 20
14.7445
 11
48.7
 21
14.75
  0
LINE
  8
0
 10
48.7
 20
14.75
 11
48.8569
 21
14.7445
  0
LINE
  8
0
 10
48.8569
 20
14.7445
 11
49.0131
 21
14.7281
  0
LINE
  8
0
 10
49.0131
 20
14.7281
 11
49.1678
 21
14.7008
  0
LINE
  8
0
 10
49.1678
 20
14.7008
 11
49.3202
 21
14.6628
  0
LINE
  8
0
 10
49.3202
 20
14.6628
 11
49.4695
 21
14.6143
  0
LINE
  8
0
 10
49.4695
 20
14.6143
 11
49.6151
 21
14.5555
  0
LINE
  8
0
 10
49.6151
 20
14.5555
 11
49.7563
 21
14.4866
  0
LINE
  8
0
 10
49.7563
 20
14.4866
 11
49.8923
 21
14.4081
  0
LINE
  8
0
 10
49.8923
 20
14.4081
 11
50.0225
 21
14.3203
  0
LINE
  8
0
 10
50.0225
 20
14.3203
 11
50.1463
 21
14.2236
  0
LINE
  8
0
 10
50.1463
 20
14.2236
 11
50.263
 21
14.1185
  0
LINE
  8
0
 10
50.263
 20
14.1185
 11
50.3721
 21
14.0055
  0
LINE
  8
0
 10
50.3721
 20
14.0055
 11
50.473
 21
13.8852
  0
LINE
  8
0
 10
50.473
 20
13.8852
 11
50.5653
 21
13.7582
  0
LINE
  8
0
 10
50.5653
 20
13.7582
 11
50.6485
 21
13.625
  0
LINE
  8
0
 10
50.6485
 20
13.625
 11
50.7223
 21
13.4863
  0
LINE
  8
0
 10
50.7223
 20
13.4863
 11
50.7861
 21
13.3428
  0
LINE
  8
0
 10
50.7861
 20
13.3428
 11
50.8399
 21
13.1953
  0
LINE
  8
0
 10
50.8399
 20
13.1953
 11
50.8831
 21
13.0443
  0
LINE
  8
0
 10
50.8831
 20
13.0443
 11
50.9158
 21
12.8907
  0
LINE
  8
0
 10
50.9158
 20
12.8907
 11
50.9377
 21
12.7352
  0
LINE
  8
0
 10
50.9377
 20
12.7352
 11
50.9486
 21
12.5785
  0
LINE
  8
0
 10
50.9486
 20
12.5785
 11
50.9486
 21
12.4215
  0
LINE
  8
0
 10
50.9486
 20
12.4215
 11
50.9377
 21
12.2648
  0
LINE
  8
0
 10
50.9377
 20
12.2648
 11
50.9158
 21
12.1093
  0
LINE
  8
0
 10
50.9158
 20
12.1093
 11
50.8831
 21
11.9557
  0
LINE
  8
0
 10
50.8831
 20
11.9557
 11
50.8399
 21
11.8047
  0
LINE
  8
0
 10
50.8399
 20
11.8047
 11
50.7861
 21
11.6571
  0
LINE
  8
0
 10
50.7861
 20
11.6571
 11
50.7223
 21
11.5137
  0
LINE
  8
0
 10
50.7223
 20
11.5137
 11
50.6485
 21
11.375
  0
LINE
  8
0
 10
50.6485
 20
11.375
 11
50.5653
 21
11.2418
  0
LINE
  8
0
 10
50.5653
 20
11.2418
 11
50.473
 21
11.1148
  0
LINE
  8
0
 10
50.473
 20
11.1148
 11
50.3721
 21
10.9944
  0
LINE
  8
0
 10
50.3721
 20
10.9944
 11
50.263
 21
10.8815
  0
LINE
  8
0
 10
50.263
 20
10.8815
 11
50.1463
 21
10.7764
  0
LINE
  8
0
 10
50.1463
 20
10.7764
 11
50.0225
 21
10.6797
  0
LINE
  8
0
 10
50.0225
 20
10.6797
 11
49.8923
 21
10.5919
  0
LINE
  8
0
 10
49.8923
 20
10.5919
 11
49.7563
 21
10.5134
  0
LINE
  8
0
 10
49.7563
 20
10.5134
 11
49.6151
 21
10.4445
  0
LINE
  8
0
 10
49.6151
 20
10.4445
 11
49.4695
 21
10.3857
  0
LINE
  8
0
 10
49.4695
 20
10.3857
 11
49.3202
 21
10.3372
  0
LINE
  8
0
 10
49.3202
 20
10.3372
 11
49.1678
 21
10.2992
  0
LINE
  8
0
 10
49.1678
 20
10.2992
 11
49.0131
 21
10.2719
  0
LINE
  8
0
 10
49.0131
 20
10.2719
 11
48.8569
 21
10.2555
  0
LINE
  8
0
 10
48.8569
 20
10.2555
 11
48.7
 21
10.25
  0
LINE
  8
0
 10
48.7
 20
10.25
 11
48.543
 21
10.2555
  0
LINE
  8
0
 10
-0.488586
 20
-13.9915
 11
-1.46339
 21
-13.9233
  0
LINE
  8
0
 10
-1.46339
 20
-13.9233
 11
-2.43106
 21
-13.7873
  0
LINE
  8
0
 10
-2.43106
 20
-13.7873
 11
-3.3869
 21
-13.5841
  0
LINE
  8
0
 10
-3.3869
 20
-13.5841
 11
-4.32623
 21
-13.3148
  0
LINE
  8
0
 10
-4.32623
 20
-13.3148
 11
-5.24449
 21
-12.9806
  0
LINE
  8
0
 10
-5.24449
 20
-12.9806
 11
-6.13719
 21
-12.5831
  0
LINE
  8
0
 10
-6.13719
 20
-12.5831
 11
-7
 21
-12.1243
  0
LINE
  8
0
 10
-7
 20
-12.1243
 11
-7.82869
 21
-11.6065
  0
LINE
  8
0
 10
-7.82869
 20
-11.6065
 11
-8.61925
 21
-11.0322
  0
LINE
  8
0
 10
-8.61925
 20
-11.0322
 11
-9.36783
 21
-10.404
  0
LINE
  8
0
 10
-9.36783
 20
-10.404
 11
-10.0708
 21
-9.7252
  0
LINE
  8
0
 10
-10.0708
 20
-9.7252
 11
-10.7246
 21
-8.99902
  0
LINE
  8
0
 10
-10.7246
 20
-8.99902
 11
-11.3262
 21
-8.22899
  0
LINE
  8
0
 10
-11.3262
 20
-8.22899
 11
-11.8727
 21
-7.41887
  0
LINE
  8
0
 10
-11.8727
 20
-7.41887
 11
-12.3613
 21
-6.5726
  0
LINE
  8
0
 10
-12.3613
 20
-6.5726
 11
-12.7896
 21
-5.69431
  0
LINE
  8
0
 10
-12.7896
 20
-5.69431
 11
-13.1557
 21
-4.78827
  0
LINE
  8
0
 10
-13.1557
 20
-4.78827
 11
-13.4577
 21
-3.85892
  0
LINE
  8
0
 10
-13.4577
 20
-3.85892
 11
-13.6941
 21
-2.91075
  0
LINE
  8
0
 10
-13.6941
 20
-2.91075
 11
-13.8637
 21
-1.94841
  0
LINE
  8
0
 10
-13.8637
 20
-1.94841
 11
-13.9659
 21
-0.976578
  0
LINE
  8
0
 10
-13.9659
 20
-0.976578
 11
-14
 21
0
  0
LINE
  8
0
 10
-14
 20
0
 11
-13.9659
 21
0.976578
  0
LINE
  8
0
 10
-13.9659
 20
0.976578
 11
-13.8637
 21
1.94841
  0
LINE
  8
0
 10
-13.8637
 20
1.94841
 11
-13.6941
 21
2.91075
  0
LINE
  8
0
 10
-13.6941
 20
2.91075
 11
-13.4577
 21
3.85892
  0
LINE
  8
0
 10
-13.4577
 20
3.85892
 11
-13.1557
 21
4.78827
  0
LINE
  8
0
 10
-13.1557
 20
4.78827
 11
-12.7896
 21
5.69431
  0
LINE
  8
0
 10
-12.7896
 20
5.69431
 11
-12.3613
 21
6.5726
  0
LINE
  8
0
 10
-12.3613
 20
6.5726
 11
-11.8727
 21
7.41887
  0
LINE
  8
0
 10
-11.8727
 20
7.41887
 11
-11.3262
 21
8.22899
  0
LINE
  8
0
 10
-11.3262
 20
8.22899
 11
-10.7246
 21
8.99902
  0
LINE
  8
0
 10
-10.7246
 20
8.99902
 11
-10.0708
 21
9.7252
  0
LINE
  8
0
 10
-10.0708
 20
9.7252
 11
-9.36783
 21
10.404
  0
LINE
  8
0
 10
-9.36783
 20
10.404
 11
-8.61925
 21
11.0322
  0
LINE
  8
0
 10
-8.61925
 20
11.0322
 11
-7.82869
 21
11.6065
  0
LINE
  8
0
 10
-7.82869
 20
11.6065
 11
-6.99998
 21
12.1243
  0
LINE
  8
0
 10
-6.99998
 20
12.1243
 11
-6.13719
 21
12.5831
  0
LINE
  8
0
 10
-6.13719
 20
12.5831
 11
-5.24449
 21
12.9806
  0
LINE
  8
0
 10
-5.24449
 20
12.9806
 11
-4.32623
 21
13.3148
  0
LINE
  8
0
 10
-4.32623
 20
13.3148
 11
-3.3869
 21
13.5841
  0
LINE
  8
0
 10
-3.3869
 20
13.5841
 11
-2.43106
 21
13.7873
  0
LINE
  8
0
 10
-2.43106
 20
13.7873
 11
-1.46339
 21
13.9233
  0
LINE
  8
0
 10
-1.46339
 20
13.9233
 11
-0.488586
 21
13.9915
  0
LINE
  8
0
 10
-0.488586
 20
13.9915
 11
0.488586
 21
13.9915
  0
LINE
  8
0
 10
0.488586
 20
13.9915
 11
1.46339
 21
13.9233
  0
LINE
  8
0
 10
1.46339
 20
13.9233
 11
2.43106
 21
13.7873
  0
LINE
  8
0
 10
2.43106
 20
13.7873
 11
3.3869
 21
13.5841
  0
LINE
  8
0
 10
3.3869
 20
13.5841
 11
4.32623
 21
13.3148
  0
LINE
  8
0
 10
4.32623
 20
13.3148
 11
5.24449
 21
12.9806
  0
LINE
  8
0
 10
5.24449
 20
12.9806
 11
6.13719
 21
12.5831
  0
LINE
  8
0
 10
6.13719
 20
12.5831
 11
7
 21
12.1243
  0
LINE
  8
0
 10
7
 20
12.1243
 11
7.82869
 21
11.6065
  0
LINE
  8
0
 10
7.82869
 20
11.6065
 11
8.61925
 21
11.0322
  0
LINE
  8
0
 10
8.61925
 20
11.0322
 11
9.36783
 21
10.404
  0
LINE
  8
0
 10
9.36783
 20
10.404
 11
10.0708
 21
9.7252
  0
LINE
  8
0
 10
10.0708
 20
9.7252
 11
10.7246
 21
8.99902
  0
LINE
  8
0
 10
10.7246
 20
8.99902
 11
11.3262
 21
8.22899
  0
LINE
  8
0
 10
11.3262
 20
8.22899
 11
11.8727
 21
7.41887
  0
LINE
  8
0
 10
11.8727
 20
7.41887
 11
12.3613
 21
6.5726
  0
LINE
  8
0
 10
12.3613
 20
6.5726
 11
12.7896
 21
5.69431
  0
LINE
  8
0
 10
12.7896
 20
5.69431
 11
13.1557
 21
4.78827
  0
LINE
  8
0
 10
13.1557
 20
4.78827
 11
13.4577
 21
3.85892
  0
LINE
  8
0
 10
13.4577
 20
3.85892
 11
13.6941
 21
2.91075
  0
LINE
  8
0
 10
13.6941
 20
2.91075
 11
13.8637
 21
1.94841
  0
LINE
  8
0
 10
13.8637
 20
1.94841
 11
13.9659
 21
0.976578
  0
LINE
  8
0
 10
13.9659
 20
0.976578
 11
14
 21
0
  0
LINE
  8
0
 10
14
 20
0
 11
13.9659
 21
-0.976578
  0
LINE
  8
0
 10
13.9659
 20
-0.976578
 11
13.8637
 21
-1.94841
  0
LINE
  8
0
 10
13.8637
 20
-1.94841
 11
13.6941
 21
-2.91075
  0
LINE
  8
0
 10
13.6941
 20
-2.91075
 11
13.4577
 21
-3.85892
  0
LINE
  8
0
 10
13.4577
 20
-3.85892
 11
13.1557
 21
-4.78827
  0
LINE
  8
0
 10
13.1557
 20
-4.78827
 11
12.7896
 21
-5.69431
  0
LINE
  8
0
 10
12.7896
 20
-5.69431
 11
12.3613
 21
-6.5726
  0
LINE
  8
0
 10
12.3613
 20
-6.5726
 11
11.8727
 21
-7.41887
  0
LINE
  8
0
 10
11.8727
 20
-7.41887
 11
11.3262
 21
-8.22899
  0
LINE
  8
0
 10
11.3262
 20
-8.22899
 11
10.7246
 21
-8.99902
  0
LINE
  8
0
 10
10.7246
 20
-8.99902
 11
10.0708
 21
-9.7252
  0
LINE
  8
0
 10
10.0708
 20
-9.7252
 11
9.36783
 21
-10.404
  0
LINE
  8
0
 10
9.36783
 20
-10.404
 11
8.61925
 21
-11.0322
  0
LINE
  8
0
 10
8.61925
 20
-11.0322
 11
7.82869
 21
-11.6065
  0
LINE
  8
0
 10
7.82869
 20
-11.6065
 11
7
 21
-12.1243
  0
LINE
  8
0
 10
7
 20
-12.1243
 11
6.13719
 21
-12.5831
  0
LINE
  8
0
 10
6.13719
 20
-12.5831
 11
5.24449
 21
-12.9806
  0
LINE
  8
0
 10
5.24449
 20
-12.9806
 11
4.32623
 21
-13.3148
  0
LINE
  8
0
 10
4.32623
 20
-13.3148
 11
3.3869
 21
-13.5841
  0
LINE
  8
0
 10
3.3869
 20
-13.5841
 11
2.43106
 21
-13.7873
  0
LINE
  8
0
 10
2.43106
 20
-13.7873
 11
1.46339
 21
-13.9233
  0
LINE
  8
0
 10
1.46339
 20
-13.9233
 11
0.488586
 21
-13.9915
  0
LINE
  8
0
 10
0.488586
 20
-13.9915
 11
-0.488586
 21
-13.9915
  0
LINE
  8
0
 10
-20.1087
 20
-3.83424
 11
-20.2999
 21
-3.8179
  0
LINE
  8
0
 10
-20.2999
 20
-3.8179
 11
-20.4896
 21
-3.78827
  0
LINE
  8
0
 10
-20.4896
 20
-3.78827
 11
-20.6767
 21
-3.74547
  0
LINE
  8
0
 10
-20.6767
 20
-3.74547
 11
-20.8604
 21
-3.68973
  0
LINE
  8
0
 10
-20.8604
 20
-3.68973
 11
-21.0397
 21
-3.62131
  0
LINE
  8
0
 10
-21.0397
 20
-3.62131
 11
-21.2138
 21
-3.54054
  0
LINE
  8
0
 10
-21.2138
 20
-3.54054
 11
-21.3819
 21
-3.44783
  0
LINE
  8
0
 10
-21.3819
 20
-3.44783
 11
-21.5431
 21
-3.34363
  0
LINE
  8
0
 10
-21.5431
 20
-3.34363
 11
-21.6966
 21
-3.22842
  0
LINE
  8
0
 10
-21.6966
 20
-3.22842
 11
-21.8418
 21
-3.10278
  0
LINE
  8
0
 10
-21.8418
 20
-3.10278
 11
-21.9777
 21
-2.96735
  0
LINE
  8
0
 10
-21.9777
 20
-2.96735
 11
-22.104
 21
-2.82274
  0
LINE
  8
0
 10
-22.104
 20
-2.82274
 11
-22.2198
 21
-2.66968
  0
LINE
  8
0
 10
-22.2198
 20
-2.66968
 11
-22.3247
 21
-2.50893
  0
LINE
  8
0
 10
-22.3247
 20
-2.50893
 11
-22.4181
 21
-2.34123
  0
LINE
  8
0
 10
-22.4181
 20
-2.34123
 11
-22.4996
 21
-2.16743
  0
LINE
  8
0
 10
-22.4996
 20
-2.16743
 11
-22.5687
 21
-1.98837
  0
LINE
  8
0
 10
-22.5687
 20
-1.98837
 11
-22.6252
 21
-1.80493
  0
LINE
  8
0
 10
-22.6252
 20
-1.80493
 11
-22.6688
 21
-1.618
  0
LINE
  8
0
 10
-22.6688
 20
-1.618
 11
-22.6992
 21
-1.42847
  0
LINE
  8
0
 10
-22.6992
 20
-1.42847
 11
-22.7163
 21
-1.23727
  0
LINE
  8
0
 10
-22.7163
 20
-1.23727
 11
-22.7197
 21
-1.06229
  0
LINE
  8
0
 10
-22.7197
 20
-1.06229
 11
-22.7327
 21
-0.887329
  0
LINE
  8
0
 10
-22.7327
 20
-0.887329
 11
-22.7334
 21
-0.712189
  0
LINE
  8
0
 10
-22.7334
 20
-0.712189
 11
-22.7436
 21
-0.537155
  0
LINE
  8
0
 10
-22.7436
 20
-0.537155
 11
-22.7417
 21
-0.361771
  0
LINE
  8
0
 10
-22.7417
 20
-0.361771
 11
-22.7492
 21
-0.186844
  0
LINE
  8
0
 10
-22.7492
 20
-0.186844
 11
-22.7445
 21
-0.0115509
  0
LINE
  8
0
 10
-22.7445
 20
-0.0115509
 11
-22.7494
 21
0.163483
  0
LINE
  8
0
 10
-22.7494
 20
0.163483
 11
-22.742
 21
0.338669
  0
LINE
  8
0
 10
-22.742
 20
0.338669
 11
-22.7442
 21
0.513794
  0
LINE
  8
0
 10
-22.7442
 20
0.513794
 11
-22.7341
 21
0.688644
  0
LINE
  8
0
 10
-22.7341
 20
0.688644
 11
-22.7336
 21
0.863968
  0
LINE
  8
0
 10
-22.7336
 20
0.863968
 11
-22.7208
 21
1.03871
  0
LINE
  8
0
 10
-22.7208
 20
1.03871
 11
-22.7176
 21
1.21396
  0
LINE
  8
0
 10
-22.7176
 20
1.21396
 11
-22.7021
 21
1.38846
  0
LINE
  8
0
 10
-22.7021
 20
1.38846
 11
-22.6962
 21
1.56366
  0
LINE
  8
0
 10
-22.6962
 20
1.56366
 11
-22.6781
 21
1.73779
  0
LINE
  8
0
 10
-22.6781
 20
1.73779
 11
-22.6694
 21
1.91298
  0
LINE
  8
0
 10
-22.6694
 20
1.91298
 11
-22.6486
 21
2.0869
  0
LINE
  8
0
 10
-22.6486
 20
2.0869
 11
-22.6373
 21
2.26184
  0
LINE
  8
0
 10
-22.6373
 20
2.26184
 11
-22.6138
 21
2.43547
  0
LINE
  8
0
 10
-22.6138
 20
2.43547
 11
-22.5997
 21
2.61017
  0
LINE
  8
0
 10
-22.5997
 20
2.61017
 11
-22.5736
 21
2.78337
  0
LINE
  8
0
 10
-22.5736
 20
2.78337
 11
-22.5569
 21
2.95789
  0
LINE
  8
0
 10
-22.5569
 20
2.95789
 11
-22.5281
 21
3.13062
  0
LINE
  8
0
 10
-22.5281
 20
3.13062
 11
-22.5087
 21
3.3049
  0
LINE
  8
0
 10
-22.5087
 20
3.3049
 11
-22.4772
 21
3.47723
  0
LINE
  8
0
 10
-22.4772
 20
3.47723
 11
-22.4551
 21
3.65112
  0
LINE
  8
0
 10
-22.4551
 20
3.65112
 11
-22.4209
 21
3.82326
  0
LINE
  8
0
 10
-22.4209
 20
3.82326
 11
-22.3962
 21
3.99648
  0
LINE
  8
0
 10
-22.3962
 20
3.99648
 11
-22.3594
 21
4.16785
  0
LINE
  8
0
 10
-22.3594
 20
4.16785
 11
-22.332
 21
4.3409
  0
LINE
  8
0
 10
-22.332
 20
4.3409
 11
-22.2926
 21
4.51161
  0
LINE
  8
0
 10
-22.2926
 20
4.51161
 11
-22.2625
 21
4.68428
  0
LINE
  8
0
 10
-22.2625
 20
4.68428
 11
-22.2205
 21
4.85414
  0
LINE
  8
0
 10
-22.2205
 20
4.85414
 11
-22.1877
 21
5.02655
  0
LINE
  8
0
 10
-22.1877
 20
5.02655
 11
-22.1431
 21
5.19604
  0
LINE
  8
0
 10
-22.1431
 20
5.19604
 11
-22.1077
 21
5.36763
  0
LINE
  8
0
 10
-22.1077
 20
5.36763
 11
-22.0604
 21
5.5365
  0
LINE
  8
0
 10
-22.0604
 20
5.5365
 11
-22.0224
 21
5.70744
  0
LINE
  8
0
 10
-22.0224
 20
5.70744
 11
-21.9725
 21
5.8755
  0
LINE
  8
0
 10
-21.9725
 20
5.8755
 11
-21.9319
 21
6.0459
  0
LINE
  8
0
 10
-21.9319
 20
6.0459
 11
-21.8795
 21
6.21313
  0
LINE
  8
0
 10
-21.8795
 20
6.21313
 11
-21.8362
 21
6.38292
  0
LINE
  8
0
 10
-21.8362
 20
6.38292
 11
-21.7812
 21
6.54936
  0
LINE
  8
0
 10
-21.7812
 20
6.54936
 11
-21.7353
 21
6.71841
  0
LINE
  8
0
 10
-21.7353
 20
6.71841
 11
-21.6777
 21
6.88409
  0
LINE
  8
0
 10
-21.6777
 20
6.88409
 11
-21.6293
 21
7.05234
  0
LINE
  8
0
 10
-21.6293
 20
7.05234
 11
-21.5692
 21
7.217
  0
LINE
  8
0
 10
-21.5692
 20
7.217
 11
-21.5181
 21
7.38457
  0
LINE
  8
0
 10
-21.5181
 20
7.38457
 11
-21.4555
 21
7.54828
  0
LINE
  8
0
 10
-21.4555
 20
7.54828
 11
-21.4019
 21
7.71507
  0
LINE
  8
0
 10
-21.4019
 20
7.71507
 11
-21.3367
 21
7.87784
  0
LINE
  8
0
 10
-21.3367
 20
7.87784
 11
-21.2805
 21
8.04372
  0
LINE
  8
0
 10
-21.2805
 20
8.04372
 11
-21.2129
 21
8.20529
  0
LINE
  8
0
 10
-21.2129
 20
8.20529
 11
-21.1541
 21
8.37048
  0
LINE
  8
0
 10
-21.1541
 20
8.37048
 11
-21.084
 21
8.53098
  0
LINE
  8
0
 10
-21.084
 20
8.53098
 11
-21.0227
 21
8.69525
  0
LINE
  8
0
 10
-21.0227
 20
8.69525
 11
-20.9502
 21
8.8546
  0
LINE
  8
0
 10
-20.9502
 20
8.8546
 11
-20.8863
 21
9.01796
  0
LINE
  8
0
 10
-20.8863
 20
9.01796
 11
-20.8112
 21
9.17641
  0
LINE
  8
0
 10
-20.8112
 20
9.17641
 11
-20.745
 21
9.33853
  0
LINE
  8
0
 10
-20.745
 20
9.33853
 11
-20.6674
 21
9.4959
  0
LINE
  8
0
 10
-20.6674
 20
9.4959
 11
-20.5987
 21
9.65688
  0
LINE
  8
0
 10
-20.5987
 20
9.65688
 11
-20.5188
 21
9.81287
  0
LINE
  8
0
 10
-20.5188
 20
9.81287
 11
-20.4475
 21
9.97295
  0
LINE
  8
0
 10
-20.4475
 20
9.97295
 11
-20.3574
 21
10.1424
  0
LINE
  8
0
 10
-20.3574
 20
10.1424
 11
-20.2557
 21
10.3052
  0
LINE
  8
0
 10
-20.2557
 20
10.3052
 11
-20.1429
 21
10.4605
  0
LINE
  8
0
 10
-20.1429
 20
10.4605
 11
-20.0195
 21
10.6075
  0
LINE
  8
0
 10
-20.0195
 20
10.6075
 11
-19.8862
 21
10.7456
  0
LINE
  8
0
 10
-19.8862
 20
10.7456
 11
-19.7435
 21
10.874
  0
LINE
  8
0
 10
-19.7435
 20
10.874
 11
-19.5923
 21
10.9922
  0
LINE
  8
0
 10
-19.5923
 20
10.9922
 11
-19.4332
 21
11.0995
  0
LINE
  8
0
 10
-19.4332
 20
11.0995
 11
-19.2669
 21
11.1955
  0
LINE
  8
0
 10
-19.2669
 20
11.1955
 11
-19.0944
 21
11.2797
  0
LINE
  8
0
 10
-19.0944
 20
11.2797
 11
-18.9164
 21
11.3516
  0
LINE
  8
0
 10
-18.9164
 20
11.3516
 11
-18.7339
 21
11.4109
  0
LINE
  8
0
 10
-18.7339
 20
11.4109
 11
-18.5476
 21
11.4573
  0
LINE
  8
0
 10
-18.5476
 20
11.4573
 11
-18.3586
 21
11.4907
  0
LINE
  8
0
 10
-18.3586
 20
11.4907
 11
-18.1677
 21
11.5107
  0
LINE
  8
0
 10
-18.1677
 20
11.5107
 11
-17.9759
 21
11.5174
  0
LINE
  8
0
 10
-17.9759
 20
11.5174
 11
-17.784
 21
11.5107
  0
LINE
  8
0
 10
-17.784
 20
11.5107
 11
-17.5931
 21
11.4906
  0
LINE
  8
0
 10
-17.5931
 20
11.4906
 11
-17.4041
 21
11.4573
  0
LINE
  8
0
 10
-17.4041
 20
11.4573
 11
-17.2179
 21
11.4109
  0
LINE
  8
0
 10
-17.2179
 20
11.4109
 11
-17.0353
 21
11.3516
  0
LINE
  8
0
 10
-17.0353
 20
11.3516
 11
-16.8573
 21
11.2797
  0
LINE
  8
0
 10
-16.8573
 20
11.2797
 11
-16.6848
 21
11.1955
  0
LINE
  8
0
 10
-16.6848
 20
11.1955
 11
-16.5186
 21
11.0995
  0
LINE
  8
0
 10
-16.5186
 20
11.0995
 11
-16.3595
 21
10.9922
  0
LINE
  8
0
 10
-16.3595
 20
10.9922
 11
-16.2082
 21
10.874
  0
LINE
  8
0
 10
-16.2082
 20
10.874
 11
-16.0656
 21
10.7456
  0
LINE
  8
0
 10
-16.0656
 20
10.7456
 11
-15.9322
 21
10.6075
  0
LINE
  8
0
 10
-15.9322
 20
10.6075
 11
-15.8088
 21
10.4605
  0
LINE
  8
0
 10
-15.8088
 20
10.4605
 11
-15.696
 21
10.3052
  0
LINE
  8
0
 10
-15.696
 20
10.3052
 11
-15.5943
 21
10.1424
  0
LINE
  8
0
 10
-15.5943
 20
10.1424
 11
-15.5042
 21
9.97293
  0
LINE
  8
0
 10
-15.5042
 20
9.97293
 11
-15.4261
 21
9.79758
  0
LINE
  8
0
 10
-15.4261
 20
9.79758
 11
-15.3605
 21
9.61722
  0
LINE
  8
0
 10
-15.3605
 20
9.61722
 11
-15.3075
 21
9.43269
  0
LINE
  8
0
 10
-15.3075
 20
9.43269
 11
-15.2677
 21
9.24495
  0
LINE
  8
0
 10
-15.2677
 20
9.24495
 11
-15.2409
 21
9.05487
  0
LINE
  8
0
 10
-15.2409
 20
9.05487
 11
-15.2275
 21
8.86339
  0
LINE
  8
0
 10
-15.2275
 20
8.86339
 11
-15.2275
 21
8.67143
  0
LINE
  8
0
 10
-15.2275
 20
8.67143
 11
-15.2409
 21
8.47997
  0
LINE
  8
0
 10
-15.2409
 20
8.47997
 11
-15.2676
 21
8.28989
  0
LINE
  8
0
 10
-15.2676
 20
8.28989
 11
-15.3076
 21
8.10213
  0
LINE
  8
0
 10
-15.3076
 20
8.10213
 11
-15.3605
 21
7.91762
  0
LINE
  8
0
 10
-15.3605
 20
7.91762
 11
-15.4261
 21
7.73724
  0
LINE
  8
0
 10
-15.4261
 20
7.73724
 11
-15.5042
 21
7.5619
  0
LINE
  8
0
 10
-15.5042
 20
7.5619
 11
-15.5666
 21
7.44447
  0
LINE
  8
0
 10
-15.5666
 20
7.44447
 11
-15.6188
 21
7.32224
  0
LINE
  8
0
 10
-15.6188
 20
7.32224
 11
-15.6794
 21
7.20389
  0
LINE
  8
0
 10
-15.6794
 20
7.20389
 11
-15.7297
 21
7.08086
  0
LINE
  8
0
 10
-15.7297
 20
7.08086
 11
-15.7885
 21
6.96164
  0
LINE
  8
0
 10
-15.7885
 20
6.96164
 11
-15.8369
 21
6.83778
  0
LINE
  8
0
 10
-15.8369
 20
6.83778
 11
-15.8938
 21
6.71762
  0
LINE
  8
0
 10
-15.8938
 20
6.71762
 11
-15.9403
 21
6.59309
  0
LINE
  8
0
 10
-15.9403
 20
6.59309
 11
-15.9954
 21
6.47205
  0
LINE
  8
0
 10
-15.9954
 20
6.47205
 11
-16.0399
 21
6.34685
  0
LINE
  8
0
 10
-16.0399
 20
6.34685
 11
-16.0931
 21
6.22499
  0
LINE
  8
0
 10
-16.0931
 20
6.22499
 11
-16.1358
 21
6.09909
  0
LINE
  8
0
 10
-16.1358
 20
6.09909
 11
-16.187
 21
5.97655
  0
LINE
  8
0
 10
-16.187
 20
5.97655
 11
-16.2278
 21
5.84988
  0
LINE
  8
0
 10
-16.2278
 20
5.84988
 11
-16.2772
 21
5.72647
  0
LINE
  8
0
 10
-16.2772
 20
5.72647
 11
-16.3159
 21
5.59929
  0
LINE
  8
0
 10
-16.3159
 20
5.59929
 11
-16.3635
 21
5.47513
  0
LINE
  8
0
 10
-16.3635
 20
5.47513
 11
-16.4002
 21
5.34738
  0
LINE
  8
0
 10
-16.4002
 20
5.34738
 11
-16.4458
 21
5.22247
  0
LINE
  8
0
 10
-16.4458
 20
5.22247
 11
-16.4806
 21
5.09419
  0
LINE
  8
0
 10
-16.4806
 20
5.09419
 11
-16.5243
 21
4.96855
  0
LINE
  8
0
 10
-16.5243
 20
4.96855
 11
-16.5571
 21
4.83978
  0
LINE
  8
0
 10
-16.5571
 20
4.83978
 11
-16.5988
 21
4.71358
  0
LINE
  8
0
 10
-16.5988
 20
4.71358
 11
-16.6297
 21
4.58424
  0
LINE
  8
0
 10
-16.6297
 20
4.58424
 11
-16.6694
 21
4.45746
  0
LINE
  8
0
 10
-16.6694
 20
4.45746
 11
-16.6983
 21
4.32761
  0
LINE
  8
0
 10
-16.6983
 20
4.32761
 11
-16.7361
 21
4.20016
  0
LINE
  8
0
 10
-16.7361
 20
4.20016
 11
-16.763
 21
4.06996
  0
LINE
  8
0
 10
-16.763
 20
4.06996
 11
-16.7988
 21
3.94197
  0
LINE
  8
0
 10
-16.7988
 20
3.94197
 11
-16.8237
 21
3.81134
  0
LINE
  8
0
 10
-16.8237
 20
3.81134
 11
-16.8575
 21
3.68286
  0
LINE
  8
0
 10
-16.8575
 20
3.68286
 11
-16.8804
 21
3.55182
  0
LINE
  8
0
 10
-16.8804
 20
3.55182
 11
-16.9123
 21
3.42273
  0
LINE
  8
0
 10
-16.9123
 20
3.42273
 11
-16.9331
 21
3.29144
  0
LINE
  8
0
 10
-16.9331
 20
3.29144
 11
-16.963
 21
3.16193
  0
LINE
  8
0
 10
-16.963
 20
3.16193
 11
-16.9817
 21
3.03029
  0
LINE
  8
0
 10
-16.9817
 20
3.03029
 11
-17.0096
 21
2.90024
  0
LINE
  8
0
 10
-17.0096
 20
2.90024
 11
-17.0264
 21
2.76843
  0
LINE
  8
0
 10
-17.0264
 20
2.76843
 11
-17.0523
 21
2.638
  0
LINE
  8
0
 10
-17.0523
 20
2.638
 11
-17.067
 21
2.50591
  0
LINE
  8
0
 10
-17.067
 20
2.50591
 11
-17.0909
 21
2.37512
  0
LINE
  8
0
 10
-17.0909
 20
2.37512
 11
-17.1036
 21
2.24278
  0
LINE
  8
0
 10
-17.1036
 20
2.24278
 11
-17.1254
 21
2.11159
  0
LINE
  8
0
 10
-17.1254
 20
2.11159
 11
-17.1361
 21
1.97914
  0
LINE
  8
0
 10
-17.1361
 20
1.97914
 11
-17.1559
 21
1.84767
  0
LINE
  8
0
 10
-17.1559
 20
1.84767
 11
-17.1645
 21
1.71501
  0
LINE
  8
0
 10
-17.1645
 20
1.71501
 11
-17.1823
 21
1.58334
  0
LINE
  8
0
 10
-17.1823
 20
1.58334
 11
-17.1889
 21
1.45049
  0
LINE
  8
0
 10
-17.1889
 20
1.45049
 11
-17.2047
 21
1.31851
  0
LINE
  8
0
 10
-17.2047
 20
1.31851
 11
-17.2092
 21
1.18561
  0
LINE
  8
0
 10
-17.2092
 20
1.18561
 11
-17.2229
 21
1.05341
  0
LINE
  8
0
 10
-17.2229
 20
1.05341
 11
-17.2254
 21
0.920471
  0
LINE
  8
0
 10
-17.2254
 20
0.920471
 11
-17.2371
 21
0.788055
  0
LINE
  8
0
 10
-17.2371
 20
0.788055
 11
-17.2375
 21
0.655106
  0
LINE
  8
0
 10
-17.2375
 20
0.655106
 11
-17.2472
 21
0.5224
  0
LINE
  8
0
 10
-17.2472
 20
0.5224
 11
-17.2456
 21
0.389587
  0
LINE
  8
0
 10
-17.2456
 20
0.389587
 11
-17.2532
 21
0.256882
  0
LINE
  8
0
 10
-17.2532
 20
0.256882
 11
-17.2495
 21
0.123962
  0
LINE
  8
0
 10
-17.2495
 20
0.123962
 11
-17.2551
 21
-0.00880432
  0
LINE
  8
0
 10
-17.2551
 20
-0.00880432
 11
-17.2494
 21
-0.141678
  0
LINE
  8
0
 10
-17.2494
 20
-0.141678
 11
-17.2529
 21
-0.274536
  0
LINE
  8
0
 10
-17.2529
 20
-0.274536
 11
-17.2452
 21
-0.407288
  0
LINE
  8
0
 10
-17.2452
 20
-0.407288
 11
-17.2467
 21
-0.540253
  0
LINE
  8
0
 10
-17.2467
 20
-0.540253
 11
-17.2369
 21
-0.672806
  0
LINE
  8
0
 10
-17.2369
 20
-0.672806
 11
-17.2363
 21
-0.805725
  0
LINE
  8
0
 10
-17.2363
 20
-0.805725
 11
-17.2244
 21
-0.938156
  0
LINE
  8
0
 10
-17.2244
 20
-0.938156
 11
-17.2207
 21
-1.13007
  0
LINE
  8
0
 10
-17.2207
 20
-1.13007
 11
-17.2304
 21
-1.32178
  0
LINE
  8
0
 10
-17.2304
 20
-1.32178
 11
-17.2534
 21
-1.51234
  0
LINE
  8
0
 10
-17.2534
 20
-1.51234
 11
-17.2896
 21
-1.70084
  0
LINE
  8
0
 10
-17.2896
 20
-1.70084
 11
-17.3389
 21
-1.88634
  0
LINE
  8
0
 10
-17.3389
 20
-1.88634
 11
-17.401
 21
-2.06795
  0
LINE
  8
0
 10
-17.401
 20
-2.06795
 11
-17.4756
 21
-2.2448
  0
LINE
  8
0
 10
-17.4756
 20
-2.2448
 11
-17.5624
 21
-2.41602
  0
LINE
  8
0
 10
-17.5624
 20
-2.41602
 11
-17.661
 21
-2.58073
  0
LINE
  8
0
 10
-17.661
 20
-2.58073
 11
-17.7708
 21
-2.7382
  0
LINE
  8
0
 10
-17.7708
 20
-2.7382
 11
-17.8912
 21
-2.88762
  0
LINE
  8
0
 10
-17.8912
 20
-2.88762
 11
-18.0219
 21
-3.02827
  0
LINE
  8
0
 10
-18.0219
 20
-3.02827
 11
-18.162
 21
-3.15947
  0
LINE
  8
0
 10
-18.162
 20
-3.15947
 11
-18.3109
 21
-3.28056
  0
LINE
  8
0
 10
-18.3109
 20
-3.28056
 11
-18.4679
 21
-3.39099
  0
LINE
  8
0
 10
-18.4679
 20
-3.39099
 11
-18.6322
 21
-3.49017
  0
LINE
  8
0
 10
-18.6322
 20
-3.49017
 11
-18.8031
 21
-3.57768
  0
LINE
  8
0
 10
-18.8031
 20
-3.57768
 11
-18.9796
 21
-3.65305
  0
LINE
  8
0
 10
-18.9796
 20
-3.65305
 11
-19.161
 21
-3.7159
  0
LINE
  8
0
 10
-19.161
 20
-3.7159
 11
-19.3463
 21
-3.76596
  0
LINE
  8
0
 10
-19.3463
 20
-3.76596
 11
-19.5346
 21
-3.80298
  0
LINE
  8
0
 10
-19.5346
 20
-3.80298
 11
-19.7251
 21
-3.82677
  0
LINE
  8
0
 10
-19.7251
 20
-3.82677
 11
-19.9167
 21
-3.8372
  0
LINE
  8
0
 10
-19.9167
 20
-3.8372
 11
-20.1087
 21
-3.83424
  0
LINE
  8
0
 10
57.3427
 20
6.59738
 11
57.1868
 21
6.61653
  0
LINE
  8
0
 10
57.1868
 20
6.61653
 11
57.0327
 21
6.6465
  0
LINE
  8
0
 10
57.0327
 20
6.6465
 11
56.881
 21
6.68715
  0
LINE
  8
0
 10
56.881
 20
6.68715
 11
56.7325
 21
6.73827
  0
LINE
  8
0
 10
56.7325
 20
6.73827
 11
56.5879
 21
6.79964
  0
LINE
  8
0
 10
56.5879
 20
6.79964
 11
56.448
 21
6.87093
  0
LINE
  8
0
 10
56.448
 20
6.87093
 11
56.3134
 21
6.95181
  0
LINE
  8
0
 10
56.3134
 20
6.95181
 11
56.1847
 21
7.0419
  0
LINE
  8
0
 10
56.1847
 20
7.0419
 11
56.0627
 21
7.14073
  0
LINE
  8
0
 10
56.0627
 20
7.14073
 11
55.9478
 21
7.24783
  0
LINE
  8
0
 10
55.9478
 20
7.24783
 11
55.8407
 21
7.3627
  0
LINE
  8
0
 10
55.8407
 20
7.3627
 11
55.7419
 21
7.48474
  0
LINE
  8
0
 10
55.7419
 20
7.48474
 11
55.6518
 21
7.61339
  0
LINE
  8
0
 10
55.6518
 20
7.61339
 11
55.5709
 21
7.748
  0
LINE
  8
0
 10
55.5709
 20
7.748
 11
55.4996
 21
7.88794
  0
LINE
  8
0
 10
55.4996
 20
7.88794
 11
55.4383
 21
8.0325
  0
LINE
  8
0
 10
55.4383
 20
8.0325
 11
55.3871
 21
8.18098
  0
LINE
  8
0
 10
55.3871
 20
8.18098
 11
55.3465
 21
8.33269
  0
LINE
  8
0
 10
55.3465
 20
8.33269
 11
55.3165
 21
8.48685
  0
LINE
  8
0
 10
55.3165
 20
8.48685
 11
55.2974
 21
8.64273
  0
LINE
  8
0
 10
55.2974
 20
8.64273
 11
55.2892
 21
8.79956
  0
LINE
  8
0
 10
55.2892
 20
8.79956
 11
55.2919
 21
8.95659
  0
LINE
  8
0
 10
55.2919
 20
8.95659
 11
55.3056
 21
9.11304
  0
LINE
  8
0
 10
55.3056
 20
9.11304
 11
55.3302
 21
9.26814
  0
LINE
  8
0
 10
55.3302
 20
9.26814
 11
55.3655
 21
9.42117
  0
LINE
  8
0
 10
55.3655
 20
9.42117
 11
55.4114
 21
9.57135
  0
LINE
  8
0
 10
55.4114
 20
9.57135
 11
55.4677
 21
9.71797
  0
LINE
  8
0
 10
55.4677
 20
9.71797
 11
55.5341
 21
9.86031
  0
LINE
  8
0
 10
55.5341
 20
9.86031
 11
55.6102
 21
9.99767
  0
LINE
  8
0
 10
55.6102
 20
9.99767
 11
55.6957
 21
10.1294
  0
LINE
  8
0
 10
55.6957
 20
10.1294
 11
55.7903
 21
10.2548
  0
LINE
  8
0
 10
55.7903
 20
10.2548
 11
55.8933
 21
10.3733
  0
LINE
  8
0
 10
55.8933
 20
10.3733
 11
56.0043
 21
10.4844
  0
LINE
  8
0
 10
56.0043
 20
10.4844
 11
56.1228
 21
10.5874
  0
LINE
  8
0
 10
56.1228
 20
10.5874
 11
56.2483
 21
10.6819
  0
LINE
  8
0
 10
56.2483
 20
10.6819
 11
56.38
 21
10.7675
  0
LINE
  8
0
 10
56.38
 20
10.7675
 11
56.5173
 21
10.8436
  0
LINE
  8
0
 10
56.5173
 20
10.8436
 11
56.6597
 21
10.91
  0
LINE
  8
0
 10
56.6597
 20
10.91
 11
56.8063
 21
10.9662
  0
LINE
  8
0
 10
56.8063
 20
10.9662
 11
56.9565
 21
11.0122
  0
LINE
  8
0
 10
56.9565
 20
11.0122
 11
57.1095
 21
11.0475
  0
LINE
  8
0
 10
57.1095
 20
11.0475
 11
57.2646
 21
11.0721
  0
LINE
  8
0
 10
57.2646
 20
11.0721
 11
57.4211
 21
11.0857
  0
LINE
  8
0
 10
57.4211
 20
11.0857
 11
57.5781
 21
11.0885
  0
LINE
  8
0
 10
57.5781
 20
11.0885
 11
57.7349
 21
11.0803
  0
LINE
  8
0
 10
57.7349
 20
11.0803
 11
57.8908
 21
11.0611
  0
LINE
  8
0
 10
57.8908
 20
11.0611
 11
58.045
 21
11.0312
  0
LINE
  8
0
 10
58.045
 20
11.0312
 11
58.1967
 21
10.9905
  0
LINE
  8
0
 10
58.1967
 20
10.9905
 11
58.3452
 21
10.9394
  0
LINE
  8
0
 10
58.3452
 20
10.9394
 11
58.4897
 21
10.878
  0
LINE
  8
0
 10
58.4897
 20
10.878
 11
58.6296
 21
10.8067
  0
LINE
  8
0
 10
58.6296
 20
10.8067
 11
58.7643
 21
10.7258
  0
LINE
  8
0
 10
58.7643
 20
10.7258
 11
58.8929
 21
10.6358
  0
LINE
  8
0
 10
58.8929
 20
10.6358
 11
59.015
 21
10.5369
  0
LINE
  8
0
 10
59.015
 20
10.5369
 11
59.1298
 21
10.4298
  0
LINE
  8
0
 10
59.1298
 20
10.4298
 11
59.2369
 21
10.315
  0
LINE
  8
0
 10
59.2369
 20
10.315
 11
59.3358
 21
10.1929
  0
LINE
  8
0
 10
59.3358
 20
10.1929
 11
59.4258
 21
10.0643
  0
LINE
  8
0
 10
59.4258
 20
10.0643
 11
59.5067
 21
9.92964
  0
LINE
  8
0
 10
59.5067
 20
9.92964
 11
59.578
 21
9.78972
  0
LINE
  8
0
 10
59.578
 20
9.78972
 11
59.6394
 21
9.64516
  0
LINE
  8
0
 10
59.6394
 20
9.64516
 11
59.6905
 21
9.49666
  0
LINE
  8
0
 10
59.6905
 20
9.49666
 11
59.7312
 21
9.34497
  0
LINE
  8
0
 10
59.7312
 20
9.34497
 11
59.7611
 21
9.19081
  0
LINE
  8
0
 10
59.7611
 20
9.19081
 11
59.7803
 21
9.03493
  0
LINE
  8
0
 10
59.7803
 20
9.03493
 11
59.7885
 21
8.8781
  0
LINE
  8
0
 10
59.7885
 20
8.8781
 11
59.7857
 21
8.72107
  0
LINE
  8
0
 10
59.7857
 20
8.72107
 11
59.772
 21
8.56462
  0
LINE
  8
0
 10
59.772
 20
8.56462
 11
59.7475
 21
8.4095
  0
LINE
  8
0
 10
59.7475
 20
8.4095
 11
59.7122
 21
8.25648
  0
LINE
  8
0
 10
59.7122
 20
8.25648
 11
59.6662
 21
8.10629
  0
LINE
  8
0
 10
59.6662
 20
8.10629
 11
59.61
 21
7.95969
  0
LINE
  8
0
 10
59.61
 20
7.95969
 11
59.5436
 21
7.81735
  0
LINE
  8
0
 10
59.5436
 20
7.81735
 11
59.4675
 21
7.67999
  0
LINE
  8
0
 10
59.4675
 20
7.67999
 11
59.3819
 21
7.54828
  0
LINE
  8
0
 10
59.3819
 20
7.54828
 11
59.2874
 21
7.42285
  0
LINE
  8
0
 10
59.2874
 20
7.42285
 11
59.1844
 21
7.30434
  0
LINE
  8
0
 10
59.1844
 20
7.30434
 11
59.0733
 21
7.19328
  0
LINE
  8
0
 10
59.0733
 20
7.19328
 11
58.9548
 21
7.09026
  0
LINE
  8
0
 10
58.9548
 20
7.09026
 11
58.8294
 21
6.99573
  0
LINE
  8
0
 10
58.8294
 20
6.99573
 11
58.6977
 21
6.9102
  0
LINE
  8
0
 10
58.6977
 20
6.9102
 11
58.5603
 21
6.83406
  0
LINE
  8
0
 10
58.5603
 20
6.83406
 11
58.418
 21
6.76768
  0
LINE
  8
0
 10
58.418
 20
6.76768
 11
58.2713
 21
6.71141
  0
LINE
  8
0
 10
58.2713
 20
6.71141
 11
58.1212
 21
6.6655
  0
LINE
  8
0
 10
58.1212
 20
6.6655
 11
57.9681
 21
6.63017
  0
LINE
  8
0
 10
57.9681
 20
6.63017
 11
57.813
 21
6.60559
  0
LINE
  8
0
 10
57.813
 20
6.60559
 11
57.6566
 21
6.5919
  0
LINE
  8
0
 10
57.6566
 20
6.5919
 11
57.4996
 21
6.58917
  0
LINE
  8
0
 10
57.4996
 20
6.58917
 11
57.3427
 21
6.59738
  0
LINE
  8
0
 10
39.7434
 20
6.5919
 11
39.587
 21
6.60559
  0
LINE
  8
0
 10
39.587
 20
6.60559
 11
39.4319
 21
6.63017
  0
LINE
  8
0
 10
39.4319
 20
6.63017
 11
39.2788
 21
6.6655
  0
LINE
  8
0
 10
39.2788
 20
6.6655
 11
39.1286
 21
6.71141
  0
LINE
  8
0
 10
39.1286
 20
6.71141
 11
38.982
 21
6.76768
  0
LINE
  8
0
 10
38.982
 20
6.76768
 11
38.8397
 21
6.83406
  0
LINE
  8
0
 10
38.8397
 20
6.83406
 11
38.7023
 21
6.9102
  0
LINE
  8
0
 10
38.7023
 20
6.9102
 11
38.5706
 21
6.99573
  0
LINE
  8
0
 10
38.5706
 20
6.99573
 11
38.4452
 21
7.09026
  0
LINE
  8
0
 10
38.4452
 20
7.09026
 11
38.3267
 21
7.19328
  0
LINE
  8
0
 10
38.3267
 20
7.19328
 11
38.2156
 21
7.30434
  0
LINE
  8
0
 10
38.2156
 20
7.30434
 11
38.1126
 21
7.42285
  0
LINE
  8
0
 10
38.1126
 20
7.42285
 11
38.0181
 21
7.54828
  0
LINE
  8
0
 10
38.0181
 20
7.54828
 11
37.9325
 21
7.67999
  0
LINE
  8
0
 10
37.9325
 20
7.67999
 11
37.8564
 21
7.81735
  0
LINE
  8
0
 10
37.8564
 20
7.81735
 11
37.79
 21
7.95969
  0
LINE
  8
0
 10
37.79
 20
7.95969
 11
37.7337
 21
8.10629
  0
LINE
  8
0
 10
37.7337
 20
8.10629
 11
37.6878
 21
8.25648
  0
LINE
  8
0
 10
37.6878
 20
8.25648
 11
37.6525
 21
8.4095
  0
LINE
  8
0
 10
37.6525
 20
8.4095
 11
37.6279
 21
8.56462
  0
LINE
  8
0
 10
37.6279
 20
8.56462
 11
37.6143
 21
8.72107
  0
LINE
  8
0
 10
37.6143
 20
8.72107
 11
37.6115
 21
8.8781
  0
LINE
  8
0
 10
37.6115
 20
8.8781
 11
37.6197
 21
9.03493
  0
LINE
  8
0
 10
37.6197
 20
9.03493
 11
37.6389
 21
9.19081
  0
LINE
  8
0
 10
37.6389
 20
9.19081
 11
37.6688
 21
9.34497
  0
LINE
  8
0
 10
37.6688
 20
9.34497
 11
37.7095
 21
9.49666
  0
LINE
  8
0
 10
37.7095
 20
9.49666
 11
37.7606
 21
9.64516
  0
LINE
  8
0
 10
37.7606
 20
9.64516
 11
37.822
 21
9.78972
  0
LINE
  8
0
 10
37.822
 20
9.78972
 11
37.8933
 21
9.92964
  0
LINE
  8
0
 10
37.8933
 20
9.92964
 11
37.9742
 21
10.0643
  0
LINE
  8
0
 10
37.9742
 20
10.0643
 11
38.0642
 21
10.1929
  0
LINE
  8
0
 10
38.0642
 20
10.1929
 11
38.1631
 21
10.315
  0
LINE
  8
0
 10
38.1631
 20
10.315
 11
38.2702
 21
10.4298
  0
LINE
  8
0
 10
38.2702
 20
10.4298
 11
38.385
 21
10.5369
  0
LINE
  8
0
 10
38.385
 20
10.5369
 11
38.5071
 21
10.6358
  0
LINE
  8
0
 10
38.5071
 20
10.6358
 11
38.6357
 21
10.7258
  0
LINE
  8
0
 10
38.6357
 20
10.7258
 11
38.7704
 21
10.8067
  0
LINE
  8
0
 10
38.7704
 20
10.8067
 11
38.9103
 21
10.878
  0
LINE
  8
0
 10
38.9103
 20
10.878
 11
39.0548
 21
10.9394
  0
LINE
  8
0
 10
39.0548
 20
10.9394
 11
39.2033
 21
10.9905
  0
LINE
  8
0
 10
39.2033
 20
10.9905
 11
39.355
 21
11.0312
  0
LINE
  8
0
 10
39.355
 20
11.0312
 11
39.5092
 21
11.0611
  0
LINE
  8
0
 10
39.5092
 20
11.0611
 11
39.6651
 21
11.0803
  0
LINE
  8
0
 10
39.6651
 20
11.0803
 11
39.8219
 21
11.0885
  0
LINE
  8
0
 10
39.8219
 20
11.0885
 11
39.9789
 21
11.0857
  0
LINE
  8
0
 10
39.9789
 20
11.0857
 11
40.1354
 21
11.0721
  0
LINE
  8
0
 10
40.1354
 20
11.0721
 11
40.2905
 21
11.0475
  0
LINE
  8
0
 10
40.2905
 20
11.0475
 11
40.4435
 21
11.0122
  0
LINE
  8
0
 10
40.4435
 20
11.0122
 11
40.5937
 21
10.9662
  0
LINE
  8
0
 10
40.5937
 20
10.9662
 11
40.7403
 21
10.91
  0
LINE
  8
0
 10
40.7403
 20
10.91
 11
40.8826
 21
10.8436
  0
LINE
  8
0
 10
40.8826
 20
10.8436
 11
41.02
 21
10.7675
  0
LINE
  8
0
 10
41.02
 20
10.7675
 11
41.1517
 21
10.6819
  0
LINE
  8
0
 10
41.1517
 20
10.6819
 11
41.2771
 21
10.5874
  0
LINE
  8
0
 10
41.2771
 20
10.5874
 11
41.3957
 21
10.4844
  0
LINE
  8
0
 10
41.3957
 20
10.4844
 11
41.5067
 21
10.3733
  0
LINE
  8
0
 10
41.5067
 20
10.3733
 11
41.6097
 21
10.2548
  0
LINE
  8
0
 10
41.6097
 20
10.2548
 11
41.7043
 21
10.1294
  0
LINE
  8
0
 10
41.7043
 20
10.1294
 11
41.7898
 21
9.99767
  0
LINE
  8
0
 10
41.7898
 20
9.99767
 11
41.8659
 21
9.86031
  0
LINE
  8
0
 10
41.8659
 20
9.86031
 11
41.9323
 21
9.71797
  0
LINE
  8
0
 10
41.9323
 20
9.71797
 11
41.9886
 21
9.57135
  0
LINE
  8
0
 10
41.9886
 20
9.57135
 11
42.0345
 21
9.42117
  0
LINE
  8
0
 10
42.0345
 20
9.42117
 11
42.0698
 21
9.26814
  0
LINE
  8
0
 10
42.0698
 20
9.26814
 11
42.0944
 21
9.11304
  0
LINE
  8
0
 10
42.0944
 20
9.11304
 11
42.1081
 21
8.95659
  0
LINE
  8
0
 10
42.1081
 20
8.95659
 11
42.1108
 21
8.79956
  0
LINE
  8
0
 10
42.1108
 20
8.79956
 11
42.1026
 21
8.64273
  0
LINE
  8
0
 10
42.1026
 20
8.64273
 11
42.0835
 21
8.48685
  0
LINE
  8
0
 10
42.0835
 20
8.48685
 11
42.0535
 21
8.33269
  0
LINE
  8
0
 10
42.0535
 20
8.33269
 11
42.0128
 21
8.18098
  0
LINE
  8
0
 10
42.0128
 20
8.18098
 11
41.9617
 21
8.0325
  0
LINE
  8
0
 10
41.9617
 20
8.0325
 11
41.9004
 21
7.88794
  0
LINE
  8
0
 10
41.9004
 20
7.88794
 11
41.8291
 21
7.748
  0
LINE
  8
0
 10
41.8291
 20
7.748
 11
41.7482
 21
7.61339
  0
LINE
  8
0
 10
41.7482
 20
7.61339
 11
41.6581
 21
7.48474
  0
LINE
  8
0
 10
41.6581
 20
7.48474
 11
41.5593
 21
7.3627
  0
LINE
  8
0
 10
41.5593
 20
7.3627
 11
41.4522
 21
7.24783
  0
LINE
  8
0
 10
41.4522
 20
7.24783
 11
41.3373
 21
7.14073
  0
LINE
  8
0
 10
41.3373
 20
7.14073
 11
41.2153
 21
7.0419
  0
LINE
  8
0
 10
41.2153
 20
7.0419
 11
41.0866
 21
6.95181
  0
LINE
  8
0
 10
41.0866
 20
6.95181
 11
40.952
 21
6.87093
  0
LINE
  8
0
 10
40.952
 20
6.87093
 11
40.8121
 21
6.79964
  0
LINE
  8
0
 10
40.8121
 20
6.79964
 11
40.6675
 21
6.73827
  0
LINE
  8
0
 10
40.6675
 20
6.73827
 11
40.519
 21
6.68715
  0
LINE
  8
0
 10
40.519
 20
6.68715
 11
40.3673
 21
6.6465
  0
LINE
  8
0
 10
40.3673
 20
6.6465
 11
40.2132
 21
6.61653
  0
LINE
  8
0
 10
40.2132
 20
6.61653
 11
40.0573
 21
6.59738
  0
LINE
  8
0
 10
40.0573
 20
6.59738
 11
39.9004
 21
6.58917
  0
LINE
  8
0
 10
39.9004
 20
6.58917
 11
39.7434
 21
6.5919
  0
LINE
  8
0
 10
48.4208
 20
-7.99512
 11
47.8638
 21
-7.95616
  0
LINE
  8
0
 10
47.8638
 20
-7.95616
 11
47.3108
 21
-7.87845
  0
LINE
  8
0
 10
47.3108
 20
-7.87845
 11
46.7646
 21
-7.76236
  0
LINE
  8
0
 10
46.7646
 20
-7.76236
 11
46.2279
 21
-7.60844
  0
LINE
  8
0
 10
46.2279
 20
-7.60844
 11
45.7032
 21
-7.41747
  0
LINE
  8
0
 10
45.7032
 20
-7.41747
 11
45.193
 21
-7.19034
  0
LINE
  8
0
 10
45.193
 20
-7.19034
 11
44.7
 21
-6.92819
  0
LINE
  8
0
 10
44.7
 20
-6.92819
 11
44.2265
 21
-6.63229
  0
LINE
  8
0
 10
44.2265
 20
-6.63229
 11
43.7747
 21
-6.30408
  0
LINE
  8
0
 10
43.7747
 20
-6.30408
 11
43.347
 21
-5.94514
  0
LINE
  8
0
 10
43.347
 20
-5.94514
 11
42.9453
 21
-5.55727
  0
LINE
  8
0
 10
42.9453
 20
-5.55727
 11
42.5717
 21
-5.14229
  0
LINE
  8
0
 10
42.5717
 20
-5.14229
 11
42.2279
 21
-4.70227
  0
LINE
  8
0
 10
42.2279
 20
-4.70227
 11
41.9156
 21
-4.23935
  0
LINE
  8
0
 10
41.9156
 20
-4.23935
 11
41.6364
 21
-3.75577
  0
LINE
  8
0
 10
41.6364
 20
-3.75577
 11
41.3916
 21
-3.25389
  0
LINE
  8
0
 10
41.3916
 20
-3.25389
 11
41.1825
 21
-2.73616
  0
LINE
  8
0
 10
41.1825
 20
-2.73616
 11
41.0099
 21
-2.20509
  0
LINE
  8
0
 10
41.0099
 20
-2.20509
 11
40.8748
 21
-1.66328
  0
LINE
  8
0
 10
40.8748
 20
-1.66328
 11
40.7779
 21
-1.11337
  0
LINE
  8
0
 10
40.7779
 20
-1.11337
 11
40.7195
 21
-0.558044
  0
LINE
  8
0
 10
40.7195
 20
-0.558044
 11
40.7
 21
0
  0
LINE
  8
0
 10
40.7
 20
0
 11
40.7195
 21
0.558044
  0
LINE
  8
0
 10
40.7195
 20
0.558044
 11
40.7779
 21
1.11337
  0
LINE
  8
0
 10
40.7779
 20
1.11337
 11
40.8748
 21
1.66328
  0
LINE
  8
0
 10
40.8748
 20
1.66328
 11
41.0099
 21
2.20509
  0
LINE
  8
0
 10
41.0099
 20
2.20509
 11
41.1825
 21
2.73616
  0
LINE
  8
0
 10
41.1825
 20
2.73616
 11
41.3916
 21
3.25389
  0
LINE
  8
0
 10
41.3916
 20
3.25389
 11
41.6364
 21
3.75577
  0
LINE
  8
0
 10
41.6364
 20
3.75577
 11
41.9156
 21
4.23935
  0
LINE
  8
0
 10
41.9156
 20
4.23935
 11
42.2279
 21
4.70227
  0
LINE
  8
0
 10
42.2279
 20
4.70227
 11
42.5717
 21
5.14229
  0
LINE
  8
0
 10
42.5717
 20
5.14229
 11
42.9453
 21
5.55727
  0
LINE
  8
0
 10
42.9453
 20
5.55727
 11
43.347
 21
5.94514
  0
LINE
  8
0
 10
43.347
 20
5.94514
 11
43.7747
 21
6.30408
  0
LINE
  8
0
 10
43.7747
 20
6.30408
 11
44.2265
 21
6.63229
  0
LINE
  8
0
 10
44.2265
 20
6.63229
 11
44.7
 21
6.92819
  0
LINE
  8
0
 10
44.7
 20
6.92819
 11
45.193
 21
7.19034
  0
LINE
  8
0
 10
45.193
 20
7.19034
 11
45.7032
 21
7.41747
  0
LINE
  8
0
 10
45.7032
 20
7.41747
 11
46.2279
 21
7.60844
  0
LINE
  8
0
 10
46.2279
 20
7.60844
 11
46.7646
 21
7.76236
  0
LINE
  8
0
 10
46.7646
 20
7.76236
 11
47.3108
 21
7.87845
  0
LINE
  8
0
 10
47.3108
 20
7.87845
 11
47.8638
 21
7.95616
  0
LINE
  8
0
 10
47.8638
 20
7.95616
 11
48.4208
 21
7.99512
  0
LINE
  8
0
 10
48.4208
 20
7.99512
 11
48.9792
 21
7.99512
  0
LINE
  8
0
 10
48.9792
 20
7.99512
 11
49.5362
 21
7.95616
  0
LINE
  8
0
 10
49.5362
 20
7.95616
 11
50.0892
 21
7.87845
  0
LINE
  8
0
 10
50.0892
 20
7.87845
 11
50.6354
 21
7.76236
  0
LINE
  8
0
 10
50.6354
 20
7.76236
 11
51.1721
 21
7.60844
  0
LINE
  8
0
 10
51.1721
 20
7.60844
 11
51.6968
 21
7.41747
  0
LINE
  8
0
 10
51.6968
 20
7.41747
 11
52.207
 21
7.19034
  0
LINE
  8
0
 10
52.207
 20
7.19034
 11
52.7
 21
6.92819
  0
LINE
  8
0
 10
52.7
 20
6.92819
 11
53.1735
 21
6.63229
  0
LINE
  8
0
 10
53.1735
 20
6.63229
 11
53.6253
 21
6.30408
  0
LINE
  8
0
 10
53.6253
 20
6.30408
 11
54.053
 21
5.94514
  0
LINE
  8
0
 10
54.053
 20
5.94514
 11
54.4547
 21
5.55727
  0
LINE
  8
0
 10
54.4547
 20
5.55727
 11
54.8283
 21
5.14229
  0
LINE
  8
0
 10
54.8283
 20
5.14229
 11
55.1721
 21
4.70227
  0
LINE
  8
0
 10
55.1721
 20
4.70227
 11
55.4844
 21
4.23935
  0
LINE
  8
0
 10
55.4844
 20
4.23935
 11
55.7636
 21
3.75577
  0
LINE
  8
0
 10
55.7636
 20
3.75577
 11
56.0083
 21
3.25389
  0
LINE
  8
0
 10
56.0083
 20
3.25389
 11
56.2175
 21
2.73616
  0
LINE
  8
0
 10
56.2175
 20
2.73616
 11
56.3901
 21
2.20509
  0
LINE
  8
0
 10
56.3901
 20
2.20509
 11
56.5252
 21
1.66328
  0
LINE
  8
0
 10
56.5252
 20
1.66328
 11
56.6221
 21
1.11337
  0
LINE
  8
0
 10
56.6221
 20
1.11337
 11
56.6805
 21
0.558044
  0
LINE
  8
0
 10
56.6805
 20
0.558044
 11
56.7
 21
0
  0
LINE
  8
0
 10
56.7
 20
0
 11
56.6805
 21
-0.558044
  0
LINE
  8
0
 10
56.6805
 20
-0.558044
 11
56.6221
 21
-1.11337
  0
LINE
  8
0
 10
56.6221
 20
-1.11337
 11
56.5252
 21
-1.66328
  0
LINE
  8
0
 10
56.5252
 20
-1.66328
 11
56.3901
 21
-2.20509
  0
LINE
  8
0
 10
56.3901
 20
-2.20509
 11
56.2175
 21
-2.73616
  0
LINE
  8
0
 10
56.2175
 20
-2.73616
 11
56.0083
 21
-3.25389
  0
LINE
  8
0
 10
56.0083
 20
-3.25389
 11
55.7636
 21
-3.75577
  0
LINE
  8
0
 10
55.7636
 20
-3.75577
 11
55.4844
 21
-4.23935
  0
LINE
  8
0
 10
55.4844
 20
-4.23935
 11
55.1721
 21
-4.70227
  0
LINE
  8
0
 10
55.1721
 20
-4.70227
 11
54.8283
 21
-5.14229
  0
LINE
  8
0
 10
54.8283
 20
-5.14229
 11
54.4547
 21
-5.55727
  0
LINE
  8
0
 10
54.4547
 20
-5.55727
 11
54.053
 21
-5.94514
  0
LINE
  8
0
 10
54.053
 20
-5.94514
 11
53.6253
 21
-6.30408
  0
LINE
  8
0
 10
53.6253
 20
-6.30408
 11
53.1735
 21
-6.63229
  0
LINE
  8
0
 10
53.1735
 20
-6.63229
 11
52.7
 21
-6.92819
  0
LINE
  8
0
 10
52.7
 20
-6.92819
 11
52.207
 21
-7.19034
  0
LINE
  8
0
 10
52.207
 20
-7.19034
 11
51.6968
 21
-7.41747
  0
LINE
  8
0
 10
51.6968
 20
-7.41747
 11
51.1721
 21
-7.60844
  0
LINE
  8
0
 10
51.1721
 20
-7.60844
 11
50.6354
 21
-7.76236
  0
LINE
  8
0
 10
50.6354
 20
-7.76236
 11
50.0892
 21
-7.87845
  0
LINE
  8
0
 10
50.0892
 20
-7.87845
 11
49.5362
 21
-7.95616
  0
LINE
  8
0
 10
49.5362
 20
-7.95616
 11
48.9792
 21
-7.99512
  0
LINE
  8
0
 10
48.9792
 20
-7.99512
 11
48.4208
 21
-7.99512
  0
LINE
  8
0
 10
17.784
 20
-11.5107
 11
17.5931
 21
-11.4906
  0
LINE
  8
0
 10
17.5931
 20
-11.4906
 11
17.4041
 21
-11.4573
  0
LINE
  8
0
 10
17.4041
 20
-11.4573
 11
17.2179
 21
-11.4109
  0
LINE
  8
0
 10
17.2179
 20
-11.4109
 11
17.0353
 21
-11.3516
  0
LINE
  8
0
 10
17.0353
 20
-11.3516
 11
16.8573
 21
-11.2797
  0
LINE
  8
0
 10
16.8573
 20
-11.2797
 11
16.6848
 21
-11.1955
  0
LINE
  8
0
 10
16.6848
 20
-11.1955
 11
16.5186
 21
-11.0995
  0
LINE
  8
0
 10
16.5186
 20
-11.0995
 11
16.3595
 21
-10.9922
  0
LINE
  8
0
 10
16.3595
 20
-10.9922
 11
16.2082
 21
-10.874
  0
LINE
  8
0
 10
16.2082
 20
-10.874
 11
16.0656
 21
-10.7456
  0
LINE
  8
0
 10
16.0656
 20
-10.7456
 11
15.9322
 21
-10.6075
  0
LINE
  8
0
 10
15.9322
 20
-10.6075
 11
15.8088
 21
-10.4605
  0
LINE
  8
0
 10
15.8088
 20
-10.4605
 11
15.696
 21
-10.3052
  0
LINE
  8
0
 10
15.696
 20
-10.3052
 11
15.5943
 21
-10.1424
  0
LINE
  8
0
 10
15.5943
 20
-10.1424
 11
15.5042
 21
-9.97293
  0
LINE
  8
0
 10
15.5042
 20
-9.97293
 11
15.4261
 21
-9.79758
  0
LINE
  8
0
 10
15.4261
 20
-9.79758
 11
15.3605
 21
-9.61722
  0
LINE
  8
0
 10
15.3605
 20
-9.61722
 11
15.3075
 21
-9.43269
  0
LINE
  8
0
 10
15.3075
 20
-9.43269
 11
15.2677
 21
-9.24495
  0
LINE
  8
0
 10
15.2677
 20
-9.24495
 11
15.2409
 21
-9.05487
  0
LINE
  8
0
 10
15.2409
 20
-9.05487
 11
15.2275
 21
-8.86339
  0
LINE
  8
0
 10
15.2275
 20
-8.86339
 11
15.2275
 21
-8.67143
  0
LINE
  8
0
 10
15.2275
 20
-8.67143
 11
15.2409
 21
-8.47997
  0
LINE
  8
0
 10
15.2409
 20
-8.47997
 11
15.2676
 21
-8.28989
  0
LINE
  8
0
 10
15.2676
 20
-8.28989
 11
15.3076
 21
-8.10213
  0
LINE
  8
0
 10
15.3076
 20
-8.10213
 11
15.3605
 21
-7.91762
  0
LINE
  8
0
 10
15.3605
 20
-7.91762
 11
15.4261
 21
-7.73724
  0
LINE
  8
0
 10
15.4261
 20
-7.73724
 11
15.5042
 21
-7.56189
  0
LINE
  8
0
 10
15.5042
 20
-7.56189
 11
15.5666
 21
-7.44449
  0
LINE
  8
0
 10
15.5666
 20
-7.44449
 11
15.6188
 21
-7.32224
  0
LINE
  8
0
 10
15.6188
 20
-7.32224
 11
15.6794
 21
-7.20389
  0
LINE
  8
0
 10
15.6794
 20
-7.20389
 11
15.7297
 21
-7.08086
  0
LINE
  8
0
 10
15.7297
 20
-7.08086
 11
15.7885
 21
-6.96164
  0
LINE
  8
0
 10
15.7885
 20
-6.96164
 11
15.8369
 21
-6.83778
  0
LINE
  8
0
 10
15.8369
 20
-6.83778
 11
15.8938
 21
-6.71762
  0
LINE
  8
0
 10
15.8938
 20
-6.71762
 11
15.9403
 21
-6.59309
  0
LINE
  8
0
 10
15.9403
 20
-6.59309
 11
15.9954
 21
-6.47205
  0
LINE
  8
0
 10
15.9954
 20
-6.47205
 11
16.0399
 21
-6.34685
  0
LINE
  8
0
 10
16.0399
 20
-6.34685
 11
16.0931
 21
-6.22499
  0
LINE
  8
0
 10
16.0931
 20
-6.22499
 11
16.1358
 21
-6.09909
  0
LINE
  8
0
 10
16.1358
 20
-6.09909
 11
16.187
 21
-5.97655
  0
LINE
  8
0
 10
16.187
 20
-5.97655
 11
16.2278
 21
-5.84988
  0
LINE
  8
0
 10
16.2278
 20
-5.84988
 11
16.2772
 21
-5.72647
  0
LINE
  8
0
 10
16.2772
 20
-5.72647
 11
16.3159
 21
-5.59929
  0
LINE
  8
0
 10
16.3159
 20
-5.59929
 11
16.3635
 21
-5.47513
  0
LINE
  8
0
 10
16.3635
 20
-5.47513
 11
16.4002
 21
-5.34738
  0
LINE
  8
0
 10
16.4002
 20
-5.34738
 11
16.4458
 21
-5.22247
  0
LINE
  8
0
 10
16.4458
 20
-5.22247
 11
16.4806
 21
-5.09419
  0
LINE
  8
0
 10
16.4806
 20
-5.09419
 11
16.5243
 21
-4.96855
  0
LINE
  8
0
 10
16.5243
 20
-4.96855
 11
16.5571
 21
-4.83978
  0
LINE
  8
0
 10
16.5571
 20
-4.83978
 11
16.5988
 21
-4.71358
  0
LINE
  8
0
 10
16.5988
 20
-4.71358
 11
16.6297
 21
-4.58424
  0
LINE
  8
0
 10
16.6297
 20
-4.58424
 11
16.6694
 21
-4.45746
  0
LINE
  8
0
 10
16.6694
 20
-4.45746
 11
16.6983
 21
-4.32761
  0
LINE
  8
0
 10
16.6983
 20
-4.32761
 11
16.7361
 21
-4.20016
  0
LINE
  8
0
 10
16.7361
 20
-4.20016
 11
16.763
 21
-4.06996
  0
LINE
  8
0
 10
16.763
 20
-4.06996
 11
16.7988
 21
-3.94197
  0
LINE
  8
0
 10
16.7988
 20
-3.94197
 11
16.8237
 21
-3.81134
  0
LINE
  8
0
 10
16.8237
 20
-3.81134
 11
16.8575
 21
-3.68286
  0
LINE
  8
0
 10
16.8575
 20
-3.68286
 11
16.8804
 21
-3.55182
  0
LINE
  8
0
 10
16.8804
 20
-3.55182
 11
16.9123
 21
-3.42273
  0
LINE
  8
0
 10
16.9123
 20
-3.42273
 11
16.9331
 21
-3.29144
  0
LINE
  8
0
 10
16.9331
 20
-3.29144
 11
16.963
 21
-3.16193
  0
LINE
  8
0
 10
16.963
 20
-3.16193
 11
16.9817
 21
-3.03029
  0
LINE
  8
0
 10
16.9817
 20
-3.03029
 11
17.0096
 21
-2.90024
  0
LINE
  8
0
 10
17.0096
 20
-2.90024
 11
17.0264
 21
-2.76843
  0
LINE
  8
0
 10
17.0264
 20
-2.76843
 11
17.0523
 21
-2.638
  0
LINE
  8
0
 10
17.0523
 20
-2.638
 11
17.067
 21
-2.50591
  0
LINE
  8
0
 10
17.067
 20
-2.50591
 11
17.0909
 21
-2.37512
  0
LINE
  8
0
 10
17.0909
 20
-2.37512
 11
17.1036
 21
-2.24278
  0
LINE
  8
0
 10
17.1036
 20
-2.24278
 11
17.1254
 21
-2.11159
  0
LINE
  8
0
 10
17.1254
 20
-2.11159
 11
17.1361
 21
-1.97914
  0
LINE
  8
0
 10
17.1361
 20
-1.97914
 11
17.1559
 21
-1.84767
  0
LINE
  8
0
 10
17.1559
 20
-1.84767
 11
17.1645
 21
-1.71501
  0
LINE
  8
0
 10
17.1645
 20
-1.71501
 11
17.1823
 21
-1.58334
  0
LINE
  8
0
 10
17.1823
 20
-1.58334
 11
17.1889
 21
-1.45049
  0
LINE
  8
0
 10
17.1889
 20
-1.45049
 11
17.2047
 21
-1.31851
  0
LINE
  8
0
 10
17.2047
 20
-1.31851
 11
17.2092
 21
-1.18561
  0
LINE
  8
0
 10
17.2092
 20
-1.18561
 11
17.2229
 21
-1.05341
  0
LINE
  8
0
 10
17.2229
 20
-1.05341
 11
17.2254
 21
-0.920471
  0
LINE
  8
0
 10
17.2254
 20
-0.920471
 11
17.2371
 21
-0.788055
  0
LINE
  8
0
 10
17.2371
 20
-0.788055
 11
17.2375
 21
-0.655106
  0
LINE
  8
0
 10
17.2375
 20
-0.655106
 11
17.2472
 21
-0.5224
  0
LINE
  8
0
 10
17.2472
 20
-0.5224
 11
17.2456
 21
-0.389587
  0
LINE
  8
0
 10
17.2456
 20
-0.389587
 11
17.2532
 21
-0.256882
  0
LINE
  8
0
 10
17.2532
 20
-0.256882
 11
17.2495
 21
-0.123962
  0
LINE
  8
0
 10
17.2495
 20
-0.123962
 11
17.2551
 21
0.00880432
  0
LINE
  8
0
 10
17.2551
 20
0.00880432
 11
17.2494
 21
0.141678
  0
LINE
  8
0
 10
17.2494
 20
0.141678
 11
17.2529
 21
0.274536
  0
LINE
  8
0
 10
17.2529
 20
0.274536
 11
17.2452
 21
0.407288
  0
LINE
  8
0
 10
17.2452
 20
0.407288
 11
17.2467
 21
0.540253
  0
LINE
  8
0
 10
17.2467
 20
0.540253
 11
17.2369
 21
0.672806
  0
LINE
  8
0
 10
17.2369
 20
0.672806
 11
17.2363
 21
0.805725
  0
LINE
  8
0
 10
17.2363
 20
0.805725
 11
17.2244
 21
0.938156
  0
LINE
  8
0
 10
17.2244
 20
0.938156
 11
17.2207
 21
1.13007
  0
LINE
  8
0
 10
17.2207
 20
1.13007
 11
17.2304
 21
1.32178
  0
LINE
  8
0
 10
17.2304
 20
1.32178
 11
17.2534
 21
1.51234
  0
LINE
  8
0
 10
17.2534
 20
1.51234
 11
17.2896
 21
1.70084
  0
LINE
  8
0
 10
17.2896
 20
1.70084
 11
17.3389
 21
1.88634
  0
LINE
  8
0
 10
17.3389
 20
1.88634
 11
17.401
 21
2.06795
  0
LINE
  8
0
 10
17.401
 20
2.06795
 11
17.4756
 21
2.2448
  0
LINE
  8
0
 10
17.4756
 20
2.2448
 11
17.5624
 21
2.41602
  0
LINE
  8
0
 10
17.5624
 20
2.41602
 11
17.661
 21
2.58073
  0
LINE
  8
0
 10
17.661
 20
2.58073
 11
17.7708
 21
2.7382
  0
LINE
  8
0
 10
17.7708
 20
2.7382
 11
17.8912
 21
2.88762
  0
LINE
  8
0
 10
17.8912
 20
2.88762
 11
18.0219
 21
3.02827
  0
LINE
  8
0
 10
18.0219
 20
3.02827
 11
18.162
 21
3.15947
  0
LINE
  8
0
 10
18.162
 20
3.15947
 11
18.3109
 21
3.28056
  0
LINE
  8
0
 10
18.3109
 20
3.28056
 11
18.4679
 21
3.39099
  0
LINE
  8
0
 10
18.4679
 20
3.39099
 11
18.6322
 21
3.49017
  0
LINE
  8
0
 10
18.6322
 20
3.49017
 11
18.8031
 21
3.57768
  0
LINE
  8
0
 10
18.8031
 20
3.57768
 11
18.9796
 21
3.65305
  0
LINE
  8
0
 10
18.9796
 20
3.65305
 11
19.161
 21
3.7159
  0
LINE
  8
0
 10
19.161
 20
3.7159
 11
19.3463
 21
3.76596
  0
LINE
  8
0
 10
19.3463
 20
3.76596
 11
19.5346
 21
3.80298
  0
LINE
  8
0
 10
19.5346
 20
3.80298
 11
19.7251
 21
3.82677
  0
LINE
  8
0
 10
19.7251
 20
3.82677
 11
19.9167
 21
3.8372
  0
LINE
  8
0
 10
19.9167
 20
3.8372
 11
20.1087
 21
3.83424
  0
LINE
  8
0
 10
20.1087
 20
3.83424
 11
20.2999
 21
3.8179
  0
LINE
  8
0
 10
20.2999
 20
3.8179
 11
20.4896
 21
3.78827
  0
LINE
  8
0
 10
20.4896
 20
3.78827
 11
20.6767
 21
3.74547
  0
LINE
  8
0
 10
20.6767
 20
3.74547
 11
20.8604
 21
3.68973
  0
LINE
  8
0
 10
20.8604
 20
3.68973
 11
21.0397
 21
3.62131
  0
LINE
  8
0
 10
21.0397
 20
3.62131
 11
21.2138
 21
3.54054
  0
LINE
  8
0
 10
21.2138
 20
3.54054
 11
21.3819
 21
3.44783
  0
LINE
  8
0
 10
21.3819
 20
3.44783
 11
21.5431
 21
3.34363
  0
LINE
  8
0
 10
21.5431
 20
3.34363
 11
21.6966
 21
3.22842
  0
LINE
  8
0
 10
21.6966
 20
3.22842
 11
21.8418
 21
3.10278
  0
LINE
  8
0
 10
21.8418
 20
3.10278
 11
21.9777
 21
2.96735
  0
LINE
  8
0
 10
21.9777
 20
2.96735
 11
22.104
 21
2.82274
  0
LINE
  8
0
 10
22.104
 20
2.82274
 11
22.2198
 21
2.66968
  0
LINE
  8
0
 10
22.2198
 20
2.66968
 11
22.3247
 21
2.50893
  0
LINE
  8
0
 10
22.3247
 20
2.50893
 11
22.4181
 21
2.34123
  0
LINE
  8
0
 10
22.4181
 20
2.34123
 11
22.4996
 21
2.16743
  0
LINE
  8
0
 10
22.4996
 20
2.16743
 11
22.5687
 21
1.98837
  0
LINE
  8
0
 10
22.5687
 20
1.98837
 11
22.6252
 21
1.80493
  0
LINE
  8
0
 10
22.6252
 20
1.80493
 11
22.6688
 21
1.618
  0
LINE
  8
0
 10
22.6688
 20
1.618
 11
22.6992
 21
1.42847
  0
LINE
  8
0
 10
22.6992
 20
1.42847
 11
22.7163
 21
1.23727
  0
LINE
  8
0
 10
22.7163
 20
1.23727
 11
22.7197
 21
1.06229
  0
LINE
  8
0
 10
22.7197
 20
1.06229
 11
22.7327
 21
0.887329
  0
LINE
  8
0
 10
22.7327
 20
0.887329
 11
22.7334
 21
0.712189
  0
LINE
  8
0
 10
22.7334
 20
0.712189
 11
22.7436
 21
0.537155
  0
LINE
  8
0
 10
22.7436
 20
0.537155
 11
22.7417
 21
0.361771
  0
LINE
  8
0
 10
22.7417
 20
0.361771
 11
22.7492
 21
0.186844
  0
LINE
  8
0
 10
22.7492
 20
0.186844
 11
22.7445
 21
0.0115509
  0
LINE
  8
0
 10
22.7445
 20
0.0115509
 11
22.7494
 21
-0.163483
  0
LINE
  8
0
 10
22.7494
 20
-0.163483
 11
22.742
 21
-0.338669
  0
LINE
  8
0
 10
22.742
 20
-0.338669
 11
22.7442
 21
-0.513794
  0
LINE
  8
0
 10
22.7442
 20
-0.513794
 11
22.7341
 21
-0.688644
  0
LINE
  8
0
 10
22.7341
 20
-0.688644
 11
22.7336
 21
-0.863968
  0
LINE
  8
0
 10
22.7336
 20
-0.863968
 11
22.7208
 21
-1.03871
  0
LINE
  8
0
 10
22.7208
 20
-1.03871
 11
22.7176
 21
-1.21396
  0
LINE
  8
0
 10
22.7176
 20
-1.21396
 11
22.7021
 21
-1.38846
  0
LINE
  8
0
 10
22.7021
 20
-1.38846
 11
22.6962
 21
-1.56366
  0
LINE
  8
0
 10
22.6962
 20
-1.56366
 11
22.6781
 21
-1.73779
  0
LINE
  8
0
 10
22.6781
 20
-1.73779
 11
22.6694
 21
-1.91298
  0
LINE
  8
0
 10
22.6694
 20
-1.91298
 11
22.6486
 21
-2.0869
  0
LINE
  8
0
 10
22.6486
 20
-2.0869
 11
22.6373
 21
-2.26184
  0
LINE
  8
0
 10
22.6373
 20
-2.26184
 11
22.6138
 21
-2.43547
  0
LINE
  8
0
 10
22.6138
 20
-2.43547
 11
22.5997
 21
-2.61017
  0
LINE
  8
0
 10
22.5997
 20
-2.61017
 11
22.5736
 21
-2.78337
  0
LINE
  8
0
 10
22.5736
 20
-2.78337
 11
22.5569
 21
-2.95789
  0
LINE
  8
0
 10
22.5569
 20
-2.95789
 11
22.5281
 21
-3.13062
  0
LINE
  8
0
 10
22.5281
 20
-3.13062
 11
22.5087
 21
-3.3049
  0
LINE
  8
0
 10
22.5087
 20
-3.3049
 11
22.4772
 21
-3.47723
  0
LINE
  8
0
 10
22.4772
 20
-3.47723
 11
22.4551
 21
-3.65112
  0
LINE
  8
0
 10
22.4551
 20
-3.65112
 11
22.4209
 21
-3.82326
  0
LINE
  8
0
 10
22.4209
 20
-3.82326
 11
22.3962
 21
-3.99648
  0
LINE
  8
0
 10
22.3962
 20
-3.99648
 11
22.3594
 21
-4.16785
  0
LINE
  8
0
 10
22.3594
 20
-4.16785
 11
22.332
 21
-4.3409
  0
LINE
  8
0
 10
22.332
 20
-4.3409
 11
22.2926
 21
-4.51161
  0
LINE
  8
0
 10
22.2926
 20
-4.51161
 11
22.2625
 21
-4.68428
  0
LINE
  8
0
 10
22.2625
 20
-4.68428
 11
22.2205
 21
-4.85414
  0
LINE
  8
0
 10
22.2205
 20
-4.85414
 11
22.1877
 21
-5.02655
  0
LINE
  8
0
 10
22.1877
 20
-5.02655
 11
22.1431
 21
-5.19604
  0
LINE
  8
0
 10
22.1431
 20
-5.19604
 11
22.1077
 21
-5.36763
  0
LINE
  8
0
 10
22.1077
 20
-5.36763
 11
22.0604
 21
-5.5365
  0
LINE
  8
0
 10
22.0604
 20
-5.5365
 11
22.0224
 21
-5.70744
  0
LINE
  8
0
 10
22.0224
 20
-5.70744
 11
21.9725
 21
-5.8755
  0
LINE
  8
0
 10
21.9725
 20
-5.8755
 11
21.9319
 21
-6.0459
  0
LINE
  8
0
 10
21.9319
 20
-6.0459
 11
21.8795
 21
-6.21313
  0
LINE
  8
0
 10
21.8795
 20
-6.21313
 11
21.8362
 21
-6.38292
  0
LINE
  8
0
 10
21.8362
 20
-6.38292
 11
21.7812
 21
-6.54936
  0
LINE
  8
0
 10
21.7812
 20
-6.54936
 11
21.7353
 21
-6.71841
  0
LINE
  8
0
 10
21.7353
 20
-6.71841
 11
21.6777
 21
-6.88409
  0
LINE
  8
0
 10
21.6777
 20
-6.88409
 11
21.6293
 21
-7.05234
  0
LINE
  8
0
 10
21.6293
 20
-7.05234
 11
21.5692
 21
-7.217
  0
LINE
  8
0
 10
21.5692
 20
-7.217
 11
21.5181
 21
-7.38457
  0
LINE
  8
0
 10
21.5181
 20
-7.38457
 11
21.4555
 21
-7.54828
  0
LINE
  8
0
 10
21.4555
 20
-7.54828
 11
21.4019
 21
-7.71507
  0
LINE
  8
0
 10
21.4019
 20
-7.71507
 11
21.3367
 21
-7.87784
  0
LINE
  8
0
 10
21.3367
 20
-7.87784
 11
21.2805
 21
-8.04372
  0
LINE
  8
0
 10
21.2805
 20
-8.04372
 11
21.2129
 21
-8.20529
  0
LINE
  8
0
 10
21.2129
 20
-8.20529
 11
21.1541
 21
-8.37048
  0
LINE
  8
0
 10
21.1541
 20
-8.37048
 11
21.084
 21
-8.53098
  0
LINE
  8
0
 10
21.084
 20
-8.53098
 11
21.0227
 21
-8.69525
  0
LINE
  8
0
 10
21.0227
 20
-8.69525
 11
20.9502
 21
-8.8546
  0
LINE
  8
0
 10
20.9502
 20
-8.8546
 11
20.8863
 21
-9.01796
  0
LINE
  8
0
 10
20.8863
 20
-9.01796
 11
20.8112
 21
-9.17641
  0
LINE
  8
0
 10
20.8112
 20
-9.17641
 11
20.745
 21
-9.33853
  0
LINE
  8
0
 10
20.745
 20
-9.33853
 11
20.6674
 21
-9.4959
  0
LINE
  8
0
 10
20.6674
 20
-9.4959
 11
20.5987
 21
-9.65688
  0
LINE
  8
0
 10
20.5987
 20
-9.65688
 11
20.5188
 21
-9.81287
  0
LINE
  8
0
 10
20.5188
 20
-9.81287
 11
20.4476
 21
-9.97293
  0
LINE
  8
0
 10
20.4476
 20
-9.97293
 11
20.3574
 21
-10.1424
  0
LINE
  8
0
 10
20.3574
 20
-10.1424
 11
20.2557
 21
-10.3052
  0
LINE
  8
0
 10
20.2557
 20
-10.3052
 11
20.1429
 21
-10.4605
  0
LINE
  8
0
 10
20.1429
 20
-10.4605
 11
20.0195
 21
-10.6075
  0
LINE
  8
0
 10
20.0195
 20
-10.6075
 11
19.8862
 21
-10.7456
  0
LINE
  8
0
 10
19.8862
 20
-10.7456
 11
19.7435
 21
-10.874
  0
LINE
  8
0
 10
19.7435
 20
-10.874
 11
19.5923
 21
-10.9922
  0
LINE
  8
0
 10
19.5923
 20
-10.9922
 11
19.4332
 21
-11.0995
  0
LINE
  8
0
 10
19.4332
 20
-11.0995
 11
19.2669
 21
-11.1955
  0
LINE
  8
0
 10
19.2669
 20
-11.1955
 11
19.0944
 21
-11.2797
  0
LINE
  8
0
 10
19.0944
 20
-11.2797
 11
18.9164
 21
-11.3516
  0
LINE
  8
0
 10
18.9164
 20
-11.3516
 11
18.7339
 21
-11.4109
  0
LINE
  8
0
 10
18.7339
 20
-11.4109
 11
18.5476
 21
-11.4573
  0
LINE
  8
0
 10
18.5476
 20
-11.4573
 11
18.3586
 21
-11.4907
  0
LINE
  8
0
 10
18.3586
 20
-11.4907
 11
18.1677
 21
-11.5107
  0
LINE
  8
0
 10
18.1677
 20
-11.5107
 11
17.9759
 21
-11.5174
  0
LINE
  8
0
 10
17.9759
 20
-11.5174
 11
17.784
 21
-11.5107
  0
LINE
  8
0
 10
61.1215
 20
-2.24863
 11
60.9648
 21
-2.23767
  0
LINE
  8
0
 10
60.9648
 20
-2.23767
 11
60.8093
 21
-2.21581
  0
LINE
  8
0
 10
60.8093
 20
-2.21581
 11
60.6557
 21
-2.18315
  0
LINE
  8
0
 10
60.6557
 20
-2.18315
 11
60.5047
 21
-2.13986
  0
LINE
  8
0
 10
60.5047
 20
-2.13986
 11
60.3571
 21
-2.08615
  0
LINE
  8
0
 10
60.3571
 20
-2.08615
 11
60.2137
 21
-2.02228
  0
LINE
  8
0
 10
60.2137
 20
-2.02228
 11
60.075
 21
-1.94855
  0
LINE
  8
0
 10
60.075
 20
-1.94855
 11
59.9418
 21
-1.86533
  0
LINE
  8
0
 10
59.9418
 20
-1.86533
 11
59.8148
 21
-1.77301
  0
LINE
  8
0
 10
59.8148
 20
-1.77301
 11
59.6944
 21
-1.67207
  0
LINE
  8
0
 10
59.6944
 20
-1.67207
 11
59.5815
 21
-1.56297
  0
LINE
  8
0
 10
59.5815
 20
-1.56297
 11
59.4764
 21
-1.44626
  0
LINE
  8
0
 10
59.4764
 20
-1.44626
 11
59.3797
 21
-1.32251
  0
LINE
  8
0
 10
59.3797
 20
-1.32251
 11
59.2919
 21
-1.19231
  0
LINE
  8
0
 10
59.2919
 20
-1.19231
 11
59.2134
 21
-1.0563
  0
LINE
  8
0
 10
59.2134
 20
-1.0563
 11
59.1445
 21
-0.915146
  0
LINE
  8
0
 10
59.1445
 20
-0.915146
 11
59.0857
 21
-0.769531
  0
LINE
  8
0
 10
59.0857
 20
-0.769531
 11
59.0372
 21
-0.620178
  0
LINE
  8
0
 10
59.0372
 20
-0.620178
 11
58.9992
 21
-0.467789
  0
LINE
  8
0
 10
58.9992
 20
-0.467789
 11
58.9719
 21
-0.313126
  0
LINE
  8
0
 10
58.9719
 20
-0.313126
 11
58.9555
 21
-0.156952
  0
LINE
  8
0
 10
58.9555
 20
-0.156952
 11
58.95
 21
0
  0
LINE
  8
0
 10
58.95
 20
0
 11
58.9555
 21
0.156952
  0
LINE
  8
0
 10
58.9555
 20
0.156952
 11
58.9719
 21
0.313126
  0
LINE
  8
0
 10
58.9719
 20
0.313126
 11
58.9992
 21
0.467789
  0
LINE
  8
0
 10
58.9992
 20
0.467789
 11
59.0372
 21
0.620178
  0
LINE
  8
0
 10
59.0372
 20
0.620178
 11
59.0857
 21
0.769531
  0
LINE
  8
0
 10
59.0857
 20
0.769531
 11
59.1445
 21
0.915146
  0
LINE
  8
0
 10
59.1445
 20
0.915146
 11
59.2134
 21
1.0563
  0
LINE
  8
0
 10
59.2134
 20
1.0563
 11
59.2919
 21
1.19231
  0
LINE
  8
0
 10
59.2919
 20
1.19231
 11
59.3797
 21
1.32251
  0
LINE
  8
0
 10
59.3797
 20
1.32251
 11
59.4764
 21
1.44626
  0
LINE
  8
0
 10
59.4764
 20
1.44626
 11
59.5815
 21
1.56297
  0
LINE
  8
0
 10
59.5815
 20
1.56297
 11
59.6944
 21
1.67207
  0
LINE
  8
0
 10
59.6944
 20
1.67207
 11
59.8148
 21
1.77301
  0
LINE
  8
0
 10
59.8148
 20
1.77301
 11
59.9418
 21
1.86533
  0
LINE
  8
0
 10
59.9418
 20
1.86533
 11
60.075
 21
1.94855
  0
LINE
  8
0
 10
60.075
 20
1.94855
 11
60.2137
 21
2.02228
  0
LINE
  8
0
 10
60.2137
 20
2.02228
 11
60.3571
 21
2.08615
  0
LINE
  8
0
 10
60.3571
 20
2.08615
 11
60.5047
 21
2.13986
  0
LINE
  8
0
 10
60.5047
 20
2.13986
 11
60.6557
 21
2.18315
  0
LINE
  8
0
 10
60.6557
 20
2.18315
 11
60.8093
 21
2.21581
  0
LINE
  8
0
 10
60.8093
 20
2.21581
 11
60.9648
 21
2.23767
  0
LINE
  8
0
 10
60.9648
 20
2.23767
 11
61.1215
 21
2.24863
  0
LINE
  8
0
 10
61.1215
 20
2.24863
 11
61.2785
 21
2.24863
  0
LINE
  8
0
 10
61.2785
 20
2.24863
 11
61.4352
 21
2.23767
  0
LINE
  8
0
 10
61.4352
 20
2.23767
 11
61.5907
 21
2.21581
  0
LINE
  8
0
 10
61.5907
 20
2.21581
 11
61.7443
 21
2.18315
  0
LINE
  8
0
 10
61.7443
 20
2.18315
 11
61.8953
 21
2.13986
  0
LINE
  8
0
 10
61.8953
 20
2.13986
 11
62.0428
 21
2.08615
  0
LINE
  8
0
 10
62.0428
 20
2.08615
 11
62.1863
 21
2.02228
  0
LINE
  8
0
 10
62.1863
 20
2.02228
 11
62.325
 21
1.94855
  0
LINE
  8
0
 10
62.325
 20
1.94855
 11
62.4582
 21
1.86533
  0
LINE
  8
0
 10
62.4582
 20
1.86533
 11
62.5852
 21
1.77301
  0
LINE
  8
0
 10
62.5852
 20
1.77301
 11
62.7055
 21
1.67207
  0
LINE
  8
0
 10
62.7055
 20
1.67207
 11
62.8185
 21
1.56297
  0
LINE
  8
0
 10
62.8185
 20
1.56297
 11
62.9236
 21
1.44626
  0
LINE
  8
0
 10
62.9236
 20
1.44626
 11
63.0203
 21
1.32251
  0
LINE
  8
0
 10
63.0203
 20
1.32251
 11
63.1081
 21
1.19231
  0
LINE
  8
0
 10
63.1081
 20
1.19231
 11
63.1866
 21
1.0563
  0
LINE
  8
0
 10
63.1866
 20
1.0563
 11
63.2555
 21
0.915146
  0
LINE
  8
0
 10
63.2555
 20
0.915146
 11
63.3143
 21
0.769531
  0
LINE
  8
0
 10
63.3143
 20
0.769531
 11
63.3628
 21
0.620178
  0
LINE
  8
0
 10
63.3628
 20
0.620178
 11
63.4008
 21
0.467789
  0
LINE
  8
0
 10
63.4008
 20
0.467789
 11
63.4281
 21
0.313126
  0
LINE
  8
0
 10
63.4281
 20
0.313126
 11
63.4445
 21
0.156952
  0
LINE
  8
0
 10
63.4445
 20
0.156952
 11
63.45
 21
0
  0
LINE
  8
0
 10
63.45
 20
0
 11
63.4445
 21
-0.156952
  0
LINE
  8
0
 10
63.4445
 20
-0.156952
 11
63.4281
 21
-0.313126
  0
LINE
  8
0
 10
63.4281
 20
-0.313126
 11
63.4008
 21
-0.467789
  0
LINE
  8
0
 10
63.4008
 20
-0.467789
 11
63.3628
 21
-0.620178
  0
LINE
  8
0
 10
63.3628
 20
-0.620178
 11
63.3143
 21
-0.769531
  0
LINE
  8
0
 10
63.3143
 20
-0.769531
 11
63.2555
 21
-0.915146
  0
LINE
  8
0
 10
63.2555
 20
-0.915146
 11
63.1866
 21
-1.0563
  0
LINE
  8
0
 10
63.1866
 20
-1.0563
 11
63.1081
 21
-1.19231
  0
LINE
  8
0
 10
63.1081
 20
-1.19231
 11
63.0203
 21
-1.32251
  0
LINE
  8
0
 10
63.0203
 20
-1.32251
 11
62.9236
 21
-1.44626
  0
LINE
  8
0
 10
62.9236
 20
-1.44626
 11
62.8185
 21
-1.56297
  0
LINE
  8
0
 10
62.8185
 20
-1.56297
 11
62.7055
 21
-1.67207
  0
LINE
  8
0
 10
62.7055
 20
-1.67207
 11
62.5852
 21
-1.77301
  0
LINE
  8
0
 10
62.5852
 20
-1.77301
 11
62.4582
 21
-1.86533
  0
LINE
  8
0
 10
62.4582
 20
-1.86533
 11
62.325
 21
-1.94855
  0
LINE
  8
0
 10
62.325
 20
-1.94855
 11
62.1863
 21
-2.02228
  0
LINE
  8
0
 10
62.1863
 20
-2.02228
 11
62.0428
 21
-2.08615
  0
LINE
  8
0
 10
62.0428
 20
-2.08615
 11
61.8953
 21
-2.13986
  0
LINE
  8
0
 10
61.8953
 20
-2.13986
 11
61.7443
 21
-2.18315
  0
LINE
  8
0
 10
61.7443
 20
-2.18315
 11
61.5907
 21
-2.21581
  0
LINE
  8
0
 10
61.5907
 20
-2.21581
 11
61.4352
 21
-2.23767
  0
LINE
  8
0
 10
61.4352
 20
-2.23767
 11
61.2785
 21
-2.24863
  0
LINE
  8
0
 10
61.2785
 20
-2.24863
 11
61.1215
 21
-2.24863
  0
LINE
  8
0
 10
36.1215
 20
-2.24863
 11
35.9648
 21
-2.23767
  0
LINE
  8
0
 10
35.9648
 20
-2.23767
 11
35.8093
 21
-2.21581
  0
LINE
  8
0
 10
35.8093
 20
-2.21581
 11
35.6557
 21
-2.18315
  0
LINE
  8
0
 10
35.6557
 20
-2.18315
 11
35.5047
 21
-2.13986
  0
LINE
  8
0
 10
35.5047
 20
-2.13986
 11
35.3571
 21
-2.08615
  0
LINE
  8
0
 10
35.3571
 20
-2.08615
 11
35.2137
 21
-2.02228
  0
LINE
  8
0
 10
35.2137
 20
-2.02228
 11
35.075
 21
-1.94855
  0
LINE
  8
0
 10
35.075
 20
-1.94855
 11
34.9418
 21
-1.86533
  0
LINE
  8
0
 10
34.9418
 20
-1.86533
 11
34.8148
 21
-1.77301
  0
LINE
  8
0
 10
34.8148
 20
-1.77301
 11
34.6945
 21
-1.67207
  0
LINE
  8
0
 10
34.6945
 20
-1.67207
 11
34.5815
 21
-1.56297
  0
LINE
  8
0
 10
34.5815
 20
-1.56297
 11
34.4764
 21
-1.44626
  0
LINE
  8
0
 10
34.4764
 20
-1.44626
 11
34.3797
 21
-1.32251
  0
LINE
  8
0
 10
34.3797
 20
-1.32251
 11
34.2919
 21
-1.19231
  0
LINE
  8
0
 10
34.2919
 20
-1.19231
 11
34.2134
 21
-1.0563
  0
LINE
  8
0
 10
34.2134
 20
-1.0563
 11
34.1445
 21
-0.915146
  0
LINE
  8
0
 10
34.1445
 20
-0.915146
 11
34.0857
 21
-0.769531
  0
LINE
  8
0
 10
34.0857
 20
-0.769531
 11
34.0372
 21
-0.620178
  0
LINE
  8
0
 10
34.0372
 20
-0.620178
 11
33.9992
 21
-0.467789
  0
LINE
  8
0
 10
33.9992
 20
-0.467789
 11
33.9719
 21
-0.313126
  0
LINE
  8
0
 10
33.9719
 20
-0.313126
 11
33.9555
 21
-0.156952
  0
LINE
  8
0
 10
33.9555
 20
-0.156952
 11
33.95
 21
0
  0
LINE
  8
0
 10
33.95
 20
0
 11
33.9555
 21
0.156952
  0
LINE
  8
0
 10
33.9555
 20
0.156952
 11
33.9719
 21
0.313126
  0
LINE
  8
0
 10
33.9719
 20
0.313126
 11
33.9992
 21
0.467789
  0
LINE
  8
0
 10
33.9992
 20
0.467789
 11
34.0372
 21
0.620178
  0
LINE
  8
0
 10
34.0372
 20
0.620178
 11
34.0857
 21
0.769531
  0
LINE
  8
0
 10
34.0857
 20
0.769531
 11
34.1445
 21
0.915146
  0
LINE
  8
0
 10
34.1445
 20
0.915146
 11
34.2134
 21
1.0563
  0
LINE
  8
0
 10
34.2134
 20
1.0563
 11
34.2919
 21
1.19231
  0
LINE
  8
0
 10
34.2919
 20
1.19231
 11
34.3797
 21
1.32251
  0
LINE
  8
0
 10
34.3797
 20
1.32251
 11
34.4764
 21
1.44626
  0
LINE
  8
0
 10
34.4764
 20
1.44626
 11
34.5815
 21
1.56297
  0
LINE
  8
0
 10
34.5815
 20
1.56297
 11
34.6945
 21
1.67207
  0
LINE
  8
0
 10
34.6945
 20
1.67207
 11
34.8148
 21
1.77301
  0
LINE
  8
0
 10
34.8148
 20
1.77301
 11
34.9418
 21
1.86533
  0
LINE
  8
0
 10
34.9418
 20
1.86533
 11
35.075
 21
1.94855
  0
LINE
  8
0
 10
35.075
 20
1.94855
 11
35.2137
 21
2.02228
  0
LINE
  8
0
 10
35.2137
 20
2.02228
 11
35.3571
 21
2.08615
  0
LINE
  8
0
 10
35.3571
 20
2.08615
 11
35.5047
 21
2.13986
  0
LINE
  8
0
 10
35.5047
 20
2.13986
 11
35.6557
 21
2.18315
  0
LINE
  8
0
 10
35.6557
 20
2.18315
 11
35.8093
 21
2.21581
  0
LINE
  8
0
 10
35.8093
 20
2.21581
 11
35.9648
 21
2.23767
  0
LINE
  8
0
 10
35.9648
 20
2.23767
 11
36.1215
 21
2.24863
  0
LINE
  8
0
 10
36.1215
 20
2.24863
 11
36.2785
 21
2.24863
  0
LINE
  8
0
 10
36.2785
 20
2.24863
 11
36.4352
 21
2.23767
  0
LINE
  8
0
 10
36.4352
 20
2.23767
 11
36.5907
 21
2.21581
  0
LINE
  8
0
 10
36.5907
 20
2.21581
 11
36.7443
 21
2.18315
  0
LINE
  8
0
 10
36.7443
 20
2.18315
 11
36.8953
 21
2.13986
  0
LINE
  8
0
 10
36.8953
 20
2.13986
 11
37.0429
 21
2.08615
  0
LINE
  8
0
 10
37.0429
 20
2.08615
 11
37.1863
 21
2.02228
  0
LINE
  8
0
 10
37.1863
 20
2.02228
 11
37.325
 21
1.94855
  0
LINE
  8
0
 10
37.325
 20
1.94855
 11
37.4582
 21
1.86533
  0
LINE
  8
0
 10
37.4582
 20
1.86533
 11
37.5852
 21
1.77301
  0
LINE
  8
0
 10
37.5852
 20
1.77301
 11
37.7056
 21
1.67207
  0
LINE
  8
0
 10
37.7056
 20
1.67207
 11
37.8185
 21
1.56297
  0
LINE
  8
0
 10
37.8185
 20
1.56297
 11
37.9236
 21
1.44626
  0
LINE
  8
0
 10
37.9236
 20
1.44626
 11
38.0203
 21
1.32251
  0
LINE
  8
0
 10
38.0203
 20
1.32251
 11
38.1081
 21
1.19231
  0
LINE
  8
0
 10
38.1081
 20
1.19231
 11
38.1866
 21
1.0563
  0
LINE
  8
0
 10
38.1866
 20
1.0563
 11
38.2555
 21
0.915146
  0
LINE
  8
0
 10
38.2555
 20
0.915146
 11
38.3143
 21
0.769531
  0
LINE
  8
0
 10
38.3143
 20
0.769531
 11
38.3628
 21
0.620178
  0
LINE
  8
0
 10
38.3628
 20
0.620178
 11
38.4008
 21
0.467789
  0
LINE
  8
0
 10
38.4008
 20
0.467789
 11
38.4281
 21
0.313126
  0
LINE
  8
0
 10
38.4281
 20
0.313126
 11
38.4445
 21
0.156952
  0
LINE
  8
0
 10
38.4445
 20
0.156952
 11
38.45
 21
0
  0
LINE
  8
0
 10
38.45
 20
0
 11
38.4445
 21
-0.156952
  0
LINE
  8
0
 10
38.4445
 20
-0.156952
 11
38.4281
 21
-0.313126
  0
LINE
  8
0
 10
38.4281
 20
-0.313126
 11
38.4008
 21
-0.467789
  0
LINE
  8
0
 10
38.4008
 20
-0.467789
 11
38.3628
 21
-0.620178
  0
LINE
  8
0
 10
38.3628
 20
-0.620178
 11
38.3143
 21
-0.769531
  0
LINE
  8
0
 10
38.3143
 20
-0.769531
 11
38.2555
 21
-0.915146
  0
LINE
  8
0
 10
38.2555
 20
-0.915146
 11
38.1866
 21
-1.0563
  0
LINE
  8
0
 10
38.1866
 20
-1.0563
 11
38.1081
 21
-1.19231
  0
LINE
  8
0
 10
38.1081
 20
-1.19231
 11
38.0203
 21
-1.32251
  0
LINE
  8
0
 10
38.0203
 20
-1.32251
 11
37.9236
 21
-1.44626
  0
LINE
  8
0
 10
37.9236
 20
-1.44626
 11
37.8185
 21
-1.56297
  0
LINE
  8
0
 10
37.8185
 20
-1.56297
 11
37.7056
 21
-1.67207
  0
LINE
  8
0
 10
37.7056
 20
-1.67207
 11
37.5852
 21
-1.77301
  0
LINE
  8
0
 10
37.5852
 20
-1.77301
 11
37.4582
 21
-1.86533
  0
LINE
  8
0
 10
37.4582
 20
-1.86533
 11
37.325
 21
-1.94855
  0
LINE
  8
0
 10
37.325
 20
-1.94855
 11
37.1863
 21
-2.02228
  0
LINE
  8
0
 10
37.1863
 20
-2.02228
 11
37.0429
 21
-2.08615
  0
LINE
  8
0
 10
37.0429
 20
-2.08615
 11
36.8953
 21
-2.13986
  0
LINE
  8
0
 10
36.8953
 20
-2.13986
 11
36.7443
 21
-2.18315
  0
LINE
  8
0
 10
36.7443
 20
-2.18315
 11
36.5907
 21
-2.21581
  0
LINE
  8
0
 10
36.5907
 20
-2.21581
 11
36.4352
 21
-2.23767
  0
LINE
  8
0
 10
36.4352
 20
-2.23767
 11
36.2785
 21
-2.24863
  0
LINE
  8
0
 10
36.2785
 20
-2.24863
 11
36.1215
 21
-2.24863
  0
LINE
  8
0
 10
39.6651
 20
-11.0803
 11
39.5092
 21
-11.0611
  0
LINE
  8
0
 10
39.5092
 20
-11.0611
 11
39.355
 21
-11.0312
  0
LINE
  8
0
 10
39.355
 20
-11.0312
 11
39.2033
 21
-10.9905
  0
LINE
  8
0
 10
39.2033
 20
-10.9905
 11
39.0548
 21
-10.9394
  0
LINE
  8
0
 10
39.0548
 20
-10.9394
 11
38.9103
 21
-10.878
  0
LINE
  8
0
 10
38.9103
 20
-10.878
 11
38.7704
 21
-10.8067
  0
LINE
  8
0
 10
38.7704
 20
-10.8067
 11
38.6357
 21
-10.7258
  0
LINE
  8
0
 10
38.6357
 20
-10.7258
 11
38.5071
 21
-10.6358
  0
LINE
  8
0
 10
38.5071
 20
-10.6358
 11
38.385
 21
-10.5369
  0
LINE
  8
0
 10
38.385
 20
-10.5369
 11
38.2702
 21
-10.4298
  0
LINE
  8
0
 10
38.2702
 20
-10.4298
 11
38.1631
 21
-10.315
  0
LINE
  8
0
 10
38.1631
 20
-10.315
 11
38.0642
 21
-10.1929
  0
LINE
  8
0
 10
38.0642
 20
-10.1929
 11
37.9742
 21
-10.0643
  0
LINE
  8
0
 10
37.9742
 20
-10.0643
 11
37.8933
 21
-9.92964
  0
LINE
  8
0
 10
37.8933
 20
-9.92964
 11
37.822
 21
-9.78972
  0
LINE
  8
0
 10
37.822
 20
-9.78972
 11
37.7606
 21
-9.64516
  0
LINE
  8
0
 10
37.7606
 20
-9.64516
 11
37.7095
 21
-9.49666
  0
LINE
  8
0
 10
37.7095
 20
-9.49666
 11
37.6688
 21
-9.34497
  0
LINE
  8
0
 10
37.6688
 20
-9.34497
 11
37.6389
 21
-9.19081
  0
LINE
  8
0
 10
37.6389
 20
-9.19081
 11
37.6197
 21
-9.03493
  0
LINE
  8
0
 10
37.6197
 20
-9.03493
 11
37.6115
 21
-8.8781
  0
LINE
  8
0
 10
37.6115
 20
-8.8781
 11
37.6143
 21
-8.72107
  0
LINE
  8
0
 10
37.6143
 20
-8.72107
 11
37.6279
 21
-8.56462
  0
LINE
  8
0
 10
37.6279
 20
-8.56462
 11
37.6525
 21
-8.4095
  0
LINE
  8
0
 10
37.6525
 20
-8.4095
 11
37.6878
 21
-8.25648
  0
LINE
  8
0
 10
37.6878
 20
-8.25648
 11
37.7337
 21
-8.10629
  0
LINE
  8
0
 10
37.7337
 20
-8.10629
 11
37.79
 21
-7.95969
  0
LINE
  8
0
 10
37.79
 20
-7.95969
 11
37.8564
 21
-7.81735
  0
LINE
  8
0
 10
37.8564
 20
-7.81735
 11
37.9325
 21
-7.67999
  0
LINE
  8
0
 10
37.9325
 20
-7.67999
 11
38.0181
 21
-7.54828
  0
LINE
  8
0
 10
38.0181
 20
-7.54828
 11
38.1126
 21
-7.42285
  0
LINE
  8
0
 10
38.1126
 20
-7.42285
 11
38.2156
 21
-7.30434
  0
LINE
  8
0
 10
38.2156
 20
-7.30434
 11
38.3267
 21
-7.19328
  0
LINE
  8
0
 10
38.3267
 20
-7.19328
 11
38.4452
 21
-7.09026
  0
LINE
  8
0
 10
38.4452
 20
-7.09026
 11
38.5706
 21
-6.99573
  0
LINE
  8
0
 10
38.5706
 20
-6.99573
 11
38.7023
 21
-6.9102
  0
LINE
  8
0
 10
38.7023
 20
-6.9102
 11
38.8397
 21
-6.83406
  0
LINE
  8
0
 10
38.8397
 20
-6.83406
 11
38.982
 21
-6.76768
  0
LINE
  8
0
 10
38.982
 20
-6.76768
 11
39.1286
 21
-6.71141
  0
LINE
  8
0
 10
39.1286
 20
-6.71141
 11
39.2788
 21
-6.6655
  0
LINE
  8
0
 10
39.2788
 20
-6.6655
 11
39.4319
 21
-6.63017
  0
LINE
  8
0
 10
39.4319
 20
-6.63017
 11
39.587
 21
-6.60559
  0
LINE
  8
0
 10
39.587
 20
-6.60559
 11
39.7434
 21
-6.5919
  0
LINE
  8
0
 10
39.7434
 20
-6.5919
 11
39.9004
 21
-6.58917
  0
LINE
  8
0
 10
39.9004
 20
-6.58917
 11
40.0573
 21
-6.59738
  0
LINE
  8
0
 10
40.0573
 20
-6.59738
 11
40.2132
 21
-6.61653
  0
LINE
  8
0
 10
40.2132
 20
-6.61653
 11
40.3673
 21
-6.6465
  0
LINE
  8
0
 10
40.3673
 20
-6.6465
 11
40.519
 21
-6.68715
  0
LINE
  8
0
 10
40.519
 20
-6.68715
 11
40.6675
 21
-6.73827
  0
LINE
  8
0
 10
40.6675
 20
-6.73827
 11
40.8121
 21
-6.79964
  0
LINE
  8
0
 10
40.8121
 20
-6.79964
 11
40.952
 21
-6.87093
  0
LINE
  8
0
 10
40.952
 20
-6.87093
 11
41.0866
 21
-6.95181
  0
LINE
  8
0
 10
41.0866
 20
-6.95181
 11
41.2153
 21
-7.0419
  0
LINE
  8
0
 10
41.2153
 20
-7.0419
 11
41.3373
 21
-7.14073
  0
LINE
  8
0
 10
41.3373
 20
-7.14073
 11
41.4522
 21
-7.24783
  0
LINE
  8
0
 10
41.4522
 20
-7.24783
 11
41.5593
 21
-7.3627
  0
LINE
  8
0
 10
41.5593
 20
-7.3627
 11
41.6581
 21
-7.48474
  0
LINE
  8
0
 10
41.6581
 20
-7.48474
 11
41.7482
 21
-7.61339
  0
LINE
  8
0
 10
41.7482
 20
-7.61339
 11
41.8291
 21
-7.748
  0
LINE
  8
0
 10
41.8291
 20
-7.748
 11
41.9004
 21
-7.88794
  0
LINE
  8
0
 10
41.9004
 20
-7.88794
 11
41.9617
 21
-8.0325
  0
LINE
  8
0
 10
41.9617
 20
-8.0325
 11
42.0128
 21
-8.18098
  0
LINE
  8
0
 10
42.0128
 20
-8.18098
 11
42.0535
 21
-8.33269
  0
LINE
  8
0
 10
42.0535
 20
-8.33269
 11
42.0835
 21
-8.48685
  0
LINE
  8
0
 10
42.0835
 20
-8.48685
 11
42.1026
 21
-8.64273
  0
LINE
  8
0
 10
42.1026
 20
-8.64273
 11
42.1108
 21
-8.79956
  0
LINE
  8
0
 10
42.1108
 20
-8.79956
 11
42.1081
 21
-8.95659
  0
LINE
  8
0
 10
42.1081
 20
-8.95659
 11
42.0944
 21
-9.11304
  0
LINE
  8
0
 10
42.0944
 20
-9.11304
 11
42.0698
 21
-9.26814
  0
LINE
  8
0
 10
42.0698
 20
-9.26814
 11
42.0345
 21
-9.42117
  0
LINE
  8
0
 10
42.0345
 20
-9.42117
 11
41.9886
 21
-9.57135
  0
LINE
  8
0
 10
41.9886
 20
-9.57135
 11
41.9323
 21
-9.71797
  0
LINE
  8
0
 10
41.9323
 20
-9.71797
 11
41.8659
 21
-9.86031
  0
LINE
  8
0
 10
41.8659
 20
-9.86031
 11
41.7898
 21
-9.99767
  0
LINE
  8
0
 10
41.7898
 20
-9.99767
 11
41.7043
 21
-10.1294
  0
LINE
  8
0
 10
41.7043
 20
-10.1294
 11
41.6097
 21
-10.2548
  0
LINE
  8
0
 10
41.6097
 20
-10.2548
 11
41.5067
 21
-10.3733
  0
LINE
  8
0
 10
41.5067
 20
-10.3733
 11
41.3957
 21
-10.4844
  0
LINE
  8
0
 10
41.3957
 20
-10.4844
 11
41.2771
 21
-10.5874
  0
LINE
  8
0
 10
41.2771
 20
-10.5874
 11
41.1517
 21
-10.6819
  0
LINE
  8
0
 10
41.1517
 20
-10.6819
 11
41.02
 21
-10.7675
  0
LINE
  8
0
 10
41.02
 20
-10.7675
 11
40.8826
 21
-10.8436
  0
LINE
  8
0
 10
40.8826
 20
-10.8436
 11
40.7403
 21
-10.91
  0
LINE
  8
0
 10
40.7403
 20
-10.91
 11
40.5937
 21
-10.9662
  0
LINE
  8
0
 10
40.5937
 20
-10.9662
 11
40.4435
 21
-11.0122
  0
LINE
  8
0
 10
40.4435
 20
-11.0122
 11
40.2905
 21
-11.0475
  0
LINE
  8
0
 10
40.2905
 20
-11.0475
 11
40.1354
 21
-11.0721
  0
LINE
  8
0
 10
40.1354
 20
-11.0721
 11
39.9789
 21
-11.0857
  0
LINE
  8
0
 10
39.9789
 20
-11.0857
 11
39.8219
 21
-11.0885
  0
LINE
  8
0
 10
39.8219
 20
-11.0885
 11
39.6651
 21
-11.0803
  0
LINE
  8
0
 10
57.4211
 20
-11.0857
 11
57.2646
 21
-11.0721
  0
LINE
  8
0
 10
57.2646
 20
-11.0721
 11
57.1095
 21
-11.0475
  0
LINE
  8
0
 10
57.1095
 20
-11.0475
 11
56.9565
 21
-11.0122
  0
LINE
  8
0
 10
56.9565
 20
-11.0122
 11
56.8063
 21
-10.9662
  0
LINE
  8
0
 10
56.8063
 20
-10.9662
 11
56.6597
 21
-10.91
  0
LINE
  8
0
 10
56.6597
 20
-10.91
 11
56.5173
 21
-10.8436
  0
LINE
  8
0
 10
56.5173
 20
-10.8436
 11
56.38
 21
-10.7675
  0
LINE
  8
0
 10
56.38
 20
-10.7675
 11
56.2483
 21
-10.6819
  0
LINE
  8
0
 10
56.2483
 20
-10.6819
 11
56.1228
 21
-10.5874
  0
LINE
  8
0
 10
56.1228
 20
-10.5874
 11
56.0043
 21
-10.4844
  0
LINE
  8
0
 10
56.0043
 20
-10.4844
 11
55.8933
 21
-10.3733
  0
LINE
  8
0
 10
55.8933
 20
-10.3733
 11
55.7903
 21
-10.2548
  0
LINE
  8
0
 10
55.7903
 20
-10.2548
 11
55.6957
 21
-10.1294
  0
LINE
  8
0
 10
55.6957
 20
-10.1294
 11
55.6102
 21
-9.99767
  0
LINE
  8
0
 10
55.6102
 20
-9.99767
 11
55.5341
 21
-9.86031
  0
LINE
  8
0
 10
55.5341
 20
-9.86031
 11
55.4677
 21
-9.71797
  0
LINE
  8
0
 10
55.4677
 20
-9.71797
 11
55.4114
 21
-9.57135
  0
LINE
  8
0
 10
55.4114
 20
-9.57135
 11
55.3655
 21
-9.42117
  0
LINE
  8
0
 10
55.3655
 20
-9.42117
 11
55.3302
 21
-9.26814
  0
LINE
  8
0
 10
55.3302
 20
-9.26814
 11
55.3056
 21
-9.11304
  0
LINE
  8
0
 10
55.3056
 20
-9.11304
 11
55.2919
 21
-8.95659
  0
LINE
  8
0
 10
55.2919
 20
-8.95659
 11
55.2892
 21
-8.79956
  0
LINE
  8
0
 10
55.2892
 20
-8.79956
 11
55.2974
 21
-8.64273
  0
LINE
  8
0
 10
55.2974
 20
-8.64273
 11
55.3165
 21
-8.48685
  0
LINE
  8
0
 10
55.3165
 20
-8.48685
 11
55.3465
 21
-8.33269
  0
LINE
  8
0
 10
55.3465
 20
-8.33269
 11
55.3871
 21
-8.18098
  0
LINE
  8
0
 10
55.3871
 20
-8.18098
 11
55.4383
 21
-8.0325
  0
LINE
  8
0
 10
55.4383
 20
-8.0325
 11
55.4996
 21
-7.88794
  0
LINE
  8
0
 10
55.4996
 20
-7.88794
 11
55.5709
 21
-7.748
  0
LINE
  8
0
 10
55.5709
 20
-7.748
 11
55.6518
 21
-7.61339
  0
LINE
  8
0
 10
55.6518
 20
-7.61339
 11
55.7419
 21
-7.48474
  0
LINE
  8
0
 10
55.7419
 20
-7.48474
 11
55.8407
 21
-7.3627
  0
LINE
  8
0
 10
55.8407
 20
-7.3627
 11
55.9478
 21
-7.24783
  0
LINE
  8
0
 10
55.9478
 20
-7.24783
 11
56.0627
 21
-7.14073
  0
LINE
  8
0
 10
56.0627
 20
-7.14073
 11
56.1847
 21
-7.0419
  0
LINE
  8
0
 10
56.1847
 20
-7.0419
 11
56.3134
 21
-6.95181
  0
LINE
  8
0
 10
56.3134
 20
-6.95181
 11
56.448
 21
-6.87093
  0
LINE
  8
0
 10
56.448
 20
-6.87093
 11
56.5879
 21
-6.79964
  0
LINE
  8
0
 10
56.5879
 20
-6.79964
 11
56.7325
 21
-6.73827
  0
LINE
  8
0
 10
56.7325
 20
-6.73827
 11
56.881
 21
-6.68715
  0
LINE
  8
0
 10
56.881
 20
-6.68715
 11
57.0327
 21
-6.6465
  0
LINE
  8
0
 10
57.0327
 20
-6.6465
 11
57.1868
 21
-6.61653
  0
LINE
  8
0
 10
57.1868
 20
-6.61653
 11
57.3427
 21
-6.59738
  0
LINE
  8
0
 10
57.3427
 20
-6.59738
 11
57.4996
 21
-6.58917
  0
LINE
  8
0
 10
57.4996
 20
-6.58917
 11
57.6566
 21
-6.5919
  0
LINE
  8
0
 10
57.6566
 20
-6.5919
 11
57.813
 21
-6.60559
  0
LINE
  8
0
 10
57.813
 20
-6.60559
 11
57.9681
 21
-6.63017
  0
LINE
  8
0
 10
57.9681
 20
-6.63017
 11
58.1212
 21
-6.6655
  0
LINE
  8
0
 10
58.1212
 20
-6.6655
 11
58.2713
 21
-6.71141
  0
LINE
  8
0
 10
58.2713
 20
-6.71141
 11
58.418
 21
-6.76768
  0
LINE
  8
0
 10
58.418
 20
-6.76768
 11
58.5603
 21
-6.83406
  0
LINE
  8
0
 10
58.5603
 20
-6.83406
 11
58.6977
 21
-6.9102
  0
LINE
  8
0
 10
58.6977
 20
-6.9102
 11
58.8294
 21
-6.99573
  0
LINE
  8
0
 10
58.8294
 20
-6.99573
 11
58.9548
 21
-7.09026
  0
LINE
  8
0
 10
58.9548
 20
-7.09026
 11
59.0733
 21
-7.19328
  0
LINE
  8
0
 10
59.0733
 20
-7.19328
 11
59.1844
 21
-7.30434
  0
LINE
  8
0
 10
59.1844
 20
-7.30434
 11
59.2874
 21
-7.42285
  0
LINE
  8
0
 10
59.2874
 20
-7.42285
 11
59.3819
 21
-7.54828
  0
LINE
  8
0
 10
59.3819
 20
-7.54828
 11
59.4675
 21
-7.67999
  0
LINE
  8
0
 10
59.4675
 20
-7.67999
 11
59.5436
 21
-7.81735
  0
LINE
  8
0
 10
59.5436
 20
-7.81735
 11
59.61
 21
-7.95969
  0
LINE
  8
0
 10
59.61
 20
-7.95969
 11
59.6662
 21
-8.10629
  0
LINE
  8
0
 10
59.6662
 20
-8.10629
 11
59.7122
 21
-8.25648
  0
LINE
  8
0
 10
59.7122
 20
-8.25648
 11
59.7475
 21
-8.4095
  0
LINE
  8
0
 10
59.7475
 20
-8.4095
 11
59.772
 21
-8.56462
  0
LINE
  8
0
 10
59.772
 20
-8.56462
 11
59.7857
 21
-8.72107
  0
LINE
  8
0
 10
59.7857
 20
-8.72107
 11
59.7885
 21
-8.8781
  0
LINE
  8
0
 10
59.7885
 20
-8.8781
 11
59.7803
 21
-9.03493
  0
LINE
  8
0
 10
59.7803
 20
-9.03493
 11
59.7611
 21
-9.19081
  0
LINE
  8
0
 10
59.7611
 20
-9.19081
 11
59.7312
 21
-9.34497
  0
LINE
  8
0
 10
59.7312
 20
-9.34497
 11
59.6905
 21
-9.49666
  0
LINE
  8
0
 10
59.6905
 20
-9.49666
 11
59.6394
 21
-9.64516
  0
LINE
  8
0
 10
59.6394
 20
-9.64516
 11
59.578
 21
-9.78972
  0
LINE
  8
0
 10
59.578
 20
-9.78972
 11
59.5067
 21
-9.92964
  0
LINE
  8
0
 10
59.5067
 20
-9.92964
 11
59.4258
 21
-10.0643
  0
LINE
  8
0
 10
59.4258
 20
-10.0643
 11
59.3358
 21
-10.1929
  0
LINE
  8
0
 10
59.3358
 20
-10.1929
 11
59.2369
 21
-10.315
  0
LINE
  8
0
 10
59.2369
 20
-10.315
 11
59.1298
 21
-10.4298
  0
LINE
  8
0
 10
59.1298
 20
-10.4298
 11
59.015
 21
-10.5369
  0
LINE
  8
0
 10
59.015
 20
-10.5369
 11
58.8929
 21
-10.6358
  0
LINE
  8
0
 10
58.8929
 20
-10.6358
 11
58.7643
 21
-10.7258
  0
LINE
  8
0
 10
58.7643
 20
-10.7258
 11
58.6296
 21
-10.8067
  0
LINE
  8
0
 10
58.6296
 20
-10.8067
 11
58.4897
 21
-10.878
  0
LINE
  8
0
 10
58.4897
 20
-10.878
 11
58.3452
 21
-10.9394
  0
LINE
  8
0
 10
58.3452
 20
-10.9394
 11
58.1967
 21
-10.9905
  0
LINE
  8
0
 10
58.1967
 20
-10.9905
 11
58.045
 21
-11.0312
  0
LINE
  8
0
 10
58.045
 20
-11.0312
 11
57.8908
 21
-11.0611
  0
LINE
  8
0
 10
57.8908
 20
-11.0611
 11
57.7349
 21
-11.0803
  0
LINE
  8
0
 10
57.7349
 20
-11.0803
 11
57.5781
 21
-11.0885
  0
LINE
  8
0
 10
57.5781
 20
-11.0885
 11
57.4211
 21
-11.0857
  0
LINE
  8
0
 10
-9.18149
 20
-20.5852
 11
-9.37273
 21
-20.5689
  0
LINE
  8
0
 10
-9.37273
 20
-20.5689
 11
-9.56238
 21
-20.5393
  0
LINE
  8
0
 10
-9.56238
 20
-20.5393
 11
-9.7495
 21
-20.4965
  0
LINE
  8
0
 10
-9.7495
 20
-20.4965
 11
-9.93315
 21
-20.4407
  0
LINE
  8
0
 10
-9.93315
 20
-20.4407
 11
-10.1125
 21
-20.3723
  0
LINE
  8
0
 10
-10.1125
 20
-20.3723
 11
-10.2866
 21
-20.2915
  0
LINE
  8
0
 10
-10.2866
 20
-20.2915
 11
-10.4401
 21
-20.2069
  0
LINE
  8
0
 10
-10.4401
 20
-20.2069
 11
-10.5979
 21
-20.1307
  0
LINE
  8
0
 10
-10.5979
 20
-20.1307
 11
-10.75
 21
-20.0437
  0
LINE
  8
0
 10
-10.75
 20
-20.0437
 11
-10.9066
 21
-19.9651
  0
LINE
  8
0
 10
-10.9066
 20
-19.9651
 11
-11.0573
 21
-19.8759
  0
LINE
  8
0
 10
-11.0573
 20
-19.8759
 11
-11.2128
 21
-19.7948
  0
LINE
  8
0
 10
-11.2128
 20
-19.7948
 11
-11.3622
 21
-19.7031
  0
LINE
  8
0
 10
-11.3622
 20
-19.7031
 11
-11.5163
 21
-19.6198
  0
LINE
  8
0
 10
-11.5163
 20
-19.6198
 11
-11.6642
 21
-19.5259
  0
LINE
  8
0
 10
-11.6642
 20
-19.5259
 11
-11.817
 21
-19.4401
  0
LINE
  8
0
 10
-11.817
 20
-19.4401
 11
-11.9636
 21
-19.3439
  0
LINE
  8
0
 10
-11.9636
 20
-19.3439
 11
-12.115
 21
-19.2559
  0
LINE
  8
0
 10
-12.115
 20
-19.2559
 11
-12.26
 21
-19.1574
  0
LINE
  8
0
 10
-12.26
 20
-19.1574
 11
-12.4101
 21
-19.067
  0
LINE
  8
0
 10
-12.4101
 20
-19.067
 11
-12.5535
 21
-18.9663
  0
LINE
  8
0
 10
-12.5535
 20
-18.9663
 11
-12.7023
 21
-18.8736
  0
LINE
  8
0
 10
-12.7023
 20
-18.8736
 11
-12.8441
 21
-18.7708
  0
LINE
  8
0
 10
-12.8441
 20
-18.7708
 11
-12.9914
 21
-18.6758
  0
LINE
  8
0
 10
-12.9914
 20
-18.6758
 11
-13.1316
 21
-18.5708
  0
LINE
  8
0
 10
-13.1316
 20
-18.5708
 11
-13.2774
 21
-18.4735
  0
LINE
  8
0
 10
-13.2774
 20
-18.4735
 11
-13.416
 21
-18.3664
  0
LINE
  8
0
 10
-13.416
 20
-18.3664
 11
-13.5603
 21
-18.2669
  0
LINE
  8
0
 10
-13.5603
 20
-18.2669
 11
-13.6974
 21
-18.1575
  0
LINE
  8
0
 10
-13.6974
 20
-18.1575
 11
-13.84
 21
-18.0559
  0
LINE
  8
0
 10
-13.84
 20
-18.0559
 11
-13.9754
 21
-17.9444
  0
LINE
  8
0
 10
-13.9754
 20
-17.9444
 11
-14.1165
 21
-17.8406
  0
LINE
  8
0
 10
-14.1165
 20
-17.8406
 11
-14.2499
 21
-17.7272
  0
LINE
  8
0
 10
-14.2499
 20
-17.7272
 11
-14.3895
 21
-17.6211
  0
LINE
  8
0
 10
-14.3895
 20
-17.6211
 11
-14.5212
 21
-17.5057
  0
LINE
  8
0
 10
-14.5212
 20
-17.5057
 11
-14.6592
 21
-17.3974
  0
LINE
  8
0
 10
-14.6592
 20
-17.3974
 11
-14.7892
 21
-17.2799
  0
LINE
  8
0
 10
-14.7892
 20
-17.2799
 11
-14.9253
 21
-17.1696
  0
LINE
  8
0
 10
-14.9253
 20
-17.1696
 11
-15.0536
 21
-17.05
  0
LINE
  8
0
 10
-15.0536
 20
-17.05
 11
-15.188
 21
-16.9377
  0
LINE
  8
0
 10
-15.188
 20
-16.9377
 11
-15.3143
 21
-16.8162
  0
LINE
  8
0
 10
-15.3143
 20
-16.8162
 11
-15.447
 21
-16.7019
  0
LINE
  8
0
 10
-15.447
 20
-16.7019
 11
-15.5714
 21
-16.5784
  0
LINE
  8
0
 10
-15.5714
 20
-16.5784
 11
-15.7024
 21
-16.462
  0
LINE
  8
0
 10
-15.7024
 20
-16.462
 11
-15.8249
 21
-16.3367
  0
LINE
  8
0
 10
-15.8249
 20
-16.3367
 11
-15.954
 21
-16.2182
  0
LINE
  8
0
 10
-15.954
 20
-16.2182
 11
-16.0746
 21
-16.091
  0
LINE
  8
0
 10
-16.0746
 20
-16.091
 11
-16.2019
 21
-15.9706
  0
LINE
  8
0
 10
-16.2019
 20
-15.9706
 11
-16.3205
 21
-15.8416
  0
LINE
  8
0
 10
-16.3205
 20
-15.8416
 11
-16.4459
 21
-15.7193
  0
LINE
  8
0
 10
-16.4459
 20
-15.7193
 11
-16.5624
 21
-15.5885
  0
LINE
  8
0
 10
-16.5624
 20
-15.5885
 11
-16.686
 21
-15.4641
  0
LINE
  8
0
 10
-16.686
 20
-15.4641
 11
-16.8006
 21
-15.3315
  0
LINE
  8
0
 10
-16.8006
 20
-15.3315
 11
-16.9221
 21
-15.2053
  0
LINE
  8
0
 10
-16.9221
 20
-15.2053
 11
-17.0347
 21
-15.0709
  0
LINE
  8
0
 10
-17.0347
 20
-15.0709
 11
-17.1543
 21
-14.9429
  0
LINE
  8
0
 10
-17.1543
 20
-14.9429
 11
-17.2647
 21
-14.8069
  0
LINE
  8
0
 10
-17.2647
 20
-14.8069
 11
-17.3824
 21
-14.677
  0
LINE
  8
0
 10
-17.3824
 20
-14.677
 11
-17.4907
 21
-14.5392
  0
LINE
  8
0
 10
-17.4907
 20
-14.5392
 11
-17.6063
 21
-14.4076
  0
LINE
  8
0
 10
-17.6063
 20
-14.4076
 11
-17.7125
 21
-14.2682
  0
LINE
  8
0
 10
-17.7125
 20
-14.2682
 11
-17.8261
 21
-14.1348
  0
LINE
  8
0
 10
-17.8261
 20
-14.1348
 11
-17.9301
 21
-13.9939
  0
LINE
  8
0
 10
-17.9301
 20
-13.9939
 11
-18.0417
 21
-13.8586
  0
LINE
  8
0
 10
-18.0417
 20
-13.8586
 11
-18.1435
 21
-13.716
  0
LINE
  8
0
 10
-18.1435
 20
-13.716
 11
-18.2529
 21
-13.5791
  0
LINE
  8
0
 10
-18.2529
 20
-13.5791
 11
-18.3527
 21
-13.4348
  0
LINE
  8
0
 10
-18.3527
 20
-13.4348
 11
-18.4599
 21
-13.2964
  0
LINE
  8
0
 10
-18.4599
 20
-13.2964
 11
-18.5573
 21
-13.1507
  0
LINE
  8
0
 10
-18.5573
 20
-13.1507
 11
-18.6625
 21
-13.0106
  0
LINE
  8
0
 10
-18.6625
 20
-13.0106
 11
-18.7576
 21
-12.8634
  0
LINE
  8
0
 10
-18.7576
 20
-12.8634
 11
-18.8606
 21
-12.7216
  0
LINE
  8
0
 10
-18.8606
 20
-12.7216
 11
-18.9623
 21
-12.5589
  0
LINE
  8
0
 10
-18.9623
 20
-12.5589
 11
-19.0524
 21
-12.3894
  0
LINE
  8
0
 10
-19.0524
 20
-12.3894
 11
-19.1305
 21
-12.214
  0
LINE
  8
0
 10
-19.1305
 20
-12.214
 11
-19.1961
 21
-12.0336
  0
LINE
  8
0
 10
-19.1961
 20
-12.0336
 11
-19.2491
 21
-11.8491
  0
LINE
  8
0
 10
-19.2491
 20
-11.8491
 11
-19.289
 21
-11.6614
  0
LINE
  8
0
 10
-19.289
 20
-11.6614
 11
-19.3157
 21
-11.4713
  0
LINE
  8
0
 10
-19.3157
 20
-11.4713
 11
-19.3291
 21
-11.2798
  0
LINE
  8
0
 10
-19.3291
 20
-11.2798
 11
-19.3291
 21
-11.0879
  0
LINE
  8
0
 10
-19.3291
 20
-11.0879
 11
-19.3157
 21
-10.8964
  0
LINE
  8
0
 10
-19.3157
 20
-10.8964
 11
-19.289
 21
-10.7063
  0
LINE
  8
0
 10
-19.289
 20
-10.7063
 11
-19.2491
 21
-10.5186
  0
LINE
  8
0
 10
-19.2491
 20
-10.5186
 11
-19.1961
 21
-10.334
  0
LINE
  8
0
 10
-19.1961
 20
-10.334
 11
-19.1305
 21
-10.1537
  0
LINE
  8
0
 10
-19.1305
 20
-10.1537
 11
-19.0524
 21
-9.97833
  0
LINE
  8
0
 10
-19.0524
 20
-9.97833
 11
-18.9623
 21
-9.80885
  0
LINE
  8
0
 10
-18.9623
 20
-9.80885
 11
-18.8606
 21
-9.64607
  0
LINE
  8
0
 10
-18.8606
 20
-9.64607
 11
-18.7478
 21
-9.49078
  0
LINE
  8
0
 10
-18.7478
 20
-9.49078
 11
-18.6244
 21
-9.34375
  0
LINE
  8
0
 10
-18.6244
 20
-9.34375
 11
-18.491
 21
-9.20567
  0
LINE
  8
0
 10
-18.491
 20
-9.20567
 11
-18.3484
 21
-9.07724
  0
LINE
  8
0
 10
-18.3484
 20
-9.07724
 11
-18.1971
 21
-8.95905
  0
LINE
  8
0
 10
-18.1971
 20
-8.95905
 11
-18.038
 21
-8.85172
  0
LINE
  8
0
 10
-18.038
 20
-8.85172
 11
-17.8718
 21
-8.75575
  0
LINE
  8
0
 10
-17.8718
 20
-8.75575
 11
-17.6992
 21
-8.67162
  0
LINE
  8
0
 10
-17.6992
 20
-8.67162
 11
-17.5213
 21
-8.5997
  0
LINE
  8
0
 10
-17.5213
 20
-8.5997
 11
-17.3387
 21
-8.54037
  0
LINE
  8
0
 10
-17.3387
 20
-8.54037
 11
-17.1525
 21
-8.49394
  0
LINE
  8
0
 10
-17.1525
 20
-8.49394
 11
-16.9635
 21
-8.4606
  0
LINE
  8
0
 10
-16.9635
 20
-8.4606
 11
-16.7726
 21
-8.44055
  0
LINE
  8
0
 10
-16.7726
 20
-8.44055
 11
-16.5807
 21
-8.43385
  0
LINE
  8
0
 10
-16.5807
 20
-8.43385
 11
-16.3889
 21
-8.44055
  0
LINE
  8
0
 10
-16.3889
 20
-8.44055
 11
-16.198
 21
-8.46062
  0
LINE
  8
0
 10
-16.198
 20
-8.46062
 11
-16.009
 21
-8.49394
  0
LINE
  8
0
 10
-16.009
 20
-8.49394
 11
-15.8227
 21
-8.54039
  0
LINE
  8
0
 10
-15.8227
 20
-8.54039
 11
-15.6402
 21
-8.59969
  0
LINE
  8
0
 10
-15.6402
 20
-8.59969
 11
-15.4622
 21
-8.6716
  0
LINE
  8
0
 10
-15.4622
 20
-8.6716
 11
-15.2897
 21
-8.75574
  0
LINE
  8
0
 10
-15.2897
 20
-8.75574
 11
-15.1235
 21
-8.85173
  0
LINE
  8
0
 10
-15.1235
 20
-8.85173
 11
-14.9643
 21
-8.95905
  0
LINE
  8
0
 10
-14.9643
 20
-8.95905
 11
-14.8131
 21
-9.07722
  0
LINE
  8
0
 10
-14.8131
 20
-9.07722
 11
-14.6704
 21
-9.20567
  0
LINE
  8
0
 10
-14.6704
 20
-9.20567
 11
-14.5371
 21
-9.34373
  0
LINE
  8
0
 10
-14.5371
 20
-9.34373
 11
-14.4137
 21
-9.49078
  0
LINE
  8
0
 10
-14.4137
 20
-9.49078
 11
-14.3009
 21
-9.64607
  0
LINE
  8
0
 10
-14.3009
 20
-9.64607
 11
-14.2305
 21
-9.75871
  0
LINE
  8
0
 10
-14.2305
 20
-9.75871
 11
-14.1507
 21
-9.86513
  0
LINE
  8
0
 10
-14.1507
 20
-9.86513
 11
-14.0785
 21
-9.97675
  0
LINE
  8
0
 10
-14.0785
 20
-9.97675
 11
-13.9971
 21
-10.0819
  0
LINE
  8
0
 10
-13.9971
 20
-10.0819
 11
-13.9232
 21
-10.1924
  0
LINE
  8
0
 10
-13.9232
 20
-10.1924
 11
-13.8401
 21
-10.2962
  0
LINE
  8
0
 10
-13.8401
 20
-10.2962
 11
-13.7646
 21
-10.4056
  0
LINE
  8
0
 10
-13.7646
 20
-10.4056
 11
-13.6799
 21
-10.5081
  0
LINE
  8
0
 10
-13.6799
 20
-10.5081
 11
-13.6027
 21
-10.6163
  0
LINE
  8
0
 10
-13.6027
 20
-10.6163
 11
-13.5165
 21
-10.7175
  0
LINE
  8
0
 10
-13.5165
 20
-10.7175
 11
-13.4376
 21
-10.8246
  0
LINE
  8
0
 10
-13.4376
 20
-10.8246
 11
-13.3499
 21
-10.9244
  0
LINE
  8
0
 10
-13.3499
 20
-10.9244
 11
-13.2693
 21
-11.0302
  0
LINE
  8
0
 10
-13.2693
 20
-11.0302
 11
-13.18
 21
-11.1287
  0
LINE
  8
0
 10
-13.18
 20
-11.1287
 11
-13.0978
 21
-11.2333
  0
LINE
  8
0
 10
-13.0978
 20
-11.2333
 11
-13.0071
 21
-11.3304
  0
LINE
  8
0
 10
-13.0071
 20
-11.3304
 11
-12.9234
 21
-11.4336
  0
LINE
  8
0
 10
-12.9234
 20
-11.4336
 11
-12.8311
 21
-11.5293
  0
LINE
  8
0
 10
-12.8311
 20
-11.5293
 11
-12.7457
 21
-11.6313
  0
LINE
  8
0
 10
-12.7457
 20
-11.6313
 11
-12.652
 21
-11.7255
  0
LINE
  8
0
 10
-12.652
 20
-11.7255
 11
-12.5651
 21
-11.8261
  0
LINE
  8
0
 10
-12.5651
 20
-11.8261
 11
-12.47
 21
-11.919
  0
LINE
  8
0
 10
-12.47
 20
-11.919
 11
-12.3815
 21
-12.0182
  0
LINE
  8
0
 10
-12.3815
 20
-12.0182
 11
-12.2849
 21
-12.1096
  0
LINE
  8
0
 10
-12.2849
 20
-12.1096
 11
-12.195
 21
-12.2074
  0
LINE
  8
0
 10
-12.195
 20
-12.2074
 11
-12.097
 21
-12.2973
  0
LINE
  8
0
 10
-12.097
 20
-12.2973
 11
-12.0055
 21
-12.3939
  0
LINE
  8
0
 10
-12.0055
 20
-12.3939
 11
-11.9062
 21
-12.4822
  0
LINE
  8
0
 10
-11.9062
 20
-12.4822
 11
-11.8133
 21
-12.5772
  0
LINE
  8
0
 10
-11.8133
 20
-12.5772
 11
-11.7126
 21
-12.664
  0
LINE
  8
0
 10
-11.7126
 20
-12.664
 11
-11.6181
 21
-12.7577
  0
LINE
  8
0
 10
-11.6181
 20
-12.7577
 11
-11.5161
 21
-12.8429
  0
LINE
  8
0
 10
-11.5161
 20
-12.8429
 11
-11.4202
 21
-12.9351
  0
LINE
  8
0
 10
-11.4202
 20
-12.9351
 11
-11.317
 21
-13.0187
  0
LINE
  8
0
 10
-11.317
 20
-13.0187
 11
-11.2198
 21
-13.1094
  0
LINE
  8
0
 10
-11.2198
 20
-13.1094
 11
-11.1152
 21
-13.1915
  0
LINE
  8
0
 10
-11.1152
 20
-13.1915
 11
-11.0166
 21
-13.2806
  0
LINE
  8
0
 10
-11.0166
 20
-13.2806
 11
-10.9107
 21
-13.3611
  0
LINE
  8
0
 10
-10.9107
 20
-13.3611
 11
-10.8108
 21
-13.4487
  0
LINE
  8
0
 10
-10.8108
 20
-13.4487
 11
-10.7037
 21
-13.5275
  0
LINE
  8
0
 10
-10.7037
 20
-13.5275
 11
-10.6024
 21
-13.6135
  0
LINE
  8
0
 10
-10.6024
 20
-13.6135
 11
-10.4941
 21
-13.6907
  0
LINE
  8
0
 10
-10.4941
 20
-13.6907
 11
-10.3914
 21
-13.7753
  0
LINE
  8
0
 10
-10.3914
 20
-13.7753
 11
-10.282
 21
-13.8507
  0
LINE
  8
0
 10
-10.282
 20
-13.8507
 11
-10.1781
 21
-13.9336
  0
LINE
  8
0
 10
-10.1781
 20
-13.9336
 11
-10.0675
 21
-14.0074
  0
LINE
  8
0
 10
-10.0675
 20
-14.0074
 11
-9.96236
 21
-14.0887
  0
LINE
  8
0
 10
-9.96236
 20
-14.0887
 11
-9.85062
 21
-14.1608
  0
LINE
  8
0
 10
-9.85062
 20
-14.1608
 11
-9.74426
 21
-14.2404
  0
LINE
  8
0
 10
-9.74426
 20
-14.2404
 11
-9.63138
 21
-14.3108
  0
LINE
  8
0
 10
-9.63138
 20
-14.3108
 11
-9.5237
 21
-14.3888
  0
LINE
  8
0
 10
-9.5237
 20
-14.3888
 11
-9.40987
 21
-14.4574
  0
LINE
  8
0
 10
-9.40987
 20
-14.4574
 11
-9.30101
 21
-14.5338
  0
LINE
  8
0
 10
-9.30101
 20
-14.5338
 11
-9.1861
 21
-14.6006
  0
LINE
  8
0
 10
-9.1861
 20
-14.6006
 11
-9.07617
 21
-14.6752
  0
LINE
  8
0
 10
-9.07617
 20
-14.6752
 11
-8.96019
 21
-14.7403
  0
LINE
  8
0
 10
-8.96019
 20
-14.7403
 11
-8.84903
 21
-14.8133
  0
LINE
  8
0
 10
-8.84903
 20
-14.8133
 11
-8.73213
 21
-14.8765
  0
LINE
  8
0
 10
-8.73213
 20
-14.8765
 11
-8.61987
 21
-14.9478
  0
LINE
  8
0
 10
-8.61987
 20
-14.9478
 11
-8.502
 21
-15.0093
  0
LINE
  8
0
 10
-8.502
 20
-15.0093
 11
-8.38858
 21
-15.0788
  0
LINE
  8
0
 10
-8.38858
 20
-15.0788
 11
-8.26985
 21
-15.1384
  0
LINE
  8
0
 10
-8.26985
 20
-15.1384
 11
-8.15547
 21
-15.2062
  0
LINE
  8
0
 10
-8.15547
 20
-15.2062
 11
-8.03575
 21
-15.264
  0
LINE
  8
0
 10
-8.03575
 20
-15.264
 11
-7.92027
 21
-15.33
  0
LINE
  8
0
 10
-7.92027
 20
-15.33
 11
-7.79974
 21
-15.3859
  0
LINE
  8
0
 10
-7.79974
 20
-15.3859
 11
-7.63167
 21
-15.4786
  0
LINE
  8
0
 10
-7.63167
 20
-15.4786
 11
-7.47047
 21
-15.5828
  0
LINE
  8
0
 10
-7.47047
 20
-15.5828
 11
-7.31694
 21
-15.698
  0
LINE
  8
0
 10
-7.31694
 20
-15.698
 11
-7.17183
 21
-15.8237
  0
LINE
  8
0
 10
-7.17183
 20
-15.8237
 11
-7.03583
 21
-15.9591
  0
LINE
  8
0
 10
-7.03583
 20
-15.9591
 11
-6.90959
 21
-16.1037
  0
LINE
  8
0
 10
-6.90959
 20
-16.1037
 11
-6.79376
 21
-16.2568
  0
LINE
  8
0
 10
-6.79376
 20
-16.2568
 11
-6.6889
 21
-16.4175
  0
LINE
  8
0
 10
-6.6889
 20
-16.4175
 11
-6.59549
 21
-16.5852
  0
LINE
  8
0
 10
-6.59549
 20
-16.5852
 11
-6.51401
 21
-16.759
  0
LINE
  8
0
 10
-6.51401
 20
-16.759
 11
-6.44485
 21
-16.9381
  0
LINE
  8
0
 10
-6.44485
 20
-16.9381
 11
-6.38837
 21
-17.1215
  0
LINE
  8
0
 10
-6.38837
 20
-17.1215
 11
-6.3448
 21
-17.3085
  0
LINE
  8
0
 10
-6.3448
 20
-17.3085
 11
-6.31438
 21
-17.498
  0
LINE
  8
0
 10
-6.31438
 20
-17.498
 11
-6.29726
 21
-17.6892
  0
LINE
  8
0
 10
-6.29726
 20
-17.6892
 11
-6.29352
 21
-17.8811
  0
LINE
  8
0
 10
-6.29352
 20
-17.8811
 11
-6.30316
 21
-18.0728
  0
LINE
  8
0
 10
-6.30316
 20
-18.0728
 11
-6.32617
 21
-18.2633
  0
LINE
  8
0
 10
-6.32617
 20
-18.2633
 11
-6.36241
 21
-18.4518
  0
LINE
  8
0
 10
-6.36241
 20
-18.4518
 11
-6.41171
 21
-18.6373
  0
LINE
  8
0
 10
-6.41171
 20
-18.6373
 11
-6.47383
 21
-18.819
  0
LINE
  8
0
 10
-6.47383
 20
-18.819
 11
-6.54846
 21
-18.9958
  0
LINE
  8
0
 10
-6.54846
 20
-18.9958
 11
-6.63525
 21
-19.167
  0
LINE
  8
0
 10
-6.63525
 20
-19.167
 11
-6.73376
 21
-19.3317
  0
LINE
  8
0
 10
-6.73376
 20
-19.3317
 11
-6.84355
 21
-19.4892
  0
LINE
  8
0
 10
-6.84355
 20
-19.4892
 11
-6.96404
 21
-19.6386
  0
LINE
  8
0
 10
-6.96404
 20
-19.6386
 11
-7.09465
 21
-19.7793
  0
LINE
  8
0
 10
-7.09465
 20
-19.7793
 11
-7.23477
 21
-19.9105
  0
LINE
  8
0
 10
-7.23477
 20
-19.9105
 11
-7.3837
 21
-20.0316
  0
LINE
  8
0
 10
-7.3837
 20
-20.0316
 11
-7.5407
 21
-20.142
  0
LINE
  8
0
 10
-7.5407
 20
-20.142
 11
-7.70503
 21
-20.2412
  0
LINE
  8
0
 10
-7.70503
 20
-20.2412
 11
-7.87589
 21
-20.3287
  0
LINE
  8
0
 10
-7.87589
 20
-20.3287
 11
-8.05241
 21
-20.404
  0
LINE
  8
0
 10
-8.05241
 20
-20.404
 11
-8.23376
 21
-20.4669
  0
LINE
  8
0
 10
-8.23376
 20
-20.4669
 11
-8.41907
 21
-20.517
  0
LINE
  8
0
 10
-8.41907
 20
-20.517
 11
-8.60742
 21
-20.554
  0
LINE
  8
0
 10
-8.60742
 20
-20.554
 11
-8.79788
 21
-20.5777
  0
LINE
  8
0
 10
-8.79788
 20
-20.5777
 11
-8.98955
 21
-20.5882
  0
LINE
  8
0
 10
-8.98955
 20
-20.5882
 11
-9.18149
 21
-20.5852
  0
LINE
  8
0
 10
48.543
 20
-14.7445
 11
48.3869
 21
-14.7281
  0
LINE
  8
0
 10
48.3869
 20
-14.7281
 11
48.2322
 21
-14.7008
  0
LINE
  8
0
 10
48.2322
 20
-14.7008
 11
48.0798
 21
-14.6628
  0
LINE
  8
0
 10
48.0798
 20
-14.6628
 11
47.9305
 21
-14.6143
  0
LINE
  8
0
 10
47.9305
 20
-14.6143
 11
47.7849
 21
-14.5555
  0
LINE
  8
0
 10
47.7849
 20
-14.5555
 11
47.6437
 21
-14.4866
  0
LINE
  8
0
 10
47.6437
 20
-14.4866
 11
47.5077
 21
-14.4081
  0
LINE
  8
0
 10
47.5077
 20
-14.4081
 11
47.3775
 21
-14.3203
  0
LINE
  8
0
 10
47.3775
 20
-14.3203
 11
47.2537
 21
-14.2236
  0
LINE
  8
0
 10
47.2537
 20
-14.2236
 11
47.137
 21
-14.1185
  0
LINE
  8
0
 10
47.137
 20
-14.1185
 11
47.0279
 21
-14.0055
  0
LINE
  8
0
 10
47.0279
 20
-14.0055
 11
46.927
 21
-13.8852
  0
LINE
  8
0
 10
46.927
 20
-13.8852
 11
46.8347
 21
-13.7582
  0
LINE
  8
0
 10
46.8347
 20
-13.7582
 11
46.7514
 21
-13.625
  0
LINE
  8
0
 10
46.7514
 20
-13.625
 11
46.6777
 21
-13.4863
  0
LINE
  8
0
 10
46.6777
 20
-13.4863
 11
46.6138
 21
-13.3428
  0
LINE
  8
0
 10
46.6138
 20
-13.3428
 11
46.5601
 21
-13.1953
  0
LINE
  8
0
 10
46.5601
 20
-13.1953
 11
46.5168
 21
-13.0443
  0
LINE
  8
0
 10
46.5168
 20
-13.0443
 11
46.4842
 21
-12.8907
  0
LINE
  8
0
 10
46.4842
 20
-12.8907
 11
46.4623
 21
-12.7352
  0
LINE
  8
0
 10
46.4623
 20
-12.7352
 11
46.4514
 21
-12.5785
  0
LINE
  8
0
 10
46.4514
 20
-12.5785
 11
46.4514
 21
-12.4215
  0
LINE
  8
0
 10
46.4514
 20
-12.4215
 11
46.4623
 21
-12.2648
  0
LINE
  8
0
 10
46.4623
 20
-12.2648
 11
46.4842
 21
-12.1093
  0
LINE
  8
0
 10
46.4842
 20
-12.1093
 11
46.5168
 21
-11.9557
  0
LINE
  8
0
 10
46.5168
 20
-11.9557
 11
46.5601
 21
-11.8047
  0
LINE
  8
0
 10
46.5601
 20
-11.8047
 11
46.6138
 21
-11.6571
  0
LINE
  8
0
 10
46.6138
 20
-11.6571
 11
46.6777
 21
-11.5137
  0
LINE
  8
0
 10
46.6777
 20
-11.5137
 11
46.7514
 21
-11.375
  0
LINE
  8
0
 10
46.7514
 20
-11.375
 11
46.8347
 21
-11.2418
  0
LINE
  8
0
 10
46.8347
 20
-11.2418
 11
46.927
 21
-11.1148
  0
LINE
  8
0
 10
46.927
 20
-11.1148
 11
47.0279
 21
-10.9944
  0
LINE
  8
0
 10
47.0279
 20
-10.9944
 11
47.137
 21
-10.8815
  0
LINE
  8
0
 10
47.137
 20
-10.8815
 11
47.2537
 21
-10.7764
  0
LINE
  8
0
 10
47.2537
 20
-10.7764
 11
47.3775
 21
-10.6797
  0
LINE
  8
0
 10
47.3775
 20
-10.6797
 11
47.5077
 21
-10.5919
  0
LINE
  8
0
 10
47.5077
 20
-10.5919
 11
47.6437
 21
-10.5134
  0
LINE
  8
0
 10
47.6437
 20
-10.5134
 11
47.7849
 21
-10.4445
  0
LINE
  8
0
 10
47.7849
 20
-10.4445
 11
47.9305
 21
-10.3857
  0
LINE
  8
0
 10
47.9305
 20
-10.3857
 11
48.0798
 21
-10.3372
  0
LINE
  8
0
 10
48.0798
 20
-10.3372
 11
48.2322
 21
-10.2992
  0
LINE
  8
0
 10
48.2322
 20
-10.2992
 11
48.3869
 21
-10.2719
  0
LINE
  8
0
 10
48.3869
 20
-10.2719
 11
48.543
 21
-10.2555
  0
LINE
  8
0
 10
48.543
 20
-10.2555
 11
48.7
 21
-10.25
  0
LINE
  8
0
 10
48.7
 20
-10.25
 11
48.8569
 21
-10.2555
  0
LINE
  8
0
 10
48.8569
 20
-10.2555
 11
49.0131
 21
-10.2719
  0
LINE
  8
0
 10
49.0131
 20
-10.2719
 11
49.1678
 21
-10.2992
  0
LINE
  8
0
 10
49.1678
 20
-10.2992
 11
49.3202
 21
-10.3372
  0
LINE
  8
0
 10
49.3202
 20
-10.3372
 11
49.4695
 21
-10.3857
  0
LINE
  8
0
 10
49.4695
 20
-10.3857
 11
49.6151
 21
-10.4445
  0
LINE
  8
0
 10
49.6151
 20
-10.4445
 11
49.7563
 21
-10.5134
  0
LINE
  8
0
 10
49.7563
 20
-10.5134
 11
49.8923
 21
-10.5919
  0
LINE
  8
0
 10
49.8923
 20
-10.5919
 11
50.0225
 21
-10.6797
  0
LINE
  8
0
 10
50.0225
 20
-10.6797
 11
50.1463
 21
-10.7764
  0
LINE
  8
0
 10
50.1463
 20
-10.7764
 11
50.263
 21
-10.8815
  0
LINE
  8
0
 10
50.263
 20
-10.8815
 11
50.3721
 21
-10.9944
  0
LINE
  8
0
 10
50.3721
 20
-10.9944
 11
50.473
 21
-11.1148
  0
LINE
  8
0
 10
50.473
 20
-11.1148
 11
50.5653
 21
-11.2418
  0
LINE
  8
0
 10
50.5653
 20
-11.2418
 11
50.6485
 21
-11.375
  0
LINE
  8
0
 10
50.6485
 20
-11.375
 11
50.7223
 21
-11.5137
  0
LINE
  8
0
 10
50.7223
 20
-11.5137
 11
50.7861
 21
-11.6571
  0
LINE
  8
0
 10
50.7861
 20
-11.6571
 11
50.8399
 21
-11.8047
  0
LINE
  8
0
 10
50.8399
 20
-11.8047
 11
50.8831
 21
-11.9557
  0
LINE
  8
0
 10
50.8831
 20
-11.9557
 11
50.9158
 21
-12.1093
  0
LINE
  8
0
 10
50.9158
 20
-12.1093
 11
50.9377
 21
-12.2648
  0
LINE
  8
0
 10
50.9377
 20
-12.2648
 11
50.9486
 21
-12.4215
  0
LINE
  8
0
 10
50.9486
 20
-12.4215
 11
50.9486
 21
-12.5785
  0
LINE
  8
0
 10
50.9486
 20
-12.5785
 11
50.9377
 21
-12.7352
  0
LINE
  8
0
 10
50.9377
 20
-12.7352
 11
50.9158
 21
-12.8907
  0
LINE
  8
0
 10
50.9158
 20
-12.8907
 11
50.8831
 21
-13.0443
  0
LINE
  8
0
 10
50.8831
 20
-13.0443
 11
50.8399
 21
-13.1953
  0
LINE
  8
0
 10
50.8399
 20
-13.1953
 11
50.7861
 21
-13.3428
  0
LINE
  8
0
 10
50.7861
 20
-13.3428
 11
50.7223
 21
-13.4863
  0
LINE
  8
0
 10
50.7223
 20
-13.4863
 11
50.6485
 21
-13.625
  0
LINE
  8
0
 10
50.6485
 20
-13.625
 11
50.5653
 21
-13.7582
  0
LINE
  8
0
 10
50.5653
 20
-13.7582
 11
50.473
 21
-13.8852
  0
LINE
  8
0
 10
50.473
 20
-13.8852
 11
50.3721
 21
-14.0055
  0
LINE
  8
0
 10
50.3721
 20
-14.0055
 11
50.263
 21
-14.1185
  0
LINE
  8
0
 10
50.263
 20
-14.1185
 11
50.1463
 21
-14.2236
  0
LINE
  8
0
 10
50.1463
 20
-14.2236
 11
50.0225
 21
-14.3203
  0
LINE
  8
0
 10
50.0225
 20
-14.3203
 11
49.8923
 21
-14.4081
  0
LINE
  8
0
 10
49.8923
 20
-14.4081
 11
49.7563
 21
-14.4866
  0
LINE
  8
0
 10
49.7563
 20
-14.4866
 11
49.6151
 21
-14.5555
  0
LINE
  8
0
 10
49.6151
 20
-14.5555
 11
49.4695
 21
-14.6143
  0
LINE
  8
0
 10
49.4695
 20
-14.6143
 11
49.3202
 21
-14.6628
  0
LINE
  8
0
 10
49.3202
 20
-14.6628
 11
49.1678
 21
-14.7008
  0
LINE
  8
0
 10
49.1678
 20
-14.7008
 11
49.0131
 21
-14.7281
  0
LINE
  8
0
 10
49.0131
 20
-14.7281
 11
48.8569
 21
-14.7445
  0
LINE
  8
0
 10
48.8569
 20
-14.7445
 11
48.7
 21
-14.75
  0
LINE
  8
0
 10
48.7
 20
-14.75
 11
48.543
 21
-14.7445
  0
LINE
  8
0
 10
1.20331
 20
-22.6946
 11
1.01241
 21
-22.6745
  0
LINE
  8
0
 10
1.01241
 20
-22.6745
 11
0.823364
 21
-22.6412
  0
LINE
  8
0
 10
0.823364
 20
-22.6412
 11
0.637115
 21
-22.5947
  0
LINE
  8
0
 10
0.637115
 20
-22.5947
 11
0.454559
 21
-22.5354
  0
LINE
  8
0
 10
0.454559
 20
-22.5354
 11
0.276596
 21
-22.4635
  0
LINE
  8
0
 10
0.276596
 20
-22.4635
 11
0.104065
 21
-22.3794
  0
LINE
  8
0
 10
0.104065
 20
-22.3794
 11
-0.0621338
 21
-22.2834
  0
LINE
  8
0
 10
-0.0621338
 20
-22.2834
 11
-0.221268
 21
-22.1761
  0
LINE
  8
0
 10
-0.221268
 20
-22.1761
 11
-0.372528
 21
-22.0579
  0
LINE
  8
0
 10
-0.372528
 20
-22.0579
 11
-0.515167
 21
-21.9294
  0
LINE
  8
0
 10
-0.515167
 20
-21.9294
 11
-0.648514
 21
-21.7914
  0
LINE
  8
0
 10
-0.648514
 20
-21.7914
 11
-0.771881
 21
-21.6443
  0
LINE
  8
0
 10
-0.771881
 20
-21.6443
 11
-0.88472
 21
-21.489
  0
LINE
  8
0
 10
-0.88472
 20
-21.489
 11
-0.98642
 21
-21.3263
  0
LINE
  8
0
 10
-0.98642
 20
-21.3263
 11
-1.07655
 21
-21.1568
  0
LINE
  8
0
 10
-1.07655
 20
-21.1568
 11
-1.15462
 21
-20.9814
  0
LINE
  8
0
 10
-1.15462
 20
-20.9814
 11
-1.22026
 21
-20.8011
  0
LINE
  8
0
 10
-1.22026
 20
-20.8011
 11
-1.27318
 21
-20.6165
  0
LINE
  8
0
 10
-1.27318
 20
-20.6165
 11
-1.31308
 21
-20.4288
  0
LINE
  8
0
 10
-1.31308
 20
-20.4288
 11
-1.3398
 21
-20.2387
  0
LINE
  8
0
 10
-1.3398
 20
-20.2387
 11
-1.35318
 21
-20.0472
  0
LINE
  8
0
 10
-1.35318
 20
-20.0472
 11
-1.3532
 21
-19.8553
  0
LINE
  8
0
 10
-1.3532
 20
-19.8553
 11
-1.3398
 21
-19.6638
  0
LINE
  8
0
 10
-1.3398
 20
-19.6638
 11
-1.31308
 21
-19.4737
  0
LINE
  8
0
 10
-1.31308
 20
-19.4737
 11
-1.27318
 21
-19.286
  0
LINE
  8
0
 10
-1.27318
 20
-19.286
 11
-1.22026
 21
-19.1015
  0
LINE
  8
0
 10
-1.22026
 20
-19.1015
 11
-1.1546
 21
-18.9211
  0
LINE
  8
0
 10
-1.1546
 20
-18.9211
 11
-1.07655
 21
-18.7457
  0
LINE
  8
0
 10
-1.07655
 20
-18.7457
 11
-0.986435
 21
-18.5763
  0
LINE
  8
0
 10
-0.986435
 20
-18.5763
 11
-0.88472
 21
-18.4135
  0
LINE
  8
0
 10
-0.88472
 20
-18.4135
 11
-0.771896
 21
-18.2582
  0
LINE
  8
0
 10
-0.771896
 20
-18.2582
 11
-0.648514
 21
-18.1112
  0
LINE
  8
0
 10
-0.648514
 20
-18.1112
 11
-0.515167
 21
-17.9731
  0
LINE
  8
0
 10
-0.515167
 20
-17.9731
 11
-0.372528
 21
-17.8447
  0
LINE
  8
0
 10
-0.372528
 20
-17.8447
 11
-0.221268
 21
-17.7265
  0
LINE
  8
0
 10
-0.221268
 20
-17.7265
 11
-0.062149
 21
-17.6191
  0
LINE
  8
0
 10
-0.062149
 20
-17.6191
 11
0.10408
 21
-17.5232
  0
LINE
  8
0
 10
0.10408
 20
-17.5232
 11
0.276596
 21
-17.439
  0
LINE
  8
0
 10
0.276596
 20
-17.439
 11
0.454575
 21
-17.3671
  0
LINE
  8
0
 10
0.454575
 20
-17.3671
 11
0.637115
 21
-17.3078
  0
LINE
  8
0
 10
0.637115
 20
-17.3078
 11
0.82338
 21
-17.2614
  0
LINE
  8
0
 10
0.82338
 20
-17.2614
 11
1.01241
 21
-17.228
  0
LINE
  8
0
 10
1.01241
 20
-17.228
 11
1.20329
 21
-17.208
  0
LINE
  8
0
 10
1.20329
 20
-17.208
 11
1.33609
 21
-17.2033
  0
LINE
  8
0
 10
1.33609
 20
-17.2033
 11
1.46814
 21
-17.1874
  0
LINE
  8
0
 10
1.46814
 20
-17.1874
 11
1.60083
 21
-17.1807
  0
LINE
  8
0
 10
1.60083
 20
-17.1807
 11
1.73264
 21
-17.1627
  0
LINE
  8
0
 10
1.73264
 20
-17.1627
 11
1.86528
 21
-17.154
  0
LINE
  8
0
 10
1.86528
 20
-17.154
 11
1.99673
 21
-17.134
  0
LINE
  8
0
 10
1.99673
 20
-17.134
 11
2.12912
 21
-17.1233
  0
LINE
  8
0
 10
2.12912
 20
-17.1233
 11
2.26035
 21
-17.1012
  0
LINE
  8
0
 10
2.26035
 20
-17.1012
 11
2.39265
 21
-17.0885
  0
LINE
  8
0
 10
2.39265
 20
-17.0885
 11
2.52344
 21
-17.0644
  0
LINE
  8
0
 10
2.52344
 20
-17.0644
 11
2.65552
 21
-17.0496
  0
LINE
  8
0
 10
2.65552
 20
-17.0496
 11
2.78592
 21
-17.0235
  0
LINE
  8
0
 10
2.78592
 20
-17.0235
 11
2.91785
 21
-17.0066
  0
LINE
  8
0
 10
2.91785
 20
-17.0066
 11
3.04773
 21
-16.9786
  0
LINE
  8
0
 10
3.04773
 20
-16.9786
 11
3.17929
 21
-16.9597
  0
LINE
  8
0
 10
3.17929
 20
-16.9597
 11
3.30884
 21
-16.9297
  0
LINE
  8
0
 10
3.30884
 20
-16.9297
 11
3.44006
 21
-16.9087
  0
LINE
  8
0
 10
3.44006
 20
-16.9087
 11
3.56914
 21
-16.8767
  0
LINE
  8
0
 10
3.56914
 20
-16.8767
 11
3.70016
 21
-16.8537
  0
LINE
  8
0
 10
3.70016
 20
-16.8537
 11
3.82861
 21
-16.8197
  0
LINE
  8
0
 10
3.82861
 20
-16.8197
 11
3.95921
 21
-16.7948
  0
LINE
  8
0
 10
3.95921
 20
-16.7948
 11
4.08717
 21
-16.7588
  0
LINE
  8
0
 10
4.08717
 20
-16.7588
 11
4.21736
 21
-16.7318
  0
LINE
  8
0
 10
4.21736
 20
-16.7318
 11
4.34477
 21
-16.6939
  0
LINE
  8
0
 10
4.34477
 20
-16.6939
 11
4.47446
 21
-16.6649
  0
LINE
  8
0
 10
4.47446
 20
-16.6649
 11
4.60132
 21
-16.625
  0
LINE
  8
0
 10
4.60132
 20
-16.625
 11
4.73067
 21
-16.594
  0
LINE
  8
0
 10
4.73067
 20
-16.594
 11
4.8568
 21
-16.5521
  0
LINE
  8
0
 10
4.8568
 20
-16.5521
 11
4.98563
 21
-16.5192
  0
LINE
  8
0
 10
4.98563
 20
-16.5192
 11
5.1111
 21
-16.4754
  0
LINE
  8
0
 10
5.1111
 20
-16.4754
 11
5.23938
 21
-16.4405
  0
LINE
  8
0
 10
5.23938
 20
-16.4405
 11
5.36423
 21
-16.3947
  0
LINE
  8
0
 10
5.36423
 20
-16.3947
 11
5.49193
 21
-16.3578
  0
LINE
  8
0
 10
5.49193
 20
-16.3578
 11
5.61606
 21
-16.3102
  0
LINE
  8
0
 10
5.61606
 20
-16.3102
 11
5.74307
 21
-16.2713
  0
LINE
  8
0
 10
5.74307
 20
-16.2713
 11
5.86655
 21
-16.2218
  0
LINE
  8
0
 10
5.86655
 20
-16.2218
 11
5.99304
 21
-16.1809
  0
LINE
  8
0
 10
5.99304
 20
-16.1809
 11
6.11566
 21
-16.1295
  0
LINE
  8
0
 10
6.11566
 20
-16.1295
 11
6.24158
 21
-16.0867
  0
LINE
  8
0
 10
6.24158
 20
-16.0867
 11
6.36331
 21
-16.0334
  0
LINE
  8
0
 10
6.36331
 20
-16.0334
 11
6.48846
 21
-15.9887
  0
LINE
  8
0
 10
6.48846
 20
-15.9887
 11
6.60947
 21
-15.9335
  0
LINE
  8
0
 10
6.60947
 20
-15.9335
 11
6.73401
 21
-15.8869
  0
LINE
  8
0
 10
6.73401
 20
-15.8869
 11
6.85405
 21
-15.8298
  0
LINE
  8
0
 10
6.85405
 20
-15.8298
 11
6.9778
 21
-15.7813
  0
LINE
  8
0
 10
6.9778
 20
-15.7813
 11
7.09702
 21
-15.7224
  0
LINE
  8
0
 10
7.09702
 20
-15.7224
 11
7.22002
 21
-15.672
  0
LINE
  8
0
 10
7.22002
 20
-15.672
 11
7.33829
 21
-15.6113
  0
LINE
  8
0
 10
7.33829
 20
-15.6113
 11
7.46045
 21
-15.559
  0
LINE
  8
0
 10
7.46045
 20
-15.559
 11
7.5778
 21
-15.4964
  0
LINE
  8
0
 10
7.5778
 20
-15.4964
 11
7.69925
 21
-15.4422
  0
LINE
  8
0
 10
7.69925
 20
-15.4422
 11
7.81555
 21
-15.3779
  0
LINE
  8
0
 10
7.81555
 20
-15.3779
 11
7.93602
 21
-15.3219
  0
LINE
  8
0
 10
7.93602
 20
-15.3219
 11
8.05142
 21
-15.2557
  0
LINE
  8
0
 10
8.05142
 20
-15.2557
 11
8.17111
 21
-15.1978
  0
LINE
  8
0
 10
8.17111
 20
-15.1978
 11
8.2854
 21
-15.1299
  0
LINE
  8
0
 10
8.2854
 20
-15.1299
 11
8.40413
 21
-15.0702
  0
LINE
  8
0
 10
8.40413
 20
-15.0702
 11
8.51743
 21
-15.0005
  0
LINE
  8
0
 10
8.51743
 20
-15.0005
 11
8.63522
 21
-14.939
  0
LINE
  8
0
 10
8.63522
 20
-14.939
 11
8.74739
 21
-14.8676
  0
LINE
  8
0
 10
8.74739
 20
-14.8676
 11
8.8643
 21
-14.8042
  0
LINE
  8
0
 10
8.8643
 20
-14.8042
 11
8.97531
 21
-14.7311
  0
LINE
  8
0
 10
8.97531
 20
-14.7311
 11
9.09122
 21
-14.6659
  0
LINE
  8
0
 10
9.09122
 20
-14.6659
 11
9.2011
 21
-14.5911
  0
LINE
  8
0
 10
9.2011
 20
-14.5911
 11
9.31599
 21
-14.5242
  0
LINE
  8
0
 10
9.31599
 20
-14.5242
 11
9.4247
 21
-14.4477
  0
LINE
  8
0
 10
9.4247
 20
-14.4477
 11
9.58904
 21
-14.3485
  0
LINE
  8
0
 10
9.58904
 20
-14.3485
 11
9.75986
 21
-14.261
  0
LINE
  8
0
 10
9.75986
 20
-14.261
 11
9.9364
 21
-14.1857
  0
LINE
  8
0
 10
9.9364
 20
-14.1857
 11
10.1178
 21
-14.1228
  0
LINE
  8
0
 10
10.1178
 20
-14.1228
 11
10.3031
 21
-14.0728
  0
LINE
  8
0
 10
10.3031
 20
-14.0728
 11
10.4914
 21
-14.0358
  0
LINE
  8
0
 10
10.4914
 20
-14.0358
 11
10.6819
 21
-14.012
  0
LINE
  8
0
 10
10.6819
 20
-14.012
 11
10.8735
 21
-14.0015
  0
LINE
  8
0
 10
10.8735
 20
-14.0015
 11
11.0655
 21
-14.0045
  0
LINE
  8
0
 10
11.0655
 20
-14.0045
 11
11.2567
 21
-14.0208
  0
LINE
  8
0
 10
11.2567
 20
-14.0208
 11
11.4464
 21
-14.0504
  0
LINE
  8
0
 10
11.4464
 20
-14.0504
 11
11.6335
 21
-14.0932
  0
LINE
  8
0
 10
11.6335
 20
-14.0932
 11
11.8172
 21
-14.149
  0
LINE
  8
0
 10
11.8172
 20
-14.149
 11
11.9965
 21
-14.2174
  0
LINE
  8
0
 10
11.9965
 20
-14.2174
 11
12.1706
 21
-14.2982
  0
LINE
  8
0
 10
12.1706
 20
-14.2982
 11
12.3387
 21
-14.3909
  0
LINE
  8
0
 10
12.3387
 20
-14.3909
 11
12.4999
 21
-14.4951
  0
LINE
  8
0
 10
12.4999
 20
-14.4951
 11
12.6534
 21
-14.6103
  0
LINE
  8
0
 10
12.6534
 20
-14.6103
 11
12.7986
 21
-14.7359
  0
LINE
  8
0
 10
12.7986
 20
-14.7359
 11
12.9345
 21
-14.8714
  0
LINE
  8
0
 10
12.9345
 20
-14.8714
 11
13.0608
 21
-15.016
  0
LINE
  8
0
 10
13.0608
 20
-15.016
 11
13.1766
 21
-15.1691
  0
LINE
  8
0
 10
13.1766
 20
-15.1691
 11
13.2815
 21
-15.3298
  0
LINE
  8
0
 10
13.2815
 20
-15.3298
 11
13.3749
 21
-15.4975
  0
LINE
  8
0
 10
13.3749
 20
-15.4975
 11
13.4564
 21
-15.6713
  0
LINE
  8
0
 10
13.4564
 20
-15.6713
 11
13.5255
 21
-15.8503
  0
LINE
  8
0
 10
13.5255
 20
-15.8503
 11
13.582
 21
-16.0338
  0
LINE
  8
0
 10
13.582
 20
-16.0338
 11
13.6256
 21
-16.2207
  0
LINE
  8
0
 10
13.6256
 20
-16.2207
 11
13.656
 21
-16.4102
  0
LINE
  8
0
 10
13.656
 20
-16.4102
 11
13.6731
 21
-16.6014
  0
LINE
  8
0
 10
13.6731
 20
-16.6014
 11
13.6768
 21
-16.7934
  0
LINE
  8
0
 10
13.6768
 20
-16.7934
 11
13.6672
 21
-16.9851
  0
LINE
  8
0
 10
13.6672
 20
-16.9851
 11
13.6442
 21
-17.1756
  0
LINE
  8
0
 10
13.6442
 20
-17.1756
 11
13.608
 21
-17.3641
  0
LINE
  8
0
 10
13.608
 20
-17.3641
 11
13.5587
 21
-17.5496
  0
LINE
  8
0
 10
13.5587
 20
-17.5496
 11
13.4965
 21
-17.7312
  0
LINE
  8
0
 10
13.4965
 20
-17.7312
 11
13.4219
 21
-17.9081
  0
LINE
  8
0
 10
13.4219
 20
-17.9081
 11
13.3351
 21
-18.0793
  0
LINE
  8
0
 10
13.3351
 20
-18.0793
 11
13.2366
 21
-18.244
  0
LINE
  8
0
 10
13.2366
 20
-18.244
 11
13.1268
 21
-18.4015
  0
LINE
  8
0
 10
13.1268
 20
-18.4015
 11
13.0063
 21
-18.5509
  0
LINE
  8
0
 10
13.0063
 20
-18.5509
 11
12.8757
 21
-18.6915
  0
LINE
  8
0
 10
12.8757
 20
-18.6915
 11
12.7356
 21
-18.8227
  0
LINE
  8
0
 10
12.7356
 20
-18.8227
 11
12.5867
 21
-18.9438
  0
LINE
  8
0
 10
12.5867
 20
-18.9438
 11
12.4297
 21
-19.0543
  0
LINE
  8
0
 10
12.4297
 20
-19.0543
 11
12.2797
 21
-19.1448
  0
LINE
  8
0
 10
12.2797
 20
-19.1448
 11
12.1348
 21
-19.2434
  0
LINE
  8
0
 10
12.1348
 20
-19.2434
 11
11.9836
 21
-19.3315
  0
LINE
  8
0
 10
11.9836
 20
-19.3315
 11
11.837
 21
-19.428
  0
LINE
  8
0
 10
11.837
 20
-19.428
 11
11.6843
 21
-19.5139
  0
LINE
  8
0
 10
11.6843
 20
-19.5139
 11
11.5364
 21
-19.608
  0
LINE
  8
0
 10
11.5364
 20
-19.608
 11
11.3823
 21
-19.6916
  0
LINE
  8
0
 10
11.3823
 20
-19.6916
 11
11.2331
 21
-19.7833
  0
LINE
  8
0
 10
11.2331
 20
-19.7833
 11
11.0777
 21
-19.8645
  0
LINE
  8
0
 10
11.0777
 20
-19.8645
 11
10.9271
 21
-19.9539
  0
LINE
  8
0
 10
10.9271
 20
-19.9539
 11
10.7706
 21
-20.0327
  0
LINE
  8
0
 10
10.7706
 20
-20.0327
 11
10.6185
 21
-20.1198
  0
LINE
  8
0
 10
10.6185
 20
-20.1198
 11
10.4608
 21
-20.1962
  0
LINE
  8
0
 10
10.4608
 20
-20.1962
 11
10.3075
 21
-20.281
  0
LINE
  8
0
 10
10.3075
 20
-20.281
 11
10.1486
 21
-20.3548
  0
LINE
  8
0
 10
10.1486
 20
-20.3548
 11
9.99393
 21
-20.4373
  0
LINE
  8
0
 10
9.99393
 20
-20.4373
 11
9.83391
 21
-20.5087
  0
LINE
  8
0
 10
9.83391
 20
-20.5087
 11
9.67802
 21
-20.5888
  0
LINE
  8
0
 10
9.67802
 20
-20.5888
 11
9.5168
 21
-20.6578
  0
LINE
  8
0
 10
9.5168
 20
-20.6578
 11
9.3598
 21
-20.7354
  0
LINE
  8
0
 10
9.3598
 20
-20.7354
 11
9.19775
 21
-20.8018
  0
LINE
  8
0
 10
9.19775
 20
-20.8018
 11
9.03938
 21
-20.877
  0
LINE
  8
0
 10
9.03938
 20
-20.877
 11
8.8763
 21
-20.941
  0
LINE
  8
0
 10
8.8763
 20
-20.941
 11
8.71683
 21
-21.0138
  0
LINE
  8
0
 10
8.71683
 20
-21.0138
 11
8.55275
 21
-21.0752
  0
LINE
  8
0
 10
8.55275
 20
-21.0752
 11
8.3922
 21
-21.1455
  0
LINE
  8
0
 10
8.3922
 20
-21.1455
 11
8.22719
 21
-21.2044
  0
LINE
  8
0
 10
8.22719
 20
-21.2044
 11
8.06557
 21
-21.2722
  0
LINE
  8
0
 10
8.06557
 20
-21.2722
 11
7.89975
 21
-21.3286
  0
LINE
  8
0
 10
7.89975
 20
-21.3286
 11
7.73705
 21
-21.3939
  0
LINE
  8
0
 10
7.73705
 20
-21.3939
 11
7.57043
 21
-21.4477
  0
LINE
  8
0
 10
7.57043
 20
-21.4477
 11
7.40668
 21
-21.5105
  0
LINE
  8
0
 10
7.40668
 20
-21.5105
 11
7.23914
 21
-21.5618
  0
LINE
  8
0
 10
7.23914
 20
-21.5618
 11
7.07454
 21
-21.622
  0
LINE
  8
0
 10
7.07454
 20
-21.622
 11
6.9061
 21
-21.6707
  0
LINE
  8
0
 10
6.9061
 20
-21.6707
 11
6.74074
 21
-21.7284
  0
LINE
  8
0
 10
6.74074
 20
-21.7284
 11
6.57156
 21
-21.7745
  0
LINE
  8
0
 10
6.57156
 20
-21.7745
 11
6.40533
 21
-21.8297
  0
LINE
  8
0
 10
6.40533
 20
-21.8297
 11
6.23564
 21
-21.8731
  0
LINE
  8
0
 10
6.23564
 20
-21.8731
 11
6.06841
 21
-21.9257
  0
LINE
  8
0
 10
6.06841
 20
-21.9257
 11
5.8981
 21
-21.9665
  0
LINE
  8
0
 10
5.8981
 20
-21.9665
 11
5.73006
 21
-22.0165
  0
LINE
  8
0
 10
5.73006
 20
-22.0165
 11
5.55891
 21
-22.0548
  0
LINE
  8
0
 10
5.55891
 20
-22.0548
 11
5.39032
 21
-22.1022
  0
LINE
  8
0
 10
5.39032
 20
-22.1022
 11
5.21866
 21
-22.1377
  0
LINE
  8
0
 10
5.21866
 20
-22.1377
 11
5.04933
 21
-22.1826
  0
LINE
  8
0
 10
5.04933
 20
-22.1826
 11
4.87712
 21
-22.2155
  0
LINE
  8
0
 10
4.87712
 20
-22.2155
 11
4.70714
 21
-22.2577
  0
LINE
  8
0
 10
4.70714
 20
-22.2577
 11
4.53452
 21
-22.2879
  0
LINE
  8
0
 10
4.53452
 20
-22.2879
 11
4.36383
 21
-22.3275
  0
LINE
  8
0
 10
4.36383
 20
-22.3275
 11
4.19077
 21
-22.3551
  0
LINE
  8
0
 10
4.19077
 20
-22.3551
 11
4.01949
 21
-22.3921
  0
LINE
  8
0
 10
4.01949
 20
-22.3921
 11
3.84608
 21
-22.417
  0
LINE
  8
0
 10
3.84608
 20
-22.417
 11
3.67418
 21
-22.4513
  0
LINE
  8
0
 10
3.67418
 20
-22.4513
 11
3.50027
 21
-22.4736
  0
LINE
  8
0
 10
3.50027
 20
-22.4736
 11
3.328
 21
-22.5052
  0
LINE
  8
0
 10
3.328
 20
-22.5052
 11
3.15395
 21
-22.5248
  0
LINE
  8
0
 10
3.15395
 20
-22.5248
 11
2.98105
 21
-22.5538
  0
LINE
  8
0
 10
2.98105
 20
-22.5538
 11
2.80655
 21
-22.5707
  0
LINE
  8
0
 10
2.80655
 20
-22.5707
 11
2.63338
 21
-22.5971
  0
LINE
  8
0
 10
2.63338
 20
-22.5971
 11
2.45869
 21
-22.6113
  0
LINE
  8
0
 10
2.45869
 20
-22.6113
 11
2.28508
 21
-22.6349
  0
LINE
  8
0
 10
2.28508
 20
-22.6349
 11
2.11031
 21
-22.6464
  0
LINE
  8
0
 10
2.11031
 20
-22.6464
 11
1.93625
 21
-22.6674
  0
LINE
  8
0
 10
1.93625
 20
-22.6674
 11
1.76126
 21
-22.6763
  0
LINE
  8
0
 10
1.76126
 20
-22.6763
 11
1.58694
 21
-22.6946
  0
LINE
  8
0
 10
1.58694
 20
-22.6946
 11
1.39513
 21
-22.7013
  0
LINE
  8
0
 10
1.39513
 20
-22.7013
 11
1.20331
 21
-22.6946
  0
ENDSEC
  0
SECTION
  2
OBJECTS
  0
DICTIONARY
  0
ENDSEC
  0
EOF
