solid OpenSCAD_Model
  facet normal -1 0 0
    outer loop
      vertex 0 0 0
      vertex 0 90 10
      vertex 0 90 0
    endloop
  endfacet
  facet normal -1 -0 0
    outer loop
      vertex 0 90 10
      vertex 0 0 0
      vertex 0 0 10
    endloop
  endfacet
  facet normal 0 0 -1
    outer loop
      vertex 0 0 0
      vertex 120 90 0
      vertex 120 0 0
    endloop
  endfacet
  facet normal -0 0 -1
    outer loop
      vertex 120 90 0
      vertex 0 0 0
      vertex 0 90 0
    endloop
  endfacet
  facet normal 0 -0.856404 0.516306
    outer loop
      vertex 0 0 10
      vertex 62.1951 24.115 50
      vertex 57.8049 24.115 50
    endloop
  endfacet
  facet normal 0 -0.856404 0.516306
    outer loop
      vertex 62.1951 24.115 50
      vertex 0 0 10
      vertex 120 0 10
    endloop
  endfacet
  facet normal 0 -1 0
    outer loop
      vertex 0 0 0
      vertex 120 0 10
      vertex 0 0 10
    endloop
  endfacet
  facet normal 0 -1 -0
    outer loop
      vertex 120 0 10
      vertex 0 0 0
      vertex 120 0 0
    endloop
  endfacet
  facet normal 0.716 0 0.6981
    outer loop
      vertex 120 90 10
      vertex 81 45 50
      vertex 120 0 10
    endloop
  endfacet
  facet normal -0.593511 -0.192843 0.781381
    outer loop
      vertex 39.4589 40.6339 50
      vertex 0 0 10
      vertex 40.8155 36.4585 50
    endloop
  endfacet
  facet normal -0.27147 0.609731 0.744669
    outer loop
      vertex 53.5106 64.9722 50
      vertex 0 90 10
      vertex 49.5 63.1865 50
    endloop
  endfacet
  facet normal 0 1 -0
    outer loop
      vertex 120 90 0
      vertex 0 90 10
      vertex 120 90 10
    endloop
  endfacet
  facet normal 0 1 0
    outer loop
      vertex 0 90 10
      vertex 120 90 0
      vertex 0 90 0
    endloop
  endfacet
  facet normal 1 -0 0
    outer loop
      vertex 120 0 10
      vertex 120 90 0
      vertex 120 90 10
    endloop
  endfacet
  facet normal 1 0 0
    outer loop
      vertex 120 90 0
      vertex 120 0 10
      vertex 120 0 0
    endloop
  endfacet
  facet normal -0.363682 -0.500564 0.785602
    outer loop
      vertex 45.9483 29.394 50
      vertex 0 0 10
      vertex 49.5 26.8135 50
    endloop
  endfacet
  facet normal 0.363681 0.500565 0.785602
    outer loop
      vertex 120 90 10
      vertex 70.5 63.1865 50
      vertex 74.0517 60.606 50
    endloop
  endfacet
  facet normal -0.155297 -0.730615 0.664894
    outer loop
      vertex 53.5106 25.0278 50
      vertex 0 0 10
      vertex 57.8049 24.115 50
    endloop
  endfacet
  facet normal -0.443322 -0.399169 0.802577
    outer loop
      vertex 43.0106 32.6565 50
      vertex 0 0 10
      vertex 45.9483 29.394 50
    endloop
  endfacet
  facet normal 0.673248 -0.0707612 0.736023
    outer loop
      vertex 81 45 50
      vertex 80.5411 40.6339 50
      vertex 120 0 10
    endloop
  endfacet
  facet normal -0.27147 -0.609731 0.744669
    outer loop
      vertex 49.5 26.8135 50
      vertex 0 0 10
      vertex 53.5106 25.0278 50
    endloop
  endfacet
  facet normal -0.518102 -0.299126 0.801308
    outer loop
      vertex 40.8155 36.4585 50
      vertex 0 0 10
      vertex 43.0106 32.6565 50
    endloop
  endfacet
  facet normal 0.518102 0.299126 0.801308
    outer loop
      vertex 120 90 10
      vertex 76.9894 57.3435 50
      vertex 79.1845 53.5415 50
    endloop
  endfacet
  facet normal 0.363682 -0.500564 0.785602
    outer loop
      vertex 74.0517 29.394 50
      vertex 70.5 26.8135 50
      vertex 120 0 10
    endloop
  endfacet
  facet normal 0 0.856404 0.516306
    outer loop
      vertex 120 90 10
      vertex 57.8049 65.885 50
      vertex 62.1951 65.885 50
    endloop
  endfacet
  facet normal 0 0.856404 0.516306
    outer loop
      vertex 57.8049 65.885 50
      vertex 120 90 10
      vertex 0 90 10
    endloop
  endfacet
  facet normal -0.716 0 0.6981
    outer loop
      vertex 0 90 10
      vertex 0 0 10
      vertex 39 45 50
    endloop
  endfacet
  facet normal 0.443322 0.399169 0.802577
    outer loop
      vertex 120 90 10
      vertex 74.0517 60.606 50
      vertex 76.9894 57.3435 50
    endloop
  endfacet
  facet normal 0.673248 0.0707612 0.736023
    outer loop
      vertex 120 90 10
      vertex 80.5411 49.3661 50
      vertex 81 45 50
    endloop
  endfacet
  facet normal 0.518102 -0.299126 0.801308
    outer loop
      vertex 79.1845 36.4585 50
      vertex 76.9894 32.6565 50
      vertex 120 0 10
    endloop
  endfacet
  facet normal 0.27147 -0.609731 0.744669
    outer loop
      vertex 70.5 26.8135 50
      vertex 66.4894 25.0278 50
      vertex 120 0 10
    endloop
  endfacet
  facet normal -0.673248 -0.0707612 0.736023
    outer loop
      vertex 39 45 50
      vertex 0 0 10
      vertex 39.4589 40.6339 50
    endloop
  endfacet
  facet normal -0.673248 0.0707612 0.736023
    outer loop
      vertex 39.4589 49.3661 50
      vertex 0 90 10
      vertex 39 45 50
    endloop
  endfacet
  facet normal 0.593511 0.192843 0.781381
    outer loop
      vertex 120 90 10
      vertex 79.1845 53.5415 50
      vertex 80.5411 49.3661 50
    endloop
  endfacet
  facet normal 0.593511 -0.192843 0.781381
    outer loop
      vertex 80.5411 40.6339 50
      vertex 79.1845 36.4585 50
      vertex 120 0 10
    endloop
  endfacet
  facet normal 0.443322 -0.399169 0.802577
    outer loop
      vertex 76.9894 32.6565 50
      vertex 74.0517 29.394 50
      vertex 120 0 10
    endloop
  endfacet
  facet normal 0.155297 -0.730615 0.664894
    outer loop
      vertex 66.4894 25.0278 50
      vertex 62.1951 24.115 50
      vertex 120 0 10
    endloop
  endfacet
  facet normal -0.443322 0.399169 0.802577
    outer loop
      vertex 45.9483 60.606 50
      vertex 0 90 10
      vertex 43.0106 57.3435 50
    endloop
  endfacet
  facet normal -0.155297 0.730615 0.664894
    outer loop
      vertex 57.8049 65.885 50
      vertex 0 90 10
      vertex 53.5106 64.9722 50
    endloop
  endfacet
  facet normal 0.155297 0.730615 0.664894
    outer loop
      vertex 120 90 10
      vertex 62.1951 65.885 50
      vertex 66.4894 64.9722 50
    endloop
  endfacet
  facet normal -0.593511 0.192843 0.781381
    outer loop
      vertex 40.8155 53.5415 50
      vertex 0 90 10
      vertex 39.4589 49.3661 50
    endloop
  endfacet
  facet normal -0.363681 0.500565 0.785602
    outer loop
      vertex 49.5 63.1865 50
      vertex 0 90 10
      vertex 45.9483 60.606 50
    endloop
  endfacet
  facet normal 0.27147 0.609731 0.744669
    outer loop
      vertex 120 90 10
      vertex 66.4894 64.9722 50
      vertex 70.5 63.1865 50
    endloop
  endfacet
  facet normal -0.518102 0.299126 0.801308
    outer loop
      vertex 43.0106 57.3435 50
      vertex 0 90 10
      vertex 40.8155 53.5415 50
    endloop
  endfacet
  facet normal -0.994522 -0.104528 0
    outer loop
      vertex 81 45 10
      vertex 80.5411 49.3661 50
      vertex 80.5411 49.3661 10
    endloop
  endfacet
  facet normal -0.994522 -0.104528 0
    outer loop
      vertex 80.5411 49.3661 50
      vertex 81 45 10
      vertex 81 45 50
    endloop
  endfacet
  facet normal 0 -1 0
    outer loop
      vertex 57.8049 65.885 10
      vertex 62.1951 65.885 50
      vertex 57.8049 65.885 50
    endloop
  endfacet
  facet normal 0 -1 -0
    outer loop
      vertex 62.1951 65.885 50
      vertex 57.8049 65.885 10
      vertex 62.1951 65.885 10
    endloop
  endfacet
  facet normal 0.587786 0.809017 -0
    outer loop
      vertex 49.5 26.8135 10
      vertex 45.9483 29.394 50
      vertex 49.5 26.8135 50
    endloop
  endfacet
  facet normal 0.587786 0.809017 0
    outer loop
      vertex 45.9483 29.394 50
      vertex 49.5 26.8135 10
      vertex 45.9483 29.394 10
    endloop
  endfacet
  facet normal -0.587785 -0.809017 0
    outer loop
      vertex 70.5 63.1865 10
      vertex 74.0517 60.606 50
      vertex 70.5 63.1865 50
    endloop
  endfacet
  facet normal -0.587785 -0.809017 -0
    outer loop
      vertex 74.0517 60.606 50
      vertex 70.5 63.1865 10
      vertex 74.0517 60.606 10
    endloop
  endfacet
  facet normal 0.743145 -0.669131 0
    outer loop
      vertex 43.0106 57.3435 50
      vertex 45.9483 60.606 10
      vertex 45.9483 60.606 50
    endloop
  endfacet
  facet normal 0.743145 -0.669131 0
    outer loop
      vertex 45.9483 60.606 10
      vertex 43.0106 57.3435 50
      vertex 43.0106 57.3435 10
    endloop
  endfacet
  facet normal 0.406736 -0.913546 0
    outer loop
      vertex 49.5 63.1865 10
      vertex 53.5106 64.9722 50
      vertex 49.5 63.1865 50
    endloop
  endfacet
  facet normal 0.406736 -0.913546 0
    outer loop
      vertex 53.5106 64.9722 50
      vertex 49.5 63.1865 10
      vertex 53.5106 64.9722 10
    endloop
  endfacet
  facet normal -0.743145 0.669131 0
    outer loop
      vertex 74.0517 29.394 10
      vertex 76.9894 32.6565 50
      vertex 76.9894 32.6565 10
    endloop
  endfacet
  facet normal -0.743145 0.669131 0
    outer loop
      vertex 76.9894 32.6565 50
      vertex 74.0517 29.394 10
      vertex 74.0517 29.394 50
    endloop
  endfacet
  facet normal -0.866025 -0.5 0
    outer loop
      vertex 79.1845 53.5415 10
      vertex 76.9894 57.3435 50
      vertex 76.9894 57.3435 10
    endloop
  endfacet
  facet normal -0.866025 -0.5 0
    outer loop
      vertex 76.9894 57.3435 50
      vertex 79.1845 53.5415 10
      vertex 79.1845 53.5415 50
    endloop
  endfacet
  facet normal -0.951057 -0.309017 0
    outer loop
      vertex 80.5411 49.3661 10
      vertex 79.1845 53.5415 50
      vertex 79.1845 53.5415 10
    endloop
  endfacet
  facet normal -0.951057 -0.309017 0
    outer loop
      vertex 79.1845 53.5415 50
      vertex 80.5411 49.3661 10
      vertex 80.5411 49.3661 50
    endloop
  endfacet
  facet normal -0.743145 -0.669131 0
    outer loop
      vertex 76.9894 57.3435 10
      vertex 74.0517 60.606 50
      vertex 74.0517 60.606 10
    endloop
  endfacet
  facet normal -0.743145 -0.669131 0
    outer loop
      vertex 74.0517 60.606 50
      vertex 76.9894 57.3435 10
      vertex 76.9894 57.3435 50
    endloop
  endfacet
  facet normal -0.207912 -0.978148 0
    outer loop
      vertex 62.1951 65.885 10
      vertex 66.4894 64.9722 50
      vertex 62.1951 65.885 50
    endloop
  endfacet
  facet normal -0.207912 -0.978148 -0
    outer loop
      vertex 66.4894 64.9722 50
      vertex 62.1951 65.885 10
      vertex 66.4894 64.9722 10
    endloop
  endfacet
  facet normal -0.406736 -0.913546 0
    outer loop
      vertex 66.4894 64.9722 10
      vertex 70.5 63.1865 50
      vertex 66.4894 64.9722 50
    endloop
  endfacet
  facet normal -0.406736 -0.913546 -0
    outer loop
      vertex 70.5 63.1865 50
      vertex 66.4894 64.9722 10
      vertex 70.5 63.1865 10
    endloop
  endfacet
  facet normal 0.951057 -0.309017 0
    outer loop
      vertex 39.4589 49.3661 50
      vertex 40.8155 53.5415 10
      vertex 40.8155 53.5415 50
    endloop
  endfacet
  facet normal 0.951057 -0.309017 0
    outer loop
      vertex 40.8155 53.5415 10
      vertex 39.4589 49.3661 50
      vertex 39.4589 49.3661 10
    endloop
  endfacet
  facet normal 0 0 1
    outer loop
      vertex 80.5411 49.3661 10
      vertex 80.5411 40.6339 10
      vertex 81 45 10
    endloop
  endfacet
  facet normal 0 0 1
    outer loop
      vertex 79.1845 53.5415 10
      vertex 80.5411 40.6339 10
      vertex 80.5411 49.3661 10
    endloop
  endfacet
  facet normal 0 0 1
    outer loop
      vertex 79.1845 53.5415 10
      vertex 79.1845 36.4585 10
      vertex 80.5411 40.6339 10
    endloop
  endfacet
  facet normal 0 0 1
    outer loop
      vertex 76.9894 57.3435 10
      vertex 79.1845 36.4585 10
      vertex 79.1845 53.5415 10
    endloop
  endfacet
  facet normal 0 0 1
    outer loop
      vertex 76.9894 57.3435 10
      vertex 76.9894 32.6565 10
      vertex 79.1845 36.4585 10
    endloop
  endfacet
  facet normal 0 0 1
    outer loop
      vertex 74.0517 60.606 10
      vertex 76.9894 32.6565 10
      vertex 76.9894 57.3435 10
    endloop
  endfacet
  facet normal 0 0 1
    outer loop
      vertex 74.0517 60.606 10
      vertex 74.0517 29.394 10
      vertex 76.9894 32.6565 10
    endloop
  endfacet
  facet normal 0 0 1
    outer loop
      vertex 70.5 63.1865 10
      vertex 74.0517 29.394 10
      vertex 74.0517 60.606 10
    endloop
  endfacet
  facet normal 0 0 1
    outer loop
      vertex 70.5 63.1865 10
      vertex 70.5 26.8135 10
      vertex 74.0517 29.394 10
    endloop
  endfacet
  facet normal 0 0 1
    outer loop
      vertex 66.4894 64.9722 10
      vertex 70.5 26.8135 10
      vertex 70.5 63.1865 10
    endloop
  endfacet
  facet normal 0 0 1
    outer loop
      vertex 66.4894 64.9722 10
      vertex 66.4894 25.0278 10
      vertex 70.5 26.8135 10
    endloop
  endfacet
  facet normal 0 0 1
    outer loop
      vertex 62.1951 65.885 10
      vertex 66.4894 25.0278 10
      vertex 66.4894 64.9722 10
    endloop
  endfacet
  facet normal 0 0 1
    outer loop
      vertex 62.1951 65.885 10
      vertex 62.1951 24.115 10
      vertex 66.4894 25.0278 10
    endloop
  endfacet
  facet normal -0 0 1
    outer loop
      vertex 57.8049 65.885 10
      vertex 62.1951 24.115 10
      vertex 62.1951 65.885 10
    endloop
  endfacet
  facet normal 0 0 1
    outer loop
      vertex 57.8049 65.885 10
      vertex 57.8049 24.115 10
      vertex 62.1951 24.115 10
    endloop
  endfacet
  facet normal -0 0 1
    outer loop
      vertex 53.5106 64.9722 10
      vertex 57.8049 24.115 10
      vertex 57.8049 65.885 10
    endloop
  endfacet
  facet normal 0 0 1
    outer loop
      vertex 53.5106 64.9722 10
      vertex 53.5106 25.0278 10
      vertex 57.8049 24.115 10
    endloop
  endfacet
  facet normal -0 0 1
    outer loop
      vertex 49.5 63.1865 10
      vertex 53.5106 25.0278 10
      vertex 53.5106 64.9722 10
    endloop
  endfacet
  facet normal 0 0 1
    outer loop
      vertex 49.5 63.1865 10
      vertex 49.5 26.8135 10
      vertex 53.5106 25.0278 10
    endloop
  endfacet
  facet normal -0 0 1
    outer loop
      vertex 45.9483 60.606 10
      vertex 49.5 26.8135 10
      vertex 49.5 63.1865 10
    endloop
  endfacet
  facet normal 0 0 1
    outer loop
      vertex 45.9483 60.606 10
      vertex 45.9483 29.394 10
      vertex 49.5 26.8135 10
    endloop
  endfacet
  facet normal -0 0 1
    outer loop
      vertex 43.0106 57.3435 10
      vertex 45.9483 29.394 10
      vertex 45.9483 60.606 10
    endloop
  endfacet
  facet normal 0 0 1
    outer loop
      vertex 43.0106 57.3435 10
      vertex 43.0106 32.6565 10
      vertex 45.9483 29.394 10
    endloop
  endfacet
  facet normal -0 0 1
    outer loop
      vertex 40.8155 53.5415 10
      vertex 43.0106 32.6565 10
      vertex 43.0106 57.3435 10
    endloop
  endfacet
  facet normal 0 0 1
    outer loop
      vertex 40.8155 53.5415 10
      vertex 40.8155 36.4585 10
      vertex 43.0106 32.6565 10
    endloop
  endfacet
  facet normal -0 0 1
    outer loop
      vertex 39.4589 49.3661 10
      vertex 40.8155 36.4585 10
      vertex 40.8155 53.5415 10
    endloop
  endfacet
  facet normal 0 0 1
    outer loop
      vertex 39.4589 49.3661 10
      vertex 39.4589 40.6339 10
      vertex 40.8155 36.4585 10
    endloop
  endfacet
  facet normal 0 -0 1
    outer loop
      vertex 39.4589 40.6339 10
      vertex 39.4589 49.3661 10
      vertex 39 45 10
    endloop
  endfacet
  facet normal 0.866025 -0.5 0
    outer loop
      vertex 40.8155 53.5415 50
      vertex 43.0106 57.3435 10
      vertex 43.0106 57.3435 50
    endloop
  endfacet
  facet normal 0.866025 -0.5 0
    outer loop
      vertex 43.0106 57.3435 10
      vertex 40.8155 53.5415 50
      vertex 40.8155 53.5415 10
    endloop
  endfacet
  facet normal 0.994522 -0.104528 0
    outer loop
      vertex 39 45 50
      vertex 39.4589 49.3661 10
      vertex 39.4589 49.3661 50
    endloop
  endfacet
  facet normal 0.994522 -0.104528 0
    outer loop
      vertex 39.4589 49.3661 10
      vertex 39 45 50
      vertex 39 45 10
    endloop
  endfacet
  facet normal 0.587785 -0.809017 0
    outer loop
      vertex 45.9483 60.606 10
      vertex 49.5 63.1865 50
      vertex 45.9483 60.606 50
    endloop
  endfacet
  facet normal 0.587785 -0.809017 0
    outer loop
      vertex 49.5 63.1865 50
      vertex 45.9483 60.606 10
      vertex 49.5 63.1865 10
    endloop
  endfacet
  facet normal 0.207912 -0.978148 0
    outer loop
      vertex 53.5106 64.9722 10
      vertex 57.8049 65.885 50
      vertex 53.5106 64.9722 50
    endloop
  endfacet
  facet normal 0.207912 -0.978148 0
    outer loop
      vertex 57.8049 65.885 50
      vertex 53.5106 64.9722 10
      vertex 57.8049 65.885 10
    endloop
  endfacet
  facet normal -0.994522 0.104528 0
    outer loop
      vertex 80.5411 40.6339 10
      vertex 81 45 50
      vertex 81 45 10
    endloop
  endfacet
  facet normal -0.994522 0.104528 0
    outer loop
      vertex 81 45 50
      vertex 80.5411 40.6339 10
      vertex 80.5411 40.6339 50
    endloop
  endfacet
  facet normal -0.207912 0.978148 0
    outer loop
      vertex 66.4894 25.0278 10
      vertex 62.1951 24.115 50
      vertex 66.4894 25.0278 50
    endloop
  endfacet
  facet normal -0.207912 0.978148 0
    outer loop
      vertex 62.1951 24.115 50
      vertex 66.4894 25.0278 10
      vertex 62.1951 24.115 10
    endloop
  endfacet
  facet normal -0.587786 0.809017 0
    outer loop
      vertex 74.0517 29.394 10
      vertex 70.5 26.8135 50
      vertex 74.0517 29.394 50
    endloop
  endfacet
  facet normal -0.587786 0.809017 0
    outer loop
      vertex 70.5 26.8135 50
      vertex 74.0517 29.394 10
      vertex 70.5 26.8135 10
    endloop
  endfacet
  facet normal 0.406736 0.913546 -0
    outer loop
      vertex 53.5106 25.0278 10
      vertex 49.5 26.8135 50
      vertex 53.5106 25.0278 50
    endloop
  endfacet
  facet normal 0.406736 0.913546 0
    outer loop
      vertex 49.5 26.8135 50
      vertex 53.5106 25.0278 10
      vertex 49.5 26.8135 10
    endloop
  endfacet
  facet normal 0 1 -0
    outer loop
      vertex 62.1951 24.115 10
      vertex 57.8049 24.115 50
      vertex 62.1951 24.115 50
    endloop
  endfacet
  facet normal 0 1 0
    outer loop
      vertex 57.8049 24.115 50
      vertex 62.1951 24.115 10
      vertex 57.8049 24.115 10
    endloop
  endfacet
  facet normal 0.743145 0.669131 0
    outer loop
      vertex 45.9483 29.394 50
      vertex 43.0106 32.6565 10
      vertex 43.0106 32.6565 50
    endloop
  endfacet
  facet normal 0.743145 0.669131 0
    outer loop
      vertex 43.0106 32.6565 10
      vertex 45.9483 29.394 50
      vertex 45.9483 29.394 10
    endloop
  endfacet
  facet normal 0.951057 0.309017 0
    outer loop
      vertex 40.8155 36.4585 50
      vertex 39.4589 40.6339 10
      vertex 39.4589 40.6339 50
    endloop
  endfacet
  facet normal 0.951057 0.309017 0
    outer loop
      vertex 39.4589 40.6339 10
      vertex 40.8155 36.4585 50
      vertex 40.8155 36.4585 10
    endloop
  endfacet
  facet normal 0.994522 0.104528 0
    outer loop
      vertex 39.4589 40.6339 50
      vertex 39 45 10
      vertex 39 45 50
    endloop
  endfacet
  facet normal 0.994522 0.104528 0
    outer loop
      vertex 39 45 10
      vertex 39.4589 40.6339 50
      vertex 39.4589 40.6339 10
    endloop
  endfacet
  facet normal -0.406736 0.913546 0
    outer loop
      vertex 70.5 26.8135 10
      vertex 66.4894 25.0278 50
      vertex 70.5 26.8135 50
    endloop
  endfacet
  facet normal -0.406736 0.913546 0
    outer loop
      vertex 66.4894 25.0278 50
      vertex 70.5 26.8135 10
      vertex 66.4894 25.0278 10
    endloop
  endfacet
  facet normal -0.951057 0.309017 0
    outer loop
      vertex 79.1845 36.4585 10
      vertex 80.5411 40.6339 50
      vertex 80.5411 40.6339 10
    endloop
  endfacet
  facet normal -0.951057 0.309017 0
    outer loop
      vertex 80.5411 40.6339 50
      vertex 79.1845 36.4585 10
      vertex 79.1845 36.4585 50
    endloop
  endfacet
  facet normal -0.866025 0.5 0
    outer loop
      vertex 76.9894 32.6565 10
      vertex 79.1845 36.4585 50
      vertex 79.1845 36.4585 10
    endloop
  endfacet
  facet normal -0.866025 0.5 0
    outer loop
      vertex 79.1845 36.4585 50
      vertex 76.9894 32.6565 10
      vertex 76.9894 32.6565 50
    endloop
  endfacet
  facet normal 0.207912 0.978148 -0
    outer loop
      vertex 57.8049 24.115 10
      vertex 53.5106 25.0278 50
      vertex 57.8049 24.115 50
    endloop
  endfacet
  facet normal 0.207912 0.978148 0
    outer loop
      vertex 53.5106 25.0278 50
      vertex 57.8049 24.115 10
      vertex 53.5106 25.0278 10
    endloop
  endfacet
  facet normal 0.866025 0.5 0
    outer loop
      vertex 43.0106 32.6565 50
      vertex 40.8155 36.4585 10
      vertex 40.8155 36.4585 50
    endloop
  endfacet
  facet normal 0.866025 0.5 0
    outer loop
      vertex 40.8155 36.4585 10
      vertex 43.0106 32.6565 50
      vertex 43.0106 32.6565 10
    endloop
  endfacet
endsolid OpenSCAD_Model
