  0
SECTION
  2
HEADER
  9
$ACADVER
  1
AC1014
  9
$HANDSEED
  5
FFFF
  9
$MEASUREMENT
 70
     1
  0
ENDSEC
  0
SECTION
  2
TABLES
  0
TABLE
  2
VPORT
  5
8
330
0
100
AcDbSymbolTable
 70
     4
  0
VPORT
  5
2E
330
8
100
AcDbSymbolTableRecord
100
AcDbViewportTableRecord
  2
*ACTIVE
 70
     0
 10
0.0
 20
0.0
 11
1.0
 21
1.0
 12
210.0
 22
148.5
 13
0.0
 23
0.0
 14
10.0
 24
10.0
 15
10.0
 25
10.0
 16
0.0
 26
0.0
 36
1.0
 17
0.0
 27
0.0
 37
0.0
 40
341.0
 41
1.24
 42
50.0
 43
0.0
 44
0.0
 50
0.0
 51
0.0
 71
     0
 72
   100
 73
     1
 74
     3
 75
     0
 76
     0
 77
     0
 78
     0
  0
ENDTAB
  0
TABLE
  2
LTYPE
  5
5
330
0
100
AcDbSymbolTable
 70
     1
  0
LTYPE
  5
14
330
5
100
AcDbSymbolTableRecord
100
AcDbLinetypeTableRecord
  2
BYBLOCK
 70
     0
  3

 72
    65
 73
     0
 40
0.0
  0
LTYPE
  5
15
330
5
100
AcDbSymbolTableRecord
100
AcDbLinetypeTableRecord
  2
BYLAYER
 70
     0
  3

 72
    65
 73
     0
 40
0.0
  0
LTYPE
  5
16
330
5
100
AcDbSymbolTableRecord
100
AcDbLinetypeTableRecord
  2
CONTINUOUS
 70
     0
  3
Solid line
 72
    65
 73
     0
 40
0.0
  0
ENDTAB
  0
TABLE
  2
LAYER
  5
2
100
AcDbSymbolTable
 70
2
  0
LAYER
  5
50
100
AcDbSymbolTableRecord
100
AcDbLayerTableRecord
  2
0
 70
0
  6
CONTINUOUS
  0
LAYER
  5
51
100
AcDbSymbolTableRecord
100
AcDbLayerTableRecord
  2
SPOOLHOLDER4
 70
0
  6
CONTINUOUS
  0
ENDTAB
  0
TABLE
  2
STYLE
  5
3
330
0
100
AcDbSymbolTable
 70
     1
  0
STYLE
  5
11
330
3
100
AcDbSymbolTableRecord
100
AcDbTextStyleTableRecord
  2
STANDARD
 70
     0
 40
0.0
 41
1.0
 50
0.0
 71
     0
 42
2.5
  3
txt
  4

  0
ENDTAB
  0
TABLE
  2
VIEW
  5
6
330
0
100
AcDbSymbolTable
 70
     0
  0
ENDTAB
  0
TABLE
  2
UCS
  5
7
330
0
100
AcDbSymbolTable
 70
     0
  0
ENDTAB
  0
TABLE
  2
APPID
  5
9
330
0
100
AcDbSymbolTable
 70
     2
  0
APPID
  5
12
330
9
100
AcDbSymbolTableRecord
100
AcDbRegAppTableRecord
  2
ACAD
 70
     0
  0
ENDTAB
  0
TABLE
  2
DIMSTYLE
  5
A
330
0
100
AcDbSymbolTable
 70
     1
  0
DIMSTYLE
105
27
330
A
100
AcDbSymbolTableRecord
100
AcDbDimStyleTableRecord
  2
ISO-25
 70
     0
  3

  4

  5

  6

  7

 40
1.0
 41
2.5
 42
0.625
 43
3.75
 44
1.25
 45
0.0
 46
0.0
 47
0.0
 48
0.0
140
2.5
141
2.5
142
0.0
143
0.03937007874016
144
1.0
145
0.0
146
1.0
147
0.625
 71
     0
 72
     0
 73
     0
 74
     0
 75
     0
 76
     0
 77
     1
 78
     8
170
     0
171
     3
172
     1
173
     0
174
     0
175
     0
176
     0
177
     0
178
     0
270
     2
271
     2
272
     2
273
     2
274
     3
340
11
275
     0
280
     0
281
     0
282
     0
283
     0
284
     8
285
     0
286
     0
287
     3
288
     0
  0
ENDTAB
  0
TABLE
  2
BLOCK_RECORD
  5
1
330
0
100
AcDbSymbolTable
 70
     1
  0
BLOCK_RECORD
  5
1F
330
1
100
AcDbSymbolTableRecord
100
AcDbBlockTableRecord
  2
*MODEL_SPACE
  0
BLOCK_RECORD
  5
1B
330
1
100
AcDbSymbolTableRecord
100
AcDbBlockTableRecord
  2
*PAPER_SPACE
  0
ENDTAB
  0
ENDSEC
  0
SECTION
  2
BLOCKS
  0
BLOCK
  5
20
330
1F
100
AcDbEntity
  8
0
100
AcDbBlockBegin
  2
*MODEL_SPACE
 70
     0
 10
0.0
 20
0.0
 30
0.0
  3
*MODEL_SPACE
  1

  0
ENDBLK
  5
21
330
1F
100
AcDbEntity
  8
0
100
AcDbBlockEnd
  0
BLOCK
  5
1C
330
1B
100
AcDbEntity
 67
     1
  8
0
100
AcDbBlockBegin
  2
*PAPER_SPACE
  1

  0
ENDBLK
  5
1D
330
1B
100
AcDbEntity
 67
     1
  8
0
100
AcDbBlockEnd
  0
ENDSEC
  0
SECTION
  2
ENTITIES
  0
LWPOLYLINE
  5
100
100
AcDbEntity
  8
SPOOLHOLDER4
 62
7
100
AcDbPolyline
 90
11
 70
0
 10
8.981944
 20
31.562500
 30
0.0
 10
8.970833
 20
31.652778
 30
0.0
 10
8.943056
 20
31.737500
 30
0.0
 10
8.901389
 20
31.816667
 30
0.0
 10
8.845833
 20
31.887500
 30
0.0
 10
8.779167
 20
31.947222
 30
0.0
 10
8.702778
 20
31.994444
 30
0.0
 10
8.619444
 20
32.026389
 30
0.0
 10
8.530556
 20
32.043056
 30
0.0
 10
8.441667
 20
32.044444
 30
0.0
 10
8.352778
 20
32.027778
 30
0.0
  0
LWPOLYLINE
  5
101
100
AcDbEntity
  8
SPOOLHOLDER4
 62
7
100
AcDbPolyline
 90
9
 70
0
 10
8.611111
 20
31.097222
 30
0.0
 10
8.686111
 20
31.125000
 30
0.0
 10
8.755556
 20
31.162500
 30
0.0
 10
8.819444
 20
31.211111
 30
0.0
 10
8.873611
 20
31.269444
 30
0.0
 10
8.918056
 20
31.334722
 30
0.0
 10
8.951389
 20
31.406944
 30
0.0
 10
8.972222
 20
31.484722
 30
0.0
 10
8.981944
 20
31.562500
 30
0.0
  0
LWPOLYLINE
  5
102
100
AcDbEntity
  8
SPOOLHOLDER4
 62
7
100
AcDbPolyline
 90
9
 70
0
 10
9.025000
 20
29.783333
 30
0.0
 10
8.997222
 20
29.747222
 30
0.0
 10
8.968056
 20
29.713889
 30
0.0
 10
8.934722
 20
29.683333
 30
0.0
 10
8.900000
 20
29.655556
 30
0.0
 10
8.862500
 20
29.630556
 30
0.0
 10
8.822222
 20
29.609722
 30
0.0
 10
8.781944
 20
29.593056
 30
0.0
 10
8.738889
 20
29.579167
 30
0.0
  0
LWPOLYLINE
  5
103
100
AcDbEntity
  8
SPOOLHOLDER4
 62
7
100
AcDbPolyline
 90
9
 70
0
 10
8.645833
 20
24.106944
 30
0.0
 10
8.716667
 20
24.131944
 30
0.0
 10
8.784722
 20
24.168056
 30
0.0
 10
8.844444
 20
24.213889
 30
0.0
 10
8.898611
 20
24.268056
 30
0.0
 10
8.943056
 20
24.329167
 30
0.0
 10
8.977778
 20
24.397222
 30
0.0
 10
9.001389
 20
24.469444
 30
0.0
 10
9.013889
 20
24.544444
 30
0.0
  0
LWPOLYLINE
  5
104
100
AcDbEntity
  8
SPOOLHOLDER4
 62
7
100
AcDbPolyline
 90
9
 70
0
 10
9.025000
 20
22.783333
 30
0.0
 10
8.997222
 20
22.747222
 30
0.0
 10
8.968056
 20
22.713889
 30
0.0
 10
8.934722
 20
22.683333
 30
0.0
 10
8.900000
 20
22.655556
 30
0.0
 10
8.862500
 20
22.630556
 30
0.0
 10
8.822222
 20
22.609722
 30
0.0
 10
8.781944
 20
22.593056
 30
0.0
 10
8.738889
 20
22.579167
 30
0.0
  0
LWPOLYLINE
  5
105
100
AcDbEntity
  8
SPOOLHOLDER4
 62
7
100
AcDbPolyline
 90
9
 70
0
 10
8.645833
 20
17.106944
 30
0.0
 10
8.716667
 20
17.131944
 30
0.0
 10
8.784722
 20
17.168056
 30
0.0
 10
8.844444
 20
17.213889
 30
0.0
 10
8.898611
 20
17.268056
 30
0.0
 10
8.943056
 20
17.329167
 30
0.0
 10
8.977778
 20
17.397222
 30
0.0
 10
9.001389
 20
17.469444
 30
0.0
 10
9.013889
 20
17.544444
 30
0.0
  0
LWPOLYLINE
  5
106
100
AcDbEntity
  8
SPOOLHOLDER4
 62
7
100
AcDbPolyline
 90
9
 70
0
 10
9.025000
 20
15.783333
 30
0.0
 10
8.997222
 20
15.747222
 30
0.0
 10
8.968056
 20
15.713889
 30
0.0
 10
8.934722
 20
15.683333
 30
0.0
 10
8.900000
 20
15.655556
 30
0.0
 10
8.862500
 20
15.630556
 30
0.0
 10
8.822222
 20
15.609722
 30
0.0
 10
8.781944
 20
15.593056
 30
0.0
 10
8.738889
 20
15.579167
 30
0.0
  0
LWPOLYLINE
  5
107
100
AcDbEntity
  8
SPOOLHOLDER4
 62
7
100
AcDbPolyline
 90
9
 70
0
 10
8.645833
 20
10.106944
 30
0.0
 10
8.716667
 20
10.131944
 30
0.0
 10
8.784722
 20
10.168056
 30
0.0
 10
8.844444
 20
10.213889
 30
0.0
 10
8.898611
 20
10.268056
 30
0.0
 10
8.943056
 20
10.329167
 30
0.0
 10
8.977778
 20
10.397222
 30
0.0
 10
9.001389
 20
10.469444
 30
0.0
 10
9.013889
 20
10.544444
 30
0.0
  0
LWPOLYLINE
  5
108
100
AcDbEntity
  8
SPOOLHOLDER4
 62
7
100
AcDbPolyline
 90
9
 70
0
 10
9.025000
 20
8.783333
 30
0.0
 10
8.997222
 20
8.747222
 30
0.0
 10
8.968056
 20
8.713889
 30
0.0
 10
8.934722
 20
8.683333
 30
0.0
 10
8.900000
 20
8.655556
 30
0.0
 10
8.862500
 20
8.630556
 30
0.0
 10
8.822222
 20
8.609722
 30
0.0
 10
8.781944
 20
8.593056
 30
0.0
 10
8.738889
 20
8.579167
 30
0.0
  0
LWPOLYLINE
  5
109
100
AcDbEntity
  8
SPOOLHOLDER4
 62
7
100
AcDbPolyline
 90
9
 70
0
 10
9.111111
 20
6.544444
 30
0.0
 10
9.188889
 20
6.572222
 30
0.0
 10
9.259722
 20
6.612500
 30
0.0
 10
9.323611
 20
6.662500
 30
0.0
 10
9.379167
 20
6.723611
 30
0.0
 10
9.423611
 20
6.791667
 30
0.0
 10
9.455556
 20
6.866667
 30
0.0
 10
9.475000
 20
6.945833
 30
0.0
 10
9.481944
 20
7.027778
 30
0.0
  0
LWPOLYLINE
  5
10a
100
AcDbEntity
  8
SPOOLHOLDER4
 62
7
100
AcDbPolyline
 90
2
 70
0
 10
7.050000
 20
9.679167
 30
0.0
 10
8.645833
 20
10.106944
 30
0.0
  0
LWPOLYLINE
  5
10b
100
AcDbEntity
  8
SPOOLHOLDER4
 62
7
100
AcDbPolyline
 90
24
 70
0
 10
7.438889
 20
8.230556
 30
0.0
 10
7.337500
 20
8.211111
 30
0.0
 10
7.236111
 20
8.205556
 30
0.0
 10
7.133333
 20
8.212500
 30
0.0
 10
7.033333
 20
8.234722
 30
0.0
 10
6.937500
 20
8.270833
 30
0.0
 10
6.847222
 20
8.318056
 30
0.0
 10
6.763889
 20
8.379167
 30
0.0
 10
6.690278
 20
8.450000
 30
0.0
 10
6.626389
 20
8.529167
 30
0.0
 10
6.575000
 20
8.618056
 30
0.0
 10
6.534722
 20
8.712500
 30
0.0
 10
6.508333
 20
8.811111
 30
0.0
 10
6.495833
 20
8.912500
 30
0.0
 10
6.497222
 20
9.015278
 30
0.0
 10
6.511111
 20
9.115278
 30
0.0
 10
6.540278
 20
9.213889
 30
0.0
 10
6.581944
 20
9.306944
 30
0.0
 10
6.636111
 20
9.394444
 30
0.0
 10
6.701389
 20
9.473611
 30
0.0
 10
6.777778
 20
9.541667
 30
0.0
 10
6.862500
 20
9.600000
 30
0.0
 10
6.952778
 20
9.645833
 30
0.0
 10
7.050000
 20
9.679167
 30
0.0
  0
LWPOLYLINE
  5
10c
100
AcDbEntity
  8
SPOOLHOLDER4
 62
7
100
AcDbPolyline
 90
2
 70
0
 10
8.738889
 20
8.579167
 30
0.0
 10
7.438889
 20
8.230556
 30
0.0
  0
LWPOLYLINE
  5
10d
100
AcDbEntity
  8
SPOOLHOLDER4
 62
7
100
AcDbPolyline
 90
11
 70
0
 10
9.481944
 20
8.644444
 30
0.0
 10
9.473611
 20
8.706944
 30
0.0
 10
9.450000
 20
8.766667
 30
0.0
 10
9.412500
 20
8.816667
 30
0.0
 10
9.362500
 20
8.856944
 30
0.0
 10
9.304167
 20
8.883333
 30
0.0
 10
9.241667
 20
8.894444
 30
0.0
 10
9.179167
 20
8.888889
 30
0.0
 10
9.119444
 20
8.866667
 30
0.0
 10
9.066667
 20
8.831944
 30
0.0
 10
9.025000
 20
8.783333
 30
0.0
  0
LWPOLYLINE
  5
10e
100
AcDbEntity
  8
SPOOLHOLDER4
 62
7
100
AcDbPolyline
 90
2
 70
0
 10
9.481944
 20
7.027778
 30
0.0
 10
9.481944
 20
8.644444
 30
0.0
  0
LWPOLYLINE
  5
10f
100
AcDbEntity
  8
SPOOLHOLDER4
 62
7
100
AcDbPolyline
 90
2
 70
0
 10
1.244444
 20
4.437500
 30
0.0
 10
9.111111
 20
6.544444
 30
0.0
  0
LWPOLYLINE
  5
110
100
AcDbEntity
  8
SPOOLHOLDER4
 62
7
100
AcDbPolyline
 90
2
 70
0
 10
1.244444
 20
30.123611
 30
0.0
 10
1.244444
 20
4.437500
 30
0.0
  0
LWPOLYLINE
  5
111
100
AcDbEntity
  8
SPOOLHOLDER4
 62
7
100
AcDbPolyline
 90
2
 70
0
 10
8.352778
 20
32.027778
 30
0.0
 10
1.244444
 20
30.123611
 30
0.0
  0
LWPOLYLINE
  5
112
100
AcDbEntity
  8
SPOOLHOLDER4
 62
7
100
AcDbPolyline
 90
2
 70
0
 10
7.050000
 20
30.679167
 30
0.0
 10
8.611111
 20
31.097222
 30
0.0
  0
LWPOLYLINE
  5
113
100
AcDbEntity
  8
SPOOLHOLDER4
 62
7
100
AcDbPolyline
 90
24
 70
0
 10
7.438889
 20
29.230556
 30
0.0
 10
7.337500
 20
29.211111
 30
0.0
 10
7.236111
 20
29.205556
 30
0.0
 10
7.133333
 20
29.212500
 30
0.0
 10
7.033333
 20
29.234722
 30
0.0
 10
6.937500
 20
29.270833
 30
0.0
 10
6.847222
 20
29.318056
 30
0.0
 10
6.763889
 20
29.379167
 30
0.0
 10
6.690278
 20
29.450000
 30
0.0
 10
6.626389
 20
29.529167
 30
0.0
 10
6.575000
 20
29.618056
 30
0.0
 10
6.534722
 20
29.712500
 30
0.0
 10
6.508333
 20
29.811111
 30
0.0
 10
6.495833
 20
29.912500
 30
0.0
 10
6.497222
 20
30.015278
 30
0.0
 10
6.511111
 20
30.115278
 30
0.0
 10
6.540278
 20
30.213889
 30
0.0
 10
6.581944
 20
30.306944
 30
0.0
 10
6.636111
 20
30.394444
 30
0.0
 10
6.701389
 20
30.473611
 30
0.0
 10
6.777778
 20
30.541667
 30
0.0
 10
6.862500
 20
30.600000
 30
0.0
 10
6.952778
 20
30.645833
 30
0.0
 10
7.050000
 20
30.679167
 30
0.0
  0
LWPOLYLINE
  5
114
100
AcDbEntity
  8
SPOOLHOLDER4
 62
7
100
AcDbPolyline
 90
2
 70
0
 10
8.738889
 20
29.579167
 30
0.0
 10
7.438889
 20
29.230556
 30
0.0
  0
LWPOLYLINE
  5
115
100
AcDbEntity
  8
SPOOLHOLDER4
 62
7
100
AcDbPolyline
 90
11
 70
0
 10
9.481944
 20
29.644444
 30
0.0
 10
9.473611
 20
29.706944
 30
0.0
 10
9.450000
 20
29.766667
 30
0.0
 10
9.412500
 20
29.816667
 30
0.0
 10
9.362500
 20
29.856944
 30
0.0
 10
9.304167
 20
29.883333
 30
0.0
 10
9.241667
 20
29.894444
 30
0.0
 10
9.179167
 20
29.888889
 30
0.0
 10
9.119444
 20
29.866667
 30
0.0
 10
9.066667
 20
29.831944
 30
0.0
 10
9.025000
 20
29.783333
 30
0.0
  0
LWPOLYLINE
  5
116
100
AcDbEntity
  8
SPOOLHOLDER4
 62
7
100
AcDbPolyline
 90
2
 70
0
 10
9.013889
 20
24.544444
 30
0.0
 10
9.481944
 20
29.644444
 30
0.0
  0
LWPOLYLINE
  5
117
100
AcDbEntity
  8
SPOOLHOLDER4
 62
7
100
AcDbPolyline
 90
2
 70
0
 10
7.050000
 20
23.679167
 30
0.0
 10
8.645833
 20
24.106944
 30
0.0
  0
LWPOLYLINE
  5
118
100
AcDbEntity
  8
SPOOLHOLDER4
 62
7
100
AcDbPolyline
 90
24
 70
0
 10
7.438889
 20
22.230556
 30
0.0
 10
7.337500
 20
22.211111
 30
0.0
 10
7.236111
 20
22.205556
 30
0.0
 10
7.133333
 20
22.212500
 30
0.0
 10
7.033333
 20
22.234722
 30
0.0
 10
6.937500
 20
22.270833
 30
0.0
 10
6.847222
 20
22.318056
 30
0.0
 10
6.763889
 20
22.379167
 30
0.0
 10
6.690278
 20
22.450000
 30
0.0
 10
6.626389
 20
22.529167
 30
0.0
 10
6.575000
 20
22.618056
 30
0.0
 10
6.534722
 20
22.712500
 30
0.0
 10
6.508333
 20
22.811111
 30
0.0
 10
6.495833
 20
22.912500
 30
0.0
 10
6.497222
 20
23.015278
 30
0.0
 10
6.511111
 20
23.115278
 30
0.0
 10
6.540278
 20
23.213889
 30
0.0
 10
6.581944
 20
23.306944
 30
0.0
 10
6.636111
 20
23.394444
 30
0.0
 10
6.701389
 20
23.473611
 30
0.0
 10
6.777778
 20
23.541667
 30
0.0
 10
6.862500
 20
23.600000
 30
0.0
 10
6.952778
 20
23.645833
 30
0.0
 10
7.050000
 20
23.679167
 30
0.0
  0
LWPOLYLINE
  5
119
100
AcDbEntity
  8
SPOOLHOLDER4
 62
7
100
AcDbPolyline
 90
2
 70
0
 10
8.738889
 20
22.579167
 30
0.0
 10
7.438889
 20
22.230556
 30
0.0
  0
LWPOLYLINE
  5
11a
100
AcDbEntity
  8
SPOOLHOLDER4
 62
7
100
AcDbPolyline
 90
11
 70
0
 10
9.481944
 20
22.644444
 30
0.0
 10
9.473611
 20
22.706944
 30
0.0
 10
9.450000
 20
22.766667
 30
0.0
 10
9.412500
 20
22.816667
 30
0.0
 10
9.362500
 20
22.856944
 30
0.0
 10
9.304167
 20
22.883333
 30
0.0
 10
9.241667
 20
22.894444
 30
0.0
 10
9.179167
 20
22.888889
 30
0.0
 10
9.119444
 20
22.866667
 30
0.0
 10
9.066667
 20
22.831944
 30
0.0
 10
9.025000
 20
22.783333
 30
0.0
  0
LWPOLYLINE
  5
11b
100
AcDbEntity
  8
SPOOLHOLDER4
 62
7
100
AcDbPolyline
 90
2
 70
0
 10
9.013889
 20
17.544444
 30
0.0
 10
9.481944
 20
22.644444
 30
0.0
  0
LWPOLYLINE
  5
11c
100
AcDbEntity
  8
SPOOLHOLDER4
 62
7
100
AcDbPolyline
 90
2
 70
0
 10
7.050000
 20
16.679167
 30
0.0
 10
8.645833
 20
17.106944
 30
0.0
  0
LWPOLYLINE
  5
11d
100
AcDbEntity
  8
SPOOLHOLDER4
 62
7
100
AcDbPolyline
 90
24
 70
0
 10
7.438889
 20
15.230556
 30
0.0
 10
7.337500
 20
15.211111
 30
0.0
 10
7.236111
 20
15.205556
 30
0.0
 10
7.133333
 20
15.212500
 30
0.0
 10
7.033333
 20
15.234722
 30
0.0
 10
6.937500
 20
15.270833
 30
0.0
 10
6.847222
 20
15.318056
 30
0.0
 10
6.763889
 20
15.379167
 30
0.0
 10
6.690278
 20
15.450000
 30
0.0
 10
6.626389
 20
15.529167
 30
0.0
 10
6.575000
 20
15.618056
 30
0.0
 10
6.534722
 20
15.712500
 30
0.0
 10
6.508333
 20
15.811111
 30
0.0
 10
6.495833
 20
15.912500
 30
0.0
 10
6.497222
 20
16.015278
 30
0.0
 10
6.511111
 20
16.115278
 30
0.0
 10
6.540278
 20
16.213889
 30
0.0
 10
6.581944
 20
16.306944
 30
0.0
 10
6.636111
 20
16.394444
 30
0.0
 10
6.701389
 20
16.473611
 30
0.0
 10
6.777778
 20
16.541667
 30
0.0
 10
6.862500
 20
16.600000
 30
0.0
 10
6.952778
 20
16.645833
 30
0.0
 10
7.050000
 20
16.679167
 30
0.0
  0
LWPOLYLINE
  5
11e
100
AcDbEntity
  8
SPOOLHOLDER4
 62
7
100
AcDbPolyline
 90
2
 70
0
 10
8.738889
 20
15.579167
 30
0.0
 10
7.438889
 20
15.230556
 30
0.0
  0
LWPOLYLINE
  5
11f
100
AcDbEntity
  8
SPOOLHOLDER4
 62
7
100
AcDbPolyline
 90
11
 70
0
 10
9.481944
 20
15.644444
 30
0.0
 10
9.473611
 20
15.706944
 30
0.0
 10
9.450000
 20
15.766667
 30
0.0
 10
9.412500
 20
15.816667
 30
0.0
 10
9.362500
 20
15.856944
 30
0.0
 10
9.304167
 20
15.883333
 30
0.0
 10
9.241667
 20
15.894444
 30
0.0
 10
9.179167
 20
15.888889
 30
0.0
 10
9.119444
 20
15.866667
 30
0.0
 10
9.066667
 20
15.831944
 30
0.0
 10
9.025000
 20
15.783333
 30
0.0
  0
LWPOLYLINE
  5
120
100
AcDbEntity
  8
SPOOLHOLDER4
 62
7
100
AcDbPolyline
 90
2
 70
0
 10
9.013889
 20
10.544444
 30
0.0
 10
9.481944
 20
15.644444
 30
0.0
  0
ENDSEC
  0
SECTION
  2
OBJECTS
  0
DICTIONARY
  5
C
330
0
100
AcDbDictionary
  3
ACAD_GROUP
350
D
  3
ACAD_MLINESTYLE
350
17
  0
DICTIONARY
  5
D
330
C
100
AcDbDictionary
  0
DICTIONARY
  5
1A
330
C
100
AcDbDictionary
  0
DICTIONARY
  5
17
330
C
100
AcDbDictionary
  3
STANDARD
350
18
  0
DICTIONARY
  5
19
330
C
100
AcDbDictionary
  0
ENDSEC
  0
EOF
