  0
SECTION
  2
BLOCKS
  0
ENDSEC
  0
SECTION
  2
ENTITIES
  0
LINE
  8
0
 10
0
 11
0
 20
0
 21
225
  0
LINE
  8
0
 10
0
 11
225
 20
225
 21
225
  0
LINE
  8
0
 10
225
 11
225
 20
225
 21
0
  0
LINE
  8
0
 10
225
 11
0
 20
0
 21
0
  0
LINE
  8
0
 10
6.504
 11
6.504
 20
7.895
 21
8.105
  0
LINE
  8
0
 10
6.504
 11
6.533
 20
8.105
 21
8.312
  0
LINE
  8
0
 10
6.533
 11
6.59
 20
8.312
 21
8.513
  0
LINE
  8
0
 10
6.59
 11
6.676
 20
8.513
 21
8.704
  0
LINE
  8
0
 10
6.676
 11
6.786
 20
8.704
 21
8.882
  0
LINE
  8
0
 10
6.786
 11
6.921
 20
8.882
 21
9.042
  0
LINE
  8
0
 10
6.921
 11
7.077
 20
9.042
 21
9.182
  0
LINE
  8
0
 10
7.077
 11
7.25
 20
9.182
 21
9.299
  0
LINE
  8
0
 10
7.25
 11
7.438
 20
9.299
 21
9.391
  0
LINE
  8
0
 10
7.438
 11
7.637
 20
9.391
 21
9.455
  0
LINE
  8
0
 10
7.637
 11
7.843
 20
9.455
 21
9.492
  0
LINE
  8
0
 10
7.843
 11
8.052
 20
9.492
 21
9.499
  0
LINE
  8
0
 10
8.052
 11
8.26
 20
9.499
 21
9.477
  0
LINE
  8
0
 10
8.26
 11
8.464
 20
9.477
 21
9.427
  0
LINE
  8
0
 10
8.464
 11
8.658
 20
9.427
 21
9.348
  0
LINE
  8
0
 10
8.658
 11
8.839
 20
9.348
 21
9.244
  0
LINE
  8
0
 10
8.839
 11
9.004
 20
9.244
 21
9.115
  0
LINE
  8
0
 10
9.004
 11
9.149
 20
9.115
 21
8.964
  0
LINE
  8
0
 10
9.149
 11
9.272
 20
8.964
 21
8.795
  0
LINE
  8
0
 10
9.272
 11
9.37
 20
8.795
 21
8.61
  0
LINE
  8
0
 10
9.37
 11
9.442
 20
8.61
 21
8.413
  0
LINE
  8
0
 10
9.442
 11
9.485
 20
8.413
 21
8.209
  0
LINE
  8
0
 10
9.485
 11
9.5
 20
8.209
 21
8
  0
LINE
  8
0
 10
9.5
 11
9.485
 20
8
 21
7.791
  0
LINE
  8
0
 10
9.485
 11
9.442
 20
7.791
 21
7.587
  0
LINE
  8
0
 10
9.442
 11
9.37
 20
7.587
 21
7.39
  0
LINE
  8
0
 10
9.37
 11
9.272
 20
7.39
 21
7.205
  0
LINE
  8
0
 10
9.272
 11
9.149
 20
7.205
 21
7.036
  0
LINE
  8
0
 10
9.149
 11
9.004
 20
7.036
 21
6.885
  0
LINE
  8
0
 10
9.004
 11
8.839
 20
6.885
 21
6.756
  0
LINE
  8
0
 10
8.839
 11
8.658
 20
6.756
 21
6.652
  0
LINE
  8
0
 10
8.658
 11
8.464
 20
6.652
 21
6.573
  0
LINE
  8
0
 10
8.464
 11
8.26
 20
6.573
 21
6.523
  0
LINE
  8
0
 10
8.26
 11
8.052
 20
6.523
 21
6.501
  0
LINE
  8
0
 10
8.052
 11
7.843
 20
6.501
 21
6.508
  0
LINE
  8
0
 10
7.843
 11
7.637
 20
6.508
 21
6.545
  0
LINE
  8
0
 10
7.637
 11
7.438
 20
6.545
 21
6.609
  0
LINE
  8
0
 10
7.438
 11
7.25
 20
6.609
 21
6.701
  0
LINE
  8
0
 10
7.25
 11
7.077
 20
6.701
 21
6.818
  0
LINE
  8
0
 10
7.077
 11
6.921
 20
6.818
 21
6.958
  0
LINE
  8
0
 10
6.921
 11
6.786
 20
6.958
 21
7.118
  0
LINE
  8
0
 10
6.786
 11
6.676
 20
7.118
 21
7.296
  0
LINE
  8
0
 10
6.676
 11
6.59
 20
7.296
 21
7.487
  0
LINE
  8
0
 10
6.59
 11
6.533
 20
7.487
 21
7.688
  0
LINE
  8
0
 10
6.533
 11
6.504
 20
7.688
 21
7.895
  0
LINE
  8
0
 10
6.504
 11
6.504
 20
216.895
 21
217.105
  0
LINE
  8
0
 10
6.504
 11
6.533
 20
217.105
 21
217.312
  0
LINE
  8
0
 10
6.533
 11
6.59
 20
217.312
 21
217.513
  0
LINE
  8
0
 10
6.59
 11
6.676
 20
217.513
 21
217.704
  0
LINE
  8
0
 10
6.676
 11
6.786
 20
217.704
 21
217.882
  0
LINE
  8
0
 10
6.786
 11
6.921
 20
217.882
 21
218.042
  0
LINE
  8
0
 10
6.921
 11
7.077
 20
218.042
 21
218.182
  0
LINE
  8
0
 10
7.077
 11
7.25
 20
218.182
 21
218.299
  0
LINE
  8
0
 10
7.25
 11
7.438
 20
218.299
 21
218.391
  0
LINE
  8
0
 10
7.438
 11
7.637
 20
218.391
 21
218.455
  0
LINE
  8
0
 10
7.637
 11
7.843
 20
218.455
 21
218.492
  0
LINE
  8
0
 10
7.843
 11
8.052
 20
218.492
 21
218.499
  0
LINE
  8
0
 10
8.052
 11
8.26
 20
218.499
 21
218.477
  0
LINE
  8
0
 10
8.26
 11
8.464
 20
218.477
 21
218.427
  0
LINE
  8
0
 10
8.464
 11
8.658
 20
218.427
 21
218.348
  0
LINE
  8
0
 10
8.658
 11
8.839
 20
218.348
 21
218.244
  0
LINE
  8
0
 10
8.839
 11
9.004
 20
218.244
 21
218.115
  0
LINE
  8
0
 10
9.004
 11
9.149
 20
218.115
 21
217.964
  0
LINE
  8
0
 10
9.149
 11
9.272
 20
217.964
 21
217.795
  0
LINE
  8
0
 10
9.272
 11
9.37
 20
217.795
 21
217.61
  0
LINE
  8
0
 10
9.37
 11
9.442
 20
217.61
 21
217.413
  0
LINE
  8
0
 10
9.442
 11
9.485
 20
217.413
 21
217.209
  0
LINE
  8
0
 10
9.485
 11
9.5
 20
217.209
 21
217
  0
LINE
  8
0
 10
9.5
 11
9.485
 20
217
 21
216.791
  0
LINE
  8
0
 10
9.485
 11
9.442
 20
216.791
 21
216.587
  0
LINE
  8
0
 10
9.442
 11
9.37
 20
216.587
 21
216.39
  0
LINE
  8
0
 10
9.37
 11
9.272
 20
216.39
 21
216.205
  0
LINE
  8
0
 10
9.272
 11
9.149
 20
216.205
 21
216.036
  0
LINE
  8
0
 10
9.149
 11
9.004
 20
216.036
 21
215.885
  0
LINE
  8
0
 10
9.004
 11
8.839
 20
215.885
 21
215.756
  0
LINE
  8
0
 10
8.839
 11
8.658
 20
215.756
 21
215.652
  0
LINE
  8
0
 10
8.658
 11
8.464
 20
215.652
 21
215.573
  0
LINE
  8
0
 10
8.464
 11
8.26
 20
215.573
 21
215.523
  0
LINE
  8
0
 10
8.26
 11
8.052
 20
215.523
 21
215.501
  0
LINE
  8
0
 10
8.052
 11
7.843
 20
215.501
 21
215.508
  0
LINE
  8
0
 10
7.843
 11
7.637
 20
215.508
 21
215.545
  0
LINE
  8
0
 10
7.637
 11
7.438
 20
215.545
 21
215.609
  0
LINE
  8
0
 10
7.438
 11
7.25
 20
215.609
 21
215.701
  0
LINE
  8
0
 10
7.25
 11
7.077
 20
215.701
 21
215.818
  0
LINE
  8
0
 10
7.077
 11
6.921
 20
215.818
 21
215.958
  0
LINE
  8
0
 10
6.921
 11
6.786
 20
215.958
 21
216.118
  0
LINE
  8
0
 10
6.786
 11
6.676
 20
216.118
 21
216.296
  0
LINE
  8
0
 10
6.676
 11
6.59
 20
216.296
 21
216.487
  0
LINE
  8
0
 10
6.59
 11
6.533
 20
216.487
 21
216.688
  0
LINE
  8
0
 10
6.533
 11
6.504
 20
216.688
 21
216.895
  0
LINE
  8
0
 10
215.504
 11
215.504
 20
7.895
 21
8.105
  0
LINE
  8
0
 10
215.504
 11
215.533
 20
8.105
 21
8.312
  0
LINE
  8
0
 10
215.533
 11
215.59
 20
8.312
 21
8.513
  0
LINE
  8
0
 10
215.59
 11
215.676
 20
8.513
 21
8.704
  0
LINE
  8
0
 10
215.676
 11
215.786
 20
8.704
 21
8.882
  0
LINE
  8
0
 10
215.786
 11
215.921
 20
8.882
 21
9.042
  0
LINE
  8
0
 10
215.921
 11
216.077
 20
9.042
 21
9.182
  0
LINE
  8
0
 10
216.077
 11
216.25
 20
9.182
 21
9.299
  0
LINE
  8
0
 10
216.25
 11
216.438
 20
9.299
 21
9.391
  0
LINE
  8
0
 10
216.438
 11
216.637
 20
9.391
 21
9.455
  0
LINE
  8
0
 10
216.637
 11
216.843
 20
9.455
 21
9.492
  0
LINE
  8
0
 10
216.843
 11
217.052
 20
9.492
 21
9.499
  0
LINE
  8
0
 10
217.052
 11
217.26
 20
9.499
 21
9.477
  0
LINE
  8
0
 10
217.26
 11
217.464
 20
9.477
 21
9.427
  0
LINE
  8
0
 10
217.464
 11
217.658
 20
9.427
 21
9.348
  0
LINE
  8
0
 10
217.658
 11
217.839
 20
9.348
 21
9.244
  0
LINE
  8
0
 10
217.839
 11
218.004
 20
9.244
 21
9.115
  0
LINE
  8
0
 10
218.004
 11
218.149
 20
9.115
 21
8.964
  0
LINE
  8
0
 10
218.149
 11
218.272
 20
8.964
 21
8.795
  0
LINE
  8
0
 10
218.272
 11
218.37
 20
8.795
 21
8.61
  0
LINE
  8
0
 10
218.37
 11
218.442
 20
8.61
 21
8.413
  0
LINE
  8
0
 10
218.442
 11
218.485
 20
8.413
 21
8.209
  0
LINE
  8
0
 10
218.485
 11
218.5
 20
8.209
 21
8
  0
LINE
  8
0
 10
218.5
 11
218.485
 20
8
 21
7.791
  0
LINE
  8
0
 10
218.485
 11
218.442
 20
7.791
 21
7.587
  0
LINE
  8
0
 10
218.442
 11
218.37
 20
7.587
 21
7.39
  0
LINE
  8
0
 10
218.37
 11
218.272
 20
7.39
 21
7.205
  0
LINE
  8
0
 10
218.272
 11
218.149
 20
7.205
 21
7.036
  0
LINE
  8
0
 10
218.149
 11
218.004
 20
7.036
 21
6.885
  0
LINE
  8
0
 10
218.004
 11
217.839
 20
6.885
 21
6.756
  0
LINE
  8
0
 10
217.839
 11
217.658
 20
6.756
 21
6.652
  0
LINE
  8
0
 10
217.658
 11
217.464
 20
6.652
 21
6.573
  0
LINE
  8
0
 10
217.464
 11
217.26
 20
6.573
 21
6.523
  0
LINE
  8
0
 10
217.26
 11
217.052
 20
6.523
 21
6.501
  0
LINE
  8
0
 10
217.052
 11
216.843
 20
6.501
 21
6.508
  0
LINE
  8
0
 10
216.843
 11
216.637
 20
6.508
 21
6.545
  0
LINE
  8
0
 10
216.637
 11
216.438
 20
6.545
 21
6.609
  0
LINE
  8
0
 10
216.438
 11
216.25
 20
6.609
 21
6.701
  0
LINE
  8
0
 10
216.25
 11
216.077
 20
6.701
 21
6.818
  0
LINE
  8
0
 10
216.077
 11
215.921
 20
6.818
 21
6.958
  0
LINE
  8
0
 10
215.921
 11
215.786
 20
6.958
 21
7.118
  0
LINE
  8
0
 10
215.786
 11
215.676
 20
7.118
 21
7.296
  0
LINE
  8
0
 10
215.676
 11
215.59
 20
7.296
 21
7.487
  0
LINE
  8
0
 10
215.59
 11
215.533
 20
7.487
 21
7.688
  0
LINE
  8
0
 10
215.533
 11
215.504
 20
7.688
 21
7.895
  0
LINE
  8
0
 10
215.504
 11
215.504
 20
216.895
 21
217.105
  0
LINE
  8
0
 10
215.504
 11
215.533
 20
217.105
 21
217.312
  0
LINE
  8
0
 10
215.533
 11
215.59
 20
217.312
 21
217.513
  0
LINE
  8
0
 10
215.59
 11
215.676
 20
217.513
 21
217.704
  0
LINE
  8
0
 10
215.676
 11
215.786
 20
217.704
 21
217.882
  0
LINE
  8
0
 10
215.786
 11
215.921
 20
217.882
 21
218.042
  0
LINE
  8
0
 10
215.921
 11
216.077
 20
218.042
 21
218.182
  0
LINE
  8
0
 10
216.077
 11
216.25
 20
218.182
 21
218.299
  0
LINE
  8
0
 10
216.25
 11
216.438
 20
218.299
 21
218.391
  0
LINE
  8
0
 10
216.438
 11
216.637
 20
218.391
 21
218.455
  0
LINE
  8
0
 10
216.637
 11
216.843
 20
218.455
 21
218.492
  0
LINE
  8
0
 10
216.843
 11
217.052
 20
218.492
 21
218.499
  0
LINE
  8
0
 10
217.052
 11
217.26
 20
218.499
 21
218.477
  0
LINE
  8
0
 10
217.26
 11
217.464
 20
218.477
 21
218.427
  0
LINE
  8
0
 10
217.464
 11
217.658
 20
218.427
 21
218.348
  0
LINE
  8
0
 10
217.658
 11
217.839
 20
218.348
 21
218.244
  0
LINE
  8
0
 10
217.839
 11
218.004
 20
218.244
 21
218.115
  0
LINE
  8
0
 10
218.004
 11
218.149
 20
218.115
 21
217.964
  0
LINE
  8
0
 10
218.149
 11
218.272
 20
217.964
 21
217.795
  0
LINE
  8
0
 10
218.272
 11
218.37
 20
217.795
 21
217.61
  0
LINE
  8
0
 10
218.37
 11
218.442
 20
217.61
 21
217.413
  0
LINE
  8
0
 10
218.442
 11
218.485
 20
217.413
 21
217.209
  0
LINE
  8
0
 10
218.485
 11
218.5
 20
217.209
 21
217
  0
LINE
  8
0
 10
218.5
 11
218.485
 20
217
 21
216.791
  0
LINE
  8
0
 10
218.485
 11
218.442
 20
216.791
 21
216.587
  0
LINE
  8
0
 10
218.442
 11
218.37
 20
216.587
 21
216.39
  0
LINE
  8
0
 10
218.37
 11
218.272
 20
216.39
 21
216.205
  0
LINE
  8
0
 10
218.272
 11
218.149
 20
216.205
 21
216.036
  0
LINE
  8
0
 10
218.149
 11
218.004
 20
216.036
 21
215.885
  0
LINE
  8
0
 10
218.004
 11
217.839
 20
215.885
 21
215.756
  0
LINE
  8
0
 10
217.839
 11
217.658
 20
215.756
 21
215.652
  0
LINE
  8
0
 10
217.658
 11
217.464
 20
215.652
 21
215.573
  0
LINE
  8
0
 10
217.464
 11
217.26
 20
215.573
 21
215.523
  0
LINE
  8
0
 10
217.26
 11
217.052
 20
215.523
 21
215.501
  0
LINE
  8
0
 10
217.052
 11
216.843
 20
215.501
 21
215.508
  0
LINE
  8
0
 10
216.843
 11
216.637
 20
215.508
 21
215.545
  0
LINE
  8
0
 10
216.637
 11
216.438
 20
215.545
 21
215.609
  0
LINE
  8
0
 10
216.438
 11
216.25
 20
215.609
 21
215.701
  0
LINE
  8
0
 10
216.25
 11
216.077
 20
215.701
 21
215.818
  0
LINE
  8
0
 10
216.077
 11
215.921
 20
215.818
 21
215.958
  0
LINE
  8
0
 10
215.921
 11
215.786
 20
215.958
 21
216.118
  0
LINE
  8
0
 10
215.786
 11
215.676
 20
216.118
 21
216.296
  0
LINE
  8
0
 10
215.676
 11
215.59
 20
216.296
 21
216.487
  0
LINE
  8
0
 10
215.59
 11
215.533
 20
216.487
 21
216.688
  0
LINE
  8
0
 10
215.533
 11
215.504
 20
216.688
 21
216.895
  0
ENDSEC
  0
SECTION
  2
OBJECTS
  0
DICTIONARY
  0
ENDSEC
  0
EOF
