<?xml version="1.0" encoding="UTF-8" standalone="no"?>
<svg
   xmlns:dc="http://purl.org/dc/elements/1.1/"
   xmlns:cc="http://creativecommons.org/ns#"
   xmlns:rdf="http://www.w3.org/1999/02/22-rdf-syntax-ns#"
   xmlns:svg="http://www.w3.org/2000/svg"
   xmlns="http://www.w3.org/2000/svg"
   xmlns:sodipodi="http://sodipodi.sourceforge.net/DTD/sodipodi-0.dtd"
   xmlns:inkscape="http://www.inkscape.org/namespaces/inkscape"
   sodipodi:docname="water_shelf_manual.svg"
   inkscape:version="1.0.2 (e86c870879, 2021-01-15)"
   id="svg8"
   version="1.1"
   viewBox="0 0 2438.4 1219.2"
   height="48in"
   width="96in">
  <defs
     id="defs2" />
  <sodipodi:namedview
     inkscape:window-maximized="1"
     inkscape:window-y="0"
     inkscape:window-x="0"
     inkscape:window-height="1440"
     inkscape:window-width="3440"
     units="in"
     showgrid="false"
     inkscape:document-rotation="0"
     inkscape:current-layer="layer1"
     inkscape:document-units="mm"
     inkscape:cy="2004.8914"
     inkscape:cx="2343.7606"
     inkscape:zoom="0.12374369"
     inkscape:pageshadow="2"
     inkscape:pageopacity="0.0"
     borderopacity="1.0"
     bordercolor="#666666"
     pagecolor="#ffffff"
     id="base" />
  <metadata
     id="metadata5">
    <rdf:RDF>
      <cc:Work
         rdf:about="">
        <dc:format>image/svg+xml</dc:format>
        <dc:type
           rdf:resource="http://purl.org/dc/dcmitype/StillImage" />
        <dc:title></dc:title>
      </cc:Work>
    </rdf:RDF>
  </metadata>
  <g
     id="layer1"
     inkscape:groupmode="layer"
     inkscape:label="Layer 1">
    <path
       style="fill:#d300d3;fill-opacity:1"
       d="m 126.81018,1159.3287 0.043,-1.392 0.073,-1.391 0.102,-1.389 0.131,-1.386 0.16,-1.384 0.189,-1.379 0.218,-1.376 0.247,-1.371 0.275,-1.365 0.304,-1.359 0.332,-1.353 0.361,-1.345 0.388,-1.338 0.417,-1.329 0.444,-1.32 0.472,-1.31 0.499,-1.3 0.526,-1.29 0.553,-1.278 0.58,-1.266 0.606,-1.254 0.632,-1.241 0.659,-1.228 0.683,-1.213 0.709,-1.199 0.734,-1.183 0.759,-1.169 0.783,-1.151 0.806,-1.136 0.831,-1.118 0.853,-1.1 0.877,-1.083 0.899,-1.063 0.921,-1.045 0.943,-1.025 0.964,-1.006 0.984,-0.984 1.006,-0.964 1.025,-0.943 1.045,-0.921 1.063,-0.899 1.083,-0.877 1.1,-0.853 1.118,-0.831 1.136,-0.806 1.151,-0.783 1.169,-0.759 1.183,-0.734 1.199,-0.709 1.213,-0.683 1.228,-0.659 1.241,-0.632 1.254,-0.606 1.266,-0.58 1.278,-0.553 1.29,-0.526 1.3,-0.499 1.31,-0.472 1.32,-0.444 1.329,-0.417 1.338,-0.388 1.345,-0.361 1.353,-0.332 1.359,-0.304 1.365,-0.275 1.371,-0.247 1.375,-0.218 1.38,-0.189 1.384,-0.16 1.386,-0.131 1.389,-0.102 1.391,-0.073 1.392,-0.043 1.393,-0.015 H 1219.1951 l 1.393,0.015 1.392,0.043 1.391,0.073 1.389,0.102 1.386,0.131 1.384,0.16 1.38,0.189 1.375,0.218 1.371,0.247 1.365,0.275 1.359,0.304 1.353,0.332 1.345,0.361 1.338,0.388 1.329,0.417 1.32,0.444 1.31,0.472 1.3,0.499 1.29,0.526 1.278,0.553 1.266,0.58 1.254,0.606 1.241,0.632 1.228,0.659 1.213,0.683 1.199,0.709 1.183,0.734 1.169,0.759 1.151,0.783 1.136,0.806 1.118,0.831 1.1,0.853 1.083,0.877 1.063,0.899 1.045,0.921 1.025,0.943 1.006,0.964 0.984,0.984 0.964,1.006 0.943,1.025 0.921,1.045 0.899,1.063 0.877,1.083 0.853,1.1 0.831,1.118 0.806,1.136 0.783,1.151 0.759,1.169 0.734,1.183 0.709,1.199 0.683,1.213 0.659,1.228 0.632,1.241 0.606,1.254 0.58,1.266 0.553,1.278 0.526,1.29 0.499,1.3 0.472,1.31 0.444,1.32 0.417,1.329 0.388,1.338 0.361,1.345 0.332,1.353 0.304,1.359 0.275,1.365 0.247,1.371 0.218,1.376 0.189,1.379 0.16,1.384 0.131,1.386 0.102,1.389 0.073,1.391 0.043,1.392 0.015,1.393 h 33.25 V 524.12145 H 93.545178 v 636.60025 h 33.250002 z"
       id="path1553" />
    <path
       d="m 2088.5973,644.00541 h -33.2501 l -0.015,1.3927 -0.044,1.392 -0.073,1.3909 -0.102,1.389 -0.131,1.3866 -0.1601,1.3835 -0.189,1.3798 -0.2179,1.3756 -0.2466,1.3708 -0.2753,1.3652 -0.3038,1.3592 -0.3323,1.3526 -0.3604,1.3453 -0.3886,1.3374 -0.4165,1.329 -0.4442,1.32 -0.4718,1.3105 -0.4991,1.3002 -0.5262,1.2895 -0.5531,1.2782 -0.5798,1.2663 -0.6062,1.254 -0.6323,1.2409 -0.6581,1.2274 -0.6837,1.2134 -0.709,1.1988 -0.7339,1.1837 -0.7586,1.168 -0.7828,1.1519 -0.8068,1.1353 -0.8304,1.1181 -0.8536,1.1005 -0.8765,1.0824 -0.8989,1.0638 -0.9211,1.0447 -0.9427,1.0252 -0.964,1.0052 -0.9848,0.9848 -1.0052,0.964 -1.0252,0.9427 -1.0447,0.9211 -1.0638,0.8989 -1.0824,0.8765 -1.1004,0.8536 -1.1182,0.8304 -1.1352,0.8068 -1.1519,0.7829 -1.1681,0.7585 -1.1837,0.7339 -1.1988,0.709 -1.2134,0.6837 -1.2274,0.6581 -1.2409,0.6323 -1.254,0.6062 -1.2663,0.5798 -1.2782,0.5531 -1.2895,0.5262 -1.3002,0.4991 -1.3105,0.4718 -1.32,0.4443 -1.329,0.4164 -1.3374,0.3886 -1.3453,0.3605 -1.3526,0.3322 -1.3592,0.3038 -1.3652,0.2753 -1.3708,0.2466 -1.3756,0.2179 -1.3798,0.189 -1.3835,0.1601 -1.3866,0.1311 -1.389,0.102 -1.3909,0.073 -1.392,0.044 -1.3927,0.015 h 99.75 z"
       id="path1565" />
    <path
       d="m 1596.2936,515.37681 h 33.2501 l 0.015,-1.393 0.044,-1.392 0.073,-1.391 0.102,-1.389 0.131,-1.386 0.1601,-1.384 0.189,-1.38 0.2179,-1.375 0.2466,-1.371 0.2753,-1.365 0.3038,-1.359 0.3323,-1.353 0.3604,-1.345 0.3886,-1.338 0.4165,-1.329 0.4442,-1.32 0.4718,-1.31 0.4991,-1.3 0.5262,-1.29 0.5531,-1.278 0.5798,-1.266 0.6062,-1.254 0.6323,-1.241 0.6581,-1.228 0.6837,-1.213 0.709,-1.199 0.7339,-1.183 0.7586,-1.169 0.7828,-1.151 0.8068,-1.136 0.8304,-1.118 0.8536,-1.1 0.8765,-1.083 0.8989,-1.063 0.9211,-1.045 0.9427,-1.025 0.964,-1.006 0.9848,-0.984 1.0052,-0.964 1.0252,-0.943 1.0447,-0.921 1.0638,-0.899 1.0824,-0.877 1.1004,-0.853 1.1182,-0.831 1.1352,-0.806 1.1519,-0.783 1.1681,-0.759 1.1837,-0.734 1.1988,-0.709 1.2134,-0.683 1.2274,-0.659 1.2409,-0.632 1.254,-0.606 1.2663,-0.58 1.2782,-0.553 1.2895,-0.526 1.3002,-0.499 1.3105,-0.472 1.32,-0.444 1.329,-0.417 1.3374,-0.388 1.3453,-0.361 1.3526,-0.332 1.3592,-0.304 1.3652,-0.275 1.3708,-0.247 1.3756,-0.218 1.3798,-0.189 1.3835,-0.16 1.3866,-0.131 1.389,-0.102 1.3909,-0.073 1.392,-0.043 1.3927,-0.015 h -99.75 z"
       id="path1563" />
    <path
       style="fill:#0000d3;fill-opacity:1"
       d="M 976.09511,1024.3715 V 872.67145 h 285.69999 v 151.70005 z"
       id="path1576" />
    <path
       style="fill:#0000d3;fill-opacity:1"
       d="M 563.39518,1024.3715 V 872.67145 h 285.6999 v 151.70005 z"
       id="path1574" />
    <path
       style="fill:#0000d3;fill-opacity:1"
       d="M 150.69518,1024.3715 V 872.67145 h 285.7 v 151.70005 z"
       id="path1572" />
    <path
       style="fill:#0000d3;fill-opacity:1"
       d="m 150.69518,745.67145 v -151.7 H 1261.7951 v 151.7 z"
       id="path1570" />
    <path
       d="M 1369.4895,294.51193 H 67.889564 V 491.01192 H 1369.4895 Z"
       id="path1551" />
    <path
       d="M 1369.4895,63.086864 H 67.889458 V 259.58671 H 1369.4895 Z"
       id="path1549" />
    <path
       d="m 1546.9539,738.46009 v -636.6 h -145.7 v 636.6 z"
       id="path1547" />
    <path
       d="M 2268.1678,1102.284 V 465.68406 H 2122.4679 V 1102.284 Z"
       id="path1545" />
    <path
       d="M 1727.8815,408.27827 V 142.27829 h -133.0007 v 265.99999 z"
       id="path1543" />
    <path
       d="M 2084.7957,1024.7079 V 758.70792 h -133.0005 v 265.99998 z"
       id="path1541" />
    <path
       d="m 2294.08,116.41127 -612.7,1061.22763 -115.1814,-66.5002 612.7,-1061.227431 z"
       id="path1539" />
    <path
       d="M 2091.0245,114.76933 1478.3246,1175.997 1363.143,1109.4968 1975.843,48.269345 Z"
       id="path1526" />
  </g>
</svg>
