solid OpenSCAD_Model
  facet normal 0 0 -1
    outer loop
      vertex 5 1 3
      vertex 5 1.6 3
      vertex 205 1 3
    endloop
  endfacet
  facet normal 0 0 -1
    outer loop
      vertex 205 1 3
      vertex 5 1.6 3
      vertex 205 1.6 3
    endloop
  endfacet
  facet normal -1 0 0
    outer loop
      vertex 5 1.6 4.9
      vertex 5 1 5.5
      vertex 5 10.9 4.9
    endloop
  endfacet
  facet normal -1 0 0
    outer loop
      vertex 5 11.5 5.5
      vertex 5 11.5 3
      vertex 5 10.9 4.9
    endloop
  endfacet
  facet normal -1 0 0
    outer loop
      vertex 5 11.5 5.5
      vertex 5 10.9 4.9
      vertex 5 1 5.5
    endloop
  endfacet
  facet normal -1 0 0
    outer loop
      vertex 5 1 5.5
      vertex 5 1.6 4.9
      vertex 5 1.6 3
    endloop
  endfacet
  facet normal -1 0 0
    outer loop
      vertex 5 1 5.5
      vertex 5 1.6 3
      vertex 5 1 3
    endloop
  endfacet
  facet normal -1 0 0
    outer loop
      vertex 5 10.9 4.9
      vertex 5 11.5 3
      vertex 5 10.9 3
    endloop
  endfacet
  facet normal 0 -1 0
    outer loop
      vertex 5 1 5.5
      vertex 5 1 3
      vertex 205 1 3
    endloop
  endfacet
  facet normal 0 -1 0
    outer loop
      vertex 205 1 5.5
      vertex 5 1 5.5
      vertex 205 1 3
    endloop
  endfacet
  facet normal 1 0 0
    outer loop
      vertex 205 1 5.5
      vertex 205 1 3
      vertex 205 1.6 3
    endloop
  endfacet
  facet normal 1 0 0
    outer loop
      vertex 205 10.9 4.9
      vertex 205 1 5.5
      vertex 205 1.6 4.9
    endloop
  endfacet
  facet normal 1 0 0
    outer loop
      vertex 205 1.6 4.9
      vertex 205 1 5.5
      vertex 205 1.6 3
    endloop
  endfacet
  facet normal 1 0 0
    outer loop
      vertex 205 11.5 5.5
      vertex 205 1 5.5
      vertex 205 10.9 4.9
    endloop
  endfacet
  facet normal 1 0 0
    outer loop
      vertex 205 11.5 3
      vertex 205 10.9 4.9
      vertex 205 10.9 3
    endloop
  endfacet
  facet normal 1 0 0
    outer loop
      vertex 205 11.5 5.5
      vertex 205 10.9 4.9
      vertex 205 11.5 3
    endloop
  endfacet
  facet normal 0 1 0
    outer loop
      vertex 205 1.6 4.9
      vertex 205 1.6 3
      vertex 5 1.6 4.9
    endloop
  endfacet
  facet normal 0 1 0
    outer loop
      vertex 5 1.6 4.9
      vertex 205 1.6 3
      vertex 5 1.6 3
    endloop
  endfacet
  facet normal 0 0 1
    outer loop
      vertex 5 11.5 5.5
      vertex 5 1 5.5
      vertex 205 1 5.5
    endloop
  endfacet
  facet normal 0 0 1
    outer loop
      vertex 205 11.5 5.5
      vertex 5 11.5 5.5
      vertex 205 1 5.5
    endloop
  endfacet
  facet normal 0 0 -1
    outer loop
      vertex 205 10.9 4.9
      vertex 205 1.6 4.9
      vertex 5 10.9 4.9
    endloop
  endfacet
  facet normal 0 0 -1
    outer loop
      vertex 5 10.9 4.9
      vertex 205 1.6 4.9
      vertex 5 1.6 4.9
    endloop
  endfacet
  facet normal 0 -1 0
    outer loop
      vertex 205 10.9 3
      vertex 205 10.9 4.9
      vertex 5 10.9 4.9
    endloop
  endfacet
  facet normal 0 -1 0
    outer loop
      vertex 5 10.9 3
      vertex 205 10.9 3
      vertex 5 10.9 4.9
    endloop
  endfacet
  facet normal 0 0 -1
    outer loop
      vertex 5 10.9 3
      vertex 5 11.5 3
      vertex 205 10.9 3
    endloop
  endfacet
  facet normal 0 0 -1
    outer loop
      vertex 205 10.9 3
      vertex 5 11.5 3
      vertex 205 11.5 3
    endloop
  endfacet
  facet normal 0 1 0
    outer loop
      vertex 5 11.5 3
      vertex 5 11.5 5.5
      vertex 205 11.5 3
    endloop
  endfacet
  facet normal 0 1 0
    outer loop
      vertex 205 11.5 3
      vertex 5 11.5 5.5
      vertex 205 11.5 5.5
    endloop
  endfacet
endsolid OpenSCAD_Model
