  0
SECTION
  2
BLOCKS
  0
ENDSEC
  0
SECTION
  2
ENTITIES
  0
LINE
  8
0
 10
1.504
 11
1.504
 20
2.895
 21
3.105
  0
LINE
  8
0
 10
1.504
 11
1.533
 20
3.105
 21
3.312
  0
LINE
  8
0
 10
1.533
 11
1.59
 20
3.312
 21
3.513
  0
LINE
  8
0
 10
1.59
 11
1.676
 20
3.513
 21
3.704
  0
LINE
  8
0
 10
1.676
 11
1.786
 20
3.704
 21
3.882
  0
LINE
  8
0
 10
1.786
 11
1.921
 20
3.882
 21
4.042
  0
LINE
  8
0
 10
1.921
 11
2.077
 20
4.042
 21
4.182
  0
LINE
  8
0
 10
2.077
 11
2.25
 20
4.182
 21
4.299
  0
LINE
  8
0
 10
2.25
 11
2.438
 20
4.299
 21
4.391
  0
LINE
  8
0
 10
2.438
 11
2.637
 20
4.391
 21
4.455
  0
LINE
  8
0
 10
2.637
 11
2.843
 20
4.455
 21
4.492
  0
LINE
  8
0
 10
2.843
 11
3.052
 20
4.492
 21
4.499
  0
LINE
  8
0
 10
3.052
 11
3.26
 20
4.499
 21
4.477
  0
LINE
  8
0
 10
3.26
 11
3.464
 20
4.477
 21
4.427
  0
LINE
  8
0
 10
3.464
 11
3.658
 20
4.427
 21
4.348
  0
LINE
  8
0
 10
3.658
 11
3.839
 20
4.348
 21
4.244
  0
LINE
  8
0
 10
3.839
 11
4.004
 20
4.244
 21
4.115
  0
LINE
  8
0
 10
4.004
 11
4.149
 20
4.115
 21
3.964
  0
LINE
  8
0
 10
4.149
 11
4.272
 20
3.964
 21
3.795
  0
LINE
  8
0
 10
4.272
 11
4.37
 20
3.795
 21
3.61
  0
LINE
  8
0
 10
4.37
 11
4.442
 20
3.61
 21
3.413
  0
LINE
  8
0
 10
4.442
 11
4.485
 20
3.413
 21
3.209
  0
LINE
  8
0
 10
4.485
 11
4.5
 20
3.209
 21
3
  0
LINE
  8
0
 10
4.5
 11
4.485
 20
3
 21
2.791
  0
LINE
  8
0
 10
4.485
 11
4.442
 20
2.791
 21
2.587
  0
LINE
  8
0
 10
4.442
 11
4.37
 20
2.587
 21
2.39
  0
LINE
  8
0
 10
4.37
 11
4.272
 20
2.39
 21
2.205
  0
LINE
  8
0
 10
4.272
 11
4.149
 20
2.205
 21
2.036
  0
LINE
  8
0
 10
4.149
 11
4.004
 20
2.036
 21
1.885
  0
LINE
  8
0
 10
4.004
 11
3.839
 20
1.885
 21
1.756
  0
LINE
  8
0
 10
3.839
 11
3.658
 20
1.756
 21
1.652
  0
LINE
  8
0
 10
3.658
 11
3.464
 20
1.652
 21
1.573
  0
LINE
  8
0
 10
3.464
 11
3.26
 20
1.573
 21
1.523
  0
LINE
  8
0
 10
3.26
 11
3.052
 20
1.523
 21
1.501
  0
LINE
  8
0
 10
3.052
 11
2.843
 20
1.501
 21
1.508
  0
LINE
  8
0
 10
2.843
 11
2.637
 20
1.508
 21
1.545
  0
LINE
  8
0
 10
2.637
 11
2.438
 20
1.545
 21
1.609
  0
LINE
  8
0
 10
2.438
 11
2.25
 20
1.609
 21
1.701
  0
LINE
  8
0
 10
2.25
 11
2.077
 20
1.701
 21
1.818
  0
LINE
  8
0
 10
2.077
 11
1.921
 20
1.818
 21
1.958
  0
LINE
  8
0
 10
1.921
 11
1.786
 20
1.958
 21
2.118
  0
LINE
  8
0
 10
1.786
 11
1.676
 20
2.118
 21
2.296
  0
LINE
  8
0
 10
1.676
 11
1.59
 20
2.296
 21
2.487
  0
LINE
  8
0
 10
1.59
 11
1.533
 20
2.487
 21
2.688
  0
LINE
  8
0
 10
1.533
 11
1.504
 20
2.688
 21
2.895
  0
LINE
  8
0
 10
1.504
 11
1.504
 20
211.895
 21
212.105
  0
LINE
  8
0
 10
1.504
 11
1.533
 20
212.105
 21
212.312
  0
LINE
  8
0
 10
1.533
 11
1.59
 20
212.312
 21
212.513
  0
LINE
  8
0
 10
1.59
 11
1.676
 20
212.513
 21
212.704
  0
LINE
  8
0
 10
1.676
 11
1.786
 20
212.704
 21
212.882
  0
LINE
  8
0
 10
1.786
 11
1.921
 20
212.882
 21
213.042
  0
LINE
  8
0
 10
1.921
 11
2.077
 20
213.042
 21
213.182
  0
LINE
  8
0
 10
2.077
 11
2.25
 20
213.182
 21
213.299
  0
LINE
  8
0
 10
2.25
 11
2.438
 20
213.299
 21
213.391
  0
LINE
  8
0
 10
2.438
 11
2.637
 20
213.391
 21
213.455
  0
LINE
  8
0
 10
2.637
 11
2.843
 20
213.455
 21
213.492
  0
LINE
  8
0
 10
2.843
 11
3.052
 20
213.492
 21
213.499
  0
LINE
  8
0
 10
3.052
 11
3.26
 20
213.499
 21
213.477
  0
LINE
  8
0
 10
3.26
 11
3.464
 20
213.477
 21
213.427
  0
LINE
  8
0
 10
3.464
 11
3.658
 20
213.427
 21
213.348
  0
LINE
  8
0
 10
3.658
 11
3.839
 20
213.348
 21
213.244
  0
LINE
  8
0
 10
3.839
 11
4.004
 20
213.244
 21
213.115
  0
LINE
  8
0
 10
4.004
 11
4.149
 20
213.115
 21
212.964
  0
LINE
  8
0
 10
4.149
 11
4.272
 20
212.964
 21
212.795
  0
LINE
  8
0
 10
4.272
 11
4.37
 20
212.795
 21
212.61
  0
LINE
  8
0
 10
4.37
 11
4.442
 20
212.61
 21
212.413
  0
LINE
  8
0
 10
4.442
 11
4.485
 20
212.413
 21
212.209
  0
LINE
  8
0
 10
4.485
 11
4.5
 20
212.209
 21
212
  0
LINE
  8
0
 10
4.5
 11
4.485
 20
212
 21
211.791
  0
LINE
  8
0
 10
4.485
 11
4.442
 20
211.791
 21
211.587
  0
LINE
  8
0
 10
4.442
 11
4.37
 20
211.587
 21
211.39
  0
LINE
  8
0
 10
4.37
 11
4.272
 20
211.39
 21
211.205
  0
LINE
  8
0
 10
4.272
 11
4.149
 20
211.205
 21
211.036
  0
LINE
  8
0
 10
4.149
 11
4.004
 20
211.036
 21
210.885
  0
LINE
  8
0
 10
4.004
 11
3.839
 20
210.885
 21
210.756
  0
LINE
  8
0
 10
3.839
 11
3.658
 20
210.756
 21
210.652
  0
LINE
  8
0
 10
3.658
 11
3.464
 20
210.652
 21
210.573
  0
LINE
  8
0
 10
3.464
 11
3.26
 20
210.573
 21
210.523
  0
LINE
  8
0
 10
3.26
 11
3.052
 20
210.523
 21
210.501
  0
LINE
  8
0
 10
3.052
 11
2.843
 20
210.501
 21
210.508
  0
LINE
  8
0
 10
2.843
 11
2.637
 20
210.508
 21
210.545
  0
LINE
  8
0
 10
2.637
 11
2.438
 20
210.545
 21
210.609
  0
LINE
  8
0
 10
2.438
 11
2.25
 20
210.609
 21
210.701
  0
LINE
  8
0
 10
2.25
 11
2.077
 20
210.701
 21
210.818
  0
LINE
  8
0
 10
2.077
 11
1.921
 20
210.818
 21
210.958
  0
LINE
  8
0
 10
1.921
 11
1.786
 20
210.958
 21
211.118
  0
LINE
  8
0
 10
1.786
 11
1.676
 20
211.118
 21
211.296
  0
LINE
  8
0
 10
1.676
 11
1.59
 20
211.296
 21
211.487
  0
LINE
  8
0
 10
1.59
 11
1.533
 20
211.487
 21
211.688
  0
LINE
  8
0
 10
1.533
 11
1.504
 20
211.688
 21
211.895
  0
LINE
  8
0
 10
0
 11
0
 20
0
 21
215
  0
LINE
  8
0
 10
0
 11
90
 20
215
 21
215
  0
LINE
  8
0
 10
90
 11
90
 20
215
 21
165.1
  0
LINE
  8
0
 10
90
 11
125
 20
165.1
 21
165.1
  0
LINE
  8
0
 10
125
 11
125
 20
165.1
 21
215
  0
LINE
  8
0
 10
125
 11
215
 20
215
 21
215
  0
LINE
  8
0
 10
215
 11
215
 20
215
 21
0
  0
LINE
  8
0
 10
215
 11
0
 20
0
 21
0
  0
LINE
  8
0
 10
35
 11
35
 20
62
 21
72
  0
LINE
  8
0
 10
35
 11
65
 20
72
 21
72
  0
LINE
  8
0
 10
65
 11
65
 20
72
 21
62
  0
LINE
  8
0
 10
65
 11
35
 20
62
 21
62
  0
LINE
  8
0
 10
35
 11
35
 20
143
 21
153
  0
LINE
  8
0
 10
35
 11
65
 20
153
 21
153
  0
LINE
  8
0
 10
65
 11
65
 20
153
 21
143
  0
LINE
  8
0
 10
65
 11
35
 20
143
 21
143
  0
LINE
  8
0
 10
90
 11
90
 20
90
 21
125
  0
LINE
  8
0
 10
90
 11
125
 20
125
 21
125
  0
LINE
  8
0
 10
125
 11
125
 20
125
 21
90
  0
LINE
  8
0
 10
125
 11
90
 20
90
 21
90
  0
LINE
  8
0
 10
150
 11
150
 20
62
 21
72
  0
LINE
  8
0
 10
150
 11
180
 20
72
 21
72
  0
LINE
  8
0
 10
180
 11
180
 20
72
 21
62
  0
LINE
  8
0
 10
180
 11
150
 20
62
 21
62
  0
LINE
  8
0
 10
150
 11
150
 20
143
 21
153
  0
LINE
  8
0
 10
150
 11
180
 20
153
 21
153
  0
LINE
  8
0
 10
180
 11
180
 20
153
 21
143
  0
LINE
  8
0
 10
180
 11
150
 20
143
 21
143
  0
LINE
  8
0
 10
210.504
 11
210.504
 20
2.895
 21
3.105
  0
LINE
  8
0
 10
210.504
 11
210.533
 20
3.105
 21
3.312
  0
LINE
  8
0
 10
210.533
 11
210.59
 20
3.312
 21
3.513
  0
LINE
  8
0
 10
210.59
 11
210.676
 20
3.513
 21
3.704
  0
LINE
  8
0
 10
210.676
 11
210.786
 20
3.704
 21
3.882
  0
LINE
  8
0
 10
210.786
 11
210.921
 20
3.882
 21
4.042
  0
LINE
  8
0
 10
210.921
 11
211.077
 20
4.042
 21
4.182
  0
LINE
  8
0
 10
211.077
 11
211.25
 20
4.182
 21
4.299
  0
LINE
  8
0
 10
211.25
 11
211.438
 20
4.299
 21
4.391
  0
LINE
  8
0
 10
211.438
 11
211.637
 20
4.391
 21
4.455
  0
LINE
  8
0
 10
211.637
 11
211.843
 20
4.455
 21
4.492
  0
LINE
  8
0
 10
211.843
 11
212.052
 20
4.492
 21
4.499
  0
LINE
  8
0
 10
212.052
 11
212.26
 20
4.499
 21
4.477
  0
LINE
  8
0
 10
212.26
 11
212.464
 20
4.477
 21
4.427
  0
LINE
  8
0
 10
212.464
 11
212.658
 20
4.427
 21
4.348
  0
LINE
  8
0
 10
212.658
 11
212.839
 20
4.348
 21
4.244
  0
LINE
  8
0
 10
212.839
 11
213.004
 20
4.244
 21
4.115
  0
LINE
  8
0
 10
213.004
 11
213.149
 20
4.115
 21
3.964
  0
LINE
  8
0
 10
213.149
 11
213.272
 20
3.964
 21
3.795
  0
LINE
  8
0
 10
213.272
 11
213.37
 20
3.795
 21
3.61
  0
LINE
  8
0
 10
213.37
 11
213.442
 20
3.61
 21
3.413
  0
LINE
  8
0
 10
213.442
 11
213.485
 20
3.413
 21
3.209
  0
LINE
  8
0
 10
213.485
 11
213.5
 20
3.209
 21
3
  0
LINE
  8
0
 10
213.5
 11
213.485
 20
3
 21
2.791
  0
LINE
  8
0
 10
213.485
 11
213.442
 20
2.791
 21
2.587
  0
LINE
  8
0
 10
213.442
 11
213.37
 20
2.587
 21
2.39
  0
LINE
  8
0
 10
213.37
 11
213.272
 20
2.39
 21
2.205
  0
LINE
  8
0
 10
213.272
 11
213.149
 20
2.205
 21
2.036
  0
LINE
  8
0
 10
213.149
 11
213.004
 20
2.036
 21
1.885
  0
LINE
  8
0
 10
213.004
 11
212.839
 20
1.885
 21
1.756
  0
LINE
  8
0
 10
212.839
 11
212.658
 20
1.756
 21
1.652
  0
LINE
  8
0
 10
212.658
 11
212.464
 20
1.652
 21
1.573
  0
LINE
  8
0
 10
212.464
 11
212.26
 20
1.573
 21
1.523
  0
LINE
  8
0
 10
212.26
 11
212.052
 20
1.523
 21
1.501
  0
LINE
  8
0
 10
212.052
 11
211.843
 20
1.501
 21
1.508
  0
LINE
  8
0
 10
211.843
 11
211.637
 20
1.508
 21
1.545
  0
LINE
  8
0
 10
211.637
 11
211.438
 20
1.545
 21
1.609
  0
LINE
  8
0
 10
211.438
 11
211.25
 20
1.609
 21
1.701
  0
LINE
  8
0
 10
211.25
 11
211.077
 20
1.701
 21
1.818
  0
LINE
  8
0
 10
211.077
 11
210.921
 20
1.818
 21
1.958
  0
LINE
  8
0
 10
210.921
 11
210.786
 20
1.958
 21
2.118
  0
LINE
  8
0
 10
210.786
 11
210.676
 20
2.118
 21
2.296
  0
LINE
  8
0
 10
210.676
 11
210.59
 20
2.296
 21
2.487
  0
LINE
  8
0
 10
210.59
 11
210.533
 20
2.487
 21
2.688
  0
LINE
  8
0
 10
210.533
 11
210.504
 20
2.688
 21
2.895
  0
LINE
  8
0
 10
210.504
 11
210.504
 20
211.895
 21
212.105
  0
LINE
  8
0
 10
210.504
 11
210.533
 20
212.105
 21
212.312
  0
LINE
  8
0
 10
210.533
 11
210.59
 20
212.312
 21
212.513
  0
LINE
  8
0
 10
210.59
 11
210.676
 20
212.513
 21
212.704
  0
LINE
  8
0
 10
210.676
 11
210.786
 20
212.704
 21
212.882
  0
LINE
  8
0
 10
210.786
 11
210.921
 20
212.882
 21
213.042
  0
LINE
  8
0
 10
210.921
 11
211.077
 20
213.042
 21
213.182
  0
LINE
  8
0
 10
211.077
 11
211.25
 20
213.182
 21
213.299
  0
LINE
  8
0
 10
211.25
 11
211.438
 20
213.299
 21
213.391
  0
LINE
  8
0
 10
211.438
 11
211.637
 20
213.391
 21
213.455
  0
LINE
  8
0
 10
211.637
 11
211.843
 20
213.455
 21
213.492
  0
LINE
  8
0
 10
211.843
 11
212.052
 20
213.492
 21
213.499
  0
LINE
  8
0
 10
212.052
 11
212.26
 20
213.499
 21
213.477
  0
LINE
  8
0
 10
212.26
 11
212.464
 20
213.477
 21
213.427
  0
LINE
  8
0
 10
212.464
 11
212.658
 20
213.427
 21
213.348
  0
LINE
  8
0
 10
212.658
 11
212.839
 20
213.348
 21
213.244
  0
LINE
  8
0
 10
212.839
 11
213.004
 20
213.244
 21
213.115
  0
LINE
  8
0
 10
213.004
 11
213.149
 20
213.115
 21
212.964
  0
LINE
  8
0
 10
213.149
 11
213.272
 20
212.964
 21
212.795
  0
LINE
  8
0
 10
213.272
 11
213.37
 20
212.795
 21
212.61
  0
LINE
  8
0
 10
213.37
 11
213.442
 20
212.61
 21
212.413
  0
LINE
  8
0
 10
213.442
 11
213.485
 20
212.413
 21
212.209
  0
LINE
  8
0
 10
213.485
 11
213.5
 20
212.209
 21
212
  0
LINE
  8
0
 10
213.5
 11
213.485
 20
212
 21
211.791
  0
LINE
  8
0
 10
213.485
 11
213.442
 20
211.791
 21
211.587
  0
LINE
  8
0
 10
213.442
 11
213.37
 20
211.587
 21
211.39
  0
LINE
  8
0
 10
213.37
 11
213.272
 20
211.39
 21
211.205
  0
LINE
  8
0
 10
213.272
 11
213.149
 20
211.205
 21
211.036
  0
LINE
  8
0
 10
213.149
 11
213.004
 20
211.036
 21
210.885
  0
LINE
  8
0
 10
213.004
 11
212.839
 20
210.885
 21
210.756
  0
LINE
  8
0
 10
212.839
 11
212.658
 20
210.756
 21
210.652
  0
LINE
  8
0
 10
212.658
 11
212.464
 20
210.652
 21
210.573
  0
LINE
  8
0
 10
212.464
 11
212.26
 20
210.573
 21
210.523
  0
LINE
  8
0
 10
212.26
 11
212.052
 20
210.523
 21
210.501
  0
LINE
  8
0
 10
212.052
 11
211.843
 20
210.501
 21
210.508
  0
LINE
  8
0
 10
211.843
 11
211.637
 20
210.508
 21
210.545
  0
LINE
  8
0
 10
211.637
 11
211.438
 20
210.545
 21
210.609
  0
LINE
  8
0
 10
211.438
 11
211.25
 20
210.609
 21
210.701
  0
LINE
  8
0
 10
211.25
 11
211.077
 20
210.701
 21
210.818
  0
LINE
  8
0
 10
211.077
 11
210.921
 20
210.818
 21
210.958
  0
LINE
  8
0
 10
210.921
 11
210.786
 20
210.958
 21
211.118
  0
LINE
  8
0
 10
210.786
 11
210.676
 20
211.118
 21
211.296
  0
LINE
  8
0
 10
210.676
 11
210.59
 20
211.296
 21
211.487
  0
LINE
  8
0
 10
210.59
 11
210.533
 20
211.487
 21
211.688
  0
LINE
  8
0
 10
210.533
 11
210.504
 20
211.688
 21
211.895
  0
ENDSEC
  0
SECTION
  2
OBJECTS
  0
DICTIONARY
  0
ENDSEC
  0
EOF
